<svg xmlns="http://www.w3.org/2000/svg" viewBox="0 0 80.22 100"><defs><style>.cls-1{fill:#fff;}</style></defs><g id="Calque_2" data-name="Calque 2"><g id="Calque_1-2" data-name="Calque 1"><path id="Icon_simple-gumtree-2" data-name="Icon simple-gumtree-2" class="cls-1" d="M67.78,26.19a2.8,2.8,0,0,1-1.4-2.34,27.29,27.29,0,0,0-54.32,1.91,2.78,2.78,0,0,1-1.22,2.42,27.36,27.36,0,0,0,10.4,48.47c2.13.46,4,.65,4.76.09,1.55-.84,2.9-7.75,2.05-9.31-.56-.76-2.43-1.49-4.29-2A16.13,16.13,0,0,1,11.35,50.34a15.89,15.89,0,0,1,3.84-11A15,15,0,0,1,19,36.07a9.32,9.32,0,0,0,4.46-8.34,15.3,15.3,0,0,1,.61-5,16.1,16.1,0,0,1,30.59-1.07,15.13,15.13,0,0,1,1,5,8.8,8.8,0,0,0,5.05,8,11.17,11.17,0,0,1,4,3,15.76,15.76,0,0,1,4.6,10.68A16,16,0,0,1,54,64.88h-.19A18.48,18.48,0,0,0,36,83.93l.36,10.51c.08,2.06.42,4.18,1,4.73,1.36,1.27,8.22,1,9.49-.33.55-.59.72-2.66.65-4.79L47.1,83.29A7.15,7.15,0,0,1,54,75.9h0A27.12,27.12,0,0,0,67.84,26l-.06.14Z"/></g></g></svg>