<svg xmlns="http://www.w3.org/2000/svg" viewBox="0 0 100 92.38"><g id="bfb2de64-fe00-42da-8adb-aade160dde49" data-name="Calque 2"><g id="f453e01c-b012-4707-bc0a-b5130c3b030f" data-name="Calque 1"><path d="M67.37,80.1A4.4,4.4,0,0,1,66,78.85a3.62,3.62,0,0,1-.42-.74H6.73v-58H86.66V58a4.45,4.45,0,0,1,3.74,2.81,4.2,4.2,0,0,1,1.75-.53,4.27,4.27,0,0,1,1.24.07V5.61A5.61,5.61,0,0,0,87.78,0H5.61A5.62,5.62,0,0,0,0,5.61V79.23a5.61,5.61,0,0,0,5.61,5.61H66.86a4.35,4.35,0,0,1-.31-3.11A4.48,4.48,0,0,1,67.37,80.1ZM80.5,9.42a2.07,2.07,0,0,1,2.07-2.07h2.07a2.07,2.07,0,0,1,2.07,2.07v2.35a2.08,2.08,0,0,1-2.07,2.08H82.57a2.07,2.07,0,0,1-2.07-2.08Zm-9.64,0a2.07,2.07,0,0,1,2.07-2.07H75a2.08,2.08,0,0,1,2.08,2.07v2.35A2.08,2.08,0,0,1,75,13.85H72.93a2.08,2.08,0,0,1-2.07-2.08Zm-9.64,0A2.08,2.08,0,0,1,63.3,7.35h2.07a2.07,2.07,0,0,1,2.07,2.07v2.35a2.08,2.08,0,0,1-2.07,2.08H63.3a2.08,2.08,0,0,1-2.08-2.08Z" style="fill:#c0c0bf"/><path d="M100,76.15l-.63-3.53a.87.87,0,0,0-1-.71l-3.14.55A12.13,12.13,0,0,0,93.78,70l2-2.44a.89.89,0,0,0-.11-1.24L93,64a.89.89,0,0,0-1.24.11l-2,2.44a12,12,0,0,0-2.69-1V62.39a.87.87,0,0,0-.87-.87H82.55a.87.87,0,0,0-.87.87v3.19a11.67,11.67,0,0,0-2.69,1l-2-2.44A.87.87,0,0,0,75.71,64L73,66.31a.88.88,0,0,0-.31.6.93.93,0,0,0,.2.64L74.91,70a11.69,11.69,0,0,0-1.43,2.47l-3.14-.55a.88.88,0,0,0-1,.71l-.62,3.53a.88.88,0,0,0,.14.65.9.9,0,0,0,.57.36l3.14.56a11.42,11.42,0,0,0,.5,2.81l-2.77,1.59a.88.88,0,0,0-.4.54.89.89,0,0,0,.08.66l1.8,3.1a.82.82,0,0,0,.53.41.83.83,0,0,0,.22,0,.86.86,0,0,0,.44-.12l2.76-1.59A12,12,0,0,0,77.9,87l-1.09,3a.88.88,0,0,0,.52,1.12l3.37,1.23a.79.79,0,0,0,.3,0,.8.8,0,0,0,.37-.08.87.87,0,0,0,.45-.49l1.09-3a11.32,11.32,0,0,0,1.43.08,13.55,13.55,0,0,0,1.43-.08l1.09,3a.87.87,0,0,0,.45.49.8.8,0,0,0,.37.08.79.79,0,0,0,.3,0l3.37-1.23a.84.84,0,0,0,.49-.45.87.87,0,0,0,0-.67l-1.09-3A12,12,0,0,0,93,85.15l2.76,1.6a1,1,0,0,0,.44.11.83.83,0,0,0,.22,0,.88.88,0,0,0,.54-.4l1.79-3.11a.88.88,0,0,0-.32-1.2l-2.76-1.59a11.9,11.9,0,0,0,.49-2.81l3.14-.56a.9.9,0,0,0,.57-.36A.88.88,0,0,0,100,76.15ZM84.34,81.76A4.81,4.81,0,1,1,89.15,77,4.81,4.81,0,0,1,84.34,81.76Z" style="fill:#c0c0bf"/><path d="M39.22,52.24a2.93,2.93,0,0,0-1.69-2.65l-9.4-4.36,9.4-4.37a2.91,2.91,0,0,0,1.69-2.64v-.08a2.92,2.92,0,0,0-2.92-2.92,3,3,0,0,0-1.23.27l-15,7a2.91,2.91,0,0,0-1.69,2.64v.21A2.93,2.93,0,0,0,20.05,48l15,7a2.92,2.92,0,0,0,4.15-2.65v-.08Z" style="fill:#c0c0bf"/><path d="M54,28.1a2.93,2.93,0,0,0-2.36-1.19h-.07a2.9,2.9,0,0,0-2.78,2L38.93,59.6a2.92,2.92,0,0,0,2.78,3.81h.08a2.92,2.92,0,0,0,2.78-2l9.89-30.66A2.92,2.92,0,0,0,54,28.1Z" style="fill:#c0c0bf"/><path d="M73.35,42.48l-15-7a3,3,0,0,0-1.22-.27,2.92,2.92,0,0,0-2.93,2.92v.08a2.92,2.92,0,0,0,1.69,2.64l9.4,4.37-9.4,4.36a3,3,0,0,0-1.69,2.65v.08a2.92,2.92,0,0,0,2.92,2.92A3,3,0,0,0,58.33,55l15-7A3,3,0,0,0,75,45.33v-.21A2.94,2.94,0,0,0,73.35,42.48Z" style="fill:#c0c0bf"/></g></g></svg>