<svg xmlns="http://www.w3.org/2000/svg" viewBox="0 0 100 96.75"><defs><style>.cls-1{fill:#1d1d1b;}</style></defs><g id="Calque_2" data-name="Calque 2"><g id="Calque_1-2" data-name="Calque 1"><path id="Icon_awesome-keycdn" data-name="Icon awesome-keycdn" class="cls-1" d="M12.46,78.38,24.28,66.86C30.55,75.21,38.17,79.75,49,80a31.65,31.65,0,0,0,16.87-4.38c1,1,3.61,3.81,4.08,4.3a37.34,37.34,0,0,1-44.1-2.77c.06-.12-7.46,7.32-7.54,7.39A9.46,9.46,0,0,1,12,96.35a9.28,9.28,0,0,1-2.72.4A9.44,9.44,0,1,1,9.6,77.88a9.29,9.29,0,0,1,2.86.49Zm69.32-49.3a37.4,37.4,0,0,1,5.6,20.31A37.18,37.18,0,0,1,77.89,73c.06.06,4.65,4.93,4.71,5a5.91,5.91,0,1,1-4.92,4.71C72.81,77.51,69,73.49,69,73.49A32,32,0,0,0,81.58,49.24a31.67,31.67,0,0,0-4.12-16.06l4.31-4.1ZM20.32,8.81a5.82,5.82,0,0,1,1.47,5.13l9,9.4a32.44,32.44,0,0,0-4.45,4.16,31.57,31.57,0,0,0-4,36.19L18,67.89a37,37,0,0,1-5.42-20.45,37.45,37.45,0,0,1,9.27-23.65l-4.94-5.16a5.86,5.86,0,1,1,3.44-9.82ZM90.8,0A9.42,9.42,0,0,1,100,9.43a9.32,9.32,0,0,1-9.2,9.32,12.39,12.39,0,0,1-3.1-.35L75.41,30.06c-6.39-8.52-15-12.87-24.78-13.13a31.13,31.13,0,0,0-16.84,4.38L29.67,17a37.27,37.27,0,0,1,44.1,2.81l8-7.54a9,9,0,0,1-.43-2.83A9.52,9.52,0,0,1,90.8,0ZM50.14,20.59a24.45,24.45,0,0,1,3.2.21,27.87,27.87,0,1,1-3.2-.21ZM38.62,43.9a11.47,11.47,0,0,0,6.32,10.2L42.8,64.2H57.19L55,54.1A11.38,11.38,0,1,0,38.62,43.9Z"/></g></g></svg>