<svg xmlns="http://www.w3.org/2000/svg" viewBox="0 0 96.85 99.8"><defs><style>.cls-1{fill:#c49c53;}</style></defs><g id="Calque_2" data-name="Calque 2"><g id="Calque_1-2" data-name="Calque 1"><path class="cls-1" d="M70.07,84.55a3.33,3.33,0,0,0-1.23-.24,3.38,3.38,0,0,0-1.24.24,3,3,0,0,0-1,.68l0,0a3.42,3.42,0,0,0-.44.55,3.65,3.65,0,0,0-.18.34H60.81V81.69a11.3,11.3,0,0,1-2.44.82l-.43.08v5A1.43,1.43,0,0,0,59.38,89H66a1.22,1.22,0,0,0,.17.29,2.56,2.56,0,0,0,.39.48l0,0a3.32,3.32,0,0,0,2.28.94,3,3,0,0,0,1.21-.24h0a3.36,3.36,0,0,0,1-.69,3.25,3.25,0,0,0,.69-1,3.18,3.18,0,0,0,0-2.47,3.14,3.14,0,0,0-.69-1.05,3.64,3.64,0,0,0-1.07-.69ZM46.64,54.1h-6l-.86,2.82H34.36l6.46-17.15h5.8l6.43,17.15H47.5l-.86-2.82Zm-1.12-3.72-1.88-6.17-1.88,6.17Zm9-10.62h5.32V56.91H54.54V39.76Zm-4-17.58a9.42,9.42,0,0,0-2.4,2.59.35.35,0,0,1-.13.14.48.48,0,0,1-.65-.14,9.42,9.42,0,0,0-2.4-2.59,7.7,7.7,0,0,0-3-1.32h0a8,8,0,0,0-3.08,0,9.33,9.33,0,0,0-3,1.12,9.5,9.5,0,0,0-2.44,2,8.52,8.52,0,0,0-1.55,2.61h0c-.05.14-.1.3-.15.46s-.09.31-.12.47a.46.46,0,0,1-.45.37A8.82,8.82,0,0,0,27.91,29a10.64,10.64,0,0,0-2.8,2.42,12.35,12.35,0,0,0-2,3.46,12.8,12.8,0,0,0-.79,4c0,.19,0,.37,0,.56s0,.34,0,.53a.47.47,0,0,1-.19.42,16.1,16.1,0,0,0-1.81,1.48,13.35,13.35,0,0,0-1.43,1.63,10.76,10.76,0,0,0-1.51,2.85,9.55,9.55,0,0,0-.53,3,9.68,9.68,0,0,0,.4,2.88A10.31,10.31,0,0,0,18.51,55h0a12.24,12.24,0,0,0,1,1.44,14.32,14.32,0,0,0,1.27,1.32.48.48,0,0,1,.14.43A11.7,11.7,0,0,0,20.74,60a12.12,12.12,0,0,0,.1,1.82A10.73,10.73,0,0,0,21.76,65a11.78,11.78,0,0,0,1.8,2.77,11.66,11.66,0,0,0,2.32,2.08,11.28,11.28,0,0,0,2.68,1.36,9.48,9.48,0,0,0,1.27.33,8.51,8.51,0,0,0,1.21.15.46.46,0,0,1,.47.37,8,8,0,0,0,1.14,2.7A9.3,9.3,0,0,0,34.73,77a9.56,9.56,0,0,0,3.49,1.71,8.2,8.2,0,0,0,3.69.1,7.86,7.86,0,0,0,3.16-1.45,9.4,9.4,0,0,0,2.46-2.82.52.52,0,0,1,.19-.17.47.47,0,0,1,.63.2,8.58,8.58,0,0,0,2.1,2.61,7.43,7.43,0,0,0,2.81,1.46,8.43,8.43,0,0,0,3.9.09A10.25,10.25,0,0,0,61,77a10.06,10.06,0,0,0,2.33-2.32,8.47,8.47,0,0,0,1.3-2.75.47.47,0,0,1,.39-.38,9,9,0,0,0,3.45-1.45,11,11,0,0,0,2.86-2.88,12.27,12.27,0,0,0,1.72-3.65,12.79,12.79,0,0,0,.47-4.06.45.45,0,0,1,.2-.42,16.34,16.34,0,0,0,1.87-1.5,12.59,12.59,0,0,0,1.48-1.66h0a10.45,10.45,0,0,0,1.46-2.72,9.72,9.72,0,0,0,.55-2.93,9.9,9.9,0,0,0-.33-2.82,10.71,10.71,0,0,0-1.12-2.69l0,0a11.43,11.43,0,0,0-1.13-1.61,13,13,0,0,0-1.41-1.47.47.47,0,0,1-.15-.45,12.1,12.1,0,0,0,.21-1.67,11.43,11.43,0,0,0-.05-1.66,10.74,10.74,0,0,0-.86-3.2,11.68,11.68,0,0,0-1.81-2.88,12.37,12.37,0,0,0-2.36-2.16,10.67,10.67,0,0,0-2.71-1.38h0a9.87,9.87,0,0,0-1.49-.38h0a7.86,7.86,0,0,0-1.45-.1.47.47,0,0,1-.49-.36,6.45,6.45,0,0,0-.31-1,9.18,9.18,0,0,0-.44-1,9,9,0,0,0-1.69-2.2,9.9,9.9,0,0,0-2.32-1.65,9.07,9.07,0,0,0-2.8-.89,8.06,8.06,0,0,0-2.81.09,8.44,8.44,0,0,0-3,1.36Zm13.28,9.14a.5.5,0,0,1,.42-.33,4.56,4.56,0,0,1,1,.05,6.71,6.71,0,0,1,1.07.27,7.89,7.89,0,0,1,2,1A8.93,8.93,0,0,1,70,33.88v0A8.47,8.47,0,0,1,71.3,36a7.53,7.53,0,0,1,.61,2.28,7.67,7.67,0,0,1,0,1.66,7.55,7.55,0,0,1-.37,1.62v0a1.69,1.69,0,0,0,0,1,1.67,1.67,0,0,0,.63.81l0,0a10,10,0,0,1,1.51,1.37,8.72,8.72,0,0,1,1.17,1.58,7.44,7.44,0,0,1,.81,1.89,6.51,6.51,0,0,1-.15,3.93,7.56,7.56,0,0,1-1,1.84h0A9.53,9.53,0,0,1,73,55.64,14.36,14.36,0,0,1,71,57h0a1.53,1.53,0,0,0-.65.73,1.58,1.58,0,0,0-.1,1v.07a10.17,10.17,0,0,1-.17,3.51,9.36,9.36,0,0,1-1.38,3.13,8.31,8.31,0,0,1-1.63,1.75,6.21,6.21,0,0,1-1.94,1.07h0a.47.47,0,0,1-.58-.31c-.92-3-2.5-4-5.18-5.34l-.06,0a1.59,1.59,0,0,0-1.15-.08,1.52,1.52,0,0,0-.87.73l0,.05a1.59,1.59,0,0,0-.08,1.15,1.54,1.54,0,0,0,.75.88c2.25,1.15,3.9,2,3.88,4.83a4.78,4.78,0,0,1-.71,2.38,7.29,7.29,0,0,1-4.48,3.2,5.32,5.32,0,0,1-2.6,0,4.74,4.74,0,0,1-2.95-2.48A12.87,12.87,0,0,1,50,69.72a.3.3,0,0,1,0-.13,1.24,1.24,0,0,0-1-1.13,2.51,2.51,0,0,0-.82-.12,2.81,2.81,0,0,0-.82.12,1.26,1.26,0,0,0-1,1.13s0,.08,0,.12a11,11,0,0,1-1.89,4.13,5.27,5.27,0,0,1-3,2,5.4,5.4,0,0,1-2.4-.08,6.61,6.61,0,0,1-2.28-1.14A6.1,6.1,0,0,1,35,72.73a4.77,4.77,0,0,1-.59-2.24c0-2.95,1.79-3.94,4.15-5.15a1.54,1.54,0,0,0,.76-.89,1.59,1.59,0,0,0-.09-1.17,1.56,1.56,0,0,0-.89-.75,1.51,1.51,0,0,0-1.14.08h0c-2.78,1.42-4.45,2.46-5.45,5.55a.47.47,0,0,1-.47.35,4.82,4.82,0,0,1-.83-.1,5.49,5.49,0,0,1-.82-.22,8.6,8.6,0,0,1-3.61-2.5,8.49,8.49,0,0,1-1.31-2,7.89,7.89,0,0,1-.66-2.2v0a7,7,0,0,1,0-1.77A7.57,7.57,0,0,1,24.32,58v0a1.53,1.53,0,0,0,0-1v0a1.52,1.52,0,0,0-.61-.81v0a10.66,10.66,0,0,1-1.41-1.25,9.89,9.89,0,0,1-1.1-1.45,8,8,0,0,1-.86-1.92,6.76,6.76,0,0,1-.28-2,6.41,6.41,0,0,1,.38-2.09,7.45,7.45,0,0,1,1-2,10.26,10.26,0,0,1,1.47-1.59,13.55,13.55,0,0,1,1.93-1.41,1.53,1.53,0,0,0,.59-.65v0a1.5,1.5,0,0,0,.14-.87.28.28,0,0,1,0-.09v0a8.21,8.21,0,0,1-.08-.84c0-.3,0-.6,0-.9a9.38,9.38,0,0,1,.58-3,8.91,8.91,0,0,1,1.46-2.58A7.53,7.53,0,0,1,29.2,32a6,6,0,0,1,1.86-.85h0a.48.48,0,0,1,.59.31A7.79,7.79,0,0,0,34,35.15l0,0a1.51,1.51,0,0,0,2.11-.08l0,0A1.46,1.46,0,0,0,36.56,34a1.53,1.53,0,0,0-.48-1,4.5,4.5,0,0,1-1.49-2.37,4.46,4.46,0,0,1,0-3,5.4,5.4,0,0,1,1-1.73,6.32,6.32,0,0,1,1.59-1.31l0,0a6.5,6.5,0,0,1,2-.74,5.13,5.13,0,0,1,2,0,5.2,5.2,0,0,1,2.64,1.53,8.87,8.87,0,0,1,1.82,3.11v0a1.65,1.65,0,0,0,1.37,1,3.94,3.94,0,0,0,.91,0h0a3.19,3.19,0,0,0,.88-.16,1.34,1.34,0,0,0,1-.76v-.18a4.32,4.32,0,0,1,1.33-2.76,6.15,6.15,0,0,1,2.92-1.8,5.25,5.25,0,0,1,1.81,0,6,6,0,0,1,1.78.58h.05a6.75,6.75,0,0,1,1.57,1.11A5.8,5.8,0,0,1,60.45,27,4.63,4.63,0,0,1,61,29.81a3.82,3.82,0,0,1-.92,2.37h0a1.51,1.51,0,0,0,.15,2.1l0,0a1.52,1.52,0,0,0,1.09.33,1.49,1.49,0,0,0,1-.5l0-.06a6.7,6.7,0,0,0,1.39-2.78ZM81.6,71.07a3.3,3.3,0,0,1,0-2.47,3.08,3.08,0,0,1,.69-1v0a3.42,3.42,0,0,1,.55-.44,2.86,2.86,0,0,1,.35-.18V61.81H76.89c0-.33,0-.66,0-1a.49.49,0,0,1,.22-.47,17.44,17.44,0,0,0,1.78-1.39h5.73a1.43,1.43,0,0,1,1.44,1.43V67a1.22,1.22,0,0,1,.29.17,2.28,2.28,0,0,1,.48.39l0,0a3.2,3.2,0,0,1,.94,2.28,3.11,3.11,0,0,1-.24,1.21v0a3.53,3.53,0,0,1-.7,1,3,3,0,0,1-1,.7,3.18,3.18,0,0,1-1.23.25,3.27,3.27,0,0,1-1.24-.25,3.12,3.12,0,0,1-1-.7,3.66,3.66,0,0,1-.69-1.06Zm9.13-16.45H82.16a8.62,8.62,0,0,0,.39-.95A10.41,10.41,0,0,0,83,51.75h7.69l.18-.32a3.62,3.62,0,0,1,.42-.53,3.09,3.09,0,0,1,1-.69A3.19,3.19,0,0,1,93.62,50a3.15,3.15,0,0,1,1.21.24h0a3.25,3.25,0,0,1,1.05.69A3.45,3.45,0,0,1,96.6,52a3.3,3.3,0,0,1,0,2.47,3.33,3.33,0,0,1-.7,1,3.27,3.27,0,0,1-1.05.7,3.37,3.37,0,0,1-1.23.24,3.26,3.26,0,0,1-1.21-.23h0a3.27,3.27,0,0,1-1-.7,4,4,0,0,1-.41-.51l0,0-.17-.31Zm2.73-7.86H82.68a12.29,12.29,0,0,0-1.15-2.64l0,0-.12-.21H92V34.51l-.24-.16a3.16,3.16,0,0,1-.45-.37,3.2,3.2,0,0,1-.94-2.28,3.46,3.46,0,0,1,.24-1.24,3.53,3.53,0,0,1,.7-1,3,3,0,0,1,1-.7,3.14,3.14,0,0,1,1.23-.25,3.27,3.27,0,0,1,1.24.25,3.12,3.12,0,0,1,1,.7,3.27,3.27,0,0,1,.94,2.28,3.11,3.11,0,0,1-.24,1.21v0a3.25,3.25,0,0,1-.69,1,3.15,3.15,0,0,1-1,.68V45.32a1.42,1.42,0,0,1-.43,1,1.4,1.4,0,0,1-1,.43ZM82.2,39.83H78.53a12.56,12.56,0,0,0,.17-1.61c0-.43,0-.85,0-1.27h2.06V32.71l-.33-.18a3.71,3.71,0,0,1-.54-.44h0a3.17,3.17,0,0,1-.7-1.05A3.37,3.37,0,0,1,79,29.81a3.41,3.41,0,0,1,.24-1.23,3.2,3.2,0,0,1,.68-1l0,0a3.2,3.2,0,0,1,2.28-.94,3.42,3.42,0,0,1,1.24.24,3.23,3.23,0,0,1,1,.69h0a3,3,0,0,1,.69,1v0a3.18,3.18,0,0,1,.25,1.23,3.23,3.23,0,0,1-.25,1.24,3.34,3.34,0,0,1-.67,1l0,0a3.18,3.18,0,0,1-.52.42,2.14,2.14,0,0,1-.3.17v5.7a1.39,1.39,0,0,1-.42,1,1.44,1.44,0,0,1-1,.43ZM25.28,15.24a3.21,3.21,0,0,0,3.49-.68h0a3,3,0,0,0,.44-.56c.06-.1.13-.22.19-.34h5.12v4.43a10.54,10.54,0,0,1,2.88-1V12.21a1.44,1.44,0,0,0-.43-1,1.41,1.41,0,0,0-1-.42H29.37c-.05-.1-.11-.2-.17-.3a3.6,3.6,0,0,0-.39-.47l0,0A3.2,3.2,0,0,0,26.5,9a3.26,3.26,0,0,0-1.21.23h0a3.45,3.45,0,0,0-1.05.7,3.17,3.17,0,0,0-.7,1,3.33,3.33,0,0,0-.24,1.23,3.46,3.46,0,0,0,.24,1.24,3.27,3.27,0,0,0,.7,1.05,3.4,3.4,0,0,0,1.06.69ZM41.74,6.12V17.21a9,9,0,0,1,2.77,1.35l.09.07s0-.05,0-.07V6.12l.32-.18a3.69,3.69,0,0,0,.53-.43,3.31,3.31,0,0,0,.69-1,3.19,3.19,0,0,0,.25-1.24A3.11,3.11,0,0,0,46.16,2V2a3.25,3.25,0,0,0-.69-1,3.27,3.27,0,0,0-1.05-.7,3.3,3.3,0,0,0-2.47,0,3.17,3.17,0,0,0-1,.7A3.33,3.33,0,0,0,40.19,2a3.28,3.28,0,0,0,0,2.44v0a3.53,3.53,0,0,0,.7,1,3.35,3.35,0,0,0,.51.42h0l.32.18Zm7.85-2.73V19.61a10.06,10.06,0,0,1,1.23-1.05,8.45,8.45,0,0,1,1.64-.94V4.82h9.38c0,.08.1.16.16.24a3.27,3.27,0,0,0,2.65,1.39,3.17,3.17,0,0,0,3-2,3.18,3.18,0,0,0,0-2.47,3.14,3.14,0,0,0-.69-1,3.67,3.67,0,0,0-1.07-.7A3.31,3.31,0,0,0,64.65,0a3.07,3.07,0,0,0-1.21.24h0a3.45,3.45,0,0,0-1,.7,4.17,4.17,0,0,0-.48.61c-.07.12-.14.26-.2.39H51a1.44,1.44,0,0,0-1,.42,1.48,1.48,0,0,0-.42,1Zm6.93,11.26v2.23a6.54,6.54,0,0,1,.89.09,9.07,9.07,0,0,1,2,.5V16.1h4.24a2.07,2.07,0,0,0,.19.32,2.82,2.82,0,0,0,.43.55h0a3.25,3.25,0,0,0,1,.69,3.18,3.18,0,0,0,1.23.25,3.22,3.22,0,0,0,1.23-.25,3.52,3.52,0,0,0,1-.67l0,0a3.27,3.27,0,0,0,.7-1,3.38,3.38,0,0,0,.24-1.24,3.33,3.33,0,0,0-.24-1.23,3.2,3.2,0,0,0-.68-1l0,0a3.12,3.12,0,0,0-1-.69h0a3.33,3.33,0,0,0-1.23-.24,3.46,3.46,0,0,0-1.24.24,3.37,3.37,0,0,0-1,.68l0,0a3.6,3.6,0,0,0-.43.52c-.06.1-.12.2-.17.3H58a1.45,1.45,0,0,0-1.44,1.43ZM15.24,28.59a3.14,3.14,0,0,1,.25,1.23,3.23,3.23,0,0,1-.25,1.24,3,3,0,0,1-.68,1v0a3,3,0,0,1-.56.43,2.74,2.74,0,0,1-.34.19v5.13H19v.25c0,.19,0,.4,0,.61a.56.56,0,0,1-.22.47,16.6,16.6,0,0,0-1.89,1.54H12.23a1.41,1.41,0,0,1-1-.42,1.44,1.44,0,0,1-.43-1V32.67a3.09,3.09,0,0,1-.29-.17,2.93,2.93,0,0,1-.48-.39l0,0a3.2,3.2,0,0,1-.94-2.28,3.26,3.26,0,0,1,.23-1.21v0a3.27,3.27,0,0,1,.7-1.05,3.2,3.2,0,0,1,2.28-.94,3.41,3.41,0,0,1,1.23.24,3.33,3.33,0,0,1,1.05.7,3.61,3.61,0,0,1,.68,1.07ZM6.12,45h7.63c-.13.3-.24.6-.35.89a10.81,10.81,0,0,0-.49,2H6.12l-.18.32a3.13,3.13,0,0,1-.43.52,3,3,0,0,1-1,.7,3.19,3.19,0,0,1-1.24.25A3.11,3.11,0,0,1,2,49.45H2a3.12,3.12,0,0,1-1-.7,3.23,3.23,0,0,1-.7-1,3.3,3.3,0,0,1,0-2.47A3.22,3.22,0,0,1,2,43.48a3.28,3.28,0,0,1,2.44,0h0a3.34,3.34,0,0,1,1,.7,2.92,2.92,0,0,1,.42.51v0l.18.31ZM3.39,52.89h9.93a12,12,0,0,0,1.32,2.84h0l0,0H4.82v9.38l.24.15a4.11,4.11,0,0,1,.45.38A3.32,3.32,0,0,1,6.45,68a3.18,3.18,0,0,1-.25,1.23,3.16,3.16,0,0,1-1.74,1.75,3.38,3.38,0,0,1-1.24.24A3.41,3.41,0,0,1,2,70.94a3.17,3.17,0,0,1-1-.7,3.76,3.76,0,0,1-.7-1.06A3.38,3.38,0,0,1,0,67.94a3.15,3.15,0,0,1,.24-1.21v0a3.45,3.45,0,0,1,.7-1,3.59,3.59,0,0,1,.61-.48l.39-.2V54.32a1.43,1.43,0,0,1,.42-1,1.52,1.52,0,0,1,1-.42Zm11.26,6.94h2.68a10.81,10.81,0,0,0-.15,1.58,11.25,11.25,0,0,0,0,1.3H16.09v4.23a3.37,3.37,0,0,1,.32.19,2.87,2.87,0,0,1,.55.44h0a3.2,3.2,0,0,1,.94,2.28,3.42,3.42,0,0,1-.24,1.24,3.37,3.37,0,0,1-.68,1l0,0a3,3,0,0,1-1.05.7,3.21,3.21,0,0,1-3.49-.68l0,0a3.28,3.28,0,0,1-.69-1v0a3.42,3.42,0,0,1-.24-1.24,3.37,3.37,0,0,1,.24-1.23,3.55,3.55,0,0,1,.68-1l0,0a4.33,4.33,0,0,1,.52-.42,2.28,2.28,0,0,1,.3-.17v-5.7a1.44,1.44,0,0,1,.43-1,1.34,1.34,0,0,1,1-.43Zm39,33.85V82.32a8.51,8.51,0,0,1-2.86-1.55V93.69l-.32.18a3.06,3.06,0,0,0-.53.42,3.25,3.25,0,0,0-.69,1A3.14,3.14,0,0,0,49,96.57a3.11,3.11,0,0,0,.24,1.21v0a3.31,3.31,0,0,0,.69,1,3.12,3.12,0,0,0,1.05.7,3.18,3.18,0,0,0,2.47,0,3,3,0,0,0,1-.7,3.16,3.16,0,0,0,.94-2.28,3.11,3.11,0,0,0-.24-1.21v0a3.45,3.45,0,0,0-.7-1,3.27,3.27,0,0,0-.51-.41l0,0c-.1-.07-.21-.12-.31-.18Zm-7.87,2.73V80a9.47,9.47,0,0,1-1.07.94A8.49,8.49,0,0,1,42.89,82V95H33.51l-.16-.25A3.08,3.08,0,0,0,33,94.3a3,3,0,0,0-1-.7,3.14,3.14,0,0,0-1.23-.24,3.26,3.26,0,0,0-1.24.24,3.18,3.18,0,0,0-1,.7,3,3,0,0,0-.7,1,3.14,3.14,0,0,0-.25,1.23,3.22,3.22,0,0,0,.25,1.23,3,3,0,0,0,.7,1,3.23,3.23,0,0,0,1,.7,3.42,3.42,0,0,0,1.24.24,3.29,3.29,0,0,0,1.21-.23h0a3.27,3.27,0,0,0,1-.7,3.59,3.59,0,0,0,.48-.61,2.87,2.87,0,0,0,.2-.39H44.32a1.41,1.41,0,0,0,1-.42,1.46,1.46,0,0,0,.43-1ZM38.83,85.14V82.78a10,10,0,0,1-1.89-.28c-.33-.08-.66-.19-1-.3v1.52H31.71a2.11,2.11,0,0,0-.18-.33,3.16,3.16,0,0,0-.44-.54h0a3,3,0,0,0-1.05-.7,3.14,3.14,0,0,0-1.23-.25,3.22,3.22,0,0,0-1.23.25,3.34,3.34,0,0,0-1,.67l0,0a3.25,3.25,0,0,0-.7,3.51,3.16,3.16,0,0,0,.69,1v0a3.16,3.16,0,0,0,1,.69h0a3.17,3.17,0,0,0,1.23.24,3.22,3.22,0,0,0,1.24-.24,3.34,3.34,0,0,0,1-.67l0,0a3.18,3.18,0,0,0,.42-.52,2.14,2.14,0,0,0,.17-.3h5.7a1.43,1.43,0,0,0,1.44-1.44Z"/></g></g></svg>