<svg xmlns="http://www.w3.org/2000/svg" viewBox="0 0 175.83 184.5"><defs><style>.cls-1{fill:#d7e9e6;}.cls-2{fill:#e5b188;}.cls-3{fill:#ef5588;}.cls-4{fill:#d69f73;}.cls-5{fill:#f7e7bb;}.cls-6{fill:#de3a6f;}.cls-7{fill:#f4dd9e;}.cls-8{fill:#de3c6f;}.cls-9{fill:#f0628b;}.cls-10{fill:#7f5546;}.cls-11{fill:#fff;}.cls-12{fill:#fffffe;}.cls-13{fill:#744f3e;}.cls-14{fill:#654538;}.cls-15{fill:#f9d46d;}.cls-16{fill:#d3a882;}.cls-17{fill:#a47f62;}.cls-18{fill:#927163;}.cls-19{fill:#6d395a;}.cls-20{fill:#6e3959;}.cls-21{fill:#9b795f;}.cls-22{fill:#a07d61;}.cls-23{fill:#6c365b;}.cls-24{fill:#5f3252;}.cls-25{fill:#5f3453;}.cls-26{fill:#633554;}.cls-27{fill:#ac8769;}.cls-28{fill:#7b4727;}</style></defs><g id="Calque_2" data-name="Calque 2"><g id="OBJECTS"><rect class="cls-1" width="175.83" height="181.36" rx="68.69"/><path class="cls-2" d="M99.56,37.94a4.3,4.3,0,0,0,1.8.8,62.84,62.84,0,0,1,12.39,6,48.51,48.51,0,0,1,5.56,3.88,54.53,54.53,0,0,1,7.1,6.67,75,75,0,0,1,5.78,7.87c.76,1.17,1.48,2.37,2.12,3.61a116.61,116.61,0,0,1,6.62,14.09,52.83,52.83,0,0,1,1.61,5.56c.92,3.88,1.64,7.8,2.22,11.75.17,1.18.4,2.35.62,3.53a2.14,2.14,0,0,1-.12,1.74,4.18,4.18,0,0,0-.51,2.69,24.58,24.58,0,0,1-.67,5.93,23.25,23.25,0,0,1-4.24,9,30.15,30.15,0,0,1-7,6.53,53.27,53.27,0,0,1-13.4,6.56c-4.65,1.65-9.39,3-14.17,4.18a25.94,25.94,0,0,0-6.24,2.05,9.26,9.26,0,0,0-1.36.82,5.86,5.86,0,0,0-1.87,7.64,11.42,11.42,0,0,0,1,1.75,4.36,4.36,0,0,1,.55,3.81,64.27,64.27,0,0,1-3,8.67c-.18.43-.3.88-.45,1.32.45,2.2-1.11,3.26-2.58,4.21s-2.84,1.17-4.12-.27c-.69-2-2.27-3.41-3.27-5.22-2.11-3.85-3.07-7.76-1.45-12a18.16,18.16,0,0,0,.78-3.09c.95-5.11-.89-9-5.41-11.53-4.21-2.39-8.9-3.48-13.44-5-5-1.63-9.69-3.73-13.66-7.22a31.31,31.31,0,0,1-9.67-16.62,2.17,2.17,0,0,1,.33-2.08c1.27-.48,1.76.63,2.44,1.25a10.56,10.56,0,0,0,15.68-1.06A10.7,10.7,0,0,0,60,94a10.21,10.21,0,0,0-10.19-4.36,11,11,0,0,0-7,4.48c-.55.7-.93,1.9-2.27,1.26-1-1.47-.31-3-.07-4.46.56-3.39.95-6.85,2.77-9.89.8-.76,1.83-.67,2.82-.74A16.43,16.43,0,0,0,55.2,76.8c1.09-.85,2.31-1.88,1.65-3.5s-2-1.76-3.51-1.76a24.71,24.71,0,0,0-2.57.32c-.9.11-1.83.49-2.71-.11-.76-1.07,0-1.92.47-2.74A76.44,76.44,0,0,1,56.37,58C64.7,48.22,74.81,41.14,87.3,37.77c2.11-.57,4.25-1,6.39-1.48,1.91.44,3.93.39,5.7,1.38Z"/><path class="cls-3" d="M74,151.41a2.18,2.18,0,0,1,1.59-.35,3.15,3.15,0,0,1,1.22,2.4,31.51,31.51,0,0,0,6.56,13.46,11.65,11.65,0,0,0,4.44,3.27A3.82,3.82,0,0,0,92.9,169a37.49,37.49,0,0,0,7.47-15.22c.24-.88.27-1.87,1.26-2.34a4.86,4.86,0,0,1,1.78.13c7.64,1.92,14.73,5,20.82,10.1,4.32,3.62,8,7.76,10.32,13,.34.79.64,1.61.9,2.43a.8.8,0,0,1-.59,1.09c-1.15.34-2.3.68-3.47.93-2.34.5-4.69,1-7,1.42a4.26,4.26,0,0,1-.8,0,4.09,4.09,0,0,1-1.27-2.41c-1.07-3.42-2.09-6.87-4.49-9.71,1,3.24,2.22,6.42,3,9.71.23.94.75,1.91-.09,2.83a31.46,31.46,0,0,1-6.11.79c-3.38.18-6.76.45-10.15.51-2.38.05-4.75.4-7.13.62l-.8.06c-5.17.47-10.35.47-15.53.48-3.06,0-6.12,0-9.17-.09-2.45-.09-4.89-.38-7.34-.61-1.65-.16-3.3-.37-5-.53-4.09-.42-8.15-1-12.19-1.82a.61.61,0,0,1-.18-.09c-.09-3,1.12-5.56,2.18-8.18,4.21-10.4,12.11-16.65,22.64-19.89A3.9,3.9,0,0,0,74,151.41Z"/><path class="cls-4" d="M41.65,105.41a5,5,0,0,0,.12,1.58,34.12,34.12,0,0,0,5.57,12.28,27.79,27.79,0,0,0,8.43,7.5A35.22,35.22,0,0,0,63,130c3,1,5.94,2,8.93,2.89a23.78,23.78,0,0,1,8.52,4.25,9.8,9.8,0,0,1,3.92,7.72,19.93,19.93,0,0,1-.86,5.7c-.25.82-.41,1.68-.7,2.49a8.74,8.74,0,0,0,.23,5.86,29.77,29.77,0,0,0,3,6.06c.46.73.94,1.45,1.42,2.17a.57.57,0,0,1,0,.73c-.87.59-1.56.05-2.11-.49a26.46,26.46,0,0,1-7.58-15.18c.16-.42.31-.83.89-.73a8.16,8.16,0,0,0,1.37-8.59,4.84,4.84,0,0,0-2.37-2.59,24.1,24.1,0,0,0-6-2c-2.73-.61-5.49-1.07-8.21-1.72a45.94,45.94,0,0,1-14.86-6.16c-1.34-.88-2.76-1.63-4.11-2.48A28.8,28.8,0,0,1,32.71,114a25.7,25.7,0,0,1-1.44-5.79,32.63,32.63,0,0,1-.45-6.17,56.32,56.32,0,0,1,1.72-11.62,96.5,96.5,0,0,1,5-14.51,103.3,103.3,0,0,1,6.28-12.48,57.06,57.06,0,0,1,12-14.3A51,51,0,0,1,75.5,38.75a5.15,5.15,0,0,0,.9-.4l.22-.28a47,47,0,0,1,15.73-1.9,1.37,1.37,0,0,1,1.21.57,5.24,5.24,0,0,1-2.24.76c-2.36.71-4.75,1.28-7.09,2A58.29,58.29,0,0,0,71,46a44,44,0,0,0-8.52,6.87c-.73.78-1.48,1.54-2.26,2.26a54.6,54.6,0,0,0-7.29,8.7A60.62,60.62,0,0,0,48,71.57c.09,1.14-.88,1.37-1.58,1.79a11.44,11.44,0,0,0-3.32,2.49c-1.27,1.57-1.25,2.41,0,4,.28.35.67.67.46,1.21a81.45,81.45,0,0,0-2.17,8.81,21.64,21.64,0,0,0-.58,5.67,1.84,1.84,0,0,1,.4,2,10.62,10.62,0,0,0,.48,5.8C42,104.05,42.21,104.75,41.65,105.41Z"/><path class="cls-5" d="M97.57,17.94a4.94,4.94,0,0,1,3.38,3.6,6.37,6.37,0,0,1,.29,3.89,1,1,0,0,0,.74,1.4,3.22,3.22,0,0,1,.9.42,3.76,3.76,0,0,1,1.88,3.09,9.71,9.71,0,0,1-2.22,6.43,3,3,0,0,1-3,1.17h0a29.6,29.6,0,0,0-7.86-1.42,7.49,7.49,0,0,0-3.49,0,21.08,21.08,0,0,0-2.87.21,7,7,0,0,0-2.23.19,4.63,4.63,0,0,1-1.28.21A4.58,4.58,0,0,1,78.74,36a2.28,2.28,0,0,1-.51-3.48,2.22,2.22,0,0,0,.37-2.55A9.94,9.94,0,0,1,78,25.83c.12-4,3.09-6.19,6.9-5.06a3.77,3.77,0,0,1,1.13.38h0c.85.91.21,1.86.16,2.83s-.72,2.77.64,2.9,1.19-1.67,1.13-2.7c-.27-3.95,2.8-5.9,7.12-6.39A4.68,4.68,0,0,1,97.57,17.94Z"/><path class="cls-6" d="M74,151.41c.18.07.48.14.35.36a1.3,1.3,0,0,1-.67.38,61.61,61.61,0,0,0-8.21,3.58A30.93,30.93,0,0,0,56,162.91a32.4,32.4,0,0,0-5,7.63,43.54,43.54,0,0,0-2.8,7.65,4.2,4.2,0,0,1-1,2.14,27.38,27.38,0,0,1-6-1.55c-.84-.32-1-.67-.8-1.52a18.5,18.5,0,0,1,1-2.6,34.9,34.9,0,0,1,11.78-14,61.8,61.8,0,0,1,20.18-9.17A3.81,3.81,0,0,1,74,151.41Z"/><path class="cls-5" d="M78.38,152.11a49.44,49.44,0,0,0,2,6.06,8.44,8.44,0,0,0,.8,2.24c1.52,2,2.52,4.39,4.4,6.15a4.27,4.27,0,0,0,2,1.32,1.87,1.87,0,0,0,1.77.62A4.75,4.75,0,0,0,92,167.05a14.68,14.68,0,0,0,1.89-2.74,5.15,5.15,0,0,0,1.67-2.64,42.73,42.73,0,0,0,2.33-7.35,4.1,4.1,0,0,0,0-.79,14.91,14.91,0,0,1,.76-2.46c1,0,2-.27,2.9.39A32.2,32.2,0,0,1,100,158a51.54,51.54,0,0,1-3.73,7.92,16.47,16.47,0,0,1-2.37,3.2c-.13.14-.35.25-.42.42-.53,1.36-1.68,1.73-3,1.94a5.33,5.33,0,0,1-3.63-.7,16.33,16.33,0,0,1-4.79-4.13,31.46,31.46,0,0,1-6.54-15.6,3.07,3.07,0,0,1,1.54-.39A1.89,1.89,0,0,1,78.38,152.11Z"/><path class="cls-7" d="M86,21.15c-1,0-2,0-3,0a4.3,4.3,0,0,0-4.21,4.18A8.78,8.78,0,0,0,79.59,30a.75.75,0,0,1,.08.18c.56,1.5.39,2-1,3-.54.37-.63.63-.31,1.13A4.94,4.94,0,0,0,82,36.76c.08.64-.4.55-.77.58a27.3,27.3,0,0,0-4.83,1h0A4,4,0,0,1,73.21,37a8.59,8.59,0,0,1-2.53-4,3.89,3.89,0,0,1,1.54-4.16,1.09,1.09,0,0,1,.35-.19c1.71-.34,1.93-1.54,1.81-3A5.34,5.34,0,0,1,76,21.74a6.82,6.82,0,0,1,5.57-2.6,5.35,5.35,0,0,1,2.48.64A9.39,9.39,0,0,1,86,21.15Z"/><path class="cls-8" d="M120.74,181a88.43,88.43,0,0,0-3.44-11,22.74,22.74,0,0,1-.82-3.07.38.38,0,0,1,.13-.34.73.73,0,0,1,.54,0,7.07,7.07,0,0,1,1.94,2,25.9,25.9,0,0,1,1.66,2.95,41.47,41.47,0,0,1,2.58,7.52c.12.52.16,1,.23,1.57A6.59,6.59,0,0,1,120.74,181Z"/><path class="cls-7" d="M97.57,17.94a14.09,14.09,0,0,0-6.43,1.8,9,9,0,0,0-1.28.94,2.73,2.73,0,0,0-1.1,2.42c0,.79,0,1.59,0,2.39a3.32,3.32,0,0,1-.66,2,1.6,1.6,0,0,1-1.53.75A1.53,1.53,0,0,1,85.26,27a8,8,0,0,1,.27-4.12A4,4,0,0,0,86,21.15a2.37,2.37,0,0,0,1.62-1A8.86,8.86,0,0,1,93,17.51,7.18,7.18,0,0,1,97.57,17.94Z"/><path class="cls-9" d="M78.38,152.11l-1.29-1.45c1.26-.06,1.26-.06,1.65.82Z"/><path class="cls-2" d="M98.73,151.07a4.51,4.51,0,0,1-.76,2.46A2.92,2.92,0,0,1,98.73,151.07Z"/><path class="cls-10" d="M81.18,102.69A10.94,10.94,0,0,1,91.49,102a19.77,19.77,0,0,1,4,2.3,21.48,21.48,0,0,0,2,1.27,6.16,6.16,0,0,0,3.08.69c1.32,0,2.65-.07,4-.08a6.65,6.65,0,0,1,3.12.51,5.68,5.68,0,0,1,1.19.71,1.22,1.22,0,0,1,0,2.15,12.1,12.1,0,0,1-2.22,1.31c-2.44,1.05-4.91,2-7.37,3-.24.2-.62.12-.82.39h0c-.56.91-1.66,1-2.43,1.6a1.59,1.59,0,0,1-.52.17c-1,.22-1.91.61-2.88.89a7.84,7.84,0,0,1-2.23.55c-5.16-.58-9.75-2.75-14.25-5.15a10.41,10.41,0,0,1-1.49-1c-1.81-1.4-1.8-2.63.12-3.89C77,106,79.33,104.7,81.18,102.69Z"/><path class="cls-11" d="M121.41,110.68a10.55,10.55,0,0,1-10.8-8.29,10.28,10.28,0,0,1,2.75-10.12,17.06,17.06,0,0,1,5-3.52,2.23,2.23,0,0,1,1.73-.19,5.76,5.76,0,0,0,1.77.15c4.6.1,9.3,3.67,10.25,8.1A11.14,11.14,0,0,1,121.41,110.68Z"/><path class="cls-12" d="M41.65,105.41c-.34-.87-.72-1.72-1-2.6a10.26,10.26,0,0,1-.13-5.91c.12-.44.23-.9.34-1.35a15,15,0,0,1,4.58-5.17,10.36,10.36,0,0,1,4-1.56,10.39,10.39,0,0,1,12.58,8.93,12.24,12.24,0,0,1-.29,4.94A10.1,10.1,0,0,1,54.54,110a10.6,10.6,0,0,1-12-3.55C42.26,106.1,42,105.76,41.65,105.41Z"/><path class="cls-10" d="M43.6,81.07c-.39-.24-.79-.47-1.16-.74a2.64,2.64,0,0,1-1-3.32,6.51,6.51,0,0,1,2.15-2.8,15.56,15.56,0,0,1,2.68-1.7A6.19,6.19,0,0,0,48,71.57c1-.19,2-.36,2.93-.58a17.45,17.45,0,0,1,3-.24A4.44,4.44,0,0,1,57.15,72a2.38,2.38,0,0,1,.76,2.69,4.63,4.63,0,0,1-1.14,1.85,12.18,12.18,0,0,1-3.34,2.5A17.4,17.4,0,0,1,43.6,81.07Z"/><path class="cls-10" d="M126.7,81.19A16,16,0,0,1,116.6,77,6.18,6.18,0,0,1,115,74.71a2.41,2.41,0,0,1,1-2.95,4,4,0,0,1,1.67-.63A14.56,14.56,0,0,1,128.82,74a7.92,7.92,0,0,1,2.72,3.61c.43,1.19.29,1.6-.71,2.41A5.83,5.83,0,0,1,126.7,81.19Z"/><path class="cls-13" d="M81.18,102.69c.25.08.67.27.35.48-1.5,1-2.53,2.54-4.07,3.51-.67.42-1.3.91-2,1.28a8.1,8.1,0,0,0-1.33.85.76.76,0,0,0,.07,1.33,27.07,27.07,0,0,0,5.89,3.31,15.91,15.91,0,0,1,1.64.71,22.32,22.32,0,0,0,7.52,2.5,2,2,0,0,1,1.12.37c-.64,1-1.69,1-2.72,1a9.25,9.25,0,0,1-3.27-.31c-2.92-.88-5.85-1.7-8.39-3.49-2-.66-3.9-1.3-5.84-2-1.12-.41-2.22-.87-3.31-1.36a3.57,3.57,0,0,1-1.53-1.25,1.81,1.81,0,0,1,.52-2.75,4.15,4.15,0,0,1,2.27-.66c1.13,0,2.26-.06,3.39,0a10.63,10.63,0,0,0,6.77-1.91A12.3,12.3,0,0,1,81.18,102.69Z"/><path class="cls-14" d="M97.93,115.45a52.1,52.1,0,0,1-5.1,5.3,8.7,8.7,0,0,1-10.36,1.17,17.14,17.14,0,0,1-4.92-4c-.7-.79-1.36-1.63-2-2.45.38-1.08,1.09-.56,1.73-.36,2.15.66,4.23,1.55,6.38,2.21a14,14,0,0,0,3.82.36c1.8.1,3.42-.65,5.11-1.08,1-.43,2-.67,3-1.12h0C97.33,114.78,97.33,114.78,97.93,115.45Z"/><path class="cls-15" d="M76.38,38.36a9,9,0,0,1,4.11-1.21A2.51,2.51,0,0,0,82,36.76l1.19,0c.62-.43,1.4.08,2-.35l3.18-.06a7,7,0,0,1,3.22,0,23.43,23.43,0,0,1,6.39,1,3,3,0,0,1,1.6.7,34.23,34.23,0,0,1-6-1.21,59,59,0,0,0-7.74.27c-2.77.34-5.52.74-8.25,1.29A7.91,7.91,0,0,1,76.38,38.36Z"/><path class="cls-16" d="M83.54,117.53a17.6,17.6,0,0,1-3.63-1c-1.25-.44-2.49-.9-3.74-1.35a.54.54,0,0,0-.66.29.45.45,0,0,1-.06-.66c.16-.19.35-.36.53-.54a5.46,5.46,0,0,1,2.06.57c2.09.76,4.17,1.54,6.26,2.31C84.33,117.85,83.94,117.7,83.54,117.53Z"/><path class="cls-17" d="M97.93,115.45c-.29-.37-.66-.32-1.06-.22s-.87.18-1.31.26a5.35,5.35,0,0,1,2.82-1.19C98.6,115.05,98.6,115.05,97.93,115.45Z"/><path class="cls-17" d="M98.38,114.3a.88.88,0,0,1,.82-.39A1.06,1.06,0,0,1,98.38,114.3Z"/><path class="cls-7" d="M91.58,36.29l-3.22,0A3.49,3.49,0,0,1,91.58,36.29Z"/><path class="cls-7" d="M85.18,36.37a2.83,2.83,0,0,1-2,.35C83.77,36.21,84.49,36.37,85.18,36.37Z"/><path class="cls-18" d="M97.47,107.54a12.63,12.63,0,0,0,7.26.46.58.58,0,0,1,.39,0,1,1,0,0,1,.44.33.36.36,0,0,1-.14.51,2.93,2.93,0,0,1-1.06.5,10.09,10.09,0,0,1-5.65-.53A1.78,1.78,0,0,1,97.47,107.54Z"/><path class="cls-19" d="M83.09,104.12a3.85,3.85,0,0,1-.18.65,3.4,3.4,0,0,1-1.52,1.72.6.6,0,0,1-.72-.06.56.56,0,0,1-.12-.72,6.14,6.14,0,0,1,1.89-1.94.31.31,0,0,1,.18-.07C82.83,103.7,83,103.82,83.09,104.12Z"/><path class="cls-20" d="M91,103.67a5.63,5.63,0,0,1,2,2.27.46.46,0,0,1-.42.54,2.79,2.79,0,0,1-2-2.59C90.62,103.82,90.82,103.77,91,103.67Z"/><path class="cls-21" d="M92.83,116.73a12.91,12.91,0,0,1-5.27,1.11c-.16-.06-.21-.13-.16-.21s.1-.11.15-.11l2.81-.49,2-.72C92.53,116.45,92.8,116.47,92.83,116.73Z"/><path class="cls-22" d="M92.83,116.73l-.44-.42c1.08-.22,2-.87,3.19-.83A5.86,5.86,0,0,1,92.83,116.73Z"/><path class="cls-23" d="M116.21,92.22a3.35,3.35,0,0,1,3-1.15A5.89,5.89,0,0,0,120.4,91a7.18,7.18,0,0,1,6,2.5A9.12,9.12,0,0,1,128,95.77c.59,1.22.6,1.22-.77,1.73a4.32,4.32,0,0,0-1.68,1,1.67,1.67,0,0,0,.64,3c.68.25,1.43.25,2.12.45.49.15.26.49.06.77-1,.43-1.75,1.36-2.76,1.88a7.49,7.49,0,0,1-11-7.71A16.47,16.47,0,0,1,116.21,92.22Z"/><path class="cls-24" d="M116.21,92.22c.46.35.36.79.21,1.25a18.26,18.26,0,0,0-1,3.84,5.94,5.94,0,0,0,1.45,4.93,7,7,0,0,0,5.62,2.47,5.94,5.94,0,0,0,3-1c.63-.37,1.21-.81,1.83-1.19a.84.84,0,0,1,1.08.2,4.94,4.94,0,0,1-1.44,2.76,8.89,8.89,0,0,1-12.21.74c-4.43-3.75-3.25-10.8.2-13.1C115.34,92.8,115.67,92.35,116.21,92.22Z"/><path class="cls-23" d="M47.57,92.27a.71.71,0,0,1,.62-.44,9.17,9.17,0,0,0,2.68-.62,7.15,7.15,0,0,1,6.76,1.38A9.2,9.2,0,0,1,60,103.8a2.32,2.32,0,0,1-.39.44c-3.05,1.85-6.05,1.51-9-.17a5.24,5.24,0,0,1-2.93-3.77A3.55,3.55,0,0,0,47.08,98C46.26,96,47.54,94.19,47.57,92.27Z"/><path class="cls-25" d="M47.63,100.3c.51.08.75.46,1,.86a8.17,8.17,0,0,0,8.9,3.2c.51-.16,1-.38,1.5-.53.32-.1.47.14.55.41a8.33,8.33,0,0,1-8.49,3.93c-3.53-.41-5.85-2.55-7-6.08l2-.56A3.15,3.15,0,0,0,47.63,100.3Z"/><path class="cls-26" d="M47.57,92.27c.51.15.82.44.76,1a3.47,3.47,0,0,1-.19.77,8.45,8.45,0,0,0-.57,2.9,1.43,1.43,0,0,1-.49,1,5,5,0,0,0-2.91-.85A8.78,8.78,0,0,1,47.57,92.27Z"/><path class="cls-27" d="M87.55,117.52c0,.11,0,.22,0,.32-.78,0-1.56.06-2.33.07a2.85,2.85,0,0,1-1.69-.38l.76-.38Z"/><path class="cls-28" d="M145.38,92.67a83.55,83.55,0,0,0-8.67-24.56A69.37,69.37,0,0,0,122.2,49.18a49.88,49.88,0,0,0-16.61-10.09l-2.75-1c1.84-1.78,3.2-3.68,3.22-6.27a6.63,6.63,0,0,0-3.51-6,25.91,25.91,0,0,0-.14-2.83,7.15,7.15,0,0,0-4.72-6A9,9,0,0,0,93,16.52a11.75,11.75,0,0,0-5.43,2.37c-.4.32-.84.6-1.23.87-.52-.28-.92-.51-1.34-.71a7.83,7.83,0,0,0-11.45,6c-.13.78-.18,1.57-.28,2.42-.42.17-.86.32-1.26.53a4.55,4.55,0,0,0-2.43,5.69,6.19,6.19,0,0,0,2.17,3c.5.41,1,.78,1.82,1.37a55.43,55.43,0,0,0-10.39,4.49,56.58,56.58,0,0,0-17,15.24A81.67,81.67,0,0,0,32.85,84.44a68.45,68.45,0,0,0-3,17.68A36.31,36.31,0,0,0,31,113.2a27.36,27.36,0,0,0,11.33,15.46A58.57,58.57,0,0,0,52,133.85a83.19,83.19,0,0,0,15.81,4.83c2.2.49,4.41,1,6.58,1.64a17.58,17.58,0,0,1,3.29,1.4,4.06,4.06,0,0,1,2.2,3.77,8.89,8.89,0,0,1-1,4.48l-1.18.13c-1.19.14-2.39.24-3.57.44A53.27,53.27,0,0,0,53.62,159a40.07,40.07,0,0,0-9.18,8.25,25.37,25.37,0,0,0-5,9.46,3.53,3.53,0,0,0-.12,2.24,11.1,11.1,0,0,0,1.2.52c1.4.42,2.8.86,4.22,1.2a145.5,145.5,0,0,0,31.66,3.82c7.73.11,15.45-.15,23.17-.53,7.18-.36,14.36-.75,21.5-1.68a94.67,94.67,0,0,0,13.66-2.85,2.64,2.64,0,0,0,1.55-.77,3.45,3.45,0,0,0-.15-2,23,23,0,0,0-2.7-6.2,34.42,34.42,0,0,0-6.75-7.84,50.39,50.39,0,0,0-11-7.26,48.76,48.76,0,0,0-17.48-5.24,5.71,5.71,0,0,1-.93-.21,9.91,9.91,0,0,1-.9-4.53,4,4,0,0,1,2-3.5,13.91,13.91,0,0,1,2.32-1.15,23.54,23.54,0,0,1,2.86-.86c3.88-1,7.78-1.79,11.63-2.82A63.15,63.15,0,0,0,131.84,130a37.46,37.46,0,0,0,4.42-3.07A27.14,27.14,0,0,0,146.31,107,56.75,56.75,0,0,0,145.38,92.67ZM86.49,21.87a5.94,5.94,0,0,1,1.77,3.06,3.1,3.1,0,0,1-.5,2.83,1.1,1.1,0,0,1-1.72.11,2.91,2.91,0,0,1-.85-2A6,6,0,0,1,86.49,21.87ZM72.16,35.32a7.39,7.39,0,0,1-1.11-1.64,3.24,3.24,0,0,1,1.54-4.54c.23-.12.49-.19.85-.33.2.41.41.8.6,1.21a7.75,7.75,0,0,0,2.52,3.28,4.17,4.17,0,0,0,2.21.83A2.11,2.11,0,0,0,81,31.25a5.18,5.18,0,0,0-2.48-2.77A8.48,8.48,0,0,0,75,27.43a6.43,6.43,0,0,1,2.56-6.84c2.25-1.61,5.24-1.5,7.87.35l-.74,1.55A7,7,0,0,0,84,26.36,3.86,3.86,0,0,0,85.27,29a2.39,2.39,0,0,0,3.41-.17,3.69,3.69,0,0,0,1-2.13,6.32,6.32,0,0,0-.94-4.2c-.34-.56-.74-1.09-1.26-1.83a9.73,9.73,0,0,1,8.3-2.77,6.06,6.06,0,0,1,5.45,6.1c0,.32,0,.65-.06,1.1-.69,0-1.34,0-2,0a6.76,6.76,0,0,0-3.62.94,4.42,4.42,0,0,0-1.67,1.68,2.34,2.34,0,0,0,1.3,3.55,4.37,4.37,0,0,0,3.65-.36,6,6,0,0,0,2.34-2.12c.33-.49.62-1,1-1.58a3.85,3.85,0,0,1,2.08,2,5.16,5.16,0,0,1,.42,3.5,7.1,7.1,0,0,1-1.84,3.48c-.46.47-1,.89-1.51,1.39l-1.55-.37a44.33,44.33,0,0,0-23.45.1,2.41,2.41,0,0,1-2.68-.64C73.15,36.22,72.6,35.82,72.16,35.32ZM75,28.79A5.47,5.47,0,0,1,79.39,31a2.51,2.51,0,0,1,.32.92.68.68,0,0,1-.65.81,3.13,3.13,0,0,1-1.15-.21A5.78,5.78,0,0,1,75,28.79Zm25.84-2.41c-.83,2.13-2,3.34-3.92,3.74a1.83,1.83,0,0,1-2.1-.66c-.28-.62,0-1.41.85-2a5.13,5.13,0,0,1,2.73-1C99.11,26.33,99.83,26.38,100.83,26.38Zm1.67,126.15c0-.06.08-.1.15-.18a1.68,1.68,0,0,1,.55,0,51.54,51.54,0,0,1,22,10.77,29.37,29.37,0,0,1,9.33,13.43c.14.42.2.87.33,1.45a84.2,84.2,0,0,1-13.78,2.9c-.12-.43-.27-.79-.33-1.15a54.76,54.76,0,0,0-2.82-10.38,7.86,7.86,0,0,0-.36-.71h0a6.23,6.23,0,0,0-1.18-2.83l-.25-.2-.08.31a.34.34,0,0,0,0,.28l.2.49.81,2.44c.49,2.07,1,4.14,1.45,6.21.4,1.81.75,3.63,1.13,5.5a5.35,5.35,0,0,1-2.36.55c-6.69.62-13.39,1-20.1,1.33-8.52.42-17,.49-25.55.27a130.72,130.72,0,0,1-14.1-1.28c-.58-.08-1.15-.24-1.76-.37a47.42,47.42,0,0,1,1.6-8.7c.1-.38.16-.78.23-1.17a1.44,1.44,0,0,1-.05-.31,1.44,1.44,0,0,0,.05.31c.31-.92.65-1.83.9-2.77a6.73,6.73,0,0,0,.55-3.06,16,16,0,0,0-1.86,4.61,43.79,43.79,0,0,0-2.44,8.41c-.16.77-.3,1.54-.45,2.29-2.59.08-11.17-1.81-13.67-3,.13-.49.25-1,.41-1.5a28.5,28.5,0,0,1,8-12.21,48.28,48.28,0,0,1,17.81-10.34c1.76-.6,3.57-1.06,5.36-1.55.7-.19,1.42-.3,2.23-.46.11.36.23.66.31,1a44.44,44.44,0,0,0,3.57,9.93,28.87,28.87,0,0,0,3.88,5.79A15.18,15.18,0,0,0,86.61,172a5.63,5.63,0,0,0,6.81-.91,19.12,19.12,0,0,0,3.39-4.17,43.78,43.78,0,0,0,5.55-13.82A5.45,5.45,0,0,1,102.5,152.53ZM57.57,170.82c0,.11,0,.22,0,.32C57.58,171,57.58,170.93,57.57,170.82Zm40.83-17c.16-.77.36-1.54.57-2.42l2.06.47a5.87,5.87,0,0,1,0,1.19A41.2,41.2,0,0,1,95.3,166.8a20.44,20.44,0,0,1-2.82,3.35,4.08,4.08,0,0,1-5.3.66,17.09,17.09,0,0,1-2.9-2.09,20.83,20.83,0,0,1-2.59-3,39.06,39.06,0,0,1-5.82-14.09l1.8-.47c.12.42.23.72.3,1a40,40,0,0,0,3.51,9.73,20.16,20.16,0,0,0,3,4.46,13.73,13.73,0,0,0,2.56,2.2,3.72,3.72,0,0,0,4.63-.3,11,11,0,0,0,1.76-1.9A22,22,0,0,0,96,161.62,45.16,45.16,0,0,0,98.4,153.82Zm46-46.18a25.78,25.78,0,0,1-8.65,17.24,34.32,34.32,0,0,1-6,4.22,69.31,69.31,0,0,1-19,7.18c-2.79.63-5.58,1.28-8.35,2a25.17,25.17,0,0,0-3.58,1.22,9.43,9.43,0,0,0-2.2,1.35,5.08,5.08,0,0,0-1.94,3.79,10,10,0,0,0,2.67,7.67,37.35,37.35,0,0,1-4.41,12.4,11.32,11.32,0,0,1-2,2.45,2.49,2.49,0,0,1-3.3.25,10.3,10.3,0,0,1-2.86-2.76,30,30,0,0,1-4.31-8.52c-.45-1.31-.79-2.67-1.18-4a11.45,11.45,0,0,0,.86-1.37,15.63,15.63,0,0,0,1.3-3.33c.61-3.24.25-6.07-4-7.91a33.48,33.48,0,0,0-5.12-1.62c-3.8-1-7.65-1.77-11.43-2.81a61.8,61.8,0,0,1-15.71-6.77,29.17,29.17,0,0,1-7.71-6.59A25.89,25.89,0,0,1,32,108.43a49.42,49.42,0,0,1,.59-14.72,81.15,81.15,0,0,1,15-34.88A59.63,59.63,0,0,1,58,47.87a47.66,47.66,0,0,1,20.24-9.48,44.94,44.94,0,0,1,8.88-1.26A50.67,50.67,0,0,1,103,39.74,46.33,46.33,0,0,1,121.27,50.5a70.63,70.63,0,0,1,13.57,17.91,79.88,79.88,0,0,1,9,25.9A51.27,51.27,0,0,1,144.41,107.64Z"/><path class="cls-28" d="M108.77,106.13a5.18,5.18,0,0,0-3-1,14.62,14.62,0,0,0-3.38.12,7.25,7.25,0,0,1-5.84-1.33A31.7,31.7,0,0,0,93,101.71a12.67,12.67,0,0,0-10-.81,17.57,17.57,0,0,0-4.09,2c-.72.48-1.44,1-2.17,1.42a6.09,6.09,0,0,1-4.57.92c-.78-.16-1.58-.19-2.22-.26s-1.36,0-2,.11a5.3,5.3,0,0,0-2.91,1.2,2.45,2.45,0,0,0-.36,3.7,6,6,0,0,0,1.67,1.39,22.84,22.84,0,0,0,2.9,1.29c1.18.45,2.39.83,3.58,1.24a4.45,4.45,0,0,1,2,1.3c.91,1.06,1.84,2.11,2.83,3.09a41.2,41.2,0,0,0,3.23,3,10.47,10.47,0,0,0,4.67,2.15,8.35,8.35,0,0,0,7.56-2.17c1.3-1.24,2.5-2.58,3.72-3.89,2.6-2.79,2.59-2.79,6.21-4,.37-.13.76-.23,1.13-.39,1.1-.45,2.22-.87,3.29-1.41a6.45,6.45,0,0,0,1.74-1.29A2.59,2.59,0,0,0,108.77,106.13ZM96.37,116.6c-1,1.06-2,2.17-3,3.17a13.85,13.85,0,0,1-2.51,1.93,7.29,7.29,0,0,1-6.33.39,12.06,12.06,0,0,1-4.22-2.55c-1-.89-1.86-1.88-2.79-2.82l-1.35-1.16a2.41,2.41,0,0,1,2,.67c1.1.45,2.21.9,3.3,1.36a13.71,13.71,0,0,0,11.2,0l3.29-1.4c.26-.43.66-.52,1.35-.47Zm11.84-7a5.91,5.91,0,0,1-1.49,1,19.14,19.14,0,0,1-2.41.95,86.41,86.41,0,0,0-10.4,4.05,22.1,22.1,0,0,1-5.08,1.74c-.58.11-1.18.18-1.49.22a13.55,13.55,0,0,1-4.75-1c-1.25-.46-2.47-1-3.68-1.55a69.85,69.85,0,0,0-8.18-3.17,25.12,25.12,0,0,1-3.35-1.28,6.38,6.38,0,0,1-1.76-1.26,1.22,1.22,0,0,1,.25-2,3,3,0,0,1,1.25-.56c.92-.14,1.85-.16,2.77-.21a2.34,2.34,0,0,1,.59.09,9.17,9.17,0,0,0,8.35-2.18,15.06,15.06,0,0,1,3.55-2.2,10.81,10.81,0,0,1,9.28,0,23.66,23.66,0,0,1,2.76,1.58,18.78,18.78,0,0,1,1.76,1.32,7.56,7.56,0,0,0,6,1.67,16.71,16.71,0,0,1,2-.24,25.59,25.59,0,0,1,2.77.18,2.66,2.66,0,0,1,.93.33C109,107.65,109.2,108.66,108.21,109.56Z"/><path class="cls-28" d="M51.42,88A11.77,11.77,0,1,0,63.17,99.82,11.66,11.66,0,0,0,51.42,88ZM62,97.51c0,1.37.09,2.74.07,4.11a3.49,3.49,0,0,1-.36,1.09,7.61,7.61,0,0,1-2.86,4.75,10.65,10.65,0,0,1-17.71-4.82,14,14,0,0,1-.29-2.35,5.48,5.48,0,0,1,.39-3.63A10.59,10.59,0,0,1,57.62,91.1a7.67,7.67,0,0,1,3.21,3.57A5.28,5.28,0,0,1,62,97.51Z"/><path class="cls-28" d="M121.35,88A11.77,11.77,0,1,0,133,99.88,11.56,11.56,0,0,0,121.35,88Zm9.83,15.56a9.69,9.69,0,0,1-7.53,6.64,10,10,0,0,1-9.71-2.69,7.72,7.72,0,0,1-2.82-4.35,2.19,2.19,0,0,1-.44-1.56,4.79,4.79,0,0,1,0-3.75A8.78,8.78,0,0,1,114,91.94a10.62,10.62,0,0,1,15.14.53,18.9,18.9,0,0,1,1.69,2.44c.29.44.51.93.76,1.39l.35,1.27c0,.9.06,1.8,0,2.7a3.37,3.37,0,0,1-.39,2A1.42,1.42,0,0,1,131.18,103.56Z"/><polygon class="cls-28" points="131.57 102.32 131.58 102.31 131.58 102.3 131.57 102.32"/><path class="cls-28" d="M44,81.55a11.84,11.84,0,0,0,4.36,0,15.74,15.74,0,0,0,7.42-3.23,10.45,10.45,0,0,0,2-2.17c1.65-2.47.71-4.94-2.15-5.75A20.35,20.35,0,0,0,53.38,70a17.52,17.52,0,0,0-8.6,2.47,11,11,0,0,0-3.17,2.71C39.42,78,40.48,80.84,44,81.55Zm-2-5a7.6,7.6,0,0,1,2.13-2.35,14.41,14.41,0,0,1,5.56-2.6c1.09-.27,2.22-.39,3.33-.57a7.78,7.78,0,0,1,3.13.71A2.17,2.17,0,0,1,57.23,75a7.7,7.7,0,0,1-1.72,2.16,14.61,14.61,0,0,1-9.93,3.53,7.48,7.48,0,0,1-2.34-.46C41.53,79.58,41.08,78.14,42,76.51Z"/><path class="cls-28" d="M117.36,78.66a16.1,16.1,0,0,0,9.12,3.11,7.48,7.48,0,0,0,3.87-.81A3.23,3.23,0,0,0,132,76.74,6.8,6.8,0,0,0,130,74a16.58,16.58,0,0,0-10.25-4,8.77,8.77,0,0,0-4,.94,3.15,3.15,0,0,0-1.69,3,3.86,3.86,0,0,0,.91,2.38A14.6,14.6,0,0,0,117.36,78.66Zm-.86-6.92a6.36,6.36,0,0,1,2.29-.59A14.7,14.7,0,0,1,129,74.51a6.29,6.29,0,0,1,1.87,2.31,2.24,2.24,0,0,1-1.17,3.3,6.74,6.74,0,0,1-3.32.6,15.18,15.18,0,0,1-9.29-3.64,7.39,7.39,0,0,1-1.69-2.19A2.16,2.16,0,0,1,116.5,71.74Z"/><path class="cls-28" d="M65.39,46.87c-.06-.11-.1-.26-.2-.33a.45.45,0,0,0-.36,0,8.18,8.18,0,0,0-4.25,4.2C62.17,50.37,63.89,49,65.39,46.87Z"/><path class="cls-28" d="M62.94,54.2a17.13,17.13,0,0,0,4.53-3.9c.14-.18.33-.42.08-.68a4.41,4.41,0,0,0-2,1.07A11.93,11.93,0,0,0,62.94,54.2Z"/><path class="cls-28" d="M52.16,59.22a8.19,8.19,0,0,0-1.91,4.49,10.53,10.53,0,0,0,2.87-4.53C52.3,59.08,52.3,59.08,52.16,59.22Z"/><path class="cls-28" d="M59.75,55.25a2.87,2.87,0,0,0-1.91,1.11,9.6,9.6,0,0,0-1.73,3.42A11.84,11.84,0,0,0,59.75,55.25Z"/><path class="cls-28" d="M139,111a8.84,8.84,0,0,0-2,4.39C138.82,114.69,139.5,113.26,139,111Z"/><path class="cls-28" d="M138,118.1a1.62,1.62,0,0,0-.05.56c1.81-.85,2.59-2.19,2-3.85A22.17,22.17,0,0,0,138,118.1Z"/><path class="cls-28" d="M131.37,125.23c2-.71,2.35-1,3.13-2.63A4.57,4.57,0,0,0,131.37,125.23Z"/><path class="cls-28" d="M132.43,121a4.38,4.38,0,0,0,2.86-1.91c.09-.17,0-.42,0-.9A8,8,0,0,0,132.43,121Z"/><path class="cls-28" d="M126.53,127c1-.18,2.18-.13,2.89-1.52A4,4,0,0,0,126.53,127Z"/><path class="cls-28" d="M72.46,46c2.52-1.7,2.55-1.73,3.08-3a10.65,10.65,0,0,0-3.74,3c-.17.19-.34.39-.5.59l.19.21Z"/><path class="cls-28" d="M55,66.59a2.2,2.2,0,0,0,.28-.44c2.13-2.49,2.33-2.83,2.36-4-1.26.88-1.73,2.19-2.42,3.33l-.7,1.06C54.75,66.57,54.91,66.64,55,66.59Z"/><path class="cls-28" d="M60.26,172.24a12.21,12.21,0,0,0-.54,5.31,9,9,0,0,0,1-5.61C60.56,172,60.32,172.1,60.26,172.24Z"/><path class="cls-28" d="M63.42,175.47c-1,1.9-.59,3.6.06,5.77a23.88,23.88,0,0,0,.38-5C63.83,176,63.61,175.81,63.42,175.47Z"/><path class="cls-28" d="M93.45,104.91A11.54,11.54,0,0,0,92,103.85a1.84,1.84,0,0,0-1.87-.67,4.15,4.15,0,0,0,1,2.74c.14-.13.27-.27.4-.4l-.45-1.14L91,104l.24.21h.33c.58.58,1.31,1.05,1.47,1.93a.53.53,0,0,1-.84,0,8.61,8.61,0,0,1-.68-.67c-.13.13-.26.27-.4.4a13.23,13.23,0,0,0,1.21,1.27,1,1,0,0,0,1.28,0,1.05,1.05,0,0,0,.37-1.24A2.29,2.29,0,0,0,93.45,104.91Z"/><path class="cls-28" d="M81.11,104.25a2.81,2.81,0,0,0-1.37,1.6,1.08,1.08,0,0,0,.31,1.26,1,1,0,0,0,1.27.17,2.87,2.87,0,0,0,1.52-1.72h0a2.47,2.47,0,0,0,.59-2.55A5.06,5.06,0,0,0,81.11,104.25Zm1.37.86c-.44.48-.72,1.12-1.6,1.25a1.73,1.73,0,0,1,.05-.7,7.82,7.82,0,0,1,.69-.94l1-.65c.38.39-.07.69-.1,1l.13.16Z"/><path class="cls-28" d="M57.19,91.53l-1.08-.46A9.37,9.37,0,0,0,43.8,95.8l-.45,1-1.71,1.08a3.92,3.92,0,0,0-.43,2.38,12.16,12.16,0,0,0,1.41,1.37,2.08,2.08,0,0,1,.84,1c.11.31.23.62.37.92a9.41,9.41,0,0,0,10.94,5.13A14.64,14.64,0,0,0,58.32,107a14,14,0,0,0,2.92-4.32,14.87,14.87,0,0,0,.3-5.19l-1-2.44A13,13,0,0,0,57.19,91.53ZM42.32,100a1,1,0,0,1,.06-1.28,2.69,2.69,0,0,1,2.3-.86,2.86,2.86,0,0,1,2.13.95,1.16,1.16,0,0,1-.08,1.75A3.22,3.22,0,0,1,42.32,100Zm18.4-.69A8.38,8.38,0,0,1,54,107.87a8.2,8.2,0,0,1-9.5-5.41c.64-.17,1.29-.3,1.9-.52a2.3,2.3,0,0,0,1.71-2,2.35,2.35,0,0,0-1.4-2.43,18.37,18.37,0,0,0-2-.79,6.65,6.65,0,0,1,3-4,8.45,8.45,0,0,1,5.5-1.36A8.31,8.31,0,0,1,60.72,99.35Z"/><path class="cls-28" d="M131.48,98.78a3.53,3.53,0,0,0-2.1-1.85c-.24-.53-.41-1-.62-1.37a9.17,9.17,0,0,0-8.47-5.27,9.71,9.71,0,0,0-5.91,2c-.21.25-.4.52-.63.75a9.15,9.15,0,0,0-2.63,5.2c0,.81,0,1.62,0,2.44s.25,1.33.37,2a12.5,12.5,0,0,0,2.94,4.35l.84.51a9.39,9.39,0,0,0,13.84-4.48,2.4,2.4,0,0,0,.12-.38,1.54,1.54,0,0,1,.85-1c.34-.18.66-.43,1-.64A2.89,2.89,0,0,0,131.48,98.78Zm-5.94,7.44a8.37,8.37,0,1,1-7.21-14.67,8.15,8.15,0,0,1,9.72,5.19c-.47.14-.79.21-1.09.33a5.33,5.33,0,0,0-1.1.46,2.46,2.46,0,0,0-1.38,2.26,2.38,2.38,0,0,0,1.79,2.17c.56.19,1.14.3,1.72.45A6,6,0,0,1,125.54,106.22Zm4.58-5.87a3.4,3.4,0,0,1-2.74.86,8.12,8.12,0,0,1-1.44-.66,1.11,1.11,0,0,1-.14-1.6,3.22,3.22,0,0,1,4.17-.51A1.24,1.24,0,0,1,130.12,100.35Z"/></g></g></svg>