<svg xmlns="http://www.w3.org/2000/svg" viewBox="0 0 175.83 198.41"><defs><style>.cls-1{fill:#d7e9e6;}.cls-2{fill:#928983;}.cls-3{fill:#becec9;}.cls-4{fill:#827975;}.cls-5{fill:#a1bebe;}.cls-6{fill:#8eacfb;}.cls-7{fill:#7e99f0;}.cls-8{fill:#efd57f;}.cls-9{fill:#e9d698;}.cls-10{fill:#dec076;}.cls-11{fill:#e0c174;}.cls-12{fill:#e8dd9f;}.cls-13{fill:#de9088;}.cls-14{fill:#ef5163;}.cls-15{fill:#ee6e7e;}.cls-16{fill:#fefefe;}.cls-17{fill:#feffff;}.cls-18{fill:#6c365b;}.cls-19{fill:#ed707f;}.cls-20{fill:#cb7d82;}.cls-21{fill:#b67e80;}.cls-22{fill:#8eadfa;}.cls-23{fill:#91aef8;}.cls-24{fill:#90adf8;}.cls-25{fill:#eec170;}.cls-26{fill:#ecda89;}.cls-27{fill:#e2bd75;}.cls-28{fill:#cfb875;}.cls-29{fill:#e6bc71;}.cls-30{fill:#deb678;}.cls-31{fill:#efceb6;}.cls-32{fill:#e5d699;}.cls-33{fill:#ddd6c8;}.cls-34{fill:#e3d784;}.cls-35{fill:#e8e67f;}.cls-36{fill:#e7dfa3;}.cls-37{fill:#d8e597;}.cls-38{fill:#efd894;}.cls-39{fill:#e3c073;}.cls-40{fill:#c8e283;}.cls-41{fill:#e5d9cf;}.cls-42{fill:#f18290;}.cls-43{fill:#ebd58c;}.cls-44{fill:#e2d79c;}.cls-45{fill:#dcd4a9;}.cls-46{fill:#dfd7a6;}.cls-47{fill:#dfdaaf;}.cls-48{fill:#bcc9c2;}.cls-49{fill:#603251;}.cls-50{fill:#6d385d;}.cls-51{fill:#5f3453;}.cls-52{fill:#623453;}.cls-53{fill:#5f3252;}.cls-54{fill:#c49e7b;}.cls-55{fill:#b9917d;}.cls-56{fill:#c0967b;}.cls-57{fill:#c0917b;}.cls-58{fill:#c39579;}.cls-59{fill:#c99479;}.cls-60{fill:#be8d7a;}.cls-61{fill:#c5997c;}.cls-62{fill:#be9a7c;}.cls-63{fill:#7b4727;}</style></defs><g id="Calque_2" data-name="Calque 2"><g id="OBJECTS"><rect class="cls-1" y="15.73" width="175.83" height="181.36" rx="68.69"/><path class="cls-2" d="M148.4,98.25a1.34,1.34,0,0,0-.43.87,6.69,6.69,0,0,0,0,1,70.86,70.86,0,0,1,0,12.53c-.58,10.56-5.17,19.08-13.12,25.9a35.9,35.9,0,0,1-8.58,5.38,33.94,33.94,0,0,1-5.12,2.18c-3.52.68-6.86,2-10.39,2.68-17.35,3.18-34,1.41-49.88-6.64a49.51,49.51,0,0,1-13.18-9.23,28.71,28.71,0,0,1-8.47-20.46C39,97.06,44.71,83.94,54.74,72.53c7.78-8.84,17.33-15.23,27.93-20.19.83-.39,2.22.1,2.49-1.35a5.45,5.45,0,0,1,2.16-.27c6.41,0,12.77.42,18.94,2.34l.58.16a.57.57,0,0,0,.77-.41.86.86,0,0,1,.77-.53c2.63,1.92,5.78,2.7,8.68,4a74.93,74.93,0,0,1,14.12,11.36A84.16,84.16,0,0,1,145,87.89a6.93,6.93,0,0,1,.79,1.56C147.09,92.25,148.34,95.07,148.4,98.25Z"/><path class="cls-3" d="M120.8,154.94a117.14,117.14,0,0,1,10.73,21.12,99.27,99.27,0,0,1,3.89,12.15c.28,1.09.64,2.17,1,3.25.24.81,0,1.29-.82,1.46-2.61.53-5.2,1.11-7.82,1.54-2.16.36-4.35.55-6.52.81-.33-4.34-2.15-8.09-4.64-11.85,1,3.32,2.15,6.34,3,9.46.21.82.61,1.64,0,2.47a13.53,13.53,0,0,1-2.76.41c-2,.17-4.09.41-6.14.62-.26,0-.52.09-.79.11-2.65.16-5.32.17-8,.52-3.57.48-7.16.27-10.74.6a41.25,41.25,0,0,1-9.55-.14,4.07,4.07,0,0,0-.59-.06c-3.14.09-6.24-.32-9.35-.54s-6.1-.22-9.14-.61c-1.71-.22-3.44-.25-5.16-.49-2.56-.35-5.13-.65-7.7-1-1.31-.18-2.62-.4-3.93-.64a13.27,13.27,0,0,1-1.33-.38c-.83-.78-.54-1.75-.36-2.64A116.22,116.22,0,0,1,53.34,164c1-2,2.28-2.13,3.83-.29a39.28,39.28,0,0,0,7.57,6.46,20.22,20.22,0,0,0,5.77,2.67,9.81,9.81,0,0,0,8.73-1.44,14.69,14.69,0,0,1,2.84-1.84c.56-.24,1.14.25,1.72,0,.11-.66-.28-1.3-.1-1.95a10.32,10.32,0,0,1,1.69-2.93c1.42-2.07,2.28-2.1,3.75-.12a22.07,22.07,0,0,0,2.8,3.37c5.4,4.89,11.43,5,16.81.09,2.52-2.28,4.89-4.73,6.25-7.94,1.4-1.78,2.48-3.85,4.6-5l.38-.17A.69.69,0,0,1,120.8,154.94Z"/><path class="cls-4" d="M85.16,51l1.8.22a8.92,8.92,0,0,1-2.41,1.34,101.66,101.66,0,0,0-9.46,4.72,73.52,73.52,0,0,0-9.76,6.54c-1.46,1.14-2.85,2.38-4.25,3.6A16.79,16.79,0,0,1,59,69.24a5,5,0,0,0-1,.92,73.15,73.15,0,0,0-10.5,14,63.8,63.8,0,0,0-4.85,11.13,62.57,62.57,0,0,0-2.22,9.7,48.47,48.47,0,0,0-.26,9.55,26,26,0,0,0,2.5,9.59,33.56,33.56,0,0,0,1.76,3.36,25.74,25.74,0,0,0,3.45,4.36,39,39,0,0,0,8.55,6.82A64.65,64.65,0,0,0,65,143.16c1.84.77,3.7,1.5,5.56,2.19a66.08,66.08,0,0,0,12,3.12,51.55,51.55,0,0,0,11.1.93c1.59-.08,3.19,0,4.79,0a16.16,16.16,0,0,0,3.17-.27c1.36-.26,2.76-.31,4.15-.46a98.92,98.92,0,0,0,10.39-1.79c1.36-.3,2.72-.62,4.07-.94a1.05,1.05,0,0,1,.94.19A99.91,99.91,0,0,1,111,149.8L107.21,151c-.6,1.07-1.78.94-2.71,1.33a21.92,21.92,0,0,0-3,1,29.06,29.06,0,0,1-5.8.82,6.06,6.06,0,0,1-2.66.46,21.52,21.52,0,0,0-4.39-.23c-.44,0-.87,0-1.31,0a9.33,9.33,0,0,0-1.82-.37c-.51,0-1,0-1.54,0a8.73,8.73,0,0,1-1.25-.07,6.9,6.9,0,0,0-2.47-.33c-1.4,0-2.74-.49-4.13-.44a9.46,9.46,0,0,0-2.48-.41,10.8,10.8,0,0,0-2.11-.42,27.91,27.91,0,0,0-3.61-.76c-3.93-.93-7.71-2.35-11.58-3.48a1.88,1.88,0,0,1-1.1-1.09l-3.68-1.55a49.88,49.88,0,0,1-10.71-6.12A30.83,30.83,0,0,1,31.63,128a44.45,44.45,0,0,1-4.48-16.85A48,48,0,0,1,28,99.24c.06-.33.08-.66.13-1-.37-2.78.86-5.22,1.65-7.74a89.36,89.36,0,0,1,4.18-9.12,11.58,11.58,0,0,0,1.3-2.16c.94-1.24,1.81-2.54,2.71-3.8A71.74,71.74,0,0,1,50.5,62.59a36.17,36.17,0,0,1,4.87-3.34,83.19,83.19,0,0,1,8.54-4.69,10.6,10.6,0,0,1,3.34-.66A67.13,67.13,0,0,1,85.16,51Z"/><path class="cls-2" d="M7.31,50.68A5.35,5.35,0,0,1,8,48.83,112,112,0,0,1,23.23,24.55c3.32-4.07,6.73-8.06,10.15-12.06a62.94,62.94,0,0,1,5.69-5.86A19.65,19.65,0,0,1,44,3.27a8,8,0,0,1,3.62-1c2.93,3,4.62,6.79,6.35,10.5,3.77,8.07,4.76,16.68,4.44,25.47-.08,2.18-.35,4.36-.36,6.55a2.13,2.13,0,0,1-.79,2c-1.64-.42-1.14-1.75-1.2-2.83C55,37.73,54.3,31.44,52.13,25.48a15.72,15.72,0,0,0-3.51-6c-2.47-2.46-4.78-2.66-7.69-.78a24.12,24.12,0,0,0-2,1.62C34.48,24.71,31,29.82,27.59,35c-4.39,6.58-8.41,13.35-10.89,21-2.91,8.94-2.52,17.37,3.11,25.22.59.81,1.33,1.74.55,2.88-1.1.49-1.95-.13-2.76-.69-6-4.07-9.34-9.85-10.7-16.86-.7-3.61-.45-7.27-.45-10.92C6.45,53.87,7.34,52.36,7.31,50.68Z"/><path class="cls-2" d="M126.8,2.29a8.53,8.53,0,0,1,3.79,1.1,22.52,22.52,0,0,1,5.32,3.82,86.81,86.81,0,0,1,6.92,7.44c3.67,4.29,7.36,8.56,10.77,13.07a111.62,111.62,0,0,1,13.28,22.39,7.44,7.44,0,0,1,.28,1c.39,3.21,1.05,6.38.86,9.66-.3,5.1-1.23,10-3.79,14.51a22.46,22.46,0,0,1-7.69,8.19,2.76,2.76,0,0,1-2.4.64c-1-1.18-.11-2.14.47-3a29.2,29.2,0,0,0,4.18-8.78c1.57-6.06.36-11.87-1.6-17.58-3.43-10-9.43-18.56-15.61-27a57,57,0,0,0-6.08-7.35c-5.15-4.5-8.19-3.73-11.88,1.92a23.43,23.43,0,0,0-2.77,7.64c-1.08,4.58-1.86,9.21-2.54,13.87.07.94.12,1.88-1.09,2.17a1.78,1.78,0,0,1-.82-1.5c-1.39-13.3-.21-26.1,7.14-37.74C124.53,5.16,125.14,3.35,126.8,2.29Z"/><path class="cls-5" d="M85.68,153.47a1.8,1.8,0,0,1,1.54.3c1.57.59,1.65,2.26,2.48,3.39a35,35,0,0,0,6.2,8.68,14.5,14.5,0,0,0,4.38,2.65c1,.41.22-.5.53-.51,1.79-.94,3.89-1,5.63-2.1a3.16,3.16,0,0,1,.5-.22,3.45,3.45,0,0,1,.51-.18,2.13,2.13,0,0,0,.9-.45,2.44,2.44,0,0,1,.43-.28,8.75,8.75,0,0,0,1.76-1.12c1.11-1.08,2.39-2,3.5-3,.47-.31.9-.78,1.56-.5-.11,1.27-1,2.16-1.6,3.17a14.45,14.45,0,0,1-2.29,3l-2.26,2.25a14,14,0,0,1-8.69,4,9.79,9.79,0,0,1-4.47-.85,14.35,14.35,0,0,1-6.7-5.13c-.62-.85-1.19-1.75-1.79-2.62a.57.57,0,0,0-1,0c-.62.94-1.24,1.89-1.84,2.84a2.74,2.74,0,0,1-.91,1c-.61.6-.78,1.54-1.6,2a12.68,12.68,0,0,1-8.23,4.41,9,9,0,0,1-2.77-.2,21.67,21.67,0,0,1-8.77-4.15q-2.13-1.64-4.18-3.38a15,15,0,0,1-2-2.23c-1.16-1.44-1.66-2.07-2.55.27-.94,2.49-2.12,4.88-3.14,7.34a106.24,106.24,0,0,0-4.91,14.95c-.58,2.32-1,4.68-1.48,7a22.28,22.28,0,0,1-4.52-.71c-2-.38-2.12-.49-1.71-2.4.23-1.11.51-2.21.82-3.3a103.84,103.84,0,0,1,5.8-16.14c2.29-4.81,4.75-9.53,7.44-14.13.4-.69.88-1.33,1.3-2a1.06,1.06,0,0,1,1.22-.45,1.9,1.9,0,0,1,1.11.74c1.88,2.81,4.59,4.83,6.91,7.23,2.45,1.94,4.82,4,7.85,5.06,2.8,1.41,5.13.44,7.28-1.43a22.14,22.14,0,0,0,5.16-6.31,7.44,7.44,0,0,0,1.38-3.15,4.74,4.74,0,0,1,1-1.95C85.93,154.43,85.58,153.91,85.68,153.47Z"/><path class="cls-4" d="M57.2,46.75l0-4.18a13.37,13.37,0,0,1,.3-3.56,5.54,5.54,0,0,0,.1-1.58,56.33,56.33,0,0,0-.31-7.34c-.24-1.55-.21-3.16-.49-4.73a55,55,0,0,0-3.14-11.07c-1.5-3.64-3.67-6.9-5.5-10.35a3.48,3.48,0,0,1-.57-1.66A4.44,4.44,0,0,1,52,3.64a24.7,24.7,0,0,1,4.32,5.45A53,53,0,0,1,61.61,23a152.57,152.57,0,0,1,2.81,15.28c.38,2.63.73,5.26,1,7.9.17,1.58.19,3.18.25,4.77,0,.61,0,1.17.69,1.53.43.24.33.67.09,1A4.56,4.56,0,0,1,64,54.93c-2,1.21-4.26,2-6.21,3.3-.49.34-1,.37-1.31-.25.14-3.17-.21-6.33-.07-9.5A1.92,1.92,0,0,1,57.2,46.75Z"/><path class="cls-4" d="M7.31,50.68a2.25,2.25,0,0,1,.22,2.1,9.87,9.87,0,0,0-.26,2.76c0,1.59,0,3.18,0,4.77A28.16,28.16,0,0,0,9.33,71.76a22.14,22.14,0,0,0,7.43,9.87c.65.47,1.28,1,1.92,1.42a3.54,3.54,0,0,0,1.81.77,1.43,1.43,0,0,1,1.62.41,42.46,42.46,0,0,0,8.1,5.13,1.3,1.3,0,0,1,0,.89c-1,2.34-1.29,4.94-2.5,7.22a1.54,1.54,0,0,1-2,.76,8,8,0,0,1-.92-.37,40.14,40.14,0,0,1-11.81-8,31,31,0,0,1-9.32-22A38.89,38.89,0,0,1,7.31,50.68Z"/><path class="cls-4" d="M126.8,2.29a5.85,5.85,0,0,1-.94,2.19c-1.45,2.39-2.77,4.85-4,7.34a44.15,44.15,0,0,0-4.28,13.44,48.06,48.06,0,0,0-.74,8.72,51.75,51.75,0,0,0,.34,7.76,24.36,24.36,0,0,1,.08,4.19c1.12.8.8,2,.82,3.08,0,2-.5,4-.43,6.07a1.7,1.7,0,0,1-.76,1.52.71.71,0,0,1-.88.21c-2.34-1.19-4.81-2.06-7.22-3.06-.58-.24-.61-.44-.36-1.47.07-.59.17-1.18.2-1.77A130.43,130.43,0,0,1,110,37.43a146.88,146.88,0,0,1,3.16-16.24,52.69,52.69,0,0,1,4.51-11.48,25,25,0,0,1,4.6-6A4.56,4.56,0,0,1,126.8,2.29Z"/><path class="cls-4" d="M153.88,83.78a1,1,0,0,0,.39,0,21.29,21.29,0,0,0,6.15-4.62,26.35,26.35,0,0,0,5.47-10,39.53,39.53,0,0,0,.94-5.06,46,46,0,0,0,.32-6.73,14.1,14.1,0,0,0-.25-3,4.15,4.15,0,0,1,.26-3.27,36.84,36.84,0,0,1,3,9.67,34.92,34.92,0,0,1,0,12.69,31.52,31.52,0,0,1-10.86,18.35,42.16,42.16,0,0,1-10.15,6.28,6,6,0,0,1-.76.2,1,1,0,0,1-.79-.8,25,25,0,0,0-2.19-6.8,4.8,4.8,0,0,1-.25-1.15c0-.13.06-.3.15-.36,2.62-1.86,5.27-3.68,8-5.4C153.46,83.64,153.69,83.72,153.88,83.78Z"/><path class="cls-6" d="M95.57,153.54l5.82-1c.93-.25,1.9-.25,2.81-.59a17.87,17.87,0,0,1,3.4-.56,47.79,47.79,0,0,0,6.88-1.84c1.14-.36,2.27-.72,3.41-1.06a5.25,5.25,0,0,1,1.16-.26,1.58,1.58,0,0,1,1.79,1.45,5,5,0,0,1-.36,2.72c-.28.59-.58,1.18-.87,1.78-.76,2-2.37,3.29-3.73,4.8l-.48.37a2,2,0,0,1-.58.21,19.13,19.13,0,0,1-9.3,1.8A12,12,0,0,1,96,155.92C95.56,155.22,95,154.47,95.57,153.54Z"/><path class="cls-7" d="M55.28,147a1.52,1.52,0,0,1,1,.4c1.87,1.24,4.2,1.39,6.08,2.58.62,1,.41,2.2.68,3.3,1,4.14,4,6.79,7,9.41,1.36,1.17,2.86,2.17,4.32,3.21.69.49,1.49,1,1.41,2a3.76,3.76,0,0,1-3.07.87,3.11,3.11,0,0,1-.85-.21,5,5,0,0,1-1.6-.58c-2.9-1.2-5.24-3.22-7.68-5.11A50.65,50.65,0,0,1,56,155.77a4.75,4.75,0,0,1-.76-1.59c-.28-.53-.55-1.05-.84-1.57a4.42,4.42,0,0,1,.38-5C54.94,147.38,55.11,147.18,55.28,147Z"/><path class="cls-5" d="M119.58,195.35q-1.67-5.1-3.31-10.21c-.26-.82-.46-1.66-.65-2.5a1.35,1.35,0,0,1,0-1c.39-.18.63.1.82.33a15.56,15.56,0,0,1,1.71,2.19,30.33,30.33,0,0,1,3.78,9.15,1.79,1.79,0,0,1-.67,1.93Z"/><path class="cls-8" d="M55.24,154.18l2.37,2.93a52.82,52.82,0,0,0,5.19,5.49c.09.34,0,.51-.37.38a50.17,50.17,0,0,1-6-5.92,19.6,19.6,0,0,1-1.62-2.45Z"/><path class="cls-9" d="M115.68,158.6a13.77,13.77,0,0,0,2.43-2.57c.49-.62,1-1.22,1.5-1.82v.88a2.57,2.57,0,0,1-.82,1.3l-3.18,3.7-1.2.89c-.37.14-.52-.09-.64-.38-.06-1,.84-1.2,1.47-1.61h0A1.24,1.24,0,0,1,115.68,158.6Z"/><path class="cls-10" d="M27.7,97.47A37,37,0,0,1,30,90.18c.25,0,.26.28.38.44a60.29,60.29,0,0,0-2,7.12,2.28,2.28,0,0,1-.27.51Z"/><path class="cls-11" d="M64,54.68l2.44-1.17.78.39A13.41,13.41,0,0,1,64,55.22.35.35,0,0,1,64,54.68Z"/><path class="cls-12" d="M107.6,151.42a9.23,9.23,0,0,1-3.23.75c-.24-.16-.22-.29,0-.39a10.09,10.09,0,0,1,2.8-.75Z"/><path class="cls-9" d="M120.8,154.94l-.82,0A.48.48,0,0,1,120.8,154.94Z"/><path class="cls-13" d="M153.88,83.78c-.4.35-.81.68-1.2,1a22.05,22.05,0,0,1-7.51,4.68,2.24,2.24,0,0,1-.71-1.21c.28-.78.66-1.51,1-2.25,1.26-2.07,1.36-4.45,1.6-6.72a33.56,33.56,0,0,0-7.39-25.13,37.38,37.38,0,0,0-6.85-6.63,2.55,2.55,0,0,1-1.43-1.79,10,10,0,0,1-.69-3.87c-.21-6.09.1-12.11,2.51-17.82.65-1.54,1-3.37,2.76-4.2a23.58,23.58,0,0,1,4.29,4.69A147.23,147.23,0,0,1,153.74,44.8a55.68,55.68,0,0,1,6,16.19,25.1,25.1,0,0,1-4.23,20.08C154.93,81.93,154.43,82.88,153.88,83.78Z"/><path class="cls-14" d="M131.94,45.92l1.27,1.13a4.39,4.39,0,0,1,.06,2.73c-1.07,3.87-.13,7.51,1.38,11,1.94,4.56,5,8.42,7.57,12.64a47,47,0,0,1,3.9,8.72,7.77,7.77,0,0,1-.12,4.48,1.89,1.89,0,0,1-1.54,1.63c-1.09-1.9-2.2-3.79-3.26-5.71a74.26,74.26,0,0,0-15-18.69,42.51,42.51,0,0,0-7.74-5.58,3.43,3.43,0,0,1-1.57-1.71c-.15-2.91.27-5.79.34-8.7,0-.65,0-1.31,0-2,.52-.75.19-1.66.47-2.46a2,2,0,0,1,1.52-.8A23.51,23.51,0,0,1,129.51,44,4.69,4.69,0,0,1,131.94,45.92Z"/><path class="cls-15" d="M86.43,106.64a8.67,8.67,0,0,1,2.5-.63,1.61,1.61,0,0,1,1.14.25,22.94,22.94,0,0,1,9.17,6.8,57.22,57.22,0,0,1,3.39,4.67A13.82,13.82,0,0,1,105,125c.09,3.79-1.62,7-5.37,8.13a7.62,7.62,0,0,1-4.13,0,13.56,13.56,0,0,1-3.5-1.4c-1.48,0-2.25-1.19-3.22-2l-.43-.3c-.14-.09-.26-.21-.39-.31l-.2-.13c-.84-.23-1,.55-1.36.94a1.89,1.89,0,0,1-.48.36l-.58.2c-.74.25-1.47.58-2.22.77a5.47,5.47,0,0,1-6.75-4.63,1.67,1.67,0,0,1,.19-.57A17.88,17.88,0,0,0,83.16,116c.19-.75.49-1.54-.07-2.28a14.18,14.18,0,0,1-1.35-.81c-.62-.83-.06-1.47.37-2.11A14.49,14.49,0,0,1,86.43,106.64Z"/><path class="cls-16" d="M53.86,126.85a9.83,9.83,0,0,1-9.11-6.1,10.72,10.72,0,0,1,1.81-12.07,11.21,11.21,0,0,1,7-3.88,10.32,10.32,0,0,1,8.8,2.78A11.11,11.11,0,0,1,64.94,120C63,124.65,59.38,126.8,53.86,126.85Z"/><path class="cls-17" d="M119.07,104.26a12.6,12.6,0,0,1,5.39,1.13,10.27,10.27,0,0,1,6.23,11.9,11.19,11.19,0,0,1-14.58,8.59,10.68,10.68,0,0,1-7.25-9.81,10.85,10.85,0,0,1,4.27-9.44c.57-.45,1.2-.85,1.81-1.24C116.25,104.55,117.59,103.83,119.07,104.26Z"/><path class="cls-18" d="M124.93,96.64a15.06,15.06,0,0,1-9-2.84,6.55,6.55,0,0,1-2.51-3,2.72,2.72,0,0,1,1.31-3.72,6.94,6.94,0,0,1,4.64-.73,20.37,20.37,0,0,1,5.67,1.85,11,11,0,0,1,4.44,4.17c1.15,1.85.85,2.83-1.08,3.83a3.72,3.72,0,0,1-1.72.46Z"/><path class="cls-14" d="M86.43,106.64a6,6,0,0,1-1.51,2.06,37.14,37.14,0,0,0-2.84,3.3.43.43,0,0,0,.1.68c0,1-.85,1.41-1.49,1.95a15.55,15.55,0,0,0-4.35,6.26,5.35,5.35,0,0,0,.47,5.52c.19.43.36.86.55,1.28,1.27,2.69,3.71,3.28,6.15,2.73.71-.16,1.39-.42,2.09-.63a1,1,0,0,1,0,1.1A4.88,4.88,0,0,1,82,133a9,9,0,0,1-4.25.84,6.65,6.65,0,0,1-6.6-6.62,16.14,16.14,0,0,1,1.46-7,28.14,28.14,0,0,1,5.86-9,18.08,18.08,0,0,1,6.59-4.39A3.32,3.32,0,0,1,86.43,106.64Z"/><path class="cls-18" d="M49.37,97.38a9.5,9.5,0,0,1-2.9-.75,2.85,2.85,0,0,1-1.22-4.2,6.37,6.37,0,0,1,1.35-1.7c2.82-2.25,5.91-3.8,9.63-3.71.73,0,1.46,0,2.18,0a4.39,4.39,0,0,1,1.35.28,2.5,2.5,0,0,1,1.5,3.39,7.15,7.15,0,0,1-1.62,2.48A17.13,17.13,0,0,1,49.37,97.38Z"/><path class="cls-19" d="M91.63,132.19a1.48,1.48,0,0,1,.74,1.49,1.92,1.92,0,0,1-.91,1.24,5.8,5.8,0,0,1-4.91.68,5.71,5.71,0,0,1-3.39-2.19C82.91,132,84.62,132,85,131a5.85,5.85,0,0,0,1-1.23v0c.66-.69,1-2,2.41-1.2l0,0,.42.41h0C89.54,130.25,90.91,130.93,91.63,132.19Z"/><path class="cls-20" d="M91.63,132.19c-1.16-.88-2.38-1.69-2.82-3.19L92,131.75Z"/><path class="cls-21" d="M85.21,131a3.86,3.86,0,0,1-1.66,1.78c-.19.08-.27.41-.39.63L82,133l3.19-2.41c.14.09.18.18.14.27S85.26,131,85.21,131Z"/><path class="cls-22" d="M84.64,189.38a1.19,1.19,0,0,1-.54,1,6.71,6.71,0,0,1-1.29.49.62.62,0,0,1-.7-.27,8.47,8.47,0,0,1-.73-1.4,1.18,1.18,0,0,1,.86-1.69A1.84,1.84,0,0,1,84.64,189.38Z"/><path class="cls-23" d="M84.72,179.49a1.06,1.06,0,0,1-.39.85,1.42,1.42,0,0,1-2.33-.71,7.27,7.27,0,0,1-.2-.77c-.15-.69,0-1.15.49-1.35a1.46,1.46,0,0,1,1.67.17A3.35,3.35,0,0,1,84.72,179.49Z"/><path class="cls-24" d="M82.46,169.72c0-.13,0-.25,0-.38,0-1.49,0-1.49,1.63-1.58.3.65.61,1.3.89,2a.76.76,0,0,1-.26,1,1,1,0,0,1-1.11,0A12.55,12.55,0,0,1,82.46,169.72Z"/><path class="cls-7" d="M115.23,159c-.23.67-.89,1-1.23,1.59-.8,1.44-2.21,2.28-3.33,3.4-.71.34-1.2,1-1.89,1.37h0a14,14,0,0,1-1.2.81h0a2.16,2.16,0,0,1-.46.39,5.47,5.47,0,0,0-.91.33,9.81,9.81,0,0,1-5.44,1.34c-2.17.68-3.44-1-4.73-2.08a31.79,31.79,0,0,1-6.8-9.11c-.33-1-1.78-1.74-.64-3,1.56-.15,3.14.22,4.69-.22l2.27-.24a13.21,13.21,0,0,0,2.17,3.32,11.59,11.59,0,0,0,7.71,3.71,20.45,20.45,0,0,0,7.64-1.1A5.56,5.56,0,0,1,115.23,159Z"/><path class="cls-25" d="M50.84,63.05c-1.78,1.58-3.59,3.13-5.33,4.75a63.52,63.52,0,0,0-7.12,8c-.5.2-.57-.18-.68-.5a1.93,1.93,0,0,1,0-.54,3.13,3.13,0,0,1,.32-.78A48.11,48.11,0,0,1,48.17,63.4a3.06,3.06,0,0,1,2.3-1C50.75,62.53,51,62.69,50.84,63.05Z"/><path class="cls-26" d="M62,150.09c-1.4-.52-2.81-1-4.2-1.56a2.38,2.38,0,0,1-1.52-1.15c.51.14,1,.25,1.52.43a93.46,93.46,0,0,0,9.45,2.85A5,5,0,0,1,68,151a.43.43,0,0,1,0,.6A5.75,5.75,0,0,1,62,150.09Z"/><path class="cls-27" d="M30.4,90.62c-.13-.15-.25-.3-.38-.44v-.61a1.43,1.43,0,0,1-.29-.76c.07-.54.42-1,.49-1.52A11.15,11.15,0,0,1,31.35,85c.12-.21.26-.4.4-.6A3,3,0,0,1,32,84a4.56,4.56,0,0,0,.33-.56,3.49,3.49,0,0,1,.19-.39l.19-.38a2.35,2.35,0,0,1,.19-.39c.06-.14.14-.27.21-.4a2.22,2.22,0,0,1,.23-.39,1.94,1.94,0,0,1,.49-.5.89.89,0,0,1,.45-.12.57.57,0,0,1,.35.29l-.12.46A9.63,9.63,0,0,1,34,82.69,67.61,67.61,0,0,0,30.4,90.62Z"/><path class="cls-28" d="M64,54.68c0,.18,0,.36,0,.54a11.41,11.41,0,0,1-1,.58c-2.58,1.16-5,2.63-7.43,4a.6.6,0,0,1-.53-.56,1,1,0,0,1,1.46-.88,5.42,5.42,0,0,0,1.64-.7C60.12,56.64,62.08,55.66,64,54.68Z"/><path class="cls-29" d="M55.12,59.44l.48.35-4.76,3.26-.4-.4A4.55,4.55,0,0,1,55.12,59.44Z"/><path class="cls-30" d="M38.06,75.06a1,1,0,0,0,.33.73l-2.55,3.7a1.25,1.25,0,0,1-.46.15A.76.76,0,0,1,35,79.3a1.75,1.75,0,0,1-.08-.51,2.6,2.6,0,0,1,.18-.79C35.94,76.87,36.19,75.15,38.06,75.06Z"/><path class="cls-31" d="M76.16,152.54a25.72,25.72,0,0,1,4.2.47.45.45,0,0,1-.09.65c-2.12.87-4.56.38-5.51-1.1A1.48,1.48,0,0,1,76.16,152.54Z"/><path class="cls-32" d="M88.47,154.26a2.39,2.39,0,0,0,.44,1.6c.23.38.45.76.67,1.14-.09.19-.15.41-.42.43a7.66,7.66,0,0,1-1-1.91c-.29-.59-.6-1.17-.91-1.75l1.21,0C88.68,153.93,88.7,154.08,88.47,154.26Z"/><path class="cls-33" d="M88.47,154.26c0-.16,0-.32,0-.47h4.88a3.06,3.06,0,0,1-1.89.41Z"/><path class="cls-34" d="M85.68,153.47l.32.19c.62.38.64.41.34,1a2.36,2.36,0,0,1-.35.43,1.27,1.27,0,0,1-1.07-.29,5.45,5.45,0,0,1-.58-.4,1.56,1.56,0,0,1-.46-.53.41.41,0,0,1,.12-.43Z"/><path class="cls-35" d="M68.05,151.36l0-.41a13.36,13.36,0,0,1,3.7.79c-.25.5-.75.57-1.21.72A2,2,0,0,1,68.05,151.36Z"/><path class="cls-36" d="M70.37,151.81l1.35-.07a3.79,3.79,0,0,1,2,.38,1,1,0,0,1-.6.76C72,153,70.84,153.33,70.37,151.81Z"/><path class="cls-37" d="M104.41,151.78c0,.13,0,.26,0,.39a7.35,7.35,0,0,1-3,.4A7.78,7.78,0,0,1,104.41,151.78Z"/><path class="cls-38" d="M73.22,152.44l.5-.32a5.11,5.11,0,0,1,2.44.42l-1.38.08C74.2,153.05,73.67,153.1,73.22,152.44Z"/><path class="cls-39" d="M35.27,79.45l.57,0A6.7,6.7,0,0,1,34.5,81.6c0-.19,0-.37,0-.56l-.18-.18a1.82,1.82,0,0,0-.07-.25,1.36,1.36,0,0,1,.2-.73,1.24,1.24,0,0,1,.37-.35A1.08,1.08,0,0,1,35.27,79.45Z"/><path class="cls-40" d="M80.48,153.35a2.3,2.3,0,0,0-.12-.34,4.52,4.52,0,0,1,2.49.32,1.29,1.29,0,0,1-1.18.62A1.21,1.21,0,0,1,80.48,153.35Z"/><path class="cls-41" d="M81.6,153.41l1.25-.08,1.15.1.06.31C83.11,154.58,82.24,154.82,81.6,153.41Z"/><path class="cls-13" d="M30.12,88.62c0,.32-.06.63-.1.95a11.9,11.9,0,0,1-4.72-1.95A23.43,23.43,0,0,1,21.84,85c-.45-.4-.9-.78-1.35-1.16-.86-1.34-1.73-2.67-2.56-4a25,25,0,0,1-3.62-17.17A49.49,49.49,0,0,1,18.6,48.8,115.3,115.3,0,0,1,28.56,32,109.58,109.58,0,0,1,35.38,23a16.1,16.1,0,0,1,3-3.12c1,.28,1.37,1.2,1.76,2,3.16,6.79,4,14,3.47,21.36-.06.88-.6,1.62-.65,2.49a2.74,2.74,0,0,1-1.41,1.82C32.35,54.7,27.08,64,26.94,75.82a25.59,25.59,0,0,0,1.61,9.53,11.44,11.44,0,0,0,1.64,2.75A.59.59,0,0,1,30.12,88.62Z"/><path class="cls-14" d="M30,88.26a1.37,1.37,0,0,1-1.37-.83c-.22-.52-.4-1.05-.6-1.58a9.29,9.29,0,0,1,.78-5.4A66.32,66.32,0,0,1,36.24,67a27.67,27.67,0,0,0,5.22-13A16,16,0,0,0,41,49.7c-.16-.91-.49-1.83.17-2.68l1.27-1.13c1.35-2.14,3.66-2.36,5.81-2.91s4.45-.31,6.69-.32a2,2,0,0,1,1.71.81c.06.59.14,1.17.18,1.76a3.09,3.09,0,0,0,.35,1.52c.1,2.55,0,5.11.28,7.67a5.3,5.3,0,0,1-.95,3.93,4.38,4.38,0,0,0-1.4,1.09,25.12,25.12,0,0,0-4.69,3.21,51.77,51.77,0,0,0-11,10.64c-.32.42-.67.82-1,1.23a2.14,2.14,0,0,1-.41.54h0a15.83,15.83,0,0,0-2.43,3.49,1.69,1.69,0,0,1-.39.5v0c-.24.22-.16.6-.41.81v0c-.23.23-.16.61-.42.82v0a1.21,1.21,0,0,1-.38.43v0c-.25.22-.17.6-.42.82v0c-.23.23-.16.61-.42.82l0,0c-.23.23-.16.61-.42.82l0,0c-.23.23-.16.61-.42.82v0c-.23.23-.14.62-.41.84-.39.77-.78,1.55-1.16,2.33C30.48,87.58,30.88,88.54,30,88.26Z"/><path class="cls-42" d="M56.67,43.47c-1.38,0-2.76,0-4.14,0a18.8,18.8,0,0,0-8.78,1.95c-.41.2-.86.32-1.29.48a6.76,6.76,0,0,1,0-1.19c.69-3.34.4-6.74.28-10.09a27.21,27.21,0,0,0-1.54-7.36A45.71,45.71,0,0,0,38.79,21a9.26,9.26,0,0,1-.36-1.13,9.24,9.24,0,0,1,5.36-3.2,3.92,3.92,0,0,1,3.05.47,11.41,11.41,0,0,1,4,3.78A25.85,25.85,0,0,1,54,28.6,110,110,0,0,1,56.67,43.47Z"/><path class="cls-42" d="M131.94,45.92c-1-.39-1.95-.79-2.94-1.16a18.92,18.92,0,0,0-6.56-1.3h-4.76a37.7,37.7,0,0,1,.78-5.89c.55-3.2,1.13-6.4,2-9.53a26.21,26.21,0,0,1,2.36-6.11,12,12,0,0,1,5-5,3.59,3.59,0,0,1,2.67-.34A9.47,9.47,0,0,1,136,19.88a5.91,5.91,0,0,1-.81,2,37,37,0,0,0-3.25,10.38,26.94,26.94,0,0,0-.34,4.74c0,1,0,2,0,3A28,28,0,0,0,131.94,45.92Z"/><path class="cls-6" d="M81.6,153.41a3.86,3.86,0,0,0,2.46.33l.68.09a3.06,3.06,0,0,1,.54.34l.71.91-.79,1.86c-.62,1-1.06,2.11-1.75,3.07A39.34,39.34,0,0,1,78,166.73c-.89.16-1.24,1.56-2.41,1-2-1.48-4.1-2.9-6.07-4.46a25.36,25.36,0,0,1-5.8-6.21,11,11,0,0,1-1.72-7c1.61.37,3.22.75,4.84,1.1.38.09.78.11,1.17.17a6.34,6.34,0,0,0,2.32.45c.87.57,1.91.37,2.85.63l1.56.17a1.05,1.05,0,0,0,.34.19,28.34,28.34,0,0,0,5.36.55Z"/><path class="cls-8" d="M89.16,157.43l.42-.43a44.38,44.38,0,0,0,4.53,6.52,18.86,18.86,0,0,0,3.43,3.31,6.45,6.45,0,0,0,3.25,1.39l1,.49a3.55,3.55,0,0,1-3-.12,11.45,11.45,0,0,1-3.26-2.21A30.87,30.87,0,0,1,89.16,157.43Z"/><path class="cls-43" d="M77.83,166.52a66.25,66.25,0,0,0,5.4-6.75c.36-.08.55,0,.41.41a21.52,21.52,0,0,1-5.2,6.41A.42.42,0,0,1,77.83,166.52Z"/><path class="cls-44" d="M62.43,163l.37-.38c.84.64,1.68,1.26,2.5,1.91a35.8,35.8,0,0,0,5.12,3.31c.13.07.18.15.13.22s-.08.12-.12.12a7.15,7.15,0,0,1-2.7-1.16A28.79,28.79,0,0,1,62.43,163Z"/><path class="cls-45" d="M70.43,168.16c0-.11,0-.23,0-.34l1.61.44a2.09,2.09,0,0,1,.39.27,4.46,4.46,0,0,0,3.21-.76c.91-.09,1.38-1,2.2-1.25l.61.07A7,7,0,0,1,73,169,4,4,0,0,1,70.43,168.16Z"/><path class="cls-46" d="M110.43,163.8l3.57-3.22.4.4a27.45,27.45,0,0,1-3.61,3.2C110.39,164.33,110.32,164.15,110.43,163.8Z"/><path class="cls-47" d="M83.64,160.18l-.41-.41a12.07,12.07,0,0,1,2-2.83A7.75,7.75,0,0,1,83.64,160.18Z"/><path class="cls-48" d="M110.43,163.8l.36.38a3.62,3.62,0,0,1-2,1.17A4.11,4.11,0,0,1,110.43,163.8Z"/><path class="cls-48" d="M107.59,166.16a1.54,1.54,0,0,1,1.2-.81A1.29,1.29,0,0,1,107.59,166.16Z"/><path class="cls-48" d="M107.14,166.55l.46-.39Z"/><path class="cls-7" d="M115.68,158.6l-.48.4Z"/><path class="cls-5" d="M72.42,168.53l-.39-.27Z"/><path class="cls-15" d="M146,86.66a11.7,11.7,0,0,0-.77-4.49,44.86,44.86,0,0,0-5.15-10.55c-1.35-2.06-2.67-4.13-4-6.22a25.78,25.78,0,0,1-4-10.34,11.31,11.31,0,0,1,.15-4.56,20.81,20.81,0,0,1,1-3.45,18.21,18.21,0,0,1,5.34,4.45,46.26,46.26,0,0,1,6.25,9.23A29.51,29.51,0,0,1,147.89,71c.21,2,0,4,.11,6a24.42,24.42,0,0,1-1.55,8.79A7.29,7.29,0,0,1,146,86.66Z"/><path class="cls-49" d="M76.81,126.41a2,2,0,0,1-1.9-2.16,5.55,5.55,0,0,1,.12-1.57,14.3,14.3,0,0,1,7.15-10c.5,0,1.07-.26,1.45.33a3.92,3.92,0,0,1-1.09,3.07,24.64,24.64,0,0,0-4.1,7.68,5.9,5.9,0,0,1-1.61,2.46Z"/><path class="cls-49" d="M91.62,113.05a1.29,1.29,0,0,1,.7-.66.83.83,0,0,1,.94,0,16.38,16.38,0,0,1,6.95,11.21,2.15,2.15,0,0,1-.6,2.19c-1.24.18-1.8-.67-2.19-1.6a32.27,32.27,0,0,0-5.13-8.44A2.67,2.67,0,0,1,91.62,113.05Z"/><path class="cls-50" d="M91.62,113.05a3.55,3.55,0,0,0,1,1.92,25.78,25.78,0,0,1,5.57,9,3.14,3.14,0,0,0,1.46,1.8c-.59.69-1.3.5-2,.21A5.19,5.19,0,0,1,96,124.84a18.27,18.27,0,0,1-4.59-7.77A4.62,4.62,0,0,1,91.62,113.05Z"/><path class="cls-50" d="M76.83,126.22a28.56,28.56,0,0,1,5.62-11.4A9.22,9.22,0,0,0,83.63,113a2.81,2.81,0,0,1,.51,2.62,19.45,19.45,0,0,1-4.83,9.06A3.63,3.63,0,0,1,76.83,126.22Z"/><path class="cls-20" d="M88.42,128.61c-1.07-.14-1.64.73-2.41,1.2a2.76,2.76,0,0,1,.85-1.51C87.63,127.35,87.68,127.36,88.42,128.61Z"/><path class="cls-20" d="M85.21,131v-.41l.39-.8H86A1.44,1.44,0,0,1,85.21,131Z"/><path class="cls-20" d="M88.82,129l-.42-.41Z"/><path class="cls-18" d="M51.1,117a2.26,2.26,0,0,0-.37-2.65,10.69,10.69,0,0,1,2.11-6.48,8.15,8.15,0,0,1,11.54,6.57,7.27,7.27,0,0,1-.74,4.62C60.62,122.3,53.41,121.42,51.1,117Z"/><path class="cls-51" d="M51.1,117a1,1,0,0,1,1.19.44,7.13,7.13,0,0,0,3.92,2.48,8.83,8.83,0,0,0,6-.53c.46-.2.88-.66,1.46-.33a7.53,7.53,0,0,1-5.28,5c-5.09,1.69-10.1-1.58-10.88-5.7C48.68,117.84,50.15,118.07,51.1,117Z"/><path class="cls-52" d="M52.84,107.82a.67.67,0,0,1,.19.72,28,28,0,0,0-1.54,4.64,2,2,0,0,1-.76,1.12,5.85,5.85,0,0,0-3.28-1,8.35,8.35,0,0,1,2.63-4.61.73.73,0,0,1,.52-.25C51.47,108.63,52.05,107.87,52.84,107.82Z"/><path class="cls-18" d="M115.24,107.42a2.3,2.3,0,0,1,2.51-.64,3.8,3.8,0,0,0,1.55-.12c2.35-.31,6.33,1.78,7.51,5.46.13.4-.11.62-.46.73a10.59,10.59,0,0,0-1.14.3,3.06,3.06,0,0,0-1.5,1.25,1.82,1.82,0,0,0,1.06,2.85,15.82,15.82,0,0,0,2.26.31,2.51,2.51,0,0,1-.59,1.92c-2.21,1-4.56.89-6.86.67a6.91,6.91,0,0,1-5.9-8.07A12.08,12.08,0,0,1,115.24,107.42Z"/><path class="cls-53" d="M115.24,107.42c.39.11.54.37.36.74a16.83,16.83,0,0,0-1,3.81c-.68,3.16,1.4,7.5,5.89,7.44,1.78,0,3.58.17,5.31-.46.39-.14.57.2.69.53a4.37,4.37,0,0,1-1.55,2.26,9.37,9.37,0,0,1-11.78.17,8.78,8.78,0,0,1-1.34-11.58A8.47,8.47,0,0,1,115.24,107.42Z"/><path class="cls-54" d="M38,75.06l.41-.54Z"/><path class="cls-55" d="M30,88.26l.86-.87c0,.54,0,1.1-.75,1.23C30.08,88.5,30,88.38,30,88.26Z"/><path class="cls-56" d="M33.64,81.85a1.09,1.09,0,0,1,.42-.82A1,1,0,0,1,33.64,81.85Z"/><path class="cls-57" d="M32.83,83.44a1.07,1.07,0,0,1,.42-.82A1.06,1.06,0,0,1,32.83,83.44Z"/><path class="cls-58" d="M32.43,84.24a1.06,1.06,0,0,1,.42-.82A1.07,1.07,0,0,1,32.43,84.24Z"/><path class="cls-59" d="M32,85.06a1.14,1.14,0,0,1,.41-.84A1.15,1.15,0,0,1,32,85.06Z"/><path class="cls-60" d="M33.23,82.64a1,1,0,0,1,.42-.81A1,1,0,0,1,33.23,82.64Z"/><path class="cls-56" d="M34.05,81.05l.39-.43V81Z"/><path class="cls-61" d="M34.84,79.84a1.11,1.11,0,0,1,.41-.81c0,.14,0,.28,0,.42Z"/><path class="cls-61" d="M35.24,79.05l.39-.5Z"/><path class="cls-41" d="M85.28,154.17l-.54-.34Z"/><path class="cls-62" d="M34.43,80.64a1,1,0,0,1,.42-.82A1.06,1.06,0,0,1,34.43,80.64Z"/><path class="cls-15" d="M41.19,47c.39,1.61.79,3.22,1.15,4.83a5,5,0,0,1,.08,1.39,25.2,25.2,0,0,1-3.71,11.41c-1.82,2.85-3.7,5.66-5.42,8.58a38.37,38.37,0,0,0-4.56,10.33c-.19.77-.46,1.52-.69,2.29a12.7,12.7,0,0,1-1.45-4.93,28.16,28.16,0,0,1-.53-5.73c.29-4.87,1-9.59,3.3-14A42.22,42.22,0,0,1,38,49.33,10.9,10.9,0,0,1,41.19,47Z"/><path class="cls-63" d="M170.52,56.47a67.88,67.88,0,0,0-6.64-15.35A181.25,181.25,0,0,0,137.57,6.56a44.33,44.33,0,0,0-4-3.59,15.13,15.13,0,0,0-4.12-2.4,7.55,7.55,0,0,0-6.54.44,10.19,10.19,0,0,0-3.58,3.13,39.92,39.92,0,0,0-2.88,4.54,57.93,57.93,0,0,0-4,10,106.1,106.1,0,0,0-3.68,16.13,113.82,113.82,0,0,0-1.67,16.88,2.15,2.15,0,0,1-.2.59c-2.22-.55-4.39-1.16-6.59-1.59s-4.46-.75-6.71-1A58.06,58.06,0,0,0,87,49.33a58.8,58.8,0,0,0-6.76.51c-2.24.27-4.48.65-6.69,1.12s-4.33,1.1-6.54,1.67c-.1-2.27-.08-4.4-.29-6.52A156.79,156.79,0,0,0,64,28a89.21,89.21,0,0,0-5.21-16.74,32.83,32.83,0,0,0-3.46-6.28,14,14,0,0,0-3-3.16A7.7,7.7,0,0,0,43.89.88,25.7,25.7,0,0,0,40,3.34,47.24,47.24,0,0,0,33.7,9.42,212.56,212.56,0,0,0,16.64,30.8,123.47,123.47,0,0,0,10,41.46,68.69,68.69,0,0,0,3.46,56.65,35.83,35.83,0,0,0,2.4,72.26C4.31,83.56,10.52,91.73,20.59,97a32.71,32.71,0,0,0,4.28,1.6c.36.13.73.23,1.1.34a5,5,0,0,1,0,.69,50.48,50.48,0,0,0,0,16.5,36.69,36.69,0,0,0,16.52,26,64,64,0,0,0,9.63,5.23c.46.2.92.43,1.45.68-.73,1-1.43,2-1.16,3.21s.66,2.12,1,3.15c-1.06,1.47-2.15,2.9-3.15,4.39a73.12,73.12,0,0,0-6.54,12.33,104.64,104.64,0,0,0-6.24,18.29,13.34,13.34,0,0,0-.36,2.16c-.05,1.38.35,1.65,1.33,1.87,2.2.5,4.39,1.08,6.62,1.47a216,216,0,0,0,21.81,2.49c2.33.17,4.65.36,7,.52,5.12.34,10.24.61,15.38.44Q100.61,198,112,197a176.86,176.86,0,0,0,18.78-2.54c1.7-.32,3.38-.73,5.06-1.16,1.26-.32,1.54-.71,1.39-2a25.89,25.89,0,0,0-.63-3.13,114.32,114.32,0,0,0-8.17-21.83,59.76,59.76,0,0,0-6.8-11c-.28-.36-.54-.73-.7-1,.39-1.18.8-2.16,1-3.19s-.45-2-.92-2.83c.13-.17.16-.24.22-.27.53-.25,1.07-.51,1.62-.75a60.85,60.85,0,0,0,10.78-6,36,36,0,0,0,14.25-19.9,49,49,0,0,0,1.77-15.61c-.1-2.32-.36-4.63-.56-7.08,4.84-1.75,7.14-3,10.38-5.59A32.79,32.79,0,0,0,172,68.9,37.36,37.36,0,0,0,170.52,56.47ZM26.27,97.6a4.23,4.23,0,0,1-.65-.12,40.21,40.21,0,0,1-11.29-7A31,31,0,0,1,4.42,70.92C3.65,65,4.73,59.39,6.65,53.86A70.22,70.22,0,0,1,12.26,42,152.89,152.89,0,0,1,25.17,23.24c3.63-4.6,7.39-9.1,11.42-13.37a39.13,39.13,0,0,1,5.73-5.26,20.18,20.18,0,0,1,2.9-1.73,5.25,5.25,0,0,1,5.32.45,9.07,9.07,0,0,1,2.73,2.61,47.67,47.67,0,0,1,2.82,4.58,67.32,67.32,0,0,1,5.08,14A130.86,130.86,0,0,1,64.46,42c.42,3.43.7,6.88,1,10.33a8.35,8.35,0,0,1,0,.87c-1.22.51-2.45,1-3.65,1.53s-2.39,1.1-3.59,1.65c-.1-.25-.19-.37-.18-.48A44.41,44.41,0,0,0,58,45.35a79.2,79.2,0,0,0-2.75-15.5,67.4,67.4,0,0,0-2.43-7,27.22,27.22,0,0,0-2.47-4.32,8.35,8.35,0,0,0-2.92-2.68,5.21,5.21,0,0,0-5-.34,15.44,15.44,0,0,0-2.73,1.64A25.91,25.91,0,0,0,35,21.82,156.84,156.84,0,0,0,18.89,45.58c-.8,1.45-1.52,3-2.21,4.47a42.61,42.61,0,0,0-3.21,9.84,29.07,29.07,0,0,0,1.11,15.55C17,82.25,21.51,87.17,28.69,89.69c-.48,1.44-1,2.75-1.37,4.07S26.62,96.31,26.27,97.6Zm-.15-15.09a8.19,8.19,0,0,0,.35.94h0a12.63,12.63,0,0,0,1.84,4.32c.22.39.6.73.5,1.25h0a24.85,24.85,0,0,1-5.74-3.57A23.57,23.57,0,0,1,14.86,71,31.24,31.24,0,0,1,16.24,55.1a60.1,60.1,0,0,1,4.85-10.49A158.26,158.26,0,0,1,35.66,23.42a53.29,53.29,0,0,1,4.4-4.62,11.25,11.25,0,0,1,2.45-1.69,4.21,4.21,0,0,1,4.7.37,10,10,0,0,1,2.43,2.62A23.93,23.93,0,0,1,52,24.9,69.21,69.21,0,0,1,55.63,39a18,18,0,0,1,.44,4,6.68,6.68,0,0,1-1,0,20.55,20.55,0,0,0-14.77,3.53,29,29,0,0,0-6.71,6.23,37.84,37.84,0,0,0-8,19.06A27.63,27.63,0,0,0,26.12,82.51Zm3.51,5.3a.75.75,0,0,1-.74-.52c-.42-1-.85-2.05-1.26-3.08-.26-.66-.49-1.33-.74-2a28.94,28.94,0,0,1-.42-8.95C27.58,63.39,31.58,55,39.41,48.68a21.09,21.09,0,0,1,14.47-4.75c.79,0,1.57.17,2.37.26a75.17,75.17,0,0,1,.63,13c-.42.27-.85.56-1.29.83A67.81,67.81,0,0,0,29.74,87.43C29.69,87.55,29.67,87.69,29.63,87.81ZM86.8,178.63c0,6.05.12,12.1.18,18.24a3.14,3.14,0,0,1-.66.14c-8.41.11-16.76-.72-25.12-1.42A76.75,76.75,0,0,1,52,194.52a31.71,31.71,0,0,1,1-6c.58-2.26,1.23-4.49,1.85-6.73a1.83,1.83,0,0,0,.4-1.64,1.44,1.44,0,0,0-.81,1.22,46.14,46.14,0,0,0-3.7,12.78c-2.2.18-10.12-1.29-12.22-2.27C40,182.47,47,165.74,53.94,155.24a8.84,8.84,0,0,1,.81.81,46,46,0,0,0,12.44,11.12,24.69,24.69,0,0,0,3.94,1.91,5.91,5.91,0,0,0,5.72-.63A17.51,17.51,0,0,0,80,165.72a30.07,30.07,0,0,0,6.44-10.47c0-.09.17-.14.26-.21s.19,0,.2.06a3.92,3.92,0,0,1,.08.76C86.56,163.45,86.77,171,86.8,178.63ZM55,148.54C64.7,152.24,74.8,154,85,154.86c.34.44,0,.69-.11,1a43.6,43.6,0,0,1-5.73,8.38,23.35,23.35,0,0,1-2.91,2.71,4.79,4.79,0,0,1-4.91.63,19.26,19.26,0,0,1-2.51-1.2,43.31,43.31,0,0,1-12.47-11,23.57,23.57,0,0,1-2-3.22A3,3,0,0,1,55,148.54Zm76.46,28.51c2.65,7,4.22,12.63,4.15,15a118.76,118.76,0,0,1-15.74,2.86c-1-4.22-1.91-8.42-3.86-12.29l-.42.44c.6,2.31,1.21,4.62,1.79,6.94.4,1.6.74,3.22,1.09,4.73a1.8,1.8,0,0,1-.22.27.4.4,0,0,1-.18.07c-.39.08-.78.18-1.17.22-1.79.18-3.58.35-5.37.49-7.43.57-14.87,1.11-22.32,1.24a8.05,8.05,0,0,1-.89-.07c0-.46-.11-.91-.12-1.36q-.09-16.87-.17-33.74c0-.8,0-1.6,0-2.4-.48-1.32-.26-2.7-.37-4.24a1.45,1.45,0,0,1,.79,1.46,35.43,35.43,0,0,0,5.7,8.85,15.42,15.42,0,0,0,3.28,2.91,6.23,6.23,0,0,0,5.9.66,25,25,0,0,0,3.93-1.91,46.33,46.33,0,0,0,12.3-11l.73-.9C122.53,157.76,128.6,169.58,131.42,177.05ZM89.17,155c2-.22,4.07-.4,6.1-.65s4.08-.53,6.11-.87,4.18-.75,6.25-1.21,4-1,6-1.53,3.9-1.23,5.9-1.87a2.6,2.6,0,0,1,.55,3,11.74,11.74,0,0,1-1.1,2.11,52.24,52.24,0,0,1-3.35,4.2,41.86,41.86,0,0,1-9,7.56,28,28,0,0,1-3.34,1.76,5,5,0,0,1-5.59-.74,20,20,0,0,1-2.32-2.18,44.87,44.87,0,0,1-6.17-9A1.84,1.84,0,0,1,89.17,155Zm58.14-43.17a45.79,45.79,0,0,1-2.53,11.87A33.3,33.3,0,0,1,134,138.22a58.39,58.39,0,0,1-15.13,8.4A86.33,86.33,0,0,1,103.31,151a96.74,96.74,0,0,1-13.45,1.78l-2.39.12v.1c-3-.29-6-.46-8.95-.87A110,110,0,0,1,63.28,149,69.88,69.88,0,0,1,44.88,141a39.85,39.85,0,0,1-8.79-7.49,34.1,34.1,0,0,1-7.61-16,50.69,50.69,0,0,1-.76-14.12A43.08,43.08,0,0,1,31,90,65.62,65.62,0,0,1,58.1,58.63,51,51,0,0,1,75.16,52.1a65.57,65.57,0,0,1,19.68-.71,55.71,55.71,0,0,1,17.42,4.78,61.68,61.68,0,0,1,19.4,14.48,62.54,62.54,0,0,1,13.67,23A44.7,44.7,0,0,1,147.31,111.78ZM147.24,83a.59.59,0,0,0,.33.41,22.56,22.56,0,0,0,1.12-9.64,37.91,37.91,0,0,0-8.36-21.2,30.8,30.8,0,0,0-5.44-5.26,21.54,21.54,0,0,0-11.74-4.52,49.26,49.26,0,0,0-5.09.16,5.5,5.5,0,0,1-.07-1,69.84,69.84,0,0,1,4.24-17.59,28,28,0,0,1,2.3-4.41,10.13,10.13,0,0,1,2.14-2.34,4.17,4.17,0,0,1,5-.43,11,11,0,0,1,2.42,1.74,51.5,51.5,0,0,1,4.26,4.48A157.55,157.55,0,0,1,153,44.77a53.35,53.35,0,0,1,5.54,13,29.07,29.07,0,0,1-1,18.6,23.05,23.05,0,0,1-11.31,12.14,1.83,1.83,0,0,1-.48,0c-.07-.21-.16-.44-.24-.68a10.65,10.65,0,0,0,2-4.4A.59.59,0,0,1,147.24,83Zm-23.7-39a21.74,21.74,0,0,1,11.87,5.24,34.71,34.71,0,0,1,10.5,16,33.55,33.55,0,0,1,1.7,13.38c-.09,1.19-.31,2.37-.47,3.55h0c-.26.75-.52,1.49-.8,2.23a9,9,0,0,1-1,2.23l-.54-.08c-.4-.84-.75-1.7-1.19-2.51a68.09,68.09,0,0,0-22.14-24.78c-.71-.48-1.45-.93-2.19-1.38s-1.36-.82-2.14-1.28a69.93,69.93,0,0,1,.61-12.4A16.72,16.72,0,0,1,123.54,44.05ZM147.2,82.54v0Zm10.87,9.29a36.63,36.63,0,0,1-9.14,5.34c-.19-.14-.27-.17-.29-.22-.77-2.46-1.53-4.92-2.3-7.41a1.76,1.76,0,0,1,.44-.39c6.89-2.87,11-8.16,13.14-15.14a30.31,30.31,0,0,0-.16-17.52A52.89,52.89,0,0,0,155.38,46,150.72,150.72,0,0,0,138.8,21.6a43.87,43.87,0,0,0-4.38-4.35,10.66,10.66,0,0,0-2.52-1.6,5.4,5.4,0,0,0-5.52.39,10.58,10.58,0,0,0-2.85,2.77,23.91,23.91,0,0,0-2.73,5.08,65.52,65.52,0,0,0-3.45,12.28,92.6,92.6,0,0,0-1.6,14.67c0,1.46.08,2.93.12,4.39a3.56,3.56,0,0,1-.1.62l-7.11-3a2.64,2.64,0,0,1-.1-.68,144.4,144.4,0,0,1,5-30.27A65.83,65.83,0,0,1,118,10.37a23.21,23.21,0,0,1,3.5-5.32,7.86,7.86,0,0,1,3.78-2.49,4.8,4.8,0,0,1,2.55,0,9.31,9.31,0,0,1,3.37,1.69,58.41,58.41,0,0,1,4.54,3.91,160.93,160.93,0,0,1,12.36,14.12A159.55,159.55,0,0,1,160.65,40,75.66,75.66,0,0,1,167.77,55a36.49,36.49,0,0,1,2.09,11.35C169.88,76.6,166.17,85.25,158.07,91.83Z"/><path class="cls-63" d="M115.31,181.08c-.22.95-.19,1.48.24,1.95l.42-.44C115.8,182.19,115.63,181.8,115.31,181.08Z"/><path class="cls-63" d="M94.63,107.18a11.09,11.09,0,0,0-1.9-1.08,10.18,10.18,0,0,0-6.41-.8,13.81,13.81,0,0,0-6.54,3.22A31.35,31.35,0,0,0,70.26,123a11.59,11.59,0,0,0-.59,4.13c.21,3.37,2,6.72,6.32,7.73a9,9,0,0,0,5.48-.46l1.42-.57c3.23,3.72,7.5,4.13,10.23-.09.34.1.72.19,1.09.31a10,10,0,0,0,3.92.56c3.56-.26,8-2.73,7.87-8.38a17.19,17.19,0,0,0-1-5.46A28.5,28.5,0,0,0,94.63,107.18Zm-4.25,27.89a4.12,4.12,0,0,1-4.18.16c-.89-.43-1.71-1-2.76-1.62.94-.92,1.69-1.56,2.33-2.3s1.17-1.6,1.78-2.47c.61.09.65.73,1,1.08s.77.91,1.2,1.33a13.4,13.4,0,0,0,1.21,1c.41.33.84.63,1.29,1A5.15,5.15,0,0,1,90.38,135.07Zm8-2a9,9,0,0,1-5-.86,11.13,11.13,0,0,1-4.68-3.91c-.21-.34-.48-.63-.84-1.1-.89,1-1.6,1.91-2.36,2.73a10.86,10.86,0,0,1-5.17,3.25,8.39,8.39,0,0,1-3.76.15,6.38,6.38,0,0,1-5.26-6,11.07,11.07,0,0,1,.59-4.32,29.72,29.72,0,0,1,9.26-13.71,11.11,11.11,0,0,1,6.49-2.78,9,9,0,0,1,5.36,1.24,1.51,1.51,0,0,1,.17.1c5.38,3.81,9.39,8.61,11,15.16a14.45,14.45,0,0,1,.36,3.35A6.47,6.47,0,0,1,98.36,133.07Z"/><path class="cls-63" d="M54.84,104.15A11.75,11.75,0,1,0,66.59,116,11.66,11.66,0,0,0,54.84,104.15ZM64.9,119.51A7.72,7.72,0,0,1,62,123.77a10.68,10.68,0,0,1-17.46-4.67,6.57,6.57,0,0,1-.16-1.18,7.48,7.48,0,0,1,.11-5,10.63,10.63,0,0,1,16.3-5.81,7,7,0,0,1,2.83,2.74A9.57,9.57,0,0,1,64.9,119.51Z"/><path class="cls-63" d="M119.59,103.63a11.75,11.75,0,1,0,11.87,11.69A11.59,11.59,0,0,0,119.59,103.63Zm10.76,11.81c0,.39,0,.79,0,1.18a1.36,1.36,0,0,1-.28,1.31c-1,5.86-8.46,10.61-15.44,6.9a14.36,14.36,0,0,1-1.45-1,8.25,8.25,0,0,1-3.62-5.19c-.46-.43-.36-1-.42-1.55a7,7,0,0,1-.32-1.31,7.68,7.68,0,0,1,.75-4,5.15,5.15,0,0,1,1.24-2.35,7,7,0,0,1,2.8-2.79,10.59,10.59,0,0,1,16.41,6A4,4,0,0,1,130.35,115.44Z"/><path class="cls-63" d="M115.06,93.72A16.21,16.21,0,0,0,125,97.41a8.24,8.24,0,0,0,3.32-.59,3.35,3.35,0,0,0,1.83-5,8.62,8.62,0,0,0-2.84-3,16.54,16.54,0,0,0-9.24-3,8.47,8.47,0,0,0-3.23.55c-2.24,1-3,2.91-1.79,5A9,9,0,0,0,115.06,93.72Zm0-6.46a7.09,7.09,0,0,1,3.72-.54,16,16,0,0,1,7.8,2.8,7.85,7.85,0,0,1,2.57,2.74,2.33,2.33,0,0,1-1.25,3.58,7.66,7.66,0,0,1-3.14.48,15.23,15.23,0,0,1-9-3.33,6.57,6.57,0,0,1-1.91-2.28A2.31,2.31,0,0,1,115.1,87.26Z"/><path class="cls-63" d="M46.26,97.3a20.31,20.31,0,0,0,3.17.69c1.27-.19,2.41-.29,3.5-.55a15.27,15.27,0,0,0,7-3.62,6.65,6.65,0,0,0,1.84-2.57A3.2,3.2,0,0,0,60.25,87a6.24,6.24,0,0,0-2.66-.77,15.64,15.64,0,0,0-11.41,3.88,7.74,7.74,0,0,0-1.74,2.16A3.29,3.29,0,0,0,46.26,97.3Zm-1-4.36a6.65,6.65,0,0,1,1.87-2.31,15.39,15.39,0,0,1,9.39-3.42,6.17,6.17,0,0,1,3.09.64A2.25,2.25,0,0,1,60.75,91a6.61,6.61,0,0,1-2,2.45,15.43,15.43,0,0,1-9.17,3.36,7.83,7.83,0,0,1-3.16-.59A2.25,2.25,0,0,1,45.25,92.94Z"/><path class="cls-63" d="M127.81,72.9c-1.41-3-2.65-4.33-4.4-5-.07.11-.2.22-.19.32a1,1,0,0,0,.19.53A21.17,21.17,0,0,0,127.81,72.9Z"/><path class="cls-63" d="M120.44,69.61a3,3,0,0,0,.72.17c-1.41-1.92-2.68-3.64-5-4.19l-.27.5A24.08,24.08,0,0,0,120.44,69.61Z"/><path class="cls-63" d="M140.15,100.94a.74.74,0,0,0-.48.24,2,2,0,0,0-.15.77c-.09,1.31-.17,2.63-.25,4.07.27-.17.52-.24.56-.37a27.55,27.55,0,0,0,.57-2.7,9.51,9.51,0,0,0,0-1.77C140.39,101.09,140.22,100.93,140.15,100.94Z"/><path class="cls-63" d="M133.19,82.25l.46-.44a11.15,11.15,0,0,0-.54-1.28c-.44-.81-.92-1.6-1.43-2.38-.05-.08-.34-.07-.49,0s-.17.23-.15.34a2.67,2.67,0,0,0,.27.73C131.93,80.22,132.56,81.24,133.19,82.25Z"/><path class="cls-63" d="M123.56,74.81c-.1.9.23,1.38,2.39,3.49.25.3.48.61.75.9s.4.36.74,0l-1-1.36C125.14,75.69,125,75.49,123.56,74.81Z"/><path class="cls-63" d="M133.92,86.47a1.53,1.53,0,0,0-.39-.66.59.59,0,0,0-.52-.12.63.63,0,0,0-.26.48,2,2,0,0,0,.17.76c.35.83.73,1.66,1.09,2.5.23.54.25,1.23,1.46,1.61-.69-1-.47-1.84-1-2.5C134.3,87.85,134.13,87.15,133.92,86.47Z"/><path class="cls-63" d="M140.67,97.43a10,10,0,0,0-1-5.42C139.4,93.39,139.48,93.83,140.67,97.43Z"/><path class="cls-63" d="M35.6,115.66a10.56,10.56,0,0,0,.13,1.48c.23,1,.53,2,.8,3,.13-.26.26-.53.38-.8-.18-1.09-.34-2.18-.55-3.27C36.3,115.8,36.16,115.47,35.6,115.66Z"/><path class="cls-63" d="M35.33,122.93a.35.35,0,0,0-.59.1,1,1,0,0,0,0,.57c.33,1,.69,2,1,3,.12.35.11.78.63,1a1.93,1.93,0,0,0-.27-1.82C35.86,124.8,35.61,123.86,35.33,122.93Z"/><path class="cls-63" d="M40.09,129.55c-.22-.29-.53-.34-.84.13a10.31,10.31,0,0,0,1.63,2.13C42,133.39,42,133.39,43,133.66l-1.7-2.32C40.91,130.74,40.53,130.12,40.09,129.55Z"/><path class="cls-63" d="M32.27,110.91c-.45,1.3-.45,1.3-.19,3.29.14,1,.27,2,.43,3,0,.1.15.18.24.28a13.22,13.22,0,0,0-.25-5.26Z"/><path class="cls-63" d="M83.47,167a2.08,2.08,0,0,0-2.08,2.16,2.51,2.51,0,0,0,2.36,2.47,2.18,2.18,0,0,0,2.2-2.28A2.54,2.54,0,0,0,83.47,167Zm1.12,2.68a.85.85,0,0,1-.9.61,1.09,1.09,0,0,1-1-1.27.79.79,0,0,1,.78-.74A1.22,1.22,0,0,1,84.59,169.64Z"/><path class="cls-63" d="M83.1,176.66a2.35,2.35,0,0,0-2.25,2.12,2.46,2.46,0,0,0,2.21,2.6,2.23,2.23,0,0,0,2.35-2.19A2.48,2.48,0,0,0,83.1,176.66Z"/><path class="cls-63" d="M83,186.91a2.11,2.11,0,0,0-2.23,2.26A2.27,2.27,0,0,0,83,191.44a2.18,2.18,0,0,0,2.25-2.27A2.32,2.32,0,0,0,83,186.91Zm-.07,3.24a1,1,0,0,1-.88-1.1,1,1,0,0,1,.9-.87A1.06,1.06,0,0,1,84,189.3,1,1,0,0,1,82.88,190.15Z"/><path class="cls-63" d="M62.82,159l.42-.41c-2.69-3.3-3.65-4.26-4.92-4.86A6.26,6.26,0,0,0,60,156.45C60.93,157.33,61.89,158.16,62.82,159Z"/><path class="cls-63" d="M69.59,160.65c.78.48,1.57,1,2.36,1.44.08,0,.23-.06.39-.1a2.71,2.71,0,0,0-.35-.44c-.65-.45-1.32-.89-2-1.33-1.51-1.08-3-2.15-4.53-3.22,0,0-.1.06-.15.09C66,158.48,66.92,159.25,69.59,160.65Z"/><path class="cls-63" d="M81.65,112.3a4.15,4.15,0,0,0-2.06,1.49,16.08,16.08,0,0,0-4.13,6,15.38,15.38,0,0,0-.63,2.06.19.19,0,0,0-.06.27,2.14,2.14,0,0,0-.31,1.72c0,.41,0,.81,0,1.21a.81.81,0,0,0,.3.89c.83,1.19,1.54,1.43,2.81.92A7.27,7.27,0,0,0,80.16,125a17.16,17.16,0,0,0,4.49-8.71,6.24,6.24,0,0,0,0-2.36A2.06,2.06,0,0,0,81.65,112.3Zm1.82,4.35a16.32,16.32,0,0,1-4.59,8,7.2,7.2,0,0,1-2,1.27,1,1,0,0,1-1.48-.82,16,16,0,0,1-.16-2,4.93,4.93,0,0,0,.29-.72,15.73,15.73,0,0,1,4.2-7.64,3.27,3.27,0,0,0,.35-.46c.69-.37,1.36-.8,2.08-1.11a1,1,0,0,1,1.36.74A8.72,8.72,0,0,1,83.47,116.65Z"/><path class="cls-63" d="M100.46,122.09a.19.19,0,0,0-.06-.27,16.31,16.31,0,0,0-4.76-8,4.12,4.12,0,0,0-2-1.49,2.07,2.07,0,0,0-3,1.43,5.16,5.16,0,0,0-.06,2.56,17,17,0,0,0,2.13,5.53,13.61,13.61,0,0,0,2.82,3.57,9.66,9.66,0,0,0,2.32,1.49c1.14.49,1.83.17,2.62-1a.79.79,0,0,0,.3-.89l0-1.2A2.16,2.16,0,0,0,100.46,122.09Zm-.64,3a1,1,0,0,1-1.49.82,7.55,7.55,0,0,1-2-1.27,14.85,14.85,0,0,1-3.52-5,14.66,14.66,0,0,1-1.07-3,9.72,9.72,0,0,1-.08-2.75,1,1,0,0,1,1.36-.74c.72.31,1.39.74,2.08,1.11h0c.55.65,1.13,1.27,1.65,1.94A16.19,16.19,0,0,1,99.61,122c.1.38.24.74.36,1.11A18.26,18.26,0,0,1,99.82,125.06Z"/><path class="cls-63" d="M59.26,107.07a9.38,9.38,0,0,0-12,4.86c-.15.36-.32.72-.47,1-.74.58-1.79.75-2,1.86a1,1,0,0,0,0,1.48c0,.22.07.45.11.67a4.76,4.76,0,0,1,2.4,2.94,9.26,9.26,0,0,0,8.85,5.24,10.41,10.41,0,0,0,5.36-1.83,12.76,12.76,0,0,0,3-4.3,11.81,11.81,0,0,1,.29-1.34,7.55,7.55,0,0,0,0-3.89,14.75,14.75,0,0,0-1.54-3.6l-3-2.71Zm-13.38,9.29a1.13,1.13,0,0,1,.2-1.72,9.45,9.45,0,0,1,1.58-.66,3.63,3.63,0,0,1,2.55,1,1.26,1.26,0,0,1-.21,1.9A3.19,3.19,0,0,1,45.88,116.36ZM64.09,115a8.39,8.39,0,0,1-6.92,9.08c-4.31.81-8.54-2.34-9.15-5.59.5-.09.89-.13,1.27-.23a4.58,4.58,0,0,0,1.1-.43,2.2,2.2,0,0,0,.29-3.81,13.42,13.42,0,0,0-2.49-1.23c.57-3,4.3-5.55,8.15-5.33A8.4,8.4,0,0,1,64.09,115Z"/><path class="cls-63" d="M115.88,106.34c-.63.21-1.23.49-1.85.74l-2.9,2.73-1.16,2.4a16.65,16.65,0,0,0-.43,4.45l.42,2a12.4,12.4,0,0,0,3.76,4.7c.54.25,1.07.53,1.63.75A9.38,9.38,0,0,0,126.91,120a18.47,18.47,0,0,1,1-2.15,10.56,10.56,0,0,1,1.76-1.56l.28-.45a.61.61,0,0,1,.07-.35l-.39-1.63-1.94-1.46-.54-1.21A9.37,9.37,0,0,0,115.88,106.34Zm12.52,7.74a1.19,1.19,0,0,1,.16,1.88,3.23,3.23,0,0,1-4,.42,1.24,1.24,0,0,1-.17-2,3.93,3.93,0,0,1,2.39-.91A9.18,9.18,0,0,1,128.4,114.08Zm-3.61-1.18a2.79,2.79,0,0,0-1.9,2.56,2.83,2.83,0,0,0,2.42,2.33,11.53,11.53,0,0,0,1.18.15c-.67,3.78-5.12,6-8.3,5.73a8.46,8.46,0,0,1-7.8-8,8.37,8.37,0,0,1,6.8-8.63,8,8,0,0,1,9.24,5.31A15.41,15.41,0,0,0,124.79,112.9Z"/><circle class="cls-24" cx="83.13" cy="179.02" r="1.1"/></g></g></svg>