<svg xmlns="http://www.w3.org/2000/svg" viewBox="0 0 184.23 186.31"><defs><style>.cls-1{fill:#d7e9e6;}.cls-2{fill:#becec9;}.cls-3{fill:#a1bebe;}.cls-4{fill:#f49b1d;}.cls-5{fill:#f1800e;}.cls-6{fill:#f0d36b;}.cls-7{fill:#e6d78f;}.cls-8{fill:#d4d5a4;}.cls-9{fill:#d9eee6;}.cls-10{fill:#d0e6de;}.cls-11{fill:#feffff;}.cls-12{fill:#fefffe;}.cls-13{fill:#7b9191;}.cls-14{fill:#f7d46e;}.cls-15{fill:#f1d371;}.cls-16{fill:#bad0c9;}.cls-17{fill:#c1d0c8;}.cls-18{fill:#e4d698;}.cls-19{fill:#d6d6ab;}.cls-20{fill:#e1d79d;}.cls-21{fill:#8eacfb;}.cls-22{fill:#7f5546;}.cls-23{fill:#734e3f;}.cls-24{fill:#734f40;}.cls-25{fill:#785245;}.cls-26{fill:#7b4727;}</style></defs><g id="Calque_2" data-name="Calque 2"><g id="OBJECTS"><rect class="cls-1" x="2.64" width="175.83" height="181.36" rx="68.69"/><path class="cls-2" d="M142.15,123.42l-.74.51a1,1,0,0,0-.39.36,53.12,53.12,0,0,1-9.59,7.36,66.2,66.2,0,0,1-18.84,7.29,6.56,6.56,0,0,1-1.18.11,2.21,2.21,0,0,1,.2-2.27c3.85-7.7,3.36-15.66,1.44-23.7a43.22,43.22,0,0,0-3.49-9.4c3.19,5.9,3.39,12.1,1.46,18.54-1.42,4.77-2.74,9.57-4.1,14.35a7.73,7.73,0,0,0-.28,3.34,2.26,2.26,0,0,1-1.18.35c-.13.15-.26.29-.4.43-2.41,1.73-4,4.27-6.09,6.29a32.12,32.12,0,0,1-11.71,7.4A21.74,21.74,0,0,0,85,155.55c-9,2.36-18,2.64-26.57-1.71a4.18,4.18,0,0,0-2.31-.42,2.77,2.77,0,0,1-2.59-.64,4.47,4.47,0,0,1-3.13-1.9,1.92,1.92,0,0,1,.29-2.68,3.1,3.1,0,0,1,.87-.44c.37-.14.76-.21,1.15-.32s.48-.37.38-.75c-.2-.76-.42-1.53-.56-2.3a3.43,3.43,0,0,1,2.61-4.07.94.94,0,0,1,1.27.64,9.45,9.45,0,0,0,1.58,2.95c2.1,1.58,4.29,2.86,7.09,2.26A16.3,16.3,0,0,0,74.42,141a14.62,14.62,0,0,1,1.54-1.4A31.41,31.41,0,0,0,79,128c.27-4-.56-7.82-1-11.71a27.35,27.35,0,0,1,1-11.83,15.66,15.66,0,0,1,6.54-8.32c.39-.25.85-.39,1.09-.83-2.51,0-5.57,1.83-7.61,4.59-4.22,5.74-5.24,12.27-4.57,19.15.22,2.32.21,4.64.47,7,.24,2-1,2.7-3.21,1.81a53,53,0,0,1-14.15-8.11C50.64,114.07,46,107,44.4,98.18c-1.54-8.57.34-16.68,3.83-24.46,4.6-10.26,11.86-18.39,20.64-25.25,4.41-3.44,8.85-6.82,13.4-10.06a.92.92,0,0,0,.3-.51,9.29,9.29,0,0,1,2.88-.71c1-.23,2.1-.32,3.15-.48.54-.08.68-.41.31-.8a14.56,14.56,0,0,1-2.55-3.54c-.34-.68-.21-1,.47-1.15a3.86,3.86,0,0,1,3.06.5c.41.28.79.74,1.48.6.14-1.5.3-3,.41-4.52a6.42,6.42,0,0,1,.48-2.13,4.07,4.07,0,0,1,.63-1,1.59,1.59,0,0,1,2.78.28,4.06,4.06,0,0,1,.55,1.69,21.16,21.16,0,0,1,.35,4,2.88,2.88,0,0,0,0,.59.35.35,0,0,0,.57.26c.45-.4.85-.84,1.31-1.23a7.66,7.66,0,0,1,1.42-1.07,1.23,1.23,0,0,1,1.95,1.11,3.94,3.94,0,0,1-.71,2.45c-.71,1-1.44,2.07-2.16,3.11a5.84,5.84,0,0,0-.41.68.42.42,0,0,0,.24.64,5.6,5.6,0,0,0,1.15.32,72,72,0,0,1,20.54,6.82c.24.12.47.25.72.36.84.38,1,.35,1.52-.32.33-.42.55-.92,1.05-1.18.41,3.25,3.33,3.89,5.51,5.31a58.43,58.43,0,0,1,16.93,18.1c.2.34.53.59.73.94a51,51,0,0,1,7.76,24.17,43.54,43.54,0,0,1-6.27,26.44,4.88,4.88,0,0,1-1.66,1.94,1.47,1.47,0,0,1-.58.12,1.13,1.13,0,0,1-.5-.19c-.14-.12.07-.25,0-.31s-.16,0-.16.16C144.84,121.41,144,122.91,142.15,123.42Z"/><path class="cls-3" d="M82.57,37.9c.34.1.69.24.38.66a5.11,5.11,0,0,1-1,1c-1.74,1.33-3.52,2.62-5.26,4-2.16,1.65-4.27,3.38-6.46,5s-4.4,3.64-6.57,5.5a24.35,24.35,0,0,0-4.41,4.6,3.32,3.32,0,0,1-.38.46,47.71,47.71,0,0,0-7.19,9.77,47.45,47.45,0,0,0-5.16,11.86,53.31,53.31,0,0,0-1.31,5.83,30.48,30.48,0,0,0-.57,7.13c.58,6.69,2.43,12.92,6.63,18.3,1,1.25,2,2.49,3,3.73a5.87,5.87,0,0,0,.69.72,58.14,58.14,0,0,0,10.85,7.74c1.71.89,3.48,1.64,5.2,2.51a15.35,15.35,0,0,0,2.44.87c.46.14.74-.12.75-.64a3.63,3.63,0,0,0,0-1.19,15.33,15.33,0,0,1-.33-4.16,5.32,5.32,0,0,0-.07-1.39,18,18,0,0,1-.32-4.57,28.2,28.2,0,0,1,1.26-9,20.54,20.54,0,0,1,5.75-9.43A14,14,0,0,1,86.82,94a2.32,2.32,0,0,1,1,0,.73.73,0,0,1,.41,1.24,4.52,4.52,0,0,1-1.55,1.22,13.91,13.91,0,0,0-6.93,8.39,23.63,23.63,0,0,0-.81,11.42c.22,1.31.24,2.64.41,4a43.15,43.15,0,0,1,.53,6.74,29.47,29.47,0,0,1-.85,6.5c-.46,1.81-1,3.58-1.58,5.36-.2.65-.42,1.28-1.23,1.4-1.37-.23-2.76-.34-4.12-.62-2.45-.51-4.8-1.36-7.18-2.08a9,9,0,0,1-2.66-1.62c-2.38-1.15-4.78-2.24-7.13-3.45a46,46,0,0,1-8.92-5.85c-.55-.47-1-1-1.57-1.5-.82-.36-1.22-1.15-1.78-1.77-.2-.18.12,0-.11-.16,0,.06.08.11.11.17.5.68,1.21,1.22,1.33,2.13,1,1.88.41,3.42-1,4.89a15.25,15.25,0,0,1-8.92,4.89,16.27,16.27,0,0,1-5.74-.35,17.7,17.7,0,0,1-8.49-4.18A49.72,49.72,0,0,1,6.35,110.68,75.37,75.37,0,0,1,1.79,92.94,53.63,53.63,0,0,1,1.15,84a80.35,80.35,0,0,1,4-23.72A42.33,42.33,0,0,1,17.05,42.6c1.09,1.18.26,2.25-.21,3.3a113.28,113.28,0,0,0-7.3,20.41c-3,12.75-1.42,25,3.58,37,2,4.9,5.09,9.14,8.22,13.35a5.45,5.45,0,0,0,2.36,1.77c1.83,1.35,3.15,3.23,4.84,4.73,2.79,2.48,6.14,3.2,8.78,1.82,2.07-1.1,2.44-2.09,1.41-4.2-1.27-2.57-2.77-5-4-7.62A36.57,36.57,0,0,1,31,99.37a6.59,6.59,0,0,0-.32-2.75,4.66,4.66,0,0,1,.08-2c.79-2.61.37-5.4,1.22-8a5.69,5.69,0,0,0,.47-2.12,65.55,65.55,0,0,1,6-15.78c1-1.37,1.83-2.87,2.75-4.29l.11-.26.16-.24c3.52-4.44,7.06-8.87,11.61-12.35A11.31,11.31,0,0,0,54.64,50a2,2,0,0,1,.45-.31,23,23,0,0,0,3.32-2.29,2.3,2.3,0,0,1,.41-.35c.3-.2.62-.36.93-.56a2.42,2.42,0,0,1,2.08-.55,1.39,1.39,0,0,1,.35,0,3.28,3.28,0,0,0,.44-.32,65.57,65.57,0,0,1,19-7.57C81.9,37.94,82.24,37.94,82.57,37.9Z"/><path class="cls-4" d="M125,141.05a20.83,20.83,0,0,1,2.31,3.7,65.14,65.14,0,0,1,6.09,12.95l2.5,7.14a57.74,57.74,0,0,1,2.73,11.8,17.63,17.63,0,0,0,.34,1.76c.23,1,.2,1.37-1.08,1.69q-2.9.75-5.82,1.31a21,21,0,0,1-4.29.81,3,3,0,0,1-.83-2.16,25.3,25.3,0,0,0-5.61-12.17c-.56.33-.41,1-.87,1.3-.94,1.14-2.33,1.22-3.61,1.46a137,137,0,0,1-14.42,1.73c-3.73.29-7.44.37-11.16.29a104.39,104.39,0,0,1-23.68-2.83c-.94-.24-2.06-.85-2.8.12a7.94,7.94,0,0,0-1.61,4c-.08.82.81.92,1.45,1.1A89.39,89.39,0,0,0,75.43,177a114.2,114.2,0,0,0,22.47,1.15,117.63,117.63,0,0,0,20.55-2.35,4.66,4.66,0,0,0,3.49-2.3.77.77,0,0,1,1.19.6c.33,2.94,1.77,5.64,1.92,8.62a6.68,6.68,0,0,1-2.72.48c-2.76.42-5.54.73-8.31,1.06-1.38.17-2.78.31-4.15.48-1.6.21-3.2.17-4.78.37a89.3,89.3,0,0,1-14.16.25c-3.12-.11-6.25-.21-9.37-.39s-6.24-.42-9.34-.77-5.93-.77-8.88-1.28c-3.21-.55-6.4-1.23-9.6-1.85a2,2,0,0,1-1.1-.42,2.46,2.46,0,0,1-.51-2.59,182.13,182.13,0,0,1,5.53-19.33c.72-2.07,1.65-2.4,3.69-1.21a25,25,0,0,0,12.57,3.33,34,34,0,0,0,14.47-3.25c5.32-2.45,10.08-5.64,13.52-10.53a4,4,0,0,1,3.06-1.62,62.77,62.77,0,0,0,17.18-4.08C123.06,141,124,140.48,125,141.05Z"/><path class="cls-2" d="M141.33,33.91a3.5,3.5,0,0,1,1.93-.36,37,37,0,0,1,7.36.42,29.13,29.13,0,0,1,17.89,10,81.52,81.52,0,0,1,5.13,6.6,47.89,47.89,0,0,1,7.3,17.56c.56,2.73,1.13,5.47,1.45,8.24a27.43,27.43,0,0,1,.5,6.34c-.35.6-.62-.93-.82-.09-1.2,5.2-3.29,10.09-5.27,15a45.28,45.28,0,0,1-8.88,14.1,16.24,16.24,0,0,1-2.55,2.22c-.55.39-1.22,1-1.89.1a3.36,3.36,0,0,1,.56-2.65c3.63-7.07,4.64-14.72,5.33-22.5a74.91,74.91,0,0,0-.43-13.06c.42-2.94-.78-5.6-1.59-8.3a42.06,42.06,0,0,0-10.22-18c-5-5.09-11.11-6.64-18.06-5.32-1.59.3-3.1,1.3-4.83.76-.89-1.19.06-2,.72-2.72a35.23,35.23,0,0,1,9.27-7.44C143.21,34.61,142,35,141.33,33.91Z"/><path class="cls-2" d="M61.83,45.94a7.48,7.48,0,0,1-2,1.2,1.72,1.72,0,0,0-.82.41h0c-1.37.56-2.26,2-3.88,2.11-2.07-1.77-4.07-3.56-6.7-4.55-6.4-2.39-12.34-1.54-18.06,2-4.84,3-7.73,7.58-10.12,12.52A58.12,58.12,0,0,0,15,80.76a50.21,50.21,0,0,0,.38,12.67,58.28,58.28,0,0,0,7.56,22.92c.47.83,1.27,1.62.55,2.71a7,7,0,0,1-3.06-2.48,61.66,61.66,0,0,1-3.78-4.88,57.9,57.9,0,0,1-5.72-11.6A70,70,0,0,1,7.56,86.58a6.74,6.74,0,0,1-.08-1.19c0-1.07-.19-2.12-.28-3.17a28.37,28.37,0,0,1,0-6c.23-1.71.37-3.43.6-5.14a75.35,75.35,0,0,1,2-8.94,93,93,0,0,1,5-13.65c.59-1.34,1.19-2.68,1.81-4a3.76,3.76,0,0,0,.47-1.91,24.76,24.76,0,0,1,6.15-4.72,31,31,0,0,1,11.8-4,35.79,35.79,0,0,1,7.16-.26,23.79,23.79,0,0,1,14.12,5.31,26.57,26.57,0,0,1,5,5.37A2.62,2.62,0,0,1,61.83,45.94Z"/><path class="cls-3" d="M163.71,114.25a25.24,25.24,0,0,0,4.1-3.71c1.17-1.44,2.43-2.81,3.48-4.35a52.84,52.84,0,0,0,5.26-10c1.85-4.63,3.47-9.34,5.08-14.06.19-.55.39-1.1.67-1.91.43,1,0,1.87.59,2.51A59.73,59.73,0,0,1,180.25,103a71.48,71.48,0,0,1-4.9,12.2,51.41,51.41,0,0,1-6.81,9.82,45.32,45.32,0,0,1-7.71,7.2,16.43,16.43,0,0,1-9.65,3.32,12.07,12.07,0,0,1-8.07-2.93,18.32,18.32,0,0,1-2-1.95,3.27,3.27,0,0,1-.49-4.06c.34-.64.78-1.23,1.18-1.85a2.1,2.1,0,0,1,.37-.42h0a3.52,3.52,0,0,0,.36-.41h0a4.92,4.92,0,0,1,2.13-2.5.79.79,0,0,1,.64.5,4.75,4.75,0,0,0,5.81,4.2,10.66,10.66,0,0,0,6.2-4,51.8,51.8,0,0,0,4.36-6.15C162.16,115.13,162.52,114.15,163.71,114.25Z"/><path class="cls-5" d="M125,141.05a51.56,51.56,0,0,1-12.29,4c-2.08.4-4.18.77-6.27,1.11a9.72,9.72,0,0,1-1.79.08,2.09,2.09,0,0,0-2,1.1,21,21,0,0,1-2.89,3.55A31.72,31.72,0,0,1,92,156.74a38.54,38.54,0,0,1-10.39,4,20.35,20.35,0,0,1-4.92.69,6.44,6.44,0,0,0-1.58.18,4,4,0,0,1-2.16,0,4.67,4.67,0,0,0-1.18-.17A22.88,22.88,0,0,1,61,158.24c-.41-.24-.81-.46-1.22-.68-.58-.3-.9-.2-1.07.36-.6,1.91-1.21,3.81-1.79,5.71-1.49,4.9-2.86,9.83-4,14.82a8.91,8.91,0,0,0-.24,2.17,21.58,21.58,0,0,1-4.84-1c-2.19-.5-2.3-.65-1.78-2.77.77-3.15,1.58-6.3,2.47-9.42,1.28-4.45,2.7-8.86,4.36-13.2.19-.49.42-1,.63-1.45a13,13,0,0,0,2.17-.24,3.9,3.9,0,0,1,3.06.44,26.79,26.79,0,0,0,9.21,3.07c.33,0,.66.12,1,.14a47.45,47.45,0,0,0,15.61-1.35,2.32,2.32,0,0,0,.36-.16,31.15,31.15,0,0,0,17.79-12,7.18,7.18,0,0,1,2.32-2.43h.47a.82.82,0,0,0,1,.51c1.17-.22,2.36-.38,3.52-.65,3.87-.92,7.79-1.59,11.6-2.75a1.36,1.36,0,0,1,1.71.58A12.35,12.35,0,0,1,125,141.05Z"/><path class="cls-3" d="M106.64,139.91c-1.24-.39-1.35-.47-1.09-1.43.67-2.5,1.35-5,2.09-7.48.53-1.78,1.09-3.54,1.45-5.37a32.16,32.16,0,0,1,1.35-4.59,20.48,20.48,0,0,0,.9-8.85,18.17,18.17,0,0,0-1.74-6.71,25.26,25.26,0,0,0-1.61-3.41,1.39,1.39,0,0,1-.08-.77.41.41,0,0,1,.21-.3.38.38,0,0,1,.36,0,2.65,2.65,0,0,1,.55.56,30.76,30.76,0,0,1,3.13,6,37.62,37.62,0,0,1,2.73,10.56,32.45,32.45,0,0,1,.51,6.53,42.74,42.74,0,0,1-1.54,9.2,15.34,15.34,0,0,1-.76,1.83c-.55,1.14-1.13,2.26-1.69,3.39a.84.84,0,0,1-.35.07c-.26.15-.58.1-.82.27l-1.19.13c-.25.14-.55.11-.8.24Z"/><path class="cls-3" d="M141.33,33.91l4.38.06c.19,0,.42.06.42.32a.45.45,0,0,1-.19.32c-.6.4-1.21.81-1.84,1.17a38.1,38.1,0,0,0-9.41,7.88,1.92,1.92,0,0,0-.51,1.06c-1.16,2.08-3.15,3.09-5.21,4-.26,0-.58.18-.75.08-1.52-.91-3-1.85-4.51-2.83a1,1,0,0,1-.43-1.36c.16-.5.34-1,.51-1.48a23.44,23.44,0,0,1,12.49-8.3A17,17,0,0,1,141.33,33.91Z"/><path class="cls-5" d="M75.14,141.4a3.57,3.57,0,0,1-1.1,1.39,19.68,19.68,0,0,1-7.73,4,14,14,0,0,1-3.35.35A6.73,6.73,0,0,1,58,144.86c-.26-.25-.13-.62-.1-1a3.7,3.7,0,0,0,.88-1.29,33.6,33.6,0,0,1,3.83-6c.66-.5,1.08.17,1.58.35,2.64,1,5.38,1.51,8.08,2.24C73.39,139.79,75.46,139,75.14,141.4Z"/><path class="cls-5" d="M125.05,182.69a1.85,1.85,0,0,1-.85-1.05c-.51-1.7-1-3.4-1.51-5.11a6.29,6.29,0,0,1-.09-1.57,2.58,2.58,0,0,0-.3-1.52,4.24,4.24,0,0,1-1.71-4.82,1.42,1.42,0,0,0-.08-.18,4.38,4.38,0,0,1-.41-2.28c1.06-.13,1.43.81,2,1.38a23.2,23.2,0,0,1,4,6.4c.3.66.56,1.35.82,2a14.43,14.43,0,0,1,1,6.24A8.82,8.82,0,0,1,125.05,182.69Z"/><path class="cls-6" d="M72.23,139.39c-1.92-.42-3.84-.83-5.75-1.27a19.51,19.51,0,0,1-3.83-1.46c-.14-.25-.27-.5-.41-.74,1,.34,2,.71,3,1,2.33.71,4.67,1.4,7,2.1C72.5,139.15,72.5,139.27,72.23,139.39Z"/><path class="cls-7" d="M144.63,121.51l-2.08,2.34c-.13-.15-.27-.29-.4-.43.85-1,1.85-2,2.61-3.08a4.31,4.31,0,0,1,1-.86h0l0,.41C146.17,121,145.32,121.18,144.63,121.51Z"/><path class="cls-8" d="M44.17,125.49a4.72,4.72,0,0,1-1.51-2.42h0a5.39,5.39,0,0,1,2,2Z"/><path class="cls-2" d="M110.24,139.39a1,1,0,0,1,.82-.27A1,1,0,0,1,110.24,139.39Z"/><path class="cls-2" d="M108.25,139.76a1,1,0,0,1,.8-.24A.91.91,0,0,1,108.25,139.76Z"/><path class="cls-7" d="M142.55,123.86l-.36.41Z"/><path class="cls-7" d="M141,124.29l.39-.36Z"/><path class="cls-2" d="M62.62,45.58l-.44.32Z"/><path class="cls-7" d="M142.18,124.28l-.37.42Z"/><path class="cls-9" d="M163.71,114.25c-.44.66-.91,1.31-1.31,2a48,48,0,0,1-4.61,6.52,14.06,14.06,0,0,1-3.83,3.16,6.93,6.93,0,0,1-6.87.22,11.24,11.24,0,0,1-1.23-.67,2.18,2.18,0,0,1-1.16-2.86,5.66,5.66,0,0,1,.29-.74,4.27,4.27,0,0,1,1.23-2,41.83,41.83,0,0,0,7.24-17.29c.3-1.9.3-3.82.61-5.72a10.63,10.63,0,0,0-.12-4,10.31,10.31,0,0,1-.15-1.58,46.12,46.12,0,0,0-3.58-15.82,65.63,65.63,0,0,0-3.68-7.06,9.1,9.1,0,0,1-.4-.9,2,2,0,0,1,.67-2.3,12.79,12.79,0,0,1,19.25,1.36c2,2.68,2.77,5.8,3.68,8.91a18.92,18.92,0,0,1,.45,4.74,15.26,15.26,0,0,0,.22,2.78,10.76,10.76,0,0,1,0,3.58,23.79,23.79,0,0,0-.26,3.37,55.23,55.23,0,0,1-.84,6.91,48.17,48.17,0,0,1-2.06,9.12,52.73,52.73,0,0,1-2.41,5.69C164.44,112.54,164.09,113.4,163.71,114.25Z"/><path class="cls-10" d="M169.74,75.52a10.87,10.87,0,0,1-1.56-3.41,18.48,18.48,0,0,0-3.2-5.47,11.64,11.64,0,0,0-16-2c-.54.39-1.07.78-1.59,1.2a2.77,2.77,0,0,0-1.22,1.74c-1.71-2.35-3.21-4.85-5.08-7.09-.51-.61-1-1.22-1.55-1.8a15.06,15.06,0,0,1-1.83-2.08,2.15,2.15,0,0,0-.52-.6c-2.21-1.59-3.85-3.81-6.07-5.39a5.83,5.83,0,0,0-1.37-.78,1.22,1.22,0,0,1-.75-1.08A9.05,9.05,0,0,1,132,46c.74-.4,1.46-.86,2.19-1.29l3.42-1a51.75,51.75,0,0,1,5.1-.88,4,4,0,0,1,1.2,0A24.9,24.9,0,0,1,152.55,45a15.69,15.69,0,0,1,3.65,2.43,38.39,38.39,0,0,1,6.94,8.44,51.05,51.05,0,0,1,4.48,9.56,36.16,36.16,0,0,1,1.73,7A10.23,10.23,0,0,1,169.74,75.52Z"/><path class="cls-11" d="M128.93,111.12a10.88,10.88,0,0,1-.71-21.74c3.76,0,6.8,1.56,9.56,3.9a1.22,1.22,0,0,1,.53,1.39,1.89,1.89,0,0,0,.25,1.52,13,13,0,0,1,.81,2c1,4-.32,7.35-3.18,10.12A9.93,9.93,0,0,1,128.93,111.12Z"/><path class="cls-12" d="M47.75,100.08c-.19-4.81,3.69-9.42,8.24-10.53a10.28,10.28,0,0,1,9.19,2,11.54,11.54,0,0,1,4.41,7.35,8.46,8.46,0,0,1-.19,3.75,11,11,0,0,1-21.65-2.57Z"/><path class="cls-9" d="M89.65,98c-.08.18-.14.36-.23.53a29.52,29.52,0,0,0-3.3,8.31,21.47,21.47,0,0,0-.44,7.3c.45,3.21.93,6.43,1.24,9.66a17.94,17.94,0,0,1-.15,5.17c-.22,1.1-.26,2.23-.54,3.34a13.36,13.36,0,0,1-2.07,4.5,5.73,5.73,0,0,1-1.67,1.69c-.89.54-1.62,1.39-2.73,1.54-.29-1.26.63-2.09,1.19-3a16.7,16.7,0,0,0,2.46-8.71,39.66,39.66,0,0,0-.67-7.92,38.14,38.14,0,0,1-.48-9.53,18.3,18.3,0,0,1,6-12.43,5.44,5.44,0,0,1,1-.63C89.36,97.79,89.51,97.91,89.65,98Z"/><path class="cls-13" d="M53.66,81.51a16.52,16.52,0,0,1-2,0A3.14,3.14,0,0,1,49,76.72a6.6,6.6,0,0,1,2.13-2.58A15.79,15.79,0,0,1,62,71.07a1.65,1.65,0,0,1,1.22.56c.3.36.65.66,1,1a2.56,2.56,0,0,1,.59,2.93,6.33,6.33,0,0,1-2.29,2.94A14.08,14.08,0,0,1,53.66,81.51Z"/><path class="cls-13" d="M133.54,81.59A15,15,0,0,1,123.45,77a5.13,5.13,0,0,1-.74-.93,2.8,2.8,0,0,1,1.22-4.19,6,6,0,0,1,3.27-.71,15.51,15.51,0,0,1,8.21,2.73,9.93,9.93,0,0,1,3.16,3.53c.67,1.35.51,2-.7,2.91A6.29,6.29,0,0,1,133.54,81.59Z"/><path class="cls-14" d="M105,140.26c-.54.76-1.09,1.51-1.61,2.28a29.39,29.39,0,0,1-16.92,11.94,9.11,9.11,0,0,1-1.57.2,4.38,4.38,0,0,1,1.62-.72A31.37,31.37,0,0,0,99,146.1c1.59-1.6,3-3.35,4.49-5C103.91,140.58,104.29,140.16,105,140.26Z"/><path class="cls-15" d="M72.23,139.39V139c1.14.17,2.27.33,3.4.51.36.06.5.37.57.69l-1.06,1.16a1.65,1.65,0,0,0-1.27-1.49Z"/><path class="cls-16" d="M146.22,119.89a4.91,4.91,0,0,1-1.23,2l-.36-.38,1.18-1.62Z"/><polygon class="cls-7" points="145.78 119.48 145.88 119.38 145.77 119.47 145.78 119.48"/><path class="cls-9" d="M23.49,119.06a6.6,6.6,0,0,0-.39-.9,55.25,55.25,0,0,1-7.38-17.77,33.21,33.21,0,0,1-1.07-6.87,14.39,14.39,0,0,1,.56-7.06c2-6.92,4.75-13.55,9.6-19.08a19.13,19.13,0,0,1,14.6-6.64,4.72,4.72,0,0,1,3.18.94,1.06,1.06,0,0,1,.24.58,2,2,0,0,1-.22.59,4.84,4.84,0,0,1-.71,1A54,54,0,0,0,32,87.42a32.87,32.87,0,0,0-.56,7.29l0,2c.45.9-.09,1.92.34,2.83a34.38,34.38,0,0,0,2.41,10.24,57.87,57.87,0,0,0,4.31,8.76c.47.8.91,1.63,1.3,2.47.86,1.87.6,2.94-1.1,4.12a6.77,6.77,0,0,1-5.83,1.25,11.33,11.33,0,0,1-5-2.67,31.13,31.13,0,0,1-3.68-3.93A7.67,7.67,0,0,0,23.49,119.06Z"/><path class="cls-10" d="M42.64,62.3a8.55,8.55,0,0,0-5.23-.57c-1.1.25-2.23.37-3.32.63a15.05,15.05,0,0,0-6,3.09,29.26,29.26,0,0,0-7.22,9.12,74.3,74.3,0,0,0-5.83,15.2,13.59,13.59,0,0,0-.43,3.75,2.88,2.88,0,0,1-.38-1.92c0-1.46-.13-2.91-.29-4.37a18.7,18.7,0,0,1,.14-6,6.66,6.66,0,0,0,.13-1.18A56.54,56.54,0,0,1,18,62.6a42.16,42.16,0,0,1,6.08-11,21.41,21.41,0,0,1,7-5.9A19.8,19.8,0,0,1,37,43.37c1.38-.22,2.76-.41,4.14-.6a11.54,11.54,0,0,1,3.36.4,18.57,18.57,0,0,1,8.12,3.14A7.42,7.42,0,0,1,55.5,49.5a.58.58,0,0,1-.08.8l-.35.08c-3.61,2.52-6.5,5.81-9.48,9C44.65,60.39,44.09,61.81,42.64,62.3Z"/><path class="cls-17" d="M31.44,94.71c-.59-1.07-.32-2.2-.24-3.31,0-.59.2-1.18.22-1.77a39.54,39.54,0,0,1,1.89-10.34,44,44,0,0,1,2.37-6.12,56.87,56.87,0,0,1,5.87-9.45,1.83,1.83,0,0,1,.31-.24.61.61,0,0,1,0,.86v0a.28.28,0,0,0-.12.27c0,.09.06.14.1.14-.69,1.1-1.36,2.21-2.07,3.3a5.35,5.35,0,0,1-.66.69,50.07,50.07,0,0,0-6,15.63,7.5,7.5,0,0,1-.35,2.15,24.71,24.71,0,0,0-.86,6.29A3.68,3.68,0,0,1,31.44,94.71Z"/><path class="cls-18" d="M41.85,64.34c0-.29,0-.58,0-.86l.39-.73c.13-.14.26-.28.38-.43v0A125.71,125.71,0,0,1,52.88,51.51c.61-.61,1.19-1.28,2.19-1.13A10,10,0,0,1,53,52.49a54.53,54.53,0,0,0-6.89,6.87C44.68,61,43.26,62.68,41.85,64.34Z"/><path class="cls-19" d="M33.06,84.34A8.5,8.5,0,0,1,33.34,82a54.43,54.43,0,0,1,4.83-12.3,2,2,0,0,1,.93-1A9.57,9.57,0,0,1,38.6,70a59.38,59.38,0,0,0-5.14,13.45A6.39,6.39,0,0,1,33.06,84.34Z"/><path class="cls-20" d="M55.42,50.3c0-.26,0-.53.08-.8l1.78-1.19a3.53,3.53,0,0,1,1.77-.77A14.83,14.83,0,0,1,55.42,50.3Z"/><path class="cls-17" d="M31.82,99.53a4.91,4.91,0,0,1-.34-2.83C32.1,97.58,31.8,98.58,31.82,99.53Z"/><path class="cls-20" d="M59,47.55c.17-.35.32-.73.82-.41A1,1,0,0,1,59,47.55Z"/><polygon class="cls-8" points="42.66 123.07 42.55 122.97 42.65 123.08 42.66 123.07"/><path class="cls-18" d="M41.84,64.72a1.08,1.08,0,0,1-.09-.29s.07-.08.11-.12Z"/><path class="cls-21" d="M120.59,168.62a12.94,12.94,0,0,1,1,2.77c.25.67.46,1.36.7,2.05,0,.13,0,.26,0,.4,0,1.78-.23,2-2,2.4a85.17,85.17,0,0,1-13.19,2.07c-3.65.27-7.28.69-11,.76a131.93,131.93,0,0,1-16.74-.75c-4.69-.51-9.37-1.13-14-2.09-1-.22-2.06-.52-3.08-.8a.75.75,0,0,1-.56-.92,2.27,2.27,0,0,1,.19-1c1-1.31,1.28-2.91,1.94-4.35.09-.18.17-.36.25-.55a.69.69,0,0,1,.81-.42,5.36,5.36,0,0,1,1,.23,81.14,81.14,0,0,0,14.5,2.65,127.42,127.42,0,0,0,17.14.67,114.35,114.35,0,0,0,12.53-1c2-.27,3.94-.58,5.92-.86A15.66,15.66,0,0,0,120.59,168.62Z"/><path class="cls-22" d="M123,92.7a2.7,2.7,0,0,1,2.77-1.09,5.47,5.47,0,0,0,1.38-.13,8.65,8.65,0,0,1,6.55,2.35,6.2,6.2,0,0,1,1.7,2.41c.5,1.23.51,1.24-.88,1.67a4,4,0,0,0-2,1.28,1.69,1.69,0,0,0,.69,2.77,5.61,5.61,0,0,0,1.95.35c.61,0,.68.2.47,1,0,.12-.15.21-.23.31a6.72,6.72,0,0,0-2.49.62c-3,1-5.78.69-8.17-1.46s-3.08-5.11-2.24-8.33A4.85,4.85,0,0,0,123,92.7Z"/><path class="cls-23" d="M123,92.7c.33.11.65.25.57.68-.13.78-.28,1.56-.45,2.33a6.92,6.92,0,0,0,8.71,7.94c.77-.2,1.49-.57,2.24-.83a.91.91,0,0,1,.94.1,2.9,2.9,0,0,1,.42.65,5.18,5.18,0,0,1-1.72,2.85,8.89,8.89,0,0,1-13.07-1.11,8.36,8.36,0,0,1-.54-9.4A7.94,7.94,0,0,1,123,92.7Z"/><path class="cls-22" d="M55.4,100.28l-.51-1.49c-.88-2.06-.26-4.07.21-6.08a7.47,7.47,0,0,1,7.15-1,8.57,8.57,0,0,1,5.83,10.74c0,.12-.15.22-.22.33-2.31,1.33-4.67,2.33-7.45,1.94S55.72,102.72,55.4,100.28Z"/><path class="cls-24" d="M55.4,100.28a14.14,14.14,0,0,1,1,1.22,5.39,5.39,0,0,0,4.33,2.39,8.33,8.33,0,0,0,6.3-1.76c.58-.48.62-.45.85.6A6.16,6.16,0,0,1,66.13,106a9.58,9.58,0,0,1-6.72,3c-.26,0-.61,0-.76-.11-.73-.69-1.72-.67-2.57-1a7.59,7.59,0,0,1-4.73-5.16C53.12,102.53,54.69,102.05,55.4,100.28Z"/><path class="cls-25" d="M55.1,92.71c.26.08.55.21.54.5a17.75,17.75,0,0,1-.23,2.17,7.61,7.61,0,0,0-.2,2.93c0,.13-.21.32-.32.48l-.3-.24a.37.37,0,0,1-.28-.22,8.54,8.54,0,0,0-2.69-.55C51.85,96,52.8,94.6,55.1,92.71Z"/><path class="cls-22" d="M54.31,98.33a.48.48,0,0,1,.28.22A.23.23,0,0,1,54.31,98.33Z"/><path class="cls-10" d="M42.63,62.32l-.38.43Z"/><path class="cls-26" d="M181.34,64a51.76,51.76,0,0,0-9.28-18.2,36.22,36.22,0,0,0-13.17-10.47,32.74,32.74,0,0,0-19.32-2.48,28.22,28.22,0,0,0-9.72,3.46A17.45,17.45,0,0,0,123,43.16a3.17,3.17,0,0,1-.42.51c-1.81-.86-3.58-1.75-5.39-2.54s-3.55-1.51-5.37-2.14-3.79-1.25-5.72-1.76-3.85-.85-5.91-1.3c.57-.72,1-1.28,1.46-1.87a7.26,7.26,0,0,0,1.41-3.27c.14-1.24.1-2.46-1.15-3.15s-2.17-.18-3.15.51c-.35.25-.54.83-1.11.62-.08-1-.12-2-.23-3a4.46,4.46,0,0,0-1-2.36A2.63,2.63,0,0,0,92.54,23,4.89,4.89,0,0,0,91,25.28a9.92,9.92,0,0,0-.5,4.12,6.08,6.08,0,0,1,0,.87,15.48,15.48,0,0,0-2.77-.74,2.3,2.3,0,0,0-2.3,3.58A11.77,11.77,0,0,0,86.84,35c.2.24.58.38.34.85a68.85,68.85,0,0,0-25.32,8.55c-.46-.84-.84-1.6-1.29-2.32a18.07,18.07,0,0,0-6.8-6,29.69,29.69,0,0,0-13.18-3.55A32.57,32.57,0,0,0,18,40,44.25,44.25,0,0,0,6.29,55.2,65.31,65.31,0,0,0,.34,77.46,69.64,69.64,0,0,0,1.49,98.72,60.77,60.77,0,0,0,13,123.9a45.89,45.89,0,0,0,7.67,7.84,23.84,23.84,0,0,0,6,3.56,14.87,14.87,0,0,0,8.41,1A12.61,12.61,0,0,0,45,128.55a5.84,5.84,0,0,1,.36-.56,58,58,0,0,0,16,9.16c-1.18,1.63-2.27,3.13-3.37,4.63,0,0-.12,0-.27.06-.17-.38-.34-.78-.54-1.16a2.55,2.55,0,0,0-2.69-1.32,3,3,0,0,0-2.24,1.49,4.43,4.43,0,0,0-.59,3.45c.19.76.49,1.49.77,2.35a12.72,12.72,0,0,0-1.47.5,2.62,2.62,0,0,0-1.39,3.65,5.64,5.64,0,0,0,1.23,1.53,9.91,9.91,0,0,0,1.37.93c-.14.39-.26.77-.41,1.13a123,123,0,0,0-5.66,16.81q-.73,2.81-1.29,5.64a4.39,4.39,0,0,0,0,2.86c.81.31,1.66.67,2.54,1a97.2,97.2,0,0,0,16.36,3.56c4.41.64,8.86,1,13.31,1.33,7,.53,14.1.76,21.16.77a157.93,157.93,0,0,0,30.37-2.91,44.8,44.8,0,0,0,8.45-2.32c.68-.27,1.35-.58,2-.89a1.73,1.73,0,0,0,1.08-2.1c-.19-.91-.31-1.84-.52-2.75a122.13,122.13,0,0,0-7.33-22.54A69.55,69.55,0,0,0,124,138a2.1,2.1,0,0,1-.23-.56c2.66-1.26,5.35-2.38,7.9-3.77s5.08-3.13,7.61-4.71a24.32,24.32,0,0,0,1.74,2.58c3.79,4.43,8.62,5.78,14.22,4.49a22.11,22.11,0,0,0,9.2-5,49.87,49.87,0,0,0,9.44-10.79A63.19,63.19,0,0,0,184.1,88.52,71.4,71.4,0,0,0,181.34,64ZM41.43,131.13A12.55,12.55,0,0,1,28.65,134a19.54,19.54,0,0,1-6-3.11,41.36,41.36,0,0,1-7.44-7.22A59.58,59.58,0,0,1,3.07,97.74,68,68,0,0,1,1.94,78.86a62.54,62.54,0,0,1,6.36-24,43,43,0,0,1,9.39-12.56,30.63,30.63,0,0,1,18.05-8.12,31.28,31.28,0,0,1,16,2.52,20.74,20.74,0,0,1,7.92,5.92c.49.62.92,1.28,1.49,2.06l-5.61,3.72-.81-.85a16.17,16.17,0,0,0-8.79-4.8,20.8,20.8,0,0,0-18.79,4.81,29.9,29.9,0,0,0-5.66,6.68,51.73,51.73,0,0,0-7.2,18.9,68,68,0,0,0-.74,16.92,64.56,64.56,0,0,0,6,23.25,39.68,39.68,0,0,0,5.91,9.22A17.59,17.59,0,0,0,29.28,126a9.16,9.16,0,0,0,3.5,1.39,7.43,7.43,0,0,0,7-2.56c.31-.34.54-.73.9-1.22a25.19,25.19,0,0,1,1.87,1.84c.62.59,1.22,1.2,1.83,1.81A13.77,13.77,0,0,1,41.43,131.13ZM30.34,99.27a43.37,43.37,0,0,0,9.05,22.67c.25.31.47.63.77,1-.47.5-.9,1-1.39,1.44a6.56,6.56,0,0,1-7.58,1.17,13,13,0,0,1-3.58-2.51,31,31,0,0,1-5-6.48,56.42,56.42,0,0,1-6-14.74,69.13,69.13,0,0,1-1.91-23.36,52.46,52.46,0,0,1,5.87-20.57,35.27,35.27,0,0,1,5.2-7.54,20.11,20.11,0,0,1,11.57-6.6A20.5,20.5,0,0,1,53,47.08a5.94,5.94,0,0,1,1.93,1.85c-.78.63-1.56,1.23-2.31,1.86A64.07,64.07,0,0,0,32.48,80,44.5,44.5,0,0,0,30.34,99.27Zm32,38.4,12.46,3.24a3.48,3.48,0,0,1-.44.7,16.64,16.64,0,0,1-9,4.87,8.52,8.52,0,0,1-4.34-.2,4,4,0,0,1-2.55-1.95C59.63,142.07,61,139.86,62.3,137.67ZM50.56,150.13a1.32,1.32,0,0,1,.59-1.86,4,4,0,0,1,1.32-.35,16.67,16.67,0,0,1,1.77,0c-.4-1-.69-1.62-1-2.3a5.68,5.68,0,0,1-.26-2.95A2.46,2.46,0,0,1,54,141a1.15,1.15,0,0,1,1.9.58,12,12,0,0,1,.32,1.56,5.73,5.73,0,0,0,4.11,4.7,9.86,9.86,0,0,0,5.33.27A18,18,0,0,0,79.1,137.31,24.14,24.14,0,0,0,81,129a51.61,51.61,0,0,0-.53-10.16c-.3-2.17-.59-4.35-.85-6.53a18.69,18.69,0,0,1,.38-6.15,12.93,12.93,0,0,1,9.63-10.39,17.36,17.36,0,0,1,8.49-.48,13.52,13.52,0,0,1,9.19,6.78,20.87,20.87,0,0,1,2.51,7.32,42.17,42.17,0,0,1-.19,13.91,60.5,60.5,0,0,1-2.18,8.7c-3.73,11.47-11.57,18.7-23,22.21a39.9,39.9,0,0,1-15.2,1.61,20.71,20.71,0,0,1-10.65-3.61,2.65,2.65,0,0,0-2.6-.5,5.61,5.61,0,0,1-3,.17A3.23,3.23,0,0,1,50.56,150.13Zm67.18,33.65a175,175,0,0,1-27.27,1.13c-6.44-.23-12.88-.56-19.3-1.17-3.18-.3-6.33-.78-9.49-1.18a3,3,0,0,1-.64-.26,46.71,46.71,0,0,1,1.26-6.4l3.18.67c.64.16,1.28.34,1.93.49A105.38,105.38,0,0,0,86,179.38a147.14,147.14,0,0,0,19.13-.26,87.15,87.15,0,0,0,16.28-2.7,4.94,4.94,0,0,1,1.16,0h0c.36,1.82.73,3.64,1.08,5.47.06.31.06.63.1,1.07C121.66,183.21,119.71,183.55,117.74,183.78Zm20.86-5a14,14,0,0,1-1.26.7,37.64,37.64,0,0,1-7.63,2.28c-1.42.32-2.85.56-4.37.85a9.65,9.65,0,0,1-.31-1,73.94,73.94,0,0,0-4-13.37,5.21,5.21,0,0,0-1.13-2.07c-.41.9.27,1.59.26,2.37-.71.16-1.42.33-2.14.47a125.57,125.57,0,0,1-12.82,1.68,145.07,145.07,0,0,1-20.32.18c-3.24-.18-6.47-.61-9.7-1-2.18-.26-4.34-.62-6.5-.94l-.45.43a102.11,102.11,0,0,0,18.17,2.41c4.92.28,9.85.28,14.78.07a99.86,99.86,0,0,0,16.43-2c1-.2,2-.3,2.93-.45q.81,3,1.61,5.89h0c-.5.16-1,.34-1.51.47a96.6,96.6,0,0,1-20.08,2.75c-3.65.15-7.3.12-11,.07a121.75,121.75,0,0,1-17-1.5l-6.29-1-3.55-.94c-.05-.23-.1-.42-.15-.61a.85.85,0,0,0-.24.27.85.85,0,0,1,.24-.27l2-6,1.33.32,2.28.48.45-.43a11.21,11.21,0,0,0-1.07-.36c-.85-.19-1.72-.35-2.53-.51-.06-.3-.1-.49-.13-.68a.75.75,0,0,0-.36.55.75.75,0,0,1,.36-.55.93.93,0,0,0,.1-.37h0c.88-1.65.91-1.75.76-2.83a4.93,4.93,0,0,0-1.16,2,45.18,45.18,0,0,0-4.43,12.56c-.22,1-.4,2.09-.62,3.26a42.78,42.78,0,0,1-6.77-1.28,45.92,45.92,0,0,1-6.59-1.93,8.58,8.58,0,0,1,.08-1.36,137.49,137.49,0,0,1,7.35-23.37,4.88,4.88,0,0,1,.29-.51.84.84,0,0,1,.2-.08,8.66,8.66,0,0,1,2.92-.45,9.85,9.85,0,0,1,2.56,1.45A20.32,20.32,0,0,0,66.8,157a42,42,0,0,0,24.5-3.7A32.19,32.19,0,0,0,104,142.66a2.75,2.75,0,0,1,2.12-1.22,86.51,86.51,0,0,0,15.18-3.3l1.06-.32C130.47,150.42,135.44,164.21,138.6,178.82Zm-8.85-46.48a62.13,62.13,0,0,1-16.89,5.91c-2.07.43-4.17.75-6.65,1.2l.74-1.56a53.54,53.54,0,0,0,5.18-23.58,30.85,30.85,0,0,0-1.5-9.23,18.4,18.4,0,0,0-3.53-6.43,15.66,15.66,0,0,0-13.36-5.42,20.54,20.54,0,0,0-6,1.31,14.55,14.55,0,0,0-9.45,10.78,26.32,26.32,0,0,0-.24,9.73c.39,3,.88,5.93,1.21,8.9a25.9,25.9,0,0,1-1,11.06,13,13,0,0,1-1.81,3.8,13.67,13.67,0,0,1-3.72-.56,60.11,60.11,0,0,1-22.52-9.31A40.32,40.32,0,0,1,32.77,101.6a42.69,42.69,0,0,1,2.46-23.34c6.91-17.43,19-29.75,36.52-36.65a61.87,61.87,0,0,1,16.79-4.16c.73-.07,1.45-.21,2.36-.35A8.65,8.65,0,0,0,90.07,36c-.75-.76-1.59-1.43-2.31-2.21a7.21,7.21,0,0,1-1.06-1.66.69.69,0,0,1,.69-.95,3,3,0,0,1,2,.78c.46.37.86.83,1.29,1.25.23.23.43.55.71.67a1.27,1.27,0,0,0,.92,0,.82.82,0,0,0,.33-.65c0-.46-.17-.92-.2-1.38-.1-1.39-.2-2.78-.22-4.17A4.64,4.64,0,0,1,93.08,25c.73-1.09,1.78-1,2.27.14a5.45,5.45,0,0,1,.46,1.93c0,1.39-.08,2.79-.14,4.18a6.09,6.09,0,0,0-.13,1.18,1.2,1.2,0,0,0,.54.73.76.76,0,0,0,.73-.15c.45-.48.82-1,1.23-1.56a7.48,7.48,0,0,1,2.28-2.2.64.64,0,0,1,1,.56,6.44,6.44,0,0,1-.48,2.1,20.23,20.23,0,0,1-1.66,2.48c-.52.69-1.09,1.34-1.61,2a4.58,4.58,0,0,0-.42.86c2.59.49,5.08.86,7.53,1.45a64.19,64.19,0,0,1,28.48,14.56A62.14,62.14,0,0,1,151.58,82a40.81,40.81,0,0,1,1.76,14.4c-.65,10-3.92,19-10.87,26.39A48.59,48.59,0,0,1,129.75,132.34ZM181,98.69a57.52,57.52,0,0,1-15.42,28.82,31.39,31.39,0,0,1-5.08,4.18,19.21,19.21,0,0,1-6.38,2.72A12.7,12.7,0,0,1,140.43,128a1.31,1.31,0,0,1,.19-.35c1.11-1,2.24-2.08,3.41-3.17l1,.93a7.48,7.48,0,0,0,8.36,1.36,13.43,13.43,0,0,0,3.95-2.67,28.56,28.56,0,0,0,4.06-4.92,51.37,51.37,0,0,0,6.67-14.65,70.2,70.2,0,0,0,2.78-22.69,56.66,56.66,0,0,0-5.16-22.21,39.88,39.88,0,0,0-6-9.41A21.92,21.92,0,0,0,148.54,43a20.13,20.13,0,0,0-17,2.81,5.88,5.88,0,0,0-.59.53,4.27,4.27,0,0,0-1.68,1.56L130,48l1.51-1.19a25.65,25.65,0,0,1,6-2.62c7.16-1.79,13.58-.43,19.18,4.46a29,29,0,0,1,5.44,6.6,48.41,48.41,0,0,1,6.37,16.26,67.42,67.42,0,0,1-3.63,38.6,39.87,39.87,0,0,1-5.43,9.73,33.31,33.31,0,0,1-3.49,3.83,10.87,10.87,0,0,1-2.81,1.85c-3.09,1.49-5.88.83-8.28-1.88.31-.4.62-.83.95-1.23a42.84,42.84,0,0,0,8.79-19,44.33,44.33,0,0,0,.85-10.72,47.7,47.7,0,0,0-3.8-16.64,64.5,64.5,0,0,0-20.09-26.39c-.42-.32-.87-.61-1.26-1A1.88,1.88,0,0,1,130,48l-.67-.12-5.77-3.65a16.64,16.64,0,0,1,4.34-4.72,25.37,25.37,0,0,1,10.67-4.73c12-2.31,22.11,1,30.4,9.94a47.43,47.43,0,0,1,10,17.33,68.82,68.82,0,0,1,3.32,16.19A66.57,66.57,0,0,1,181,98.69Z"/><path class="cls-26" d="M58.79,88.5A11.75,11.75,0,1,0,70.4,100.27,11.69,11.69,0,0,0,58.79,88.5Zm8.67,17.83a7.07,7.07,0,0,1-2.81,2.72c-5.08,3.83-13.08,1.93-15.91-4.63a12.33,12.33,0,0,1-.51-1.7,7.12,7.12,0,0,1,0-4.86,10.66,10.66,0,0,1,17.62-5.52,7.82,7.82,0,0,1,2.89,4.1A10,10,0,0,1,67.46,106.33Z"/><path class="cls-26" d="M128.65,88.5a11.75,11.75,0,1,0,11.6,12A11.63,11.63,0,0,0,128.65,88.5ZM139,101.61a10.38,10.38,0,0,1-7.78,9,10.05,10.05,0,0,1-8.69-1.53,8.92,8.92,0,0,1-4.44-6.41,2.64,2.64,0,0,1-.33-.88c0-1.17,0-2.34.08-3.52a8.78,8.78,0,0,1,2.3-4.82A6.5,6.5,0,0,1,123,91.12,10,10,0,0,1,133.94,91a10.42,10.42,0,0,1,5.32,9.42A5.3,5.3,0,0,1,139,101.61Z"/><path class="cls-26" d="M49.78,81.56a7.08,7.08,0,0,0,3.29.71A16,16,0,0,0,63.51,78.4a8.6,8.6,0,0,0,1.85-2.31,3.24,3.24,0,0,0-1.74-4.9,22.06,22.06,0,0,0-3.28-.77,17.23,17.23,0,0,0-10.13,3.85A7.22,7.22,0,0,0,48.1,76.9,3.29,3.29,0,0,0,49.78,81.56Zm-.62-4.46a8,8,0,0,1,2.58-2.73,16.08,16.08,0,0,1,7.76-2.78,6.86,6.86,0,0,1,3,.28c.19.06.39.08.58.16,1.71.68,2.29,2.08,1.35,3.66a8.41,8.41,0,0,1-1.94,2.22,15.19,15.19,0,0,1-9.65,3.3,12.61,12.61,0,0,1-2.25-.49C48.74,80.07,48.28,78.76,49.16,77.1Z"/><path class="cls-26" d="M123.93,78.64a15.71,15.71,0,0,0,9.92,3.61,8.55,8.55,0,0,0,3.12-.54c2.37-.84,3.11-2.94,1.92-5.14a8.1,8.1,0,0,0-2.39-2.65,16.5,16.5,0,0,0-9.77-3.36c-.39,0-1.12.08-1.85.18a6,6,0,0,0-1.14.34,3.35,3.35,0,0,0-1.88,5.16A9.34,9.34,0,0,0,123.93,78.64Zm-.65-6.15a5,5,0,0,1,2.81-.89,14.75,14.75,0,0,1,10.71,4,6,6,0,0,1,1.09,1.4c1,1.74.55,3.12-1.33,3.78a15.18,15.18,0,0,1-2.43.49,15.73,15.73,0,0,1-9.63-3.45,6,6,0,0,1-2-2.67A2.1,2.1,0,0,1,123.28,72.49Z"/><path class="cls-26" d="M70.34,50.12a18.3,18.3,0,0,0-1.9,1.73c-.64.67-1.2,1.4-1.8,2.11l.43.42c1.35-1.17,2.71-2.33,4-3.52.31-.28.81-.54.6-1.12C71.59,49.43,71.07,49.54,70.34,50.12Z"/><path class="cls-26" d="M68.06,46.11c-1.84,0-3.9,1.84-5.31,4.79A24.65,24.65,0,0,0,68.06,46.11Z"/><path class="cls-26" d="M43.66,74.34a12.41,12.41,0,0,0,2.8-4.41,2.31,2.31,0,0,0,0-.75C44.77,70.16,44.26,71.11,43.66,74.34Z"/><path class="cls-26" d="M63,55.08a3.1,3.1,0,0,0-.9.15,7.62,7.62,0,0,0-2.3,2.65h0c-.32.39-.66.76-1,1.18-.09.14,0,.38-.11,1l1.57-1.71A9.56,9.56,0,0,0,63,55.08Z"/><path class="cls-26" d="M54.79,62.87a.63.63,0,0,0-.5.15,1.54,1.54,0,0,0-.34.48c-.45.79-.89,1.59-1.33,2.39l.36.39c.53-.75,1.07-1.49,1.59-2.24a2.31,2.31,0,0,0,.38-.68A.55.55,0,0,0,54.79,62.87Z"/><path class="cls-26" d="M51.07,61.34a25.06,25.06,0,0,0,3.87-4,.63.63,0,0,0-.06-.95,4.6,4.6,0,0,0-2.23,1.76C52,59,51.55,59.82,51,60.65A1.23,1.23,0,0,0,50.38,62Z"/><path class="cls-26" d="M85.73,104.1a20.36,20.36,0,0,1,13.78-1.75c1,.22,2,.55,3.08.83a8.37,8.37,0,0,0,2.54,1.15,3.42,3.42,0,0,0-2.15-1.59,19.19,19.19,0,0,0-11.79-1.56,13.84,13.84,0,0,0-7.37,3.11,2.35,2.35,0,0,0-1.26,1.23,2.32,2.32,0,0,0,1.72-.77C84.76,104.53,85.26,104.34,85.73,104.1Z"/><path class="cls-26" d="M86.24,113.91A4.16,4.16,0,0,0,84,115.75c.06,0,.13.08.17.07l2.5-1.47c.63-.22,1.25-.45,1.88-.65,5.09-1.64,10-1.32,14.45,1.8l.4-.38a10.7,10.7,0,0,0-5.1-2.88A16.13,16.13,0,0,0,86.24,113.91Z"/><path class="cls-26" d="M88,136.66a10.51,10.51,0,0,1,6.23,6.05c.15.37.31.74.47,1.1h0a.94.94,0,0,0,.78,1c0-.73.07-1.31-.36-1.82A7.56,7.56,0,0,0,92,137.88,13.05,13.05,0,0,0,83.47,135a12.46,12.46,0,0,0-1.38.2,4.54,4.54,0,0,0,.89.25A14.29,14.29,0,0,1,88,136.66Z"/><path class="cls-26" d="M95.51,125.08a16.53,16.53,0,0,0-8.06.06c-2.2.42-2.44.53-3.17,1.56.49-.14.84-.26,1.21-.34,1.33-.29,2.67-.55,4-.83h1.38a13.34,13.34,0,0,1,9.48,3.22c.2.17.43.3.64.46l.87.83a2.36,2.36,0,0,0-.8-1.43A8.77,8.77,0,0,0,95.51,125.08Z"/><path class="cls-26" d="M81.75,145.72a7.12,7.12,0,0,1,1.6,5,6.22,6.22,0,0,0,.12,1c.93-1.88,1-2.66.45-4.14a9.69,9.69,0,0,0-3.68-4.56,7.77,7.77,0,0,0-.91-.72,4.12,4.12,0,0,0-1.06-.09l1.55,1.19C80.47,144.2,81.15,144.93,81.75,145.72Z"/><path class="cls-26" d="M74.36,153.51c1.75-2.13,1.46-4.58-.9-7,.46,1.4.84,2.43,1.14,3.48S74.31,152.25,74.36,153.51Z"/><path class="cls-26" d="M67.87,151.19c0-.62,0-1.28-.84-1.68,0,.73,0,1.32,0,1.91s-.12,1.28-.2,2.1A2.35,2.35,0,0,0,67.87,151.19Z"/><path class="cls-26" d="M15.75,115a19.08,19.08,0,0,0-2.1-6.25c-.45-.06-.67.23-.53.57A51,51,0,0,0,15.75,115Z"/><path class="cls-26" d="M13.27,115.71c-.21-.34-.54-.32-.83.06a9.52,9.52,0,0,0,2.68,4.08c.49.64.49.64,1.19.68l-.77-1.1C14.79,118.18,14.05,116.93,13.27,115.71Z"/><path class="cls-26" d="M18.49,121.6a24.07,24.07,0,0,0,4,4.25c.13-.13.22-.21.21-.22-1.1-1.36-2.19-2.73-3.33-4.07C19.3,121.46,19,121.57,18.49,121.6Z"/><path class="cls-26" d="M152.28,40.58c.87,1.14,2.3,1.88,4.51,2.36C154.9,41,153.52,40.28,152.28,40.58Z"/><path class="cls-26" d="M162.72,46.51a.4.4,0,0,0-.67.06.55.55,0,0,0,0,.53c.78.72,1.58,1.4,2.38,2.09.88.91.88.91,1.69.91l-1-1C164.37,48.23,163.56,47.36,162.72,46.51Z"/><path class="cls-26" d="M169.52,52A6.35,6.35,0,0,0,171,55.11l.47-.47C170.77,52.53,170.7,52.42,169.52,52Z"/><path class="cls-26" d="M163.58,43l-1.45-1c-.84-.63-1.66-1.29-2.53-1.89a6.79,6.79,0,0,0-1.4-.7.59.59,0,0,0-.52.12.4.4,0,0,0,.1.66c1.3.76,2.61,1.49,3.93,2.24A1.82,1.82,0,0,0,163.58,43Z"/><path class="cls-26" d="M65.41,92.74c-.57-.34-1.12-.72-1.71-1a9.36,9.36,0,0,0-12.07,3.44,17.41,17.41,0,0,1-1.08,2.11,9.89,9.89,0,0,1-1.87,1.44,3.8,3.8,0,0,0,0,2.38l1.86,1.66c.09.22.23.59.37,1A9.42,9.42,0,0,0,60,109.56a16.71,16.71,0,0,0,3.85-.89,15.63,15.63,0,0,0,3.24-2.78c.28-.52.59-1,.84-1.55a8.68,8.68,0,0,0,1-4.56,9.5,9.5,0,0,0-2.74-6.17C65.91,93.34,65.67,93,65.41,92.74ZM49.92,101a1.24,1.24,0,0,1,.16-2.13,11.63,11.63,0,0,1,1.73-.61,11.92,11.92,0,0,1,1.95.88,1.28,1.28,0,0,1-.15,2.27A3.32,3.32,0,0,1,49.92,101Zm10.54,7.54a8.08,8.08,0,0,1-8.63-5.66,5.47,5.47,0,0,0,.93-.15A6.78,6.78,0,0,0,54.4,102a2.12,2.12,0,0,0,.33-3.43,6.48,6.48,0,0,0-1.67-1,4.63,4.63,0,0,0-1.14-.27c.92-3.6,4.8-6,8.92-5.39a8.37,8.37,0,0,1-.38,16.59Z"/><path class="cls-26" d="M124.61,91.24c-.38.11-.75.25-1.12.37l-2.9,2.29a16,16,0,0,0-2.26,4.43,14,14,0,0,0,.21,4.38,9.57,9.57,0,0,0,4.58,5.7,1.43,1.43,0,0,1,.28.27c.5.16,1,.34,1.51.49a9.32,9.32,0,0,0,10.9-4.5,11.89,11.89,0,0,1,.82-1.81,11.27,11.27,0,0,1,1.55-1.45s0-.13.06-.19a2.09,2.09,0,0,0,.35-.13l0-.76a.55.55,0,0,0,0-.88,1.25,1.25,0,0,0-.61-1.17c-.46-.36-1-.66-1.46-1-.14-.33-.25-.64-.39-.94A9.37,9.37,0,0,0,124.61,91.24Zm2.34,17.3a8.38,8.38,0,0,1-7.74-8,8.32,8.32,0,0,1,16.13-3.27,5.73,5.73,0,0,0-1.05.23,6.52,6.52,0,0,0-1.58.8,2.23,2.23,0,0,0,.36,3.92,12.54,12.54,0,0,0,2.23.68A8,8,0,0,1,127,108.54Zm10.44-9.45a1.14,1.14,0,0,1,.11,1.6,3.43,3.43,0,0,1-2.78,1.09,8.22,8.22,0,0,1-1.5-.68,1.14,1.14,0,0,1-.15-1.74A3.22,3.22,0,0,1,137.39,99.09Z"/></g></g></svg>