<svg xmlns="http://www.w3.org/2000/svg" viewBox="0 0 175.83 184.72"><defs><style>.cls-1{fill:#d7e9e6;}.cls-2{fill:#a46f5a;}.cls-3{fill:#c39069;}.cls-4{fill:#f3aa4e;}.cls-5{fill:#af825f;}.cls-6{fill:#abbbb6;}.cls-7{fill:#f09143;}.cls-8{fill:#8f5e4a;}.cls-9{fill:#91abab;}.cls-10{fill:#6c483b;}.cls-11{fill:#614134;}.cls-12{fill:#efd47a;}.cls-13{fill:#b27f60;}.cls-14{fill:#d1ad62;}.cls-15{fill:#e5c86d;}.cls-16{fill:#592d4b;}.cls-17{fill:#4e2a41;}.cls-18{fill:#cfac65;}.cls-19{fill:#caab67;}.cls-20{fill:#fff;}.cls-21{fill:#c8b88d;}.cls-22{fill:#dcc681;}.cls-23{fill:#d2c794;}.cls-24{fill:#ebcb6d;}.cls-25{fill:#cfb164;}.cls-26{fill:#f19511;}.cls-27{fill:#ef7408;}.cls-28{fill:#7b4727;}</style></defs><g id="Calque_2" data-name="Calque 2"><g id="OBJECTS"><rect class="cls-1" width="175.83" height="181.36" rx="68.69"/><path class="cls-2" d="M90.09,35.9a27.45,27.45,0,0,1,6.34.46,67.89,67.89,0,0,1,7.22,1.47,48.53,48.53,0,0,1,10,3.84l5,2.54c.35.18.7.44,1.09.07.63-.29,1.06.06,1.47.46a27.17,27.17,0,0,0,4.85,3.38,2.36,2.36,0,0,1,.44.32c1.28,1.27,2.48,2.63,3.84,3.83a3.07,3.07,0,0,1,.86,1.65c.19.26.38.51.56.77a.69.69,0,0,0,.3.33l.05.06a2.5,2.5,0,0,0,.34.39l0,0a2.86,2.86,0,0,1,.36.41h0a.72.72,0,0,1,.36.44,33.25,33.25,0,0,0,3.52,4.31,53.37,53.37,0,0,1,11.39,21.65,18.28,18.28,0,0,1,.79,4.7c.21.67.14,1.16-.67.63-.52-.34-.6-1-.75-1.6C147,84,146.3,82,145.77,79.89a4.47,4.47,0,0,0-.8-1.81c-3.55-4.28-7.41-8.21-12.49-10.68s-10.31-2.27-15.72-.61c-7.52,2.31-10.78,8.45-13.89,14.72A40.58,40.58,0,0,0,99,99.92c.09,12.67,3.22,24.48,11.12,34.71a55.16,55.16,0,0,0,4.54,4.76c.59.6,1.4,1.1,1.13,2.16-2,1.43-4.3,1.65-6.61,1.93a5.74,5.74,0,0,0-2.17-.27c-4.32.41-8.63-.07-12.94-.24-6.84-.27-13.66-.93-20.2-3.23a14.71,14.71,0,0,1-5.14-2.57,1.46,1.46,0,0,1-.36-.55,2.92,2.92,0,0,1,.82-2.18c5.9-8.12,8.84-17.34,10.15-27.18.79-6,1-12.07-.53-17.85C75.9,78.5,70.89,69,59,65.37a5.41,5.41,0,0,0-2-.46,1.9,1.9,0,0,1-1.16-.31,1,1,0,0,1-.34-.49,3.79,3.79,0,0,1,1-2.54A67,67,0,0,1,86.86,36.85C87.91,36.41,89.07,36.4,90.09,35.9Z"/><path class="cls-3" d="M115.65,141.35a48,48,0,0,1-4.34-4.1,37.54,37.54,0,0,1-5.4-7.37,54.81,54.81,0,0,1-7.09-21,50.78,50.78,0,0,1-.36-5.36,7.94,7.94,0,0,0-.2-1.37,8.33,8.33,0,0,1-.07-3.37,23.89,23.89,0,0,0,.3-3.57,38.66,38.66,0,0,1,1.4-7.82,51.55,51.55,0,0,1,2.43-6.74,36.25,36.25,0,0,1,4.19-7,38,38,0,0,1,4.06-4.9,2.45,2.45,0,0,1,1.71-.91,2.14,2.14,0,0,0,1.12-.35,22.27,22.27,0,0,1,8.48-2.75,18.2,18.2,0,0,1,8.82,1,26.25,26.25,0,0,1,7.54,4.37c2.3,1.84,4.25,4,6.35,6a15.88,15.88,0,0,1,1.57,2,.87.87,0,0,1,.18.36c.44,2.89,1.74,5.57,2.13,8.48,0,.29.13.28.37.1s-.11,0,.06-.2a1.86,1.86,0,0,1,.33,1.12c0,2,.24,4,.34,5.93a75.21,75.21,0,0,1,0,9.73,38.84,38.84,0,0,1-1.83,9.7,11.37,11.37,0,0,0-1.18,3.63c-1.32,2.37-2.8,4.65-4.33,6.89-.68,1-1.39,1.93-2.06,2.91a3.18,3.18,0,0,1-1.81,1.44,4.09,4.09,0,0,0-1.48,1c-2.41,2.18-5.07,4-7.61,6-3.41,3.49-7.91,4.84-12.36,6.28A1,1,0,0,1,115.65,141.35Z"/><path class="cls-4" d="M121.27,181.75q-3.63.57-7.3.85c-1.51.12-3,.41-4.52.63a2.66,2.66,0,0,1-.39.07c-2.18.16-4.36.43-6.55.45-7.84.05-15.69,0-23.53,0a8.91,8.91,0,0,1-2.77-.27,1.69,1.69,0,0,0-.59-.09c-2.73.18-5.41-.52-8.14-.45a7.58,7.58,0,0,1-2.37-.23,5.23,5.23,0,0,0-1.18-.15,80.5,80.5,0,0,1-8.48-1.06c-2.43-.34-4.8-1-7.22-1.42a4.47,4.47,0,0,1-.92-.35,2.19,2.19,0,0,1-.43-2.24,41.34,41.34,0,0,1,3.82-11.08c2.21-4,4.7-5.22,9.23-4.33,5.41,1.06,10.67,2.78,16.16,3.51,15.32,2,30.36,1.42,44.77-4.89a24.07,24.07,0,0,0,8-5.49c.63-.67,1.09-1.53,2-1.87a22.1,22.1,0,0,1,1,2.16A101.74,101.74,0,0,1,136.13,170c.25,1.37.66,2.7.84,4.09a4.58,4.58,0,0,0,.78,2.23.9.9,0,0,1-.3,1.37,2.13,2.13,0,0,1-.69.38c-3,.78-5.89,2.06-9,2.63a18.62,18.62,0,0,1-4.12.65,1.37,1.37,0,0,1-.47-.85A24.18,24.18,0,0,0,119,170c.95,3.22,1.69,6.5,2.33,9.79A2.36,2.36,0,0,1,121.27,181.75Z"/><path class="cls-5" d="M51.36,136.67a44.26,44.26,0,0,1-13.29-10.4,35.63,35.63,0,0,1-7.51-14.4,46.75,46.75,0,0,1-1.68-12.62c0-2.86-.05-5.73.08-8.59a26.55,26.55,0,0,1,1.47-8.22c.63-1.67,1.32-3.32,2-5C35.74,71.58,41.09,68.1,47,65.3a21.35,21.35,0,0,1,6.55-1.62c.79-.1,1.61-.2,2.19.56v.08c.53,1-.27,2.29.52,3.29-.27.87-1.05.91-1.75,1A18.61,18.61,0,0,0,47,72.46a4.57,4.57,0,0,0-1.05,1.18c-1.73,2.48-1.09,4,1.91,4.57.89.16,1.87.05,2.56.84a2.2,2.2,0,0,1-.23,2.44,5.76,5.76,0,0,1-1.94,1.37c-5.51,3.33-9.3,7.9-9.5,14.56s2.76,12.44,9.89,15.7c1.09.5,2.28.75,3.33,1.36a5.17,5.17,0,0,1,1.77,2.35A43.53,43.53,0,0,0,67,134.53a3.21,3.21,0,0,1,1.47,2.05l.07,0c-.14,2.43-2.35,3.25-3.73,4.7a3.89,3.89,0,0,1-1.53.86,5,5,0,0,1-2.9-.61,26.72,26.72,0,0,0-4.68-2.06c-1.08-.53-2.13-1.14-3.25-1.6A1.86,1.86,0,0,1,51.36,136.67Z"/><path class="cls-6" d="M128.9,144.64c.51.42,1,.83,1.51,1.28a2.21,2.21,0,0,1,.55,2.88,6.41,6.41,0,0,1-1.17,1.83c-.36.39-.69.8-1,1.2a1.78,1.78,0,0,1-1,1.62c-3.73,2.49-7.49,4.92-11.86,6.19-.5.07-1,.22-1.49.32l-.66,0c-3.62.38-7.2,1.18-10.85,1.33-11.3.45-22.48-.24-33.35-3.68a25.7,25.7,0,0,1-5.44-2.49A8.34,8.34,0,0,1,62,153.38c-.61-.72-1.34-1.59-.78-2.49s1.71-.38,2.51,0c5.63,2.5,11.63,3.15,17.66,3.85s11.92-.19,17.19-.92a18.19,18.19,0,0,1-3.6.4,77.51,77.51,0,0,1-26.6-3.35c-.9-.26-1.81-.46-2.71-.69-3-.76-4.14-2.88-3.07-5.86a5.43,5.43,0,0,1,1.28-2.23,2.59,2.59,0,0,1,2.26-.27c2.34.57,4.73.92,7,1.59a16.38,16.38,0,0,0,6.28,1.41c3.11.17,6.21.43,9.34.43,12.95,0,25.52-1.76,37.28-7.54,1.21.32.76,1.23.59,1.91a10.72,10.72,0,0,1-3.93,5.83,39.46,39.46,0,0,1-8.09,4.68,34.57,34.57,0,0,0,10.08-4.68C125.86,144.6,127.28,143.67,128.9,144.64Z"/><path class="cls-7" d="M115.71,159a20.55,20.55,0,0,0,4.94-2.11,46.25,46.25,0,0,0,8.11-5.06c1.56,0,1.56,0,2.13,1.53a2.45,2.45,0,0,1-.76,1.78,24.74,24.74,0,0,1-6,4.84,51.62,51.62,0,0,1-10.46,4.33,95.34,95.34,0,0,1-9.52,2.13,18.59,18.59,0,0,1-4.94.55,1.27,1.27,0,0,0-.39,0c-3.43.71-6.9.28-10.35.38a25.86,25.86,0,0,1-5-.07c-1.9-.34-3.82-.3-5.73-.64-2.15-.37-4.33-.63-6.46-1.11-3.3-.74-6.59-1.58-9.89-2.34a20.05,20.05,0,0,0-4.52-.66,5,5,0,0,0-3.68,1.73,11.51,11.51,0,0,0-1.83,2.59,46.17,46.17,0,0,0-3.59,10.33,7.55,7.55,0,0,0-.45,2.54,17.2,17.2,0,0,1-4.42-1.13,2.51,2.51,0,0,1-2-2.84,8.45,8.45,0,0,1,.21-1.58c1.11-4.71,2.32-9.4,3.87-14,.86-2.57,1.91-5.08,3-7.59a3,3,0,0,1,1.74-2,1.7,1.7,0,0,1,1.81.52c5.19,4.62,11.52,6.75,18.13,8.2,11.79,2.6,23.75,2.37,35.7,1.82a41.16,41.16,0,0,0,9.14-1.72h0C114.8,159,115.37,159.36,115.71,159Z"/><path class="cls-8" d="M55.71,64.24A25.51,25.51,0,0,0,42.3,68.66a44.81,44.81,0,0,0-7.85,6.69,12.78,12.78,0,0,0-.84,1.1,2.31,2.31,0,0,1-1.2,1A45.52,45.52,0,0,1,37.84,66a82.72,82.72,0,0,1,6.35-8.44c.06-1.09,1.08-1.62,1.49-2.51,2.72-3.17,6-5.67,9.19-8.38A4,4,0,0,0,56.6,45c.45-.57.77-1.27,1.52-1.56.46.14.32.7.71,1a15.16,15.16,0,0,0,2.8-1.74,13,13,0,0,1,2.78-1.53,71.25,71.25,0,0,1,16-4.76,39,39,0,0,1,9.71-.54,11.17,11.17,0,0,1-3.3,1.8,81.9,81.9,0,0,0-9.9,5.1,60,60,0,0,0-6,4.21,61,61,0,0,0-8.09,7.65,67.28,67.28,0,0,0-6.49,8.53C56.07,63.53,55.9,63.89,55.71,64.24Z"/><path class="cls-9" d="M114.49,159.4c-1.24,1-2.81,1.17-4.27,1.51a48.62,48.62,0,0,1-11.08,1.29c-4.06,0-8.12,0-12.18,0a86,86,0,0,1-13.67-1.42,66.19,66.19,0,0,1-10.67-2.52A46,46,0,0,1,55.35,155a27.79,27.79,0,0,1-5.64-4.42c-.27-.54-.55-1.06-.8-1.6a4,4,0,0,1,0-3.47,7.36,7.36,0,0,1,.44-.89,3.86,3.86,0,0,0,.48-3.6,3.52,3.52,0,0,1-.14-1,2.76,2.76,0,0,1,1-2.66,5.71,5.71,0,0,0,.68-.71,3,3,0,0,1,1.16.72A8.79,8.79,0,0,0,55.44,139c1.7.73,3.4,1.46,5.15,2l2.79.76c.43-.22.73-.2.72.39a3.29,3.29,0,0,1-.62,2.07c-.95,1.42-.35,2.83,0,4.23.08.36.44.44.78.52,2.32.55,4.67,1,7,1.7s4.89,1.23,7.37,1.71c1.42.28,2.88.44,4.32.65,4.64.68,9.3.21,13.94.34a7,7,0,0,0,1.77-.23,12.48,12.48,0,0,1,2.71-.14,2,2,0,0,1-1.51,1.06,65.37,65.37,0,0,1-7.23,1.38,62.2,62.2,0,0,1-8,.34,10.37,10.37,0,0,1-3.37-.3,4,4,0,0,0-1-.09,59.94,59.94,0,0,1-13.1-2.29,44.43,44.43,0,0,1-4.25-1.72l-1.1-.46s-.16,0-.17,0-.15.25-.12.33a6.22,6.22,0,0,0,2.65,2.9,31.21,31.21,0,0,0,7.49,3.2,78.25,78.25,0,0,0,10.91,2.26,25.8,25.8,0,0,0,5.34.54,2.61,2.61,0,0,1,.79,0c2.63.63,5.3.3,8,.37,1.47,0,2.93,0,4.4,0a53.65,53.65,0,0,0,10.87-1.08A13.13,13.13,0,0,1,114.49,159.4Z"/><path class="cls-10" d="M120.88,45l-1.14-.76a1.12,1.12,0,0,1,.43-1.05c.44-.4.91-.77,1.35-1.18a39.15,39.15,0,0,0,5.87-6.72c.57-.82,1.14-1.63,1.73-2.43a7.92,7.92,0,0,1,1-1.19,2.28,2.28,0,0,1,3.8.68,9.41,9.41,0,0,1,.88,3,8.33,8.33,0,0,0,.51,2.26c.6-.16.69-.67.91-1a12,12,0,0,1,2.14-3.09,1.84,1.84,0,0,0,.51-.83c.31-.87,1.12-1,1.63-.2.28.44.71.8.78,1.36a7.43,7.43,0,0,0-.64,2.07,24.24,24.24,0,0,1-4.85,10.53c-2,2.51-1.91,2.79.54,4.87.66.55.72,1.1.19,1.68a6.59,6.59,0,0,1-2.75,2.2,1.38,1.38,0,0,1-.57,0l-.08-.08a.5.5,0,0,0-.32-.33l-.07-.08a.61.61,0,0,0-.33-.34l-.05-.06a.82.82,0,0,0-.34-.35l0,0a1.27,1.27,0,0,0-.36-.37l0,0a4,4,0,0,1-1.48-1.13c-1.29-1.31-2.68-2.52-4.08-3.71h0C124.44,47.32,122.44,46.5,120.88,45Z"/><path class="cls-10" d="M58.12,43.47c.11,1-.48,1.47-1.22,1.87A5.75,5.75,0,0,1,55,46.9c-2.85,2.23-5.82,4.34-8.12,7.19a1.78,1.78,0,0,1-1.28.85,5.36,5.36,0,0,1-2.77-1.5c-1.12-1-1-1.54.19-2.26,1.91-1.12,2.07-1.39.63-3.12a25.22,25.22,0,0,1-5.79-13.14c-.11-.89-.51-1.85.28-2.65a14.54,14.54,0,0,1,3.1,3.83c.3.49.4,1.12.93,1.48.43,0,.34-.37.36-.57.16-1.52.89-2.9.94-4.47,0-1.12,2.09-2,3.21-1.59a4,4,0,0,1,1.73,1.31c.75.94,1.46,1.9,2.13,2.9a49.12,49.12,0,0,0,4.36,5.7A10.18,10.18,0,0,0,58.12,43.47Z"/><path class="cls-11" d="M38.14,32.27c.32,1.69.61,3.39,1,5.08a21.2,21.2,0,0,0,4.54,9.4c.5.62,1,1.26,1.45,1.9a1.77,1.77,0,0,1-.56,2.81,2.93,2.93,0,0,1-1.32.42c-.25,0-.53,0-.72.4l3.26,2.43a.5.5,0,0,1,0,.55c-.63,1.1-1.38,2-2.84,1.49a19.45,19.45,0,0,1-5.76-3.85,6.49,6.49,0,0,1-1.64-2.46,1.17,1.17,0,0,1,.8-1.55,2.93,2.93,0,0,1,1.38,0,5,5,0,0,0,2.2.15,8.73,8.73,0,0,0-1.23-2.3A22.15,22.15,0,0,1,36,40.56a11.76,11.76,0,0,1-.32-5.11,10,10,0,0,1,1.8-3.24C37.57,32,37.93,32,38.14,32.27Z"/><path class="cls-11" d="M133.57,55.22a11.66,11.66,0,0,1,2.9-2.92c-.08-.53-.5-.41-.78-.48-2.45-.65-2.33-2.81-1.63-4.29a3.2,3.2,0,0,1,.58-.8,26.13,26.13,0,0,0,3.3-4.74,18.71,18.71,0,0,0,1.7-4.88c.24-.9.39-1.82.61-2.72.14-.57.55-.69,1.07-.51a2.48,2.48,0,0,1,.75,1.58,12,12,0,0,1-.51,6.09,30.77,30.77,0,0,1-3.2,6.19c-.32.47-.84.86-.75,1.68,1.22-.35,2.52-.09,3.64-.81a.75.75,0,0,1,.92,0,.81.81,0,0,1,.32.88,6.8,6.8,0,0,1-1.11,2.54,18.88,18.88,0,0,1-5.07,4.13,1.36,1.36,0,0,1-1.34.07l-.91-.39a2.1,2.1,0,0,0-.41-.31l-.08-.06Z"/><path class="cls-9" d="M128.9,144.64a11.68,11.68,0,0,0-5,2.2,16.41,16.41,0,0,1-5.29,2.72c-1.77.57-3.55,1.1-5.33,1.65a2.86,2.86,0,0,1-.58.13.78.78,0,0,1-.54-.14c-.14-.16,0-.38.18-.48.8-.48,1.58-1,2.4-1.42,1.82-1,3.7-1.81,5.43-2.93a14,14,0,0,0,4.89-4.58,21.1,21.1,0,0,0,1.47-3.9,3,3,0,0,1,2.37-1.67,2.38,2.38,0,0,1,1.07,2,25.4,25.4,0,0,1,.28,3.49,5.57,5.57,0,0,1-1,2.52l-.32.41Z"/><path class="cls-12" d="M128.86,136.22l-2.37,1.67a89.16,89.16,0,0,1-11.69,4.54,75,75,0,0,1-12.44,2.66,55.45,55.45,0,0,0-5.73.63,5.22,5.22,0,0,1-1.19.07H83.88c-1.53,0-3-.5-4.56-.4-.08-.46.22-.69.55-.9a5.51,5.51,0,0,1,2.54-.31c5.58-.08,11.17.22,16.74-.4,3.36-.37,6.71-.75,10.09-.82a45.51,45.51,0,0,0,6.41-1.6,42.11,42.11,0,0,0,11.53-4.81,7.39,7.39,0,0,1,2.07-1.16Z"/><path class="cls-7" d="M121.27,181.75a14.89,14.89,0,0,1-1.14-4.19c-.48-2.4-1.09-4.77-1.76-7.12-.18-.64-.34-1.28-.5-1.92a.38.38,0,0,1,.22-.48.44.44,0,0,1,.51.2,27,27,0,0,1,5.3,11.2c.17.71-.18,1.29-.23,1.94A4.59,4.59,0,0,1,121.27,181.75Z"/><path class="cls-13" d="M146.54,117.12c-.11-.16-.32-.34-.3-.49a7,7,0,0,1,1.29-3.22c.16-.21-.05.2.19.08-.18.89-.35,1.78-.55,2.67A1.56,1.56,0,0,1,146.54,117.12Z"/><path class="cls-14" d="M42.93,56.75a2.38,2.38,0,0,0,2.11-1,5.87,5.87,0,0,1,.65-.67c.26,0,.3.25.4.41a7.28,7.28,0,0,1-1.9,2Z"/><path class="cls-15" d="M130.48,52.26a3.43,3.43,0,0,1,1.15,1.24l-.42.42A4.07,4.07,0,0,1,130,52.7C129.94,52.31,130.09,52.16,130.48,52.26Z"/><path class="cls-15" d="M133.2,56.35l-.36-.44Z"/><path class="cls-15" d="M133.65,55.55a.46.46,0,0,1,.41.32Z"/><path class="cls-15" d="M132.83,55.9l-.36-.41Z"/><path class="cls-15" d="M133.57,55.22a.61.61,0,0,1,0,.27l-.33-.31Z"/><path class="cls-15" d="M132.45,55.47l-.34-.39Z"/><path class="cls-15" d="M132.84,54.77l.32.33Z"/><path class="cls-15" d="M132.06,55l-.3-.33Z"/><path class="cls-15" d="M132.44,54.35a.38.38,0,0,1,.33.34Z"/><path class="cls-15" d="M132.05,53.94a.4.4,0,0,1,.34.35Z"/><path class="cls-15" d="M131.65,53.52a.45.45,0,0,1,.36.37Z"/><path class="cls-6" d="M128.88,144.63l.32-.41Z"/><path class="cls-3" d="M68.46,136.58a27.65,27.65,0,0,1-3.81-3.19c-.6-.62-1.4-1-2-1.66a44.19,44.19,0,0,1-6-7.64,52.6,52.6,0,0,1-3.84-7.65A4.57,4.57,0,0,0,51.7,115c.74-1,1.79-.73,2.77-.7,8.58.21,15.25-4.9,17-13.3,1.88-9.17-5.7-20.59-17.39-19.54-.86.08-1.67.47-2.52.6-.66.1-1.47.49-1.82-.55A8.54,8.54,0,0,0,50.1,79c.07-1.1,1-1.06,1.73-1.29a17.45,17.45,0,0,0,5.74-3.13,6.3,6.3,0,0,0,1.92-2.5c.79-1.91.32-2.94-1.64-3.64-.62-.22-1.31-.31-1.69-1-.32,0-.65-.06-1-.12a.5.5,0,0,1-.43-.72c.3-.79.64-1.58,1-2.36l1.19,0c.6.46,1.4-.08,2,.38a13.68,13.68,0,0,1,4.87,1.71,25.85,25.85,0,0,1,5.15,3.41,16,16,0,0,1,2.22,2.28,59.23,59.23,0,0,1,7,12,17.38,17.38,0,0,1,1.54,5.75c.15,1.58.45,3.15.66,4.73a12,12,0,0,1,.11,1.59c0,2.53,0,5.06,0,7.59a23.67,23.67,0,0,1-.47,3.95,65.2,65.2,0,0,1-3,13.19,57.21,57.21,0,0,1-5.45,11.51C70.61,133.86,69.5,135.19,68.46,136.58Z"/><path class="cls-8" d="M109.24,143a50,50,0,0,1-6.63,1.25c-6.93,1-13.9.83-20.86.77l-2,0a25.55,25.55,0,0,1-6.86-.8c-.76-.5-1.66-.34-2.48-.55-2.09-.53-4.21-1-6.32-1.44a1.15,1.15,0,0,0-.72-.39c.23-.71,1-.82,1.45-1.29a51.88,51.88,0,0,0,3.7-3.86,4.74,4.74,0,0,1,1.66.64A39.69,39.69,0,0,0,82.73,141l4.72.71a6.5,6.5,0,0,0,1,.07,18.16,18.16,0,0,1,4,.33,11.17,11.17,0,0,0,2.39.07,54.74,54.74,0,0,1,6.76.33,44.5,44.5,0,0,0,5.78.08A2.77,2.77,0,0,1,109.24,143Z"/><path class="cls-16" d="M88.83,93a4.31,4.31,0,0,1,3.37.44,1.91,1.91,0,0,1,1.11,1.94,5,5,0,0,1-2.43,4.44C88.75,98.52,88,96.07,88.83,93Z"/><path class="cls-17" d="M88.83,93a1.45,1.45,0,0,1,.45,1.25,7.86,7.86,0,0,0,1.33,5.05c.1.16.18.35.27.52a1.31,1.31,0,0,1-1.65,0,6.35,6.35,0,0,1-2.69-4.2C86.3,94.27,87.09,93.43,88.83,93Z"/><path class="cls-18" d="M130.48,52.26l-.46.44a27.43,27.43,0,0,1-4-4,1.59,1.59,0,0,1,.56.15A21.75,21.75,0,0,1,130.48,52.26Z"/><path class="cls-19" d="M120.88,45a28.81,28.81,0,0,1,4.31,2.65c.36.26.79.48.89,1a3.08,3.08,0,0,1-.75-.21c-1.45-.91-2.9-1.84-4.34-2.77A.39.39,0,0,1,120.88,45Z"/><path class="cls-5" d="M58.91,64.66c-.68,0-1.42.17-2-.38C57.59,64.31,58.33,64.1,58.91,64.66Z"/><path class="cls-20" d="M124.46,115.08a19.66,19.66,0,0,1-10.83-3,15.16,15.16,0,0,1-6.7-9.57,16.21,16.21,0,0,1,1.39-11.82,21.78,21.78,0,0,1,5.8-7,7,7,0,0,1,2.26-1.22c1.39-.45,2.74-1,4.17-1.37a16.47,16.47,0,0,1,10,1c5.55,2.16,8.74,6.38,10.16,12a16,16,0,0,1-.38,8.3,29.5,29.5,0,0,1-1,2.82,15,15,0,0,1-10.91,9.36A13.15,13.15,0,0,1,124.46,115.08Z"/><path class="cls-10" d="M130.56,79.06a12.12,12.12,0,0,1-4.75-1,18.26,18.26,0,0,1-5-2.94,7.43,7.43,0,0,1-2.53-3.5,2,2,0,0,1,.11-1.73,4,4,0,0,1,2.72-2.1,11.73,11.73,0,0,1,7.68,1.34,16.74,16.74,0,0,1,5,3.9,4,4,0,0,1,1.09,3.09,2.5,2.5,0,0,1-1.41,2.23A5.23,5.23,0,0,1,130.56,79.06Z"/><path class="cls-20" d="M49.71,81.54c.55.4,1,0,1.5-.16a13.87,13.87,0,0,1,3.29-.74c6.27-.18,11.27,2.22,14.79,7.43A17.8,17.8,0,0,1,72.51,97c.42,6.92-3,13.39-10.26,16.74a16.13,16.13,0,0,1-8.16,1.45c-.79-.06-1.59-.09-2.39-.13l-1.32-.43c-7.21-2.32-12.17-7.78-12.47-16.24a16.33,16.33,0,0,1,3.36-10.45,20.64,20.64,0,0,1,5.87-5.34A5.84,5.84,0,0,1,49.71,81.54Z"/><path class="cls-10" d="M56.16,67.52l2.36.32c1.8.27,2.36,1.36,2.1,3.4a5.8,5.8,0,0,1-1.94,3.4,16.29,16.29,0,0,1-7.27,4A3.06,3.06,0,0,0,50.1,79a11.6,11.6,0,0,1-3.75-.34c-2.26-.8-2.94-2.45-1.76-4.54a8,8,0,0,1,2.34-2.69,28.53,28.53,0,0,1,4.29-2.55A9.06,9.06,0,0,1,55,67.85,1.91,1.91,0,0,0,56.16,67.52Z"/><path class="cls-21" d="M60.59,141a15.18,15.18,0,0,1-5.34-1.94c.15-.25.34-.28.55-.08A16.71,16.71,0,0,1,60.59,141Z"/><path class="cls-22" d="M55.8,139l-.55.08a5.71,5.71,0,0,1-2.15-.76,1,1,0,0,1-.58-.92A10.75,10.75,0,0,1,55.8,139Z"/><path class="cls-23" d="M72.9,144.15c2.1.19,4.21.38,6.31.59a2,2,0,0,1,.55.21l-.44.43a27.7,27.7,0,0,1-6.13-1C73.08,144.37,73,144.24,72.9,144.15Z"/><path class="cls-9" d="M115.71,159a1.49,1.49,0,0,1-1.24.41A1.39,1.39,0,0,1,115.71,159Z"/><path class="cls-24" d="M46.09,55.46l-.4-.41a1.27,1.27,0,0,0,.05-.34c.41-.43.82-.85,1.21-1.29a35.93,35.93,0,0,1,7.94-6.76c.42-.16.5.05.43.4A82.58,82.58,0,0,0,46.09,55.46Z"/><path class="cls-25" d="M55.32,47.06l-.43-.4a7.68,7.68,0,0,1,2-1.32c.2.21.25.47,0,.65C56.39,46.37,55.85,46.71,55.32,47.06Z"/><path class="cls-26" d="M115.6,86.2a13.53,13.53,0,0,1,16,1.9,10.87,10.87,0,0,1,3.69,7.5c0,.89,0,.91-.92,1.2-.45.13-.91.22-1.35.37a3.09,3.09,0,0,0-1.89,1.91,1.26,1.26,0,0,0,.62,1.68c.91.39,1.82.76,2.71,1.18.43.2.25.52,0,.8-3.57,4.2-10.29,4.9-15,2.4-4.89-2.59-7-7.29-5.86-13.35C114,89.84,114.3,87.84,115.6,86.2Z"/><path class="cls-27" d="M115.6,86.2c.38.44.12.9,0,1.31a43.9,43.9,0,0,0-1.24,4.8A11.72,11.72,0,0,0,114.8,99a9.64,9.64,0,0,0,5.12,5.53,12.37,12.37,0,0,0,5.14,1.37,12.74,12.74,0,0,0,7.66-2.33c.43-.31.85-.63,1.29-.92.19-.12.37,0,.53.14a10.36,10.36,0,0,1-4.31,6.26,13.68,13.68,0,0,1-21.34-7.69,13,13,0,0,1,.8-8.76,16,16,0,0,1,3.84-5.3A2.75,2.75,0,0,1,115.6,86.2Z"/><path class="cls-26" d="M51.31,85.48a8,8,0,0,1,4.37-1,25.8,25.8,0,0,1,5.33.56c6.9,1.94,11.37,9.63,8.88,16.71,0,.06-.08.1-.12.15A13,13,0,0,1,54,104.85a9.78,9.78,0,0,1-5.52-7.4C47.78,93.13,48.34,89,51.31,85.48Z"/><path class="cls-27" d="M51.31,85.48A47.93,47.93,0,0,0,49.54,91c-.17.91-.46,1.81-.55,2.73a10.55,10.55,0,0,0,1.57,7,10,10,0,0,0,8.7,4.7,12.46,12.46,0,0,0,4.33-.39,13.71,13.71,0,0,0,5.33-3c.25-.24.52-.43.85-.11-1.38,4.83-4.66,7.75-9.33,9.25-6.19,2-13.91-1.7-16-8.06a5.31,5.31,0,0,1-.2-.56c-.17-.58,0-.92.58-1a4.34,4.34,0,0,0,1.68-.5,2.08,2.08,0,0,0,.39-3.56,3.19,3.19,0,0,0-2.32-.81c-.74,0-.92-.29-.83-1a12.25,12.25,0,0,1,1.52-4.5,19.8,19.8,0,0,1,3.6-4.5A4.52,4.52,0,0,1,51.31,85.48Z"/><path class="cls-28" d="M150.93,90A59.11,59.11,0,0,0,147.52,76a67.42,67.42,0,0,0-10.26-17.51L136,56.86c.66-.27,1.2-.48,1.73-.71a10.48,10.48,0,0,0,4.43-3.29,5.09,5.09,0,0,0,1.14-2.52,2.07,2.07,0,0,0-1.93-2.51l-1.26-.23c.41-.65.71-1.16,1-1.65a15.19,15.19,0,0,0,2.36-8.14,9.15,9.15,0,0,0-1-4.65c-1.3-2.37-3.46-2.56-5.09-.44-.24.32-.42.68-.65,1s-.32.38-.59.7c-.17-.59-.27-1-.41-1.45a9.44,9.44,0,0,0-.54-1.49,3.26,3.26,0,0,0-5-1.39A9.88,9.88,0,0,0,128.17,32a33.53,33.53,0,0,0-2.08,2.92c-1,1.44-1.86,2.92-2.86,4.33a13.87,13.87,0,0,1-3.85,3.86Q89,25.78,58.68,43.34a14,14,0,0,1-3.38-3.17c-1.2-1.67-2.32-3.41-3.5-5.1-.83-1.2-1.67-2.41-2.57-3.56a5.81,5.81,0,0,0-2.36-1.79,3,3,0,0,0-3.63.8,8.94,8.94,0,0,0-1.12,2.09,15.76,15.76,0,0,0-.51,1.91l-.69-1a12.63,12.63,0,0,0-1-1.29,2.58,2.58,0,0,0-4.26.25,6.59,6.59,0,0,0-.82,1.58,10.44,10.44,0,0,0-.56,4.33,15.55,15.55,0,0,0,2.56,7.88c.27.4.74.76.56,1.4a14,14,0,0,0-1.42.19,1.87,1.87,0,0,0-1.51,1.86,3.75,3.75,0,0,0,.35,1.73,10.85,10.85,0,0,0,1.58,2.27,10.52,10.52,0,0,0,4.2,2.62,4,4,0,0,1,1.65.68c-.32.46-.58.84-.85,1.21-1,1.28-2,2.53-2.88,3.83a60.84,60.84,0,0,0-9,18.16,64.3,64.3,0,0,0-2.51,19.93A51.1,51.1,0,0,0,28.9,113,35.18,35.18,0,0,0,42,132.3c2,1.45,4.09,2.73,6.14,4.09l1.2.8c-1,1.72-.61,3.38,0,4.95-2.67,4.33-2.69,4.59-.82,8.63-.8,1.4-1.68,2.75-2.35,4.19a76.65,76.65,0,0,0-6,19.19c-.18,1-.27,2.11-.36,3.17a1.24,1.24,0,0,0,.91,1.38c.63.21,1.25.45,1.89.63a141.27,141.27,0,0,0,28.5,4.8c5,.31,10,.47,15,.55a230,230,0,0,0,29.33-1.21,143.24,143.24,0,0,0,21.12-4.2,9.67,9.67,0,0,0,1.31-.46,1.44,1.44,0,0,0,.9-1.43c0-.39-.08-.79-.12-1.19a61,61,0,0,0-2.83-12.43,56.2,56.2,0,0,0-4.48-10.86c-.25-.45-.49-.9-.72-1.33a12.33,12.33,0,0,0,.71-1.09,12.85,12.85,0,0,0,1-2.14c.59-1.85.1-3-1.61-4l-.54-.34c1.37-2.48,1.8-5,.13-7.56l1.77-1.11a52.08,52.08,0,0,0,6.9-5.1A33.28,33.28,0,0,0,147,119.83a44,44,0,0,0,4.3-16.51A68.55,68.55,0,0,0,150.93,90Zm-6.7-16.22a1.15,1.15,0,0,1,.08.28A1.15,1.15,0,0,0,144.23,73.74ZM126.91,36.32a33.92,33.92,0,0,1,2.37-3.2,8.69,8.69,0,0,1,2-1.65,1.43,1.43,0,0,1,2.22.52,4.39,4.39,0,0,1,.69,1.64c.19,1.31.27,2.63.37,3.95,0,.6,0,1.2.07,1.79a.64.64,0,0,0,1.17.17,16,16,0,0,0,.67-1.66,15.55,15.55,0,0,1,2-3.89c1-1.36,2-1.29,2.64.24a7.66,7.66,0,0,1,.6,2.3,13.77,13.77,0,0,1-3.54,10.85c-.53.6-1.11,1.15-1.64,1.75a.63.63,0,0,0-.07.89.71.71,0,0,0,.9.18c.68-.24,1.36-.53,2.05-.75a6.36,6.36,0,0,1,1.36-.3c.81-.08,1.21.45,1,1.27a5.23,5.23,0,0,1-1.55,2.29A15.12,15.12,0,0,1,135,55.82a59.76,59.76,0,0,0-14.49-12C123.33,41.73,125.11,39,126.91,36.32Zm-88.54,17a14.54,14.54,0,0,1-1.87-2,2.8,2.8,0,0,1-.44-1.1.77.77,0,0,1,.85-1,16.59,16.59,0,0,1,2.32.53c.51.14,1,.42,1.49.55a.76.76,0,0,0,.66-.27.75.75,0,0,0,0-.71,11.77,11.77,0,0,0-1.07-1.17,14.57,14.57,0,0,1-4-7.25,14.08,14.08,0,0,1-.14-5,4.54,4.54,0,0,1,1.11-2.52.92.92,0,0,1,1.26-.14,5.09,5.09,0,0,1,1.17,1.33c.68,1.29,1.25,2.64,1.87,4,.26.56.22,1.56,1.13,1.34s.51-1.1.54-1.73c0-1.06,0-2.13.1-3.19a5.81,5.81,0,0,1,.88-2.83,1.5,1.5,0,0,1,2.36-.58,9.86,9.86,0,0,1,2.1,1.82c.81,1,1.49,2,2.23,3.06,1,1.36,1.89,2.74,2.89,4.07a17.63,17.63,0,0,0,1.76,1.91c.56.54,1.19,1,1.8,1.52-2.57,1.92-5.14,3.68-7.51,5.68S45.43,53.75,43.09,56A16.07,16.07,0,0,1,38.37,53.33Zm-3.61,20c.8-1.61,1.53-3.25,2.41-4.81A71.34,71.34,0,0,1,46,56.24c7.7-8.62,17.31-14.15,28.27-17.54a52.47,52.47,0,0,1,35.17,1.82c14,5.4,24.32,15,31.76,27.83.9,1.56,1.7,3.17,2.55,4.75l-.52.38a28.4,28.4,0,0,0-13-8.88,20.72,20.72,0,0,0-19.33,3.07,27.45,27.45,0,0,0-7.24,7.9A40.57,40.57,0,0,0,98.17,90a58.1,58.1,0,0,0,5.2,37.09,44.74,44.74,0,0,0,9.43,12.8c.28.26.55.54,1,1-.52.2-.86.37-1.21.47a81.7,81.7,0,0,1-18.12,2.74,124.4,124.4,0,0,1-14.58-.27,78.38,78.38,0,0,1-13.93-2.49,3.65,3.65,0,0,1-.73-.4,7.25,7.25,0,0,1,.56-.66c6.7-6.26,11-14,13.55-22.69A58,58,0,0,0,81.64,97,46.14,46.14,0,0,0,75.76,76.5a28.44,28.44,0,0,0-7.25-8.42,21,21,0,0,0-14.32-4.57A23,23,0,0,0,45,66.06a31.42,31.42,0,0,0-8.85,6.73c-.32.33-.66.65-1,1l-.25.52a.45.45,0,0,1-.58-.42l-.21.31.21-.31ZM34,74.51a2.11,2.11,0,0,1,.18-.33,2.11,2.11,0,0,0-.18.33,1.17,1.17,0,0,0-.12.57A1.17,1.17,0,0,1,34,74.51Zm10.6,56.87-.32-.23A32.92,32.92,0,0,1,31,111.8a54.54,54.54,0,0,1-1.44-18.62A63.68,63.68,0,0,1,31.74,81a10.6,10.6,0,0,1,2.11-4,40.06,40.06,0,0,1,8.28-7.75,24.85,24.85,0,0,1,8.51-3.81,19.71,19.71,0,0,1,17,3.69,27.53,27.53,0,0,1,6.93,7.92,39.46,39.46,0,0,1,5.1,14.19,58.22,58.22,0,0,1-6.37,37.66,39.43,39.43,0,0,1-7.41,9.86c-.67.64-1.38,1.23-2.13,1.89A66.42,66.42,0,0,1,44.56,131.38ZM137,177.62a81.39,81.39,0,0,1-9.57,2.47,21.6,21.6,0,0,1-5.53.9,48.9,48.9,0,0,0-3.16-11.15l-.25.61.25-.61c-.44-1.28-.44-1.28-1.14-1.84.18.73.31,1.36.48,2a3.68,3.68,0,0,0,.32.7h0l.15.75c.09.27.17.55.26.83.21,1,.42,1.94.62,2.92l1.2,6c-11,2.94-53,2.82-63-.18a37.25,37.25,0,0,1,.67-4.67c.17-1.11.4-2.22.61-3.33l.09-.37c.1-.41.2-.82.31-1.23a15,15,0,0,0,.67-2.06,4.64,4.64,0,0,0,.34-2.5A11.45,11.45,0,0,0,59,170.23a.31.31,0,0,0-.08.33c-.11.28-.22.56-.32.84a40.71,40.71,0,0,0-2.15,9.48,84.17,84.17,0,0,1-14.83-3.44,10.87,10.87,0,0,1,.29-3.1,92.13,92.13,0,0,1,6-19.82l1.2-2.78c.2,0,.44,0,.56.15a33.87,33.87,0,0,0,11.45,6.73A70.37,70.37,0,0,0,75,162.22a98,98,0,0,0,14.7,1.35,79.06,79.06,0,0,0,27.89-4.09,39.08,39.08,0,0,0,8.75-4.3c1.15-.78,2.22-1.67,3.33-2.5C132.28,156.35,136.75,171.38,137,177.62Zm-6.22-30a7.88,7.88,0,0,1-1,2.37,11.5,11.5,0,0,1-3.06,3.12,35.33,35.33,0,0,1-9,4.73,64.14,64.14,0,0,1-14.51,3.5,85.86,85.86,0,0,1-15.54.77,95.09,95.09,0,0,1-22.23-3.46,44.37,44.37,0,0,1-9.54-4,19.5,19.5,0,0,1-4.5-3.29A13.36,13.36,0,0,1,49.67,149a3.75,3.75,0,0,1,.06-4.16,2.3,2.3,0,0,1,.21-.33,3.33,3.33,0,0,0,.47-4c-.47-.9-.35-1.05,0-2.61a6.33,6.33,0,0,1,.9.3,74,74,0,0,0,22.31,7.16,63.72,63.72,0,0,0,10.13.94c3.6,0,7.19.1,10.79,0a75.49,75.49,0,0,0,33.17-8.38c.29-.15.6-.27,1-.45,1.47,2.19,1.05,4.4.28,6.74-2.71.7-5.08,2.22-7.65,3.3-2.33,1-4.72,1.78-7.09,2.66-.56.21-1.13.39-1.69.59l.62.28a32.23,32.23,0,0,0,9.19-2.51c1.45-.66,2.9-1.33,4.39-1.91a9.72,9.72,0,0,1,2.49-.65C130.41,145.78,131.06,146.46,130.82,147.59Zm17.58-40a39.58,39.58,0,0,1-4.54,13.13,30.31,30.31,0,0,1-7.32,8.62,61.45,61.45,0,0,1-15.8,9.2c-1.78.73-3.62,1.33-5.6,2.05-.85-.76-1.62-1.4-2.33-2.1A44,44,0,0,1,103.7,125a59.24,59.24,0,0,1-4.93-18.82,53.9,53.9,0,0,1,1.35-18.81,36.24,36.24,0,0,1,6.49-13.58A29.42,29.42,0,0,1,109.14,71a20.34,20.34,0,0,1,23.39-4.13,32,32,0,0,1,9.67,7c3.37,3.43,3.85,4.22,5,8.84A61.74,61.74,0,0,1,148.4,107.62Z"/><path class="cls-28" d="M111.71,151.39l1.45-.4-.62-.28C112.12,150.71,111.75,150.77,111.71,151.39Z"/><path class="cls-28" d="M85.81,96a8.45,8.45,0,0,0,3.08,4.51,1.7,1.7,0,0,0,2.5-.17A9.42,9.42,0,0,0,94,96.39a5.91,5.91,0,0,0,.21-1.18c0-1.36-.5-2.15-1.54-2.49a7.67,7.67,0,0,0-5.07-.06A2.65,2.65,0,0,0,85.81,96Zm2.46-2.13a7.92,7.92,0,0,1,4.45.24,2.72,2.72,0,0,1,0,2.35A7.12,7.12,0,0,1,90,99.9a9,9,0,0,1-2.84-4.14A1.32,1.32,0,0,1,88.27,93.84Z"/><path class="cls-28" d="M76.51,48.86a.65.65,0,0,0,.79.43.61.61,0,0,0,.45-.76,17.22,17.22,0,0,0-2-5.13c-.11-.19-.39-.29-.49-.36a.67.67,0,0,0-.69.86C75.19,45.56,75.84,47.22,76.51,48.86Z"/><path class="cls-28" d="M102.07,49.4a3.74,3.74,0,0,0,.72-.85c.61-1.46,1.16-2.93,1.72-4.41a1.1,1.1,0,0,0,.09-.56.66.66,0,0,0-.33-.43.79.79,0,0,0-.54.05.66.66,0,0,0-.29.26,19.65,19.65,0,0,0-2,5.13.48.48,0,0,0,.07.37A4,4,0,0,0,102.07,49.4Z"/><path class="cls-28" d="M98.37,63c.09.06.48-.32.71-.53a.74.74,0,0,0,.14-.36c.29-1.37.58-2.73.86-4.1a1.07,1.07,0,0,0,0-.59.72.72,0,0,0-.4-.37.69.69,0,0,0-.54.1.88.88,0,0,0-.31.49c-.37,1.48-.72,3-1.1,4.58A3,3,0,0,0,98.37,63Z"/><path class="cls-28" d="M80.09,62.22a1,1,0,0,0,.4.63.82.82,0,0,0,.68-.11c.12-.08.14-.35.26-.67-.34-1.44-.68-3-1.06-4.53a.68.68,0,0,0-.74-.53c-.35,0-.57.42-.46.93C79.45,59.37,79.76,60.8,80.09,62.22Z"/><path class="cls-28" d="M95.34,78.53a.72.72,0,0,0,.49-.24,1.11,1.11,0,0,0,.26-.52c.24-1.31.47-2.62.7-3.92,0-.14,0-.31,0-.39a1.5,1.5,0,0,0-.57-.47.56.56,0,0,0-.5.22,13.84,13.84,0,0,0-.89,4.85.21.21,0,0,0,.08.17C95,78.35,95.18,78.52,95.34,78.53Z"/><path class="cls-28" d="M83.46,78.39a.54.54,0,0,0,.84-.11,1.54,1.54,0,0,0,.17-.74c-.22-1.31-.47-2.61-.74-3.91a.81.81,0,0,0-.28-.49A.72.72,0,0,0,82.9,73a.88.88,0,0,0-.4.37c-.07.1,0,.26-.08.62.22,1.15.47,2.51.75,3.88A1.42,1.42,0,0,0,83.46,78.39Z"/><path class="cls-28" d="M90.41,71.38a.66.66,0,0,0-.59-.68.57.57,0,0,0-.68.57c0,1.38.08,2.76.18,4.13,0,.16.38.4.58.39s.52-.27.53-.45a18.65,18.65,0,0,0,0-2h0C90.42,72.7,90.44,72,90.41,71.38Z"/><path class="cls-28" d="M89.73,55.88a.76.76,0,0,0-.47.52c0,1.58,0,3.15.07,4.73,0,.18.29.42.5.53s.64-.22.65-.56c0-.78,0-1.57,0-2.36h.06c0-.79,0-1.58-.12-2.36A.54.54,0,0,0,89.73,55.88Z"/><path class="cls-28" d="M93.43,91.06a.55.55,0,0,0,.74-.45c.18-.83.33-1.68.46-2.37a3.93,3.93,0,0,0-.07-.94.87.87,0,0,0-.53-.47c-.2,0-.57.21-.6.38-.21,1.09-.37,2.2-.48,3.31C92.94,90.69,93.23,91,93.43,91.06Z"/><path class="cls-28" d="M89.49,46.31a.58.58,0,0,0,.61-.63c0-.66,0-1.33,0-2h0c0-.73,0-1.46-.11-2.19a.58.58,0,0,0-.67-.56.72.72,0,0,0-.48.51c0,1.4,0,2.79,0,4.19A.63.63,0,0,0,89.49,46.31Z"/><path class="cls-28" d="M85.73,91c.18,0,.33-.32.48-.51s0-.13.08-.45c-.14-.79-.3-1.83-.54-2.85,0-.18-.45-.45-.57-.4s-.62.43-.6.62a32.65,32.65,0,0,0,.52,3.29C85.13,90.89,85.53,91.08,85.73,91Z"/><path class="cls-28" d="M89.76,89.15a.57.57,0,0,0,.67-.55c.06-.45,0-.91.07-1.37h-.06a7,7,0,0,0,0-1.37,1,1,0,0,0-.58-.66.54.54,0,0,0-.65.56c0,1,0,2,0,2.94C89.24,88.87,89.55,89.11,89.76,89.15Z"/><path class="cls-28" d="M66.19,176.49a5.42,5.42,0,0,0,1.09-2.83,5.79,5.79,0,0,0-.11-3C65.94,172.48,66.18,174.41,66.19,176.49Z"/><path class="cls-28" d="M63.57,169.79c-.67.23-.8.85-1,1.36A7.24,7.24,0,0,0,62.7,175C63.59,172.23,63.7,171.52,63.57,169.79Z"/><path class="cls-28" d="M63.75,177.4a3.94,3.94,0,0,0,.15,2.54,4.43,4.43,0,0,0,.46-3.32C64,177,63.81,177.2,63.75,177.4Z"/><path class="cls-28" d="M73.14,98.15A18,18,0,1,0,55,116.06,18,18,0,0,0,73.14,98.15Zm-18,16.74A16.84,16.84,0,1,1,71.94,98,16.66,16.66,0,0,1,55.1,114.89Z"/><path class="cls-28" d="M45.17,79.05a8.2,8.2,0,0,0,3.49.59,16,16,0,0,0,10.9-5.17A7.71,7.71,0,0,0,61,72.31a3.48,3.48,0,0,0-2.56-5.18,9.8,9.8,0,0,0-3-.22,16.09,16.09,0,0,0-9,3.74,11.33,11.33,0,0,0-2,2.16,7,7,0,0,0-1.08,2.32A3.21,3.21,0,0,0,45.17,79.05Zm-.77-3.78a5.34,5.34,0,0,1,1.36-2.39A15.05,15.05,0,0,1,56.12,68a6.65,6.65,0,0,1,2.16.28A2.34,2.34,0,0,1,60,71.7a7.08,7.08,0,0,1-1.84,2.57A15,15,0,0,1,52,77.81c-1.2.36-2.46.52-3.73.78a19,19,0,0,1-2.67-.69A2,2,0,0,1,44.4,75.27Z"/><path class="cls-28" d="M123.85,80.07a18,18,0,1,0,17.93,18.11A17.89,17.89,0,0,0,123.85,80.07Zm-.16,34.82a16.83,16.83,0,1,1,16.9-16.83A16.73,16.73,0,0,1,123.69,114.89Z"/><path class="cls-28" d="M119.47,74.62a16.39,16.39,0,0,0,11,5,20.38,20.38,0,0,0,2.09-.22c2.76-.59,3.88-2.88,2.69-5.45A9.27,9.27,0,0,0,133,71a17.05,17.05,0,0,0-7.55-3.85,10.07,10.07,0,0,0-4.94-.08c-2.57.67-3.65,2.8-2.55,5.22A8.25,8.25,0,0,0,119.47,74.62Zm.88-6.22a7.74,7.74,0,0,1,2.74-.35,15,15,0,0,1,9.43,4.2,8.2,8.2,0,0,1,1.74,2.39c.84,1.73.08,3.16-1.8,3.61a15,15,0,0,1-1.75.24,15.17,15.17,0,0,1-10.7-5,6.14,6.14,0,0,1-1.15-2.06A2.15,2.15,0,0,1,120.35,68.4Z"/><path class="cls-28" d="M101.79,152.38c-1.85.21-3.7.5-5.55.6a82,82,0,0,1-16.12-.68,85.75,85.75,0,0,1-20.33-5.47c-1.59-.66-3.22-1.22-4.83-1.83a3.25,3.25,0,0,0-2.46-.69,9.22,9.22,0,0,0,.76.62c.28.17.57.3.86.45a26,26,0,0,0,6.13,3.26,85,85,0,0,0,21,5.27,63,63,0,0,0,14.13.3,31,31,0,0,0,7.21-1.44,4.24,4.24,0,0,0,.65-.38A3.93,3.93,0,0,0,101.79,152.38Z"/><path class="cls-28" d="M71.37,97A14.51,14.51,0,0,0,58.52,83.58a13.79,13.79,0,0,0-9.34,2.16A14.52,14.52,0,0,0,42.5,95.87c-.57.3-1.06.51-1.51.79a3.08,3.08,0,0,0-1.66,2.77,3.21,3.21,0,0,0,2.06,2.72,5.44,5.44,0,0,0,.57.19l1.22.43A14.52,14.52,0,0,0,71.37,97Zm-30,3.73a1.63,1.63,0,0,1-.22-2.7,4.67,4.67,0,0,1,3-1.16,11.4,11.4,0,0,1,2,.65,1.69,1.69,0,0,1,.25,3A4.45,4.45,0,0,1,41.35,100.74ZM60.3,110.86a13.14,13.14,0,0,1-15.77-8.18c.62-.22,1.12-.37,1.6-.58a3.08,3.08,0,0,0-.42-6A17.52,17.52,0,0,0,44,95.7C44.36,90,50,85,56.2,84.67a13.33,13.33,0,0,1,4.1,26.19Z"/><path class="cls-28" d="M130.85,86.52a13.9,13.9,0,0,0-10.5-2.93,14.48,14.48,0,1,0,7.51,27.64,14.62,14.62,0,0,0,7.91-8.55,9.37,9.37,0,0,0,1.38-.42,5.82,5.82,0,0,0,1.37-.79,2.68,2.68,0,0,0,.27-4,6.24,6.24,0,0,0-1.25-1,10.12,10.12,0,0,0-1.14-.56A14.59,14.59,0,0,0,130.85,86.52Zm7.05,11.64a1.58,1.58,0,0,1-.17,2.44,4.41,4.41,0,0,1-2.84.84,3.94,3.94,0,0,1-2.65-1.11,1.63,1.63,0,0,1,.16-2.59A4.53,4.53,0,0,1,137.9,98.16Zm-4-2.27a6.84,6.84,0,0,0-1.51.49,3,3,0,0,0-1.9,2.6,3.08,3.08,0,0,0,1.66,2.78,10.29,10.29,0,0,0,1.26.57l.89.4c-1.93,6-8.51,9.63-15.06,8.27a13.31,13.31,0,0,1,2.25-26.31A13,13,0,0,1,135,95.75,8.64,8.64,0,0,0,133.9,95.89Z"/></g></g></svg>