<svg xmlns="http://www.w3.org/2000/svg" viewBox="0 0 175.83 196.79"><defs><style>.cls-1{fill:#d7e9e6;}.cls-2{fill:#f5e6ba;}.cls-3{fill:#f2db9d;}.cls-4{fill:#8eacfa;}.cls-5{fill:#8870ea;}.cls-6{fill:#6148cb;}.cls-7{fill:#7c97ed;}.cls-8{fill:#634acb;}.cls-9{fill:#f5e1ae;}.cls-10{fill:#f5e2b0;}.cls-11{fill:#fff;}.cls-12{fill:#f0858f;}.cls-13{fill:#fbf4e3;}.cls-14{fill:#a46f5a;}.cls-15{fill:#a6705b;}.cls-16{fill:#92614d;}.cls-17{fill:#e99890;}.cls-18{fill:#f5d275;}.cls-19{fill:#f4e1b4;}.cls-20{fill:#cfc1bb;}.cls-21{fill:#edd487;}.cls-22{fill:#dacea3;}.cls-23{fill:#decaa6;}.cls-24{fill:#cfc3c4;}.cls-25{fill:#afa8dc;}.cls-26{fill:#b8b4d6;}.cls-27{fill:#ccbfb0;}.cls-28{fill:#b2bec5;}.cls-29{fill:#d8cbb3;}.cls-30{fill:#b9b4cb;}.cls-31{fill:#bdb4cf;}.cls-32{fill:#d1d49d;}.cls-33{fill:#abaddb;}.cls-34{fill:#c6c8ae;}.cls-35{fill:#d3cfa6;}.cls-36{fill:#bdc0bb;}.cls-37{fill:#d8c1a5;}.cls-38{fill:#b5abca;}.cls-39{fill:#b3abcb;}.cls-40{fill:#404cb5;}.cls-41{fill:#3a4397;}.cls-42{fill:#384297;}.cls-43{fill:#e8cf8b;}.cls-44{fill:#f2cd7c;}.cls-45{fill:#7b4727;}</style></defs><g id="Calque_2" data-name="Calque 2"><g id="OBJECTS"><rect class="cls-1" y="12.66" width="175.83" height="181.36" rx="68.69"/><path class="cls-2" d="M147.63,90.46a2.56,2.56,0,0,1,0,.39l.36.41a54.86,54.86,0,0,0,6.32,10.15,30.66,30.66,0,0,1,4.87,8.66,18.8,18.8,0,0,1,.81,7.29,8.21,8.21,0,0,1-1.16,3.38,40.1,40.1,0,0,1-4.22,6c-1.51,1.86-3.15,3.6-4.83,5.31a50,50,0,0,1-10.14,7.71,68.47,68.47,0,0,1-13.8,6.22c-2.9,1-5.81,1.95-8.79,2.66-.32.08-.65.11-1,.16-1.6,1.15-3.5.64-5.21.7-14.37.54-28.58-.68-42.39-4.92a66,66,0,0,1-25.21-13.76,36.75,36.75,0,0,1-8.45-10.77,14.49,14.49,0,0,1-.34-12.9c2-4.6,4.82-8.73,7.46-13A2.4,2.4,0,0,1,43.48,93c2.53.89,5.07,1.49,7.76.66a16.76,16.76,0,0,0,6.62-3.55c.78-.73,1.61-1.55,1.2-2.75a3.07,3.07,0,0,0-2.91-2.07,15.45,15.45,0,0,0-5.85,1c-.86.27-1.72.81-2.67.21-.62-1-.06-1.8.41-2.59C55.92,70.7,66.52,60.5,81.26,55.14,87,53,93.16,52.29,99.08,50.75c3.23-.85,6,.18,8.85,1.11a23.84,23.84,0,0,0,3.75,1.32,1.25,1.25,0,0,0,1.3-.93c.19-.51.36-1.18,1.18-1,.71,1.52,1.1,3.29,3,3.85,2.65,1.56,5.4,2.95,8.06,4.5,1.56,1.68,3.64,2.66,5.38,4.11a49.73,49.73,0,0,1,9.84,11.48,83.6,83.6,0,0,0,4.67,7.2,22.64,22.64,0,0,0,1.92,5.23A5.15,5.15,0,0,1,147.63,90.46Z"/><path class="cls-3" d="M43.6,93.27a11.73,11.73,0,0,0-1.86,2.81c-1.41,2.17-2.74,4.4-4.05,6.63a45.5,45.5,0,0,0-2.91,5.9c-.63,1.52-.55,3.13-1,4.67A20.58,20.58,0,0,0,35,118.69a33,33,0,0,0,4.49,7A36.26,36.26,0,0,0,43,129.53a66.4,66.4,0,0,0,7.83,6.12,72.65,72.65,0,0,0,8.6,4.63,62.49,62.49,0,0,0,10.06,3.8,111,111,0,0,0,12.22,2.83c1.57.27,3.14.49,4.72.71q2.66.38,5.31.71a13,13,0,0,0,1.39.08,13.68,13.68,0,0,1,3.37.29,7.73,7.73,0,0,0,2,.11l17.57,0a1.16,1.16,0,0,0,.79.41c-.31,1.33-1.48,1.16-2.42,1.4-1.93-.06-3.68.76-5.53,1.11a7.91,7.91,0,0,1-2.69.36c-1.06-.43-2.13,0-3.13.15-6.11,1-12.26.8-18.4.7-3.82-.07-7.62-.75-11.42-1.11A12.9,12.9,0,0,1,71,152a22.55,22.55,0,0,0-7.29-1.61c-1-.43-2.2-.55-2.77-1.69.07-.19.17-.44,0-.54a10.11,10.11,0,0,0-1.29-.5c-2.77-1-5.58-1.81-8.28-2.92a97.92,97.92,0,0,1-14.16-6.89,48.45,48.45,0,0,1-10.69-8.9,27.77,27.77,0,0,1-6-10,7.1,7.1,0,0,0-.66-1.66,3.85,3.85,0,0,1-.35-3.07,29.9,29.9,0,0,1,5.88-12.75c2.12-2.81,4-5.79,5.85-8.8.32-.53.25-.76-.41-1a1.52,1.52,0,0,1-1.05-.84,51.35,51.35,0,0,0-3.65-7.94,15.78,15.78,0,0,1-1.48-4.52A70.39,70.39,0,0,1,22.84,69a64.77,64.77,0,0,1-.26-9.94,37.57,37.57,0,0,1,.84-6.49,85.59,85.59,0,0,1,6.19-18.69q1.52-3.36,3.16-6.66a3.87,3.87,0,0,1,1-1.49c1,1.23.25,2.42-.17,3.55a93.61,93.61,0,0,0-5.19,18.18c-1.54,10.06-.77,19.86,3.42,29.26a6.11,6.11,0,0,0,.92,1.53c1.22,1.19,1,3.19,2.44,4.28.9,0,1-.77,1.3-1.31A64.08,64.08,0,0,1,60.73,57.5c.63-.37,1.2-.83,1.84-1.18,4.44-1.21,6-4.21,6.55-8.7,2-16.34-1.74-30.89-12.39-43.57-.66-.79-1.7-1-2.24-1.93a2.13,2.13,0,0,1,2.09-.26,10.67,10.67,0,0,1,4.86,2.6c2.24,2.27,4.57,4.46,6.74,6.79A31.45,31.45,0,0,1,74,19.53a48.33,48.33,0,0,1,2.5,7.33c.47,1.73,1,3.45,1.36,5.2s.69,3.78,1,5.66c-.38,2,.13,3.94,0,5.91-.1,2.28-.08,4.58-.06,6.86.52.31,1,0,1.56,0,1.38-.18,2.74-.46,4.11-.67a10.6,10.6,0,0,1,1.59-.09c2.2,0,4.39,0,6.59,0a28,28,0,0,1,5.55.36c1.77.35,1.86.23,1.8-1.51a47.11,47.11,0,0,1,.54-6.73,79.58,79.58,0,0,1,2.45-12.08,60.3,60.3,0,0,1,6.81-15.87,22.27,22.27,0,0,1,3.58-4.52c1-.92,1.89-1.87,2.82-2.82a18.8,18.8,0,0,1,5-3.56c.82,1.33-.06,2.45-.54,3.55-1.52,3.47-3.47,6.74-4.91,10.26a51.52,51.52,0,0,0-4.3,20.76c.07,3.14-.45,6.39.8,9.45-.19,2.36.07,4.75-.6,7.07-2.84-.94-5.59-2.12-8.51-2.85a5,5,0,0,0-2.92-.05c-3.05,1-6.19,1.5-9.31,2.16a60.22,60.22,0,0,0-16.2,5.45,54.87,54.87,0,0,0-9.31,6.1,67.69,67.69,0,0,0-6.4,5.67c-1.23,1.31-2.42,2.65-3.55,4A83.3,83.3,0,0,0,48.47,84.7a4,4,0,0,0-.74,1.82.78.78,0,0,1-.27.89A9.52,9.52,0,0,0,43.6,93.27Z"/><path class="cls-4" d="M124.87,192.77a1.74,1.74,0,0,1-1.48.86c-2.18.23-4.36.49-6.54.75l-8.51,1c-.33,0-.66.1-1,.11-3.33.14-6.65.36-10,.39-7.32.06-14.64.08-22,0-3.45,0-6.91-.25-10.35-.61-1.92-.2-3.84-.35-5.77-.5a9.34,9.34,0,0,1-2.35-.41,1.81,1.81,0,0,1-.08-1.72c1.62-4.37,2.44-9,3.89-13.39a21.88,21.88,0,0,1,3.54-6.87,20.84,20.84,0,0,0,4-9.23,15.28,15.28,0,0,0-.2-5.14c-.39-2.56.34-3.14,2.86-2.38.77.23,1.46.65,2.2.93a3.65,3.65,0,0,1,.56.18c1.61,1.62,2.84,3.64,5,4.71a6.92,6.92,0,0,0,1.31.77c.31.1.57.3.88.4a3.57,3.57,0,0,1,.46.16,4.37,4.37,0,0,0,1.24.22c1.11.22,2.19.6,3.31.78a8,8,0,0,0,2.91.4c.48,0,1,0,1.45,0a12.73,12.73,0,0,0,7.43-2.91l.34-.39c.11-.13.23-.25.35-.37s.12-.12.17-.19.22-.26.34-.39.11-.13.16-.21a2.93,2.93,0,0,1,.38-.41,2.35,2.35,0,0,1,1.28-.7c3.3-.92,6.73-1.25,10-2.5a1.68,1.68,0,0,1,1.52.14c.67.64.49,1.47.49,2.25a19.58,19.58,0,0,0,1.59,7.88,1.88,1.88,0,0,1,.29.52c.11.26.13.54.23.81a4.16,4.16,0,0,0,1.78,2.18,8.24,8.24,0,0,1,2.46,2.63,8.12,8.12,0,0,0,.8,1.48,30.64,30.64,0,0,1,2.51,6.94c.42,1.2.61,2.47,1,3.67.12.46.08.94.19,1.4a17,17,0,0,0,.59,2.08,1.84,1.84,0,0,1,.1.52,8.87,8.87,0,0,0,.75,3.09A1.14,1.14,0,0,1,124.87,192.77Z"/><path class="cls-2" d="M111.62,46.89a15,15,0,0,1-.76-4.47,15.19,15.19,0,0,0-.29-4.36,1.82,1.82,0,0,1,.06-1,6,6,0,0,0,.22-2.18,29.22,29.22,0,0,1,1-8.28A63,63,0,0,1,117.1,12,81.21,81.21,0,0,0,121,3.91c.11-.31.2-.63.3-1a7.51,7.51,0,0,1,3.18-1.1,6.47,6.47,0,0,1,5.3,1.8,43.67,43.67,0,0,1,3.86,3.72A99.63,99.63,0,0,1,143.83,20.6a90.33,90.33,0,0,1,6.67,12.7c.81,1.82,1.64,3.63,2.45,5.45a7.5,7.5,0,0,1,.3,1,50.73,50.73,0,0,1,1.95,12.94,49.1,49.1,0,0,1-3.55,18.48c-.49,1.31-1,2.61-1.58,3.88-.4.84-.77,1.72-1.81,2-1.25-.77-.65-1.89-.43-2.85.65-2.84,1.34-5.68,1.8-8.57,1.06-6.57.08-13-1.6-19.31-2.85-10.75-8.49-20-15.61-28.42a2.46,2.46,0,0,0-1-.89c-1.84-.82-3.37,0-4.86.94A22.15,22.15,0,0,0,120,25.12a58,58,0,0,0-6.92,17.79C112.79,44.28,113,45.9,111.62,46.89Z"/><path class="cls-2" d="M54.49,2.12l1,0a1.62,1.62,0,0,1,1.35.7,90.94,90.94,0,0,1,6.75,9.59,45.13,45.13,0,0,1,5.7,15.42c.37,2.28.62,4.58.89,6.88s.25,4.63.31,6.94a12.18,12.18,0,0,1-.21,2.17c-.26,1.57-.36,3.16-.6,4.73s-.54,2.86-.86,4.28a2.2,2.2,0,0,1-1.09,1.6,40,40,0,0,1-5.21,2.46.31.31,0,0,1-.49,0,.88.88,0,0,1,.21-.82,13.64,13.64,0,0,1,3.06-2.23c1-.33,1.7-.8,1.71-2.09,0-6.28-.42-12.53-2.91-18.34a56.15,56.15,0,0,0-8.48-14.29c-1.95-2.31-4.24-2.68-7.18-1.48C44.63,20.89,42,25,39.4,29.22A61.11,61.11,0,0,0,30.71,52.8a55.09,55.09,0,0,0,1.71,22.67c.31,1.1,1,2.25.09,3.4a2.65,2.65,0,0,1-1.16-1.57c-.7-1.8-1.57-3.52-2.16-5.37a51.06,51.06,0,0,1-2-8.32,34.5,34.5,0,0,1-.32-4.76c0-1.46,0-2.93,0-4.39a38,38,0,0,1,.94-8.89,98.24,98.24,0,0,1,4.9-16.41,11.34,11.34,0,0,0,1-3.43h0c.24-.21.14-.59.39-.8A75.47,75.47,0,0,1,41.5,12.7a39.76,39.76,0,0,1,6.61-7.11A14.3,14.3,0,0,1,54.49,2.12Z"/><path class="cls-5" d="M118.45,172.69l-2.29-2.29c-.73-.64-1.08-1.57-1.74-2.27-.22-.27-.08-.69-.36-.94v0c-1.67-3.61-1.73-7.45-1.58-11.31.17-.58.67-.74,1.17-1a40.88,40.88,0,0,0,5.33-2.58,2.77,2.77,0,0,1,1.89-.38c.36.47.76.92,1.07,1.42,2.52,4.08,5,8.21,7.22,12.44a82.62,82.62,0,0,1,6,15.43c.47,1.59.94,3.19,1.35,4.8a18.35,18.35,0,0,1,.51,2.74c.17,1.74-.51,2.75-2.18,3-2.3.38-4.58.82-6.87,1.28a4.32,4.32,0,0,1-3.11-.35l-.4-.79c-.38-1.18-.46-2.43-.81-3.61h0c-.44-.6,0-1.44-.55-2-.17-.67.14-1.44-.41-2a22.78,22.78,0,0,0-.79-3.48,24.59,24.59,0,0,0-2.4-6.54C119.33,173.66,118.67,173.32,118.45,172.69Z"/><path class="cls-6" d="M60.92,148.69A4.23,4.23,0,0,1,63.84,150a3.37,3.37,0,0,1,1.33,4A58.29,58.29,0,0,0,54.5,170.32a118.07,118.07,0,0,0-6.74,19.82c-.25,1-.33,2-1.26,2.63a9.91,9.91,0,0,1-3.87-.85,2.38,2.38,0,0,1-1.71-3c0-.32.14-.65.22-1a108.75,108.75,0,0,1,10.27-26.76c1.69-3.1,3.28-6.25,5.26-9.19.22-.33.44-.67.68-1A5.42,5.42,0,0,1,60.92,148.69Z"/><path class="cls-5" d="M46.5,192.77a14,14,0,0,1,.81-3.89,128.87,128.87,0,0,1,5.4-16.47,72.61,72.61,0,0,1,9.51-16.32c.28-.37.57-.73.83-1.12A1.93,1.93,0,0,1,64.9,154c.95.29,1.13,1.1,1.16,1.9a30.74,30.74,0,0,1-.78,9.88A14.45,14.45,0,0,1,60.11,173a5.15,5.15,0,0,0-2.2,3,2.83,2.83,0,0,1-.13.5c-.1.31-.27.59-.34.91a3.53,3.53,0,0,1-.15.46,4.6,4.6,0,0,0-.29.91,2.16,2.16,0,0,1-.16.49,10,10,0,0,0-.55,1.79,39.9,39.9,0,0,0-1.84,9.36c-.13,1.12-.25,2.25-1.54,2.72a1.39,1.39,0,0,1-1.48.73A34.71,34.71,0,0,1,46.5,192.77Z"/><path class="cls-3" d="M148,76.88a5.5,5.5,0,0,0,1.21-2,62.31,62.31,0,0,0,4.24-13,22.73,22.73,0,0,0,.59-4.12c0-1.19.45-2.34.38-3.55a16.39,16.39,0,0,0-.32-3.76A5.31,5.31,0,0,1,154,49a10.52,10.52,0,0,0-.32-3.35,2,2,0,0,1-.07-.59,18.12,18.12,0,0,0-.39-4.35,4.67,4.67,0,0,1,0-1,27.31,27.31,0,0,1,2,5.61,66.79,66.79,0,0,1,1.88,8.75,52.32,52.32,0,0,1,.5,5.73c.09,2.46,0,4.92,0,7.38A41.6,41.6,0,0,1,152.55,87c-.44.82-.93,1.61-1.42,2.4a4.63,4.63,0,0,1-.63.76,1.55,1.55,0,0,1-2.14.37c-.23-.15-.46-.28-.73-.09-1.13-2-1.89-4.16-2.9-6.21-.3-.61,0-1.14.1-1.71a3,3,0,0,1,.79-1.46,5.36,5.36,0,0,0,1-2.36C146.85,78,146.84,76.94,148,76.88Z"/><path class="cls-7" d="M59.31,172.66a11.86,11.86,0,0,1,1.55-1.54,9.8,9.8,0,0,0,3.67-5.71,18.62,18.62,0,0,0,.78-6.08c0-1.12,0-2.25,0-3.38a3.76,3.76,0,0,0-.4-1.92c-.07-1.41-.84-2.64-1.06-4,.3-.11.64-.36.9-.29a29.7,29.7,0,0,0,3.1.35,4.09,4.09,0,0,1,3,1.56c1.43.48,1.79,1.78,2.28,3,0,.84.83,1.65.14,2.54-1.08-.33-2.17-.63-3.24-1s-1.82-.49-1.36,1.14a20.64,20.64,0,0,1,.56,3.14,12.35,12.35,0,0,1-.54,4.52,19.84,19.84,0,0,1-3.88,8,18.25,18.25,0,0,0-3.1,5.76c-.81,2.39-1.48,4.83-2.07,7.29a49.11,49.11,0,0,1-2.74,8.32,5.57,5.57,0,0,1-4-1.25,7.16,7.16,0,0,0,.8-2.75c.88-3.25,1.39-6.58,2.22-9.85.41-.51.25-1.21.58-1.75v0c.38-.33,0-.9.41-1.22l0,0c.39-.32,0-.89.42-1.22l0,0A17.1,17.1,0,0,1,59.31,172.66Z"/><path class="cls-8" d="M120.88,152a24.28,24.28,0,0,1-5.63,3.14,4.87,4.87,0,0,1-2.29.49,1,1,0,0,1-.52-.75,25.81,25.81,0,0,1,.17-2.91,1.66,1.66,0,0,1,1.74-1.87l2.54-.84c.33-.05.66-.06,1-.14a1.22,1.22,0,0,1,1.55.8A18.15,18.15,0,0,0,120.88,152Z"/><path class="cls-9" d="M78.86,50.49c-.34.11-.8.13-.71-.32.66-3.5.2-7,.34-10.54,0-.66-.13-1.35.38-1.91a4.1,4.1,0,0,0,0,.79c.63,2.94.3,5.92.4,8.87A8,8,0,0,1,78.86,50.49Z"/><path class="cls-10" d="M26.1,82.89c.35-.19.47.07.58.31a49.1,49.1,0,0,1,2.42,5.14c.21.62.56,1.18.82,1.78a.61.61,0,0,1-.17.71,60.7,60.7,0,0,1-3.37-7C26.27,83.53,26.19,83.2,26.1,82.89Z"/><path class="cls-3" d="M34.12,24.92a1,1,0,0,1-.39.8A1,1,0,0,1,34.12,24.92Z"/><path class="cls-3" d="M148,91.26l-.36-.41Z"/><path class="cls-11" d="M124.84,60.05a61.15,61.15,0,0,1-5.94-3.13l-2-1.26c-.88-2.77.12-5.33,1-7.87.34-1,1.34-.84,2.24-.6,2.35.61,3.3-.09,3.48-2.56a26.78,26.78,0,0,1,.34-4.56,10.46,10.46,0,0,1,2-4.28c2.26-2.73,5.48-2.54,7.46.43.18.28.39.54.58.8a3.53,3.53,0,0,0,.88.8c3.61,2.52,4.6,4.94,3.56,9.24-.4,1.67-.5,3,1,4.25a4.3,4.3,0,0,1,1.37,4.17,3.34,3.34,0,0,1-2.41,3.08A20.68,20.68,0,0,0,135.17,60a31.85,31.85,0,0,1-6.42,1.26C127.26,61.49,126.06,60.74,124.84,60.05Z"/><path class="cls-12" d="M111.62,46.89a63.93,63.93,0,0,1,4-14.73,40.35,40.35,0,0,1,3.83-7.63,24.38,24.38,0,0,1,6.13-7c.54-.38,1.1-.72,1.67-1.06a4.29,4.29,0,0,1,4.36-.3,2.11,2.11,0,0,1,.28,2.25c-1.56,4-2.22,8.27-3.43,12.37-.76,1.16-2.18,1.51-3.06,2.49-4.34,4.88-9,9.55-10.46,16.3-.14.63-.25,1.32-.94,1.66a2.83,2.83,0,0,0-.35,1.51c-.15,1.07-.33,1.2-1.56,1.31a2.56,2.56,0,0,1-.39,0,9.73,9.73,0,0,1-.27-5A8.59,8.59,0,0,0,111.62,46.89Z"/><path class="cls-11" d="M42.51,113.58a9.39,9.39,0,0,1,1.3-5.73A11.76,11.76,0,0,1,48,103.63a1.33,1.33,0,0,1,.54-.25c1.6-.18,3.05-.92,4.63-1.17a4,4,0,0,1,1.19-.1c2.4.36,4.69,1,6.47,2.79a12.56,12.56,0,0,1,3,3.95,10.9,10.9,0,0,1,.2,7.63,11,11,0,0,1-4.71,6.25,10.85,10.85,0,0,1-13.15-.91,16.77,16.77,0,0,1-1.91-2A8.2,8.2,0,0,1,42.51,113.58Z"/><path class="cls-11" d="M123.05,102.48a11.81,11.81,0,0,1,7.14,1.8,9.16,9.16,0,0,1,4.2,8.72,12.24,12.24,0,0,1-3,7.65,10.75,10.75,0,0,1-7.82,3.81,11.23,11.23,0,0,1-8-2.95,8.81,8.81,0,0,1-2.13-2.85,10.64,10.64,0,0,1,2-12.51,13.15,13.15,0,0,1,2.76-2.28C119.72,102.87,121.39,102.09,123.05,102.48Z"/><path class="cls-13" d="M114,51.26a19.25,19.25,0,0,1,4.6-11,44.91,44.91,0,0,0,3.14-4.1,18.55,18.55,0,0,1,2.59-3A9.77,9.77,0,0,1,128,30.87c1.16-1.41,1.92-1.55,3.31-.61,2.25,1.52,3.22,5.44,1.86,7.46a.88.88,0,0,1-.12-.17c-.59-1.92-.61-1.88-2.26-2.67a3,3,0,0,0-3.35.44,8.44,8.44,0,0,0-2.58,4.18,12.51,12.51,0,0,0-.45,4.35,6.79,6.79,0,0,1-.3,2.56,2.75,2.75,0,0,1-4,1.74c-.24-.12-.45-.28-.69-.41-.68-.36-.9-.29-1.12.51-.27,1-.48,2.06-.68,3.1-.28,1.44-.54,2.87-.8,4.31a5.84,5.84,0,0,0-1.77-.82c-.8-.1-1-.69-1.05-1.42S114,52,114,51.26Z"/><path class="cls-12" d="M124.84,60.05c3.06.77,6,.18,9-.48l1.34-.32c1.27-.38,2,.38,2.6,1.3,3.32,5.14,6.41,10.39,8.22,16.3a7.3,7.3,0,0,1,.07,4.86,1.58,1.58,0,0,1-1.25.83,2.6,2.6,0,0,1-1.57-1.44c-1.23-2-2.43-4-3.65-5.94a41.88,41.88,0,0,0-3.78-5.11c-.78-.91-1.54-1.83-2.36-2.7A48.89,48.89,0,0,0,125.82,61C125.44,60.74,125,60.53,124.84,60.05Z"/><path class="cls-14" d="M43.6,93.27a3.78,3.78,0,0,1,.71-3.85,7.84,7.84,0,0,1,1.83-1.76l1.58-1.14A23.73,23.73,0,0,1,53.6,84.7c.73-.07,1.45-.13,2.18-.18a4,4,0,0,1,3.75,1.75A2.4,2.4,0,0,1,59.81,89a5.51,5.51,0,0,1-1.51,1.84,16.79,16.79,0,0,1-10.79,4A4.89,4.89,0,0,1,43.6,93.27Z"/><path class="cls-14" d="M122.56,84.84A15.32,15.32,0,0,1,132.13,89a8.14,8.14,0,0,1,1.74,2.64,1,1,0,0,1-.37,1.4,7.34,7.34,0,0,1-5.2,1.61,15.9,15.9,0,0,1-8.85-3.19,6.5,6.5,0,0,1-2.08-2.37,2.62,2.62,0,0,1,1.2-3.7C119.41,84.94,120.23,84.8,122.56,84.84Z"/><path class="cls-15" d="M87.22,112.41a4.84,4.84,0,0,1,3.18-.76,1.72,1.72,0,0,1,1.08.41c1.52,1.24,1.46,2.38-.22,3.84C88.26,115.64,87.3,114.81,87.22,112.41Z"/><path class="cls-16" d="M87.22,112.41c.09.09.23.17.26.28a3.54,3.54,0,0,0,3.11,2.58.86.86,0,0,1,.67.63c-2,1-3.27.78-4.73-.83-1.21-1.34-1.18-1.56.33-2.51A2.28,2.28,0,0,1,87.22,112.41Z"/><path class="cls-17" d="M32.51,78.87c-.65-2.85-1.64-5.61-2.13-8.51-.29-1.77-.52-3.54-.75-5.32a35.85,35.85,0,0,1-.28-5.57c.07-2.39.41-4.75.67-7.13a58.51,58.51,0,0,1,1.65-8A35.17,35.17,0,0,1,33.14,40,76.64,76.64,0,0,1,43.68,21.51,20.35,20.35,0,0,1,48.13,17c.17.1.4.18.48.34,2,4.13,3.68,8.36,3.41,13.09a1.56,1.56,0,0,1-1.1.74,4.33,4.33,0,0,0-3.75,4.15c.34,2.79.34,2.79-2.19,4.11-2.69,1.42-3.62,4.26-2.39,7.34s1.19,3-1.06,5.17c-1.64,1.6-1.58,2.85-.07,4.64,1.14,1.36,3.1,1.55,4.07,3.09.25,1.09-.38,1.92-.86,2.78-2.19,3.95-4.73,7.72-6.39,12C37.19,77.16,36,79.92,35.87,83c-.18.49-.49.61-.94.32a3.4,3.4,0,0,1-1.54-2C33.1,80.49,32.8,79.68,32.51,78.87Z"/><path class="cls-5" d="M72.49,154.79l-1.6-3.14a2.26,2.26,0,0,1,1.83-.4,2.6,2.6,0,0,1,1.3,1.17,7.61,7.61,0,0,0,.51.87l.33.41a33.56,33.56,0,0,0,4.52,5.15,7,7,0,0,0,6,2.17c6.73,1.07,11.66-1.51,15-7.37,1.7-2.05,3-2.24,4.26-.6,0,3-1.69,4.79-4.11,6.13l-.79.71a2.38,2.38,0,0,1-.43.52l0,0-.43.42,0,0-.43.42,0,0a15,15,0,0,1-8.13,3.41H88.71c-1-.1-2,.2-3-.18a13.41,13.41,0,0,1-3.54-.82c-.34-.36-.92,0-1.26-.41h0a5.72,5.72,0,0,0-1-.62c-.46-.22-.85-.55-1.3-.79a22.19,22.19,0,0,1-4.7-4.73C73.36,156.32,73,155.52,72.49,154.79Z"/><path class="cls-7" d="M100.48,159.18c.77-1,1.57-1.94,2.32-2.93a5.43,5.43,0,0,0,1.3-3c.59-.84,1.06-1.84,2.36-1.64l5.75-1.41a4.43,4.43,0,0,1,2.14-.09c-.58.39-1.07.68-1,1.64a5.6,5.6,0,0,1-.39,3.06c-.72.31.27,1.5-.83,1.62a9.2,9.2,0,0,0-2.22.8,30.77,30.77,0,0,1-7.29,1.62C101.9,158.89,101.19,159.06,100.48,159.18Z"/><path class="cls-18" d="M106.46,151.59c-.5.41-1,.81-1.5,1.23a1.51,1.51,0,0,1-.86.41c-.59-1.1-1.11-1.31-1.92-.66a14,14,0,0,0-1.34,1.43c-5.86-.79-11.71.45-17.57,0-1.45-.1-2.9-.32-4.33-.52a9.6,9.6,0,0,0-4.82.07v0c-.28-.17-.18-.56-.44-.73-.31-.53-.63-1.06-1-1.58,2-.21,3.82.36,5.72.55a4.35,4.35,0,0,0,.58.13c2.13-.07,4.21.48,6.34.48h8.37a13.8,13.8,0,0,0,4.15-.33,2.56,2.56,0,0,1,.79-.06,29.11,29.11,0,0,0,6.1-.7A1.74,1.74,0,0,1,106.46,151.59Z"/><path class="cls-19" d="M34.93,83.29a1,1,0,0,0,.75-.46,9.69,9.69,0,0,1,2.07-5.29A61.92,61.92,0,0,1,54.35,60.8c.38-.26.72-.58,1.08-.88a19.79,19.79,0,0,1,4.48-2.74c.7-.3,1.39-.79,2.2-.28h.41c-.67,1-1.81,1.32-2.76,1.9a69.08,69.08,0,0,0-7.56,5.11,52.78,52.78,0,0,0-7,6.48A60.48,60.48,0,0,0,38.56,79l-2.48,4.3C35.74,83.91,35.56,83.91,34.93,83.29Z"/><path class="cls-20" d="M112.12,156.41a9.14,9.14,0,0,0,.33-.87,1.1,1.1,0,0,1,.5-.75c0,.27,0,.55,0,.83a29.62,29.62,0,0,0,.35,8.51,12.62,12.62,0,0,1,.76,3.08c-1.09-1.17-1.25-2.7-1.59-4.15A23.91,23.91,0,0,1,112.12,156.41Z"/><path class="cls-21" d="M74.09,156.81a35.19,35.19,0,0,0,4.77,4.84c.09.35,0,.54-.38.37a11.88,11.88,0,0,1-4.84-4.79C73.53,156.82,73.71,156.71,74.09,156.81Z"/><path class="cls-22" d="M90.48,164.41,92.2,164a14.81,14.81,0,0,0,4.89-2.08,2.71,2.71,0,0,1,1.39-.7,8,8,0,0,1-4.17,2.8,13.11,13.11,0,0,1-3.84.77c-.16-.08-.21-.15-.15-.23S90.42,164.41,90.48,164.41Z"/><path class="cls-23" d="M119.59,174a17.22,17.22,0,0,1,2.53,6.71c.13.41-.06.5-.42.41a45.12,45.12,0,0,0-2.51-7.17C119.35,173.83,119.48,173.85,119.59,174Z"/><path class="cls-24" d="M121.7,181.16l.41-.41a10.46,10.46,0,0,1,.76,3.62c.12.1.15.2.1.29s-.09.14-.13.14C122.14,183.68,122.14,182.35,121.7,181.16Z"/><path class="cls-25" d="M123.66,188.37a6.57,6.57,0,0,1,.81,3.61A6.08,6.08,0,0,1,123.66,188.37Z"/><path class="cls-26" d="M114.56,168a6.84,6.84,0,0,1,1.59,2.42c-1.09-.46-1.45-1.53-2-2.42C114.27,167.74,114.42,167.74,114.56,168Z"/><path class="cls-27" d="M74.09,156.81l-.45.42-.33-.06-.82-2.38A6.28,6.28,0,0,1,74.09,156.81Z"/><path class="cls-28" d="M85.68,164.42l3.22,0c.15.09.2.16.14.24a.21.21,0,0,1-.16.11H86.75A1.49,1.49,0,0,1,85.68,164.42Z"/><path class="cls-29" d="M78.48,162c.13-.12.26-.24.38-.37l1.23.77q.18.15.12.3c0,.1-.07.15-.11.15A2.91,2.91,0,0,1,78.48,162Z"/><path class="cls-25" d="M123.29,186.37c.52.6.35,1.32.38,2-.58-.55-.4-1.37-.75-2C123,186.11,123.17,186.11,123.29,186.37Z"/><path class="cls-30" d="M119.59,174l-.4,0a1.4,1.4,0,0,1-.74-1.3A3,3,0,0,1,119.59,174Z"/><path class="cls-31" d="M123.29,186.37h-.37c0-.52,0-1.05-.08-1.57l0-.43C123.39,185,123.22,185.69,123.29,186.37Z"/><path class="cls-32" d="M88.88,164.79c0-.12,0-.23,0-.35l1.58,0c0,.12,0,.24,0,.35Z"/><path class="cls-33" d="M80.1,162.87c0-.15,0-.3,0-.45a1.6,1.6,0,0,1,.81.77A1,1,0,0,1,80.1,162.87Z"/><path class="cls-33" d="M80.88,163.19a1.43,1.43,0,0,1,1.26.41A1.38,1.38,0,0,1,80.88,163.19Z"/><path class="cls-20" d="M114.56,168h-.44l-.06-.79C114.39,167.35,114.46,167.67,114.56,168Z"/><path class="cls-34" d="M98.86,160.81l.43-.42Z"/><path class="cls-35" d="M98.46,161.21a.56.56,0,0,1,.43-.42Z"/><path class="cls-36" d="M99.26,160.41l.43-.51Z"/><path class="cls-17" d="M146.08,81.71a10.85,10.85,0,0,0-.46-3.35A46.8,46.8,0,0,0,140.79,67c-1-1.66-2-3.31-3-5-.37-.63-.77-1.25-1.17-1.86a2,2,0,0,0-1.46-.94c.75-.41,1.5-.83,2.27-1.23a2.08,2.08,0,0,1,.91-.34c1.16.07,1.49-.64,1.63-1.58a1.23,1.23,0,0,1,0-.2c.65-2.27-.31-3.84-2.14-5-.23-.15-.46-.28-.67-.44a.64.64,0,0,1-.24-.7c.14-.52.32-1,.47-1.53a12.73,12.73,0,0,0,.62-4.11c-.12-2.62-1.17-4.6-3.69-5.64a2.19,2.19,0,0,1-1.16-.72,10.68,10.68,0,0,0-.56-4.45,4.84,4.84,0,0,0-2.31-2.81,1.31,1.31,0,0,0-1.78.14,2.13,2.13,0,0,1-.52.27,46.48,46.48,0,0,1,1.75-8.58c.48-1.45,1-2.9,1.45-4.36a4.33,4.33,0,0,0,.39-1.74,7.57,7.57,0,0,1,2.6,2.43c2.05,2.78,4.12,5.55,6,8.44a64.61,64.61,0,0,1,9.68,23.87,46.47,46.47,0,0,1,.89,11.29,43.14,43.14,0,0,1-.94,6.5c-.5,2.34-1.1,4.65-1.65,7-.09.39-.14.78-.2,1.18a19,19,0,0,0-1.09,3.1A4.85,4.85,0,0,1,146.08,81.71Z"/><path class="cls-11" d="M62.11,56.9l-4.07,2a2.63,2.63,0,0,0-1.23.93,1.7,1.7,0,0,1-1.16.69c-2.88,1.28-5.82.76-8.75.26a2.23,2.23,0,0,1-1.59-1.09l-1.83-.77a8.11,8.11,0,0,1-3-2.24,3.39,3.39,0,0,1,.11-5,7.76,7.76,0,0,1,1.56-1.23c1.26-.79,1.21-.92.49-2-.14-.22-.29-.44-.42-.68a7.48,7.48,0,0,1-.79-5,5.32,5.32,0,0,1,3.34-4.18c.37-.15.76-.25,1.14-.39.83-.3.82-.3.75-1.1-.06-.6-.08-1.2-.11-1.79,2.19-1.7,4.5-1.41,6.24.8S55,41,55.28,43.77c.07.59,0,1.2.14,1.79a2.21,2.21,0,0,0,3.1,1.84C60.58,46.84,61,47,61.45,49c.38,1.62.82,3.21,1.33,4.8a2.68,2.68,0,0,1-.28,2.65Z"/><path class="cls-12" d="M51.71,30.5a49.61,49.61,0,0,0-3.3-12.18A3.13,3.13,0,0,1,48.13,17c2.15-1.44,4.25-1.14,6.36.15a11.2,11.2,0,0,1,3.42,3.57,42.08,42.08,0,0,1,4.35,7.61,2.53,2.53,0,0,0,.85,1.32,3.63,3.63,0,0,1,1.27,2,52.12,52.12,0,0,1,2.79,10.17,40.53,40.53,0,0,1,.56,7.55,8,8,0,0,0,.25,3,1.07,1.07,0,0,1-.61,1.33,6,6,0,0,1-2.2.92c-.57-1.13.32-2.22.1-3.33-.75-3.93-1.35-7.94-5.1-10.42a4.85,4.85,0,0,1-1.57-2c-1.45-3-3.15-5.73-6.24-7.3A1.18,1.18,0,0,1,51.71,30.5Z"/><path class="cls-13" d="M51.71,30.5a11.37,11.37,0,0,1,6.58,6c.41.77.78,1.55,1.13,2.33a3.07,3.07,0,0,0,1.6,1.7,5.64,5.64,0,0,1,2.68,2.83A22.85,22.85,0,0,1,66,51.13a5,5,0,0,1-.87,3.41c-.89.64-1.57,1.59-2.67,2a5.1,5.1,0,0,0-.38-2.14,33.2,33.2,0,0,1-1.64-6.13c-.12-.76-.4-.87-1.07-.39a2.88,2.88,0,0,1-1.41.66,3,3,0,0,1-3.45-3c-.07-1.39-.26-2.76-.42-4.14a10.73,10.73,0,0,0-2.27-5.23A3.07,3.07,0,0,0,48.67,35a8.75,8.75,0,0,1-2.15.33,4,4,0,0,1,.36-2.13,4,4,0,0,1,3.63-2.66C50.91,30.49,51.31,30.51,51.71,30.5Z"/><path class="cls-37" d="M56.12,180.39a39.35,39.35,0,0,1-.88,4.68c-.16,1.12-.46,2.21-.72,3.31a4.49,4.49,0,0,1-.81,2,42.3,42.3,0,0,1,1.49-7.88c.2-.69.37-1.38.56-2.08Q55.91,180.12,56.12,180.39Z"/><path class="cls-38" d="M59.31,172.66a11.9,11.9,0,0,1-2,3.74A5.23,5.23,0,0,1,59.31,172.66Z"/><path class="cls-39" d="M56.12,180.39l-.36,0c.22-.56.23-1.21.75-1.64C56.51,179.35,56.62,179.94,56.12,180.39Z"/><path class="cls-39" d="M56.91,177.58a1.36,1.36,0,0,1-.41,1.22A1.32,1.32,0,0,1,56.91,177.58Z"/><path class="cls-38" d="M57.31,176.38a1.37,1.37,0,0,1-.42,1.22A1.37,1.37,0,0,1,57.31,176.38Z"/><path class="cls-40" d="M50.59,105.62c.95-.24,1.89-.57,2.86-.72,4.7-.73,9.32,2,9.57,7.55.13,3.06-.72,5.73-3.28,7.66-6.23.71-10.19-3.92-9.06-10.65C50.89,108.17,51.33,106.89,50.59,105.62Z"/><path class="cls-41" d="M50.59,105.62l.79.11a.73.73,0,0,1,.68.82,6.27,6.27,0,0,1-.24,1.35,16.58,16.58,0,0,0-.53,4.71,6.47,6.47,0,0,0,4.89,6.44,27.23,27.23,0,0,0,2.71.6,1.49,1.49,0,0,1,.85.46c-2.46,2.29-5.32,2.47-8.33,1.45a7.13,7.13,0,0,1-5-5.52c.26-.33.53-.27.79-.3a5.09,5.09,0,0,0,1.17-.18A2.39,2.39,0,0,0,50,113.75a2.21,2.21,0,0,0-1.23-2.11,14.32,14.32,0,0,0-2.23-.87c-.23-.47,0-.87.24-1.26A7.82,7.82,0,0,1,50.59,105.62Z"/><path class="cls-40" d="M119.73,105.23a2.09,2.09,0,0,1,1.69-.43,27,27,0,0,1,3.37.4,7.43,7.43,0,0,1,5.63,4.86c.24.59.09.83-.56,1-.26,0-.53.07-.79.13a2.3,2.3,0,0,0-2.13,2.25,2.77,2.77,0,0,0,1.59,2.35,5.88,5.88,0,0,0,1.88.35,5.72,5.72,0,0,1-1.92,3.2c-6.12,1-10.78-3.74-9.71-9.85A23.72,23.72,0,0,1,119.73,105.23Z"/><path class="cls-42" d="M119.73,105.23c.32.14.61.29.53.71-.26,1.36-.53,2.72-.79,4.08a7.17,7.17,0,0,0,5.62,8.42c.91.16,1.83.29,2.73.47a2.48,2.48,0,0,1,.67.4c-2.61,3.23-8.27,4.09-12.37.09a8.54,8.54,0,0,1,.26-12.14A7.42,7.42,0,0,1,119.73,105.23Z"/><path class="cls-12" d="M45.31,59.7c.9.14,1.81.23,2.71.42,2.52.52,5.09.25,7.63.41-1.76,1.41-3.62,2.68-5.32,4.17a76.43,76.43,0,0,0-8.42,8.46c-.76.91-1.53,1.83-2.23,2.8a28.21,28.21,0,0,0-2.8,4.58c-.36.78-.8,1.53-1.2,2.29a2.21,2.21,0,0,1-.24-2.08,40,40,0,0,1,2.47-7.51,84.06,84.06,0,0,1,4.8-8.86C43.63,62.85,44.45,61.26,45.31,59.7Z"/><path class="cls-43" d="M74.12,153.58a.61.61,0,0,0,.13-.15c.7-1.53.7-1.51,2.35-1.19a43.15,43.15,0,0,0,9.28,1c1.72,0,3.45,0,5.18,0a24.61,24.61,0,0,0,3-.25,44.67,44.67,0,0,1,4.78-.13c.9,0,1.34.8,2,1.17a13.26,13.26,0,0,1-9.68,7.78,12.36,12.36,0,0,1-5.89-.12,17,17,0,0,1-6.39-2.46A18.93,18.93,0,0,1,74.12,153.58Z"/><path class="cls-44" d="M78.88,159.2c.18-.08.42-.27.51-.21a28.07,28.07,0,0,0,5.75,2.53s.09.09.13.14h-.4A7.07,7.07,0,0,1,78.88,159.2Z"/><path class="cls-43" d="M73.67,152.83a.89.89,0,0,1,.44.73A.89.89,0,0,1,73.67,152.83Z"/><path class="cls-45" d="M159,105.15c-.8-1.3-1.71-2.54-2.55-3.81-1.84-2.78-3.67-5.55-5.49-8.34a12,12,0,0,1-.7-1.39,38.41,38.41,0,0,0,4.25-7.08c4.08-8.62,5.07-17.73,4.17-27.1a74.32,74.32,0,0,0-5-20.27A111.67,111.67,0,0,0,136.06,7.57c-1-1.24-2.13-2.39-3.25-3.53a15.39,15.39,0,0,0-3.65-2.76A10.22,10.22,0,0,0,126,.13a10,10,0,0,0-6.19,1,23.56,23.56,0,0,0-6,4.34,42.51,42.51,0,0,0-6.3,8c-4.74,7.61-7.15,16-8.31,24.79a68.32,68.32,0,0,0-.47,9.37c0,.51.16,1.08-.26,1.46-2.89-.16-5.74-.45-8.59-.44s-5.8.32-8.85.51c0-.52,0-1,0-1.42a69.29,69.29,0,0,0-2.21-18.58A53.4,53.4,0,0,0,69.73,9.79a33,33,0,0,0-6.39-6.55A19.24,19.24,0,0,0,59.22.81a9.46,9.46,0,0,0-8.64.51,15.11,15.11,0,0,0-3.77,2.93C45.15,6.06,43.47,7.88,42,9.82A113.85,113.85,0,0,0,29,30.65a80.79,80.79,0,0,0-7.9,27.07A53.27,53.27,0,0,0,23,78.47,40.91,40.91,0,0,0,29,90.8c.27.37.52.75.79,1.13-.36.64-.66,1.24-1,1.79-1.8,2.72-3.64,5.42-5.43,8.14-1,1.56-2.07,3.11-3,4.74a15.33,15.33,0,0,0-1.86,8.27,18.66,18.66,0,0,0,1.76,6.92,30,30,0,0,0,6.26,9,68.08,68.08,0,0,0,6,5.31,73.61,73.61,0,0,0,22.84,12l3,1-.63.89c-1.43,2-3,3.93-4.28,6A107.62,107.62,0,0,0,40.64,186.2a22.61,22.61,0,0,0-.66,3.53c-.11,1.28.09,2.13,1.76,2.37.2,0,.38.12.58.17A146.74,146.74,0,0,0,67.77,196c4.72.28,9.44.44,14.17.62a223.83,223.83,0,0,0,23.17-.35c5-.33,10.08-.91,15.11-1.43a116.49,116.49,0,0,0,13-2.09c1.3-.28,2.57-.68,3.86-1a1.27,1.27,0,0,0,1-1.34,12.12,12.12,0,0,0-.24-2.17A100.49,100.49,0,0,0,131,168a81.19,81.19,0,0,0-10.38-17.69,2.91,2.91,0,0,1-.3-.62c.09-.15.11-.24.15-.26l1.9-.59a77.1,77.1,0,0,0,23.4-11.37,57.34,57.34,0,0,0,8-6.91,31.65,31.65,0,0,0,6.17-9A16.74,16.74,0,0,0,159,105.15ZM105.66,22.84a45.67,45.67,0,0,1,8.53-14.09,23.38,23.38,0,0,1,5.28-4.54,14.69,14.69,0,0,1,3-1.45,6.78,6.78,0,0,1,5.23.51A15.15,15.15,0,0,1,131.4,6a54.18,54.18,0,0,1,5.47,6.35,111.59,111.59,0,0,1,14.7,25.52,75,75,0,0,1,5.08,19.65,52.2,52.2,0,0,1-6.44,32.13c-.13.22-.29.42-.66.94l-3.9-7.32a43.1,43.1,0,0,0,3.58-7.6,47.65,47.65,0,0,0,2.48-17.49A55.74,55.74,0,0,0,147.5,39a80.09,80.09,0,0,0-9.62-17.43c-.86-1.18-1.79-2.32-2.76-3.42A17.54,17.54,0,0,0,133,16.1a5.53,5.53,0,0,0-6.85-.53,20.82,20.82,0,0,0-3,2.27,25.75,25.75,0,0,0-5,6.23,48.29,48.29,0,0,0-4.86,11.55A56.24,56.24,0,0,0,111,51.56a2.48,2.48,0,0,1-.13.51c-1.69-.17-3.23-1-4.89-1.29s-3.22-.76-4.79-1.13c-.08-.19-.18-.3-.18-.42C101.14,40.19,102.35,31.33,105.66,22.84Zm13.26,19.75a24.22,24.22,0,0,0,.34,2.56,3.53,3.53,0,0,0,.6,1.25,1.53,1.53,0,0,0,2.42.08,3.53,3.53,0,0,0,.52-.85,5.43,5.43,0,0,0-1.58-6.45,2.55,2.55,0,0,1-.31-.43,12.34,12.34,0,0,1,4.47-6.32,8.84,8.84,0,0,1,2.46-1.27,3.45,3.45,0,0,1,4.62,2.29,7.48,7.48,0,0,1,.28,3.67c-.76.21-1.41.34-2,.56a8.07,8.07,0,0,0-5.14,4.94,5.59,5.59,0,0,0-.35,1.94,2.22,2.22,0,0,0,3.14,2.2,6,6,0,0,0,2.47-1.65,11.83,11.83,0,0,0,2.53-4.26c.22-.62.43-1.24.66-1.88a2.08,2.08,0,0,1,1.84.6,4.39,4.39,0,0,1,1.54,2.29,8.29,8.29,0,0,1-1,7.11l-1.81-.27a6.56,6.56,0,0,0-3.87.69A3.9,3.9,0,0,0,129,51a2,2,0,0,0,1.35,3.07,4.8,4.8,0,0,0,2.75-.21,8.3,8.3,0,0,0,2.93-2c.32-.33.63-.68,1-1.12a4.07,4.07,0,0,1,2.78,3.06,3.37,3.37,0,0,1-1.34,3.35,9.63,9.63,0,0,1-4.88,2.12,42.51,42.51,0,0,1-7.56.58,2.44,2.44,0,0,1-1.48-.49,60.69,60.69,0,0,0-10.31-5.77,11.18,11.18,0,0,1,.18-3.74A16.38,16.38,0,0,1,117,42.74a4.4,4.4,0,0,1,1.94-1.87C118.91,41.57,118.87,42.09,118.92,42.59Zm1.65-2c1.07.54,1.16,1.51,1.31,2.4a3.72,3.72,0,0,1-.83,3.08A6.45,6.45,0,0,1,120.57,40.58ZM132.4,39a10.6,10.6,0,0,1-3,5.46,4.83,4.83,0,0,1-1.52.89.9.9,0,0,1-1.28-1A4.69,4.69,0,0,1,127,43a6.78,6.78,0,0,1,5-4.17C132,38.84,132.16,38.93,132.4,39Zm3.14,11.18a5.65,5.65,0,0,1-3.23,2.54,4.66,4.66,0,0,1-1.75.11.78.78,0,0,1-.52-1.22,2.6,2.6,0,0,1,.76-.88A4.8,4.8,0,0,1,135.54,50.19Zm-7.43,10.64a26.56,26.56,0,0,0,6.94-.68A9.56,9.56,0,0,0,139,58.3c2.8-2.29,2.81-5.51,0-7.84-.36-.3-.73-.57-1.17-.92.24-.62.48-1.22.69-1.83a9.28,9.28,0,0,0,.36-5.49A6.09,6.09,0,0,0,135,37.55a6.61,6.61,0,0,1-.66-.35c0-.39,0-.84,0-1.29a18.79,18.79,0,0,0-.25-2,5,5,0,0,0-7-4,10.29,10.29,0,0,0-3.81,2.49,15,15,0,0,0-3.77,6.43,7.62,7.62,0,0,0-4.18,4.2,21.44,21.44,0,0,0-2,8.7c0,.37,0,.75,0,1.16-.72.08-1-.17-1-.74.05-1.33.07-2.66.19-4A59.22,59.22,0,0,1,116.93,30a36.9,36.9,0,0,1,4-7.13,22.57,22.57,0,0,1,4-4.42A14.83,14.83,0,0,1,127.06,17a4.05,4.05,0,0,1,4.84.37,21.6,21.6,0,0,1,3.83,4.05,76.81,76.81,0,0,1,9.16,15.41,61.39,61.39,0,0,1,4.55,14.42,54.38,54.38,0,0,1,.33,16.11A50.27,50.27,0,0,1,146,80.76c-.18.43-.38.84-.56,1.21-.53.14-.62-.25-.77-.51-.5-.86-1-1.73-1.47-2.6a55.64,55.64,0,0,0-14.4-16.41c-.52-.41-1-.83-1.5-1.22C127.43,60.68,127.82,60.82,128.11,60.83ZM23.25,70.63A61.21,61.21,0,0,1,25.14,47.3,91,91,0,0,1,34.8,24.6a108.63,108.63,0,0,1,11-15.7,34.33,34.33,0,0,1,3.17-3.32,17.93,17.93,0,0,1,3.23-2.31A6.34,6.34,0,0,1,57.93,3,20.7,20.7,0,0,1,61.4,4.92a25.37,25.37,0,0,1,5.2,4.94,48.71,48.71,0,0,1,9.26,18,80.47,80.47,0,0,1,3,21.09c0,.19,0,.39-.06.71L69,52.22c0-.44-.08-.81-.09-1.18a57,57,0,0,0-5.19-23.19,29.88,29.88,0,0,0-4.19-7,35.25,35.25,0,0,0-3.59-3.74,13.33,13.33,0,0,0-2.82-1.85,5.13,5.13,0,0,0-5.65.44,12,12,0,0,0-1.69,1.4,25.82,25.82,0,0,0-2.27,2.52A75.86,75.86,0,0,0,29.91,46.31a50.46,50.46,0,0,0-.22,26.44,38.41,38.41,0,0,0,4.53,10.57,30.72,30.72,0,0,1-4,7.29,4.12,4.12,0,0,1-.38-.47A52.61,52.61,0,0,1,23.25,70.63ZM46.48,53.78a5.06,5.06,0,0,0,2.54.37c2-.19,2.74-1.8,1.63-3.42A4.54,4.54,0,0,0,48.06,49a6.24,6.24,0,0,0-3.15-.22c-.45.1-.91.14-1.49.23a8.37,8.37,0,0,1-1.3-5.88,4.92,4.92,0,0,1,2.44-3.91,7.14,7.14,0,0,1,1.18-.38c.26.73.48,1.34.69,2A12,12,0,0,0,48.93,45a6,6,0,0,0,2.63,1.75,2.17,2.17,0,0,0,3-2.14,6.17,6.17,0,0,0-.44-2.32,8,8,0,0,0-4.94-4.62c-.62-.22-1.28-.35-1.93-.52A5.73,5.73,0,0,1,48,32.3a3.38,3.38,0,0,1,3.93-1.17,9.72,9.72,0,0,1,2.64,1.36,12.42,12.42,0,0,1,4.37,6.18,1.91,1.91,0,0,1-.25.44A5.59,5.59,0,0,0,57,45.56c.31.76.75,1.45,1.7,1.46a1.74,1.74,0,0,0,1.71-1.42,11.68,11.68,0,0,0,.46-2.34c.07-.72,0-1.45,0-2.13.46-.24.68,0,.9.28A11.29,11.29,0,0,1,64.1,45.1a22,22,0,0,1,1.56,8.47c-.41.21-.8.44-1.21.63A52.85,52.85,0,0,0,56.15,59a4.61,4.61,0,0,1-3.16.88,50.32,50.32,0,0,1-6.36-.51,11.62,11.62,0,0,1-3.79-1.18,8.23,8.23,0,0,1-2-1.57,3.27,3.27,0,0,1-.09-4.38,4.19,4.19,0,0,1,2.16-1.52c.24.31.53.75.88,1.13A8.22,8.22,0,0,0,46.48,53.78Zm-2.13-3.57a4.46,4.46,0,0,1,3.86,0c.92.33,1.22.73,1.78,2a1.88,1.88,0,0,1-2.27.52A5.34,5.34,0,0,1,44.35,50.21Zm3.14-11.29a2.93,2.93,0,0,1,.79,0,6.85,6.85,0,0,1,4.83,4.83,2.94,2.94,0,0,1,.08,1,.85.85,0,0,1-.84.7,2.76,2.76,0,0,1-1.62-.67A8,8,0,0,1,48.54,42,8.11,8.11,0,0,1,47.49,38.92Zm11.57,1.71c.11.07.19.09.21.14a6.1,6.1,0,0,1-.09,4.6.48.48,0,0,1-.89,0,4.9,4.9,0,0,1-.24-2.91A2.59,2.59,0,0,1,59.06,40.63Zm5.59,2.59a7.7,7.7,0,0,0-4.2-4.35c-.25-.63-.48-1.25-.73-1.86a13.77,13.77,0,0,0-4.16-5.53,8.24,8.24,0,0,0-3.92-1.85A4.75,4.75,0,0,0,46.1,32.8a8.62,8.62,0,0,0-.46,2.13,20.14,20.14,0,0,0,0,2.2l-.37.24A7,7,0,0,0,40.71,45a10.07,10.07,0,0,0,.77,3.29L42,49.52c-.58.46-1.13.84-1.61,1.29a4.63,4.63,0,0,0,0,7,8.79,8.79,0,0,0,4.18,2.23,25.36,25.36,0,0,0,6.73.74H53a6,6,0,0,1-1.57,1.5c-.51.43-1,.84-1.55,1.27s-1,.85-1.52,1.29-1.08,1-1.62,1.48l-1.43,1.4q-.7.7-1.38,1.44c-.46.49-.9,1-1.33,1.49s-.86,1-1.27,1.55-.81,1.06-1.2,1.6S39.4,74.93,39,75.49s-.79,1.23-1.18,1.85-.68,1.14-1,1.71-.66,1.16-1,1.73l-1.11,1.9c-.4-.87-.71-1.51-1-2.16a50.27,50.27,0,0,1-4-23,55.14,55.14,0,0,1,3.69-16.9A76.91,76.91,0,0,1,43.3,22.46c.79-1.07,1.64-2.1,2.52-3.1a16.64,16.64,0,0,1,1.86-1.8A4.12,4.12,0,0,1,53,17.14,17.2,17.2,0,0,1,55.7,19.2a25.87,25.87,0,0,1,4.8,6.11A50.82,50.82,0,0,1,66.07,40a70.07,70.07,0,0,1,1.48,12.79l-.91.4c-.19-1.86-.32-3.64-.56-5.4A15.92,15.92,0,0,0,64.65,43.22ZM41.46,190.46c1.85-11.77,10.14-30.35,18.32-40.94.95.23,2,.46,3,.72a1.3,1.3,0,0,1,.86,1,24.44,24.44,0,0,1,1.08,10.43,21.23,21.23,0,0,1-1.08,4.86,9.17,9.17,0,0,1-3.45,4.77,6.88,6.88,0,0,0-2.88,3.94c-1,3.24-1.94,6.49-2.8,9.76-.68,2.56-1.19,5.17-1.77,7.74A51.84,51.84,0,0,1,41.46,190.46Zm81.46,2.69c-6,.77-12,1.38-18.09,1.76-9.45.6-18.9.47-28.35.17-5.46-.17-10.91-.47-16.34-1.1-2.11-.24-4.22-.56-6.46-.86.14-.65.26-1.22.39-1.78a136,136,0,0,1,4-14c.29-.82.58-1.63.9-2.43a5.2,5.2,0,0,1,1.74-2.39,12.5,12.5,0,0,0,4.69-7.66,23.87,23.87,0,0,0,.28-10.3c-.25-1.22-.7-2.4-1.09-3.72a52,52,0,0,1,5.7,1.05c.3.71.58,1.38.87,2A18.74,18.74,0,0,0,83,164.8a17.57,17.57,0,0,0,20.73-8.24c.68-1.21,1.21-2.5,1.86-3.87,2.46-.41,5-1,7.67-1.4a18.92,18.92,0,0,0-1.37,6.16,26.3,26.3,0,0,0,1,8.69,11.46,11.46,0,0,0,4,6.07,7.11,7.11,0,0,1,2.39,3.37,117.32,117.32,0,0,1,3.59,11.62c.46,1.8.91,3.61,1.39,5.55A7.27,7.27,0,0,1,122.92,193.15ZM87.44,162.9c6.21.14,10.8-2.78,13.82-8.18.22-.41.41-.83.61-1.23a3.61,3.61,0,0,1,1.8-.5,3.86,3.86,0,0,1-.14.91c-2.85,6.3-7.65,10-14.62,10.34-5.53.28-10.08-2-13.68-6.19a15.14,15.14,0,0,1-3.14-5.63c.75-.13,1.2,0,1.43.61.15.37.29.74.47,1.1C76.78,159.66,81.24,162.76,87.44,162.9Zm-12.4-10c2.16,0,4.21.63,6.31.78s4.1.35,6.15.4,4.25,0,6.38-.07a54,54,0,0,1,6.11-.31c-1.1,4.09-6.57,7.77-11.66,7.93C82.41,161.79,76.83,158.16,75,152.88Zm53.83,14.58a112.88,112.88,0,0,1,7.74,22.73c-1.58.94-7.68,2.27-11.4,2.51-.8-3.41-1.51-6.73-2.37-10-.65-2.5-1.47-5-2.22-7.44a7,7,0,0,0-2.88-3.95,9,9,0,0,1-3.36-4.59,24.37,24.37,0,0,1,0-15.73l2.12-.53,1.88-.46C120.37,152,126.2,161.8,128.87,167.46ZM158.59,119a27.76,27.76,0,0,1-5.18,8.7,48.85,48.85,0,0,1-8.37,7.69,72.35,72.35,0,0,1-23.59,11.4,160.86,160.86,0,0,1-19.31,4.09,83.71,83.71,0,0,1-12.13,1,81.43,81.43,0,0,1-15.1-1.47,145.71,145.71,0,0,1-17.5-4A70.86,70.86,0,0,1,33.25,134a42.39,42.39,0,0,1-8.08-8.25,27,27,0,0,1-3.34-5.89,14.16,14.16,0,0,1,1-13.22c.79-1.31,1.63-2.59,2.55-3.82a112.27,112.27,0,0,0,9.52-15.45c1.29-2.48,2.61-4.95,4-7.39a50.11,50.11,0,0,1,10.9-13.43A68.05,68.05,0,0,1,66.84,55.25,60.44,60.44,0,0,1,82.16,51a53.14,53.14,0,0,1,13.15-.3,55.76,55.76,0,0,1,25.63,8.73,80.31,80.31,0,0,1,10.27,7.93,48.74,48.74,0,0,1,9.62,11.92c1.45,2.54,2.85,5.12,4.18,7.73a116.72,116.72,0,0,0,9.93,16.14,40.53,40.53,0,0,1,2.63,4A13.89,13.89,0,0,1,158.59,119Z"/><path class="cls-45" d="M53.78,101.84a11.8,11.8,0,1,0-.61,23.59,11.8,11.8,0,1,0,.61-23.59Zm10.16,11.64a9.32,9.32,0,0,1-2.63,7.42,10.11,10.11,0,0,1-7.2,3.42,10.72,10.72,0,0,1-11.32-10.59,11,11,0,0,1,8.56-10.59,10.74,10.74,0,0,1,12.25,7.18A7.66,7.66,0,0,1,63.94,113.48Z"/><path class="cls-45" d="M123.41,101.87a11.77,11.77,0,1,0,11.72,11.67A11.61,11.61,0,0,0,123.41,101.87ZM133.13,118a10.17,10.17,0,0,1-9.36,6.37,10.47,10.47,0,0,1-10.9-8.8,5.25,5.25,0,0,0-.23-.74,2.59,2.59,0,0,1-.13-1.89,2.59,2.59,0,0,0,.13,1.89c.59,0,.45.53.54.88a9.42,9.42,0,0,0,7.89,7.2,9.32,9.32,0,0,0,9.84-5.27,6.07,6.07,0,0,1,1.83-2.48c1.46-1.1,1.26-2.74-.24-3.82a10.71,10.71,0,0,0-1-.63c-.3-.64-.49-1.14-.75-1.6a9.16,9.16,0,0,0-7.89-5,9.45,9.45,0,0,0-9.64,7.32,2.78,2.78,0,0,1-.58,1.21,4,4,0,0,0,.28-.72,10.08,10.08,0,0,1,7.56-8.58,10.44,10.44,0,0,1,11.26,3.58A10.27,10.27,0,0,1,133.13,118Zm-4.8-6.81a2.74,2.74,0,0,0-1.82,2.61,2.79,2.79,0,0,0,2.26,2.26,8,8,0,0,0,1.32.19,7.94,7.94,0,0,1-8.68,5.58,8.31,8.31,0,0,1-.21-16.48c4-.55,7.88,1.77,8.77,5.27A15.9,15.9,0,0,0,128.33,111.17Zm3.75,1.23a1.2,1.2,0,0,1,.12,1.76,3.55,3.55,0,0,1-2.51,1,10.16,10.16,0,0,1-1.49-.59,1.13,1.13,0,0,1-.26-1.72A3.14,3.14,0,0,1,132.08,112.4Z"/><path class="cls-45" d="M118.82,92.14A17.34,17.34,0,0,0,129,95.75a21.41,21.41,0,0,0,2.84-.63A3.36,3.36,0,0,0,133.8,90a8.5,8.5,0,0,0-2.52-2.78,16.27,16.27,0,0,0-9.43-3.31,7.7,7.7,0,0,0-3.68.69,3.33,3.33,0,0,0-1.72,4.65A7.54,7.54,0,0,0,118.82,92.14Zm.41-6.76a8.93,8.93,0,0,1,3-.37,15.47,15.47,0,0,1,8.17,2.86,8.06,8.06,0,0,1,2.33,2.43c1,1.73.57,3.14-1.31,3.79a14.6,14.6,0,0,1-2.48.49,15.63,15.63,0,0,1-9.6-3.53,7.65,7.65,0,0,1-1.55-1.8C116.67,87.51,117.25,86,119.23,85.38Z"/><path class="cls-45" d="M45.12,95.16a8.26,8.26,0,0,0,2.73.48,15.74,15.74,0,0,0,10.58-3.93,8.39,8.39,0,0,0,1.73-2.15,3.26,3.26,0,0,0-1.77-5,20.72,20.72,0,0,0-3.27-.75,17.35,17.35,0,0,0-9.94,3.74,7.7,7.7,0,0,0-2.08,2.39C41.88,92.21,42.66,94.32,45.12,95.16Zm-1-4.76a8.82,8.82,0,0,1,1.81-2.09,14.92,14.92,0,0,1,9-3.33,8.23,8.23,0,0,1,2.74.39c2,.59,2.57,2.14,1.49,3.87a7.64,7.64,0,0,1-1.7,1.93,15.5,15.5,0,0,1-9.69,3.43,14,14,0,0,1-2.41-.52C43.57,93.44,43.1,92,44.09,90.4Z"/><path class="cls-45" d="M94.16,118.44a.55.55,0,0,0-.5.19c-.23.32-.34.72-.56,1.05a1.3,1.3,0,0,1-2.19.18A3.36,3.36,0,0,1,90,117.4c.65-.36,1.2-.6,1.69-.94A6.25,6.25,0,0,0,93,115.28a2.24,2.24,0,0,0-.92-3.62,3.58,3.58,0,0,0-.94-.31,9.07,9.07,0,0,0-4.14.28,4.94,4.94,0,0,0-1.24.61,1.87,1.87,0,0,0-.54,2.64A4.26,4.26,0,0,0,87,116.49c.58.32,1.17.61,1.79.93a4.86,4.86,0,0,1-.43,2.54,1.21,1.21,0,0,1-1.26.79A2.15,2.15,0,0,1,86,120c-.24-.28-.23-.76-.42-1.1a.92.92,0,0,0-.59-.37c-.11,0-.35.22-.4.37a2.38,2.38,0,0,0,.87,2.49,2.07,2.07,0,0,0,2.59.27,13,13,0,0,0,1.43-1.24c.36.31.65.59,1,.83a2.54,2.54,0,0,0,2.08.44A2.68,2.68,0,0,0,94.65,119C94.63,118.78,94.37,118.55,94.16,118.44Zm-6.64-3.11a5.67,5.67,0,0,1-1-1,.86.86,0,0,1,.29-1.34,6.45,6.45,0,0,1,3.27-.57,8.2,8.2,0,0,1,1.38.25,1.08,1.08,0,0,1,.62,1.74A2.89,2.89,0,0,1,87.52,115.33Z"/><path class="cls-45" d="M31.92,121.45c-.79-2.25-1.57-4.51-2.43-6.94A7,7,0,0,0,31.92,121.45Z"/><path class="cls-45" d="M55.93,66a3.72,3.72,0,0,0-2.49,1.68c-.93,1.26-1.11,1.67-1.11,2.54A9.89,9.89,0,0,0,55.93,66Z"/><path class="cls-45" d="M26.49,118.88c-.31-2.23-.6-4.44-.95-7C24.72,115,25.09,117.45,26.49,118.88Z"/><path class="cls-45" d="M29.17,125.5c.69.81,1.45,1.55,2.2,2.3.15.16.31.45.71.15a36,36,0,0,0-3.44-5.07A2.39,2.39,0,0,0,29.17,125.5Z"/><path class="cls-45" d="M59,67a21.89,21.89,0,0,0,4.51-3.86c-.16-.13-.27-.27-.35-.26a5.4,5.4,0,0,0-2.65,1.63A4.94,4.94,0,0,0,59,67Z"/><path class="cls-45" d="M63.73,59.07c-1.85,0-3.37,1.28-4.78,4.06A12.86,12.86,0,0,0,63.73,59.07Z"/><path class="cls-45" d="M34.08,124.62a4.37,4.37,0,0,0,.24,1c.84,1.59,2.5,2.25,3.79,3.33C36.61,126.5,35.44,125.3,34.08,124.62Z"/><path class="cls-45" d="M41.54,134.39c-1.6-1.48-3.23-2.32-4.47-2.31C37.9,133.33,38.8,133.79,41.54,134.39Z"/><path class="cls-45" d="M63,180.88c-.86,2-.65,4.12-.81,6.26.2-.1.39-.13.41-.2.34-1.75.68-3.5,1-5.26a8.37,8.37,0,0,0,0-1.25C63.26,180.66,63,180.74,63,180.88Z"/><path class="cls-45" d="M65.64,185.68c0,1,0,2-.06,3,0,.23-.09.53.33.47.9-4.93.9-4.93.41-6.46A7.93,7.93,0,0,0,65.64,185.68Z"/><path class="cls-45" d="M61.43,192.51a10.4,10.4,0,0,0,.14-3.74A5.1,5.1,0,0,0,61.43,192.51Z"/><path class="cls-45" d="M48.46,106.27a8.48,8.48,0,0,0-2.62,3.47,2.2,2.2,0,0,1-1.23,1.46,1.77,1.77,0,0,0-.5.32,2.23,2.23,0,0,0-.18,3.48,11.07,11.07,0,0,0,1.32,1c.18.44.35.94.57,1.42a9.4,9.4,0,0,0,11.7,5,9.14,9.14,0,0,0,6.1-11A9.38,9.38,0,0,0,48.46,106.27Zm-3.86,7.92a1.15,1.15,0,0,1,.06-1.75,3.14,3.14,0,0,1,4.3.43,1,1,0,0,1-.19,1.58,9.31,9.31,0,0,1-1.58.71A3.68,3.68,0,0,1,44.6,114.19ZM57,121.52a8.41,8.41,0,0,1-10-4.11,7.59,7.59,0,0,1-.39-1.14,14.25,14.25,0,0,0,1.65-.32,2.43,2.43,0,0,0,.33-4.7,15.54,15.54,0,0,0-1.8-.63,4.23,4.23,0,0,1,.27-1,8.38,8.38,0,0,1,15.68,3A8.43,8.43,0,0,1,57,121.52Z"/></g></g></svg>