<svg xmlns="http://www.w3.org/2000/svg" viewBox="0 0 175.83 182.46"><defs><style>.cls-1{fill:#d7e9e6;}.cls-2{fill:#f5ac4f;}.cls-3{fill:#ed1242;}.cls-4{fill:#f29344;}.cls-5{fill:#de1440;}.cls-6{fill:#7f5546;}.cls-7{fill:#734e3f;}.cls-8{fill:#f7e7bb;}.cls-9{fill:#744f3e;}.cls-10{fill:#f3dd9e;}.cls-11{fill:#f6c668;}.cls-12{fill:#eec66d;}.cls-13{fill:#f4b55f;}.cls-14{fill:#e3b478;}.cls-15{fill:#e2b670;}.cls-16{fill:#fff;}.cls-17{fill:#fffffe;}.cls-18{fill:#f07333;}.cls-19{fill:#f4dd9e;}.cls-20{fill:#6c365b;}.cls-21{fill:#603351;}.cls-22{fill:#f17e3d;}.cls-23{fill:#f7e7b9;}.cls-24{fill:#815745;}.cls-25{fill:#815545;}.cls-26{fill:#f4c173;}.cls-27{fill:#f5c176;}.cls-28{fill:#f7e4b5;}.cls-29{fill:#9f7d59;}.cls-30{fill:#c7ae64;}.cls-31{fill:#e5c26c;}.cls-32{fill:#c5b86a;}.cls-33{fill:#d2b567;}.cls-34{fill:#f7ca6a;}.cls-35{fill:#f4a04d;}.cls-36{fill:#f5c163;}.cls-37{fill:#e63e49;}.cls-38{fill:#539c8d;}.cls-39{fill:#4b8a7d;}.cls-40{fill:#528d82;}.cls-41{fill:#49897c;}.cls-42{fill:#8e6a84;}.cls-43{fill:#7b4727;}</style></defs><g id="Calque_2" data-name="Calque 2"><g id="OBJECTS"><rect class="cls-1" width="175.83" height="181.36" rx="68.69"/><path class="cls-2" d="M146.85,103.68c0,1.9-.89,3.59-1.5,5.33a31.38,31.38,0,0,1-5.38,9,40.48,40.48,0,0,1-8.76,8,6.7,6.7,0,0,1-.7.37c-.7-.35-.77-1-.85-1.69-.65-5.44-3.66-9.1-8.54-11.37-.82-.37-1.85-.52-2-1.69.45-1,1.45-1.06,2.32-1.36,6.41-2.15,9.52-9,6.62-14.7a10.25,10.25,0,0,0-14.21-4.15,10.15,10.15,0,0,0-3.61,14.6,9.35,9.35,0,0,1,1.85,3,2.07,2.07,0,0,0,.67,1.74c1.54,1.65,3.2,3.19,4.71,4.86a14.51,14.51,0,0,1,3.61,13.46,3.84,3.84,0,0,1-1.33,2.38l-3.36,1.23c-2.6-.11-5,.87-7.58,1.2a95.35,95.35,0,0,1-16.27.87A75.35,75.35,0,0,1,55,123.7a7.67,7.67,0,0,1-1.82-1.53c-.8-1.09-.41-2.2.12-3.2,1.62-3.13,3.26-6.27,6.56-8A1.69,1.69,0,0,0,61,109a5.1,5.1,0,0,1,1.19-2,10.43,10.43,0,0,0-7.63-16.75c-4.27-.22-7.43,1.48-9.61,5.84a9.66,9.66,0,0,0,1.35,11.15,10.54,10.54,0,0,0,4.95,3.21,3.87,3.87,0,0,1,2.11,1.06c.28.9-.43,1.2-1,1.38a24.25,24.25,0,0,0-4.6,2.54,2,2,0,0,1-.63.16,1.56,1.56,0,0,1-.64-.1c-1.8-1-2.61-2.92-3.67-4.57a32.08,32.08,0,0,1-4.59-12.55,8.42,8.42,0,0,1,.21-3.73,9.5,9.5,0,0,1,1.15-1.78c1.24-1.93,1.31-3.76-.22-5.56-.12-.15-.24-.31-.35-.47a2,2,0,0,1-.21-.56c-.23-2.18.47-4.22,1-6.24A61.55,61.55,0,0,1,50.15,59.26a113.82,113.82,0,0,1,7.76-8.77c1-1.07,2.59-1.41,3.35-2.76C64,46,66.74,44.1,69.44,42.24a86.48,86.48,0,0,1,14.45-7.11,11.18,11.18,0,0,1,3.36-.93c-1.18,0-2.53.89-3.59-.52A2.07,2.07,0,0,1,85,33.32c1.26,0,2.52,0,3.79,0a2.28,2.28,0,0,1,1.15.21,5.36,5.36,0,0,0,2.68.62c0,1-.87,1.26-1.46,1.74-2,1.58-2.15,3.5-.5,5.31,2.18,2.4,8.7,3.62,11.61,2.18,2.2-1.09,2.65-2.58,1.5-4.76-.41-.79-1.31-1.41-1-2.5A27.77,27.77,0,0,1,109.47,38,56,56,0,0,1,115.8,41a4.16,4.16,0,0,0,2.25.71.64.64,0,0,1,.15.56c-1.42,3.68.43,6.37,2.72,8.91A22,22,0,0,0,124.26,54a6.88,6.88,0,0,0,8.48.37.7.7,0,0,1,.53.19,1.86,1.86,0,0,0,.49,1.44,28,28,0,0,1,3,3.91,8.45,8.45,0,0,0,1.37,1.37c-.21.65-.85.8-1.35,1.1A5.78,5.78,0,0,0,134,68.27a12.17,12.17,0,0,0,9.44,10.2,5.91,5.91,0,0,1,2.62.84,52.9,52.9,0,0,1,1.57,8.08c-.73.23-1.27-.23-1.86-.51-4-1.86-7.87.47-8,4.91-.16,4.72,2.52,7.81,6.2,10.23C144.84,102.64,146,103,146.85,103.68Z"/><path class="cls-3" d="M123.23,179.12c-1.57.28-3.13.59-4.71.82-2.49.37-5,.7-7.5,1a58.54,58.54,0,0,1-6.75.59c-3,0-6.11,0-9.17.11-1.86,0-3.72.18-5.58.21-5.52.1-11-.23-16.53-.56-1.13-.06-2.26-.08-3.39-.12-3.79-.14-7.55-.58-11.31-1s-7.63-1.06-11.42-1.77c-.38-.08-.75-.23-1.13-.34.19-4.55,1.52-8.87,2.76-13.19a114.33,114.33,0,0,1,8.7-21.34c.25-.47.49-.95.76-1.4,1.53-2.55,2.13-2.82,5-2.25,3.12.62,6.27,1,9.43,1.39,1.18.24,1.62,1.29,2.25,2.12,3,3.86,6.64,6.5,11.69,6.61,4.3.09,7.56-2,10.4-5,1.21-1.28,1.79-3.19,3.72-3.73a104.23,104.23,0,0,0,16.27-3.74,12.38,12.38,0,0,1,2.16-.32,28.56,28.56,0,0,1,4,5.92c1.72,3.15,3.43,6.3,5,9.53a81.64,81.64,0,0,1,6.14,18.7c.23,1.11.45,2.22.62,3.33a12,12,0,0,1,.1,2c0,.37-.29.68-.66.51a2.78,2.78,0,0,0-1.93,0c-1.42.35-2.84.7-4.26,1-.58.13-1.18.18-1.77.27-1.24-.27-1.3-1.39-1.6-2.3-1-3.12-2.19-6.13-4.7-8.43,1,2.42,2.12,4.74,2.93,7.21C123.23,176.27,124.06,177.63,123.23,179.12Z"/><path class="cls-4" d="M61.68,48.11a4.15,4.15,0,0,1-1.18,1.32,53.41,53.41,0,0,0-8,8c-.83,1-1.62,2.1-2.46,3.11a34.22,34.22,0,0,0-2.87,4.3A59.69,59.69,0,0,0,39.68,84.2c-.15.78-.29,1.56-.43,2.34a1.16,1.16,0,0,1-.64.53,5.86,5.86,0,0,0-2.7,2.53c-1.39,2.6-.43,4.28,2.65,4.59a.56.56,0,0,1,.34.42,29.17,29.17,0,0,0,5.2,16.8,26.42,26.42,0,0,0,2.82,3.83,1.73,1.73,0,0,1-.4,1.85c-1.79,2.54-3.23,5.2-3.24,8.42,0,.19-.18.35-.34.47a17.34,17.34,0,0,1-4.36-3,27.23,27.23,0,0,1-6.09-7,6.58,6.58,0,0,1-.32-.72,12.81,12.81,0,0,1,1.14-2.73c2.27-5.15-.53-10-5.41-10.45a1.92,1.92,0,0,1-.92-.35c-.23-2.24-.47-4.48-.7-6.72-.06-.53-.11-1.06-.12-1.59A58.89,58.89,0,0,1,27,84.33c0-.24.25-.45.39-.67.86-.51,1.68,0,2.5.15a6.76,6.76,0,0,0,7.17-2.73,10.49,10.49,0,0,0,2.24-6.27,8.88,8.88,0,0,0-1.79-5.16c-1.17-1.64-2.84-2-4.61-2.22a6.87,6.87,0,0,1,1.15-2.66,43.38,43.38,0,0,0,2.41-4.25c.25-2,1.88-3.07,2.82-4.61a7.14,7.14,0,0,0,1.06-1.63,3.3,3.3,0,0,1,.6-1c1.48-1.75,3.13-3.33,4.77-4.92.6-.58,1.18-1.29,2.18-1l3.07-2c2.39,2.66,5.35,3.16,8.69,2.32A1.74,1.74,0,0,1,61.68,48.11Z"/><path class="cls-5" d="M72.51,141.63c-.71.57-1.49.33-2.28.24-3-.36-6-.87-9-1.49a1.41,1.41,0,0,0-1.75.85c-1.78,3.12-3.31,6.35-4.83,9.6a116.27,116.27,0,0,0-4.88,12.83,94.82,94.82,0,0,0-2.85,11.39c-.14.71-.29,1.43-.42,2.14a1.09,1.09,0,0,1-.75.85c-1.93-.12-3.77-.75-5.67-1.06-.53-.09-.76-.43-.7-1a32.19,32.19,0,0,1,.46-3.55,90.54,90.54,0,0,1,12.36-31.11c1.22-1.9,2.54-3.73,3.83-5.59a7.09,7.09,0,0,1,2.08-2.11,1.48,1.48,0,0,1,1.81-.36c3.57,1.39,7.39,1.85,11,2.89C71.87,137.84,73.31,139.42,72.51,141.63Z"/><path class="cls-6" d="M132.93,54.47a1.86,1.86,0,0,1-1.44,1.5,7,7,0,0,1-5.42-.11,19.18,19.18,0,0,1-7.54-6.34,8.52,8.52,0,0,1-1.69-5,3.32,3.32,0,0,1,1.21-2.81c.91,0,1,1.1,1.9,1.32a8.75,8.75,0,0,1,2.25,1.24c.67.43,1.3.93,2,1.38.37.26.66.66,1.18.69.44-.21.33-.66.42-1a23.86,23.86,0,0,1,3.14-7.07,16.28,16.28,0,0,1,2.32-2.73,10,10,0,0,1,13.72.15c.86,1.84,2,3.54,2.15,5.7a35.24,35.24,0,0,1-.35,4.94,1.16,1.16,0,0,1-1,1.11c-.86-.4-.91-1.21-.92-2a8.3,8.3,0,0,0-1.12-3.91c-1.59-1.06-2.54-1-4,.38a12.58,12.58,0,0,0-2.83,4.51c-.69,1.65-1.24,3.36-1.94,5a3.46,3.46,0,0,1-1.6,2.17c-1.21.14-1.6-.91-2.26-1.55a20.47,20.47,0,0,0-3.4-3.62l-.42-.3c-.21-.15.08.06-.13-.1l.13.1a4.15,4.15,0,0,0,.43.3A21.84,21.84,0,0,1,131.05,52a14.44,14.44,0,0,0,1.93,2A.59.59,0,0,1,132.93,54.47Z"/><path class="cls-4" d="M53.29,121.63c.51.3,1.05.57,1.55.9a59.37,59.37,0,0,0,12.62,6.32,96.37,96.37,0,0,0,12.22,3.65c1.54.36,3.14.48,4.7.78,2.23.42,4.51.11,6.72.67a7,7,0,0,0,1.59.07h6.79a7.89,7.89,0,0,0,2.37-.23,2.13,2.13,0,0,1,.78-.13,56.85,56.85,0,0,0,7.15-.46c1.51-.09,3-.42,4.52-.65a2.54,2.54,0,0,1,2.1.22L111.7,134c-.69,1.26-2,1-3.13,1.31a18.74,18.74,0,0,0-3.19.84,2.47,2.47,0,0,1-1.37.38,5.57,5.57,0,0,0-2.75,0c-4,.35-8,.74-12.06.82H81.47a23.43,23.43,0,0,1-5.67-.37,90.54,90.54,0,0,1-18.09-4.21L53,131.2c-1.75-2.81-1.72-5.79-.78-8.84A.93.93,0,0,1,53.29,121.63Z"/><path class="cls-6" d="M47.91,47.35l-6.53,6.36a.69.69,0,0,1-.81-.14c-1.46-2.24-2.11-4.83-3.15-7.26a13.74,13.74,0,0,0-2.54-4.46c-1.54-1.54-2.45-1.6-4.31-.29a9.94,9.94,0,0,0-1.24,4.08c0,.72-.14,1.45-1,1.76-1-.38-1-1.28-1.07-2.15a15,15,0,0,1,2-9.16A11.26,11.26,0,0,1,37,32.88a8.45,8.45,0,0,1,5.71,2,13.52,13.52,0,0,1,2.56,2.78,24.54,24.54,0,0,1,2.85,5.47A4.54,4.54,0,0,1,47.91,47.35Z"/><path class="cls-7" d="M119.09,111.62a3.87,3.87,0,0,0,1.46.62,15.7,15.7,0,0,1,5.43,3.3,13.74,13.74,0,0,1,4.53,10.87,8.7,8.7,0,0,1-1.24,1.26,36.7,36.7,0,0,1-7.44,4,2.23,2.23,0,0,1-2.07-.11A3.42,3.42,0,0,1,120,130c1.57-4.81.48-9.14-2.51-13.06-.92-1.2-2.08-2.22-3.12-3.33-.81-.87-1.62-1.74-2.4-2.63a3.39,3.39,0,0,1-.6-1c-.18-.43.15-.56.5-.64C114.38,109.71,116.93,110.07,119.09,111.62Z"/><path class="cls-7" d="M53.29,121.63a11.51,11.51,0,0,0-.57,6.44,8.54,8.54,0,0,1,.32,3.14,1.52,1.52,0,0,1-1.67.15c-2-1-4-2-5.92-3.16A14.31,14.31,0,0,1,42.94,126a6.59,6.59,0,0,1,.39-5A19.82,19.82,0,0,1,46,116.5c.32-.41.64-.84,1-1.26h0c.14-.13.28-.27.43-.39l1.25-.95a12.08,12.08,0,0,1,4.79-2.19,1.11,1.11,0,0,1,.88-.72,19.36,19.36,0,0,0,5.56-1.75,1.4,1.4,0,0,1,1.32,0l.4,0c.32,0,.53.17.37.47a5.35,5.35,0,0,1-2.24,2.18c-1.86,1-2.79,2.78-4,4.35a14.48,14.48,0,0,0-2.43,4.95A1.68,1.68,0,0,0,53.29,121.63Z"/><path class="cls-7" d="M32.92,67.43a1.06,1.06,0,0,0,.19-.06c2-.94,2.45-.89,4,.61a9.09,9.09,0,0,1,2.71,9.28A10.24,10.24,0,0,1,36,83.35a6.91,6.91,0,0,1-8,.6l-.52-.29a4.87,4.87,0,0,1,.1-2.54c.91-3.09,1.8-6.19,2.94-9.22A15.28,15.28,0,0,1,32.92,67.43Z"/><path class="cls-6" d="M146.85,103.68a1.2,1.2,0,0,1-1.29.21,14.52,14.52,0,0,1-8.32-8.66,7.61,7.61,0,0,1,.9-7.23,5.82,5.82,0,0,1,9-1l.43.41a13.84,13.84,0,0,1,.54,4.1A43.28,43.28,0,0,1,147,102.31,10.26,10.26,0,0,0,146.85,103.68Z"/><path class="cls-7" d="M61.68,48.11c-1,.2-1.94.42-2.92.6a10.52,10.52,0,0,1-5.31-.37C52,47.87,51,47.05,51,45.36h0a2.39,2.39,0,0,1,.31-.47,8,8,0,0,1,2.44-2A64.64,64.64,0,0,1,65.59,37l1.28-.52c1.59-.31,3.21-.67,4.13,1.21.82,1.66.3,3.43-1.42,5.12A33.32,33.32,0,0,1,61.68,48.11Z"/><path class="cls-6" d="M102.78,36.13c.27.29.54.58.8.88a11.25,11.25,0,0,1,.76.92c1.79,2.54,1.06,5.07-1.83,6.29a8.4,8.4,0,0,1-3.1.66,16.46,16.46,0,0,1-7.67-1.77,6.51,6.51,0,0,1-1.9-1.43,4.1,4.1,0,0,1,.35-6.16,11.23,11.23,0,0,1,2.41-1.36A23,23,0,0,1,102.78,36.13Z"/><path class="cls-6" d="M146,79.31a2.67,2.67,0,0,1-1.74.21c-7.19-1.24-10.56-6.4-11.19-11.31a6.6,6.6,0,0,1,2-5.78,3.4,3.4,0,0,1,3-1.18c.49.32,1.08.52,1.14,1.26a1.93,1.93,0,0,0,.39.88,46,46,0,0,1,4.79,10.42c.31.86.57,1.75.84,2.64A3.33,3.33,0,0,0,146,78C146.47,78.46,146.09,78.89,146,79.31Z"/><path class="cls-7" d="M145.66,47.3a1.75,1.75,0,0,0,.29-.51,29.82,29.82,0,0,1,.43-4.32,20.31,20.31,0,0,0-1-4.6,13.31,13.31,0,0,1-.55-1.49.71.71,0,0,1,.16-.73A12.67,12.67,0,0,1,150,44.34a14.21,14.21,0,0,1-4.91,13.19,18,18,0,0,1-3.75,2.6c-2,1-2.83.85-4.25-1-.37-.47-.67-1-1-1.47a1.23,1.23,0,0,1,.35-.46c3.88-1.32,6-4.32,7.65-7.83C144.45,48.6,144.53,47.54,145.66,47.3Z"/><path class="cls-7" d="M29.29,36.09a1,1,0,0,1,.05.94c-.35,1.47-.76,2.94-1,4.43a19.41,19.41,0,0,0-.06,5.33c0,.17.18.34.28.51a1.48,1.48,0,0,1,1.18,1.21C30.85,52.36,33.47,55,36.79,57a2.38,2.38,0,0,1,.45.39c1,1.5-.42,2.17-1.06,3.11a1.63,1.63,0,0,1-1.33.2,15.81,15.81,0,0,1-3.26-1.51,14.82,14.82,0,0,1-6.26-17.73A11,11,0,0,1,29.29,36.09Z"/><path class="cls-5" d="M104.05,136a1.68,1.68,0,0,0,1.29-.29,36.59,36.59,0,0,1,6.82-1.18,14.65,14.65,0,0,0,3.28-.71,1.07,1.07,0,0,1,1.33.53c.63,1,1.65,1.71,2.15,2.82-.32.68-1,.84-1.6,1.06a81.14,81.14,0,0,1-9.79,2.6c-2,.43-4,.71-6,1.07a1.05,1.05,0,0,1-1.06-.35c-.76-1.76.67-3.15.78-4.77a1.24,1.24,0,0,1,.42-.46A3.32,3.32,0,0,1,104.05,136Z"/><path class="cls-8" d="M145.66,47.3l-.42,1.33a16.23,16.23,0,0,1-6.29,8.5,2.63,2.63,0,0,1-2.44.49c-.61-.16-.91-.66-1.26-1.11l0-.39a1.66,1.66,0,0,1-.09-1.87c2.19-3.18,3.19-6.94,5.11-10.24A10.83,10.83,0,0,1,142,41.63a2,2,0,0,1,2.09-.79,5,5,0,0,1,1.55,3.7C145.73,45.45,145.66,46.38,145.66,47.3Z"/><path class="cls-4" d="M69.58,42.84l.66-1.46a4.9,4.9,0,0,0,.32-2.54,2.54,2.54,0,0,0-2.69-2.39c-.33,0-.67,0-1,.06.17-.11.33-.29.5-.31,2.85-.31,5.56-1.29,8.38-1.75a42,42,0,0,1,7.91-.77h5c.06.58-.37.56-.62.66-2.39,1-4.81,1.92-7.19,2.93a105.57,105.57,0,0,0-9.65,4.79A6.25,6.25,0,0,1,69.58,42.84Z"/><path class="cls-9" d="M27,101.73a2.57,2.57,0,0,1,2.27-.32,7.33,7.33,0,0,1,5.63,6.83,10.49,10.49,0,0,1-.86,4.82,3.41,3.41,0,0,1-1.85,2.2,36.14,36.14,0,0,1-4.63-10c-.11-.37-.19-.93-.45-1.06-1.24-.6-.72-1.32-.27-2.08A2.83,2.83,0,0,0,27,101.73Z"/><path class="cls-10" d="M144.1,40.84c-2.42,1.67-3.64,4.18-4.74,6.76a28.79,28.79,0,0,1-3.76,7.21,2.26,2.26,0,0,0-.38,1.31c-.52-.26-.7-.81-1.06-1.21a3.06,3.06,0,0,1-.49-.4l-.4,0a1,1,0,0,0-.34-.06.87.87,0,0,1-.14-.27c-.24-.48.12-.66.44-.86.82-2,1.65-4.05,2.45-6.09a21.73,21.73,0,0,1,2.39-4.8,6.29,6.29,0,0,1,2.65-2.33A2.59,2.59,0,0,1,144.1,40.84Z"/><path class="cls-5" d="M123.23,179.12a45.06,45.06,0,0,0-2.32-6.77c-.47-1-.92-2.07-1.41-3.08a11.72,11.72,0,0,1-1-2.61.7.7,0,0,1,.2-.74.57.57,0,0,1,.72.11,15.21,15.21,0,0,1,3.66,4.44,27.07,27.07,0,0,1,2.5,6.49,4.31,4.31,0,0,0,.55,1.49l0,0a2.46,2.46,0,0,0-.39.22A9.28,9.28,0,0,1,123.23,179.12Z"/><path class="cls-11" d="M57.71,132.84c4.34,1.08,8.68,2.2,13.1,2.94,1.62.27,3.25.45,4.88.67a.44.44,0,0,1,0,.52,1.32,1.32,0,0,1-.74.44,1.84,1.84,0,0,1-.84.09,6.21,6.21,0,0,1-1.14.12c-.94,0-1.54-.72-2.28-1.14A46.26,46.26,0,0,1,61,134.23a7.63,7.63,0,0,0-2.86-.64Z"/><path class="cls-12" d="M36.18,60.5c.3-.58.56-1.18.9-1.73s0-.7-.26-1c.18-1,1-1.52,1.54-2.22a3.26,3.26,0,0,1,.4-.34,4,4,0,0,0,.4-.32l.2-.16a2.36,2.36,0,0,1,.42-.28l.23-.11a1.45,1.45,0,0,1,.5-.11.84.84,0,0,1,.45.2,3.09,3.09,0,0,1-.37.89A55.83,55.83,0,0,0,37.07,60a2.61,2.61,0,0,1-.59.5Z"/><path class="cls-13" d="M112.16,134.5a4,4,0,0,1-1.9.49,26.38,26.38,0,0,1-4.92.69c-.2-.18-.11.16-.2-.07s-.19-.3-.07-.31c2.25-.24,4.42-.86,6.63-1.26Z"/><path class="cls-14" d="M135.25,56.51a3.37,3.37,0,0,1,1.26,1.11l-.43.08A1.37,1.37,0,0,1,135.25,56.51Z"/><path class="cls-4" d="M51.27,44.89a.48.48,0,0,1-.31.47Z"/><path class="cls-15" d="M133.67,54.51l.49.4Z"/><path class="cls-3" d="M125.74,178.65l.38-.22A.32.32,0,0,1,125.74,178.65Z"/><path class="cls-6" d="M79.08,47.7A8.8,8.8,0,0,1,84.31,49a5.8,5.8,0,0,1,1.81,1.53,4,4,0,0,1,.43,4.31,8.88,8.88,0,0,1-3,3.43,17.8,17.8,0,0,1-13.92,3.42,8.17,8.17,0,0,1-2.44-.82,4.51,4.51,0,0,1-1.9-6.6,9.2,9.2,0,0,1,2.09-2.39,17.91,17.91,0,0,1,7.42-3.7A13.81,13.81,0,0,1,79.08,47.7Z"/><path class="cls-16" d="M61.15,109.26l-1,.62a10.71,10.71,0,0,1-6.75,1.83c-.58-.11-1.17-.2-1.76-.33-6.83-1.45-11.51-9.13-6.78-16.93a12.24,12.24,0,0,1,1.9-2.3c2.72-2.68,8.16-3.78,11.85-1.71,3,1.66,5.28,3.85,6.06,7.26a11.49,11.49,0,0,1-1.37,9.2A30,30,0,0,1,61.15,109.26Z"/><path class="cls-17" d="M119.09,111.62c-1.11-.18-2.21-.39-3.32-.54a8.3,8.3,0,0,1-3.92-1.77,22.35,22.35,0,0,1-1.6-1.78c-3.4-4.7-3.55-10.61,1-15l.44-.41c4.53-4.66,12.5-3.24,15.92,1.23a10.56,10.56,0,0,1,1.51,10.92,10.83,10.83,0,0,1-8.9,7.13C119.87,111.44,119.48,111.54,119.09,111.62Z"/><path class="cls-6" d="M112.3,53.25a11.7,11.7,0,0,1,8.78,5.24,6.28,6.28,0,0,1,1,3.38,2.49,2.49,0,0,1-1.26,2.33,6,6,0,0,1-4.19.92,11.85,11.85,0,0,1-8.07-5.33,6.26,6.26,0,0,1-.78-1.82,3.59,3.59,0,0,1,3.1-4.64C111.24,53.29,111.58,53.29,112.3,53.25Z"/><path class="cls-18" d="M55.73,71.71a14.22,14.22,0,0,1,1.6,0,3.7,3.7,0,0,1,2.29,1.06,2.35,2.35,0,0,1,.62,2.72,6.75,6.75,0,0,1-2,2.94,14.35,14.35,0,0,1-7.17,3.22,10.29,10.29,0,0,0-1.37.22,6.37,6.37,0,0,1-4.08-.5,2.81,2.81,0,0,1-1.56-3.45,6.38,6.38,0,0,1,2.7-3.34,17.52,17.52,0,0,1,7-2.81,16.33,16.33,0,0,1,2-.14Z"/><path class="cls-18" d="M124.11,81.66a13.59,13.59,0,0,1-7.57-2.09c-.63-.36-1.23-.78-1.83-1.2a6.78,6.78,0,0,1-2.27-2.73,2.11,2.11,0,0,1,.21-2.25,3.85,3.85,0,0,1,3-1.67,15.73,15.73,0,0,1,10.25,2.57,6.56,6.56,0,0,1,2.61,3.21,5.1,5.1,0,0,1,.29,1.15,1.92,1.92,0,0,1-1.09,2.15,6.76,6.76,0,0,1-2.84.86C124.51,81.68,124.11,81.66,124.11,81.66Z"/><path class="cls-4" d="M85.67,90.44c.18-.09.36-.28.52-.26a8.58,8.58,0,0,1,6.22,3.08A24.79,24.79,0,0,1,95.67,98a2.5,2.5,0,0,1,0,2.47c-1.07,1.08-2.35.08-3.57.34-2.6.55-5.23,1.23-8,.89a5.28,5.28,0,0,1-2.28-.52c-1.49-1-1.34-2.44-.79-3.89A20.07,20.07,0,0,1,85.67,90.44Z"/><path class="cls-8" d="M96.62,102.32c.35-.46.73-.74,1.34-.37a10.71,10.71,0,0,1,3.21,3.22,9.1,9.1,0,0,1,1.46,3.46,6.12,6.12,0,0,1-2.12,6.23c-4.3,2.07-7.13,1.77-10-1-1.7-1.68-1.6-2.87.46-4.1,2.48-1.5,4.44-3.34,4.76-6.43A1.34,1.34,0,0,1,96.62,102.32Z"/><path class="cls-19" d="M96.4,103.56a2.39,2.39,0,0,1-.26,1.55,11,11,0,0,1-3.31,4.16c-.86.61-1.76,1.18-2.63,1.78a.71.71,0,0,0-.17,1c1.84,2.16,4,3.66,7,3.54a4.18,4.18,0,0,0,1.74-.36,3.32,3.32,0,0,1,1.72-.42,7,7,0,0,1-7.89,1.46c-.73-.33-1.42-.73-2.12-1.1A5.89,5.89,0,0,1,87.15,112c-.12-.24-.25-.39-.11-.16l-.13.09a2.31,2.31,0,0,1-1.79.74c-3.88-.82-7.44-2.27-10.19-5.35-1.59,3.05-.9,5.79,1.8,7.85.58.44,1.53.62,1.36,1.68a6.64,6.64,0,0,1-5.4-2A5.81,5.81,0,0,1,71,111.4c-.46-3.43.92-6.18,3.32-8.52a1.31,1.31,0,0,1,1.8,0c1,.09,1.35,1,1.88,1.61,3.94,4.8,9.8,5.75,14.81,2.39C94.11,105.89,94.57,104,96.4,103.56Z"/><path class="cls-20" d="M96.4,103.56c-.69.94-1.37,1.89-2.09,2.81a2.17,2.17,0,0,1-1,.86,11.77,11.77,0,0,1-9.76-.52A7,7,0,0,1,80,103.4c-.46-1-.85-2.11.08-3.14a1.54,1.54,0,0,1,1.66.17,18.27,18.27,0,0,0,6.91.24c1.32-.12,2.63-.31,3.94-.5a7.4,7.4,0,0,1,3.14.3,3.1,3.1,0,0,1,.93,1.85C96.54,102.73,96.47,103.15,96.4,103.56Z"/><path class="cls-8" d="M78.09,116.85a10.84,10.84,0,0,1-3.24-2.23,6.06,6.06,0,0,1-1.58-4,9,9,0,0,1,.78-4.07c.37-.75.88-.84,1.33-.16a11.62,11.62,0,0,0,5.47,4.17,29.67,29.67,0,0,0,3.63,1.06,1,1,0,0,1,.79.78c.49,1.09-.47,1.49-1,2.06a15.22,15.22,0,0,1-1.65,1.66,1.32,1.32,0,0,1-.53.23c-.28,0-.56-.13-.84,0A6.56,6.56,0,0,1,78.09,116.85Z"/><path class="cls-21" d="M80.11,100.42a5.39,5.39,0,0,0,3.08,5.15c2.51,1.31,5.12,2.15,8,1.4a2.18,2.18,0,0,1,2.08.26c-2.51,2.47-5.59,2.86-8.83,2.22a10.93,10.93,0,0,1-8.36-6.6,6.93,6.93,0,0,1,0-1.93c.74-.62,1.24-1.6,2.39-1.54C79.22,99.42,80,99.43,80.11,100.42Z"/><path class="cls-22" d="M80.11,100.42a3.36,3.36,0,0,0-3,0l-1,.45a8.1,8.1,0,0,0,.31-1,13,13,0,0,1,7.14-9,4.3,4.3,0,0,1,2.11-.48c.26.08.63.19.41.5-.6.86-1.31,1.66-1.94,2.5a17,17,0,0,0-2.62,4.9,2.4,2.4,0,0,0,.18,2.09Z"/><path class="cls-23" d="M86.1,111.64l.77,0a18.1,18.1,0,0,1,3.2,4c.49,1.36.45,1.54-.57,2.11a6.08,6.08,0,0,1-7.41-.52,1,1,0,0,1,0-1.21h0A11,11,0,0,0,86.1,111.64Z"/><path class="cls-24" d="M97.8,65.35a3.45,3.45,0,0,1-2.87-1.64,1.65,1.65,0,0,1,.69-2.36,3.32,3.32,0,0,1,4.29,1.78,2,2,0,0,1-1.39,2.12A5.37,5.37,0,0,1,97.8,65.35Z"/><path class="cls-25" d="M38.53,86.5l.72,0,0-.05.46.32a4.12,4.12,0,0,1,1.18,5.34,7.27,7.27,0,0,1-2,2.46l-.34,0a1.55,1.55,0,0,1-.82-1.47A21.27,21.27,0,0,1,38.53,86.5Z"/><path class="cls-26" d="M90.07,115.65A5.29,5.29,0,0,1,88.43,114l-1.56-2.3a5.2,5.2,0,0,1-.35-.47c-.08-.15,0-.29.16-.26s.41.11.49.25a35.73,35.73,0,0,0,3.33,4Z"/><path class="cls-27" d="M82.1,116c0,.41,0,.81,0,1.21l-.84-.88A1.15,1.15,0,0,1,82.1,116Z"/><path class="cls-4" d="M39.73,86.81a.46.46,0,0,1-.46-.32Z"/><path class="cls-4" d="M47.35,114.85a.57.57,0,0,1-.43.39Z"/><path class="cls-28" d="M70.74,136.48a2.8,2.8,0,0,1,2.46.69,1.87,1.87,0,0,1,.52.23c1.32.83,1.81,2.25,2.56,3.49,2,3.27,4.52,5.74,8.46,6.33,4.2.62,7.25-1.47,10-4.27a31.33,31.33,0,0,0,3.81-5.33c.81-1,1.73-1.61,3-.85a3.19,3.19,0,0,1-.22,2.63c-.32.7-.64,1.41-1,2.12s-.86,1.17-1.28,1.77A20.55,20.55,0,0,1,94.62,148a13.26,13.26,0,0,1-15.15.84,17.59,17.59,0,0,1-6-5.76l-1-1.48A32.28,32.28,0,0,1,70.74,136.48Z"/><path class="cls-9" d="M45.06,63a2.42,2.42,0,0,1-2.59-3,5.25,5.25,0,0,1,4.41-4.25,2.67,2.67,0,0,1,.4,0c.63.05,1.33-.24,1.86.38A3.15,3.15,0,0,1,50,58.87,5.29,5.29,0,0,1,45.06,63Z"/><path class="cls-9" d="M38.53,86.5a6,6,0,0,1,.27,3.91,18.67,18.67,0,0,0-.24,4.15,2.31,2.31,0,0,1-2.78,0,2.91,2.91,0,0,1-1.3-2.35,5.92,5.92,0,0,1,3.09-5.6A1.46,1.46,0,0,1,38.53,86.5Z"/><path class="cls-29" d="M41,54.43l-.68.41a2,2,0,0,1-.21-.66c.06-.49.21-.91.81-1l.5.48Z"/><path class="cls-30" d="M130.85,52.08a46.7,46.7,0,0,1-3.6-4l0,0a2.34,2.34,0,0,1,.7.29,20.67,20.67,0,0,1,3.27,3.34A.59.59,0,0,1,130.85,52.08Z"/><path class="cls-31" d="M130.85,52.08l.4-.37c.67.53,1,1.46,2,1.63l-.44.86A7.85,7.85,0,0,1,130.85,52.08Z"/><path class="cls-32" d="M126.86,47.69l-.17-.16s.09,0,.11,0a.45.45,0,0,1,.06.14Z"/><path class="cls-33" d="M126.86,47.7a.45.45,0,0,1,.42.38l0,0a.46.46,0,0,1-.39-.42Z"/><path class="cls-34" d="M101.59,136.77c-1.18-.18-1.88.67-2.7,1.26-2.55.28-5.1-.1-7.65.07-.72-.3-1.8,0-1.92-1.26a15.41,15.41,0,0,0,4.12-.33,1,1,0,0,1,.39,0c2.63.14,5.22-.48,7.85-.46a.31.31,0,0,1,.12.3c0,.1-.06.16-.1.16S101.63,136.67,101.59,136.77Z"/><path class="cls-35" d="M89.32,136.84c.58.54,1.32.29,2,.43-.08.85-.73,1.08-1.41,1.13a56.8,56.8,0,0,1-7.38,0,1.57,1.57,0,0,1-1.3-.8.83.83,0,0,1,.06-.75Z"/><path class="cls-36" d="M81.27,136.84c0,.13,0,.25,0,.38-1.36,1.41-3,.77-4.58.64a1.82,1.82,0,0,1-1-1.05v-.36A32.59,32.59,0,0,0,81.27,136.84Z"/><path class="cls-13" d="M101.7,136.46c0-.16,0-.31,0-.46a2,2,0,0,1,2.37,0Z"/><path class="cls-8" d="M39,55.72c-.25.38-.49.76-.73,1.14a1.87,1.87,0,0,1-1.42.91,14,14,0,0,1-7.86-9c-.16-.5-.3-1-.44-1.52A22.78,22.78,0,0,1,28.57,45c.16-1.49.4-3,1.64-4,1.95-.11,2.9,1.36,3.62,2.69,1.89,3.5,3.23,7.28,5.17,10.77A1.42,1.42,0,0,1,39,55.72Z"/><path class="cls-10" d="M39,55.72c-.8-1.44-1.65-2.86-2.39-4.33a35.6,35.6,0,0,1-2.1-4.68,12,12,0,0,0-4.27-5.79c1.6-1.49,3.17-1.62,4.72-.31a8.25,8.25,0,0,1,1.42,1.64,13.43,13.43,0,0,1,1.22,2.27c1.08,2.63,2.1,5.29,3.13,7.94a7.14,7.14,0,0,1,.18.77l-.45,1c-.11.22-.1.5-.31.69l0,0-.37.37,0,0a2.82,2.82,0,0,1-.36.33Z"/><path class="cls-18" d="M76.52,137.19l4.77,0a1.67,1.67,0,0,0,1.11.38h7.77a1.9,1.9,0,0,0,1.13-.34c1.84,0,3.68,0,5.51-.11a2.33,2.33,0,0,1,2.08.88,16.67,16.67,0,0,1-8.25,9.1c-3.85,2-8.39,1.23-11.87-1.82a15.64,15.64,0,0,1-3.64-4.71c-.51-1-1.11-2-1.67-2.94a2.48,2.48,0,0,1,.58-.75l.85,0C75.39,137.21,76,136.83,76.52,137.19Z"/><path class="cls-37" d="M74,136.91a.73.73,0,0,1-.58.75l-.26-.49A.71.71,0,0,1,74,136.91Z"/><path class="cls-4" d="M76.52,137.19a2.09,2.09,0,0,1-1.63-.32l.8-.06Z"/><path class="cls-4" d="M40.12,54.87a.77.77,0,0,1,.31-.7c0,.23-.09.44-.15.67Z"/><path class="cls-4" d="M39.73,55.27a.45.45,0,0,1,.37-.37Z"/><path class="cls-4" d="M39.34,55.63l.36-.33Z"/><path class="cls-38" d="M50.13,101.64c.89-1.38.11-2.3-.87-3.16-.73-1.92.49-3.53.83-5.28.78-.32,1.57-.63,2.35-1a7.49,7.49,0,0,1,6.18.27,8.63,8.63,0,0,1,4.88,8.8A3.73,3.73,0,0,1,63,103.4c-1.31.87-2.45,2-4.06,2.36a8.43,8.43,0,0,1-7.19-1.34A3,3,0,0,1,50.13,101.64Z"/><path class="cls-39" d="M50.13,101.64a2.44,2.44,0,0,1,.58.52,6.44,6.44,0,0,0,4.92,3,7.63,7.63,0,0,0,6-1.64c.21-.16.38-.38.59-.54.52-.39.66,0,.8.4-.94,3.29-3.29,5-6.49,5.66A8.79,8.79,0,0,1,47.08,104a6.26,6.26,0,0,1-.25-1A6,6,0,0,0,50.13,101.64Z"/><path class="cls-40" d="M50.09,93.2c.25.1.57.25.49.53a29.1,29.1,0,0,1-1.32,4.75L47,97.87A7.46,7.46,0,0,1,50.09,93.2Z"/><path class="cls-38" d="M113.35,92.85a7,7,0,0,1,5.85-1.17c3.51.63,6.08,2.48,7.18,6.08-.48.51-1.14.33-1.67.55a4.32,4.32,0,0,0-1.72.94,1.59,1.59,0,0,0,.29,2.55,4,4,0,0,0,1.68.57c.38,0,.8-.11,1.15.16a1.15,1.15,0,0,1-.39,1.24,1.66,1.66,0,0,0-1,.49c-3.51,2.7-7.39,2.84-10.41.4-2.78-2.26-3.44-6.64-1.54-10.38C113,93.81,113.36,93.42,113.35,92.85Z"/><path class="cls-41" d="M113.35,92.85c.44.16.63.42.45.9a29.52,29.52,0,0,0-1.06,3,7.08,7.08,0,0,0,1.1,6.39,7,7,0,0,0,6.76,2.27,10.07,10.07,0,0,0,4-2.06c.53-.46.65-.38,1.1.43a8.69,8.69,0,0,1-8.69,5.11,8.44,8.44,0,0,1-7.47-6,8.14,8.14,0,0,1,.41-6,8.34,8.34,0,0,1,2.84-3.78A5.22,5.22,0,0,1,113.35,92.85Z"/><path class="cls-27" d="M86.1,111.64a6,6,0,0,1-4,4.4c.26-.62.85-1,1.29-1.43a12.46,12.46,0,0,0,1.91-2.19Z"/><path class="cls-42" d="M92.37,101.25c.23,0,.43,0,.62,0a1.05,1.05,0,0,1,1,.81,1,1,0,0,1-.59,1.15,4.33,4.33,0,0,1-4,.2.73.73,0,0,1-.13-1.18A4.45,4.45,0,0,1,92.37,101.25Z"/><path class="cls-43" d="M158.8,114.55a7.37,7.37,0,0,0-1.58-.81A48.29,48.29,0,0,0,147,111.22c-.38,0-.82,0-1.09-.53.11-.29.23-.66.38-1a44.09,44.09,0,0,0,2.45-24.9,63.82,63.82,0,0,0-8.45-22.47c-.23-.38-.38-.79-.6-1.24a13.76,13.76,0,0,0,6.62-3.33,14.58,14.58,0,0,0,5-12.32A14.83,14.83,0,0,0,142,32.23a10.19,10.19,0,0,0-10.61,1.09,16.81,16.81,0,0,0-6.6,10.59c-.06.28.13.68-.34.79A65.62,65.62,0,0,0,87.19,32.87c-13.65-.06-26,4-37.38,11.53-.14-.45-.26-.83-.36-1.22a18.47,18.47,0,0,0-3.29-6.77,16.2,16.2,0,0,0-1.44-1.65A11.06,11.06,0,0,0,31.5,32.59a15.46,15.46,0,0,0-7.89,17.88,14.4,14.4,0,0,0,9.58,10.18c.36.12.71.28,1.12.44-.23.41-.41.77-.61,1.1a63.25,63.25,0,0,0-8.89,25.23,43.61,43.61,0,0,0,2.61,21.77c.21.54.44,1.07.69,1.71-.38.12-.61.23-.85.28-1.05.17-2.11.29-3.15.5a45.59,45.59,0,0,0-8.42,2.44c-.66.27-.86.58-.77,1s.56.54,1.33.23a47.54,47.54,0,0,1,7.42-2.31,25.38,25.38,0,0,1,5.17-.84c.69,1.76,2,3.15,2.72,4.9l-2.9.54a47.74,47.74,0,0,0-9.72,2.92,6,6,0,0,0-1.37.78.7.7,0,0,0-.08.69.84.84,0,0,0,.65.32,2.58,2.58,0,0,0,.73-.29c1.91-.75,3.81-1.58,5.76-2.22a45.18,45.18,0,0,1,7.77-1.79l3.41,3.85c-.53.2-.93.38-1.35.51-1.33.42-2.69.78-4,1.24a50.73,50.73,0,0,0-12.76,6.51,8.31,8.31,0,0,0-1.32,1.19.6.6,0,0,0,0,.9,1.17,1.17,0,0,0,.88.24,3.69,3.69,0,0,0,1.16-.74,42.09,42.09,0,0,1,7.91-5,65.71,65.71,0,0,1,9.06-3.65c.43-.14.88-.23,1.31-.34.94.76,1.8,1.49,2.68,2.19a52.56,52.56,0,0,0,16.32,8.63c.36.12.69.31,1.05.46a2.72,2.72,0,0,1-.27.45,50.58,50.58,0,0,0-7.7,10.4,84.54,84.54,0,0,0-9.45,24.69c-.45,2.08-.8,4.18-1.17,6.28a1.08,1.08,0,0,0,.78,1.41,7.14,7.14,0,0,0,1.13.38c1.68.39,3.36.83,5.06,1.14a168.38,168.38,0,0,0,18.59,2.51c5.38.37,10.76.8,16.14,1,8.86.37,17.72-.06,26.57-.43,2-.08,4-.2,6-.42,4.1-.46,8.2-.94,12.28-1.53a42.65,42.65,0,0,0,8.35-1.91,17.43,17.43,0,0,0,1.84-.77,1.23,1.23,0,0,0,.68-1.49A99.35,99.35,0,0,0,132,160.64c-3.29-9.74-7.77-18.81-15.11-26.63a64,64,0,0,0,10.8-4.55,51.93,51.93,0,0,0,9.32-6.62,2.11,2.11,0,0,1,.54,0c1,.32,2,.63,3,1A49.57,49.57,0,0,1,155.77,132a3.79,3.79,0,0,0,.66.44.94.94,0,0,0,1.09-.23.85.85,0,0,0-.15-1.09A13.71,13.71,0,0,0,156,130a53.25,53.25,0,0,0-16.4-7.58c-.48-.13-1-.33-1.52-.53l3.33-3.76a1.23,1.23,0,0,1,.3-.07,49.32,49.32,0,0,1,13,3.8,5.28,5.28,0,0,0,1.1.47.62.62,0,0,0,.54-1,4,4,0,0,0-1-.6,37.49,37.49,0,0,0-6.59-2.28c-2.06-.5-4.13-.92-6.35-1.41a11.75,11.75,0,0,1,1.41-2.39,10.11,10.11,0,0,1,1.58-2.49,50,50,0,0,1,11.81,3,5.25,5.25,0,0,0,1.12.37.77.77,0,0,0,.63-.33C159,115.06,158.94,114.63,158.8,114.55ZM146.69,86.07a1.06,1.06,0,0,0,.15-.59A1.06,1.06,0,0,1,146.69,86.07ZM127,42.9a17.94,17.94,0,0,1,3.58-6.39,9.35,9.35,0,0,1,11.93-2.14,13.66,13.66,0,0,1,6.61,15.82,14.73,14.73,0,0,1-10.13,10l-1.33-1.64h0c.17-.52.67-.58,1.07-.78a10.06,10.06,0,0,0,4.16-3.19c-.15-.18-.31-.35-.47-.53a20.29,20.29,0,0,1-5.15,3.71c-1.19-1.42-2.38-2.84-3.52-4.22.83-2.39,1.59-4.71,2.46-7a25.82,25.82,0,0,1,1.89-3.93,7.66,7.66,0,0,1,1.83-2.06,2.78,2.78,0,0,1,4.08.37,6.35,6.35,0,0,1,1.63,4A10.8,10.8,0,0,1,144.3,51c-.55,1.05-1.26,2-1.9,3l.47.53a13,13,0,0,0,3.79-8.34A8.16,8.16,0,0,0,145.45,41c-1.71-2.7-4.6-3.06-6.93-.88a9.89,9.89,0,0,0-2.43,3.61c-.88,2.29-1.65,4.63-2.45,7-.19.56-.33,1.13-.54,1.83a42.35,42.35,0,0,1-3.48-3.31c-1.19-1-2.35-2.14-3.51-3.19C126.41,44.94,126.65,43.9,127,42.9Zm-9-.31.49.3c.43.3.86.61,1.3.89a56.51,56.51,0,0,1,12.19,10.69,6.37,6.37,0,0,1,.44.62c-.49.67-1.26.74-1.91,1a10.67,10.67,0,0,1-4.47-.72,17,17,0,0,1-7.74-6.9,7.73,7.73,0,0,1-1.14-3.36,3,3,0,0,1,.61-2.6A.17.17,0,0,0,118,42.59Zm-13.09-5.31-.27-.06C104.81,36.92,104.84,37.09,104.86,37.28ZM91.29,34.94a12.86,12.86,0,0,1,1.95-.18A40,40,0,0,1,101.08,36a4.82,4.82,0,0,1,3.21,2.11c.18.28.38.53.58.8h0c0,.39.1.78.14,1.18a3.33,3.33,0,0,1-1.92,3.58,7.48,7.48,0,0,1-2.43.76,14.93,14.93,0,0,1-9.15-1.93,6.1,6.1,0,0,1-2.7-2.8,4.27,4.27,0,0,1,1.9-4.26,7,7,0,0,0,.58-.51l-.82-.39h0ZM51.76,45.41c.44-.31.87-.62,1.31-.91A59.09,59.09,0,0,1,67,37.74l1.51-.53a1.16,1.16,0,0,1,1.15.56,3.57,3.57,0,0,1,.19,3A7.19,7.19,0,0,1,68,43.59c-.9.85-1.86,1.65-2.79,2.46-.47.24-.93.49-1.4.72a15.62,15.62,0,0,1-8.38,1.78,5.17,5.17,0,0,1-4-2.08A1,1,0,0,1,51.76,45.41ZM25,44A12.66,12.66,0,0,1,33,33.86,8.94,8.94,0,0,1,43.32,36a16.88,16.88,0,0,1,3.91,6.44c.39,1,.62,2.16.92,3.25L41.2,52.16c-.4-1.3-.71-2.43-1.09-3.54-.52-1.51-1-3-1.65-4.49a16.14,16.14,0,0,0-1.69-2.93,7,7,0,0,0-1.69-1.66,4,4,0,0,0-5.56.7,7.44,7.44,0,0,0-1.77,4.36,10.61,10.61,0,0,0,.46,4.34,13.8,13.8,0,0,0,5.07,7.22h0a6.12,6.12,0,0,0,2.42,1.59.91.91,0,0,1,.52.76l-1.12,1.4a.68.68,0,0,1-.17.09A14.22,14.22,0,0,1,25,44ZM37.25,57.17A1.29,1.29,0,0,1,36,57.08c-.74-.49-1.5-.94-2.25-1.4a16.2,16.2,0,0,1-3.84-5,10.88,10.88,0,0,1-1-6.78,5.84,5.84,0,0,1,1.48-3,2.83,2.83,0,0,1,4-.47,5.86,5.86,0,0,1,2.09,2.36c.77,1.54,1.46,3.12,2.09,4.73.69,1.79,1.28,3.62,1.94,5.53l-3.22,4.16ZM28.5,79.82A68.79,68.79,0,0,1,32.34,69a3,3,0,0,1,2.55-2.11,6.79,6.79,0,0,1,4.69,5.23,10.79,10.79,0,0,1-4.2,11.25,7.37,7.37,0,0,1-1.58.81,6.23,6.23,0,0,1-5.37-.44,1.23,1.23,0,0,1-.68-1.31C28,81.59,28.28,80.71,28.5,79.82Zm1.3,29.42c-.71-2-1.38-4-2.06-6a1.33,1.33,0,0,1-.42-.75,1.33,1.33,0,0,0,.42.75c.15-.55-.33-1.17.19-1.73.44,0,.9.07,1.35.15a4.42,4.42,0,0,1,.94.28,7.16,7.16,0,0,1,4.29,8.23c0,.23-.3.41-.46.61H30.58A12.61,12.61,0,0,1,29.8,109.24Zm1.55,3.16c-.07-.14,0-.37.07-.64l2.65-.12a4.76,4.76,0,0,1-1.29,2.87A5.47,5.47,0,0,1,31.35,112.4Zm11.25,12c-.12.21-.11.31.06.46C42.49,124.76,42.48,124.66,42.6,124.45Zm.18.56,0,0Zm8.78,4.88a51,51,0,0,1-7.34-4c-.39-.26-.79-.48-1.19-.72-.05-.38-.11-.76-.16-1.14l.13-.64h0c.09-.32.17-.64.26-1h0a.38.38,0,0,0,.08-.38c.14-.29.31-.58.42-.88a14.74,14.74,0,0,1,6.79-8,7.19,7.19,0,0,0,.8-.56,6.3,6.3,0,0,1,1.52-.23,14.89,14.89,0,0,0,5.55-.79,2.31,2.31,0,0,1,1.49-.71A2.32,2.32,0,0,1,59,112c-1.15,1.19-2.36,2.34-3.44,3.59A15,15,0,0,0,52,122.89,13.58,13.58,0,0,0,52.3,129c.08.3.17.6.24.87C52.14,130.24,51.84,130,51.56,129.89ZM43,123Zm.81-19.1a3,3,0,0,1-.07-.59,8.25,8.25,0,0,1,0-5.33A10.52,10.52,0,0,1,54.38,89.9a10,10,0,0,1,6.54,2.56,8.87,8.87,0,0,1,3.65,6.34,6.14,6.14,0,0,1,.33,1.31,7.38,7.38,0,0,1-.73,4,8.11,8.11,0,0,1-2.87,4.31C56.43,113.41,46.59,112.16,43.76,103.9Zm7.57,8.5a.76.76,0,0,0-.3-.59A.76.76,0,0,1,51.33,112.4Zm-.33-.61-.13-.06Zm79.09,48c2.22,6.29,3.95,13.6,3.86,16.42a33.24,33.24,0,0,1-10.83,2.49,44.44,44.44,0,0,0-3.89-11.44l-.38.8c.88,3.12,1.78,6.25,2.65,9.38a11.13,11.13,0,0,1,.19,1.51c-12.51,3-54.49,2.77-68.52-.29,0-2,.76-3.84,1-5.79a1.72,1.72,0,0,0,.22-.33q1-3.31,2-6.63a2.55,2.55,0,0,0,0-.63,18.74,18.74,0,0,0-2.68,6.36l-2,6.68c-1.76.16-8.21-1-11.84-2.11-.38-.55-.14-1.14,0-1.71a86.53,86.53,0,0,1,11-30c2.06-3.49,4.4-6.8,6.8-10.21,2,.49,4,1,6,1.45s3.89.86,6,1.32c.14.38.34.86.5,1.35a20.87,20.87,0,0,0,5.42,9,16.07,16.07,0,0,0,9.76,4.56,14.24,14.24,0,0,0,8.09-1.69,17.91,17.91,0,0,0,8.24-9.17c.5-1.16.86-2.37,1.33-3.69a25.13,25.13,0,0,1,4.33-.95c1.42-.35,2.85-.65,4.27-1s3-.73,4.45-1.11A95,95,0,0,1,130.09,159.76Zm-51.21-13a11.63,11.63,0,0,0,13.28.94A16.34,16.34,0,0,0,98.88,140c.33-.72.61-1.47.94-2.25l1.3-.17c.1.21.21.34.19.43a16.58,16.58,0,0,1-8.83,11.24,13.19,13.19,0,0,1-13.16-.66,18.06,18.06,0,0,1-7.57-9.49c-.15-.38-.27-.76-.38-1.14a4.36,4.36,0,0,1,0-.66l1.71.32c.23.66.43,1.29.66,1.9A16.15,16.15,0,0,0,78.88,146.71Zm-4.34-8.93c4,.26,7.94.69,11.85.61s7.7-.25,11.67-.38a4.76,4.76,0,0,1-.18.94,16.13,16.13,0,0,1-3.9,5.74,12,12,0,0,1-4.75,2.84,10,10,0,0,1-8.78-1.31A14.89,14.89,0,0,1,74.54,137.78Zm47-7.56c-.37.15-.74.28-1.11.41-.36-.32-.06-.62,0-.89a13.19,13.19,0,0,0-1.32-11.65,31.71,31.71,0,0,0-2.93-3.74c-.68-.81-1.48-1.52-2.22-2.28l-1.18-1.17-.25-.33.4.19,2,.86a17.6,17.6,0,0,0,4.63.53,6.74,6.74,0,0,1,1.69.33,2.09,2.09,0,0,1-.14-.56,2.09,2.09,0,0,0,.14.56,8.4,8.4,0,0,0,.94.66,14.68,14.68,0,0,1,6.53,7,7.84,7.84,0,0,0,.49.83.31.31,0,0,0,.09.33c.11.28.21.57.32.86a.29.29,0,0,0,.07.33h0l.33,1.25a.34.34,0,0,0,.07.35h0l0,1.6A57,57,0,0,1,121.55,130.22Zm-.43-18.33v0Zm-8.28-2.62a7.94,7.94,0,0,1-3.6-4,4,4,0,0,1-.9-2.41,9.23,9.23,0,0,1-.2-4.43,8.78,8.78,0,0,1,2.31-4.84,6.57,6.57,0,0,1,2.83-2.36,10,10,0,0,1,10.77-.18,10.46,10.46,0,0,1,5.49,9.54,5.21,5.21,0,0,1-.23,1.15,9.41,9.41,0,0,1-4.72,7.64A10.08,10.08,0,0,1,112.84,109.27Zm16.76,12.31a.61.61,0,0,0-.18-.25A.61.61,0,0,1,129.6,121.58Zm16-17a27.9,27.9,0,0,1-2.26,6.17,51.24,51.24,0,0,0-10.82.55l1.51.38a70,70,0,0,1,8.21.08.74.74,0,0,1,0,1,22.55,22.55,0,0,1-2.73,4l-6.72-.31c2,1.06,4,.56,5.83,1.28a17.58,17.58,0,0,1-3.14,3.53h-2.5l1.48.67a13,13,0,0,1-3.43,2.87c-.11-.47-.19-.83-.27-1.18a1.35,1.35,0,0,0-.31-1.32.21.21,0,0,0-.07-.28l-.33-.91a.26.26,0,0,0-.1-.29l-.36-.79h0a13.9,13.9,0,0,0-6.33-7.1c-.4-.23-.86-.35-1.25-.6-.18-.12-.25-.42-.37-.64a1.7,1.7,0,0,0-.47,0,1.74,1.74,0,0,1,.48,0,10.83,10.83,0,0,0,8.22-7.64A11.74,11.74,0,1,0,107.56,97a12.49,12.49,0,0,0-.43,5.13,15.21,15.21,0,0,0,5,9.7,56.42,56.42,0,0,1,4.17,4.3,15,15,0,0,1,3.52,7.28,13.53,13.53,0,0,1-.58,6.88,2.11,2.11,0,0,1-1.5,1.42,95.33,95.33,0,0,1-10.2,2.74,93.7,93.7,0,0,1-19.83,2.06A100.75,100.75,0,0,1,73,135.6a99,99,0,0,1-17.64-4.18,2.69,2.69,0,0,1-1.91-2,13.7,13.7,0,0,1,.84-9.73,17.63,17.63,0,0,1,3.28-4.74c1-1,2-2,3-3a33.88,33.88,0,0,0,2.32-2.48A13.09,13.09,0,0,0,65.28,97.4a11.57,11.57,0,0,0-12-8.51,11.75,11.75,0,0,0-3.39,22.73,2.41,2.41,0,0,0,.59.09c.09.17.18.34.28.55-.53.3-1,.57-1.55.87a14.2,14.2,0,0,0-6.24,7.72h0a.15.15,0,0,0-.08.23c0,.1,0,.19,0,.28,0-.09,0-.18,0-.28l-.33,1h0a1.78,1.78,0,0,0-.37,1.6.37.37,0,0,0-.06.32h-.72l-2.12-2,1.31-.58c-.09-.07-.13-.14-.16-.13-1.64.39-2.74-.41-3.7-1.61-.48-.61-1-1.17-1.61-1.82a11,11,0,0,1,3.35-.68c-.21-.08-.43-.18-.65-.25.22.07.44.17.65.25a3.89,3.89,0,0,0,2.72-.65,15.74,15.74,0,0,0-4.93.21H34.29a7.21,7.21,0,0,1-.56-.6c-.19-.25-.34-.53-.48-.75.69-1.23,1.34-2.36,2.06-3.64a27.83,27.83,0,0,1,4.92,0h0a4.52,4.52,0,0,0,3.12.11c-.72-.18-1.32-.75-2.14-.55-1-.14-2-.3-2.92-.41s-1.82-.06-2.79-.2a8.42,8.42,0,0,0-.19-3.83,6.75,6.75,0,0,0-7.92-5.72h0A41.82,41.82,0,0,1,27.22,86c.1-.58.13-1.18.19-1.76h0c.6-.14,1,.33,1.41.57a6.41,6.41,0,0,0,6.1.12,9,9,0,0,0,3-2.3,12.22,12.22,0,0,0,3-8,9.18,9.18,0,0,0-2.24-6.22,4.59,4.59,0,0,0-2.9-1.9L34,66c.26-.52.47-1,.73-1.44a64.87,64.87,0,0,1,14.42-17.1,13.11,13.11,0,0,1,1.27-1c.12-.08.35,0,.53,0,0,.94.6,1.44,1.26,1.89a5.84,5.84,0,0,0,2.79,1,15.53,15.53,0,0,0,10.71-2.91,11.23,11.23,0,0,0,4.29-4c1-1.6,1.4-3.29.25-5a.94.94,0,0,1-.07-.39c.11-.15.23-.31.36-.46a4.45,4.45,0,0,0-1,.2,4.45,4.45,0,0,1,1-.2c1.29-.29,2.57-.63,3.88-.87a70.38,70.38,0,0,1,16.07-1.13c-.34.37-.67.75-1,1.11a3.8,3.8,0,0,0-1.32,2.07,3.67,3.67,0,0,0,1,4,11.21,11.21,0,0,0,2.5,1.93,15.27,15.27,0,0,0,7.24,1.93,8.57,8.57,0,0,0,4.61-1,4.28,4.28,0,0,0,2.36-4.45c0-.53-.17-1-.25-1.57l-.28,0h0a7.75,7.75,0,0,1-.35-.78,1.07,1.07,0,0,1,0-.44,4,4,0,0,1,2.48.74,18.27,18.27,0,0,1,2.07.62c2.06.89,4.12,1.8,6.15,2.74a14.49,14.49,0,0,1,1.64,1.08h0a2.72,2.72,0,0,0-.8,2.13,7.22,7.22,0,0,0,.91,4,16.24,16.24,0,0,0,8.44,7.7,13.15,13.15,0,0,0,2.29.52A6.51,6.51,0,0,0,133,55.78a54.38,54.38,0,0,1,3.77,4.95,5.59,5.59,0,0,0-4.13,4.4,8.94,8.94,0,0,0-.11,4.33c1.22,5.67,6.62,10.63,12.69,10.23l0-.49a4.85,4.85,0,0,1-2.72-.38c-5-1.59-8.13-4.93-9-10.09-.5-2.91.25-5.55,3.1-7.14a1.82,1.82,0,0,0,.29-.27c.71.24.91.93,1.26,1.48a60.18,60.18,0,0,1,6.71,15.06c.14.44.25.89.38,1.34l0,.49c.42,1.72.84,3.45,1.27,5.17l-.21.74-2.65-.67a1.39,1.39,0,0,1-1,.32,1.39,1.39,0,0,0,1-.32,4.19,4.19,0,0,0-2.91.32,2.65,2.65,0,0,0-.57.15c-2.85,1.6-3.77,4.24-3.59,7.26a11.69,11.69,0,0,0,3.09,7.41,9.58,9.58,0,0,0,3,2.79,5.15,5.15,0,0,0,2.64,1.14l.46-.39a14,14,0,0,1-4.67-3.07c-.3-.34-.64-.64-1-1-.31-.51-.62-1-.92-1.52a12.42,12.42,0,0,1-1.72-5.42c-.21-2.53.9-6.16,4.21-7.05a9.83,9.83,0,0,1,4.78.86,2.17,2.17,0,0,1,.37.68,40.83,40.83,0,0,1-.67,15.61,4,4,0,0,1-.42.86l-.46.39C145.39,104.21,145.67,104.44,145.63,104.61Z"/><path class="cls-43" d="M130.87,111.67c-.08,0-.13.19-.23.36a7.19,7.19,0,0,0,3.42-.32l-1.51-.38C132,111.44,131.43,111.54,130.87,111.67Z"/><path class="cls-43" d="M118.12,165.6a3.7,3.7,0,0,0,.73,2.43l.38-.8A2.26,2.26,0,0,0,118.12,165.6Z"/><path class="cls-43" d="M98.84,102.38c-.54-.37-1.13-.68-1.63-1-.27-.77-.51-1.46-.76-2.14A13.72,13.72,0,0,0,93.91,94a10.52,10.52,0,0,0-3-2.88,7.7,7.7,0,0,0-8.63-.24,13.14,13.14,0,0,0-6.2,8.83l-1,2.23c-.37.25-.82.54-1.25.85a9.61,9.61,0,0,0-4,6.66,7.38,7.38,0,0,0,4.45,7.92,8.58,8.58,0,0,0,5.65.46l1.83-.49c3.25,3.12,5.9,3.08,9.44-.11.68.2,1.38.43,2.08.61a8.3,8.3,0,0,0,6-.65,7,7,0,0,0,4-6.39A9.3,9.3,0,0,0,98.84,102.38ZM76.93,99.21a15.64,15.64,0,0,1,4.81-6.92,7.12,7.12,0,0,1,9.62.13,14.9,14.9,0,0,1,4.42,7.08l-.9.17.43.27a.6.6,0,0,0,.27.09.6.6,0,0,1-.27-.09l-.43-.27c-1.65-.53-3.27,0-4.89.16-1,.13-2.08.36-3.12.48a14.85,14.85,0,0,1-5.31-.38c-.77-.18-1.53-.38-2.31-.54a4,4,0,0,0-2.33.22A1.32,1.32,0,0,1,76.93,99.21Zm1.24,17.48c-5.65.33-7.87-4.2-7-7.85a9.79,9.79,0,0,1,4-6c2.12,4.52,5.77,6.72,10.57,7.33a3.22,3.22,0,0,1-.1.79C84.3,114.37,81.83,116.47,78.17,116.69Zm4.3.33c.78-.71,1.61-1.36,2.31-2.13a28.81,28.81,0,0,0,1.88-2.49,11.79,11.79,0,0,0,3.66,4.21C88,119.11,85.34,119.26,82.47,117Zm15-.57a8,8,0,0,1-7.3-1.67,8.62,8.62,0,0,1-2.91-4.55l.79-.23a10,10,0,0,0,8-5.13l-.44-.5c-.38.45-.75.91-1.14,1.35a9.55,9.55,0,0,1-7.64,3.57c-.66,0-1.32,0-2,0h0c-.57-.16-1.16-.28-1.72-.47A10.74,10.74,0,0,1,77.7,105a7.64,7.64,0,0,1-1.11-2.09,1.71,1.71,0,0,1,1.73-2.44,13.48,13.48,0,0,1,2.36.23c1.31.19,2.61.47,3.92.63a14.88,14.88,0,0,0,5.15-.31,19.41,19.41,0,0,1,2.15-.41,13,13,0,0,1,2.57-.1,1.73,1.73,0,0,1,1.68,2.36,14,14,0,0,1-.51,1.5l.44.5,1.36-2.52c2.9,2.09,4.81,4.64,4.71,8.33A6,6,0,0,1,97.51,116.45ZM86.9,109.68h0Z"/><path class="cls-43" d="M59.33,71.69a7.51,7.51,0,0,0-1.3-.48,10.73,10.73,0,0,0-5.34,0,16,16,0,0,0-7.28,3.53,6.47,6.47,0,0,0-2.26,3.44A2.81,2.81,0,0,0,43.88,81a4.27,4.27,0,0,0,1.65,1.08,30,30,0,0,0,3.29.67,17.33,17.33,0,0,0,9.31-3.34,7.71,7.71,0,0,0,2.79-3.32A3.23,3.23,0,0,0,59.33,71.69Zm.49,4.21a8.52,8.52,0,0,1-1.73,2.15,14.31,14.31,0,0,1-6.77,3.22c-.84.18-1.71.26-2.71.41a19.37,19.37,0,0,1-2.6-.53,2.34,2.34,0,0,1-1.4-3.78,7.49,7.49,0,0,1,1.67-2A14.32,14.32,0,0,1,56.64,72a6.2,6.2,0,0,1,2.11.54A2.18,2.18,0,0,1,59.82,75.9Z"/><path class="cls-43" d="M126.89,74.17a16.33,16.33,0,0,0-9.74-3.44,8.12,8.12,0,0,0-3.73.77,3.23,3.23,0,0,0-1.61,4.23,6,6,0,0,0,1,1.7,10.39,10.39,0,0,0,1.71,1.67,16.61,16.61,0,0,0,9.24,3.33,7.86,7.86,0,0,0,3.7-.64,3.32,3.32,0,0,0,1.75-4.93A7.87,7.87,0,0,0,126.89,74.17Zm.13,6.69a7.39,7.39,0,0,1-3.12.49,15.14,15.14,0,0,1-9.13-3.41,6,6,0,0,1-2-2.67,2.09,2.09,0,0,1,.8-2.62,4.89,4.89,0,0,1,2.8-.88,14.67,14.67,0,0,1,10.71,4,6.13,6.13,0,0,1,1.19,1.58A2.3,2.3,0,0,1,127,80.86Z"/><path class="cls-43" d="M74.91,62.45a18.68,18.68,0,0,0,8.78-3.53,10.55,10.55,0,0,0,3.16-3.55,4.82,4.82,0,0,0-2-6.83,4.91,4.91,0,0,0-2.62-.87,11.16,11.16,0,0,0-1.88-.37c-1.37,0-2.73,0-4.1.07l-.15.31-1.19.12-2,.36-1.61.73A16.16,16.16,0,0,0,67,51.6a7.14,7.14,0,0,0-2.42,3.31c.13.28.26.55.4.83,1.58-3.56,4.55-5.47,8-6.78.79-.3,1.59-.56,2.39-.84h0l.75-.09a21.48,21.48,0,0,1,4.74-.12c.64.18,1.29.31,1.91.53a9.22,9.22,0,0,1,1.81.82,4,4,0,0,1,1.55,5.52,8.84,8.84,0,0,1-2.52,3,17.51,17.51,0,0,1-7.53,3.45,14.27,14.27,0,0,1-6.72,0,10.6,10.6,0,0,1-2-.77,3.92,3.92,0,0,1-2.41-4.18c0-.2,0-.4,0-.6s-.27-.55-.4-.83c-1.05,2.71-.36,4.88,2,6.31a10.21,10.21,0,0,0,2,.88A14.22,14.22,0,0,0,74.91,62.45Z"/><path class="cls-43" d="M122.44,60.51a4.6,4.6,0,0,0-1.18-2.67A12.64,12.64,0,0,0,114,53a7.89,7.89,0,0,0-3.74-.15,3.94,3.94,0,0,0-3.17,5.06,5.77,5.77,0,0,0,.51,1.5,11.51,11.51,0,0,0,10.32,6.33C121.31,65.79,122.85,63.88,122.44,60.51Zm-14-1.65c-1.58-3,0-5.43,3.46-5.53.46,0,.93,0,1.39,0s.73.28,1.11.39a11.19,11.19,0,0,1,5.45,3.38,6.69,6.69,0,0,1,1.89,5.78,3.86,3.86,0,0,1-3.85,2A10.78,10.78,0,0,1,108.39,58.86Z"/><path class="cls-43" d="M45.64,63.63a6.13,6.13,0,0,0,4.83-4.49,3.12,3.12,0,0,0-3.58-4,4,4,0,0,0-2.36,1h0a4.58,4.58,0,0,0-2.36,3.18A8.18,8.18,0,0,0,42,60.69a2.87,2.87,0,0,0,2.66,3A3.72,3.72,0,0,0,45.64,63.63Zm-3-2.71a6.63,6.63,0,0,1-.09-1.18,8.27,8.27,0,0,1,2.38-3.22,14.15,14.15,0,0,1,1.86-.65,2.33,2.33,0,0,1,2.86,2.77,5.3,5.3,0,0,1-4.53,4.1A2.3,2.3,0,0,1,42.64,60.92Z"/><path class="cls-43" d="M39.71,86.36a3.35,3.35,0,0,0-3.52.63,5.59,5.59,0,0,0-2.32,4.62,3.24,3.24,0,0,0,1.48,3.24,3,3,0,0,0,3.69,0,9,9,0,0,0,1.52-1.51,4.85,4.85,0,0,0,1.2-3.85A3.46,3.46,0,0,0,39.71,86.36Zm1,5.23c-.15.44-.38.85-.57,1.27-.22.23-.43.48-.67.7a3.3,3.3,0,0,1-3.71.86l-.23.22.23-.22A3.68,3.68,0,0,1,34.62,91a5.47,5.47,0,0,1,2.1-3.51,3.35,3.35,0,0,1,.52-.3A2.43,2.43,0,0,1,41,89,4.91,4.91,0,0,1,40.73,91.59Z"/><path class="cls-43" d="M99.18,65.33a1.84,1.84,0,0,0,1-1.92,2.15,2.15,0,0,0-.14-.62A3.84,3.84,0,0,0,95.17,61a1.92,1.92,0,0,0-1,2.17A3.73,3.73,0,0,0,99.18,65.33Zm-3-4a5.6,5.6,0,0,1,.6,0,3.09,3.09,0,0,1,2.63,1.53,1.3,1.3,0,0,1-.8,2,3.24,3.24,0,0,1-3.34-1.27A1.36,1.36,0,0,1,96.16,61.32Z"/><path class="cls-43" d="M30.24,91.24a22,22,0,0,0-.06,4.93c.51-.26.4-.64.44-.93.12-.92.21-1.83.27-2.75a2.61,2.61,0,0,0-.11-1C30.74,91.42,30.48,91.37,30.24,91.24Z"/><path class="cls-43" d="M33.26,95.65c-.17.12-.4.34-.4.51a7.34,7.34,0,0,0,1.39,3.67,11.55,11.55,0,0,0-.56-3.9C33.65,95.79,33.32,95.61,33.26,95.65Z"/><path class="cls-43" d="M53.61,50.83c-1.6,1.05-2.13,1.81-2,2.9C52.27,52.84,53.19,52.28,53.61,50.83Z"/><path class="cls-43" d="M48,67.16c.06.23.12.47.17.71.43-.79.87-1.57,1.28-2.37a1.35,1.35,0,0,0,0-.5A2.69,2.69,0,0,0,48,67.16Z"/><path class="cls-43" d="M54.58,65.6a1.71,1.71,0,0,0,1.11-1.13c.68-1,1.38-1.92,2-2.91.09-.14,0-.42-.09-.89A8.06,8.06,0,0,0,55.26,64,2,2,0,0,0,54.58,65.6Z"/><path class="cls-43" d="M52.86,62.41l.83-1.14c.74-1,1.49-2,2.21-3,.12-.16.09-.43.18-.86-1.57.89-2,2.29-2.79,3.5C52.66,61.69,52.67,61.69,52.86,62.41Z"/><path class="cls-43" d="M60.1,164.68a18.21,18.21,0,0,0-1.66,5.3,12.24,12.24,0,0,0,2.5-5.94C60.39,163.9,60.27,164.39,60.1,164.68Z"/><path class="cls-43" d="M64.62,165.86a17.62,17.62,0,0,0-1.36,4.52l.38.75c.13-.38.27-.75.38-1.13.35-1.14.7-2.29,1-3.43C65.16,166.22,65.15,165.92,64.62,165.86Z"/><path class="cls-43" d="M60.36,172.4c-.56,1.36-.41,2.8-.56,4.37.25-.28.47-.41.5-.57.23-1.09.44-2.18.62-3.27a2.24,2.24,0,0,0-.14-.73C60.58,172.29,60.4,172.32,60.36,172.4Z"/><path class="cls-43" d="M56.67,109.77A12.48,12.48,0,0,0,60.82,108a11.89,11.89,0,0,0,2.93-4.3,17,17,0,0,0,.42-4.44,9.19,9.19,0,0,0-3-5.64c-.24-.22-.44-.47-.66-.71-.46-.26-.91-.55-1.39-.78a9.4,9.4,0,0,0-12.58,4.28c-.23.48-.45,1-.61,1.31l-1.77,1.18a2.89,2.89,0,0,0,0,2.78,7.85,7.85,0,0,1,2.52,3.13A9.19,9.19,0,0,0,56.67,109.77Zm-11.44-8.48a1.24,1.24,0,0,1,.11-2,3.39,3.39,0,0,1,4,.37,1.21,1.21,0,0,1-.28,2,5.56,5.56,0,0,1-1.26.43A3.25,3.25,0,0,1,45.23,101.29Zm1.89,2c.59-.15,1-.23,1.48-.38a4.38,4.38,0,0,0,1.09-.47,2.16,2.16,0,0,0,.36-3.55,4.75,4.75,0,0,0-1.33-.86,12.37,12.37,0,0,0-1.49-.49,8.22,8.22,0,0,1,8.86-5.34,8.37,8.37,0,1,1-9,11.09Z"/><path class="cls-43" d="M127,102.86l1.91-1.6c.39-2.06.21-2.41-2-3.78-.14-.31-.28-.68-.45-1a9.38,9.38,0,0,0-11.3-5.1c-.45.13-.88.29-1.32.44l-2.9,2.28a16,16,0,0,0-2.26,4.43,12.36,12.36,0,0,0,.24,4.37c.25.67.51,1.34.77,2a11.86,11.86,0,0,0,4,4l1.13.38a9.38,9.38,0,0,0,11.76-5.41C126.7,103.45,126.85,103.08,127,102.86Zm.66-3.66a1.17,1.17,0,0,1,.08,1.76,3.74,3.74,0,0,1-2.54,1,8.41,8.41,0,0,1-1.61-.67,1.13,1.13,0,0,1-.23-1.73A3.18,3.18,0,0,1,127.61,99.2ZM117,108.67a8.37,8.37,0,0,1-7.49-8.21,8.27,8.27,0,0,1,6.64-8.32,8.17,8.17,0,0,1,9.47,5.29,7,7,0,0,0-1.09.27,6.69,6.69,0,0,0-1.56.84,2.23,2.23,0,0,0,.47,3.9,12.54,12.54,0,0,0,2.2.64C124.78,106.71,120.42,109.1,117,108.67Z"/></g></g></svg>