<svg xmlns="http://www.w3.org/2000/svg" viewBox="0 0 175.83 182.92"><defs><style>.cls-1{fill:#d7e9e6;}.cls-2{fill:#a46f5a;}.cls-3{fill:#8f5e4a;}.cls-4{fill:#8eacfa;}.cls-5{fill:#ea1142;}.cls-6{fill:#fbf4e3;}.cls-7{fill:#cb123a;}.cls-8{fill:#7c97ed;}.cls-9{fill:#cb133a;}.cls-10{fill:#ecd270;}.cls-11{fill:#6c483b;}.cls-12{fill:#614134;}.cls-13{fill:#f5e6ba;}.cls-14{fill:#fefffe;}.cls-15{fill:#fefefe;}.cls-16{fill:#daa781;}.cls-17{fill:#d9a681;}.cls-18{fill:#d6a57f;}.cls-19{fill:#e5eed7;}.cls-20{fill:#d2a37d;}.cls-21{fill:#f1d273;}.cls-22{fill:#ea1543;}.cls-23{fill:#ed607c;}.cls-24{fill:#f2dc9e;}.cls-25{fill:#f2dca0;}.cls-26{fill:#592d4b;}.cls-27{fill:#4c2840;}.cls-28{fill:#946755;}.cls-29{fill:#825848;}.cls-30{fill:#885d4c;}.cls-31{fill:#966854;}.cls-32{fill:#f7d26e;}.cls-33{fill:#f2db9e;}.cls-34{fill:#4d2942;}.cls-35{fill:#f3dda4;}.cls-36{fill:#7b4727;}</style></defs><g id="Calque_2" data-name="Calque 2"><g id="OBJECTS"><rect class="cls-1" width="175.83" height="181.36" rx="68.69"/><path class="cls-2" d="M87.18,22.06c1.83-.55,3.69-.26,5.54-.26,2,1.2,4.23,1,6.34,1.53a51.5,51.5,0,0,1,11.77,4.33c3.66,1.92,7.21,4,10.67,6.25a55.66,55.66,0,0,1,12.84,11.61A105.43,105.43,0,0,1,146.53,64a78.33,78.33,0,0,1,7.05,20.51,115.73,115.73,0,0,1,1.91,13.61,43.4,43.4,0,0,1-.81,12.71,82.07,82.07,0,0,1-6.75,19.36c-.38.76-.66,1.61-1.75,1.71-.48,0-.69.58-1,1-1,1.34-1.94,2.7-3,4a46.5,46.5,0,0,1-18.75,14.48c-1.72.72-3.43,1.45-5.21,2a3.77,3.77,0,0,1-1.36.26,2.09,2.09,0,0,1-.34-2.06,71.15,71.15,0,0,0,1.52-12.76c.86-1.76.13-3.29-.7-4.8,0-1.13.78-1.79,1.45-2.51a9.7,9.7,0,0,0,2.46-9.43c-2.3-8.59-7.39-14.92-15.72-18.4a51.64,51.64,0,0,0-22.4-4,32.76,32.76,0,0,0-4.27.91c-7.14,1.73-14.16,3.84-19.7,9-4.91,4.54-7.6,10.18-7.14,17a8.41,8.41,0,0,0,3.38,6.09,21.58,21.58,0,0,0,10.4,4.22c.74.11,2-.11,1.64,1.44-1,.57-2.12.15-3.16.4a17.2,17.2,0,0,1-9.51-3.16c-.86,1.49.16,3.32-1.1,4.55-1.25.32-2-.59-2.78-1.25-10.28-8.89-17-19.9-19.24-33.39-2.26-13.29.6-25.78,6.11-37.83a79.77,79.77,0,0,1,5.47-10,19.3,19.3,0,0,1,3.52-4.57c.81-.57,1.77-.89,2.61-1.44,1.13-.73,1.21-1.45.15-2.29a17.39,17.39,0,0,1,5.68-5.51c4.5,1.28,7.74-.8,10.43-4.05,1.8-2.19,1.43-3.33-1.13-4.39a1.23,1.23,0,0,1-.6-.5c0-.78.63-1,1.19-1,1.88-.15,3.22-1.27,4.57-2.4.94-.48,1.85-1,2.78-1.5,3.83-2.28,7.73-4.43,11.66-6.52C85.15,22.9,86.36,22.91,87.18,22.06Z"/><path class="cls-3" d="M87.18,22.06c.17.13.67.09.31.47a3.27,3.27,0,0,1-.86.49c-2.87,1.5-5.76,3-8.61,4.52-1.74.94-3.44,2-5.15,3-1.39-.67-2,.39-2.81,1.18a1.39,1.39,0,0,1-.68,1.13c-.6.39-1.22.77-1.8,1.2a2.64,2.64,0,0,1-1.65.48,2.73,2.73,0,0,0-1.89.35,1.59,1.59,0,0,1-1.17,1c-4.09,1.33-6.89,3.84-7.61,8.27a40.24,40.24,0,0,1-4.1,4.26,7.83,7.83,0,0,1-1.49.94c-.5,1.48-2,2.34-2.36,3.93a95.5,95.5,0,0,0-5.55,8.51c-1.45,2.54-2.74,5.17-4,7.82-.69,1.51-1.2,3.1-1.82,4.64a64,64,0,0,0-3.35,12.28,18.43,18.43,0,0,0-.55,5.14,2.54,2.54,0,0,1-.06,1,16.91,16.91,0,0,0-.32,4.76,18.57,18.57,0,0,0,.27,3.56c.25,1.36.27,2.77.49,4.15a48.87,48.87,0,0,0,4.18,13.67,59.47,59.47,0,0,0,4.58,8.17,45.3,45.3,0,0,0,5.67,6.92c.68.65,1.34,1.3,2,2a44.34,44.34,0,0,0,4.78,4.2,2.72,2.72,0,0,1,1.12,2.41c.14,3,.83,6,1.16,9-.11.55-.15,1.14-.7,1.49a11.91,11.91,0,0,1-7.13-3.36c-1.45-.94-2.92-1.85-4.33-2.84a57.23,57.23,0,0,1-16.52-17.39,48.84,48.84,0,0,1-6.39-18.14,67.71,67.71,0,0,1-.67-13.34,84,84,0,0,1,2.91-18.09A92.1,92.1,0,0,1,40.42,46.09,65.09,65.09,0,0,1,73.08,24.54a56.87,56.87,0,0,1,13.51-2.48Z"/><path class="cls-4" d="M131.16,156.34a48.62,48.62,0,0,1,4.17,10.73c-.29,1.22-1.31,1.62-2.31,2a85.7,85.7,0,0,1-15.54,4.18c-6.83,1.07-13.68,1.62-20.57,2.07-5,.31-10,.27-14.94.3a101.47,101.47,0,0,1-29.61-4.5,3.59,3.59,0,0,1-1.19-.77,1.62,1.62,0,0,1-.38-.58,12.23,12.23,0,0,1,2.59-10c1.11-.37,2.11.16,3.14.4.74.3,1.53.44,2.3.68a6,6,0,0,1,1.62,2.2,17.84,17.84,0,0,0,5.91,6.24c.4.25.76.52,1.26.33a6.05,6.05,0,0,0,2.69-3.78c.34-1,.65-2,1.85-2.4s2.65.08,4,.18a161.46,161.46,0,0,0,24.49-.12c1.69.34,1.82,1.9,2.4,3.11.72,1.51,1.34,3.13,3.53,2.72a13.93,13.93,0,0,0,4.94-5.06c.65-1,1.14-2.13,2.28-2.71,5.37-1.34,10.81-2.49,15.73-5.2A1.46,1.46,0,0,1,131.16,156.34Z"/><path class="cls-5" d="M52.22,170.35c1.81.44,3.61.9,5.41,1.33a119.38,119.38,0,0,0,16.71,2.78,131,131,0,0,0,21.33.06c2.52-.18,5-.35,7.56-.47a91.92,91.92,0,0,0,15.42-2,4.39,4.39,0,0,1,1.18-.18,10.41,10.41,0,0,0,4.06-.78,100.63,100.63,0,0,0,10.4-3.47,11.65,11.65,0,0,0,1-.56,27,27,0,0,1,1.87,6.07,3.05,3.05,0,0,1,.06.6c.11,1.85-.38,2.54-2.21,2.94-2.72.59-5.46,1.12-8.19,1.69-4.75,1-9.54,1.77-14.36,2.3q-5.44.6-10.92,1a135.27,135.27,0,0,1-14,.2c-4.18-.13-8.37-.39-12.55-.6-3.12-.15-6.24-.3-9.36-.49-3.71-.22-7.41-.57-11.1-1.09-1.38-.19-2.76-.42-4.14-.63-1.13-.95-.81-2.27-.83-3.49a10.62,10.62,0,0,1,1-5.52.73.73,0,0,1,.7-.19l-.05.15A5.44,5.44,0,0,0,52.22,170.35Z"/><path class="cls-6" d="M113.66,162.13c-.53.84-1.07,1.68-1.58,2.54a17.91,17.91,0,0,1-3.26,4,4.58,4.58,0,0,1-2,1.26,2.78,2.78,0,0,1-1.2-2.17c-.75-4-1.54-7.92-2.22-11.91-.22-1.3.21-2.66-.42-3.9a3,3,0,0,1-.12-.67,10.53,10.53,0,0,1-.35-3.62c-.11-1.08-.19-2.17-.31-3.26-.22-3.12.65-4.12,3.91-4.36a21.47,21.47,0,0,0,10.31-3.28c.69-.45,1.53-1.29,2.3-.67s.33,1.58.16,2.42a60.45,60.45,0,0,1-1.95,15.08c-.13.42-.25.84-.37,1.26C117,157.83,115.65,160.11,113.66,162.13Z"/><path class="cls-7" d="M50.91,170a25.31,25.31,0,0,1-.33,3.36,18.57,18.57,0,0,0-.11,3.17c0,.87,0,1.73,0,2.59a58.32,58.32,0,0,1-9.31-2,11.19,11.19,0,0,1-1.84-.73,1.61,1.61,0,0,1-.92-1.81,2.88,2.88,0,0,1,.18-.77c.85-2.24,1.44-4.55,2.08-6.85a2.89,2.89,0,0,1,.26-.53.87.87,0,0,1,.73-.25c2.88.81,5.73,1.71,8.53,2.76A1,1,0,0,1,50.91,170Z"/><path class="cls-5" d="M113.66,162.13a5,5,0,0,1,.67-1.62,50.15,50.15,0,0,0,2.23-5.67c2.91-.91,5.72-2.06,8.52-3.25a17,17,0,0,1,1.67-.65,1.73,1.73,0,0,1,2.35.9,23.17,23.17,0,0,1,2.06,4.5,7.33,7.33,0,0,0-.91.39,44.5,44.5,0,0,1-13.45,4.84C115.76,161.79,114.71,162,113.66,162.13Z"/><path class="cls-8" d="M50.91,170a13.31,13.31,0,0,0-3.12-1.16c-1.44-.46-2.91-.84-4.34-1.33-.86-.29-1.68-.73-2.52-1.1a38.14,38.14,0,0,1,2.84-8.59,7.93,7.93,0,0,1,.62-1,1.48,1.48,0,0,1,1.14-.24c2.76.81,5.6,1.4,8.12,2.89a.37.37,0,0,1-.07.56,26.59,26.59,0,0,0-2.19,6.74,11.07,11.07,0,0,0-.08,3.15Z"/><path class="cls-9" d="M53.55,159.7a65.38,65.38,0,0,1-9.15-2.93,1.26,1.26,0,0,1,0-.39,37,37,0,0,1,3.26-6.08c.93-.45,1.45.4,2.14.68,1.53.62,3.06,1.25,4.61,1.81.44.23,1,.16,1.38.59a1.44,1.44,0,0,1,.28.55C55.75,156.07,55.47,158.25,53.55,159.7Z"/><path class="cls-10" d="M54.49,153.08c-1.25-.4-2.5-.78-3.74-1.19a3.86,3.86,0,0,1-2.33-1.34c-.11-.17-.47-.17-.72-.25l.39-.74,6.84,3.19A.54.54,0,0,1,54.49,153.08Z"/><path class="cls-11" d="M78.83,100c3.2-1.22,3.2-1.16,6.11-1.23a54.06,54.06,0,0,1,8.54.55,49.76,49.76,0,0,1,10.57,2.78,37.78,37.78,0,0,1,5.77,2.69,26.15,26.15,0,0,1,9.16,9.5,21.48,21.48,0,0,1,3.2,7.67c.65,3.88-.06,7.4-3,10.27-.56.56-1.28,1-1.56,1.79.15,1.61-1.06,2.24-2.2,2.67a27.93,27.93,0,0,1-13.62,1.9,12.18,12.18,0,0,1-5.8-1.82c-1.55-1.34-3.63-1.94-5-3.51a11.88,11.88,0,0,0-3-2.66c-.87-.67-1-1.83-1.64-2.6,0,0-.18-.06-.18-.06s-.19,0-.19,0l-.35.28a3,3,0,0,1-1.4,1.14c-1.53.81-2.85,1.94-4.4,2.71-4.48,2.24-9,3-13.88,1.17-8.13-3-11.28-11.84-6.72-19.27a24.81,24.81,0,0,1,7.07-7.5,38.65,38.65,0,0,1,10.89-5.74C77.8,100.65,78.47,100.61,78.83,100Z"/><path class="cls-12" d="M78.83,100c.25,0,.54-.06.77.27-2,.91-4,1.79-5.91,2.72a42.67,42.67,0,0,0-8.41,5.29A22.4,22.4,0,0,0,59.63,115a12.31,12.31,0,0,0-.5,11.49,10.59,10.59,0,0,0,5,5.21A16.46,16.46,0,0,0,71,133.6,17.59,17.59,0,0,0,80.45,131c.86-.51,1.69-1.05,2.54-1.58a3.39,3.39,0,0,1,1.47-.56c.62.75,0,1.3-.28,1.92a16.53,16.53,0,0,1-7.13,6.11,12.5,12.5,0,0,0-1.32.66,7.41,7.41,0,0,1-2.43.72c-1.91.27-3.84,1-5.68-.24a1.53,1.53,0,0,0-.92-.34,22.54,22.54,0,0,1-9.46-2.82,12.22,12.22,0,0,1-4.55-4.07,8.94,8.94,0,0,1-1.47-4.48,21.4,21.4,0,0,1,4.54-14.12,27.42,27.42,0,0,1,11.47-8.66,56.42,56.42,0,0,1,10.41-3.35A9.4,9.4,0,0,1,78.83,100Z"/><path class="cls-13" d="M96,136a14,14,0,0,0,5.07,1.7,29.18,29.18,0,0,0,12.42-1.11,7.13,7.13,0,0,0,4.16-2.55c.66,0,1.15.25,1.26,1a6.59,6.59,0,0,1,0,3.47c0-.66-.11-1.32-.16-1.94-.32-.24-.52-.07-.73.09a20.27,20.27,0,0,1-11.85,4.16,13.29,13.29,0,0,0-2.34.47,1.13,1.13,0,0,0-.94,1.14c0,.66,0,1.33,0,2-1.68,1.69-1.64,2,.37,3.19a12.56,12.56,0,0,0,.42,3.61c-.15.11-.44.21-.4.35s.28,0,.44,0a2.9,2.9,0,0,1,.34.91c.08,4,1.13,7.86,1.8,11.77.32,1.89.68,3.77,1,5.66a2,2,0,0,1-1.89.19,2.87,2.87,0,0,1-1.57-1.14,12.45,12.45,0,0,1-1.34-2.86c-.23-.68-.51-1.36-.76-2-1.25-1.29-1.23-3-1.44-4.59a13.2,13.2,0,0,1-.38-1.85,17.09,17.09,0,0,1-.42-2.46c-1.22-5-2-10.15-3.66-15.07-.21-.63-.39-1.26-.63-1.88a1.9,1.9,0,0,1-.08-.67C94.75,136.73,94.88,135.94,96,136Z"/><path class="cls-13" d="M73.64,137.57l2.08-.8c.71-.19,1.52-.45,1.89.42a2.58,2.58,0,0,1-.67,2.9,17.74,17.74,0,0,1-9.75,2.33c-3.19-.22-6.31-.21-8,3.27-1.12,0-.8-1.25-1.62-1.88-.39.83-.4,1.46.36,2,.43.3,1,.29,1.33.83.28,2.05.48,4.11.8,6.16a4,4,0,0,1-.36,1.09c-.68,2-.54,2.28,1.41,3.23a6.32,6.32,0,0,1,1.39,2.6A40,40,0,0,0,67,167.63c.53.78,1.38,1.55.65,2.66a3,3,0,0,1-2.21-.7,15.84,15.84,0,0,1-4-3.8,21,21,0,0,1-2.71-4.62,3.82,3.82,0,0,0-.57-.39,3,3,0,0,1-.35-.36,4.12,4.12,0,0,1-.44-.65,13.16,13.16,0,0,1-1.71-6.09l.06-.16c-.61-.52,0-1.29-.37-1.86a42.86,42.86,0,0,1-1.26-7.47c-.15-1.39-.29-2.78-.43-4.17,0-1.19,0-2.37,0-3.56,0-.4,0-.79,0-1.19s.17-.92.71-1.06.74.19,1,.49a8.11,8.11,0,0,0,4.6,2.53c1.34.32,2.71.57,4.06.85A18.51,18.51,0,0,0,73.64,137.57Z"/><path class="cls-14" d="M36.8,97.52c0-3.73,1.89-6.74,4.92-9.12a22,22,0,0,1,5.6-1.89C55.2,86.4,60.06,93,58.73,99.74a13,13,0,0,1-.62,2.1,10.38,10.38,0,0,1-10.72,7,11,11,0,0,1-10.28-8.29A13.59,13.59,0,0,1,36.8,97.52Z"/><path class="cls-15" d="M135.67,97.28c-.22,4.55-2.12,8-6.11,9.94a10.79,10.79,0,0,1-11.87-.94c-3.49-2.59-4.51-6.3-3.88-10.47.69-4.57,3.55-7.43,7.65-9.21a2.57,2.57,0,0,1,1.93-.19,4.58,4.58,0,0,0,1.39.06,11,11,0,0,1,10.62,8.58A22.42,22.42,0,0,1,135.67,97.28Z"/><path class="cls-12" d="M129.91,78.87c-3.69,0-6.81-1.54-9.7-3.67a5,5,0,0,1-1.57-2.27,2.65,2.65,0,0,1,1.42-3.65,3.55,3.55,0,0,1,1.13-.36,14.85,14.85,0,0,1,10.42,2.54,10.14,10.14,0,0,1,3,3.12c.8,1.37.71,2-.45,3.16a3.74,3.74,0,0,1-2.49,1.13C131.1,78.89,130.5,78.87,129.91,78.87Z"/><path class="cls-12" d="M42.91,78.82A7.8,7.8,0,0,1,40,78.36c-1.77-.55-2.39-1.68-1.78-3.76a3.78,3.78,0,0,1,1-1.49,13,13,0,0,1,8.5-4.29,13,13,0,0,1,3.73,0,4.22,4.22,0,0,1,2.84,2.29,2.33,2.33,0,0,1-.52,2.59,10.51,10.51,0,0,1-2.71,2.61A17.8,17.8,0,0,1,42.91,78.82Z"/><path class="cls-16" d="M55.26,44.1a3.58,3.58,0,0,1,.36-3.77,11.37,11.37,0,0,1,5.74-4.72c.87-.32,1.79-.51,2.68-.76.66,0,1.33,0,2,.08a1,1,0,0,1,.88.38,3.44,3.44,0,0,1,.49,3.22,7.13,7.13,0,0,1-.59,1,12.67,12.67,0,0,1-8.43,5.54A4.06,4.06,0,0,1,55.26,44.1Z"/><path class="cls-17" d="M77.9,39.28a3,3,0,0,1-.6,0c-2.27-.4-2.43-.86-1.32-2.73a6.79,6.79,0,0,1,5.66-3.23c.84-.06,1,.16,1.26.95A2.74,2.74,0,0,1,82,37.48,7.56,7.56,0,0,1,77.9,39.28Z"/><path class="cls-18" d="M47.31,53.23a1.64,1.64,0,0,1,.21-2.29,10.37,10.37,0,0,1,2.15-1.64c.72,0,1.55-.19,1.84.73s-.38,1.25-.9,1.63C49.62,52.38,48.73,53.38,47.31,53.23Z"/><path class="cls-19" d="M73.64,137.57a2.49,2.49,0,0,1-1.56.74,21.41,21.41,0,0,1-6.23.49,2.67,2.67,0,0,1-1.78-.72c1.18-.22,2.37.2,3.55-.09a17.63,17.63,0,0,0,4.86-.3A11.11,11.11,0,0,1,73.64,137.57Z"/><path class="cls-20" d="M70.06,31.69a1,1,0,0,1,.23-1.38,5.63,5.63,0,0,1,1-.63c.92-.48,1.15-.36,1.6.83C72,31.05,71.23,31.84,70.06,31.69Z"/><path class="cls-21" d="M55.33,151.66c.49.55.3,1.23.37,1.86l-1.21-.44.44-.33C55.39,152.51,55.24,152,55.33,151.66Z"/><path class="cls-6" d="M58.89,145.64c.36-.35.31-.85.46-1.28A3.32,3.32,0,0,1,62,141.93a11,11,0,0,1,2.35-.31c1.26,0,2.52,0,3.77,0a13.59,13.59,0,0,0,7.6-1.9c.49-.29.71-.11.83.37a2.37,2.37,0,0,1,.23,2.44c-.77,2.88-1.26,5.82-2.09,8.68-.32,2.11-.7,4.21-1.21,6.28,0,.43-.22.83-.25,1.26-.29,1.8-.2,3.72-1.53,5.22-.28.87-.55,1.75-.85,2.62a7,7,0,0,1-1.78,3,1.72,1.72,0,0,1-1.38.65,4.65,4.65,0,0,0-1-1.9,35.8,35.8,0,0,1-5.54-10.24c-.11-.31-.18-.63-.26-1-.68-.88-.49-2-1-3a5.28,5.28,0,0,1-.19-.76,2.21,2.21,0,0,0,0-.25,14.36,14.36,0,0,1-.78-4.45c0-.79,0-1.58,0-2.37A.53.53,0,0,1,58.89,145.64Z"/><path class="cls-5" d="M71.67,164a37.11,37.11,0,0,1,.9-5.55c1.05-.85,2.22-.3,3.24-.09a48.53,48.53,0,0,0,6.88.81c4.83.25,9.66.61,14.47-.27,1-.19,2.25-.54,3.23.39a19.6,19.6,0,0,1,.87,4.81,98.16,98.16,0,0,1-12.71.82c-4.58,0-9.15-.14-13.72-.56C73.77,164.25,72.72,164.1,71.67,164Z"/><path class="cls-22" d="M58.37,160.43a.73.73,0,0,1,.07.36,2.72,2.72,0,0,1-2,.07c-1,0-1.86-.66-2.82-.88a1.27,1.27,0,0,0,0-.28c.58-1.51,1.14-3,1.74-4.53a3.7,3.7,0,0,0,.35-1.49c.11.15.29.29.34.47.55,2,1.39,3.88,2.12,5.8A2.82,2.82,0,0,1,58.37,160.43Z"/><path class="cls-23" d="M56.4,160.86l2-.07.28.38A4.29,4.29,0,0,1,56.4,160.86Z"/><path class="cls-7" d="M52.22,170.35a1.18,1.18,0,0,1-1-.33A1.09,1.09,0,0,1,52.22,170.35Z"/><path class="cls-24" d="M103.19,147.6a3.36,3.36,0,0,1-.71.3,1.09,1.09,0,0,1-1.41-.69,3.06,3.06,0,0,1-.16-1.91,1.48,1.48,0,0,1,.8-1c.41-.22.75,0,1.11.15A5.15,5.15,0,0,1,103.19,147.6Z"/><path class="cls-25" d="M103.65,151.58c0,.32,0,.65-.09,1a.58.58,0,0,1-.5.52.73.73,0,0,1-.8-.42,2.45,2.45,0,0,1-.19-.93c0-.63.33-.88,1-.75a2.79,2.79,0,0,1,.53.24C103.63,151.33,103.64,151.46,103.65,151.58Z"/><path class="cls-12" d="M95.22,137.62a.51.51,0,0,1,.08.32,3.22,3.22,0,0,1-1.63,3.52A12.35,12.35,0,0,1,81,142.76c-2.42-1-4.28-2.5-3.59-5.57,0-.63.36-.92.84-1.2a16.22,16.22,0,0,0,5.53-5.24c.72-1,1.14-2.14,1.83-3.13v0l.3-.31a.94.94,0,0,1,.54-.32.55.55,0,0,1,.36.2,7.17,7.17,0,0,1,1,2,2.15,2.15,0,0,0,.57,1.18c1.14.63,1.62,1.93,2.7,2.6a14,14,0,0,0,2.34,1.79A3.44,3.44,0,0,1,95.22,137.62Z"/><path class="cls-26" d="M72.45,107.24c1.22.42,1.41,1.5,1.57,2.54a4.94,4.94,0,0,1-.71,3.26c-1.88,3.19-4.35,5.67-8.17,6.44a1.44,1.44,0,0,1-1.48-.25,1.8,1.8,0,0,1-.39-2,17.59,17.59,0,0,1,8.4-9.87A1.58,1.58,0,0,1,72.45,107.24Z"/><path class="cls-26" d="M110.44,118.86a1.29,1.29,0,0,1-.92.69,6.17,6.17,0,0,1-3.32-.25,15.75,15.75,0,0,1-4.31-2.78A10.94,10.94,0,0,1,99.15,112a4.62,4.62,0,0,1,.47-4.35C104.91,109.75,108.21,113.79,110.44,118.86Z"/><path class="cls-27" d="M110.44,118.86a3.46,3.46,0,0,1-1.24-1.25c-.38-.62-.83-1.19-1.2-1.82a19.49,19.49,0,0,0-7.19-7c-.51-.3-1.1-.5-1.19-1.21a1.57,1.57,0,0,1,1.5-.79,8,8,0,0,1,4.89,1.33,13,13,0,0,1,5.42,7.12A3,3,0,0,1,110.44,118.86Z"/><path class="cls-27" d="M72.45,107.24a50,50,0,0,0-5.49,4.9,11.93,11.93,0,0,0-3.3,7.09,1.93,1.93,0,0,1-1.74-1.15,3.84,3.84,0,0,1-.46-2.48A12.46,12.46,0,0,1,65.33,109a8.16,8.16,0,0,1,3.52-1.77,7,7,0,0,1,3.6,0Z"/><path class="cls-28" d="M95.22,137.62a8.07,8.07,0,0,0-3-3.32c-.49-.32-.93-.73-1.39-1.1-.1-.35,0-.51.38-.39a22.42,22.42,0,0,0,4.17,2.71,3.13,3.13,0,0,1,.6.5C95.2,136.29,95.23,137,95.22,137.62Z"/><path class="cls-29" d="M91.24,132.81l-.38.39c-1.18-.6-1.71-1.77-2.43-2.78a.38.38,0,0,1,.53,0A14.51,14.51,0,0,1,91.24,132.81Z"/><path class="cls-30" d="M85.65,127.62a8.31,8.31,0,0,1-1.59,3.22c-.26,0-.29-.25-.4-.4.23-.56.76-1,.8-1.62C84.91,128.47,85.06,127.83,85.65,127.62Z"/><path class="cls-26" d="M72.45,107.24h-3.6A4.13,4.13,0,0,1,72.45,107.24Z"/><path class="cls-30" d="M86.84,127.21l-.4,0-.4.37-.4,0a2.6,2.6,0,0,1,.22-.7C86.18,126.44,86.45,126.53,86.84,127.21Z"/><path class="cls-2" d="M77.71,136.87c0,.33,0,.67,0,1A3,3,0,0,0,79,140.61a11.58,11.58,0,0,0,3.88,2,11.81,11.81,0,0,0,10.25-1.71,5,5,0,0,0,2.19-3,15.42,15.42,0,0,1,1.35,3.71c1.25,4.26,2.12,8.61,3,13a2.91,2.91,0,0,1,0,.59c-.9,1.13-2.18.87-3.33.77a104.65,104.65,0,0,1-15.57-2,50.32,50.32,0,0,1-5-1.46,2.65,2.65,0,0,1-1.7-1.27,54.4,54.4,0,0,1,1.41-6.92c.31-1.41.69-2.8,1-4.19a3.44,3.44,0,0,0,.63-1.62c.33-1.34.1-1.6-1.43-1.71a1.19,1.19,0,0,1,1.08-.4C77.31,136.16,77.72,136.14,77.71,136.87Z"/><path class="cls-31" d="M77.71,136.87a1.41,1.41,0,0,0-.91-.5c.89-.54,1.8-1.05,2.68-1.61a15.63,15.63,0,0,0,4.18-4.32l.4.4a15.36,15.36,0,0,1-4.54,4.85C79,136.12,78.31,136.48,77.71,136.87Z"/><path class="cls-3" d="M74.06,151.21c1.4.4,2.81.77,4.2,1.2A62.77,62.77,0,0,0,85.43,154c1.75.32,3.52.54,5.29.77a17.55,17.55,0,0,0,1.78.05,22.46,22.46,0,0,1,3.16.27,30.65,30.65,0,0,0,4,.13,3.71,3.71,0,0,1,.34,2.29c-.6,1-1.7,1.06-2.64,1.17a79.9,79.9,0,0,1-23.21-.51,2,2,0,0,1-1.22-.62,7.33,7.33,0,0,1,.35-2.71A16,16,0,0,1,74.06,151.21Z"/><path class="cls-32" d="M72.89,157.53c1.72.19,3.44.41,5.16.59a79.52,79.52,0,0,0,15.35,0c2.19-.19,4.37-.43,6.56-.66a2.87,2.87,0,0,1,.43,1.78,61.66,61.66,0,0,1-13.84.88,131.1,131.1,0,0,1-14-1.72C72.67,158.13,72.78,157.83,72.89,157.53Z"/><path class="cls-25" d="M60.44,153.62a8.11,8.11,0,0,1,.69,2.26,1.78,1.78,0,0,1-.27,1.32c-1.36.45-1.84.27-2.22-.92a2.52,2.52,0,0,1,1-3.06h0C59.87,153.45,60.24,153.35,60.44,153.62Z"/><path class="cls-33" d="M58.89,145.64c0,.25,0,.51-.07.76-.47.24-.94.51-1.48.17a1.71,1.71,0,0,1-.86-1.47,2.64,2.64,0,0,1,.55-2.22.86.86,0,0,1,1.23,0,1.69,1.69,0,0,1,.58,1.21C58.86,144.59,58.88,145.12,58.89,145.64Z"/><path class="cls-23" d="M58.37,160.43a.49.49,0,0,1-.27-.48A.5.5,0,0,1,58.37,160.43Z"/><path class="cls-26" d="M45.59,89.2c.16-.1.35-.32.47-.29a5.84,5.84,0,0,0,2.53,0,5.36,5.36,0,0,1,2.74.32A9,9,0,0,1,57.44,96a6.71,6.71,0,0,1-.9,5.33,9.65,9.65,0,0,1-3.88,1.47c-4.65.44-7.49-1.82-8.06-6.44A11.93,11.93,0,0,1,45.59,89.2Z"/><path class="cls-34" d="M45.59,89.2a.82.82,0,0,1,.29.7,10.17,10.17,0,0,1-.24,1.36,20.22,20.22,0,0,0-.37,5.32c-.1,2.71,2.91,5.58,5.5,5.48a11.56,11.56,0,0,0,4.09-.59c.51-.22,1.09-.61,1.68-.12a8.37,8.37,0,0,1-8.26,4.74A8,8,0,0,1,41,100.78c-.28-.76-.1-1.15.64-1.36.31-.09.65-.09,1-.15a1.68,1.68,0,0,0,1.57-1.5,1.7,1.7,0,0,0-1-1.77c-.54-.26-1.11-.44-1.66-.66s-.79-.44-.59-1A8.77,8.77,0,0,1,45.59,89.2Z"/><path class="cls-26" d="M119.57,90A6,6,0,0,1,122,88.66a.78.78,0,0,1,.57-.08c.89.4,1.85.14,2.75.34a8.58,8.58,0,0,1,6.65,5.69c.2.58,0,.86-.55,1s-.91.2-1.35.34a2.46,2.46,0,0,0-.86.46,1.39,1.39,0,0,0,.1,2.46c.38.26.78.49,1.17.73-.3,1.62-1.68,2-2.91,2.38-5.22,1.76-9.83-2.28-8.88-7.7A36.9,36.9,0,0,0,119.57,90Z"/><path class="cls-27" d="M119.57,90c.5.13.86.39.71,1-.28,1.15-.62,2.29-.85,3.45a5.83,5.83,0,0,0,4,7,6.12,6.12,0,0,0,3.52-.07,11.21,11.21,0,0,0,3.51-1.79c.4,0,.8,0,1.2,0a.32.32,0,0,1,.33.38,1.59,1.59,0,0,1-.06.39,8.88,8.88,0,0,1-9.29,5.74,8.7,8.7,0,0,1-7.32-6.93,8.79,8.79,0,0,1,3-8.27A3.1,3.1,0,0,1,119.57,90Z"/><path class="cls-35" d="M60.86,149.68a3.14,3.14,0,0,1-.17.58.69.69,0,0,1-1.15.07,1.27,1.27,0,0,1-.23-.92.91.91,0,0,1,.86-.89C60.6,148.51,60.87,148.9,60.86,149.68Z"/><path class="cls-13" d="M60.44,153.62a1.11,1.11,0,0,1-.78-.4A.91.91,0,0,1,60.44,153.62Z"/><path class="cls-11" d="M86,127.62l.4-.37Z"/><path class="cls-36" d="M157.52,100.24a93.73,93.73,0,0,0-2.32-17.8A84.19,84.19,0,0,0,131.54,40,64.81,64.81,0,0,0,94,21.6a49.59,49.59,0,0,0-17.09.71A66.67,66.67,0,0,0,43.34,40.53a84,84,0,0,0-21.4,35.79,86.6,86.6,0,0,0-3.86,29A45.92,45.92,0,0,0,20.35,118c4.53,13.49,12.6,24.23,24.79,31.75.55.34,1.09.71,1.7,1.11l-.62.9a36.48,36.48,0,0,0-3.93,6.93,74.25,74.25,0,0,0-4.57,14.86,14.65,14.65,0,0,0-.3,2,1.43,1.43,0,0,0,1,1.54c.63.21,1.27.39,1.92.56a151.56,151.56,0,0,0,25.42,4c4.77.4,9.57.63,14.35,1a192.53,192.53,0,0,0,27-.21c2.85-.21,5.69-.62,8.52-1s5.53-.84,8.28-1.31a101.88,101.88,0,0,0,12.48-2.68l1.14-.37a1.22,1.22,0,0,0,.86-1.22,5.89,5.89,0,0,0-.11-1.18,74.89,74.89,0,0,0-2.43-9.68,45.44,45.44,0,0,0-6.7-13.74,1.48,1.48,0,0,1-.13-.53c.78-.48,1.52-.93,2.25-1.4a56.34,56.34,0,0,0,17.81-18.05A53.93,53.93,0,0,0,157.52,100.24Zm-22.7,67,.42,1.15,1.38,6.84a2.58,2.58,0,0,1,0,.51c-.32.13-.66.3-1,.41a83.35,83.35,0,0,1-10.12,2.21c-3.74.65-7.48,1.26-11.23,1.77-3.09.43-6.2.81-9.32,1a166.43,166.43,0,0,1-19,.36c-6.24-.34-12.49-.64-18.73-1.12a168.74,168.74,0,0,1-22.7-3.1c-1.75-.38-3.48-.83-5.28-1.27a5.36,5.36,0,0,1,.18-2.41c.48-2.2,1-4.41,1.47-6.61a1.12,1.12,0,0,1,1.13,0c1.09.49,2.2.95,3.28,1.44a9.58,9.58,0,0,1,.95.58c-.54,2.5-.55,2.67,0,3.81.41-1.25.79-2.4,1.17-3.59L52,170.71c0,1.12.11,2.2.18,3.52a3.09,3.09,0,0,0,.76-1.81,11.77,11.77,0,0,1,.44-1.26,9.71,9.71,0,0,1,1.1.18,130.86,130.86,0,0,0,29,3.83,172.56,172.56,0,0,0,26.11-1.06,120.8,120.8,0,0,0,14.51-2.6,75.92,75.92,0,0,0,9.87-3.13c.43-.17.84-.44,1.27,0l-.42-1.15a30.09,30.09,0,0,1-6.12,2.35A117.6,117.6,0,0,1,103.24,174c-2.79.2-5.58.31-8.37.46-.22.09-.44.22-.66.29.22-.07.44-.2.66-.29H86c-5.51-.22-11-.53-16.49-1.2a125.1,125.1,0,0,1-15.63-2.93,2.06,2.06,0,0,1-.45-.25c-.34-.54.07-1.21-.49-1.77l-.87,1.51c-1.36-.42-2.67-.87-4-1.24-.57-.15-.41-.76-.79-1-.35.12-.76.43-1,.34a34.82,34.82,0,0,1-4.81-1.8v-.85h0c.76-2,1.48-4.1,2.28-6.12a18.9,18.9,0,0,1,1.13-2.07.2.2,0,0,1,0-.22,46.81,46.81,0,0,1,2.74-5.55l7.51,3.36,2.36,5.8h0c-.23.08-.5.28-.69.22a105.35,105.35,0,0,1-11.92-3.83.2.2,0,0,0,0,.22,3.74,3.74,0,0,0,.75.59,59,59,0,0,0,11.64,3.89c.09-.31.49-.57.32-.93.17.36-.23.62-.32.93.66.13.94.64,1.26,1.17a36.25,36.25,0,0,0,2.23,3.54,28.21,28.21,0,0,0,2.77,3.12,8.13,8.13,0,0,0,1.94,1.38,3.32,3.32,0,0,0,4.58-1,16.89,16.89,0,0,0,1.54-3,21.15,21.15,0,0,0,.73-2.17c4.72.49,9.4,1,14.1,1s9.41-.31,14.14-.64c.35.95.62,1.84,1,2.66A11.19,11.19,0,0,0,103,170a3.12,3.12,0,0,0,4.12.83A12.62,12.62,0,0,0,109.7,169a20.83,20.83,0,0,0,4-5.21,2.32,2.32,0,0,1,1.56-1.4,1.78,1.78,0,0,0,.4,0,63.76,63.76,0,0,0,14.71-5.32.73.73,0,0,1,.9,0h0A86.2,86.2,0,0,1,134.82,167.22ZM79.16,141.29c.58.44,1.13.93,1.75,1.31a11.22,11.22,0,0,0,2,.92A10.29,10.29,0,0,0,85,144a13.64,13.64,0,0,0,2.39.05,12.33,12.33,0,0,0,2.16-.36,11.7,11.7,0,0,0,2.06-.72,11.92,11.92,0,0,0,1.87-1.13c.58-.43,1.09-.95,1.75-1.55,1.32,3.87,3.63,15,3.57,17.11-5.28,1.21-19.36,1-24.77-.41-.09-2,2.4-13.93,3.62-17.2C78.33,140.17,78.62,140.87,79.16,141.29Zm-.87-4.58a16.25,16.25,0,0,0,8-9c.21.23.44.36.51.55a15.68,15.68,0,0,0,6.95,7.92c.34.2.66.43.92.6a2.2,2.2,0,0,1-.52,2.61,9,9,0,0,1-3,2.22,10.63,10.63,0,0,1-12.16-2A2.24,2.24,0,0,1,78.29,136.71Zm-3,23a89.47,89.47,0,0,0,19.69.66c1.45-.08,2.9-.3,4.38-.46.64,1.3.57,2.66,1,3.89-2.26.63-11.14,1.11-15.74.88-9.18-.46-10.32-.58-12.08-1.27l.75-3.65A2.62,2.62,0,0,1,75.29,159.73Zm22.36-16.55c-.46-1.79-1-3.57-1.49-5.49,1.31.07,2.41.77,3.64.92s2.5.46,3.75.51a25.23,25.23,0,0,0,4-.22,26.24,26.24,0,0,0,3.72-.71,26.53,26.53,0,0,0,3.58-1.23c1.14-.48,2.23-1.1,3.58-1.79.27,7.85-.48,15.29-3.19,22.44a33.74,33.74,0,0,1-4.33,8.07,15.8,15.8,0,0,1-3.16,3.32c-2.1,1.58-3.42,1.26-4.58-1.12a25.43,25.43,0,0,1-1.9-6.7C100.16,155.16,99.18,149.11,97.65,143.18Zm19.63-10a18,18,0,0,1-6.25,3,22.12,22.12,0,0,1-12,.28,17.33,17.33,0,0,1-10.65-7.84c-.62-1-1.21-2-2-3.32-.75,1.27-1.33,2.31-2,3.32a17.6,17.6,0,0,1-12.61,8.26,23,23,0,0,1-12.69-1.63,15.51,15.51,0,0,1-2.65-1.38,10.75,10.75,0,0,1-5.05-11.31,20.05,20.05,0,0,1,3.23-8.3,27,27,0,0,1,6.26-6.66,36.68,36.68,0,0,1,14-6.5,48.13,48.13,0,0,1,26.57,1,34.56,34.56,0,0,1,11,6,24.14,24.14,0,0,1,8.06,11.18,14.73,14.73,0,0,1,.8,7.06A10.41,10.41,0,0,1,117.28,133.2Zm-62.93,2.87c0-.24.07-.47.14-.91a26.73,26.73,0,0,0,7,3.05,26.36,26.36,0,0,0,7.49.94,24.81,24.81,0,0,0,7.27-1.48c.43.28.25.55.18.77A139.73,139.73,0,0,0,72.84,154c-.65,3.46-1.28,6.92-2,10.37a21.79,21.79,0,0,1-1,3,6.59,6.59,0,0,1-.86,1.56,2,2,0,0,1-3,.69,12.44,12.44,0,0,1-2.49-2,23.12,23.12,0,0,1-3.63-5,42.7,42.7,0,0,1-4.63-13.09A67.18,67.18,0,0,1,54.35,136.07Zm76.28,19.82-.11-.23h0Zm-.11-.23c0,.2,0,.4,0,.67a71.36,71.36,0,0,1-15.31,5.25c-.08-.3-.12-.49-.17-.68a1.35,1.35,0,0,0-.14.22.61.61,0,0,0,0,.29.61.61,0,0,1,0-.29,1.35,1.35,0,0,1,.14-.22c.35-.63.74-1.24,1-1.89.44-1,.8-2.1,1.25-3.29A70,70,0,0,0,128,151.15C129.12,152.57,129.58,154.26,130.52,155.66ZM147,130.13a53.38,53.38,0,0,1-26.66,21.94c-.61.24-1.25.43-2.08.71.43-3.29.9-6.3,1.21-9.32a37.89,37.89,0,0,0-.34-9l.71-.77a12.64,12.64,0,0,0,3.61-11.15,23.44,23.44,0,0,0-6.65-13.36,34.62,34.62,0,0,0-14.12-8.74A50.19,50.19,0,0,0,82.83,98a46.44,46.44,0,0,0-16.75,4.15A32.62,32.62,0,0,0,56,109.19a23.85,23.85,0,0,0-6.54,12.56,13.16,13.16,0,0,0,1.92,10.12c.64.92,1.44,1.74,2.18,2.62-.29,6-.86,7.62.78,17.15a7.33,7.33,0,0,1-.92-.27,53.39,53.39,0,0,1-27.23-25.29,51.26,51.26,0,0,1-5.1-14.64,54.76,54.76,0,0,1-.83-11.14,88.26,88.26,0,0,1,6.22-30.15,82.44,82.44,0,0,1,23.3-32.7A62.7,62.7,0,0,1,77.47,23.91,49.88,49.88,0,0,1,93,23a54.93,54.93,0,0,1,14.65,3.75,66,66,0,0,1,25.72,18.07,85.24,85.24,0,0,1,20.31,41.43,89.33,89.33,0,0,1,1.58,14.87A52.26,52.26,0,0,1,147,130.13Z"/><path class="cls-36" d="M124.72,85.88a11.77,11.77,0,0,0-.07,23.53,11.77,11.77,0,1,0,.07-23.53Zm4.53,13.74a12.54,12.54,0,0,0,2.25.7c-.79,3.38-4.59,6-8.32,5.59a8.37,8.37,0,0,1-1.09-16.54,8,8,0,0,1,9.39,5.3,5.38,5.38,0,0,0-.92.23,7.05,7.05,0,0,0-1.74.92A2.21,2.21,0,0,0,129.25,99.62Zm2.05-.48c-1.2,0-2.16-.64-2.3-1.38s.62-1.49,1.79-1.85a3,3,0,0,1,2.65.44,1.17,1.17,0,0,1,.13,1.89A3.36,3.36,0,0,1,131.3,99.14Zm1.52-4.41c-2.26-5-6.3-7.32-10.9-6.39a9.41,9.41,0,0,0,.06,18.47c4.44.78,9.11-1.25,11-6.79a9.26,9.26,0,0,0,1.41-1.12,9.58,9.58,0,0,0,.95-1.56,10.63,10.63,0,0,1-21.23.93,10.68,10.68,0,0,1,10.75-11.36c5.54.07,10.52,4.72,10.36,9.84a10.64,10.64,0,0,0-1.07-1.19A11,11,0,0,0,132.82,94.73Z"/><path class="cls-36" d="M48.19,85.87A11.77,11.77,0,1,0,59.85,97.63,11.72,11.72,0,0,0,48.19,85.87Zm-.28,22.5A10.72,10.72,0,1,1,58.73,97.9,10.5,10.5,0,0,1,47.91,108.37Z"/><path class="cls-36" d="M66.31,34.14a5.77,5.77,0,0,0-2.55-.2,13.54,13.54,0,0,0-8.07,4.36,9.33,9.33,0,0,0-1.48,2.11c-1.85,3.73.56,5.93,3.53,5.76a7.76,7.76,0,0,0,1.19-.08,13.31,13.31,0,0,0,8.85-5.91A7,7,0,0,0,68.64,38,3.13,3.13,0,0,0,66.31,34.14Zm.61,4.8a7.68,7.68,0,0,1-1.09,1.66,12.37,12.37,0,0,1-7.11,4.14,4.41,4.41,0,0,1-2.36-.1A1.92,1.92,0,0,1,55,42.15a4.92,4.92,0,0,1,.61-1.46,11.73,11.73,0,0,1,8-5.36,5,5,0,0,1,.87-.07C67.12,35.28,68,36.7,66.92,38.94Z"/><path class="cls-36" d="M38.65,78.67a4.54,4.54,0,0,0,1.44.64c1,.23,1.95.34,2.77.48,1.1-.17,2-.27,2.93-.46a16.05,16.05,0,0,0,6.79-3.16A7.77,7.77,0,0,0,55,73.27a3.32,3.32,0,0,0-1.68-4.66,6,6,0,0,0-1.9-.55,15.27,15.27,0,0,0-12.54,4.31,5.27,5.27,0,0,0-1.62,2.69A3.11,3.11,0,0,0,38.65,78.67Zm-.16-3.86a6.85,6.85,0,0,1,2.29-2.71,15.5,15.5,0,0,1,6.72-2.87,9.5,9.5,0,0,1,4.34,0c2.4.67,3,2.34,1.6,4.35a8.41,8.41,0,0,1-1.66,1.71,15.05,15.05,0,0,1-9,3.2A6.64,6.64,0,0,1,39.63,78,2.21,2.21,0,0,1,38.49,74.81Z"/><path class="cls-36" d="M120.25,76.19a17,17,0,0,0,9.55,3.52,8.41,8.41,0,0,0,3.51-.59c2.31-1,3.08-3,1.82-5.18a9.42,9.42,0,0,0-2.06-2.39,15.9,15.9,0,0,0-9.89-3.65,7.59,7.59,0,0,0-3.31.56,3.42,3.42,0,0,0-1.83,5.2A8.13,8.13,0,0,0,120.25,76.19Zm-.35-6.47a6.61,6.61,0,0,1,2.67-.69,14.55,14.55,0,0,1,10.37,3.89,6.39,6.39,0,0,1,1.38,1.92,2.22,2.22,0,0,1-1.2,3.15,7.1,7.1,0,0,1-3.32.55,15.23,15.23,0,0,1-9-3.36,6.41,6.41,0,0,1-2-2.46A2.08,2.08,0,0,1,119.9,69.72Z"/><path class="cls-36" d="M81,32.49A7.68,7.68,0,0,0,74.89,36c-1.43,2.18-.21,4.34,2.4,4.4a.67.67,0,0,0,.2,0,8.06,8.06,0,0,0,6-3.4,2.9,2.9,0,0,0,.4-3.19A2.86,2.86,0,0,0,81,32.49Zm1.64,3.41a6.56,6.56,0,0,1-5.35,3.15c-.13,0-.39,0-.65-.09a1.14,1.14,0,0,1-.93-1.62,4.41,4.41,0,0,1,.69-1.19,6.94,6.94,0,0,1,4.26-2.34,2.68,2.68,0,0,1,.8,0A1.33,1.33,0,0,1,82.66,35.9Z"/><path class="cls-36" d="M47.68,54.29A5.35,5.35,0,0,0,52,50.94a1.75,1.75,0,0,0-2-2.37,5,5,0,0,0-4.08,3.36A1.67,1.67,0,0,0,47.68,54.29Zm.41-3.35c.95-.91,2.31-1.31,2.55-.78s-.38,1.52-1.37,2.17a2.06,2.06,0,0,1-2,.47A2,2,0,0,1,48.09,50.94Z"/><path class="cls-36" d="M71.94,28.87a3.09,3.09,0,0,0-2.65,1.8,1.38,1.38,0,0,0,.07,1.52,1.49,1.49,0,0,0,1.57.61,3.33,3.33,0,0,0,2.37-1.63,1.46,1.46,0,0,0,0-1.68A1.51,1.51,0,0,0,71.94,28.87ZM70.53,31.3c.15-.27.2-.48.33-.58.31-.21.66-.37,1.37-.75C71.83,31.15,71.36,31.41,70.53,31.3Z"/><path class="cls-36" d="M104.71,106.66A6.86,6.86,0,0,0,102,106a3.92,3.92,0,0,0-4.26,4.09,19.53,19.53,0,0,0,.76,2.87,12.72,12.72,0,0,0,6.57,6.66,8,8,0,0,0,2.49.67,3.81,3.81,0,0,0,4.56-4,7.83,7.83,0,0,0-1-3.62A14.06,14.06,0,0,0,104.71,106.66Zm2.86,12.42a7.37,7.37,0,0,1-1.72-.5,11.13,11.13,0,0,1-6.23-6.64,6.44,6.44,0,0,1-.33-2.35,2.25,2.25,0,0,1,2.26-2.32,6.24,6.24,0,0,1,2.36.25,10.7,10.7,0,0,1,6.83,7.28,5.43,5.43,0,0,1,.16,1.18C110.92,118.28,109.65,119.4,107.57,119.08Z"/><path class="cls-36" d="M70.54,106.06a5.86,5.86,0,0,0-1.55.32,13.14,13.14,0,0,0-7.83,7.48,5.93,5.93,0,0,0-.39,3.33,3.48,3.48,0,0,0,2.81,3,6.33,6.33,0,0,0,4.26-.63,12.86,12.86,0,0,0,6.25-6.2,7.44,7.44,0,0,0,.8-3.07A3.78,3.78,0,0,0,70.54,106.06Zm3,4.26a6.89,6.89,0,0,1-.52,2.1,11.41,11.41,0,0,1-6,6.12,7.52,7.52,0,0,1-2.08.6,2.66,2.66,0,0,1-3.2-2.88,5.78,5.78,0,0,1,.29-1.75,10.72,10.72,0,0,1,6.6-7,10.83,10.83,0,0,1,1.59-.36C72.65,107.18,73.75,108.31,73.59,110.32Z"/><path class="cls-36" d="M49,167.16a10.4,10.4,0,0,0,1-5.08A7.42,7.42,0,0,0,49,167.16Z"/><path class="cls-36" d="M48.6,172.28a5.88,5.88,0,0,0,.13,3.91,8.15,8.15,0,0,0,.44-4.09C48.93,172.17,48.64,172.18,48.6,172.28Z"/><path class="cls-36" d="M102.51,148.68a1.17,1.17,0,0,0,1-1,6.62,6.62,0,0,0-.06-2.13,1.86,1.86,0,0,0-1.42-1.4,1.82,1.82,0,0,0-1.23,1.52,3.26,3.26,0,0,0,.38,2.28A1.31,1.31,0,0,0,102.51,148.68Zm-1-3.45a.74.74,0,0,1,.55-.45.78.78,0,0,1,.64.34,2.15,2.15,0,0,1-.23,2.82c-.84-.19-1-.82-1.1-1.37A3.08,3.08,0,0,1,101.55,145.23Z"/><path class="cls-36" d="M103.23,150.59a.47.47,0,0,0-.77.25c1.09.47,1.42,1.24.87,2.19-.06.1-.44,0-.68,0-.07-.72-.14-1.44-.22-2.16a1.78,1.78,0,0,0-.05,2.42c.63.76,1.15.86,1.49.28A2.36,2.36,0,0,0,103.23,150.59Z"/><path class="cls-36" d="M102.44,150.84h0v0l0,0Z"/><path class="cls-36" d="M59.12,147.15a3,3,0,0,0,.58-2,3.27,3.27,0,0,0-.71-2.25,1.35,1.35,0,0,0-2.31.13,4.26,4.26,0,0,0,.23,4.15A1.36,1.36,0,0,0,59.12,147.15Zm-1.89-3.59a.61.61,0,0,1,1-.13,2.32,2.32,0,0,1-.37,3.28,1.75,1.75,0,0,1-.91-1.43A2.53,2.53,0,0,1,57.23,143.56Z"/><path class="cls-36" d="M59.62,153.31c-.62.08-.87.58-1,1.1a3.38,3.38,0,0,0,.3,2.51c.39.8,1,1.2,1.49,1.1s.92-.66,1-1.56c0-.06,0-.13,0-.16a3.78,3.78,0,0,0-.61-2.31C60.47,153.62,60.14,153.25,59.62,153.31Zm1.13,3.52a.61.61,0,0,1-.39.39.94.94,0,0,1-.67-.2c-.63-.72-.68-1.59-.17-3.21.41.27.73.37.89.59A2.73,2.73,0,0,1,60.75,156.83Z"/><path class="cls-36" d="M59.69,150.8a.85.85,0,0,0,1.21-.17,1.52,1.52,0,0,0-.22-2,1.63,1.63,0,0,0-.53-.25,1.48,1.48,0,0,0-.52.25A1.63,1.63,0,0,0,59.69,150.8Zm.4-1.43a3.55,3.55,0,0,1,.23.43,1.77,1.77,0,0,1-.34.2,1.75,1.75,0,0,1-.18-.46S60,149.42,60.09,149.37Z"/><path class="cls-36" d="M41,92.68a8,8,0,0,1-2.41,3c-1.23.8-1.17,2.16-.11,3.27a10.8,10.8,0,0,0,1.41,1.09c.17.43.32.87.52,1.29A9.08,9.08,0,0,0,49.23,107a9,9,0,0,0,8.3-5.28,8.67,8.67,0,0,0-1-9.86A9.38,9.38,0,0,0,41,92.68Zm-1.66,5.57a1.19,1.19,0,0,1,.26-2,8.48,8.48,0,0,1,1.35-.5,3.64,3.64,0,0,1,2.49,1,1.23,1.23,0,0,1-.24,1.89A3.27,3.27,0,0,1,39.29,98.25Zm18-1.79A8.24,8.24,0,0,1,51,105.64a8.09,8.09,0,0,1-9.74-5.3,12.82,12.82,0,0,0,2.18-.64,2.27,2.27,0,0,0,.37-4A13.23,13.23,0,0,0,41.4,94.5a5.36,5.36,0,0,1,2-3.09,8,8,0,0,1,5.42-2.16A8.29,8.29,0,0,1,57.25,96.46Z"/></g></g></svg>