<svg xmlns="http://www.w3.org/2000/svg" viewBox="0 0 175.83 183.44"><defs><style>.cls-1{fill:#d7e9e6;}.cls-2{fill:#b77d66;}.cls-3{fill:#539c8d;}.cls-4{fill:#a26a54;}.cls-5{fill:#f7e7bb;}.cls-6{fill:#468275;}.cls-7{fill:#f4dd9e;}.cls-8{fill:#458375;}.cls-9{fill:#7f5546;}.cls-10{fill:#734e3f;}.cls-11{fill:#654539;}.cls-12{fill:#fefefe;}.cls-13{fill:#a4705d;}.cls-14{fill:#a67761;}.cls-15{fill:#bbb96f;}.cls-16{fill:#f5d472;}.cls-17{fill:#f5d87c;}.cls-18{fill:#8a6656;}.cls-19{fill:#8f6352;}.cls-20{fill:#6d385a;}.cls-21{fill:#6d395a;}.cls-22{fill:#886153;}.cls-23{fill:#8b6956;}.cls-24{fill:#8d6453;}.cls-25{fill:#6c365b;}.cls-26{fill:#5f3453;}.cls-27{fill:#643553;}.cls-28{fill:#5f3252;}.cls-29{fill:#7b4727;}</style></defs><g id="Calque_2" data-name="Calque 2"><g id="OBJECTS"><rect class="cls-1" width="175.83" height="181.36" rx="68.69"/><path class="cls-2" d="M73.69,37.67c1-.6,2.2-.46,3.24-.87.14-.41-.16-.62-.37-.85a5.82,5.82,0,0,1-1.11-1.66,2,2,0,0,1,1.79-2.95c.46,0,.93,0,1.39,0a.86.86,0,0,0,.73-.23A2.88,2.88,0,0,0,79,29.61a10,10,0,0,1-.34-3.56,1.59,1.59,0,0,1,.14-.57,3.73,3.73,0,0,1,4.57-1.86,8.23,8.23,0,0,1,3.73,2.9c.61.95,1.28,1.87,1.92,2.8a.8.8,0,0,0,1,.32c.93-.36,1.88-.69,2.79-1.1a2.74,2.74,0,0,1,2.12-.09c.5.18,1,.28,1.53.46a2.74,2.74,0,0,1,2.11,3.14A14.43,14.43,0,0,1,98,35.58a3,3,0,0,0-.33,1.67c1.37.29,2.8.56,4.22.89a39.87,39.87,0,0,1,7.22,2.29,3.38,3.38,0,0,1,1.22.64,8.42,8.42,0,0,0,3.05,1.85,64.66,64.66,0,0,1,21.4,16.73,74.71,74.71,0,0,1,5.07,6.68c.33.49.74.94,1.12,1.4a2.61,2.61,0,0,1,.85,2.15,2.12,2.12,0,0,0,.4,1.31,42.2,42.2,0,0,1,3.84,10.47,20,20,0,0,0,3.43,7.58A10.52,10.52,0,0,1,151.36,93a3.15,3.15,0,0,1-.66,3.18,2.91,2.91,0,0,0-.56,3.31,8.6,8.6,0,0,0,.52,1.3,15.35,15.35,0,0,1,.92,3.26c.45,2.19-.27,4.21-1,6.22a.73.73,0,0,1-.94.52,2,2,0,0,0-1.16-.07,1.59,1.59,0,0,0-1.36,1.25c-.29,1.23-.66,2.44-1,3.64a8,8,0,0,1-1.29,2.47,2.92,2.92,0,0,1-2.73,1.36,2.66,2.66,0,0,0-2.69,1.32,13.13,13.13,0,0,1-.87,1.1,6.29,6.29,0,0,1-4.53,2.24,3.75,3.75,0,0,0-2.24.68,53,53,0,0,1-11.72,6,11.53,11.53,0,0,0-1.06.52,1.8,1.8,0,0,1-1.25,1.19,25,25,0,0,1-7.12,1.8c-1.45-.53-2.94-.11-4.32.12a91.11,91.11,0,0,1-20.06.86c-11.36-.62-22.39-2.93-32.73-7.94C47,124.13,42,119.66,39.7,112.58c-.56-1.75-1.51-2.89-3.53-2.92-1.24,0-1.83-1-2.2-2A17.34,17.34,0,0,1,33,103c-.94-16.21,3.89-30.53,14.06-43.13,7.21-8.93,16.22-15.64,26-21.46C73.34,38.18,73.62,38,73.69,37.67Z"/><path class="cls-3" d="M123.43,146a30.19,30.19,0,0,1,3.74,5.86c2.4,4.59,4.75,9.21,6.69,14,1.27,3.14,2.71,6.22,4.07,9.32.13.31.28.61.39.92a.78.78,0,0,1-.44,1c-.43.18-.87.32-1.31.47A69.8,69.8,0,0,1,126.29,180a6.51,6.51,0,0,1-1,0,3.18,3.18,0,0,1-1.25-2.18,33.8,33.8,0,0,0-4.93-10.4c1.15,3.43,2.53,6.55,3.18,9.91a7.72,7.72,0,0,1,.35,3.13,5.56,5.56,0,0,1-2.13.4,124.91,124.91,0,0,1-14.46,1.19c-4.77.16-9.54.21-14.3.63-.75.07-1.47.09-1.89-.71a1.5,1.5,0,0,1-.91-1.43c-.22-5-.75-10.06-.41-15.11a2.53,2.53,0,0,1,.35-1.13,8.59,8.59,0,0,0,1.47-2.11c1.38-3.75,4.35-5.73,7.91-7,4.44-1.61,9.09-2.46,13.64-3.66,3.81-1,7.49-2.29,10.44-5.08A1.88,1.88,0,0,1,123.43,146Z"/><path class="cls-4" d="M73.69,37.67l.4.07c.26,0,.58.15.26.46a7.77,7.77,0,0,1-1.13.82c-3.24,2.21-6.5,4.39-9.71,6.64a63,63,0,0,0-8,6.54c-.42.42-.91.77-1.36,1.16a13.36,13.36,0,0,0-1.2,1c-1.35,1.47-2.71,2.92-4,4.45-1.1,1.32-2.09,2.74-3.16,4.09a66.31,66.31,0,0,0-5.71,9.12A34.86,34.86,0,0,0,37.85,77,72.6,72.6,0,0,0,34.6,88.48a45.1,45.1,0,0,0-.82,9.9c0,.93,0,1.87,0,2.8a22.44,22.44,0,0,0,.9,6.09,5.28,5.28,0,0,0,.47,1.1.83.83,0,0,0,.93.58,4.07,4.07,0,0,1,.6-.06,3.11,3.11,0,0,1,3.38,2.23,56.71,56.71,0,0,0,2.3,5.31,18.35,18.35,0,0,0,5,5.9,37.89,37.89,0,0,0,7.8,4.78,63.38,63.38,0,0,0,10.3,3.75q3.07.82,6.18,1.55c2.46.57,5,.84,7.45,1.29,1.9.35,3.85.18,5.73.67a6.46,6.46,0,0,0,1.59.08c4.39,0,8.79.06,13.18,0a41,41,0,0,0,5.74-.58,30.67,30.67,0,0,0,4.14-.54,1.22,1.22,0,0,1,1.12.3,1,1,0,0,1-.36.5,6.3,6.3,0,0,1-1.39.77c-4.12,1.21-8.39,1.59-12.59,2.35-.39.07-.77.19-1.16.27-5,.28-10.07.25-15.11.21-1,0-2,.16-2.83-.6-.12-.14-.27-.32-.21-.5.16-.52.65-.26,1-.37-.43.05-.89,0-1.27.26a1.93,1.93,0,0,1-1.44.43c-7.08-1.26-14.22-2.28-21-5-1.06-.42-2.36-.62-2.81-2a1.73,1.73,0,0,0-.3-.25c-3.13-1.63-6.26-3.25-9.39-4.89a6.82,6.82,0,0,0-2.62-.87,5.11,5.11,0,0,1-3.17-1.54A7.81,7.81,0,0,1,34.58,121c-.75-1.23-1.63-2-3.23-1.67A2.52,2.52,0,0,1,29,118.11a9.2,9.2,0,0,1-1.13-1.88A25.19,25.19,0,0,1,26.69,113c-.35-1.29-.78-2.37-2.34-2.59a2.29,2.29,0,0,1-1.61-1.39A6.58,6.58,0,0,1,22,105.4a18.52,18.52,0,0,1,.82-4.1c.23-.7.42-1.41.68-2.09.44-1.14.52-2.12-.58-3A2.69,2.69,0,0,1,22.4,93a11.32,11.32,0,0,1,1.21-2.5,29.18,29.18,0,0,0,3.81-9.17,62.65,62.65,0,0,1,5-13A44.53,44.53,0,0,1,39,59.08,73.53,73.53,0,0,1,56.16,45.15,64.71,64.71,0,0,1,71,38.33,11,11,0,0,1,73.69,37.67Z"/><path class="cls-3" d="M82.47,180.5c-.06.19-.13.38-.18.57-.37,1.3-.75,1.68-2.06,1.7s-2.53-.05-3.79-.14c-2.73-.19-5.44-.41-8.17-.63-8.22-.64-16.46-1.2-24.58-2.78-.51-.1-1-.28-1.53-.42a2.78,2.78,0,0,1-.06-2.31,90.89,90.89,0,0,1,9.42-23c.68-1.2,1.72-2,3.11-1.64,5.34,1.51,10.89,1.55,16.3,2.53a18.41,18.41,0,0,1,9.3,4.23,5.61,5.61,0,0,0,2.12,1c1.56,1.69,1.28,3.9,1.37,5.87a62.83,62.83,0,0,1-.3,12.93C83.29,179.25,83.34,180.08,82.47,180.5Z"/><path class="cls-5" d="M82.47,180.5c.33-4.22.53-8.44.48-12.68a40.33,40.33,0,0,0-.74-7.09,2,2,0,0,0-.44-1.08c-1.37-.58-1.61-1.89-2-3.1-.26-3.27-2.6-5.13-4.88-6.94A32.22,32.22,0,0,0,65.65,145c-2.55-.94-5.17-1.8-7.22-3.7-1-.89-2.34-2-1.56-3.32s2.29-.34,3.41,0A60.63,60.63,0,0,0,74,140.44a36.91,36.91,0,0,1,5.11.79,33,33,0,0,1,5.66,11.6,24,24,0,0,1,.89,3.84A8.84,8.84,0,0,1,86,160a18,18,0,0,1,.18-3.35,13.59,13.59,0,0,1,.86-3.73c1.1-1.53,1.51-3.38,2.26-5.07s1.91-3.34,2.69-5.07a4.53,4.53,0,0,1,4.11-2.63,79.57,79.57,0,0,0,24-6.15,1.76,1.76,0,0,1,2.05.09,11.35,11.35,0,0,1-.58,4.83,7.34,7.34,0,0,1-2.63,3.57,3.65,3.65,0,0,0-1.26,1.21c.17,1.39-1,1.56-1.85,1.93a100.84,100.84,0,0,1-9.94,3.61,59.39,59.39,0,0,0-7,2.82c-4.11,1.95-6.58,5.25-8.09,9.42a7.55,7.55,0,0,1-1,2.54,3.76,3.76,0,0,0-.3,1.93,90.23,90.23,0,0,0,.19,9.73c.17,2.11.2,4.24.3,6.35a1.27,1.27,0,0,1-1.26.8c-1.25,0-2.51,0-3.77,0C83.2,182.71,82.78,182.26,82.47,180.5Z"/><path class="cls-6" d="M80.54,156.5c.32,1.08,1.12,2,1.23,3.15,0,.13,0,.26,0,.39,0,.29-.19.56-.5.36a11.61,11.61,0,0,1-1.61-1.17A17.23,17.23,0,0,0,71,155.28c-2.34-.44-4.72-.67-7.1-.89a42.27,42.27,0,0,1-8.43-1.46c-.45-.14-.89-.29-1.34-.4a1.29,1.29,0,0,0-1.52.67l-.2.35a99.93,99.93,0,0,0-8.77,20.29c-.42,1.4-.77,2.83-1.16,4.24a5.23,5.23,0,0,1-.34.72,27.5,27.5,0,0,1-5.23-1.18,4.85,4.85,0,0,1-1.08-.51,1.72,1.72,0,0,1-.86-1.87,10.51,10.51,0,0,1,.46-1.73,113.57,113.57,0,0,1,10.3-22c1.68-2.71,3.47-5.35,5.24-8,.39-.6.77-1.27,1.58-1.42a1.58,1.58,0,0,1,1.15.23c3.91,2.56,8.36,3.74,12.76,5.05a46.15,46.15,0,0,1,8,3.09C77.15,151.84,79.39,153.61,80.54,156.5Z"/><path class="cls-7" d="M80.54,156.5a21.05,21.05,0,0,0-10.2-7c-2.83-1-5.69-1.82-8.55-2.69a45.63,45.63,0,0,1-7.18-2.93,4.61,4.61,0,0,1-2-1.82,14.28,14.28,0,0,1-1.87-3,4.14,4.14,0,0,1-.42-1.1,16.39,16.39,0,0,1,.56-7.2,4,4,0,0,1,.57-.8,4.61,4.61,0,0,1,.75.21,63.18,63.18,0,0,0,14.21,4.25c2.4.47,4.81.84,7.22,1.28.64.11,1.34.11,1.78.72A5.19,5.19,0,0,1,78,138.58c.19,1.07,1.42,1.81,1,3.08-1.45,0-2.9-.18-4.35-.31-1.71-.15-3.41-.41-5.13-.53a28,28,0,0,1-3.72-.6,47.39,47.39,0,0,1-7.09-1.94,5.7,5.7,0,0,0-1.15-.29.27.27,0,0,0-.3.37,2.27,2.27,0,0,0,.34.72,10.53,10.53,0,0,0,3.42,3,51.54,51.54,0,0,0,5.32,2.23A39.8,39.8,0,0,1,74.16,148a18.91,18.91,0,0,1,4,3.51A10.21,10.21,0,0,1,80.54,156.5Z"/><path class="cls-6" d="M89.68,164a14.66,14.66,0,0,1,6-11,21.1,21.1,0,0,1,4.53-2.51c2.51-1.07,5.1-1.92,7.69-2.79,1.89-.64,3.78-1.29,5.65-2a16.27,16.27,0,0,0,4.11-2,7.08,7.08,0,0,0,2.26-1.18.69.69,0,0,1,1,.16,31.27,31.27,0,0,1,2.48,3.33,5.56,5.56,0,0,1-2.79,3,31.06,31.06,0,0,1-8.31,3.34c-2.91.67-5.82,1.4-8.71,2.16q-2.52.66-5,1.48a12.45,12.45,0,0,0-7.9,6.85,7.22,7.22,0,0,1-.7,1.2C90,164.06,89.81,164,89.68,164Z"/><path class="cls-7" d="M122.12,134.06a35.24,35.24,0,0,0-4.4,1.84,75.64,75.64,0,0,1-12.81,3.72q-3.22.63-6.47,1.14c-1.31.21-2.63.36-4,.48a1.77,1.77,0,0,0-1.41.94,40.62,40.62,0,0,0-4.54,9.29,3.6,3.6,0,0,1-.82,1.78c-.88-.73-.65-1.67-.44-2.57a21.48,21.48,0,0,1,5.63-10.78,10.14,10.14,0,0,0,2.49-3.07c.42-.67,1.15-.61,1.78-.69,3.31-.39,6.58-1,9.84-1.67.65-.13,1.29-.31,1.94-.47.34-.29.85,0,1.18-.33l.4-.07a53.25,53.25,0,0,0,6.32-1.74l2.1-.62h.78c1.67.08,2.07.42,2.36,2A5.18,5.18,0,0,1,122.12,134.06Z"/><path class="cls-8" d="M122.65,180.49a2.57,2.57,0,0,1-.91-1.71,38.46,38.46,0,0,0-2.2-7.63c-.65-1.59-1.12-3.26-1.66-4.9a.68.68,0,0,1,.05-.55c.25-.22.47,0,.66.18a12.92,12.92,0,0,1,2.74,3.38,36.34,36.34,0,0,1,3.86,9.78,8.1,8.1,0,0,1,.11,1A6.5,6.5,0,0,1,122.65,180.49Z"/><path class="cls-9" d="M104.54,105.25c-.25.06-.54,0-.73.24.2.48.69.54,1.09.72A56.27,56.27,0,0,0,116.4,110c2.79.6,5.6,1.08,8.39,1.65a10.48,10.48,0,0,1,2.27.7,2.72,2.72,0,0,1,1.48,4.08,4.89,4.89,0,0,1-1.43,1.88,23,23,0,0,1-7,3.69,13,13,0,0,0-3.72.58,76.63,76.63,0,0,1-14.88,1c-12-.33-23.91-.82-35.57-3.93a35,35,0,0,1-5.8-2.13c-1-.49-2.07-1.15-2.13-2.43s1-2,2-2.52c3.78-2,7.74-3.57,11.62-5.32,2.49-1.12,4.75-2.67,7.25-3.79.14-.06.67-.2,0-.21a1.27,1.27,0,0,1-.57-.18.83.83,0,0,1-.36-.55,1.12,1.12,0,0,1,.15-.67c1.17-1.22,2.73-1.15,4.23-1.26a16.76,16.76,0,0,0,5.68.42c3.14-.32,6.11.85,9.2.82,2.23.36,4.22,1.43,6.32,2.15C104,104.21,104.63,104.47,104.54,105.25Z"/><path class="cls-10" d="M78.15,102.87c1-.25,2.06-.5,3.1-.73a.35.35,0,0,1,.46.23.38.38,0,0,1-.14.34c-.84.54-1.67,1.09-2.54,1.57a56,56,0,0,1-7.75,4.07c-1.43.53-2.75,1.33-4.17,1.91-2.27.94-4.47,2-6.7,3.09a4.62,4.62,0,0,0-1.76,1.28.66.66,0,0,0,0,.9A5.09,5.09,0,0,0,60.8,117a41.89,41.89,0,0,0,8.54,2.67q2.44.51,4.89.93c1.57.27,3.17.39,4.72.73,2,.43,4,.21,5.92.71a6.46,6.46,0,0,0,1.59.06,12.27,12.27,0,0,1,3.36.3,6.45,6.45,0,0,0,1.59.1H96a5.33,5.33,0,0,1,1.39,0c2,.55,4.1.27,6.16.34a3.62,3.62,0,0,0,1,0,21.12,21.12,0,0,1,5.55-.35,13.65,13.65,0,0,0,3.77-.32,4.26,4.26,0,0,1,1.19-.08,10.7,10.7,0,0,0,2.57-.27,2.79,2.79,0,0,1,2.49.24,43.39,43.39,0,0,1-7.5,2,47.87,47.87,0,0,1-6.31.87c-.53,0-.7.27-.56.77a11.56,11.56,0,0,1-5.75,1.18,24.49,24.49,0,0,0-7.5-.3,77.82,77.82,0,0,1-12.95-.15c-2.43-.28-4.89-.27-7.34-.52-.73-.08-1.47,0-2-.63a14.33,14.33,0,0,0-1.55-.34A67,67,0,0,1,55,122.22a21.7,21.7,0,0,1-6.77-3.33A6.15,6.15,0,0,1,46,116.1a2.53,2.53,0,0,1,1-3.16,6,6,0,0,1,2.2-.92c3.06-.63,6.12-1.25,9.16-2a54.22,54.22,0,0,0,9.86-3.17,15.47,15.47,0,0,1,5.15-3c1.09-.46,2.22-.84,3.28-1.37a1.75,1.75,0,0,1,.55-.12A1.33,1.33,0,0,1,78.15,102.87Z"/><path class="cls-11" d="M104.54,105.25a2.06,2.06,0,0,0-.51-.3,47,47,0,0,1-6.73-2.43,1.19,1.19,0,0,1-1,.1,27.83,27.83,0,0,0-12.39-1.16,2.78,2.78,0,0,1-1.75-.16l-4,.79c-.15.16-.21.39-.39.52s-.59,0-.82.27h0c-1.17.52-2.41.86-3.59,1.37-1.5.27-2.63,1.38-4.06,1.79a1.65,1.65,0,0,1-1.13-.36,2.88,2.88,0,0,1-.16-2.84,6.19,6.19,0,0,1,1.84-2.8A12.44,12.44,0,0,1,73,97.93a34.75,34.75,0,0,1,9.55-2.69,49.26,49.26,0,0,1,6.75-.36,31,31,0,0,1,11.26,2.24,7,7,0,0,0,1.11.45c2,.41,3.08,2,4,3.57a3.66,3.66,0,0,1-.15,3.62A1,1,0,0,1,104.54,105.25Z"/><path class="cls-12" d="M49.72,83.31l1.22-.13a10.81,10.81,0,0,1,11.73,8.53,11.46,11.46,0,0,1-10.36,13.46c-5.19.47-10.27-3.52-11.32-8.74a10.92,10.92,0,0,1,4.16-11.32A13.73,13.73,0,0,1,47,83.88C47.81,83.38,48.67,82.78,49.72,83.31Z"/><path class="cls-12" d="M132.62,93.86a11.07,11.07,0,0,1-13.85,10.88c-4.15-1-6.64-4-7.81-8-1-3.32,0-6.32,1.91-9a14.79,14.79,0,0,1,5.51-4.5,1.66,1.66,0,0,1,1.69-.15,2,2,0,0,0,1.17.1A10.74,10.74,0,0,1,132.62,93.86Z"/><path class="cls-9" d="M53.35,65.3a6.93,6.93,0,0,1,3.12.57,4.4,4.4,0,0,1,1.48,1A2,2,0,0,1,58.44,69a5.43,5.43,0,0,1-1,1.68,13,13,0,0,1-5.57,3.7A31.88,31.88,0,0,1,48,75.53a7,7,0,0,1-4.67-.46,2.73,2.73,0,0,1-1.4-4,7.34,7.34,0,0,1,2.54-2.74A15.68,15.68,0,0,1,53.35,65.3Z"/><path class="cls-9" d="M126.9,75.31c-3.87.12-7-1.43-9.79-3.69a6.15,6.15,0,0,1-1.66-2.22,2.39,2.39,0,0,1,1-3.25,5.81,5.81,0,0,1,2.45-.8,14.44,14.44,0,0,1,10.75,3.38A6.85,6.85,0,0,1,132,72.38c.28,1.09,0,1.58-1,2.09A7.72,7.72,0,0,1,126.9,75.31Z"/><path class="cls-11" d="M100.1,126a5.59,5.59,0,0,0,1.36,0,16.66,16.66,0,0,1,4.28-.34h0c.09.08.12.15.09.23s-.06.12-.1.12a17.29,17.29,0,0,1-5.92,2.74c-2,.65-4.1,1.09-6.14,1.63a15.51,15.51,0,0,1-7.48,0,8.27,8.27,0,0,0-2.37-.24,24.17,24.17,0,0,1-10.08-1.89,20.05,20.05,0,0,1-3.64-1.61c-.66-.41-.06-.61.1-.9a1.2,1.2,0,0,1,1.12-.22c6.67,1,13.37.76,20.07.77C94.29,126.26,97.18,125.67,100.1,126Z"/><path class="cls-13" d="M100.1,126a16,16,0,0,0-3.16.29,9.33,9.33,0,0,1-2,.13l-19.28,0a20.32,20.32,0,0,1-3.72-.6,6.58,6.58,0,0,0-1.77-.19c0-.15,0-.3,0-.46a24.32,24.32,0,0,1,5,.31,12.12,12.12,0,0,0,2.18.11c1.26,0,2.52.21,3.77.27a79.31,79.31,0,0,0,11.94-.1,48.39,48.39,0,0,1,6.37-.13C99.63,125.71,99.86,125.92,100.1,126Z"/><path class="cls-14" d="M69.42,105.72a2.51,2.51,0,0,0,.7-.33A5.81,5.81,0,0,1,73.33,104c.41-.1.52.07.41.45-1.13.51-2.25,1-3.39,1.53a7.11,7.11,0,0,1-2.18.87l.39-.76C68.76,105.78,69.17,105.93,69.42,105.72Z"/><path class="cls-10" d="M69.42,105.72a1.43,1.43,0,0,1-.86.37l-.37-.42Z"/><path class="cls-10" d="M105.73,126c0-.12,0-.24,0-.35a1.92,1.92,0,0,1,.12.25S105.78,126,105.73,126Z"/><path class="cls-9" d="M95.4,136.83a1,1,0,0,1,.09,1.56A18.53,18.53,0,0,1,94,139.93a21.35,21.35,0,0,0-6.24,13.32,20.22,20.22,0,0,0-.8,3.59c-.55.87-1.11.88-1.69,0a35.22,35.22,0,0,0-7.87-18,6.66,6.66,0,0,0-1.5-1.45c-.28-.26-.56-.52-.49-1l1.23-.39a.49.49,0,0,1,.31.44,2.57,2.57,0,0,0,1.71.36l11.9,0a3.85,3.85,0,0,0,1.18-.1A6.23,6.23,0,0,1,95.4,136.83Z"/><path class="cls-15" d="M76.91,136.51l-.31-.44,2.15,0C78.18,136.59,77.53,136.43,76.91,136.51Z"/><path class="cls-2" d="M110.14,133.67A1.38,1.38,0,0,1,109,134,1.28,1.28,0,0,1,110.14,133.67Z"/><path class="cls-16" d="M77.36,138.87a12.55,12.55,0,0,1,3.3,3.7,29.69,29.69,0,0,1,4.71,14.25c-.13.14-.25.14-.37,0a40.73,40.73,0,0,0-5.68-14.48c-.14-.22-.26-.46-.39-.69C78.48,140.7,77.58,140,77.36,138.87Z"/><path class="cls-17" d="M85,156.83h.37a1,1,0,0,0,1.55,0,17.1,17.1,0,0,1-.93,3.62A18.14,18.14,0,0,1,85,156.83Z"/><path class="cls-18" d="M94.71,105.22a5.26,5.26,0,0,1,3.31.4c3.4,1.16,6.66,2.65,9.94,4.12a41.11,41.11,0,0,0,7,2.32,4.18,4.18,0,0,1,1.63.71c.26.21.52.45.38.83a.69.69,0,0,1-.63.41,3.67,3.67,0,0,1-1.77-.14,47.13,47.13,0,0,1-6.7-2.55c-1.84-.92-3.65-1.91-5.47-2.86-2.11-1.11-4.38-1.9-6.59-2.83C95.44,105.48,95.07,105.36,94.71,105.22Z"/><path class="cls-19" d="M82.19,101.3c.92,0,1.84-.17,2.76-.28a24.76,24.76,0,0,1,6,0,62.94,62.94,0,0,1,6.39,1.47,1.12,1.12,0,0,1-1.1.28c-.64-.14-1.28-.32-1.92-.47a19.48,19.48,0,0,0-5.27-.66c-1.71,0-3.42,0-5.14,0A2.23,2.23,0,0,1,82.19,101.3Z"/><path class="cls-20" d="M93.38,117.43c-.55,0-.8-.29-.7-.53a1.9,1.9,0,0,1,.37-.67c.8-.68,1.61-1.33,2.44-2a2.83,2.83,0,0,1,.69-.36.9.9,0,0,1,1.1.1c.35.36.15.75-.06,1.07A6.24,6.24,0,0,1,93.38,117.43Z"/><path class="cls-21" d="M78,113.89a.53.53,0,0,1,.16,0,9.66,9.66,0,0,1,4.13,3,.45.45,0,0,1,.06.36.37.37,0,0,1-.47.24,9.51,9.51,0,0,1-3.74-1.71,1.53,1.53,0,0,1-.68-1.35A.53.53,0,0,1,78,113.89Z"/><path class="cls-22" d="M120.73,114.07a.78.78,0,0,1-.81.7,1,1,0,0,1-.9-.88.82.82,0,0,1,.69-.83A1.12,1.12,0,0,1,120.73,114.07Z"/><path class="cls-23" d="M77,102.88a1.13,1.13,0,0,1,.81-.43.25.25,0,0,1,.4,0c0,.14,0,.28,0,.41Z"/><path class="cls-10" d="M78.16,102.46h-.4l.4-.36Z"/><path class="cls-24" d="M73.74,104.46l-.41-.45A10,10,0,0,1,77,102.87a2.73,2.73,0,0,1-1.29.78C75,103.91,74.39,104.19,73.74,104.46Z"/><path class="cls-25" d="M49,86.5a8.26,8.26,0,0,1,12.38,6.74,4.54,4.54,0,0,1-.38,2.9c-.72-.22-1.08.35-1.54.7-4,3-8.15,2.44-11.33-1.57a7.37,7.37,0,0,0-.31-2.8A6,6,0,0,1,49,86.5Z"/><path class="cls-26" d="M48.14,95.27a1,1,0,0,1,1.11.11c.33.32.68.62,1,1A5.23,5.23,0,0,0,54.32,98,6.88,6.88,0,0,0,59,96.23c.24-.22.46-.47.71-.69s.52-.75.93-.61.2.81.35,1.22a7.06,7.06,0,0,1-4.61,5.74,9,9,0,0,1-9.34-1.38,7.85,7.85,0,0,1-2-2.43c-.82-1.49-.74-1.67.9-1.94A5.89,5.89,0,0,0,48.14,95.27Z"/><path class="cls-27" d="M49,86.5a.7.7,0,0,1,.17.72,12.09,12.09,0,0,0-1,4.54,2.16,2.16,0,0,1-.3.71l-.08-.07-.34-.25a13,13,0,0,0-2.31-.5c-.49,0-.63-.32-.43-.82a9.37,9.37,0,0,1,3.09-4c.34-.3.85,0,1.18-.33Z"/><path class="cls-25" d="M48.94,86.52a1.19,1.19,0,0,1-1.19.33C48.06,86.42,48.53,86.57,48.94,86.52Z"/><path class="cls-25" d="M47.41,92.15l.34.25A.3.3,0,0,1,47.41,92.15Z"/><path class="cls-25" d="M116.44,86.83A10.72,10.72,0,0,1,121,85.06a1.28,1.28,0,0,1,.77.08c1,.44,2.08.87,3.08,1.38a8.25,8.25,0,0,1,3.89,3.87A3.69,3.69,0,0,1,129,91a2.82,2.82,0,0,1,.05.52c-.48.41-1.2.29-1.78.54a3.14,3.14,0,0,0-1.75,1.55,1.49,1.49,0,0,0,.53,1.93,3.28,3.28,0,0,0,1.47.57l1.38.13a1.23,1.23,0,0,1-.32,1.46c-1.7.49-3.28,1.32-5.16,1.29-4.55-.09-7.61-3.07-7.66-7.62A18.89,18.89,0,0,1,116.44,86.83Z"/><path class="cls-28" d="M116.44,86.83c.25.09.57.21.56.49a7,7,0,0,1-.22,1.77,8.59,8.59,0,0,0-.24,2.76A6.36,6.36,0,0,0,123,98.1,7.22,7.22,0,0,0,127.48,97c.68-.48.79-.37,1,.7-1.39,3.33-4,4.8-7.49,5a8.53,8.53,0,0,1-8.57-6.15,8.13,8.13,0,0,1,3.78-9.59A.65.65,0,0,1,116.44,86.83Z"/><path class="cls-29" d="M153.15,104.46a14.28,14.28,0,0,0-1.59-5.12c-.27-.53-.53-1.06-.75-1.48.06-.21.06-.29.1-.33a1.86,1.86,0,0,1,.29-.27A3.19,3.19,0,0,0,152.64,94a13.11,13.11,0,0,0-.66-2.9A13.89,13.89,0,0,0,149.57,87,7.28,7.28,0,0,1,148,83.55c-.24-1.44-.58-2.87-1-4.28A50.56,50.56,0,0,0,138.3,61.7a69.07,69.07,0,0,0-20.59-18.06,53.68,53.68,0,0,0-17.79-6.83,13.47,13.47,0,0,1-1.34-.41,9.62,9.62,0,0,0,.85-4.56,4.65,4.65,0,0,0-5.72-4.34,8.44,8.44,0,0,0-3.11,1.3,9.65,9.65,0,0,1-1,.52,11.82,11.82,0,0,0-2.75-4.51,8,8,0,0,0-3.56-2.13A4,4,0,0,0,78,25.9a10,10,0,0,0,0,2.56,15.13,15.13,0,0,0,.38,2c-.67.05-1.27.05-1.86.15a2.32,2.32,0,0,0-2,2.54,4.31,4.31,0,0,0,.68,2.06c.23.38.42.78.6,1.11C73,37,70.26,37.54,67.61,38.4A68.67,68.67,0,0,0,33.13,65,48.12,48.12,0,0,0,25.87,82.8a9.34,9.34,0,0,1-1.95,4.51A13.65,13.65,0,0,0,21.41,92c-.68,2.21-.66,4.22,1.62,5.62-.37.72-.7,1.36-1,2a13.16,13.16,0,0,0-1.44,7.15,9,9,0,0,0,.63,2.5,3.5,3.5,0,0,0,3.42,2.3l1,0c.07.53.12,1,.2,1.43a12.94,12.94,0,0,0,1.42,4.75c1.19,1.92,2.29,3.44,5.66,2.43.43.71.85,1.45,1.34,2.15,1.49,2.15,3.39,3.36,6.06,2.54,1.66,1.11,3.22,2.25,4.88,3.22s3.38,1.76,5.12,2.66a23.57,23.57,0,0,0-.9,2.3,12.07,12.07,0,0,0-.45,2.54,7.92,7.92,0,0,0,.15,2.38,10.28,10.28,0,0,0,1,2.39,17.28,17.28,0,0,0,1.29,1.88c-1.09,1.41-2.14,2.7-3.11,4s-1.89,2.74-2.77,4.15a119.63,119.63,0,0,0-10,20.2c-.57,1.48-1,3-1.44,4.56a9.84,9.84,0,0,0-.19,1.48A6.85,6.85,0,0,0,36.51,178a68.19,68.19,0,0,0,12,2.8c4.94.77,9.9,1.27,14.88,1.71,7.84.68,15.69,1,23.55.89,8.12-.07,16.25-.23,24.35-.92a163.92,163.92,0,0,0,16.83-2.11,56.42,56.42,0,0,0,9-2.45c1.38-.51,1.67-1,1.41-2.43a16.69,16.69,0,0,0-.76-2.68c-4-11.08-9.27-21.48-16.7-30.67a35.72,35.72,0,0,0,1.74-3.3,6.85,6.85,0,0,0,.35-3.93c-.24-1.22-.65-2.4-1-3.7A39.65,39.65,0,0,0,133.17,125c2.66.49,4.17,0,5.67-1.74A14.47,14.47,0,0,0,140,121.6c.29-.43.54-.9.83-1.38.37.11.68.21,1,.29a3.13,3.13,0,0,0,3.29-.9,11.17,11.17,0,0,0,1.52-2.09,10.63,10.63,0,0,0,1.15-3.79,5.59,5.59,0,0,1,.46-2.08c3.07-.1,4.28-1.08,4.82-4A11.61,11.61,0,0,0,153.15,104.46ZM88.38,34.13c-.51-.79,0-1.24.38-1.79A1.37,1.37,0,0,1,88.38,34.13ZM82,181.23a6.06,6.06,0,0,1-.18.7,36.3,36.3,0,0,1-6.08,0c-2.12,0-4.25-.19-6.38-.32s-4.11-.26-6.17-.44-4.23-.43-6.35-.64a47.16,47.16,0,0,1-6.14-.85,53.24,53.24,0,0,1,1.73-7.45c.24-.83.45-1.67.68-2.5h0a10.73,10.73,0,0,0,1.31-5.08,18.14,18.14,0,0,0-1.77,4.19A43,43,0,0,0,49.5,179.6a65.27,65.27,0,0,1-14.07-3.37,11.51,11.51,0,0,1,.21-1.16,104.5,104.5,0,0,1,6.75-15.95c2.85-5.57,6.28-10.79,9.66-16.06a2.33,2.33,0,0,1,.59.24,26.17,26.17,0,0,0,8.43,4c2.22.68,4.48,1.27,6.68,2a51.49,51.49,0,0,1,5.37,2.1,23.57,23.57,0,0,1,3.56,2.18,12.9,12.9,0,0,1,5.44,9.17,48.35,48.35,0,0,1,.45,5A95.82,95.82,0,0,1,82,181.23Zm3.42-1c0,.58-.05,1.17-.07,1.77h-2c.22-2.85.46-5.62.63-8.39a53,53,0,0,0-.56-11.53A14.58,14.58,0,0,0,76.92,152a27.83,27.83,0,0,0-7.15-3.47c-2.65-.87-5.34-1.62-8-2.44a31.81,31.81,0,0,1-5.72-2.3A13.83,13.83,0,0,1,52.38,141a6.58,6.58,0,0,1-1.89-4.69,11.39,11.39,0,0,1,1-5c2.32.79,4.56,1.62,6.84,2.32a92.78,92.78,0,0,0,15,3.18,3.6,3.6,0,0,1,2.22,1.12,32.74,32.74,0,0,1,8.52,16.21A56.47,56.47,0,0,1,85.39,166C85.43,170.76,85.41,175.48,85.4,180.21Zm.54-24.34c-1.29-7-3.76-13.37-9.28-18.54,1.81-.1,3.29.29,4.79.31s3.06.06,4.59.07,2.92,0,4.39,0,3-.14,4.71-.22a2.07,2.07,0,0,1-.26.58c-4.71,4.59-7.06,10.36-8.33,16.67C86.46,155.14,86.57,155.68,85.94,155.87ZM137.4,176.3a9.21,9.21,0,0,1-1.08.55,63.08,63.08,0,0,1-11.41,2.77c-.84.14-1.68.24-2.62.37a47.18,47.18,0,0,0-3.37-12.33.61.61,0,0,0-.31.41.61.61,0,0,1,.31-.41,6,6,0,0,0-1.44-2.78,13.33,13.33,0,0,0,1,4c.48,2,1,4,1.43,6,.37,1.68.68,3.37,1,5a2.69,2.69,0,0,1-.19.28.44.44,0,0,1-.18.09c-.46.07-.91.16-1.37.21A274.55,274.55,0,0,1,91.69,182c-.39,0-.78,0-1.13,0-.12-.17-.25-.27-.26-.38a106.43,106.43,0,0,1-.64-12.75,43.72,43.72,0,0,1,.49-6.36,13.31,13.31,0,0,1,5.26-8.85,21.61,21.61,0,0,1,5.73-3.18c2.38-.85,4.79-1.6,7.19-2.37,1.71-.56,3.43-1,5.13-1.62a21.77,21.77,0,0,0,6.86-3.73C127.43,153.23,133.62,164.09,137.4,176.3Zm-18.05-34.76a15.51,15.51,0,0,1-4.33,2.81,55.66,55.66,0,0,1-7.33,2.53c-2.42.73-4.82,1.5-7.19,2.37a22.48,22.48,0,0,0-6.39,3.62A13.57,13.57,0,0,0,89,161.39a58.44,58.44,0,0,0-.75,6.33,81.18,81.18,0,0,0,.39,11.56c.08.85.27,1.7.42,2.63-.36.05-.68.12-1,.15s-.64,0-.89,0c-.14-.22-.27-.32-.27-.43,0-6.45,0-12.9.15-19.35A40.82,40.82,0,0,1,89,150.91a33,33,0,0,1,7.08-12.36,4.65,4.65,0,0,1,3-1.6c2.5-.33,5-.74,7.48-1.18a75.88,75.88,0,0,0,13.24-3.63c.31-.12.63-.19.94-.28A7.84,7.84,0,0,1,119.35,141.54Zm31.93-34.39a4,4,0,0,1-.43,1.52,2.13,2.13,0,0,1-2,1.4h-.8a1.3,1.3,0,0,0-1.3,1c-.11.38-.15.78-.24,1.17a30.24,30.24,0,0,1-.77,3.29,9.26,9.26,0,0,1-1.29,2.45c-.87,1.19-1.5,1.3-2.92.78-1.12-.4-1.49-.29-2.17.7-.33.49-.58,1-1,1.52a14.16,14.16,0,0,1-1.57,1.8,2.89,2.89,0,0,1-2.36.86,5.13,5.13,0,0,0-3.22.84c-.53.29-1,.61-1.55.92a73.37,73.37,0,0,1-22.63,8.65A97.57,97.57,0,0,1,81.86,136c-11.12-.59-21.92-2.67-32-7.54-2.27-1.09-4.46-2.37-6.67-3.59A6.7,6.7,0,0,0,39,123.67a2.93,2.93,0,0,1-2.46-1.14,23,23,0,0,1-1.69-2.21c-.31-.43-.55-.91-.9-1.31a1.2,1.2,0,0,0-1.44-.37,5.36,5.36,0,0,0-.54.26,1.73,1.73,0,0,1-2.33-.45,8.17,8.17,0,0,1-1.4-2.16,19.81,19.81,0,0,1-.86-3.06c-.16-.65-.22-1.32-.38-2a1.31,1.31,0,0,0-1.37-1.2h-.2c-2-.17-2.49-.62-2.94-2.55a9.48,9.48,0,0,1,.35-4.93c.34-1.14.86-2.23,1.29-3.34a11.68,11.68,0,0,0,.54-1.5,1.12,1.12,0,0,0-.62-1.33l-.53-.27a1.58,1.58,0,0,1-.93-1.81,7.74,7.74,0,0,1,.61-2.3,25.84,25.84,0,0,1,2.28-3.73,10.06,10.06,0,0,0,1.95-4.52,44.16,44.16,0,0,1,5.39-14.94A64.14,64.14,0,0,1,51.3,48.64a58.79,58.79,0,0,1,17.47-9c2.22-.67,4.5-1.15,6.76-1.72a3.19,3.19,0,0,1,3.17.59,4,4,0,0,0,1.06.52,1.53,1.53,0,0,0,1.72.43l-1.31-.87c-1-.81-2-1.59-2.89-2.44a5.78,5.78,0,0,1-1.67-2.45,1.5,1.5,0,0,1,1.44-2.21,2.38,2.38,0,0,1,2.54,1.15,8.64,8.64,0,0,0,1.82,2.09,5.27,5.27,0,0,0,1.76.87,1,1,0,0,0,1.2-.48,1.52,1.52,0,0,0,0-1.13,3.39,3.39,0,0,0-1.6-1.72c-.92-.53-1.88-1-3-1.55A6.71,6.71,0,0,1,79,26.47a2.84,2.84,0,0,1,3.57-2.77,5.91,5.91,0,0,1,2,.74,9.1,9.1,0,0,1,4,5.33,1.4,1.4,0,0,1-.21,1.32,7.2,7.2,0,0,0-.68,1.21,3.68,3.68,0,0,0-.34,2.33c.09.43.32.8.74.82a1.44,1.44,0,0,0,1.06-.35,2.92,2.92,0,0,0,.7-1.39c.17-1,.19-2,.28-3.11a6.25,6.25,0,0,1,4.83-2.06,3.34,3.34,0,0,1,3.32,2.87,6.82,6.82,0,0,1-.28,3.35A15.49,15.49,0,0,1,95.79,39a2.9,2.9,0,0,0-.52.53c-.07.11,0,.3,0,.52a3.93,3.93,0,0,0,.61-.25,2.94,2.94,0,0,0,.36-.42L98,37.89a49.61,49.61,0,0,1,9.32,2.49,67.08,67.08,0,0,1,23.55,15.41A57.58,57.58,0,0,1,142.3,71.54a40.36,40.36,0,0,1,3.9,11.9,10.26,10.26,0,0,0,2.18,5.06,16.59,16.59,0,0,1,2,3.21,9.15,9.15,0,0,1,.74,2.47,1.7,1.7,0,0,1-1,2,3.37,3.37,0,0,0-.7.38,1.07,1.07,0,0,0-.45,1.23c.18.57.47,1.1.68,1.66a34.28,34.28,0,0,1,1.42,4.14A15.15,15.15,0,0,1,151.28,107.15ZM81,32.63c1.3.41,1.3.41,2.1,1.78A9.39,9.39,0,0,1,82,33.83,2.22,2.22,0,0,1,81,32.63Z"/><path class="cls-29" d="M128.4,112a7.78,7.78,0,0,0-2.33-1.1,31.67,31.67,0,0,0-4.1-.83,58.44,58.44,0,0,1-14.06-3.64c-.6-.25-1.19-.54-1.73-.79a1.79,1.79,0,0,1,0-.49,5.83,5.83,0,0,0-2.91-7.87,16.25,16.25,0,0,0-2-.82,40.2,40.2,0,0,0-10.36-2,52.19,52.19,0,0,0-11,.37,26,26,0,0,0-8.19,2.4,9.72,9.72,0,0,0-3.4,2.73,5.37,5.37,0,0,0-1,5.06c.08.25.13.51.25,1-.4.2-.68.36-1,.48a46.6,46.6,0,0,1-9.16,2.73c-2.29.43-4.59.79-6.88,1.18a10.7,10.7,0,0,0-3.77,1.26,3.72,3.72,0,0,0-1.37,5.48,7.16,7.16,0,0,0,2.48,2.56,34,34,0,0,0,4.19,2.28,48.5,48.5,0,0,0,11.7,3.23c2.37.38,4.71.74,6.77,2.1a6.66,6.66,0,0,0,1.27.59,40.61,40.61,0,0,0,10.41,2.64A44.5,44.5,0,0,0,97.69,130a20,20,0,0,0,8.17-3.53,4.16,4.16,0,0,1,2-.7c1.77-.31,3.54-.56,5.31-.91a47,47,0,0,0,10.63-3.3,13.45,13.45,0,0,0,4.3-2.87,8.34,8.34,0,0,0,1.5-2.09A3.44,3.44,0,0,0,128.4,112ZM69.61,100.88a8.94,8.94,0,0,1,2.94-2.35,20.06,20.06,0,0,1,5.85-2,47.39,47.39,0,0,1,21,.76,17.69,17.69,0,0,1,3.54,1.31c2.37,1.21,3.1,3.67,1.94,6.41-.6-.25-1.2-.47-1.79-.74a44.45,44.45,0,0,0-8.44-3,32.32,32.32,0,0,0-19,1.37c-1.86.71-3.67,1.56-5.5,2.35l-1.38.6A5,5,0,0,1,69.61,100.88Zm33.27,26.19a30.27,30.27,0,0,1-9.61,2.51,47.35,47.35,0,0,1-20.65-2.36c-.42-.14-.82-.33-1.67-.69,2.59-.2,4.65.31,6.73.36s4.25.27,6.38.34,4.4.07,6.59,0,4.26-.19,6.38-.33,4.24-.33,6.71-.53A5,5,0,0,1,102.88,127.07Zm25.38-11a8.86,8.86,0,0,1-1.59,2,13.05,13.05,0,0,1-3.89,2.38,45.66,45.66,0,0,1-9.13,2.8A123.44,123.44,0,0,1,91,125.51c-1.26,0-2.53,0-3.79,0v0c-3.33-.08-6.66-.08-10-.28-7-.42-14.06-1.14-20.85-3.2a46.86,46.86,0,0,1-5.21-2,13.92,13.92,0,0,1-2.71-1.65,7.49,7.49,0,0,1-1.66-1.71c-1.11-1.57-.77-2.93,1-3.71a15.6,15.6,0,0,1,3.24-.92c2.48-.5,5-.87,7.45-1.39a48.89,48.89,0,0,0,11.24-4c2-1,3.94-1.94,6-2.77A29.58,29.58,0,0,1,99,104c1.84.76,3.64,1.61,5.42,2.52a55.2,55.2,0,0,0,16.87,5.21c1.38.21,2.76.47,4.11.81a7.38,7.38,0,0,1,2.17,1A1.83,1.83,0,0,1,128.26,116.07Z"/><path class="cls-29" d="M63.65,94.11a11.76,11.76,0,0,0-23.51,0,11.76,11.76,0,1,0,23.51,0Zm-22,3.27a12.64,12.64,0,0,1-.31-1.94,7.41,7.41,0,0,1,.43-4.87,10.64,10.64,0,0,1,16-5.29,9.9,9.9,0,0,1,4.72,7.62c0,.94,0,1.87,0,2.8A9.16,9.16,0,0,1,59,102.11,10.66,10.66,0,0,1,41.66,97.38Z"/><path class="cls-29" d="M121.81,82.43a11.75,11.75,0,1,0,11.7,11.84A11.67,11.67,0,0,0,121.81,82.43Zm10.6,13.23a2.5,2.5,0,0,1-.23.54c-.72,4.34-3.39,7-7.44,8.24a10,10,0,0,1-10.18-2.39,7.78,7.78,0,0,1-2.87-4.27,9.56,9.56,0,0,1,1.24-9.7,7,7,0,0,1,2.83-2.74A10,10,0,0,1,127.32,85C131.23,87.41,132.88,91.08,132.41,95.66Z"/><path class="cls-29" d="M117.91,73.14a16.5,16.5,0,0,0,7.55,2.92,9.71,9.71,0,0,0,4.54-.33c2.63-.94,3.47-3.21,1.94-5.57a9.29,9.29,0,0,0-1.86-2,16.57,16.57,0,0,0-10.23-3.68,15.94,15.94,0,0,0-2.63.49c-2.69.88-3.44,3.11-2,5.54A9.4,9.4,0,0,0,117.91,73.14Zm-.35-7.26a8.31,8.31,0,0,1,2.75-.38,15.3,15.3,0,0,1,8.87,3.18,7,7,0,0,1,2.08,2.39c.82,1.61.4,2.87-1.32,3.51a20,20,0,0,1-3.09.66A16.32,16.32,0,0,1,118.13,72a8.89,8.89,0,0,1-2-2.19C115,68.06,115.6,66.5,117.56,65.88Z"/><path class="cls-29" d="M43.42,75.63a21.32,21.32,0,0,0,3.2.64c1.25-.21,2.39-.31,3.48-.58a15.48,15.48,0,0,0,6.69-3.39,7.35,7.35,0,0,0,2-2.69,3.19,3.19,0,0,0-1.64-4.36,7.15,7.15,0,0,0-2.47-.71,15.35,15.35,0,0,0-11.42,3.81,8,8,0,0,0-1.77,2.13A3.33,3.33,0,0,0,43.42,75.63Zm-1-4.59a7.69,7.69,0,0,1,1.63-2,14.76,14.76,0,0,1,9.53-3.54,7.71,7.71,0,0,1,2.91.58,2.16,2.16,0,0,1,1.21,3.39,7.94,7.94,0,0,1-1.76,2.15,15.49,15.49,0,0,1-9.82,3.51,13.91,13.91,0,0,1-2.45-.56A2.23,2.23,0,0,1,42.42,71Z"/><path class="cls-29" d="M65.52,47.53c1-.88,2-1.8,2.92-2.72a1.87,1.87,0,0,0,.27-.48c-.09,0-.15-.13-.2-.12a12.07,12.07,0,0,0-4.39,2.22c-.69.5-.74.78-.85,2.08A2.62,2.62,0,0,0,65.52,47.53Z"/><path class="cls-29" d="M59.54,46.29a6,6,0,0,0-3.29,1.64,4.79,4.79,0,0,0-1.57,2.7A12.21,12.21,0,0,0,59.54,46.29Z"/><path class="cls-29" d="M145.09,100.14c-.52,1.58-.25,3.13,1,5.68a6.16,6.16,0,0,0,.12-4.2C146,101,145.81,100.39,145.09,100.14Z"/><path class="cls-29" d="M57.17,55.22a11.5,11.5,0,0,0,4.15-3.34c.12-.17.08-.44.15-.83C59.17,51.75,58.08,53.4,57.17,55.22Z"/><path class="cls-29" d="M146.09,96.2c.1-1.69.4-3.39-1.37-5a7.22,7.22,0,0,0,.55,4C145.4,95.58,145.4,96.12,146.09,96.2Z"/><path class="cls-29" d="M143,112.75c1.16-2.48,1.21-4.14.08-5.4A14.24,14.24,0,0,0,143,112.75Z"/><path class="cls-29" d="M54.55,54.23a4.39,4.39,0,0,0-3,4A7.65,7.65,0,0,0,54.55,54.23Z"/><path class="cls-29" d="M40.35,63.4a4.47,4.47,0,0,0-2.24,3s-.13.07-.15.12c-.15.37-.63.82-.06,1.09.37.17.57-.35.73-.69a8.68,8.68,0,0,0,1.9-2.71C40.65,64,40.82,63.63,40.35,63.4Z"/><path class="cls-29" d="M139.13,116.2c.58-1.32,1.41-2.47,1-4.21A5.21,5.21,0,0,0,139.13,116.2Z"/><path class="cls-29" d="M148.31,105.51a3.84,3.84,0,0,0,.48.9c.34-2.91.32-3-.55-4A7,7,0,0,0,148.31,105.51Z"/><path class="cls-29" d="M45.41,59.72a9.75,9.75,0,0,0,3.27-3.6c.09-.16,0-.43-.06-.72a6.07,6.07,0,0,0-3.33,3.84c-.09.16-.27.32-.24.45C45.1,60,45.27,60,45.41,59.72Z"/><path class="cls-29" d="M58.08,165.93c-.12,0-.34.1-.48.2a.6.6,0,0,0-.16.35c-.18,1.3-.35,2.6-.52,3.9l.4.42c.26-1,.52-1.9.75-2.86a11.69,11.69,0,0,0,.27-1.55A.59.59,0,0,0,58.08,165.93Z"/><path class="cls-29" d="M61,170.24c-.19,1-.32,2-.48,2.95l.37.79c.15-.51.31-1,.44-1.53.18-.71.37-1.42.49-2.14,0-.17-.21-.39-.32-.59C61.35,169.89,61.06,170,61,170.24Z"/><path class="cls-29" d="M57.58,178.53a5.86,5.86,0,0,0,.5-3.92C57.23,175.25,57.14,176.17,57.58,178.53Z"/><path class="cls-29" d="M97.39,113.15a3.62,3.62,0,0,0-1.73.29,10.11,10.11,0,0,0-4.19,4.11c.25.15.42.32.59.32A7.24,7.24,0,0,0,97.55,116a3.59,3.59,0,0,0,.79-1.35A1.09,1.09,0,0,0,97.39,113.15Zm-.1,1.54A5.11,5.11,0,0,1,93,116.82c1.24-1.3,2.36-2.55,4.3-2.76C97.28,114.35,97.37,114.57,97.29,114.69Z"/><path class="cls-29" d="M79.08,113.44a3.6,3.6,0,0,0-1.73-.29,1.13,1.13,0,0,0-1,1.45,3.14,3.14,0,0,0,1.25,1.76,8,8,0,0,0,4.85,1.55,2.6,2.6,0,0,0,.82-.3A10.09,10.09,0,0,0,79.08,113.44Zm-.75,2.22c-.48-.32-1-.69-.92-1.4,1.41-.14,2.26.35,4.42,2.67A6.1,6.1,0,0,1,78.33,115.66Z"/><path class="cls-29" d="M61.8,96.14V92.06a8,8,0,0,0-3.06-5.18c-.45-.39-.93-.74-1.39-1.11a5.37,5.37,0,0,1-.56-.21A9.36,9.36,0,0,0,44.2,90.43a2.48,2.48,0,0,1-1.31,1.39,1.71,1.71,0,0,0-1.14,1.7.46.46,0,0,0,0,.7v.68c.18.2.32.47.54.58a5.16,5.16,0,0,1,2.12,2.73,9,9,0,0,0,7.71,5.21,9.73,9.73,0,0,0,6.39-1.79c.41-.43.82-.85,1.21-1.29A7.58,7.58,0,0,0,61.8,96.14ZM43,94.66a1.16,1.16,0,0,1,.14-1.74,3.23,3.23,0,0,1,4.28.45,1.14,1.14,0,0,1-.14,1.6,2.9,2.9,0,0,1-2.12.7A3.08,3.08,0,0,1,43,94.66Zm10.73,7.77a8,8,0,0,1-8.58-5.67,8.22,8.22,0,0,0,1.12-.22,5.47,5.47,0,0,0,1.45-.6A2.22,2.22,0,0,0,48,92.48a5,5,0,0,0-2.85-1.28c1.12-4.11,5.68-6,8.86-5.43a8.4,8.4,0,0,1-.32,16.66Z"/><path class="cls-29" d="M62.17,95.7c0-.93,0-1.87,0-2.8l-.41-.84v4.08Z"/><path class="cls-29" d="M129.35,90.2a9.28,9.28,0,0,0-10.5-5.29,23.8,23.8,0,0,0-2.63.87l-3,2.7c-.09.18-.16.36-.26.53a9,9,0,0,0-1.21,7.35c.09.31.14.64.22,1a12.72,12.72,0,0,0,3,4.29c.51.29,1,.61,1.55.87a9.34,9.34,0,0,0,7.31.45,8.75,8.75,0,0,0,5.47-5.11,3.85,3.85,0,0,1,1.82-2.19,3.17,3.17,0,0,0,.46-.36l.11-.68a1,1,0,0,0,0-1.48c-.16-1.12-1.24-1.27-2-1.87C129.68,90.93,129.5,90.57,129.35,90.2Zm-9.77,12.17a8.39,8.39,0,0,1-.28-16.54c4-.76,8.17,1.69,9.23,5.29a14.84,14.84,0,0,0-1.47.48,4.44,4.44,0,0,0-1.19.7,2.2,2.2,0,0,0,.37,3.8,14,14,0,0,0,2.34.77C127.74,100.28,123.56,103.05,119.58,102.37Zm11.11-7.72a3.43,3.43,0,0,1-2.58,1,8.23,8.23,0,0,1-1.53-.59,1.2,1.2,0,0,1-.2-1.87,3.27,3.27,0,0,1,4.15-.33A1.2,1.2,0,0,1,130.69,94.65Z"/></g></g></svg>