<svg xmlns="http://www.w3.org/2000/svg" viewBox="0 0 175.83 184.99"><defs><style>.cls-1{fill:#d7e9e6;}.cls-2{fill:#d95628;}.cls-3{fill:#49897b;}.cls-4{fill:#d73d1c;}.cls-5{fill:#3f766a;}.cls-6{fill:#f8f0e0;}.cls-7{fill:#6c483b;}.cls-8{fill:#f5e6ba;}.cls-9{fill:#614134;}.cls-10{fill:#f2b55f;}.cls-11{fill:#d5c669;}.cls-12{fill:#e1b761;}.cls-13{fill:#b56e45;}.cls-14{fill:#e97b47;}.cls-15{fill:#eda16e;}.cls-16{fill:#eb9058;}.cls-17{fill:#db5f2d;}.cls-18{fill:#eca25e;}.cls-19{fill:#ec9a5b;}.cls-20{fill:#b9b26b;}.cls-21{fill:#de5b32;}.cls-22{fill:#eea264;}.cls-23{fill:#ea854f;}.cls-24{fill:#e9834b;}.cls-25{fill:#ee9b63;}.cls-26{fill:#eb8a52;}.cls-27{fill:#fff;}.cls-28{fill:#592d4b;}.cls-29{fill:#4c2942;}.cls-30{fill:#e4a354;}.cls-31{fill:#d3bb64;}.cls-32{fill:#d0c66b;}.cls-33{fill:#efaf59;}.cls-34{fill:#e27b3c;}.cls-35{fill:#dab05d;}.cls-36{fill:#cab863;}.cls-37{fill:#d5d772;}.cls-38{fill:#beb160;}.cls-39{fill:#a7884c;}.cls-40{fill:#86945a;}.cls-41{fill:#ba924e;}.cls-42{fill:#f8d36d;}.cls-43{fill:#ebaf5a;}.cls-44{fill:#ee9245;}.cls-45{fill:#eb9446;}.cls-46{fill:#ec9247;}.cls-47{fill:#ec9c50;}.cls-48{fill:#f5e5b9;}.cls-49{fill:#eec96a;}.cls-50{fill:#e9924b;}.cls-51{fill:#eb9f52;}.cls-52{fill:#ecac5a;}.cls-53{fill:#8e785f;}.cls-54{fill:#919b6c;}.cls-55{fill:#f8f0df;}.cls-56{fill:#eacc6c;}.cls-57{fill:#e47c46;}.cls-58{fill:#d4be65;}.cls-59{fill:#dc914a;}.cls-60{fill:#b89352;}.cls-61{fill:#e2cd6c;}.cls-62{fill:#bfa159;}.cls-63{fill:#c5ba65;}.cls-64{fill:#cdc369;}.cls-65{fill:#c9c069;}.cls-66{fill:#614135;}.cls-67{fill:#75516a;}.cls-68{fill:#7b4727;}</style></defs><g id="Calque_2" data-name="Calque 2"><g id="OBJECTS"><rect class="cls-1" width="175.83" height="181.36" rx="68.69"/><path class="cls-2" d="M148.83,42.28c.48.45,1.19.6,1.57,1.2,2.33,7.14,2.45,14.47,1.8,21.87-.17,1.86,0,3.72-.11,5.58,0,.93,0,1.9-.87,2.52-1.35-.32-1.09-1.46-1.15-2.37-.16-2.65.21-5.32-.25-8a15,15,0,0,0-5.49-9.41c-3.62-2.76-7.53-2.94-11.66-1.36-1.26.48-.78,1.12-.2,1.79,2.2,2.57,4.49,5.06,6.52,7.78a45.75,45.75,0,0,1,9.27,18.84c.89,2.88,2.17,5.64,2.63,8.65a2.36,2.36,0,0,0-.33,2.26,42.8,42.8,0,0,1,.69,8.3,38.34,38.34,0,0,1-2.52,12.8,42.3,42.3,0,0,1-7.84,13.06,3.58,3.58,0,0,1-1.18,1,.77.77,0,0,1-.33-.42,1.76,1.76,0,0,1,0-.56,3.46,3.46,0,0,1,.2-.83c2.69-5.13,2.21-10.08-.87-14.87a11,11,0,0,0-3.93-3.58,6.3,6.3,0,0,1-2.11-1.46,3.47,3.47,0,0,1-.19-2.33c1-7.44-6.31-12.54-12.9-11.06-3.15.71-6.85,5.09-7.3,8.67-.06.59-.28,1.15-.35,1.74-.36,3-.36,3-3.23,3.8a18.85,18.85,0,0,0-4.43,1.63,1.72,1.72,0,0,1-1.16,0c-2.48-1-5.17-1.25-7.74-1.95A9.4,9.4,0,0,0,88.74,103a26.48,26.48,0,0,0-7.1.59c-1.81.25-3.16,1.45-4.69,2.27-2.16.44-4,1.86-6.32,1.83-2.38-1.24-4.94-2.12-7.26-3.49a1.63,1.63,0,0,1-.42-.45,2.13,2.13,0,0,1-.22-.89c0-6.46-2.77-10.36-8.68-11.14s-12,2.53-11.92,9.55a14.4,14.4,0,0,1-.06,2.18,5.46,5.46,0,0,1-4.72,4.22c-1.1-.53-1.32-1.61-1.59-2.63a39.29,39.29,0,0,1,.65-22.63C41.86,65.5,52.84,53.13,68,44.23c5.38-3.16,11.18-5.3,17-7.44,1.38-.5,2.9-.39,4.28-.9a70.41,70.41,0,0,1,7.11.53c.66,0,1.31.18,2,.24a1.87,1.87,0,0,1,1.41.62,2.13,2.13,0,0,0,1.37.72,73.17,73.17,0,0,1,7.79,2.3c1.45-.5,2.42.7,3.64,1,1.22.71,2.5,1.31,3.76,1.94a1.65,1.65,0,0,1,.46.23,3.35,3.35,0,0,0,1.06.67c.23.11.43.26.67.36a2.42,2.42,0,0,1,.42.29,8.43,8.43,0,0,0,1.07.73,9.35,9.35,0,0,0,2.31,2.17c.21.16.44.29.66.44a11.74,11.74,0,0,0,1.12,1l0,0-.09-.06c-.46-.34-.78-.79-1.22-1.11a2.64,2.64,0,0,1-.46-.27c-.65-.62-1.63-.93-1.8-2a1.48,1.48,0,0,1,.17-.54,15.09,15.09,0,0,1,4.56-2.72c.25-.11.51-.2.77-.29a2.38,2.38,0,0,1,.52-.15,14.5,14.5,0,0,0,1.56-.44c.79-.36,1.68-.38,2.47-.72,1.21-.27,2.43-.5,3.62-.82.67-.06,1.34,0,2-.05h5.92c.44,0,.88,0,1.31,0a10.12,10.12,0,0,1,3.3.77c.48.16.92.39,1.39.57A1.09,1.09,0,0,1,148.83,42.28Z"/><path class="cls-3" d="M123,181.78a8.1,8.1,0,0,1-2.9.61,107.43,107.43,0,0,1-13.28,1.46c-10,.36-20,.43-29.93.14a153,153,0,0,1-17.09-1.38c-4.94-.69-9.9-1.23-14.81-2.06a3,3,0,0,1-1.33-.39c1.37-1.21,1.77-2.86,2.19-4.55a128.31,128.31,0,0,1,10.69-28.47c1.57-3,2.09-3.28,5.51-2.65a90.55,90.55,0,0,0,13.22,1.7,6.54,6.54,0,0,1,3.06.76c.68.51.52,1.29.64,2s.4,1.19,1.15,1,.75-.81.38-1.4-.87-1.09,0-1.64a4.79,4.79,0,0,1,2.34-.36c4.9-.12,9.8.09,14.72-.33a77.22,77.22,0,0,0,21.16-4.34c.87-.34,1.73-.76,2.64-.12a51,51,0,0,1,3.07,6,155.29,155.29,0,0,1,9,23.86c.62,2.1,1.14,4.23,1.7,6.35a.87.87,0,0,1-.42,1,4.3,4.3,0,0,1-.9.41,39.77,39.77,0,0,1-8.93,2c-.89-.46-.94-1.38-1.17-2.19a16.31,16.31,0,0,0-4.63-7.93C120.26,174.83,120.4,178.75,123,181.78Z"/><path class="cls-4" d="M89.28,35.89a3.39,3.39,0,0,1-1.58.82c-4.75,1.53-9.37,3.4-14,5.35a57.63,57.63,0,0,0-6.13,3.33,70.31,70.31,0,0,0-8.4,5.73c-1.35,1.06-2.65,2.2-3.92,3.38S52.91,56.83,51.74,58A58.37,58.37,0,0,0,43.39,68.9a64.74,64.74,0,0,0-4.73,9.46,48.9,48.9,0,0,0-3,10.72c-.54,3.53-.18,7-.3,10.56a39.84,39.84,0,0,0,2.06,7.89,1,1,0,0,1,.1.61,4.94,4.94,0,0,1-.92,1.74,14.49,14.49,0,0,0-2.29,12.84,3.4,3.4,0,0,1,.15,2.33c-.18.29-.41.49-.78.37a25.33,25.33,0,0,1-6.48-9.23,42.63,42.63,0,0,1-3-11.14,47.28,47.28,0,0,1-.43-4.76,44.77,44.77,0,0,1,1.29-11.47c.13-.58.23-1.17.35-1.76-.23-2.63,1.09-4.9,1.74-7.33a71.93,71.93,0,0,1,7.3-14.1A88.44,88.44,0,0,1,46.18,51.88l.37-.41A2.41,2.41,0,0,1,47,51.1a2.43,2.43,0,0,1,.47-.28,7,7,0,0,0,1.81-1.58,2.3,2.3,0,0,1,.43-.34,20.59,20.59,0,0,0,2.23-1.6,73,73,0,0,1,8.71-5.22c1.26-.59,2.45-1.39,3.93-1.4l2.57-1a51.35,51.35,0,0,1,14.61-3.69A45.43,45.43,0,0,1,89.28,35.89Z"/><path class="cls-5" d="M121.36,141.73c-1.67.63-3.34,1.26-5,1.87a51.05,51.05,0,0,1-10,2.44,47.09,47.09,0,0,1-8.87.92c-5.75.8-11.52.23-17.28.38a1.19,1.19,0,0,1-1.6,0,7.57,7.57,0,0,1-2.17-.24,1.92,1.92,0,0,0-.78-.14,45.08,45.08,0,0,1-6.14-.47,33.38,33.38,0,0,1-3.72-.56c-1.9-.33-3.78-.71-5.67-1-1.31-.21-1.45-.14-2.05,1a130.3,130.3,0,0,0-5.87,12.63c-1,2.54-2,5.06-2.81,7.66-1.18,3.74-2.23,7.51-3.19,11.3-.07.26-.09.53-.18.78-.48,1.43-.4,1.8-2.34,1.84a11.1,11.1,0,0,1-3.5-.73c-1.06-.35-1.27-.73-1.06-1.77.14-.72.32-1.43.51-2.13,1.81-6.68,3.78-13.3,6.07-19.83a84.57,84.57,0,0,1,6.14-13.41,18.19,18.19,0,0,1,1.44-2.14,4.1,4.1,0,0,1,2.42-1.66,1.68,1.68,0,0,1,1.55-.46,5.17,5.17,0,0,0,2.56.17,23.85,23.85,0,0,1,3.58.46,11.91,11.91,0,0,0,2.38.22c6,.74,12,1.36,18,1.66a133.88,133.88,0,0,0,23.34-1.16c.52-.07,1.06,0,1.59-.07,2.44.58,4.67-.54,7-.9,1.1,0,2.22-.91,3.29.1A5.63,5.63,0,0,1,121.36,141.73Z"/><path class="cls-6" d="M104.16,107.34a1,1,0,0,1,.61-1,9.76,9.76,0,0,1,1.47-.58c.88-.28,1.78-.5,2.67-.76a5.8,5.8,0,0,0,2.2-.76c.61-.54.09-1.5.17-2.28a3.85,3.85,0,0,1,.35-1.92c.83.44.69,1.24.64,1.94-.34,5,3.73,8.7,7.13,9.67,4.56,1.3,8.63-.24,11.43-4.28.62-.89.8-2.18,2.1-2.52a12.22,12.22,0,0,1,7.28,6.36,19.05,19.05,0,0,1,1.58,4.27,11.42,11.42,0,0,1-.58,7.58c-.41.91-.83,1.81-1.25,2.71l-.2.32-.11.41a5.8,5.8,0,0,1-2,2h0a.31.31,0,0,1-.39.11,34.58,34.58,0,0,1-5.13,3.61l-3.26,1.79c-.24.38-.69.34-1,.5a1,1,0,0,0-1,.33,3.66,3.66,0,0,1-2.74.93,1.59,1.59,0,0,1-1.11-.6,7.81,7.81,0,0,1-.89-3c-2-10.21-7.24-18.09-16.46-23.17C105,108.63,104.22,108.31,104.16,107.34Z"/><path class="cls-7" d="M104.16,107.34a40.09,40.09,0,0,1,8.79,5.83,20.31,20.31,0,0,1,3.09,3.39,36.63,36.63,0,0,1,7.36,18.5c.17.49.88.88.27,1.51a1.55,1.55,0,0,1-1.28.77,11.13,11.13,0,0,0-2.29.42c-1.6.58-3.32.69-4.9,1.35a14.61,14.61,0,0,0-2.29.39c-.92.16-2,.38-2.71-.58-1-1.24-.83-2.73-.91-4.18-.39-6.73-1.29-13.31-5.11-19.15a27,27,0,0,0-5.59-6.14,21.86,21.86,0,0,1-3.21-2.62,1.2,1.2,0,0,1,.37-1.51c.25.07.52.24.73.18a5.92,5.92,0,0,1,3.65.34C101.48,106.31,102.81,106.84,104.16,107.34Z"/><path class="cls-2" d="M23.26,44.16A8.76,8.76,0,0,1,26.17,42c1.19-1.56,3-1.56,4.71-2a16.23,16.23,0,0,0,2.3-.28c3.68-.09,7.36-.21,11,.77.61,0,1.15.4,1.77.43a31.49,31.49,0,0,1,3,1.16,1.93,1.93,0,0,1,.47.13c.21.09.41.2.61.31l.37.2.54.3a2.58,2.58,0,0,1,.37.19l.57.3a3.22,3.22,0,0,1,.39.25,2.24,2.24,0,0,1,.37.32c.06.06.11.13.16.19a2.43,2.43,0,0,1,.7,1.42c0,1.13-1,1.5-1.55,2.2a15.11,15.11,0,0,0-2.15,1.59h0c-.92.53-1.51,1.45-2.41,2l0,0-.43.42h0c-1.18.69-1.87,1.93-3,2.63a1,1,0,0,1-.53-.05A1.06,1.06,0,0,1,43,54a6.18,6.18,0,0,1-.36-.73c-1.06-1.37-2.65-1.35-4.13-1.56a10.31,10.31,0,0,0-9,2.68c-3,2.46-4.32,5.79-4.94,9.47a27.31,27.31,0,0,0-.47,4.34c0,.8.07,1.78-1.06,2.06-1.32-1.14-1.13-2.75-1.3-4.23-.71-6.44.15-12.82.79-19.22C22.63,45.88,23.33,45.14,23.26,44.16Z"/><path class="cls-7" d="M65.36,139.79l-2-.5a4.15,4.15,0,0,0-2.39-2.22,30.4,30.4,0,0,1-5.64-2.91c-1.17-.81-2.25-1.18-3.54-.4,0-.24-.07-.47-.11-.71a2,2,0,0,1-.63-1.82,26.94,26.94,0,0,1,5.51-13.62A36.47,36.47,0,0,1,67.73,108c.86-.46,1.72-1.09,2.79-.6,1.29-.49,2.57-1,3.86-1.47a8.52,8.52,0,0,1,2.48-.57,2.21,2.21,0,0,1,.28,2.34,7.76,7.76,0,0,1-1.45,1.87c-6,5.75-8.77,13-10,21C65.18,133.61,65.51,136.69,65.36,139.79Z"/><path class="cls-8" d="M51.76,130.93a7.19,7.19,0,0,1-.12,2.12,2.35,2.35,0,0,0-.31,1.51,8.92,8.92,0,0,1-.09,1.16.8.8,0,0,1-1.21.56,6.92,6.92,0,0,1-1-.62l-2.51-1.85c-.76.1-1.26-.53-1.93-.68-.27-.22-.59-.37-.86-.58h0c-.23-.23-.6-.16-.82-.41h0c-.62-.48-1.41-.69-2-1.2h0c-.22-.23-.6-.16-.81-.41h0c-.4-.29-.85-.5-1.22-.81h0c-.58-.34-1.06-.82-1.61-1.2l0,0a5.66,5.66,0,0,1-.43-.42l0,0a13.65,13.65,0,0,1-2.12-1.9,2.12,2.12,0,0,1-.66-1.36A16,16,0,0,1,33,117.34a14.19,14.19,0,0,1,4.43-9.48c1.45.41,1.69,1.77,2.15,2.88,2.5,6.1,5.43,11.93,10,16.76A7.68,7.68,0,0,1,51.76,130.93Z"/><path class="cls-4" d="M23.26,44.16a1.47,1.47,0,0,1,.37,1.46c-.25,2-.38,4-.7,5.9a43.57,43.57,0,0,0-.41,6.55,5.81,5.81,0,0,1-.23,1.16,5.05,5.05,0,0,0-.06,2.38,19.47,19.47,0,0,1,.34,4,15.41,15.41,0,0,0,.76,4.66c1,.49,1,1.44,1.21,2.33.59,2.6.78,5.32,2.07,7.74.34,2.33-.76,4.3-1.65,6.32a15.77,15.77,0,0,1-.62,1.47.84.84,0,0,1-1.47.06,5.32,5.32,0,0,1-.6-1,53.27,53.27,0,0,1-4.16-14.32,54.83,54.83,0,0,1-.68-9.14,43.66,43.66,0,0,1,2.75-14.43A12.32,12.32,0,0,1,23.26,44.16Z"/><path class="cls-4" d="M150.89,89.41a.93.93,0,0,1-.84-.72c-.49-2.28-1.44-4.4-2.09-6.63-.11-.38-.18-.77-.27-1.15,1.43-1.36,1.63-3.2,2-5,.18-1,.2-2,1.24-2.51a2.12,2.12,0,0,0,.37-1.51c0-1.19,0-2.39,0-3.59a15.93,15.93,0,0,1,.3-4.35,4.94,4.94,0,0,0,.07-1.39c0-1.79,0-3.59,0-5.38a45.91,45.91,0,0,0-.69-7.31c-.25-1.83-.48-3.67-.87-5.48a1,1,0,0,1,.29-.92,7.61,7.61,0,0,1,2.38,3.59,53,53,0,0,1,2.66,8.56,54.54,54.54,0,0,1,1.31,10.86,45.68,45.68,0,0,1-2.49,15.67c-.67,2-1.47,4-2.2,6A2,2,0,0,1,150.89,89.41Z"/><path class="cls-7" d="M146.83,41.48l-3.07-.85c-.51-.33-1.09-.14-1.64-.19H134.4c-.77.13-1.52.33-2.29.47-.26.09-.52.17-.78.27s-.52,0-.78.12l-1,.32c-.54-.06-.95.32-1.45.41a10.74,10.74,0,0,0-1.67.61l0,0c-.23.27-.62.2-.88.41-1.65.72-3,1.91-4.75,2.54-1,.52-1.64-.11-2.37-.55h0a6.36,6.36,0,0,0-1-.61,3.55,3.55,0,0,1-1-.6h0a.89.89,0,0,1-.58-1c2-3.15,5.17-4.6,8.36-6a36.28,36.28,0,0,1,11.82-3,4.73,4.73,0,0,1,1.74.34,34.36,34.36,0,0,1,9.4,4.65A19.86,19.86,0,0,1,149,40.13c1,.86,1,1.17-.12,2.15l-.69-.42C147.77,41.49,147.22,41.77,146.83,41.48Z"/><path class="cls-9" d="M34.1,35.37a17.2,17.2,0,0,1,5.34-1.48,36.26,36.26,0,0,1,15,.83,48.48,48.48,0,0,1,8.25,2.93l.72.34c1.67.82,1.72,1.07.53,2.6a22.64,22.64,0,0,1-3.16,1.84,11.29,11.29,0,0,1-2.5,1c-1.63.29-2.81-.72-4-1.49a30.55,30.55,0,0,0-12-4.69c-2-.31-4.11-.32-6.14-.63C35.33,36.5,34.17,36.78,34.1,35.37Z"/><path class="cls-7" d="M34.1,35.37a1.37,1.37,0,0,0,1.06.46,13.17,13.17,0,0,1,3.75.37,3,3,0,0,0,.79,0,26.26,26.26,0,0,1,9.09,1.92c2.73,1,5.05,2.64,7.51,4.07a4.24,4.24,0,0,0,2.2.82,6.91,6.91,0,0,1-5,2.67c-.44-.5-.69-1.18-1.34-1.5v0c-.15-.13-.29-.27-.43-.41h0c-.22-.24-.6-.16-.81-.42l0,0c-.23-.23-.61-.17-.82-.42h0c-.23-.22-.61-.16-.82-.41h0c-1-.39-2-.88-3-1.21a1,1,0,0,0-.46-.18A6.14,6.14,0,0,0,45,41a4,4,0,0,1-.45-.15,3.73,3.73,0,0,1-.46-.09,7.82,7.82,0,0,0-1-.21c-.25-.09-.51-.14-.76-.23-.47-.13-1-.06-1.43-.15-2.53-.71-5.07-.25-7.61-.14-.73.44-1.62.25-2.38.61s-1.5.47-2.25.68-1.65.42-2.48.62C25.09,41,25,40.6,26,39.77a17.12,17.12,0,0,1,3.1-2.14A17.77,17.77,0,0,1,34.1,35.37Z"/><path class="cls-9" d="M136.1,33.79a1.52,1.52,0,0,1-1.26.84A42.47,42.47,0,0,0,124,37.72a22.83,22.83,0,0,0-6.94,4.52,12.86,12.86,0,0,1-1.09.86c-1.48.1-2.46-1.07-3.73-1.49A7.3,7.3,0,0,0,110,40.5c-.92-.17-1-.69-.71-1.43,2-1,3.82-2.29,5.93-3.07a45.9,45.9,0,0,1,9.93-2.75,30.8,30.8,0,0,1,10.66.34A1.32,1.32,0,0,1,136.1,33.79Z"/><path class="cls-9" d="M51.75,133.76c.38-.36.34-.84.43-1.29s.41-.64.88-.41a14.62,14.62,0,0,1,1.73,1,37.55,37.55,0,0,0,7,3.63,6.73,6.73,0,0,1,.73.32c1.26.61,1.32.81.79,2.32-1.22.24-2.36-.4-3.56-.33-.8-.38-1.75-.12-2.53-.58a3.28,3.28,0,0,1-1.95-.57c-1-.36-2-.69-2.91-1.07a1,1,0,0,1-.71-1.06C51.68,135,51.72,134.4,51.75,133.76Z"/><path class="cls-5" d="M123,181.78a2.6,2.6,0,0,0-.39-.05,1.5,1.5,0,0,1-1.64-1.16l-.12-.38q-1.26-4.19-2.53-8.37a4.21,4.21,0,0,1-.19-1.76.36.36,0,0,1,.58-.25,12.11,12.11,0,0,1,3.93,4.65,17.52,17.52,0,0,1,2.26,6.94A3.48,3.48,0,0,1,123,181.78Z"/><path class="cls-10" d="M25,86.61a23.38,23.38,0,0,1,1.25-4.49c.16-.51.35-1-.05-1.46a1.38,1.38,0,0,1,1.1-1.06.64.64,0,0,1,.49.18l-2.34,7.28Z"/><path class="cls-11" d="M109.24,39.07c.05.55.11,1.13.82,1.16a4.58,4.58,0,0,1,2.43,1.24c.12.1.15.19.11.29s-.08.13-.12.13a19.54,19.54,0,0,1-3.56-1.59C108.9,39.86,108.82,39.4,109.24,39.07Z"/><path class="cls-12" d="M60.88,42.08A9.36,9.36,0,0,1,64,40.59l.58.09a19.74,19.74,0,0,1-3.62,1.88C60.64,42.42,60.63,42.26,60.88,42.08Z"/><path class="cls-13" d="M115.24,138.93a14.07,14.07,0,0,1,4.86-1.17l-1.16.75-3.22.48C115.53,139.17,115.38,139.15,115.24,138.93Z"/><path class="cls-14" d="M124.08,135.43a9.28,9.28,0,0,0,2.81-.55c.12.19.13.39-.08.49-.52.25-1.06.48-1.59.71C124.91,135.75,124.05,136.38,124.08,135.43Z"/><path class="cls-15" d="M137.65,128.55a9.72,9.72,0,0,1,2-2,.45.45,0,0,1,.06.32A2.72,2.72,0,0,1,137.65,128.55Z"/><path class="cls-16" d="M35,126.09a11,11,0,0,1,2,2.08,3.15,3.15,0,0,1-2-1.47A.35.35,0,0,1,35,126.09Z"/><path class="cls-17" d="M124.08,135.43l1.14.65a4.61,4.61,0,0,1-1.55.49c-.09-.5-.18-1-.28-1.51Z"/><path class="cls-18" d="M44.65,132.94a5.24,5.24,0,0,1,1.87.87.59.59,0,0,1-.72.14,4.65,4.65,0,0,1-1.68-1A.32.32,0,0,1,44.65,132.94Z"/><path class="cls-19" d="M40.94,131a2.74,2.74,0,0,1,2,1.2A2.28,2.28,0,0,1,40.94,131Z"/><path class="cls-20" d="M55.28,137.81l2,.4c.1.08.14.15.12.24s-.06.12-.09.12l-1.66-.08Z"/><path class="cls-21" d="M35,126.09c0,.2,0,.4-.08.61a4.62,4.62,0,0,1-1.25-1.28l.5-.51Z"/><path class="cls-22" d="M37.34,128.55a2.07,2.07,0,0,1,1.61,1.2A1.89,1.89,0,0,1,37.34,128.55Z"/><path class="cls-19" d="M38.94,129.75a1.23,1.23,0,0,1,1.22.81A1.27,1.27,0,0,1,38.94,129.75Z"/><path class="cls-23" d="M44.65,132.94l-.53,0-.39-.43A1,1,0,0,1,44.65,132.94Z"/><path class="cls-24" d="M42.93,132.15c.35,0,.67,0,.82.41A.81.81,0,0,1,42.93,132.15Z"/><path class="cls-19" d="M40.14,130.55A.78.78,0,0,1,41,131,.85.85,0,0,1,40.14,130.55Z"/><path class="cls-25" d="M127.86,134.55a2,2,0,0,1,1-.5A1.05,1.05,0,0,1,127.86,134.55Z"/><path class="cls-16" d="M36.93,128.15a.57.57,0,0,1,.43.42Z"/><path class="cls-26" d="M137.28,128.65l.39-.11C137.59,128.74,137.47,128.81,137.28,128.65Z"/><path class="cls-6" d="M51.76,130.93a1.35,1.35,0,0,1-.74-.63,7.18,7.18,0,0,0-1.27-1.53A42.29,42.29,0,0,1,42,118c-1.19-2.37-2.27-4.79-3.26-7.25-.4-1-.92-1.92-1.39-2.87a1.86,1.86,0,0,0,0-.33c1.28-.81,2.22-2.08,3.66-2.67.26-.1.28-.41.27-.68s0-.53,0-.79c1,0,1,.91,1.18,1.56a10.6,10.6,0,0,0,9.55,7.23,9.92,9.92,0,0,0,9.84-6.41c.32-.78.47-1.7,1.44-2a4.46,4.46,0,0,1,1.88.53l4.79,2.32a.74.74,0,0,1,.47.77A34.17,34.17,0,0,0,57.28,117.9a25,25,0,0,0-5.21,11.67C52,130,51.87,130.48,51.76,130.93Z"/><path class="cls-6" d="M150.9,73.41c-.29,1.56-.56,3.12-.86,4.67a14.54,14.54,0,0,1-.42,1.73c-.35,1.07-.58,1.19-1.93,1.1-.22-.62-.5-1.23-.66-1.86a43.23,43.23,0,0,0-7.48-15.17c-.39-.52-.73-1.08-1.1-1.63a2.76,2.76,0,0,1-.07-2.3,15.32,15.32,0,0,1,3.67-6.05,2.33,2.33,0,0,1,2.46-.91,14,14,0,0,1,5.92,8.9,33.89,33.89,0,0,1,.52,8.94C150.93,71.69,150.92,72.55,150.9,73.41Z"/><path class="cls-27" d="M63.38,103.74a15.46,15.46,0,0,1-2.09,4.91,10.47,10.47,0,0,1-5.24,3.77,11.92,11.92,0,0,1-7.8-.25,8.56,8.56,0,0,1-2.4-1.39,14.34,14.34,0,0,1-3-3.15,5.53,5.53,0,0,1-1.06-2.94,1.79,1.79,0,0,0-.4-1.3c-.82-4.27.84-7.65,3.79-10.56a1.42,1.42,0,0,1,1.21-.57,2.74,2.74,0,0,0,1.7-.45c3.92-1.91,7.6-1.29,11.08,1.1a9.32,9.32,0,0,1,4.27,7.9c0,.73-.09,1.45-.13,2.18-.2.28-.24.55.1.76Z"/><path class="cls-27" d="M132.93,104.9a12.7,12.7,0,0,1-3.43,5.28,10.15,10.15,0,0,1-9.17,2.57,11.48,11.48,0,0,1-6.93-4.31,7,7,0,0,1-1.67-4.37c0-1.33-.07-2.65-.1-4a9.22,9.22,0,0,1,2.06-4.89,13.3,13.3,0,0,1,3.68-3.33,5,5,0,0,1,3.53-1c.83.12,1.71-.19,2.58-.1a11,11,0,0,1,9.69,12.78C133.1,104,133,104.45,132.93,104.9Z"/><path class="cls-6" d="M47.14,83.1a8,8,0,0,1-2.94-.44,2.69,2.69,0,0,1-1.46-3.92,4.59,4.59,0,0,1,.92-1.29C47.12,74.21,51.1,72.39,56,73a3.36,3.36,0,0,1,2.55,1.68,2.73,2.73,0,0,1,.15,2.83,7.48,7.48,0,0,1-2.85,3A16.23,16.23,0,0,1,48.53,83C48.07,83.07,47.6,83.07,47.14,83.1Z"/><path class="cls-6" d="M127.55,83a16.33,16.33,0,0,1-9.35-3.46,6.42,6.42,0,0,1-1.88-2.29,2.49,2.49,0,0,1,1.46-3.7,7,7,0,0,1,2.33-.46c4.34,0,8.24,1.27,11.31,4.5A7.83,7.83,0,0,1,132.5,79a1.83,1.83,0,0,1-.49,2.63A6,6,0,0,1,127.55,83Z"/><path class="cls-8" d="M144.51,53c-2.76,1.59-4.29,4.13-5.35,7-.28.73-.48,1.49-.71,2.24-1.68-2-3.35-3.92-5-5.87-.65-.75-1.33-1.48-2-2.23a5.84,5.84,0,0,1-.68-1A.85.85,0,0,1,131.2,52c3.47-1.29,7-2.11,10.61-.61A6.72,6.72,0,0,1,144.51,53Z"/><path class="cls-28" d="M95.75,105.32V107c.41,2.19-1.33,4-4.14,4.42-2.48-.42-5-.62-7.32-1.77a6.07,6.07,0,0,1-3.5-4.08,2.5,2.5,0,0,1,.53-2.59,9.2,9.2,0,0,1,3.46-.72,21.44,21.44,0,0,1,6.49.32,11.57,11.57,0,0,1,3,1A2.54,2.54,0,0,1,95.75,105.32Z"/><path class="cls-29" d="M81.31,103a12.89,12.89,0,0,0,0,1.39,5,5,0,0,0,3.24,4.56,20.73,20.73,0,0,0,4.15,1.27,7.26,7.26,0,0,1,3,.8c0,1-.75,1.22-1.42,1.43-4.43,1.36-8.54.89-12.11-2.28-.78-.69-1.58-1.47-1.32-2.71a2.27,2.27,0,0,1,0-2.12A6.7,6.7,0,0,1,81.31,103Z"/><path class="cls-30" d="M136.13,40.22a41.93,41.93,0,0,1,6.24.05c.28,0,.32.16.13.37l-6.47,0c-.11-.12-.14-.22-.07-.29A.24.24,0,0,1,136.13,40.22Z"/><path class="cls-31" d="M112.48,41.89c0-.14,0-.28,0-.42L116,43.1c.15.26.52.36.52.72A11.87,11.87,0,0,1,112.48,41.89Z"/><path class="cls-32" d="M131.65,40.74a8.72,8.72,0,0,1,2.42-.42c.27.11.28.24,0,.37a14.82,14.82,0,0,1-3.59.81l-.16-.21.14-.23.6-.06A1.42,1.42,0,0,0,131.65,40.74Z"/><path class="cls-33" d="M122.48,47.83a7.35,7.35,0,0,1-3-1.94,1,1,0,0,1,1.3,0c.45.75,1.32,1.15,1.68,2Z"/><path class="cls-34" d="M124.48,49.43a2,2,0,0,1-1.6-1.13.28.28,0,0,1-.11-.29c0-.1,0-.15.08-.15a3.72,3.72,0,0,1,1.62,1.57Z"/><path class="cls-35" d="M128.1,41.85a2.77,2.77,0,0,1,1.43-.44.87.87,0,0,1,.94,0l0,.1a7.81,7.81,0,0,1-2.45.74c-.13-.1-.17-.19-.11-.28A.22.22,0,0,1,128.1,41.85Z"/><path class="cls-36" d="M120.79,45.87l-1.3,0a1.3,1.3,0,0,1-1-.87l2.37.55Z"/><path class="cls-37" d="M134.09,40.69c0-.12,0-.25,0-.37l2.05-.1-.09.38Z"/><path class="cls-38" d="M128.1,41.85c0,.13,0,.26,0,.39a3,3,0,0,1-1.6.4A2.49,2.49,0,0,1,128.1,41.85Z"/><path class="cls-31" d="M116.49,43.82c.51-.1.83.24,1.18.5.12.08.15.17.12.25s-.08.13-.12.13A1.37,1.37,0,0,1,116.49,43.82Z"/><path class="cls-39" d="M146.83,41.48a1.33,1.33,0,0,1,1.31.38A1.69,1.69,0,0,1,146.83,41.48Z"/><path class="cls-40" d="M142.5,40.64c0-.12-.08-.24-.13-.37a1.71,1.71,0,0,1,1.39.36Z"/><path class="cls-36" d="M117.67,44.7v-.38c.35.15.71.29.83.71A.86.86,0,0,1,117.67,44.7Z"/><path class="cls-41" d="M125.6,43a1,1,0,0,1,.88-.41A1,1,0,0,1,125.6,43Z"/><path class="cls-6" d="M63.39,103.75c-.43-.2-.41-.46-.1-.76C63.32,103.24,63.35,103.5,63.39,103.75Z"/><path class="cls-42" d="M139.76,126.14l.2-.32A.26.26,0,0,1,139.76,126.14Z"/><polygon class="cls-34" points="124.47 49.44 124.59 49.54 124.48 49.43 124.47 49.44"/><path class="cls-43" d="M122.85,47.86l0,.44c-.13-.16-.26-.32-.4-.47h0A1.2,1.2,0,0,1,122.85,47.86Z"/><path class="cls-44" d="M78.57,147.37a1.65,1.65,0,0,1,1.6,0l.66.4a1.58,1.58,0,0,1,.78,2,1.91,1.91,0,0,1-2,1.25,1.73,1.73,0,0,1-1.54-1.55A3.21,3.21,0,0,1,78.57,147.37Z"/><path class="cls-45" d="M81.29,160.94a1.56,1.56,0,0,1-1,1.57,1.69,1.69,0,0,1-1.84-.35,2,2,0,0,1-.29-2.54.9.9,0,0,1,1.18-.42,10.33,10.33,0,0,1,1.4.73A1.21,1.21,0,0,1,81.29,160.94Z"/><path class="cls-46" d="M81.21,174.54a1.77,1.77,0,0,1-1.66,1.52,2.06,2.06,0,0,1-1.72-1.45,1.63,1.63,0,0,1,.53-1.8.88.88,0,0,1,.91-.24A3.11,3.11,0,0,1,81.08,174,2.47,2.47,0,0,1,81.21,174.54Z"/><path class="cls-47" d="M43.73,54.21l1.89-1.66A2,2,0,0,1,47,51.83a3.4,3.4,0,0,1-1,1.2A68,68,0,0,0,35.77,65a2,2,0,0,1-.81.86.83.83,0,0,1-.56-.4,1.09,1.09,0,0,1-.08-.47,1.91,1.91,0,0,1,.13-.45,1.28,1.28,0,0,0,.11-.2c.1-.21.21-.41.32-.61a2.86,2.86,0,0,1,.2-.44,4.51,4.51,0,0,1,.22-.44,2.47,2.47,0,0,1,.3-.42c1.35-2.05,2.6-4.19,4.58-5.73C41.56,56.16,42.25,54.63,43.73,54.21Z"/><path class="cls-48" d="M34.59,65.05c.12.28.25.55.37.83a79,79,0,0,0-7.22,13.9l-.37.07c-.7-.71-.37-1.49-.11-2.22a56,56,0,0,1,5.4-11.26C33.09,65.69,33.47,64.79,34.59,65.05Z"/><path class="cls-49" d="M60.88,42.08c0,.16,0,.32,0,.48-3,1.64-5.93,3.39-8.77,5.29a.33.33,0,0,1-.55,0c.54-.73,1.41-1.27,1.4-2.33.07-.24.19-.26.35-.08a1.63,1.63,0,0,0,1.31-.14l3.84-2.22Z"/><path class="cls-50" d="M47.33,51.44a3.85,3.85,0,0,1,2.41-2A4.06,4.06,0,0,1,47.33,51.44Z"/><path class="cls-51" d="M51.6,47.82l.55,0a5.46,5.46,0,0,1-2.42,1.59A3.13,3.13,0,0,1,51.6,47.82Z"/><path class="cls-52" d="M46.92,51.84l.43-.42A.57.57,0,0,1,46.92,51.84Z"/><path class="cls-27" d="M76.89,107.44c.19.26.38.53.58.79a10.16,10.16,0,0,0,8,4.13A10.51,10.51,0,0,0,91.74,111a6.21,6.21,0,0,0,4-4,.74.74,0,0,1,.89,0,27.44,27.44,0,0,1,11,13.72,33.86,33.86,0,0,1,2,9.3c.22,2.18.33,4.37.52,6.55,0,.66.2,1.31.31,2,.27,1.44-1,1.18-1.72,1.61-1.71.17-3.43.32-5.14.5-4.69.52-9.38.81-14.1.9a91.41,91.41,0,0,1-10.33-.42l-9.9-.95c-1.31-.12-2.63-.27-4-.4a4.09,4.09,0,0,1-1-2.74,45.8,45.8,0,0,1,3.42-17.46,32.51,32.51,0,0,1,8-11.3A13.21,13.21,0,0,1,76.89,107.44Z"/><path class="cls-53" d="M108.78,140.16a5.19,5.19,0,0,0,1.72-1.61,2.61,2.61,0,0,0,2.77.61,5.73,5.73,0,0,1,2-.23l.47.06c-.64.57-1.5.45-2.25.61A13.2,13.2,0,0,1,108.78,140.16Z"/><path class="cls-54" d="M57.33,138.57l0-.36a5.48,5.48,0,0,1,2.46.75C58.94,138.89,58.05,139.25,57.33,138.57Z"/><path class="cls-55" d="M34.59,65.05a11.82,11.82,0,0,0-2.41,3.58,60.37,60.37,0,0,0-4.52,10.08c-.13.37-.19.76-.29,1.14-.2.58-.69.71-1.21.81-.69-.19-.85-.78-1-1.36q-.75-3.27-1.43-6.55c-.18-.84-.29-1.69-.42-2.53a40.5,40.5,0,0,1,.41-6.32,20.09,20.09,0,0,1,1.91-6,10.72,10.72,0,0,1,3.57-4.16.91.91,0,0,1,.39-.06c3.16.74,6.75,6.2,6.19,9.43a.56.56,0,0,1-.09.31c-.11.15-.25.28-.35.44h0c-.29.17-.19.57-.45.77h0a1.54,1.54,0,0,0-.36.44Z"/><path class="cls-48" d="M35.8,63.1c-.43-1.18-.81-2.38-1.3-3.54a6.29,6.29,0,0,0-1.14-1.85,27.84,27.84,0,0,0-4.14-4c2.4-2.52,5.43-3.09,8.72-2.84a15.14,15.14,0,0,1,4.46.91,1.76,1.76,0,0,1,1.3,1.57,2,2,0,0,0-.24.46l-.21.39a10.55,10.55,0,0,1-2.69,2.84,31.14,31.14,0,0,0-3.44,4.33A6.08,6.08,0,0,1,35.8,63.1Z"/><path class="cls-56" d="M32.86,40a18,18,0,0,1,8.48-.11c.41.3.94.1,1.38.32l.62.09a4.06,4.06,0,0,0,.95.31.21.21,0,0,1,.24,0,.32.32,0,0,1,.1.32c0,.1-.07.15-.1.15-.84-.14-1.69-.26-2.53-.43a31.15,31.15,0,0,0-6.68-.43l-2.38,0-.16-.11Z"/><path class="cls-57" d="M40.56,57.06a12.1,12.1,0,0,1,2.69-2.84h.48a16.42,16.42,0,0,1-2.81,2.9C40.86,57.16,40.68,57.08,40.56,57.06Z"/><path class="cls-58" d="M46.13,41.09a7.2,7.2,0,0,1,3.22,1.54,8.67,8.67,0,0,1-3.24-1.07C45.86,41.4,45.87,41.24,46.13,41.09Z"/><path class="cls-59" d="M32.86,40a.44.44,0,0,1,.08.29c-.6.54-1.34.33-2,.38A3.93,3.93,0,0,1,32.86,40Z"/><path class="cls-60" d="M53.35,45.41a1.47,1.47,0,0,1-.35.08l-.86-1.27C52.92,44.23,53.2,44.75,53.35,45.41Z"/><path class="cls-61" d="M46.13,41.09c0,.16,0,.32,0,.47a3.26,3.26,0,0,1-1.58-.46v-.47l.42.07c.25.18.59.12.83.31A.62.62,0,0,1,46.13,41.09Z"/><path class="cls-62" d="M50.93,43.42a.89.89,0,0,1,.81.42A.78.78,0,0,1,50.93,43.42Z"/><path class="cls-63" d="M50.13,43a.76.76,0,0,1,.82.42A.79.79,0,0,1,50.13,43Z"/><path class="cls-64" d="M49.33,42.62a.71.71,0,0,1,.82.41A.75.75,0,0,1,49.33,42.62Z"/><path class="cls-62" d="M51.72,43.83a.53.53,0,0,1,.43.41Z"/><path class="cls-57" d="M43.46,53.83l.24-.46Z"/><path class="cls-65" d="M130.47,41.4h-.94a1.38,1.38,0,0,1,.95-.35C130.47,41.18,130.47,41.29,130.47,41.4Z"/><path class="cls-65" d="M131.65,40.74l-.57.26Z"/><path class="cls-61" d="M42.72,40.19a1.59,1.59,0,0,1-1.38-.32A1.84,1.84,0,0,1,42.72,40.19Z"/><path class="cls-58" d="M45.78,41A1,1,0,0,1,45,40.7,1.07,1.07,0,0,1,45.78,41Z"/><path class="cls-61" d="M44.29,40.59a1.09,1.09,0,0,1-.95-.31A1.19,1.19,0,0,1,44.29,40.59Z"/><path class="cls-7" d="M50.15,93.78A3.8,3.8,0,0,1,53,93.09a12.71,12.71,0,0,1,4.38,1.24,8.08,8.08,0,0,1,4,10.61,2.58,2.58,0,0,1-.8,1.34c-3.1,1.38-6.11,1.45-9-.61-2.53-1.79-3.66-5.9-2.56-8.92C49.39,95.75,49.73,94.76,50.15,93.78Z"/><path class="cls-66" d="M50.15,93.78c.38.1.57.33.44.72-.31,1-.65,2-1,3a6.86,6.86,0,0,0,4.27,8.51,6.35,6.35,0,0,0,4.48.16,10.34,10.34,0,0,1,1.36-.32.92.92,0,0,1,.86.38c-1.87,3.57-5.1,4.47-8.74,4.18-3.19-.25-5.88-3-6.8-6.45.44-.54,1.1-.26,1.64-.43a2.34,2.34,0,0,0,1.24-.58,1.75,1.75,0,0,0-.57-2.81,3.55,3.55,0,0,0-1.5-.46c-.52-.06-.65-.32-.48-.83A10.66,10.66,0,0,1,48,94.72,4.84,4.84,0,0,1,50.15,93.78Z"/><path class="cls-7" d="M118.09,93.8a10,10,0,0,1,6-.39,7.81,7.81,0,0,1,5.55,6.24l-1.78.56a2.46,2.46,0,0,0-1.28.89,1.44,1.44,0,0,0,.56,2.31,4.58,4.58,0,0,0,1.94.35c.54,0,.64.18.51.78a1.85,1.85,0,0,1-.3.5,12.36,12.36,0,0,0-3.63.93c-5.68,1.75-9.52-1.24-9.17-7.14A9.13,9.13,0,0,1,118.09,93.8Z"/><path class="cls-9" d="M118.09,93.8a.84.84,0,0,1,.15.91,28.87,28.87,0,0,0-.79,2.86,9.45,9.45,0,0,0,.25,4.89,4.44,4.44,0,0,0,3.19,3,7.65,7.65,0,0,0,5-.36c.74-.27,1.48-.57,2.24-.78s1,.15,1.16.76a5.45,5.45,0,0,1-1.87,3,13.32,13.32,0,0,1-1.88,1.46c-.61.39-1.31.64-2,1s-1.26-.15-1.92-.14a8.5,8.5,0,0,1-4.91-1.19c-5-3.18-5.81-11.87.92-15.28A1.23,1.23,0,0,1,118.09,93.8Z"/><path class="cls-67" d="M89.2,103.78a4.59,4.59,0,0,1,3.22,1.06.94.94,0,0,1,0,1.54,1.93,1.93,0,0,1-.69.37,6.38,6.38,0,0,1-5.36-.69,1,1,0,0,1,0-1.79A4.77,4.77,0,0,1,89.2,103.78Z"/><path class="cls-48" d="M34.93,64.61a.86.86,0,0,1,.45-.77A.86.86,0,0,1,34.93,64.61Z"/><path class="cls-48" d="M34.57,65.06l.36-.44Z"/><path class="cls-48" d="M35.36,63.85l.36-.44Z"/><path class="cls-68" d="M156.05,51a28,28,0,0,0-6.37-11.62c-4.67-4.94-10.6-7.22-17.23-7.86a34.17,34.17,0,0,0-14.55,1.86A36.62,36.62,0,0,0,108,38.29c-.62-.19-1.19-.35-1.75-.54A52,52,0,0,0,90.35,35c-2.33,0-4.67,0-7,0A50.12,50.12,0,0,0,71,36.93c-1.46.42-2.91.87-4.25,1.27-1.3-.78-2.45-1.59-3.69-2.2a55.45,55.45,0,0,0-5.48-2.4,33.9,33.9,0,0,0-20-1.33,24.34,24.34,0,0,0-17,13.84,37.62,37.62,0,0,0-2.76,8.53A55.91,55.91,0,0,0,17,73.11,37,37,0,0,0,22.39,89a2.38,2.38,0,0,1,.31,1.87A47.58,47.58,0,0,0,22.48,106a35,35,0,0,0,11.08,21.36,50.2,50.2,0,0,0,17.57,10.4l2.29.8c-.26.41-.39.64-.55.84a42.77,42.77,0,0,0-4.38,7.13,128.49,128.49,0,0,0-8.42,21.11c-1,3.25-1.71,6.56-2.49,9.86-.37,1.57-.07,2,1.45,2.51.63.21,1.28.36,1.93.52,3.75.89,7.56,1.48,11.37,2.11a166.57,166.57,0,0,0,23.25,2.19c7.72.17,15.46.18,23.18.05,6.66-.11,13.3-.68,19.92-1.45a77.23,77.23,0,0,0,14.45-2.89,13.45,13.45,0,0,0,1.86-.71c1-.48,1.19-.89,1-1.91-.14-.86-.36-1.7-.54-2.54a125.78,125.78,0,0,0-8-23.59,61.82,61.82,0,0,0-6.85-12.38,2,2,0,0,1-.19-.7l1.81-.57a51.59,51.59,0,0,0,16.12-8.6,35.69,35.69,0,0,0,10-12c3.65-7.31,4.6-15.08,3.85-23.13-.14-1.52-.39-3-.58-4.48a32.22,32.22,0,0,0,4.8-10.56,49.76,49.76,0,0,0,1.62-11.84A54,54,0,0,0,156.05,51ZM148,41a.77.77,0,0,0-.25-.54A.77.77,0,0,1,148,41Zm-36.09-2.44A39.39,39.39,0,0,1,126,34a28.49,28.49,0,0,1,15.92,2.57,27.48,27.48,0,0,1,5.42,3.7c-.05.66-.56.36-.89.43a20.19,20.19,0,0,0-8.58-1.47A30.91,30.91,0,0,0,123.74,43c-.93.5-1.81,1.11-2.8,1.72-1.59-.9-3.24-1.89-4.94-2.78s-3.43-1.7-5.27-2.6C111.2,39,111.52,38.78,111.87,38.59ZM35.35,35.48a30.1,30.1,0,0,1,17.7-.68,42.66,42.66,0,0,1,9.83,3.83c.28.15.55.34,1,.61-1.85.91-3.57,1.71-5.26,2.59s-3.24,1.82-4.87,2.74c-8.32-5.14-17.1-7.06-26.66-3.71A19.31,19.31,0,0,1,35.35,35.48Zm-12,51.77c-.16-.09-.3-.12-.34-.19a50,50,0,0,1-4.36-20.93,50.51,50.51,0,0,1,2.3-14.93,31.88,31.88,0,0,1,2.95-6.52,4.52,4.52,0,0,1,2.17-2,26.07,26.07,0,0,1,14.06-1.88,37.58,37.58,0,0,1,12.45,4.38c-1.34,1.28-2.9,2.16-4.24,3.32s-2.64,2.22-4,3.4l-1.4-.64a14.08,14.08,0,0,0-8-1.31,12.57,12.57,0,0,0-8.86,5.54A19.77,19.77,0,0,0,23,63.67a28.67,28.67,0,0,0,.53,11.48,1.29,1.29,0,0,0,.18.35.19.19,0,0,0,.06.31.31.31,0,0,0,0-.16.31.31,0,0,1,0,.16l.18.83.18.46c.18.63.37,1.26.56,1.89h0l.69,1.61.42-.77a4.85,4.85,0,0,1-.39-.61c-.15-.34-.27-.7-.41-1l-.12-.75-.19-.62c-.24-1.78-.53-3.56-.71-5.34a25.67,25.67,0,0,1,1.41-11.59A14.35,14.35,0,0,1,28.7,54.5a11,11,0,0,1,8.71-3.23,17.07,17.07,0,0,1,5.9,1.47,5.85,5.85,0,0,1-.56.78A75.69,75.69,0,0,0,26,79.29a5.36,5.36,0,0,1-.26.54l-.42.77c-.56,2-1.11,4-1.68,5.93A7.28,7.28,0,0,1,23.33,87.25Zm27.78,43.89c-.19,1.3-.2,2.64-.3,4.07a8.5,8.5,0,0,1-1.07-.29,49.73,49.73,0,0,1-13.49-8,5.72,5.72,0,0,1-1.62-2.21,15.14,15.14,0,0,1-1.36-7.19A13.85,13.85,0,0,1,41,105.9s.12,0,.24,0c2.15,5,5.89,7.94,11.4,7.82,5.86-.13,9.54-3.49,11.38-9l2.36.68h0c1,.42,2,.86,3,1.27a.55.55,0,0,1,.35.75A27.14,27.14,0,0,0,59,114.85,30.82,30.82,0,0,0,51.11,131.14Zm1.72-39.88a10.56,10.56,0,0,1,10,8.88,3.58,3.58,0,0,0,.19.55,5.58,5.58,0,0,1,.26,1.11,6.72,6.72,0,0,1-.73,3.6c-.22.48-.4,1-.66,1.45-2.3,4.12-5.82,6.16-10.53,5.74a10,10,0,0,1-9.08-7A10.69,10.69,0,0,1,52.83,91.26Zm.58,45c-.49-.17-1-.39-1.43-.57a33.3,33.3,0,0,1,6.64-18.39,28,28,0,0,1,11.65-9.11,38.35,38.35,0,0,1,5.4-1.87c.13.16.25.26.27.37a7,7,0,0,1,.07.72,2.08,2.08,0,0,1-.3.36c-5,3.81-8,9-10,14.85a45,45,0,0,0-2.22,13.13c0,.86,0,1.72,0,2.67-.07,0-.26.15-.41.13A68.36,68.36,0,0,1,53.41,136.21Zm17.4-29.27a.51.51,0,0,0,.45,0A.51.51,0,0,1,70.81,106.94ZM83.9,113l1.83.34a7.2,7.2,0,0,1-.7,3.7,2.26,2.26,0,0,1-2.3,1.59A2.43,2.43,0,0,1,80.47,117c-.14-.37-.23-.76-.35-1.14a.69.69,0,0,0-1.36.11,4,4,0,0,0,1.81,3.77,3.94,3.94,0,0,0,5.1-.58,15.81,15.81,0,0,0,1-1.26,17.87,17.87,0,0,0,1.22,1.35,4,4,0,0,0,4.64.53,4.16,4.16,0,0,0,2.06-4.23c-.06-.37-.3-.63-.68-.56a.9.9,0,0,0-.56.45,9,9,0,0,0-.3,1.16,2.5,2.5,0,0,1-2.31,1.9,2.56,2.56,0,0,1-2.5-1.67,6.59,6.59,0,0,1-.42-1.12c-.17-.7-.29-1.41-.45-2.2.51-.17.95-.29,1.37-.44a39.62,39.62,0,0,0,3.73-1.39c2-1,2.79-1.74,4.56-4.17l.91.7a32.55,32.55,0,0,1,10.5,17.07,48.55,48.55,0,0,1,1.48,10.66c0,.85,0,1.71,0,2.57-1.21.5-5.09,1.15-11.17,1.62-3.79.3-7.59.36-11.38.44a77.34,77.34,0,0,1-11.18-.37c-3.75-.46-7.53-.77-11.25-1.42,0-1.65-.08-3.18,0-4.69a39.87,39.87,0,0,1,4.81-17.36,28.66,28.66,0,0,1,6.63-8.08,4.64,4.64,0,0,1,.67.59A11.27,11.27,0,0,0,83.9,113Zm-5.61-8.37a8,8,0,0,1,3.83-1.56c1.51-.25,3-.34,4.56-.5a22,22,0,0,1,5.71.86,8.21,8.21,0,0,1,2.3,1.13,1.92,1.92,0,0,1,.66,2.64A5.73,5.73,0,0,1,94,109.13a11.29,11.29,0,0,1-14.48.56,8.93,8.93,0,0,1-1.74-1.89A2.12,2.12,0,0,1,78.29,104.64Zm7.36,78.84c-2,.31-12.22,0-17-.35-5.58-.42-11.13-1-16.78-1.95.26-2.74,1.23-5.27,1.84-7.89h0c.43-1.17.88-2.35,1.29-3.53,0-.11-.1-.28-.26-.71-.55,1.21-1,2.16-1.4,3.11a36.17,36.17,0,0,0-2.92,8.77,84.53,84.53,0,0,1-11-2.24,76.28,76.28,0,0,1,2.52-9.87c3.87-12.59,7.81-21.14,13.06-29.78A164.18,164.18,0,0,0,86,143Q85.82,163.31,85.65,183.48Zm48.41-4.9c-1.9,1.13-8.14,2.66-11.6,2.82A40.59,40.59,0,0,0,118.82,171a.61.61,0,0,0-.27.36.61.61,0,0,1,.27-.36c-.2-.53-.25-1.19-1.12-1.42.16.65.26,1.15.41,1.63a6.76,6.76,0,0,0,.39.88c.83,3,1.67,6,2.5,9a4.68,4.68,0,0,1,.09.54c-4.78,1.22-30,2.61-34.11,1.88l-.1-.72s-.12-39.68-.12-39.82c5.36-.31,10.73-.4,16.08-1.1a148.83,148.83,0,0,0,15.67-2.6C123.34,144.92,133,169.35,134.06,178.58Zm-22.8-40.19v-1.17a43.14,43.14,0,0,0-4.65-20.41,25.16,25.16,0,0,0-8.76-9.91c-.39-.25-.81-.48-.91-1,.7-.36,1.31.18,2,.2l.44.1,1.13.37c.61.24,1.23.5,1.85.72,10.1,3.55,16.2,10.83,19.21,20.86a66.18,66.18,0,0,1,1.39,7.17C121,136.5,115.08,138,111.26,138.39Zm-8.89-31.8h0Zm37.53,18.56a3.45,3.45,0,0,1-.91,1,48.24,48.24,0,0,1-14,8.64,2.28,2.28,0,0,1-.57.15,1.18,1.18,0,0,1-.43-.1c-.07-1-.11-2.07-.22-3.11a31.25,31.25,0,0,0-17.49-23.94,1.38,1.38,0,0,0-.2,0c-.33-.25-.65-.51-1.15-.91l4.61-1.91,1-.19c.53.34.55,1,.78,1.5a11.81,11.81,0,0,0,21.32,1.29c.32-.57.59-1.16.92-1.8a6.59,6.59,0,0,1,2.1,1.22,14.15,14.15,0,0,1,5.87,10A14.84,14.84,0,0,1,139.9,125.15Zm-17.23-12.48a10.64,10.64,0,0,1-11-9.42,10.85,10.85,0,0,1,2.76-8.62,10.43,10.43,0,0,1,7.62-3.37,10.59,10.59,0,0,1,10.85,10.62C133.22,107.45,128.42,112.49,122.67,112.67ZM150,105.23a34.11,34.11,0,0,1-6,15.47c-.35.49-.75.94-1.14,1.4-.07.08-.22.09-.36.14-.43-.19-.22-.53-.17-.82a16.19,16.19,0,0,0-.12-6.54,15.43,15.43,0,0,0-6.21-9c-.65-.47-1.33-.88-2.09-1.38,0-.55.09-1.14.12-1.72a11.77,11.77,0,0,0-23.17-3.64,37.14,37.14,0,0,0-.53,4.64l-1.86.85a.57.57,0,0,0,.46.32.57.57,0,0,1-.46-.32c-1.19.51-2.42.95-3.56,1.56a2.93,2.93,0,0,1-2,.39h0a1.32,1.32,0,0,0-1.19-.38h0A16.88,16.88,0,0,0,96.89,105l0,.54,0-.54a6,6,0,0,0-3.71-2.78,17,17,0,0,0-2.7-.62,26.08,26.08,0,0,0-9.84.5,6.77,6.77,0,0,0-4.54,3.1l-4.42,1.4-1.18.08-.37-.18a1.77,1.77,0,0,1,0,.52,1.8,1.8,0,0,0,0-.53A5.9,5.9,0,0,0,67.29,105h0l-3.17-1.37a11.88,11.88,0,0,0-3.86-10.44,11.47,11.47,0,0,0-8.82-3c-5.76.42-11.93,5.61-10.63,14.27-.5.33-1.05.68-1.59,1.05a15.53,15.53,0,0,0-6.92,10.54,13.9,13.9,0,0,0,.05,4.77,5.31,5.31,0,0,1,.22,2.33c-.53-.57-.95-1-1.3-1.43a32.46,32.46,0,0,1-6.34-13.85,44.51,44.51,0,0,1,1.2-22.3A71.47,71.47,0,0,1,52.68,47.91,59.29,59.29,0,0,1,78.42,37.19,54.24,54.24,0,0,1,94,36.93a60.2,60.2,0,0,1,33.8,15.81,72,72,0,0,1,20.85,33.7A44.86,44.86,0,0,1,150,105.23Zm0-28.3c-.31,1-.62,2-.94,3l-.57-.23c-.21-.63-.37-1.27-.63-1.87a75.07,75.07,0,0,0-15.94-24.11c-.23-.23-.43-.48-.72-.8a3.42,3.42,0,0,1,1.6-.74c.58-.16,1.14-.36,1.72-.51a12.93,12.93,0,0,1,6.12-.17,11,11,0,0,1,6.26,4,16.53,16.53,0,0,1,3,6.21,27.29,27.29,0,0,1,.68,10.87c-.19,1.44-.41,2.88-.62,4.33Zm4.41,2.35a56.91,56.91,0,0,1-2.95,8.29A26.07,26.07,0,0,1,149.22,81a8.82,8.82,0,0,0,1.2-3.14L150,77l.39.83a27.85,27.85,0,0,0,.43-17.63,19.29,19.29,0,0,0-1.51-3.46A12.75,12.75,0,0,0,134,50.49c-1.27.37-2.47,1-3.83,1.49-.82-.71-1.7-1.5-2.62-2.26s-1.75-1.43-2.64-2.12-1.9-1.43-3-2.25a19.71,19.71,0,0,1,2.53-1.3,33.44,33.44,0,0,1,10.22-3.21,25.85,25.85,0,0,1,14,1.94,4.32,4.32,0,0,1,2,1.83,32.63,32.63,0,0,1,3.93,10A51.72,51.72,0,0,1,154.42,79.28Z"/><path class="cls-68" d="M130.11,75.45a16.77,16.77,0,0,0-8.05-3.17,9.08,9.08,0,0,0-4.7.51,3.4,3.4,0,0,0-1.85,5,8.29,8.29,0,0,0,2.64,2.94A16.44,16.44,0,0,0,127.62,84a9.36,9.36,0,0,0,3.29-.56,3.41,3.41,0,0,0,1.85-5.06A8.34,8.34,0,0,0,130.11,75.45Zm.6,6.81a7.8,7.8,0,0,1-3.21.65,15.64,15.64,0,0,1-9.39-3.62,6,6,0,0,1-1.78-2.37,2,2,0,0,1,.88-2.76,4.77,4.77,0,0,1,1.84-.68,14.19,14.19,0,0,1,11.53,3.85,6.38,6.38,0,0,1,1.27,1.77A2.19,2.19,0,0,1,130.71,82.26Z"/><path class="cls-68" d="M58,73.14a6.75,6.75,0,0,0-3-.9,13.5,13.5,0,0,0-4.15.36,16.17,16.17,0,0,0-7,3.5,6.67,6.67,0,0,0-2.22,3.24,3,3,0,0,0,.93,3.24,3.91,3.91,0,0,0,1.52.89c1.08.3,2.2.44,3.3.65l0-.14c.53,0,1.07,0,1.59-.13a16,16,0,0,0,8.28-3.6,7.1,7.1,0,0,0,2.23-3A3.22,3.22,0,0,0,58,73.14Zm.24,4a7.21,7.21,0,0,1-1.55,2,14.57,14.57,0,0,1-9.85,3.71,7.29,7.29,0,0,1-2.71-.55c-1.59-.64-2-1.88-1.21-3.4A7,7,0,0,1,45,76.51a15.29,15.29,0,0,1,9-3.16,6.88,6.88,0,0,1,3.11.59A2.19,2.19,0,0,1,58.24,77.11Z"/><path class="cls-68" d="M75,41.49a7,7,0,0,0-3.67,1.28A6.26,6.26,0,0,0,69,45.52c1.61-.4,3.15-1.3,5.52-3.25A3.44,3.44,0,0,0,75,41.49Z"/><path class="cls-68" d="M69.78,49.41s.13.13.15.11a21,21,0,0,0,2.57-1.36c1-.72,1.94-1.57,2.89-2.38.06-.05,0-.22,0-.33Q72,45.75,69.78,49.41Z"/><path class="cls-68" d="M60.65,52.93a13.73,13.73,0,0,0,5.05-4.06s-.06-.22-.12-.41C63.07,49,61.87,51,60.65,52.93Z"/><path class="cls-68" d="M48.37,57c0-.07-.07-.22-.11-.34-2.09.79-3.57,2.87-4,5.68a7.08,7.08,0,0,0,.82-.66A22.3,22.3,0,0,0,48.37,57Z"/><path class="cls-68" d="M143.62,103.48c1.36-2.72,1.22-4.46-.28-6.08A10.06,10.06,0,0,0,143.62,103.48Z"/><path class="cls-68" d="M63.78,44.74a6.53,6.53,0,0,0-5.06,4.32A15.85,15.85,0,0,0,63.78,44.74Z"/><path class="cls-68" d="M52.36,58a11,11,0,0,0,3.94-4.67,5.85,5.85,0,0,0-3.9,3.4C52.23,57.09,51.78,57.46,52.36,58Z"/><path class="cls-68" d="M50.24,61.45c-2.22,1.09-2.91,3.16-3.64,5.22C48.62,65.07,50.13,62.85,50.24,61.45Z"/><path class="cls-68" d="M39.66,69.17a8.65,8.65,0,0,0-1.56,4,12.93,12.93,0,0,0,3.55-5.46A3.26,3.26,0,0,0,39.66,69.17Z"/><path class="cls-68" d="M145,108.58c.19,0,.39.08.42,0a21.57,21.57,0,0,0,1.69-2.89,2.3,2.3,0,0,0-.33-2.42A10.51,10.51,0,0,0,145,108.58Z"/><path class="cls-68" d="M146.66,94.83a11.35,11.35,0,0,0,.84,5.36c.68-1,.43-1.94.5-2.83a3,3,0,0,0-.62-2C147.26,95.14,147,95.06,146.66,94.83Z"/><path class="cls-68" d="M113.42,176.09a10.14,10.14,0,0,0-1.32-5A7.32,7.32,0,0,0,113.42,176.09Z"/><path class="cls-68" d="M115.36,173a7.07,7.07,0,0,0,.94,4.83,6.55,6.55,0,0,0-.22-4.15C116,173.52,115.74,173.4,115.36,173Z"/><path class="cls-68" d="M110.21,177a4.67,4.67,0,0,0,.82,3.82C111.4,178.23,111.33,177.93,110.21,177Z"/><path class="cls-68" d="M80.1,151.85a2.65,2.65,0,0,0,2.53-2.77,2.91,2.91,0,0,0-2.82-2.8,2.79,2.79,0,0,0-2.76,2.82A2.85,2.85,0,0,0,80.1,151.85Zm-.28-4.18a1.48,1.48,0,0,1,1.48,1.53,1.4,1.4,0,0,1-1.41,1.35A1.51,1.51,0,0,1,78.42,149,1.32,1.32,0,0,1,79.82,147.67Z"/><path class="cls-68" d="M79.57,163.7A2.87,2.87,0,0,0,82.45,161a2.93,2.93,0,0,0-2.87-2.77,2.77,2.77,0,0,0-2.74,2.62A2.87,2.87,0,0,0,79.57,163.7Zm-.1-4A1.3,1.3,0,0,1,81,160.92a1.19,1.19,0,0,1-1.22,1.29A1.38,1.38,0,0,1,78.22,161,1.32,1.32,0,0,1,79.47,159.67Z"/><path class="cls-68" d="M79.64,177.1a2.78,2.78,0,0,0,2.8-2.77,2.89,2.89,0,0,0-3-2.65,2.7,2.7,0,0,0-2.78,2.76A2.84,2.84,0,0,0,79.64,177.1ZM79.55,173A1.47,1.47,0,0,1,81,174.51a1.36,1.36,0,0,1-1.49,1.25,1.39,1.39,0,1,1,0-2.77Z"/><path class="cls-68" d="M131.39,99.71a4.08,4.08,0,0,1-1.69-2.08,9.36,9.36,0,0,0-10.57-4.92,9.45,9.45,0,0,0-7.24,8.94,12.55,12.55,0,0,0,.23,2.38,9.43,9.43,0,0,0,8.54,7.25,9.3,9.3,0,0,0,9.21-5.44,4.65,4.65,0,0,1,1.72-2.33A2.18,2.18,0,0,0,131.39,99.71Zm-5.09,8.88a8.27,8.27,0,0,1-5.63,1.62,8.34,8.34,0,0,1-1.16-16.47,8.17,8.17,0,0,1,9.54,5.16c-.59.19-1,.31-1.47.48a4.57,4.57,0,0,0-1,.57,2.34,2.34,0,0,0,.55,4.17,14.91,14.91,0,0,0,1.91.52A6.33,6.33,0,0,1,126.3,108.59Zm3.49-5.27a3.16,3.16,0,0,1-2.67-.4,1.16,1.16,0,0,1-.2-1.87,3.26,3.26,0,0,1,2.77-.89c.91,0,1.83.7,1.85,1.47S130.73,103.11,129.79,103.32Z"/><path class="cls-68" d="M53.93,111.27c4-.38,6.86-2.32,8.2-6.23.11-.72.26-1.43.33-2.16s.07-1.59.11-2.39a3.6,3.6,0,0,0-.46-2.11c-1.62-3.56-4.33-5.68-8.31-5.85a9,9,0,0,0-8.9,5.24c-.22.41-.39.84-.6,1.31a10.72,10.72,0,0,0-1.16.69A2.22,2.22,0,0,0,43,103.5a2.12,2.12,0,0,0,.48.35,1.88,1.88,0,0,1,1,1.37,4.93,4.93,0,0,0,.4.91A9.22,9.22,0,0,0,53.93,111.27Zm.33-17.71a8.37,8.37,0,0,1,.3,16.6,8.06,8.06,0,0,1-8.93-5.48c.44-.12.88-.22,1.31-.36a5.24,5.24,0,0,0,1.09-.46,2.21,2.21,0,0,0,.34-3.7,5.59,5.59,0,0,0-1.36-.8,11.69,11.69,0,0,0-1.3-.44A8,8,0,0,1,54.26,93.56Zm-10.65,9a1.22,1.22,0,0,1,.06-1.9,3.3,3.3,0,0,1,4.16.42,1.15,1.15,0,0,1-.21,1.74,7.85,7.85,0,0,1-1.38.55A3.23,3.23,0,0,1,43.61,102.59Z"/></g></g></svg>