<svg xmlns="http://www.w3.org/2000/svg" viewBox="0 0 175.83 183.35"><defs><style>.cls-1{fill:#d7e9e6;}.cls-2{fill:#fff;}.cls-3{fill:#6c365b;}.cls-4{fill:#ed1242;}.cls-5{fill:#8eacfb;}.cls-6{fill:#fcf5e3;}.cls-7{fill:#de1440;}.cls-8{fill:#5f3252;}.cls-9{fill:#7e99f0;}.cls-10{fill:#f2d583;}.cls-11{fill:#f3d2b8;}.cls-12{fill:#856364;}.cls-13{fill:#b59a85;}.cls-14{fill:#e2a469;}.cls-15{fill:#e1657f;}.cls-16{fill:#df7478;}.cls-17{fill:#c7a77d;}.cls-18{fill:#e0bd93;}.cls-19{fill:#f49b1d;}.cls-20{fill:#5d8589;}.cls-21{fill:#507175;}.cls-22{fill:#f1800f;}.cls-23{fill:#d0d06e;}.cls-24{fill:#c9f3e0;}.cls-25{fill:#87b4b6;}.cls-26{fill:#809af1;}.cls-27{fill:#f9d46d;}.cls-28{fill:#ebbd92;}.cls-29{fill:#e7be7c;}.cls-30{fill:#88474a;}.cls-31{fill:#87444d;}.cls-32{fill:#7b4727;}</style></defs><g id="Calque_2" data-name="Calque 2"><g id="OBJECTS"><rect class="cls-1" width="175.83" height="181.36" rx="68.69"/><path class="cls-2" d="M143,115.36a22.42,22.42,0,0,0-1.08,3c-.32.68-.6,1.34-1.53,1.31a1.33,1.33,0,0,0-1,.58,38.48,38.48,0,0,1-10.19,7.59,72.82,72.82,0,0,1-20.17,7.28,17.62,17.62,0,0,1-1.78.2A83.58,83.58,0,0,1,61.86,129c-11.47-5-18.1-14-19.88-26.48-1-6.87.31-13.36,2.8-19.7a6.28,6.28,0,0,1,2.46-3.54c1.35-.68,2.87-.37,4.3-.67a18,18,0,0,0,6.66-3A4.9,4.9,0,0,0,60,73.31a1.86,1.86,0,0,0-1.35-2.75A25.41,25.41,0,0,0,55.54,70c-1.48-.85-1.68-1.44-.7-2.73A19.79,19.79,0,0,1,58.15,64a11.22,11.22,0,0,1,3.37-.31c1.46.51,3,.37,4.5.69,6.13,1.3,10.44,5,13.45,10.32,3.24,5.74,4.39,12,5,18.49a7.2,7.2,0,0,1-.21,2.77,3,3,0,0,1-.17.63,1.8,1.8,0,0,1-.61.7,18.28,18.28,0,0,0-4.09,2,2.35,2.35,0,0,0-1,3.1c1.91,4.68,10.2,8.24,14.85,6.37,2.38-1.43,4.84-2.72,6.39-5.2,1.72-2.76,1.53-3.55-1.27-5.13-1.31-.74-2.91-1-3.93-2.24a1.77,1.77,0,0,1-.19-.59c0-5.54.49-11,2.62-16.19a39.94,39.94,0,0,1,2.8-5.73c3.91-6.38,9.78-9.44,17-9.86,11-.64,18.78,4.77,24.18,13.91A41.76,41.76,0,0,1,146.43,98c.14,4.66.09,9.32-1.37,13.82C144.64,113.11,144.32,114.52,143,115.36Z"/><path class="cls-3" d="M143,115.36a42.44,42.44,0,0,0,2.49-19.61A47.91,47.91,0,0,0,142,81.5a36.5,36.5,0,0,0-5-8.09,23.26,23.26,0,0,0-12.85-8.2,22.14,22.14,0,0,0-16.61,2,17.83,17.83,0,0,0-7.06,6.88,34.63,34.63,0,0,0-4.83,14c-.27,2.58-.53,5.15-.8,7.73-2.34.94-4.78.23-7.16.46-.91,0-1.8.3-2.72.29A1.3,1.3,0,0,1,83.72,96a56.54,56.54,0,0,0-2.08-13.92,31.79,31.79,0,0,0-2.89-7,22.15,22.15,0,0,0-5.62-6.64,17.47,17.47,0,0,0-8.69-3.61l-2.76-.35c-.19-1.17.79-1.39,1.5-1.77a51.06,51.06,0,0,0,13.73-10.1c3.63-3.9,6.4-8.28,7.37-13.65.27-1.49-.19-3.07.56-4.5a18,18,0,0,1,6-.23c16,1,29.46,7.57,40.93,18.5A61.25,61.25,0,0,1,145.78,73a55.28,55.28,0,0,1,4.49,19.33,37.84,37.84,0,0,1-3.24,17.1,29.61,29.61,0,0,1-2.77,5.51,2.52,2.52,0,0,1-.72.66C143.45,115.61,143.21,115.43,143,115.36Z"/><path class="cls-4" d="M134.39,178.21a41.2,41.2,0,0,1-8.37,1.72,2.59,2.59,0,0,1-.85-1.93,24.64,24.64,0,0,0-4.53-11.58,55.32,55.32,0,0,1,3.79,13.67c-1.62,1.29-3.59,1.3-5.49,1.48-5.76.54-11.53.87-17.31.94-2.73,0-5.45.15-8.17.23-4.13.12-8.24-.18-12.36-.42-3.51-.2-7-.64-10.51-1-2.91-.29-5.81-.58-8.72-.92a87.77,87.77,0,0,1-12.16-2.08,1.85,1.85,0,0,1-.38-1.51c.83-4.73,1.93-9.44,4.32-13.61,3.58-6.24,5.75-6.18,12-5.4a150.87,150.87,0,0,0,27,1.3A83.4,83.4,0,0,0,118.12,154a36.78,36.78,0,0,0,8.58-4.61,3.51,3.51,0,0,1,1.72-1,9.58,9.58,0,0,1,.74,1.17c1.23,2.65,2.44,5.3,3.65,8a4.7,4.7,0,0,1,.53,1.9,3.68,3.68,0,0,1-.35,2.14,15.14,15.14,0,0,0,.93,14.69A2.64,2.64,0,0,1,134.39,178.21Z"/><path class="cls-5" d="M66.86,135.6l3.53.49c3-.43,5.78.75,8.7.66,4,.63,8,.15,11.91.31.91,0,1.9-.21,2.57.69a2.71,2.71,0,0,0,2.12.22,113,113,0,0,0,15-2.24,87.57,87.57,0,0,0,9-2.68,21.24,21.24,0,0,1,3.82-1.14,2.51,2.51,0,0,1,3,3.38c-.19.63-.54,1.21-.79,1.82a.84.84,0,0,0,.32,1.06c.27.19.56.34.85.51s.82.45,1.2.72a3,3,0,0,1,.65,4.52,14.3,14.3,0,0,1-1.39,1.42l-.7.71a1.42,1.42,0,0,1-.15.56,2.48,2.48,0,0,1-.61.68c-3.61,1.77-7.31,3.29-11.4,3.56-3.92-.48-7.81.23-11.72.31-10.25.23-20.48.49-30.51-2.25a29.23,29.23,0,0,1-6.62-2.73,5.39,5.39,0,0,1-1.43-1.08c-.71-.77-1.27-1.63-.69-2.68s1.6-1,2.63-.78a76.3,76.3,0,0,0,18.64,2,81.4,81.4,0,0,1-16.37-1.49c-1.22-.24-2.59-.44-2.76-1.85C65.43,138.66,65.11,136.81,66.86,135.6Z"/><path class="cls-6" d="M47.65,79.61a10.19,10.19,0,0,0-2.3,4.15,38.85,38.85,0,0,0-2.21,7.66,34.31,34.31,0,0,0-.63,8.51,36.74,36.74,0,0,0,2.32,10.48,36.29,36.29,0,0,0,5.2,8.68c3.42,4.38,7.9,7.22,12.87,9.46a70,70,0,0,0,12.52,4,97.73,97.73,0,0,0,10.37,2,71.77,71.77,0,0,0,9.72.73c3.92,0,7.85,0,11.78,0a3.91,3.91,0,0,1-1.89.51,83.12,83.12,0,0,1-11.76,1.5,82,82,0,0,1-11.73-.05c-2.07.13-4.06-.51-6.1-.63a9.85,9.85,0,0,0-1.31-.19c-.84-.18-1.68-.32-2.53-.46-1.2-.76-2.64-.69-3.94-1.14-1.92-.51-3.85-1-5.77-1.54a50.48,50.48,0,0,1-11.42-4.66,56.3,56.3,0,0,1-9-5.93c-1.11-1-2.16-2-3.23-3-.43-.4-.86-.82-1.29-1.24a2.18,2.18,0,0,1-.48-.43l0,0a4.37,4.37,0,0,1-.42-.44l0,0c-.41-.51-.75-1.07-1.16-1.58s-.72-1.19-1-1.81a37.47,37.47,0,0,1-2.17-16.67A55.74,55.74,0,0,1,35.4,82.25c3.47-9.43,10.18-15.2,19.68-17.94,1-.28,2.07-.8,3,.28a15.09,15.09,0,0,1-2.36,2.93,5.6,5.6,0,0,0-.74.93c-.26.38-.13.62.41.82a2.79,2.79,0,0,0,.39.1c-.17,1.09-1.09,1-1.83,1.17a12.67,12.67,0,0,0-6.52,3.25c-2,2-2,2.94-.07,4.94A.91.91,0,0,1,47.65,79.61Z"/><path class="cls-7" d="M126.63,146l0,0c.43.11.85.21,1,.69s.5,1.15.76,1.72a2.74,2.74,0,0,1-1.41,1.85,40.08,40.08,0,0,1-9.54,4.91,67.14,67.14,0,0,1-11,3c-2.35.41-4.71.77-7.07,1.12-1.9.29-3.85.13-5.73.65a6.58,6.58,0,0,1-1.78.07H80.56a14.49,14.49,0,0,1-4.35-.33,2.65,2.65,0,0,0-.8-.06,70.74,70.74,0,0,1-7.11-.72A48.51,48.51,0,0,0,61,158.4a5.77,5.77,0,0,0-3.78,1.53,14.23,14.23,0,0,0-3.49,5,53,53,0,0,0-3.33,11,21.33,21.33,0,0,1-.65,2.3l-4.38-.93a3.53,3.53,0,0,1,.79-2.59,15.44,15.44,0,0,0,1.18-14.1,17.93,17.93,0,0,0-.64-2.28,20.75,20.75,0,0,1,1.45-3.67c1.16-2.52,2.37-5,3.58-7.52a3.64,3.64,0,0,1,1.25-1.74,2,2,0,0,1,2.08.24c6,3,12.5,4,19,5a92.19,92.19,0,0,0,16.69.83,224.86,224.86,0,0,0,24.2-1.48,21.31,21.31,0,0,0,4.8-1.17A40.87,40.87,0,0,0,126,146.4,3.44,3.44,0,0,1,126.63,146Z"/><path class="cls-8" d="M58,64.59a11.56,11.56,0,0,0-3.67.81,31.15,31.15,0,0,0-8.53,4.22,24.88,24.88,0,0,0-8.52,10.32,48.54,48.54,0,0,0-4.08,15.73c-.11,1.33-.24,2.65-.3,4a43.27,43.27,0,0,0,1.75,13.57c.1.38.17.78.25,1.17s.26.93-.5.91A27.09,27.09,0,0,1,29,104.12a42.23,42.23,0,0,1-1-11.49A53.25,53.25,0,0,1,33,72.26a82.54,82.54,0,0,1,5-9.33c.27-.45.56-.9.79-1.38s0-.82.47-1a2,2,0,0,1,1.17,0l.4.07c.75.26,1.31-.43,2-.43,7,.45,13.13-2.42,19-5.73a78.43,78.43,0,0,0,12.66-8.68c3.5-3,6.43-6.35,7.25-11.09a2.2,2.2,0,0,1,.25-.17.86.86,0,0,1,1.26.09.91.91,0,0,0,1.16,0l.4,0a7.52,7.52,0,0,1,.3,4.3A23.1,23.1,0,0,1,81.58,48a33.44,33.44,0,0,1-6.7,7.81,50.59,50.59,0,0,1-9.76,6.8,15.46,15.46,0,0,0-3.44,1.91,2.39,2.39,0,0,1-1.54,0A3.25,3.25,0,0,0,58,64.59Z"/><path class="cls-6" d="M44.25,37.3c-.84.16-1.69.34-2.54.48a5.83,5.83,0,0,1-6.84-5.3,7,7,0,0,1,0-.79,3.19,3.19,0,0,0-.81-2.2c-1.7-2-1.52-4.18-.6-6.37a6.84,6.84,0,0,1,3.95-4,3.6,3.6,0,0,1,2.71-.32,1.35,1.35,0,0,0,1.6-.45,8.67,8.67,0,0,1,3.77-2.17A8.34,8.34,0,0,1,52,16.7a4.87,4.87,0,0,1,2.49,6.55c-.28.71-.44,1.26.33,1.7a1.08,1.08,0,0,1,.84.43c2.67,3.24.78,9.22-5.31,10.57-1.72.38-3.55.25-5,1.48A.84.84,0,0,1,44.25,37.3Z"/><path class="cls-5" d="M82,34.46a.16.16,0,0,1-.06.19,7.28,7.28,0,0,1-2.43,5.27C72.83,46.44,65.34,51.73,56,53.85a15.79,15.79,0,0,1-7.11.19,6.38,6.38,0,0,1-5.08-5.39,1.1,1.1,0,0,1,.33-.49c3-1.51,6.34-2.28,9.39-3.81A57.78,57.78,0,0,0,70,31.62a4.92,4.92,0,0,0,1.45-3.36c-.15-1.09-.14-1.07.59-1.35a5.24,5.24,0,0,1,4.41.21,9.93,9.93,0,0,1,4.89,5.48C81.57,33.22,81.79,33.84,82,34.46Z"/><path class="cls-9" d="M114.9,150.1a23.71,23.71,0,0,1-5.65,1.08,173.75,173.75,0,0,1-26.49,1.28,84.43,84.43,0,0,1-9.53-.92,88.73,88.73,0,0,1-12.68-2.66,26.54,26.54,0,0,1-7.61-3.39c-.39-.45-.82-.87-1.16-1.35a2.92,2.92,0,0,1,.3-4.27c.42-.43.87-.83,1.3-1.23a1.42,1.42,0,0,0,.44-1.78c-.11-.24-.15-.51-.25-.76a2.57,2.57,0,0,1,.76-3,1.48,1.48,0,0,1,1.2-.56c.59,0,1.19,0,1.78,0a1.46,1.46,0,0,1,1.12.31A5,5,0,0,0,61,133.92c2,.58,3.94,1.12,5.91,1.68-.21,1.37-.41,2.75-.62,4.12-.11.77.1,1.13.8,1.36l.38.11a93.16,93.16,0,0,0,10.22,1.6,58.24,58.24,0,0,0,9.34.47,2.46,2.46,0,0,1,.4.09c0,.46-.39.44-.63.49A9.6,9.6,0,0,1,85,144c-2,0-4,0-6,0a19.49,19.49,0,0,1-4.37-.3c-1.22-.28-2.5-.17-3.75-.34-1.86-.26-3.66-.68-5.47-1.1-.89-.21-1.35-.09-1.56.39s.09,1,.48,1.4a7,7,0,0,0,1.37,1.14,27.13,27.13,0,0,0,4.7,2.19,63.71,63.71,0,0,0,10.68,2.31c2,.25,4.13.09,6.13.64a6,6,0,0,0,1.59.06h18.56a7.08,7.08,0,0,0,1.6-.06A22.4,22.4,0,0,1,114.9,150.1Z"/><path class="cls-4" d="M71.44,28.26a6.18,6.18,0,0,1,.61.52,1,1,0,0,1,.15,1.27,11.75,11.75,0,0,1-1,1.27,56.52,56.52,0,0,1-17,13.61,38.12,38.12,0,0,1-9.71,3.51,7.85,7.85,0,0,1,1-8.79,9.69,9.69,0,0,1,5.7-3.16c4.52-.9,7.18-7,4.8-10.49a1.26,1.26,0,0,0-.77-.59L54.85,25a.92.92,0,0,1,1.06-.35,5.83,5.83,0,0,0,2.15.26,29.48,29.48,0,0,1,11.55,2.63Z"/><path class="cls-9" d="M44,48.69A11.68,11.68,0,0,0,46.55,52a4.44,4.44,0,0,0,1.11.81,10,10,0,0,0,5.07.63c1.17-.22,2.36-.19,3.55-.46a40.28,40.28,0,0,0,11-4.6,66,66,0,0,0,7.06-4.87,36.45,36.45,0,0,0,6.79-6.69,2.1,2.1,0,0,0,.49-1.07A1.61,1.61,0,0,1,82,34.64a9.06,9.06,0,0,1-2.1,6.67,27.64,27.64,0,0,1-4.07,4.37,76.4,76.4,0,0,1-22,13.47,24,24,0,0,1-10.72,1.77c-.52-.42-1.3.11-1.76-.51-.22-.13-.45-.28-.68-.4a8.9,8.9,0,0,1-4.72-7.78,6.28,6.28,0,0,1,1.25-4.11,1.78,1.78,0,0,1,1.65-.9,3.5,3.5,0,0,0,3.48,1A1.44,1.44,0,0,1,44,48.69Z"/><path class="cls-7" d="M44,48.69c-1.18.18-2.35.4-3.53.52s-1.42-.11-1.56-1.41a5.41,5.41,0,0,0-.12-.58c.17-1.57.3-3.14.5-4.7A16.19,16.19,0,0,1,39.84,40a2.43,2.43,0,0,1,2.07-1.86,3.77,3.77,0,0,0,2.34-.87,4.44,4.44,0,0,0,1.8-1.22,2.43,2.43,0,0,1,2.15-.75,7.85,7.85,0,0,0,3.15-.41A7.28,7.28,0,0,0,55.93,30a5.68,5.68,0,0,0-.72-4.59c.35-.35.7-.37,1,0a5.69,5.69,0,0,1,1.37,4.82,10,10,0,0,1-2.66,5.24,7.2,7.2,0,0,1-5.39,2.15,1.9,1.9,0,0,0-1.94,1,6.87,6.87,0,0,1-2.08,2.11,2.07,2.07,0,0,0-1.05,2,24.43,24.43,0,0,0,.22,4.76,1.39,1.39,0,0,1-.2.95Z"/><path class="cls-9" d="M46.66,158.42a1.57,1.57,0,0,1,1.1,1.05c1.9,4.48,2.22,9,.18,13.5a12.71,12.71,0,0,1-2.61,4.42c-1.24-.08-2.42-.64-3.71-.38-.32.06-.58-.33-.6-.68a4,4,0,0,1,.12-1,76.43,76.43,0,0,1,3.58-12.16A38.88,38.88,0,0,1,46.66,158.42Z"/><path class="cls-5" d="M134.39,178.21a13.38,13.38,0,0,1-3.66-8.78,15.81,15.81,0,0,1,1.09-7.39,8.71,8.71,0,0,1,1.52-2.55,3.63,3.63,0,0,1,.65,1.21c1.58,4.2,2.79,8.52,4,12.83.2.7.41,1.39.62,2.09a1.14,1.14,0,0,1-.62,1.2h0c-.22.25-.61.16-.82.43A9.37,9.37,0,0,1,134.39,178.21Z"/><path class="cls-7" d="M124.43,180.09a1.73,1.73,0,0,1-1.17-1.49c-.11-.58-.27-1.16-.34-1.75a37.5,37.5,0,0,0-2.65-9.17c-.35-.94-.65-1.89-1-2.84a.42.42,0,0,1,.11-.35.36.36,0,0,1,.35,0,9.55,9.55,0,0,1,2.08,2.13,25.26,25.26,0,0,1,3.69,8.77,16.61,16.61,0,0,1,.47,4.55Z"/><path class="cls-10" d="M68,134.83a12.52,12.52,0,0,1,4,.72c.51.59,1.2.17,1.79.31a1.85,1.85,0,0,0,1.77.27c1.09.14,2.2.23,3.27.45a24.9,24.9,0,0,0,2.7.34c-.83,1-1.86.46-2.83.38a31.58,31.58,0,0,1-8.36-1.21c.21-.16.08.18.2-.05s.23-.25.12-.29C69.83,135.4,68.83,135.43,68,134.83Z"/><path class="cls-11" d="M78.75,137.3l1.55-.06a1.94,1.94,0,0,0,1.28-.32,1.8,1.8,0,0,1,.4,0c3.6.6,7.24.33,10.87.38l.79,0c0,.15,0,.3-.07.45-.93,0-1.85-.1-2.77-.11-3.31,0-6.61,0-9.92,0A4,4,0,0,1,78.75,137.3Z"/><path class="cls-12" d="M34.43,115.3a1.48,1.48,0,0,0,.5-.91,4.63,4.63,0,0,1,.77,1.67c.12.41-.06.52-.44.44A3.24,3.24,0,0,1,34.43,115.3Z"/><path class="cls-13" d="M35.26,116.5l.44-.44a2.49,2.49,0,0,1,.8,1.61A2.16,2.16,0,0,1,35.26,116.5Z"/><path class="cls-14" d="M41.32,60.41a4.12,4.12,0,0,1,1.75.51,2.94,2.94,0,0,1-2.26-.36Z"/><path class="cls-15" d="M138,176.82c.2-.4.41-.8.62-1.2C138.93,176.47,138.89,176.54,138,176.82Z"/><path class="cls-3" d="M84.44,34.54c-.38.4-.77.46-1.16,0Z"/><path class="cls-16" d="M137.2,177.24c.12-.43.48-.42.82-.43A1,1,0,0,1,137.2,177.24Z"/><path class="cls-17" d="M36.48,117.64c.27,0,.38.19.42.44Z"/><path class="cls-18" d="M36.88,118.05l.48.43Z"/><path class="cls-19" d="M94.91,96.1a16.31,16.31,0,0,1,4,1.58,15.1,15.1,0,0,1,1.65,1.08c1.36,1,1.44,1.39.84,3a9.73,9.73,0,0,1-1.56,2.75,14.45,14.45,0,0,1-6.27,4.64,10.7,10.7,0,0,1-9-2.94,6.47,6.47,0,0,1-2.35-4.68c-.09-1,1.22-1.9.16-2.95-.3-.84.2-1.35.77-1.81l.42-.34c.59-.28,1.3-.17,1.84-.57.7,0,1.39,0,2.08,0C90,96,92.47,95.61,94.91,96.1Z"/><path class="cls-20" d="M53.64,90a2.74,2.74,0,0,1,1.89-.38,8.92,8.92,0,0,1,8.67,6.24,8,8,0,0,1-.94,6.64c-3.43,2.16-7.14,1.89-9.6-.67a7.49,7.49,0,0,1-1.81-6.62A15.73,15.73,0,0,1,53.64,90Z"/><path class="cls-3" d="M47.65,79.61a12.94,12.94,0,0,1-1.58-.79,2.49,2.49,0,0,1-1-3.14,6.6,6.6,0,0,1,1.83-2.57A13.46,13.46,0,0,1,54,69.71a5.49,5.49,0,0,0,1.75-.34c1.05.1,2.11.15,3.15.3a2.75,2.75,0,0,1,2.2,3.68,6.68,6.68,0,0,1-2.14,2.81,16.38,16.38,0,0,1-6.56,3.15A14.47,14.47,0,0,1,47.65,79.61Z"/><path class="cls-3" d="M124.2,69.61a14,14,0,0,1,9.27,4.31,8,8,0,0,1,1.6,2.28,1.48,1.48,0,0,1-.58,2.07,7.59,7.59,0,0,1-4.92,1.3A16.14,16.14,0,0,1,121,76.71a7.25,7.25,0,0,1-2.11-2.09,2.86,2.86,0,0,1,1.31-4.45A8.57,8.57,0,0,1,124.2,69.61Z"/><path class="cls-21" d="M131.61,102.08c-1,2.65-3.08,3.94-5.62,4.57-4.62,1.16-9.23-1.06-10.57-6a8.15,8.15,0,0,1,.94-6.71,13.67,13.67,0,0,1,4.1-4,1.11,1.11,0,0,1,1.6.16c.58.75.28,1.51,0,2.27A24.51,24.51,0,0,0,121,96.18c-.5,3.19,2.61,5.85,6.07,5.2a21,21,0,0,1,3.7-.69C131.89,100.68,132,101.21,131.61,102.08Z"/><path class="cls-20" d="M131.61,102.08a2.44,2.44,0,0,0-.06-.39c-.23-.66-.48-.84-1-.64a19.58,19.58,0,0,1-3.36,1.24,6.08,6.08,0,0,1-7.1-4.56,4.85,4.85,0,0,1,.07-2,41.94,41.94,0,0,1,1.87-5.68,8.68,8.68,0,0,1,9.58,4.44c.09.18.18.36.25.54.17.41.05.66-.34.74s-.79.14-1.17.22a2.41,2.41,0,0,0-1.54,1.19,1.89,1.89,0,0,0,1.22,3.08,18.12,18.12,0,0,0,1.94.28A1.5,1.5,0,0,1,131.61,102.08Z"/><path class="cls-21" d="M53.64,90a.63.63,0,0,1,.4.94,29.29,29.29,0,0,0-1.33,4.17,6.27,6.27,0,0,0,2,6.66A5.26,5.26,0,0,0,59.37,103c.85-.15,1.69-.37,2.54-.52.44-.08.9-.32,1.35,0-1.21,2.9-3.55,4.16-6.54,4.35-3.61.23-7.95-1.73-9-5.77.22-.41.67-.37,1-.49a7.91,7.91,0,0,0,1.48-.55A2,2,0,0,0,50.71,97a3,3,0,0,0-1.65-1l-1.23-.24a9.43,9.43,0,0,1,4.46-5.44A3.82,3.82,0,0,1,53.64,90Z"/><path class="cls-22" d="M83.22,96.81A4.14,4.14,0,0,0,82.89,99c.51.79-1,1.53,0,2.34a11.12,11.12,0,0,0,1,2.6,9.09,9.09,0,0,0,4.68,3.81,10.23,10.23,0,0,0,2.67.77,6.91,6.91,0,0,1,2.47.69,8.47,8.47,0,0,1-6.56.54,17.67,17.67,0,0,1-8.62-5.8,6.86,6.86,0,0,1-.84-1.34,2.85,2.85,0,0,1,.9-3.88A9.34,9.34,0,0,1,83.22,96.81Z"/><path class="cls-23" d="M94.91,96.1,87.2,96c-.12-.11-.15-.19-.08-.25a.27.27,0,0,1,.17-.06,56.44,56.44,0,0,1,7.47.1A.29.29,0,0,1,94.91,96.1Z"/><path class="cls-24" d="M85.13,96.15a1.8,1.8,0,0,1-1.49.32c0-.16,0-.31.08-.47l1.12,0C85,95.88,85.12,95.92,85.13,96.15Z"/><path class="cls-25" d="M85.13,96.15a.37.37,0,0,1-.29-.13,3.65,3.65,0,0,1,2.45-.29L87.2,96Z"/><path class="cls-26" d="M112.38,142.16c.89-.2,1.59-.4,2.31-.5a22.89,22.89,0,0,0,4.83-1.12c.82-.29,1.64-.55,2.47-.8.25-.07.59-.16.74.09s-.12.6-.38.79a8,8,0,0,1-2.46,1.28,16.7,16.7,0,0,1-5.86.94A1.94,1.94,0,0,1,112.38,142.16Z"/><path class="cls-27" d="M126.63,146a.81.81,0,0,1-.68.37Z"/><path class="cls-28" d="M74.13,136.07c-.71-.08-1.52.19-2.08-.52.81.15,1.69-.08,2.42.49C74.37,136.22,74.26,136.23,74.13,136.07Z"/><path class="cls-29" d="M74.13,136.07a2,2,0,0,0,.34,0l1.14.09A1,1,0,0,1,74.13,136.07Z"/><path class="cls-30" d="M82.84,101.32l-.54.24c-.26.1-.52.11-.67-.16a.86.86,0,0,1-.09-.55,2.37,2.37,0,0,1,.71-1.14l.64-.73a3.16,3.16,0,0,1,.37-.12c.52-.09.7,0,.62.38A7.8,7.8,0,0,1,82.84,101.32Z"/><path class="cls-31" d="M97.39,101c-.06.11-.09.26-.18.33a.56.56,0,0,1-.36.07,1.28,1.28,0,0,1-.52-.26,4,4,0,0,1-1.23-2,.39.39,0,0,1,.1-.33.41.41,0,0,1,.36,0,3.69,3.69,0,0,1,1.8,2A1.25,1.25,0,0,1,97.39,101Z"/><path class="cls-32" d="M151,84.09a59.94,59.94,0,0,0-17.7-31.76,72.77,72.77,0,0,0-29.76-16.87A47.08,47.08,0,0,0,83.24,33.7a7.53,7.53,0,0,1-.95,0c-.25-.58-.44-1.08-.67-1.55A13.08,13.08,0,0,0,79,28.41a6.7,6.7,0,0,0-6.39-1.92c-.71.16-1.4.37-2,.54-1.7-.6-3.3-1.27-5-1.74a33.76,33.76,0,0,0-5.06-1.08c-1.68-.22-3.4-.16-5.14-.22.09-.44.17-.76.21-1.09a6.37,6.37,0,0,0-4.34-7.22,8.45,8.45,0,0,0-8.63,1.41c-.41.32-.79.7-1.21,1.07a12.63,12.63,0,0,0-1.57-.28,7,7,0,0,0-1.58.12c-5,.89-8.61,8.56-4.6,12.64a7.92,7.92,0,0,0,1.12,5.11,8.44,8.44,0,0,0,4.38,3.09L38.29,47s0,0,0,.05c-2.75,1.74-3.6,3.67-3.08,6.9a9.8,9.8,0,0,0,2.41,5.17c.22.24.41.51.64.79-.25.38-.45.71-.68,1a63.86,63.86,0,0,0-6.92,12.57,51.43,51.43,0,0,0-3.77,27.34,33.16,33.16,0,0,0,9.33,19.23,53.58,53.58,0,0,0,15.89,11.23l2,.94c-.67.8-1.45,1.35-1.62,2.37s.45,1.88.73,2.8c-.63.45-1.19.8-1.69,1.22a3.86,3.86,0,0,0-.62,5.81c.36.47.78.9,1.2,1.38A38.89,38.89,0,0,0,48,152.24a91.5,91.5,0,0,0-7.64,22.4,6.63,6.63,0,0,0-.08,1.78,1.19,1.19,0,0,0,.93,1.16c.57.17,1.15.33,1.73.47a176.81,176.81,0,0,0,20,3.5c7.47,1,15,1.4,22.5,1.62a251.6,251.6,0,0,0,25.17-.28,122.11,122.11,0,0,0,16.62-2.06,59.3,59.3,0,0,0,10-2.85c2-.8,2.27-1.42,1.84-3.56,0-.13-.08-.25-.11-.38a95.51,95.51,0,0,0-4.24-14.34,58.48,58.48,0,0,0-5.48-11.28c-.47-.72-.95-1.43-1.42-2.13a20.76,20.76,0,0,0,1.78-2.21,3.94,3.94,0,0,0-1.76-6c-.5-.25-1-.44-1.6-.67.45-.72.88-1.31,1.21-2a2.7,2.7,0,0,0,.15-2.32,12,12,0,0,0-1.19-1.82l1.78-.91a54.06,54.06,0,0,0,14.23-10.52,32.77,32.77,0,0,0,8.49-15.58A46.1,46.1,0,0,0,151,84.09ZM41.86,19.92a3.38,3.38,0,0,1,1.73,2.26,2.48,2.48,0,0,1,0,1,1.4,1.4,0,0,1-1.1,1.26c-.45,0-1.08-.5-1.22-1.14A4,4,0,0,1,41.86,19.92Zm-3,17.33c-2.39-.83-3.67-2.75-3.79-5.9.6,0,1.06,0,1.51-.09a4.63,4.63,0,0,0,2.78-1.45,2.82,2.82,0,0,0,.8-2,2,2,0,0,0-2.14-2.1,3.78,3.78,0,0,0-2.75,1.43,19.9,19.9,0,0,0-1.22,1.66,1.76,1.76,0,0,1-.8-1.49,7.42,7.42,0,0,1,.81-4.64c1.41-2.67,3.7-4,6.38-3.45a4.46,4.46,0,0,1-.14.89A5.6,5.6,0,0,0,40,22.87,4.16,4.16,0,0,0,40.24,24a2.52,2.52,0,0,0,2.45,1.71,2.64,2.64,0,0,0,2.19-2.28,4.26,4.26,0,0,0-1-3.36c-.36-.46-.78-.88-1.16-1.31,1.65-2.43,6-3.36,9.08-1.52a4.93,4.93,0,0,1,2.25,6.06c-.55-.17-1.1-.33-1.64-.51a4.69,4.69,0,0,0-3.32.16,2.66,2.66,0,0,0-1.78,3,2.77,2.77,0,0,0,3,2,5.32,5.32,0,0,0,2.91-1.21c.4-.33.78-.69,1.25-1.11a4.75,4.75,0,0,1,.92,4.2c-.91,3.57-4.58,5.79-7.56,5-.33-.38,0-.71.09-1.07a6.25,6.25,0,0,0,.09-3.35,3.46,3.46,0,0,0-3.31-2.68,2.38,2.38,0,0,0-2.34,1.81,4.08,4.08,0,0,0,.3,2.91,6,6,0,0,0,1.71,2.18c.4.32.83.62,1.24.94A6.19,6.19,0,0,1,38.91,37.25Zm-3.54-7.51A4,4,0,0,1,37,27.26a3.17,3.17,0,0,1,1.28-.42.9.9,0,0,1,.84,1.1,1.23,1.23,0,0,1-.22.55,5.49,5.49,0,0,1-1.31,1.16A2.09,2.09,0,0,1,35.37,29.74Zm18.15-5.07a4.42,4.42,0,0,1-3,2.09,1.67,1.67,0,0,1-2.1-1,1.58,1.58,0,0,1,1.36-1.87A4,4,0,0,1,53.52,24.67Zm-7,9.76a5,5,0,0,1-3-3.11,3.13,3.13,0,0,1-.08-1.55,1.42,1.42,0,0,1,2-.93,3.07,3.07,0,0,1,1.75,2.71A4.25,4.25,0,0,1,46.52,34.43ZM36.12,51.85A4.54,4.54,0,0,1,38.3,48a1.78,1.78,0,0,1,0,1.85,11.76,11.76,0,0,0,4.91-.27,42.61,42.61,0,0,0,12.62-4.78c1.61-.91,3.13-2,4.69-3h0a26.19,26.19,0,0,0,5.64-4.36l-.51-.51-5.71,4.38c-.57.32-1.16.63-1.72,1a51.83,51.83,0,0,1-17,6.63q-.69.13-1.38.21c-.12,0-.24-.05-.5-.12a38.94,38.94,0,0,1,1.39-9.89c2.35-.26,4.57-.87,6.06-3l2,.11a8,8,0,0,0,8-6.25A5.29,5.29,0,0,0,56.63,27c-.16-.5-.32-1-.53-1.62,5.82-.39,11,1.35,15.82,3.88.23.6-.13.88-.34,1.18a33.93,33.93,0,0,1-4.4,4.88l-1.55,1.54.51.51a33.09,33.09,0,0,0,6.38-6.46A6.17,6.17,0,0,0,74,27.76a8.63,8.63,0,0,0-.9.3c-.61.29-.94,0-1.36-.47a5.35,5.35,0,0,1,3.62.11,2.22,2.22,0,0,1,.58.12,9.84,9.84,0,0,1,5.26,6.89,5.46,5.46,0,0,1-.51,3.88,15.64,15.64,0,0,1-1.83,2.84,36.77,36.77,0,0,1-3.84,4A69.55,69.55,0,0,1,51.58,59.13a22.87,22.87,0,0,1-7,1.45A8,8,0,0,1,36.12,51.85Zm8.77,125.33-3.12-.8c0-1.51.61-4.4,2-8.92,1.4-4.67,2.35-7.17,3.24-8.47C50.05,162.85,50.06,173.15,44.89,177.18Zm92.88-.9c-.71.31-1.31.59-1.92.82s-1.12.37-1.64.53c-3.92-4.11-4-12.44-1.14-17C134.35,162.5,137.09,171.57,137.77,176.28Zm-5.26-17.66c-3.53,6.44-3.92,12.88,0,19.28a30.24,30.24,0,0,1-8.42,2.09,43.4,43.4,0,0,0-3.66-13.54c-.15.28-.29.57-.44.86.61,2.24,1.24,4.47,1.84,6.71a35.27,35.27,0,0,1,1,6.22c-1.21.19-2.37.41-3.54.54A217.4,217.4,0,0,1,87,181.89c-4.85-.17-9.71-.37-14.54-.76s-9.52-1-14.27-1.57a7.45,7.45,0,0,1-1-.29,46.2,46.2,0,0,1,1.07-6.74c.31-1.35.67-2.7,1-4.05h0a12.88,12.88,0,0,0,1.21-4.22,8.07,8.07,0,0,0-1.61,3.4,32.31,32.31,0,0,0-2.74,11.47,29.59,29.59,0,0,1-4.66-.68c-1.5-.25-3-.55-4.66-.86a5.08,5.08,0,0,1,.45-.88,16.42,16.42,0,0,0,3-12.09,16.1,16.1,0,0,0-2.77-7.48c1.47-3.69,3.38-7.17,5.17-10.65.26,0,.41,0,.51.06A36.28,36.28,0,0,0,65,150.83a97.78,97.78,0,0,0,17.22,2c3.66.14,7.32.27,11,.25a118.27,118.27,0,0,0,18.69-1.5,53,53,0,0,0,10.8-2.75c1.4-.55,2.76-1.23,4.25-1.91A113.55,113.55,0,0,1,132.51,158.62Zm-6.64-22.89c-.31.51-.68,1-1,1.51a.87.87,0,0,0,.39,1.2c.35.19.74.3,1.09.48a7.49,7.49,0,0,1,1.39.77,2.49,2.49,0,0,1,.78,3.2,5.84,5.84,0,0,1-1.9,2.28,15.83,15.83,0,0,1-3.81,2.13,50.09,50.09,0,0,1-10.18,2.75A135.21,135.21,0,0,1,86,151.73a117.55,117.55,0,0,1-15.9-1.3,52.48,52.48,0,0,1-12.33-3.17,26.91,26.91,0,0,1-3.85-2.07,6.87,6.87,0,0,1-1.74-1.62,2.44,2.44,0,0,1,.25-3.56c.33-.33.72-.59,1.08-.89a9.73,9.73,0,0,0,.91-.77,1.1,1.1,0,0,0,.22-1.45c-.15-.29-.34-.57-.52-.85-.78-1.16-.4-2.05.84-3.06a1.46,1.46,0,0,1,1.13,0c2,.61,3.9,1.33,5.88,1.89a107.18,107.18,0,0,0,17.41,3.32,88.91,88.91,0,0,0,17.94.18,96.66,96.66,0,0,0,27.12-6.21.63.63,0,0,1,.19,0,3.19,3.19,0,0,1,.37.13C126.76,133.24,126.68,134.38,125.87,135.73Zm15-17.78a52.69,52.69,0,0,1-20.62,13.22,93.82,93.82,0,0,1-19.57,4.55,88.37,88.37,0,0,1-20.3.32,86.57,86.57,0,0,1-26.94-6.77,52,52,0,0,1-15.6-10.9,8.11,8.11,0,0,1-2.24-3.47,7.71,7.71,0,0,0-.17-1,47.94,47.94,0,0,1-1.81-17.26c0-.46,0-.92,0-1.38.55-2.81,1-5.64,1.69-8.41A31.53,31.53,0,0,1,40.89,75c5.41-6.88,12.44-10.46,21.29-10.12a18.11,18.11,0,0,1,12.49,5.45,26.18,26.18,0,0,1,7,12.59,81.4,81.4,0,0,1,1.64,11.85c0,.11-.09.23-.16.39-.54.17-1.11.33-1.67.53a11.87,11.87,0,0,0-1.84.76,13.56,13.56,0,0,0-2.47,1.67,3.8,3.8,0,0,0-.77,4.9,7.93,7.93,0,0,0,1.12,1.64,19.2,19.2,0,0,0,8.78,5.66,10.09,10.09,0,0,0,6.29,0,18.93,18.93,0,0,0,7.84-5A9,9,0,0,0,102,103.1a4.4,4.4,0,0,0-1.14-5.75,10.27,10.27,0,0,0-3.84-2c-.56-.18-1.1-.39-1.61-.57.1-1,.2-1.84.27-2.7a64.19,64.19,0,0,1,1.21-8.29,26.7,26.7,0,0,1,7-13.23,19.08,19.08,0,0,1,5.88-4.05,20,20,0,0,1,11-1.43,24.93,24.93,0,0,1,16,8.6A31.51,31.51,0,0,1,142.81,85a60.47,60.47,0,0,1,2.43,12.71c0,.73-.07,1.45-.05,2.18a43.37,43.37,0,0,1-.85,9.44c-.32,1.61-.71,3.2-1.07,4.81A8.15,8.15,0,0,1,140.91,118ZM86.67,96.28a26.18,26.18,0,0,1,8.74.23A11.6,11.6,0,0,1,99.29,98c2.14,1.42,2.46,2.86,1.16,5.08a4.26,4.26,0,0,1-.32.5,15.14,15.14,0,0,1-9,5.85c-.46.09-.92.14-1.44.21s-1-.11-1.53-.23a17.11,17.11,0,0,1-9.57-5.74,6.46,6.46,0,0,1-.88-1.32,2.35,2.35,0,0,1,.59-3.22,10.8,10.8,0,0,1,2.37-1.44A20,20,0,0,1,86.67,96.28Zm61.79,7.86a30.65,30.65,0,0,1-3.08,7.77c-.23.4-.42.82-.63,1.23-.1-.21-.32-.45-.29-.64.14-.79.39-1.55.55-2.33a29,29,0,0,0,1-7.69V98.11a8.2,8.2,0,0,0-.32-3.68,23.91,23.91,0,0,0-.87-5.71A37.5,37.5,0,0,0,140,76.51c-4.88-7.62-11.78-12-20.87-12.56a19.78,19.78,0,0,0-16.5,6.52,26.89,26.89,0,0,0-5.86,9.88,48.18,48.18,0,0,0-1.93,9c-.11.86-.23,1.71-.31,2.58s-.12,1.7-.18,2.59c-1.21,0-2.32,0-3.44,0s-2.13.06-3.19.07-2.2.48-3.39.25c0-.51-.09-1-.11-1.43a58.66,58.66,0,0,0-1.4-9.87,28.23,28.23,0,0,0-7.25-13.56,19.32,19.32,0,0,0-11.35-5.78,24.73,24.73,0,0,0-18.16,4.47,28.15,28.15,0,0,0-10,13A48,48,0,0,0,33,94.33a36.92,36.92,0,0,0,0,10.55h0a16,16,0,0,0,.14,2c.32,1.75.7,3.48,1.06,5.23.22.65.47,1.3.66,2,0,.1-.17.27-.27.41l-.83-1.54A29.15,29.15,0,0,1,29.3,101a48.33,48.33,0,0,1,2.27-23.6A63.92,63.92,0,0,1,38.85,62.8c.4-.6.83-1.18,1.29-1.83,3.39,1.4,6.65.64,9.87-.2a49.87,49.87,0,0,0,6-2A74.2,74.2,0,0,0,73.74,48.39c1.41-1.11,2.69-2.38,4-3.59a18.92,18.92,0,0,0,1.37-1.46c1.95-2.25,3.57-4.66,3.48-7.83A8.39,8.39,0,0,1,85.37,35a47.73,47.73,0,0,1,18.12,2.18A68.28,68.28,0,0,1,133.1,55a58.5,58.5,0,0,1,15.57,29.19A44,44,0,0,1,148.46,104.14Z"/><path class="cls-32" d="M119,163.76a10.27,10.27,0,0,0,1,3.55c.15-.29.29-.58.44-.86A5.32,5.32,0,0,0,119,163.76Z"/><path class="cls-32" d="M54.94,86.7A11.75,11.75,0,1,0,66.62,98.39,11.68,11.68,0,0,0,54.94,86.7Zm8.75,17.83a7.07,7.07,0,0,1-2.81,2.72c-5.09,3.83-13.09,1.93-15.92-4.63a15.9,15.9,0,0,1-.51-1.7,7.18,7.18,0,0,1,0-4.86,10.66,10.66,0,0,1,17.62-5.52,7.84,7.84,0,0,1,2.9,4.1A10,10,0,0,1,63.69,104.53Z"/><path class="cls-32" d="M124.67,86.7a11.76,11.76,0,1,0,11.81,11.75A11.6,11.6,0,0,0,124.67,86.7Zm10.59,13.11a10.37,10.37,0,0,1-7.77,9,10.11,10.11,0,0,1-8.7-1.53,8.94,8.94,0,0,1-4.44-6.41A3.16,3.16,0,0,1,114,100c0-1.17,0-2.34.08-3.52a8.84,8.84,0,0,1,2.3-4.83,6.63,6.63,0,0,1,2.84-2.35,10,10,0,0,1,10.93-.08,10.45,10.45,0,0,1,5.32,9.41A5.3,5.3,0,0,1,135.26,99.81Z"/><path class="cls-32" d="M46.51,80a8.88,8.88,0,0,0,2.93.49,16.23,16.23,0,0,0,10.12-3.68,7.51,7.51,0,0,0,2.12-2.62,3.35,3.35,0,0,0-1.78-4.79,8.78,8.78,0,0,0-3.37-.6,16.42,16.42,0,0,0-9.59,3.29,8.31,8.31,0,0,0-2.41,2.63C43.27,77,44.05,79.14,46.51,80Zm-1.19-4.53a7.67,7.67,0,0,1,2.51-2.77,15.52,15.52,0,0,1,7.93-2.86,14.1,14.1,0,0,1,3,.28,2.68,2.68,0,0,1,.93.34,2.22,2.22,0,0,1,1.15,3.15,6.43,6.43,0,0,1-2.14,2.57,15.17,15.17,0,0,1-9,3.24,7.21,7.21,0,0,1-3.12-.52A2.29,2.29,0,0,1,45.32,75.44Z"/><path class="cls-32" d="M120.24,76.94a16.65,16.65,0,0,0,9.48,3.55,8.67,8.67,0,0,0,3.79-.7A3.29,3.29,0,0,0,135.23,75a7.56,7.56,0,0,0-2.3-2.72,15.94,15.94,0,0,0-9.77-3.5,7.71,7.71,0,0,0-3.32.54A3.38,3.38,0,0,0,118,74.4,7.91,7.91,0,0,0,120.24,76.94Zm-.4-6.42a6.1,6.1,0,0,1,2.45-.7,14.57,14.57,0,0,1,10.86,4.06,4.68,4.68,0,0,1,1.35,2.17,2,2,0,0,1-1,2.53,7.6,7.6,0,0,1-2,.71,9.52,9.52,0,0,1-1.65.11A15.22,15.22,0,0,1,120.74,76a6.3,6.3,0,0,1-1.95-2.47A2.1,2.1,0,0,1,119.84,70.52Z"/><path class="cls-32" d="M127.07,54.49a3.35,3.35,0,0,0-.94-.67.39.39,0,0,0-.36.06c-.12.14-.28.37-.24.5a2.16,2.16,0,0,0,.48.83c1,1,2.11,2,3.17,3a1.07,1.07,0,0,0,1.32.64l-.87-1.07C128.78,56.65,128,55.55,127.07,54.49Z"/><path class="cls-32" d="M118.86,53.09c-.13-.11-.46,0-.69,0,0,.23,0,.56.14.68,1,.83,2,1.63,3.06,2.43l.32-.29c-.32-.37-.63-.76-1-1.11C120.12,54.24,119.51,53.64,118.86,53.09Z"/><path class="cls-32" d="M121.65,50.71l-1.22-1c-1.15-1-2.3-2-3.48-3a1.2,1.2,0,0,0-1.23-.32c-.29.41,0,.67.22.86,1.35,1,2.72,1.9,4.08,2.84A1.4,1.4,0,0,0,121.65,50.71Z"/><path class="cls-32" d="M114.42,50.55l0,0a11.73,11.73,0,0,0-3.32-3,6.33,6.33,0,0,0-1.44-.62c-.21-.07-.48.05-.73.08,0,.21,0,.39.09.46a12.49,12.49,0,0,0,5.36,3.07h0l.16.29.19-.18-.31-.14Z"/><path class="cls-32" d="M113.25,168.93c-.36-.1-.46.22-.45.47a11.47,11.47,0,0,0,.84,4c0-.38.1-.77.1-1.15,0-1-.06-2-.13-3A.55.55,0,0,0,113.25,168.93Z"/><path class="cls-32" d="M115.8,175.46a5,5,0,0,0,0,2.88c0,.24.28.45.64,1,0-1.32,0-2.24,0-3.16C116.38,176,116.06,175.78,115.8,175.46Z"/><path class="cls-32" d="M117.11,169.72c-.48-.1-.69.14-.59.5.2.75.49,1.47.75,2.2a4.55,4.55,0,0,0,1.1,2.33,6.54,6.54,0,0,0-.63-2.87A4.46,4.46,0,0,0,117.11,169.72Z"/><path class="cls-32" d="M79.88,142.44A92.56,92.56,0,0,1,68.63,141c-3.25-.67-6.48-1.42-9.71-2.14a17.78,17.78,0,0,0-3.79-1.22,5,5,0,0,0,2.91,1.6h0c.88.3,1.75.62,2.64.9a81.77,81.77,0,0,0,26.93,3.43c.24,0,.59.19.79-.29-.62-.11-1.19-.26-1.77-.31C84.38,142.77,82.13,142.63,79.88,142.44Z"/><path class="cls-32" d="M96.31,143.18c-.53,0-1,0-1.58.07-.36,0-.73.11-1.09.17a19.12,19.12,0,0,0,5.12.19,11.06,11.06,0,0,0,5.35-.74,44.7,44.7,0,0,0-6.42.29C97.23,143.16,96.77,143.16,96.31,143.18Z"/><path class="cls-32" d="M121.89,139.58c-2.48.34-8.81,1.93-9.89,2.55A26.2,26.2,0,0,0,122.45,140a1.12,1.12,0,0,0,1-.68A1.61,1.61,0,0,0,121.89,139.58Z"/><path class="cls-32" d="M75,35.83c1.09,1.37,1.24,3.16,2.06,4.9a6.11,6.11,0,0,0,.46-1.23,3.7,3.7,0,0,0-.06-1.37,6.85,6.85,0,0,0-4.19-4.89c-.21-.33-.45-.34-.78,0l.71.51C73.82,34.43,74.45,35.11,75,35.83Z"/><path class="cls-32" d="M68.46,47.44c.1.24.24.47.61.25,0-3.19-1.74-5.44-4.06-7.56-.11.31-.16.39-.14.43A59.11,59.11,0,0,1,68.46,47.44Z"/><path class="cls-32" d="M52.68,57.15c-.73-1.21-1.51-2.34-2.12-3.55s-1-2.49-1.54-3.74a7.12,7.12,0,0,0,.93,5A4.25,4.25,0,0,0,52.68,57.15Z"/><path class="cls-32" d="M57.55,47c.49,1.15.92,2.33,1.48,3.45a5.88,5.88,0,0,0,2.25,2.9A20.5,20.5,0,0,0,58,46.59c-.17-.38-.21-.92-1-.75.22.44.41.81.59,1.19Z"/><path class="cls-32" d="M42.47,58.8A4.36,4.36,0,0,0,45,60.16a13.1,13.1,0,0,1-3.79-6.81c0-1.25,0-1.25-.66-1.88a6.27,6.27,0,0,0,.22,3.6A6.19,6.19,0,0,0,42.47,58.8Z"/><path class="cls-32" d="M82.5,101.85a3.8,3.8,0,0,0,1.6-3.63,4.66,4.66,0,0,0-3,2.39,1,1,0,0,0,.13,1.26A.92.92,0,0,0,82.5,101.85ZM83.41,99c.32.35,0,.61-.13.86-.45.69-.46.68-1.68,1.35A4.87,4.87,0,0,1,83.41,99Z"/><path class="cls-32" d="M96.62,101.93A.91.91,0,0,0,98,100.84a2.93,2.93,0,0,0-1.14-1.54,2.74,2.74,0,0,0-2-1,1.73,1.73,0,0,0,.32,1.87A3,3,0,0,0,96.62,101.93Zm-.21-2.22,1,1.58a3.52,3.52,0,0,1-1.82-1.58C95.88,99.05,96.15,99.72,96.41,99.71Z"/><path class="cls-32" d="M61.64,90.94c-.57-.34-1.12-.72-1.72-1a9.35,9.35,0,0,0-12.06,3.44,17.46,17.46,0,0,1-1.09,2.11,9.91,9.91,0,0,1-1.86,1.44,3.7,3.7,0,0,0,0,2.37L46.73,101l.38,1a9.42,9.42,0,0,0,9.09,5.84,16.75,16.75,0,0,0,3.84-.89,15.69,15.69,0,0,0,3.25-2.78c.28-.52.58-1,.84-1.55a8.88,8.88,0,0,0,1-4.56,9.46,9.46,0,0,0-2.75-6.17C62.13,91.54,61.9,91.23,61.64,90.94ZM45.92,99a1.22,1.22,0,0,1,.16-1.75,3.22,3.22,0,0,1,4.15.31,1.25,1.25,0,0,1-.34,2,8.68,8.68,0,0,1-1.45.5A3.63,3.63,0,0,1,45.92,99Zm11.64,7.62c-4.14.93-8.76-1.92-9.51-5.45a13.4,13.4,0,0,0,2.18-.63,2.23,2.23,0,0,0,.34-4,13.41,13.41,0,0,0-2.43-1.12A5.89,5.89,0,0,1,50.47,92,8.07,8.07,0,0,1,56,90a8.37,8.37,0,0,1,1.57,16.55Z"/><path class="cls-32" d="M120.84,89.44c-.38.11-.75.25-1.13.37l-2.89,2.29a15.72,15.72,0,0,0-2.26,4.43,14.31,14.31,0,0,0,.2,4.38,9.55,9.55,0,0,0,4.59,5.7,1.38,1.38,0,0,1,.27.27c.51.16,1,.34,1.52.48A9.29,9.29,0,0,0,132,102.87a14.22,14.22,0,0,1,.82-1.81,11.35,11.35,0,0,1,1.56-1.45s0-.13.06-.19a2.09,2.09,0,0,0,.35-.13l0-.76a.56.56,0,0,0,0-.89,1.23,1.23,0,0,0-.62-1.16c-.46-.36-1-.66-1.45-1-.14-.33-.26-.64-.4-.94A9.36,9.36,0,0,0,120.84,89.44Zm2.37,17.3a8.36,8.36,0,0,1-7.78-8.14,8.26,8.26,0,0,1,6.74-8.43,8,8,0,0,1,5.94,1,8.82,8.82,0,0,1,3.54,4.24c-.42.1-.67.15-.91.23a7.73,7.73,0,0,0-1.3.48A2.49,2.49,0,0,0,128,98.57a2.4,2.4,0,0,0,1.83,2.12,12.38,12.38,0,0,0,1.73.38A8,8,0,0,1,123.21,106.74Zm10-9.79a1.27,1.27,0,0,1,.28,2.25,3.8,3.8,0,0,1-2.36.78c-.24-.06-.63-.14-1-.27a1.42,1.42,0,0,1-1.1-1.26,1.44,1.44,0,0,1,.79-1.3A3.22,3.22,0,0,1,133.16,97Z"/></g></g></svg>