<svg xmlns="http://www.w3.org/2000/svg" viewBox="0 0 175.83 184.74"><defs><style>.cls-1{fill:#d7e9e6;}.cls-2{fill:#6c483b;}.cls-3{fill:#ea1142;}.cls-4{fill:#614134;}.cls-5{fill:#cb123a;}.cls-6{fill:#f5e6ba;}.cls-7{fill:#cb133a;}.cls-8{fill:#f9f0d1;}.cls-9{fill:#ddcb6d;}.cls-10{fill:#99844f;}.cls-11{fill:#997e58;}.cls-12{fill:#cb9c64;}.cls-13{fill:#9c8c65;}.cls-14{fill:#daa781;}.cls-15{fill:#c39069;}.cls-16{fill:#fbf4e3;}.cls-17{fill:#fefefe;}.cls-18{fill:#4c332c;}.cls-19{fill:#ef858f;}.cls-20{fill:#e99890;}.cls-21{fill:#8e6c5a;}.cls-22{fill:#916e5b;}.cls-23{fill:#abbbb6;}.cls-24{fill:#acbbb4;}.cls-25{fill:#94aaa8;}.cls-26{fill:#e9c479;}.cls-27{fill:#ead076;}.cls-28{fill:#e0c97a;}.cls-29{fill:#e4ce7a;}.cls-30{fill:#ebc974;}.cls-31{fill:#b59857;}.cls-32{fill:#93aba9;}.cls-33{fill:#ebb26d;}.cls-34{fill:#6d483a;}.cls-35{fill:#eecf73;}.cls-36{fill:#ae846e;}.cls-37{fill:#a57f65;}.cls-38{fill:#9c6350;}.cls-39{fill:#a56554;}.cls-40{fill:#986953;}.cls-41{fill:#592e4b;}.cls-42{fill:#4d2940;}.cls-43{fill:#592d4b;}.cls-44{fill:#4d2840;}.cls-45{fill:#97604d;}.cls-46{fill:#966251;}.cls-47{fill:#4d2942;}.cls-48{fill:#522e47;}.cls-49{fill:#4c2840;}.cls-50{fill:#dec87c;}.cls-51{fill:#d0c382;}.cls-52{fill:#e7d06e;}.cls-53{fill:#cdbd7e;}.cls-54{fill:#c2693f;}.cls-55{fill:#eb9b54;}.cls-56{fill:#7b4727;}</style></defs><g id="Calque_2" data-name="Calque 2"><g id="OBJECTS"><rect class="cls-1" width="175.83" height="181.36" rx="68.69"/><path class="cls-2" d="M140.09,61.58c-.13.3-.31.59-.06.92.45.58.87,1.18,1.34,1.74,4.16,5.06,6.43,11,7.81,17.27a60.65,60.65,0,0,1,.91,19.24,57.28,57.28,0,0,1-.89,6.11,20.4,20.4,0,0,1-1.94,5.42,52.17,52.17,0,0,1-6.63,9.7,23.06,23.06,0,0,1-3.79,3.53c-.34.12-.55-.05-.73-.31a3.31,3.31,0,0,1,.32-2.5,23.66,23.66,0,0,0,1.22-4.82c.08-.66.33-1.37-.65-1.56-2.27,2.51-4.47,5.08-7.48,6.75-4.26,2.36-8.67,3.69-13.51,1.88-.83-.31-1.72-.09-2.54-.38a1.38,1.38,0,0,1-.79-.94,3.17,3.17,0,0,1,0-1.78c1.11-4.12.12-8-1.83-11.55-4.38-8-10.81-13.39-20.17-14.62a21,21,0,0,0-13.5,2,24.85,24.85,0,0,0-13.44,14.45,19.89,19.89,0,0,0-.71,9.62c.11.85.42,1.69-.1,2.52a1.59,1.59,0,0,1-.58.33c-1.85,0-3.58.77-5.43.81a6.69,6.69,0,0,1-2.91-.31C45,118,40.49,108.42,39.19,97.07c-.64-5.53.16-10.85,1.31-16.18.23-1.09.47-2.25,1.71-2.74a.85.85,0,0,1,.57.13,6.82,6.82,0,0,0,5.82,1.88,15.45,15.45,0,0,0,8.79-4.27,2.85,2.85,0,0,0,1-3c-.5-1.31-1.77-1.58-2.94-1.69a14.21,14.21,0,0,0-9.24,2.44,3.56,3.56,0,0,1-2.13,1c-1.35-.71-.64-1.72-.26-2.55a54.32,54.32,0,0,1,6.6-10.9c8.17-10.58,18.82-17.69,31.18-22.43a25.22,25.22,0,0,1,3.57-1.26,8.74,8.74,0,0,1,2.26-.3c-1.07-.22-2.41.93-3.44-.44a3.85,3.85,0,0,1,1.74-.32,83.81,83.81,0,0,1,11,0,12.9,12.9,0,0,1,5,1.09,15.65,15.65,0,0,0,3.06.9,68.12,68.12,0,0,1,20,9.17l1.65,1.07c2.1-3.46,5.28-5.38,8.92-6.64a16.65,16.65,0,0,1,10.6.09,38.7,38.7,0,0,1,9.34,4.45,4.61,4.61,0,0,1,2.17,2.23c-2.56,4.19-5.89,7.44-10.76,8.79a1.27,1.27,0,0,1-1.13-.25c-.4-1.06.54-1.34,1.11-1.8,1.34-1.06,2.88-1.9,3.86-3.37.34-.93-.41-1.19-1-1.46-4.35-2-8.7-2.29-12.94.28-3.06,1.85-3.1,2.47-.63,5,1,1.93,3.2,1.22,4.67,2.12.38,1.57-1.19.95-1.74,1.61C139,60.46,140.06,60.75,140.09,61.58Z"/><path class="cls-3" d="M120.94,144.18a47.61,47.61,0,0,1,4.34,7.13,129.74,129.74,0,0,1,10.08,25.75,6.62,6.62,0,0,1,.23,1.16.7.7,0,0,1-.49.77,8.76,8.76,0,0,1-.95.31l-9.74,2.08a2.57,2.57,0,0,1-.39,0c-.66-.49-.69-1.24-.85-2a17.72,17.72,0,0,0-3.82-7.76c-.08,1.33.76,2.36,0,3.37-1.11.36-1.54-.54-2.07-1.16a30.85,30.85,0,0,0-2.52-2.83c-1.12-1-2-.79-2.8.37s-1.22,2.37-1.94,3.49c-1.66,2.58-3.46,2.53-4.9-.15a39.75,39.75,0,0,0-2.18-3.58c-1-1.4-2-1.46-3.39-.59a27.1,27.1,0,0,0-4.38,3.76c-3,2.94-5,2.8-7.54-.53a37.46,37.46,0,0,0-2.77-3.14A2.07,2.07,0,0,0,82,170.3,7.84,7.84,0,0,0,79.32,173a8,8,0,0,1-4.54,3.68,3.59,3.59,0,0,1-4.13-1.18c-.91-1.14-2-2.17-2.91-3.29-1.59-1.9-2.2-1.89-3.71,0A47.68,47.68,0,0,1,60.11,177,8.1,8.1,0,0,1,63,174.94c2.91-1.3,4.37-1,6.64,1.18A21.56,21.56,0,0,0,71.67,178c2,1.54,3.4,1.38,5.09-.73a9.07,9.07,0,0,1,3.33-3.06,4.68,4.68,0,0,1,5.68.93c.8.79,1.59,1.61,2.43,2.36,2.24,2,3.89,2,6.13-.08.69-.62,1.31-1.32,2-1.93,1.77-1.54,3-1.65,5.1-.54A19.24,19.24,0,0,1,105.1,178c1.73,1.57,3,1.6,4.31-.34,2.58-3.82,5.33-3.46,8.54-1.39a27.63,27.63,0,0,0,2.48,1.28c1,1.29,1.75,2.61.77,4.25a21.2,21.2,0,0,1-5.31.75c-3.59.23-7.18.3-10.77.48-2.39.12-4.79.23-7.17.48a105.06,105.06,0,0,1-14,.23c-.46,0-.93-.08-1.39-.06a97.88,97.88,0,0,1-13.15-.59c-3.38-.33-6.76-.6-10.14-.95-2.24-.23-4.48-.56-6.72-.86a2.34,2.34,0,0,1-.55-.22c-.73-2.49.15-4.88.55-7.27A104.46,104.46,0,0,1,61.4,147c1-2.17,1.79-2.52,4.11-2.13a81.4,81.4,0,0,0,11.84,1.51c.93,0,1.2.69,1.52,1.34A23.71,23.71,0,0,0,81.33,152a3.19,3.19,0,0,1,.33.4,3.88,3.88,0,0,0,.83,1.22,2.64,2.64,0,0,1,.37.31c.12.1.23.22.34.33s.11.12.17.17a2.73,2.73,0,0,1,.34.34c.23.23.46.46.7.68l.57.49a10.42,10.42,0,0,0,2.14,1.41,3.7,3.7,0,0,0,4.67-.12,2.79,2.79,0,0,1,.35-.42,4.93,4.93,0,0,1,.39-.4c2.26-1.85,3.53-4.4,4.83-6.92a6.06,6.06,0,0,1,1.43-2.33,1.88,1.88,0,0,1,.59-.24c4.69-.51,9.38-.9,14-1.85,1.63-.34,3.26-.65,4.87-1.05A3.1,3.1,0,0,1,120.94,144.18Z"/><path class="cls-4" d="M84,36.68l4.71.1c-.14.45-.45.47-.68.53a80,80,0,0,0-11.38,4.28A70.61,70.61,0,0,0,63,49.73a28.12,28.12,0,0,0-3.51,3c-.59.62-1.37,1-2,1.64a55,55,0,0,0-5.58,6.23c-1.23,1.57-2.46,3.13-3.57,4.79A67.52,67.52,0,0,0,44,73.22c-.19.37-.31.74.06,1.08C44.45,76,43,77,42.44,78.3a3.2,3.2,0,0,0-.89,1.75,39.89,39.89,0,0,0-1.49,8.4,28.91,28.91,0,0,0-.42,4c.09,1.19.1,2.37.29,3.56.24,1.43.28,2.89.49,4.34.11.72.23,1.44.39,2.15A41.71,41.71,0,0,0,46.55,116a29.07,29.07,0,0,0,4.09,5.13,23.85,23.85,0,0,1,3.42,3.61c-.79.92-1.82.66-2.79.49A13.35,13.35,0,0,1,44,121.39c-1.31-1.32-2.66-2.6-3.85-4-.37-.45-.81-1.29-1.48-.24a10.77,10.77,0,0,0,.24,3.71,2.48,2.48,0,0,1-.25,2.26.43.43,0,0,1-.58,0A38.65,38.65,0,0,1,30.62,110,46.23,46.23,0,0,1,27.8,94.53a41.56,41.56,0,0,1,3.29-16.71,86.75,86.75,0,0,1,7.64-14.21c.37-.55.71-1.12,1.06-1.69a.3.3,0,0,1,0-.26l-.16-.07-.15.09a8.35,8.35,0,0,0-2.29.19c-1.32,0-2.65.05-4-.11A13.08,13.08,0,0,1,26,58.37a24.63,24.63,0,0,1-5.28-6.89,3.81,3.81,0,0,1-.22-.75c-.44-1,.15-1,.84-.82A4.77,4.77,0,0,1,23,51.2a28.65,28.65,0,0,0,6.66,4.57,4.78,4.78,0,0,0,3,.63c3,.69,6,1.68,9.11.65,1.81-.33,2.71-1.87,3.8-3,1.71-1.85,3.47-3.53,6-4.23a8.64,8.64,0,0,1,1.86-1.49A65.74,65.74,0,0,1,73,38.59,46.38,46.38,0,0,1,84,36.68Z"/><path class="cls-5" d="M77.64,146.64c-.11.42-.32.75-.82.68-4.14-.53-8.29-1-12.38-1.88-.26-.05-.53-.09-.79-.12a.65.65,0,0,0-.67.34,19.79,19.79,0,0,0-.92,1.77,140.75,140.75,0,0,0-6,15.22,85,85,0,0,0-2.89,12.41c-.25,1.71-.51,3.41-.8,5.11a4.11,4.11,0,0,1-.38.9,33.75,33.75,0,0,1-7.74-1.8,3,3,0,0,1-.71-.36,1.13,1.13,0,0,1-.64-1.48c.29-1.09.59-2.18,1-3.25A153.47,153.47,0,0,1,55,148.62c1.23-2.27,2.35-4.6,3.81-6.76a3.33,3.33,0,0,1,2.76-1.65,40.88,40.88,0,0,0,5.71-.81,3.07,3.07,0,0,1,1.34-.83,17.35,17.35,0,0,1,7.06.47,1.94,1.94,0,0,1,.86,1,10.51,10.51,0,0,0,.46,2.16C77.12,143.68,78.41,145,77.64,146.64Z"/><path class="cls-2" d="M32.58,57a5,5,0,0,1-3-.6,23.42,23.42,0,0,1-7.31-4.94,8.13,8.13,0,0,0-1.31-1.18c-.31-.21-.39.18-.46.42a2.24,2.24,0,0,1,.43-3,7.66,7.66,0,0,1,1.58-1.2,50.58,50.58,0,0,1,6-3.25c7.06-2.93,13.88-2.57,20.22,2A15,15,0,0,1,50,46.42a3.06,3.06,0,0,1,1.18,2.81c0,.32.05.52.4.54-.16.49-.62.63-1,.89a21.66,21.66,0,0,0-3.52,2.82c-1.09,1.14-2.22,2.24-3.34,3.35a2.61,2.61,0,0,1-1.42,1c-.36-.79.08-1.34.56-1.88,1.64-2.09,1.61-2.69-.45-4.17a13,13,0,0,0-13.77-1.24c-.62.28-2,.5-.94,1.78a22.35,22.35,0,0,0,3.5,2.94C31.84,55.69,32.63,56,32.58,57Z"/><path class="cls-6" d="M137.16,115.37c.54-.44.85,0,1.09.36a2.77,2.77,0,0,1,.21,1.54,15.75,15.75,0,0,1-1,4.79c-.32,1-.75,2-1.14,2.93a1.44,1.44,0,0,1-.76,1.29c-1.05,1.52-1.91,3.16-3.05,4.63a20.62,20.62,0,0,1-13,8.17c-.52.09-1,.25-1.54.38-1.31,1.58-3.14,1.13-4.82,1.19a9.57,9.57,0,0,1-5.19-1.1c-.6-.36-.95-1.12-1.78-1.12s-1.34-.38-2-.52c-1.07-.76-2.41-1-3.48-1.77-.89-.63-2-1.3-.88-2.65,1-.68,2.3-.59,3.46-.88a2.55,2.55,0,0,1,.54-.15,11.66,11.66,0,0,0,3.49-1.7l.26-.13a1.71,1.71,0,0,1,.59-.11,2.39,2.39,0,0,1,.6,0,11.39,11.39,0,0,1,2.45.82c8.16,4,17.4.77,22.12-7.51C134.87,121.16,135.82,118.18,137.16,115.37Z"/><path class="cls-6" d="M38.55,123.06a30.06,30.06,0,0,1-.68-4.91A2.74,2.74,0,0,1,38,116.6c1.34.35,1.49,1.6,1.89,2.6,1.73,4.26,4,8.1,8,10.65,4.86,3.11,10,4.1,15.56,2.13a21.71,21.71,0,0,1,4.17-1.31c2.22.54,4.13,2,6.47,2.17,1.21.09,2.31.34,2.7,1.72a1.49,1.49,0,0,1-.09.63,2,2,0,0,1-.57.75,16.5,16.5,0,0,1-7.57,2.73,3.69,3.69,0,0,1-2,0,31.42,31.42,0,0,1-7.56.34,21.36,21.36,0,0,1-11.26-3.57A16.46,16.46,0,0,1,42.91,131c-.27-1.34-1.29-2.15-2.11-3.1a14.79,14.79,0,0,1-2-4A1.39,1.39,0,0,1,38.55,123.06Z"/><path class="cls-5" d="M108,138.71a13.89,13.89,0,0,0,8.07,1l2-.26a42.33,42.33,0,0,1,2.94,4.72,86,86,0,0,1-11.21,2.38,68.42,68.42,0,0,1-10,1,1.69,1.69,0,0,1-.54-.2c-.72-.76-.4-1.61-.15-2.41.44-1.38.84-2.77,1.27-4.15a2.75,2.75,0,0,1,3.06-1.95C104.9,138.93,106.42,137.94,108,138.71Z"/><path class="cls-4" d="M140.09,61.58a4.55,4.55,0,0,1-2.62-2.19.39.39,0,0,1,.3-.59,13.47,13.47,0,0,1,1.56-.09,1.85,1.85,0,0,0,1.45-.41,4,4,0,0,1,4.73-1.24,11.51,11.51,0,0,0,4.8-1.78,11.81,11.81,0,0,0,2.49-2,60,60,0,0,1,4.72-4.58,1.72,1.72,0,0,1,.27,1.7,8.85,8.85,0,0,1-.69,1.65,29.31,29.31,0,0,1-4.74,6.13,11.58,11.58,0,0,1-7.89,3.34C143,61.59,141.55,61.57,140.09,61.58Z"/><path class="cls-7" d="M119.2,175.06c0-1.3-.75-2.41-.88-3.67a3.09,3.09,0,0,1-.08-.78c0-.12.29-.26.46-.27a.86.86,0,0,1,.54.2,7.08,7.08,0,0,1,1.51,1.58,23.82,23.82,0,0,1,3,6.47,13,13,0,0,1,.22,2.78,6.46,6.46,0,0,1-2.82.44,10.77,10.77,0,0,0-1.29-4A2.38,2.38,0,0,1,119.2,175.06Z"/><path class="cls-8" d="M40.8,127.9c.16-.14.37-.23.51-.06.6.68,1.17,1.38,1.72,2.1a.76.76,0,0,1-.12,1.06h0a1.09,1.09,0,0,1-.37-.34A13,13,0,0,1,40.8,127.9Z"/><path class="cls-9" d="M40.13,61.58l-.34.34-2.63-.05a1.54,1.54,0,0,1,1.1-.29A2.46,2.46,0,0,0,40.05,61,.41.41,0,0,1,40.13,61.58Z"/><path class="cls-10" d="M66.5,138.68c.65-.09,1.23-.53,1.94-.38.15.64-.43.65-.76.88a.49.49,0,0,1-.48-.08C66.92,139,66.64,139,66.5,138.68Z"/><path class="cls-11" d="M135.56,126.28a3,3,0,0,1,.76-1.29c.18.17.35.34.52.52A1.38,1.38,0,0,1,135.56,126.28Z"/><path class="cls-12" d="M67.2,139.1l.5-.1c.31-.14.61-.26.77.19a1.62,1.62,0,0,1-1.23.21A1,1,0,0,0,67.2,139.1Z"/><path class="cls-13" d="M38.55,123.06c.32.19.29.5.28.81a1.25,1.25,0,0,1-.8-.8Z"/><path class="cls-6" d="M42.5,130.65l.37.34Z"/><path class="cls-14" d="M103.61,133.15a8,8,0,0,1-3.62.63A7.8,7.8,0,0,1,93.62,132c-2.69-1.78-4.1-4.62-5.73-7.19-.75.09-.84.62-1,1a5.86,5.86,0,0,1-5.73,3.86c-4.52.15-10.16-1.64-12.55-7.13-.48-1.12-1.15-2.34,0-3.48a1.47,1.47,0,0,1,.84-.22,3.74,3.74,0,0,0,2.7-1.08c2.74-2.46,5-5.26,5-9.22,0-2.44-.77-3.09-3.08-2.44a2.59,2.59,0,0,1-1.8,0c-.78-.57-.41-1.24,0-1.72,4.8-5.38,10.43-9.25,18-9.55a1.4,1.4,0,0,1,.57.13,12.3,12.3,0,0,1,3.72.63,25.7,25.7,0,0,1,11.26,6.51,32.75,32.75,0,0,1,5.81,7.8,20,20,0,0,1,2.28,8,15.86,15.86,0,0,1-.5,4.34c-.08.39-.18.77-.27,1.16a5.8,5.8,0,0,1-1,3.42,14.24,14.24,0,0,1-3.82,3.84c-.24.13-.52.17-.7.38h0a18.86,18.86,0,0,1-3.47,1.69C104,133,103.47,132.57,103.61,133.15Z"/><path class="cls-15" d="M68.8,119.45c-.52.81,0,1.6.24,2.26A10.41,10.41,0,0,0,75.33,128a31.54,31.54,0,0,0,4,1,4.73,4.73,0,0,0,2,0,4.36,4.36,0,0,1,1.16-.24,3.15,3.15,0,0,0,3.1-2.07c.55-1.06,1-2.15,1.55-3.23.09-.18.17-.4.39-.34a.84.84,0,0,1,.43.36c.54.91,1.06,1.84,1.6,2.76A18.07,18.07,0,0,0,94,131.48a3,3,0,0,1-1.56,3.34,8.83,8.83,0,0,1-9.23.49,3.7,3.7,0,0,1-2.25-3,9.74,9.74,0,0,1-3.83,1.07c-3-.29-6.14-.41-8.79-2.23a3.43,3.43,0,0,0-.52-.23c-.28,0-.55.07-.83,0a3.17,3.17,0,0,1-2.28-2.19c.22-.33,0-.4-.27-.37a2.26,2.26,0,0,1-1.21-1.62c0-.87-.65-1.62-.48-2.52-.07-.38-.12-.78-.23-1.16a17.39,17.39,0,0,1-.57-4.54c-.1-5.32,1.93-9.83,5.13-13.94,3.57-4.59,8.41-7.26,13.71-9.25a2.41,2.41,0,0,1,.58-.17,51,51,0,0,1,8.56-.43,3.66,3.66,0,0,1,.93.28,11.81,11.81,0,0,0-5.94,1.46,39.61,39.61,0,0,0-7.69,4.21,36.14,36.14,0,0,0-4.84,4.74c-.15.16,0,.37.13.52.19.93-.43,1.5-1,2a13.15,13.15,0,0,0-2.85,5,6.23,6.23,0,0,0,0,5.38A1,1,0,0,1,68.8,119.45Z"/><path class="cls-16" d="M64.88,128.26a6.53,6.53,0,0,0,2.37,2.3.3.3,0,0,1,.38.12l0,0c.16.06.23.14.2.24s-.07.16-.11.16a25.28,25.28,0,0,1-8.87,2.73,16.18,16.18,0,0,1-7-1.08,20,20,0,0,1-8.72-6,15.07,15.07,0,0,1-1.85-2.82C40,121.51,39,119,38,116.6a3.38,3.38,0,0,1,.06-.79c.23-.74.85-1,1.35-.45a15.68,15.68,0,0,1,1.29,1.52,28.18,28.18,0,0,0,4.37,4.63,13.55,13.55,0,0,0,9,3.18,12.8,12.8,0,0,0,5.29-.46c.51-.13,1-.3,1.53-.42a1.6,1.6,0,0,1,1.64.43,3.8,3.8,0,0,1,1.16,2.44,3.34,3.34,0,0,0,1.15,1.52Z"/><path class="cls-16" d="M137.16,115.37a1,1,0,0,1,.28,1.08,50.09,50.09,0,0,1-4.06,8.87A17.88,17.88,0,0,1,124,133a16.36,16.36,0,0,1-12.6-.62c-1-.48-2.06-.9-3.1-1.35.64-1.67,2.52-2.34,3.22-4,.89-.78,1-2.15,2.13-2.75a1.76,1.76,0,0,1,2-.3c4.17,1.9,8.18,1,12.08-.81a22.92,22.92,0,0,0,7.41-5.94C135.74,116.54,136.19,115.66,137.16,115.37Z"/><path class="cls-17" d="M63.37,99.2a12.82,12.82,0,0,1-.63,4.13,9.9,9.9,0,0,1-8.51,6.88,11.51,11.51,0,0,1-5.51-.56,10.72,10.72,0,0,1-5.58-15.74,14,14,0,0,1,3.47-3.82c.25-.2.56-.51.83-.5,1.08,0,1.87-.64,2.8-1a8.41,8.41,0,0,1,6,.22,11.76,11.76,0,0,1,6.08,5.53A9.75,9.75,0,0,1,63.37,99.2Z"/><path class="cls-17" d="M133.61,99.5A10.68,10.68,0,0,1,120.43,110a13.65,13.65,0,0,1-2.09-.64c-6.79-2.76-8.13-9.75-5.57-14.87A12.69,12.69,0,0,1,116.61,90a2.93,2.93,0,0,1,2.35-.85,3.24,3.24,0,0,0,1.33-.34,10.56,10.56,0,0,1,12.84,7.29A10,10,0,0,1,133.61,99.5Z"/><path class="cls-18" d="M127.77,81.08a10,10,0,0,1-3.4-.52,17,17,0,0,1-6.91-3.44,6.29,6.29,0,0,1-1.71-2.65,1.78,1.78,0,0,1,.06-1.36,3.65,3.65,0,0,1,2-2.1,7.88,7.88,0,0,1,4.48-.55,25,25,0,0,1,4.44,1.09,11.1,11.1,0,0,1,5.52,4.4,5.39,5.39,0,0,1,.33.5A2.84,2.84,0,0,1,131,80.51,7.89,7.89,0,0,1,127.77,81.08Z"/><path class="cls-18" d="M42.44,78.3A2.16,2.16,0,0,1,43,76a5.61,5.61,0,0,0,1.06-1.65,17,17,0,0,1,3.78-2.52,15.82,15.82,0,0,1,7.32-1.48,7.93,7.93,0,0,1,2.67.7,2.7,2.7,0,0,1,1.34,3.67,7.1,7.1,0,0,1-1.89,2.52,18.24,18.24,0,0,1-9.23,3.86,7.36,7.36,0,0,1-3.86-.73A2.75,2.75,0,0,1,42.44,78.3Z"/><path class="cls-19" d="M135.59,56.31A5.44,5.44,0,0,1,134,54.84c-1.09-1.31-1-2.06.32-3.2a14.4,14.4,0,0,1,4.82-2.73,12.71,12.71,0,0,1,6.3-.39,17.2,17.2,0,0,1,4.2,1.19,6.19,6.19,0,0,1,1.37.79,1.26,1.26,0,0,1,.24,1.92,14.72,14.72,0,0,1-4.95.28,13.34,13.34,0,0,0-8.93,2.79A3.25,3.25,0,0,1,135.59,56.31Z"/><path class="cls-20" d="M135.59,56.31c.07-.18.09-.42.21-.54a13.1,13.1,0,0,1,9-3.85c1.59,0,3.17,0,4.76,0a2,2,0,0,1,1.64.5c-.74,1.38-2.08,2.15-3.27,3-.77.59-1.64,1.07-2.47,1.59l-4.73,1.24c-.92,0-1.84,0-2.77,0-.78,0-1.41-.14-1.72-1A4.38,4.38,0,0,0,135.59,56.31Z"/><path class="cls-21" d="M113.62,124.28a11.56,11.56,0,0,1-2,3,.4.4,0,0,1-.06-.61l1.57-3.22A1.28,1.28,0,0,0,113.62,124.28Z"/><path class="cls-22" d="M63.68,126.68a7,7,0,0,1-1.16-2.44.49.49,0,0,1,.24,0,3.43,3.43,0,0,1,1.14,2C63.94,126.32,63.76,126.51,63.68,126.68Z"/><path class="cls-23" d="M119.2,175.06a8.69,8.69,0,0,0,.44.86,2.09,2.09,0,0,1,.27,1.86,1.84,1.84,0,0,1-1.68-.41,10.21,10.21,0,0,0-2.54-1.56c-2.1-.94-3.64-.49-4.74,1.13a20.29,20.29,0,0,1-1.45,1.9c-1.37,1.53-2.8,1.63-4.35.28-.71-.61-1.33-1.31-2-2a9.29,9.29,0,0,0-2.55-1.89,2.74,2.74,0,0,0-3.74.65c-.63.68-1.26,1.37-1.91,2a7.46,7.46,0,0,1-2.1,1.5,3.61,3.61,0,0,1-3.45-.11,8.64,8.64,0,0,1-2-1.6l-2.25-2.27a3.64,3.64,0,0,0-4.2-.88,5.3,5.3,0,0,0-2.83,2.07,13,13,0,0,1-1.76,2.16,3.07,3.07,0,0,1-4.61.24c-.68-.64-1.38-1.26-2-1.89l-1.87-1.81A1.55,1.55,0,0,0,66,174.9a3.94,3.94,0,0,1-1,.16,7.28,7.28,0,0,0-4.56,2.61c-.48.54-1,1.08-1.5,1.59a.54.54,0,0,1-.73,0,.56.56,0,0,1-.15-.72,4,4,0,0,1,.56-.81c1.74-2,3.36-4.14,4.94-6.28a7.69,7.69,0,0,1,.92-1.05,1.71,1.71,0,0,1,2.51-.09,14.48,14.48,0,0,1,1.37,1.45c1,1.2,2.13,2.38,3.13,3.62a2.23,2.23,0,0,0,2.48.78,7.06,7.06,0,0,0,5-4c1-1.95,2.73-2.61,4.49-3.35.4-.17.78.11,1.06.41,1,1.08,2,2.15,3,3.25a11.85,11.85,0,0,1,1.34,1.74,3.83,3.83,0,0,0,2.85,1.61,1.46,1.46,0,0,0,1.29-.4c.79-.71,1.57-1.44,2.35-2.16,1-.95,2-1.91,3.07-2.85a6.59,6.59,0,0,1,2.05-1.23,1.72,1.72,0,0,1,2.3.57,16.62,16.62,0,0,1,2.35,3.46c.39.77.76,1.55,1.19,2.31a1.33,1.33,0,0,0,2.29.19c.71-1.05,1.28-2.18,1.92-3.27a18.3,18.3,0,0,1,1.34-2.21,1.78,1.78,0,0,1,2.92-.26,30.12,30.12,0,0,1,2.31,2.48C117.79,173.3,118.49,174.19,119.2,175.06Z"/><path class="cls-24" d="M83.84,155.82l-.61-.6a1.15,1.15,0,0,0-.43-.59l0,0a2.14,2.14,0,0,0-.42-.43l0,0c-.35-.58-.82-1.07-1.21-1.61h0c-.69-1.25-1.51-2.42-2.12-3.71-.26-.54-.81-1.1-.21-1.77a2.66,2.66,0,0,1,2.46-.25c1.22.49,1.6,1.69,2.26,2.66,1,1.45,1.72,3.15,3.42,4a3.53,3.53,0,0,0,4.86-.29,4.59,4.59,0,0,1,.44-.33l.23-.14c1.35-.73,1.48-2.19,2.06-3.38a3,3,0,0,1,.13-.52c.1-.34.27-.65.35-1a1.64,1.64,0,0,1,.27-.48,1.22,1.22,0,0,1,.47-.3c1,0,2.08-.41,3,.3A22.54,22.54,0,0,1,93,157a1.16,1.16,0,0,0-.61.43h0a5.62,5.62,0,0,1-5.83.39,6.32,6.32,0,0,1-2.17-1.47A1,1,0,0,0,83.84,155.82Z"/><path class="cls-25" d="M98.85,147.45a3.09,3.09,0,0,1-3.11,0,1.5,1.5,0,0,1-.18-1.82c.67-1.7.94-3.52,1.65-5.21a1.94,1.94,0,0,1,2.54-1.17c1,.33,1.4.9,1.14,1.91a20.88,20.88,0,0,1-1.07,4c-.21.75-.43,1.5-.64,2.25Z"/><path class="cls-26" d="M78.86,147.41A7.88,7.88,0,0,0,80,150a6.32,6.32,0,0,1,1.18,2.61c-.42-.11-.6-.48-.82-.8a27.49,27.49,0,0,1-2-3.82c-.22-.47-.47-.93-.7-1.39-.26-1.5-1.09-2.84-1.22-4.37a.75.75,0,0,1,0-.89.89.89,0,0,1,1.05.68C78,143.82,79.35,145.37,78.86,147.41Z"/><path class="cls-27" d="M86.61,157.83a9.11,9.11,0,0,0,5.83-.39A3.58,3.58,0,0,1,89,158.75,3.47,3.47,0,0,1,86.61,157.83Z"/><path class="cls-26" d="M81.21,152.64a1.88,1.88,0,0,1,1.21,1.61A2.08,2.08,0,0,1,81.21,152.64Z"/><path class="cls-27" d="M92.42,157.45A.81.81,0,0,1,93,157,.75.75,0,0,1,92.42,157.45Z"/><path class="cls-28" d="M83.84,155.82a.86.86,0,0,1,.6.54Z"/><path class="cls-29" d="M82.8,154.63a.84.84,0,0,1,.43.59A.84.84,0,0,1,82.8,154.63Z"/><path class="cls-30" d="M82.4,154.23l.42.43A.47.47,0,0,1,82.4,154.23Z"/><path class="cls-20" d="M32.58,57c-1.17-.83-2.35-1.63-3.5-2.48a8.23,8.23,0,0,1-1.87-1.71c-.45-1.37.61-1.59,1.49-1.79a14.1,14.1,0,0,1,8.56.61,25.12,25.12,0,0,1,5,2.86c.59.41,1.19.88,1,1.77a4.37,4.37,0,0,0-.93,1.53,14.15,14.15,0,0,1-7.08,0C34.33,57.64,33.46,57.31,32.58,57Z"/><path class="cls-31" d="M40.13,61.58c0-.19-.05-.38-.08-.58l.38-.4s.17-.05.18,0,.14.21.11.29A1.2,1.2,0,0,1,40.13,61.58Z"/><path class="cls-4" d="M97.67,140.69a15.66,15.66,0,0,1-1.15,4.52c-.27.73-.52,1.47-.78,2.21,0,.15-.11.3-.16.46a.74.74,0,0,0-.16.59.67.67,0,0,1-.24.56v0a12.31,12.31,0,0,1-2.41,4.42l0,0a1.38,1.38,0,0,1-.48.42l-.62.5a3.2,3.2,0,0,1-4.35.22,5.33,5.33,0,0,0-.51-.31,5.2,5.2,0,0,1-2-2.18c-1.64-2.56-3.49-5-4.59-7.87-.69-1.31-.75-2.92-1.91-4-.81-.5-1.82-.17-2.64-.63a22.82,22.82,0,0,1-4.12-.4c-1-.26-2.09.13-3.14,0L67.7,139l.74-.7a36.08,36.08,0,0,0,7.42-2.91.53.53,0,0,0,.5-.47h0c2.5-.75,4.8.47,7.18.78,1.75.23,3.48.53,5.26.63,5.26.29,10.58-.27,15.77,1.06l1.83.49C106,139,105,139,104.15,139c-3.38.08-6.75.49-10.14.43s-6.62.23-9.93,0h-.32c1,0,2,0,3,0a11.89,11.89,0,0,0,4.33,0c1.57,0,3.15,0,4.73,0C96.68,139.47,97.63,139.43,97.67,140.69Z"/><path class="cls-32" d="M75.73,139.55a3.12,3.12,0,0,1,3.1-.13c.73,1.52,1,3.19,1.78,4.71.26,1.11,1.23,2,1,3.28H78.86a27.08,27.08,0,0,1-2-4.91,2.43,2.43,0,0,0-.45-1.07c-.39-.31-.06-.83-.34-1.17Z"/><path class="cls-33" d="M76.1,140.26a1.58,1.58,0,0,1,.34,1.17c0,.28,0,.56,0,.84A2.19,2.19,0,0,1,76.1,140.26Z"/><path class="cls-19" d="M43.24,56.29c-.08-.11-.13-.26-.23-.32A33.24,33.24,0,0,0,35.94,52a16,16,0,0,0-6.27-.42,9.64,9.64,0,0,0-1.74.37c-.45.1-.61.46-.72.85a1.35,1.35,0,0,1-.75-1.3,1.57,1.57,0,0,1,.88-1.24,4.64,4.64,0,0,1,.69-.38c5.48-2.42,10.67-2.14,15.46,1.7l.3.26c1.62,1.44,1.65,2.43.1,4A3.66,3.66,0,0,1,43.24,56.29Z"/><path class="cls-34" d="M104.53,137.39c-3.4,0-6.79,0-10.18,0a12,12,0,0,1-1.57-.2,6.85,6.85,0,0,0-1.18-.17,41.58,41.58,0,0,1-7.14-.45c-1.9-.2-3.79-.61-5.67-1a5.29,5.29,0,0,1-2.47-.7,1.1,1.1,0,0,0-.94-1.26c-.45-.1-.89-.18-1.34-.26.86-1.19,2.21-.14,3.21-.71A11.67,11.67,0,0,0,81.87,131a.39.39,0,0,1,.35,0c.18.14.14.35.07.54a.54.54,0,0,1-.1.16c-.73.92-.72,1-.16,1.76a4.7,4.7,0,0,0,1.87,1.44,8.28,8.28,0,0,0,8.63-1,2.22,2.22,0,0,0,1.09-1.8.73.73,0,0,1,.39-.64A9.31,9.31,0,0,0,98,133.17c.69.16,1.47,0,2,.61a.63.63,0,0,0,.06,1.13c.94.6,1.94,1.12,2.92,1.67C103.48,136.86,104,137.12,104.53,137.39Z"/><path class="cls-35" d="M94,139.07l9.77-.54c.66,0,1.32-.12,2-.2a.7.7,0,0,0,.6-.45,1.87,1.87,0,0,1,1.62.83,29.17,29.17,0,0,1-4.63.74c-1.66.11-1.66.12-2.46,1.68a1.28,1.28,0,0,0-.49-1,3.25,3.25,0,0,0-1.67-.52.86.86,0,0,0-.49.3c-.21.25-.38.54-.57.81a2.71,2.71,0,0,0-2.34-.86c-1.46,0-2.93,0-4.39.07a13.21,13.21,0,0,1-4.21,0,16.6,16.6,0,0,1-3.45-.1c0-.1-.09-.21-.14-.32a.8.8,0,0,1,.64-.23C87.19,139.13,90.61,139.47,94,139.07Z"/><path class="cls-36" d="M111.6,126.65l.06.61a7.27,7.27,0,0,1-1.82,2.27c-.5.51-1,1-1.57,1.46l-.3,0,0-.24a3.21,3.21,0,0,1,.84-1.06Z"/><path class="cls-37" d="M104,132.61a16.33,16.33,0,0,1,3.62-1.55,6.34,6.34,0,0,1-3.63,2C103.74,132.88,103.74,132.75,104,132.61Z"/><path class="cls-38" d="M104,132.61c0,.14,0,.28,0,.42l-.39.12c-.14-.1-.4-.12-.33-.37,0-.07.22-.1.34-.13A2.58,2.58,0,0,1,104,132.61Z"/><path class="cls-39" d="M108,130.71a1.94,1.94,0,0,0,0,.24.4.4,0,0,1-.36.12A.45.45,0,0,1,108,130.71Z"/><path class="cls-40" d="M77.25,132.69a2.64,2.64,0,0,1-1.71.37,2.1,2.1,0,0,0-1.5.34,11.6,11.6,0,0,1-5.18-1.64c-.4-.22-.78-.46-1.17-.7l-.09-.4a3.62,3.62,0,0,1,1.65.6,11.25,11.25,0,0,0,6,1.4C75.94,132.64,76.59,132.68,77.25,132.69Z"/><path class="cls-34" d="M76.36,134.92a.68.68,0,0,1-.5.47A.76.76,0,0,1,76.36,134.92Z"/><path class="cls-41" d="M74,105.44a2.67,2.67,0,0,1,.71-.33c2.11-.37,3.14.44,3.27,2.59a23.54,23.54,0,0,1-.51,4.73,1.28,1.28,0,0,1-.43.86c-.81.47-1.07,1.32-1.53,2a11.84,11.84,0,0,1-2.61,3,4,4,0,0,1-3.25,1.17c-.72-.77-.34-1.63-.16-2.44a26.5,26.5,0,0,1,4.46-9.43C74.5,106.81,74.92,106.18,74,105.44Z"/><path class="cls-42" d="M98.79,105.83c1.24-1.23,1.29-1.24,2.69-.64a9.82,9.82,0,0,1,4.57,4,29.3,29.3,0,0,1,1.82,3.52,8.77,8.77,0,0,1,.51,4.48,2.09,2.09,0,0,1-1.21,1.9,1.31,1.31,0,0,1-2-.93,28.43,28.43,0,0,0-5.94-10.65A1.79,1.79,0,0,1,98.79,105.83Z"/><path class="cls-43" d="M98.79,105.83c.88,1.08,1.71,2.2,2.64,3.23a18.4,18.4,0,0,1,3.43,6c.4,1.06.76,2.13,1.09,3.2a1.12,1.12,0,0,0,1.22.8,1.9,1.9,0,0,1-2,.24,6.57,6.57,0,0,1-2.58-1.46A13.14,13.14,0,0,1,98.15,110,5.23,5.23,0,0,1,98.79,105.83Z"/><path class="cls-44" d="M74,105.44c.66.21,1.45-.32,2,.34a11.51,11.51,0,0,1-1,1.65,25.09,25.09,0,0,0-3.9,6.88,40.42,40.42,0,0,0-1.44,5.15H68.8a4.54,4.54,0,0,1-1.4-4.53,13.71,13.71,0,0,1,4.59-8.4,7.41,7.41,0,0,0,.54-.58Z"/><path class="cls-45" d="M64.83,128.2l.11-.1-.06.16Z"/><path class="cls-46" d="M67.63,130.68l-.38-.12C67.43,130.42,67.55,130.5,67.63,130.68Z"/><path class="cls-43" d="M48.79,99.45l-.41-1.52a10.3,10.3,0,0,1,.12-5.64c.17-.2.31-.51.52-.56,1.51-.37,2.91-1.19,4.55-1.1a10.59,10.59,0,0,1,4.74,1.25A6.64,6.64,0,0,1,61.25,95a8.39,8.39,0,0,1-.39,8.48c-1.24.2-2.26,1-3.5,1.24a8.19,8.19,0,0,1-8-3.21A4,4,0,0,1,48.79,99.45Z"/><path class="cls-47" d="M48.79,99.45c.82.78,1.23,1.86,2.06,2.67a8,8,0,0,0,4.84,2.09,6.46,6.46,0,0,0,3.07-.71c.43-.17.84-.41,1.27-.58s.71.14.83.56A5.38,5.38,0,0,1,58.72,106,9.35,9.35,0,0,1,52,107.85c-3.41-.34-5.8-2.52-6.75-6.2.67-.34,1.51,0,2.18-.54A8,8,0,0,0,48.79,99.45Z"/><path class="cls-48" d="M48.5,92.29c.25.08.6.2.54.47a25.68,25.68,0,0,0-.21,4.11,1.47,1.47,0,0,1-.45,1.06c-.86-.67-2-.51-3-1A9.71,9.71,0,0,1,48.5,92.29Z"/><path class="cls-43" d="M117.08,91.8c5.3-3.46,12.62.5,12.81,5.2a6,6,0,0,0-2.09.45,2.35,2.35,0,0,0-1.24,2.11,1.58,1.58,0,0,0,1.37,1.46c.58.06,1.19,0,1.66.45-1.93,2.54-4.89,3.36-8.36,2.32-3.06-.92-4.62-3-4.83-6.29C116.28,95.54,116.91,93.7,117.08,91.8Z"/><path class="cls-49" d="M117.08,91.8c.58.16,1,.46.76,1.14a14,14,0,0,0-.65,4.69,7.57,7.57,0,0,0,.74,2.86,5.08,5.08,0,0,0,3.21,2.48,7.73,7.73,0,0,0,6.87-.71,3.86,3.86,0,0,1,1.58-.79c.25.08.24.27.18.46a8.66,8.66,0,0,1-7.57,5.91,8.49,8.49,0,0,1-8.32-4.44,7.44,7.44,0,0,1-.89-4.63,10.52,10.52,0,0,0,.23-2.17,1.14,1.14,0,0,1,.11-.58C114.3,94.36,115.1,92.56,117.08,91.8Z"/><path class="cls-50" d="M81.59,147.41c-.4-1-.8-2.1-1.19-3.15-.19-.41,0-.46.36-.4.76,1.53,1.49,3.08,2.28,4.61a30.27,30.27,0,0,0,3.81,5.76,2.3,2.3,0,0,1-1.56-1.07A43.3,43.3,0,0,1,81.59,147.41Z"/><path class="cls-51" d="M92.78,153.42A32,32,0,0,1,95.19,149C94.88,150.74,94.55,152.47,92.78,153.42Z"/><path class="cls-51" d="M95.18,149l.21-.86.24,0A1,1,0,0,1,95.18,149Z"/><path class="cls-51" d="M92.33,153.82a.58.58,0,0,1,.48-.42Z"/><path class="cls-25" d="M95.63,148.19h-.12l-.12,0a.28.28,0,0,1,.19-.3A1.54,1.54,0,0,1,95.63,148.19Z"/><path class="cls-52" d="M94,139.07a2.59,2.59,0,0,1-1.88.36H83.24l-.14-.09,0-.17C86.75,139,90.38,139,94,139.07Z"/><path class="cls-53" d="M80.76,143.86l-.36.4a14.86,14.86,0,0,1-1.57-4.84.7.7,0,0,1,.56.49Z"/><path class="cls-52" d="M86.73,139.9h4.21A9.21,9.21,0,0,1,86.73,139.9Z"/><path class="cls-54" d="M83.12,139.17a.68.68,0,0,1,.12.26h-.11c-.26.38-.77.05-1.06.36a5.61,5.61,0,0,1-.58,0c-.2,0-.37-.15-.34-.37a.41.41,0,0,1,.23-.27A3.12,3.12,0,0,1,83.12,139.17Z"/><path class="cls-55" d="M82.07,139.8a1.05,1.05,0,0,1,1.06-.36,2.75,2.75,0,0,1,.15.36Z"/><path class="cls-56" d="M158.77,47.89a6.77,6.77,0,0,0-.83-.86c-4.09-3.44-8.57-6.1-13.95-6.9a17.76,17.76,0,0,0-12.63,2.52,23.68,23.68,0,0,0-5.23,4.46,65.46,65.46,0,0,0-24-10.79,62.23,62.23,0,0,0-26.17.12A65.21,65.21,0,0,0,52,47.43c-5.72-6.58-12.63-9-21-6.66a29.57,29.57,0,0,0-11.18,6.37,6,6,0,0,0-.55.58,2.71,2.71,0,0,0-.52,3.14c.14.3.27.61.43.9a32.7,32.7,0,0,0,4.71,6.67,15,15,0,0,0,3.55,2.89,11.32,11.32,0,0,0,7.67,1.54c.45-.07.91-.09,1.72-.17-.45.75-.72,1.19-1,1.64-1.45,2.54-3,5-4.34,7.63a46,46,0,0,0-5,22.58,64.82,64.82,0,0,0,1.06,9.51,37.15,37.15,0,0,0,9.93,19.88,7.73,7.73,0,0,1,1.32,2A38.5,38.5,0,0,0,41,129.72c4,6,9.4,9.68,16.6,10.62a7.84,7.84,0,0,1,1,.31c-.29.43-.49.75-.71,1.06-1,1.35-2,2.65-2.93,4a93.89,93.89,0,0,0-9.69,19.86c-1.12,3.27-2.12,6.59-3.15,9.89a20.7,20.7,0,0,0-.58,2.32c-.17.89,0,1.26.87,1.52,1.45.47,2.92.92,4.4,1.28a129.08,129.08,0,0,0,14.75,2.52q9.33,1.14,18.71,1.43,13.1.42,26.17-.27a135.08,135.08,0,0,0,19-2.1c2.8-.55,5.57-1.29,8.34-2a11.35,11.35,0,0,0,2.21-.89,1.19,1.19,0,0,0,.67-1.5c-.08-.39-.2-.78-.31-1.16q-1-3.43-2.08-6.87a97.52,97.52,0,0,0-10.23-22.69,45.18,45.18,0,0,0-4.15-5.85c-.21-.24-.37-.52-.63-.89l1.42-.45c1.14-.35,2.31-.62,3.43-1a22.6,22.6,0,0,0,10.72-8.92,12.58,12.58,0,0,1,2.69-2.9A35.9,35.9,0,0,0,150.07,108,59.61,59.61,0,0,0,152,96a46.73,46.73,0,0,0-5.76-25.75c-1.15-2.1-2.44-4.12-3.65-6.19a6,6,0,0,1-.34-1.08c1.22,0,2.28.09,3.33,0a12.85,12.85,0,0,0,8-4.06,31.69,31.69,0,0,0,5.23-7.26,6.33,6.33,0,0,0,.46-1.11A2.65,2.65,0,0,0,158.77,47.89ZM31.49,61.11a11.26,11.26,0,0,1-5.86-3.21,28.59,28.59,0,0,1-5.11-7.32c-.52-1-.48-1.36.4-2.1,4.63-3.89,9.76-6.67,16-6.79a16.7,16.7,0,0,1,11.18,4.08c.91.75,1.75,1.59,2.74,2.49l-5.3,4.48a4.92,4.92,0,0,1-.54-.47A13.44,13.44,0,0,0,29.6,48.5c-.66.27-1.29.65-1.93,1l.79.46a23.17,23.17,0,0,1,4.79-1.27,12.81,12.81,0,0,1,10.39,3.64c.24.23.49.45.72.69a3.1,3.1,0,0,1,.32.41l-3,3.38-.29.33a.22.22,0,0,0-.18.24s0,0,0,0,0,0,0,0a11,11,0,0,1-1.72.46c-5.19.48-9.27-1.69-12.69-5.4-.58-.63-.45-1.12.3-1.63.44-.3.89-.57,1.34-.85l-.79-.46a8.23,8.23,0,0,0-1.37.75,1.7,1.7,0,0,0-.43,2.61,4.17,4.17,0,0,0,.36.47,16.92,16.92,0,0,0,8.2,5.06,14,14,0,0,0,4.57.29c.35,0,.66,0,.74.45h0L38.11,61A17.94,17.94,0,0,1,31.49,61.11Zm9.23-3.25a2.22,2.22,0,0,0-.37.38,5.55,5.55,0,0,0-.45.63,5.55,5.55,0,0,1,.45-.63A2.22,2.22,0,0,1,40.72,57.86Zm12.05,79.62a17.26,17.26,0,0,1-4.26-2.16,24.09,24.09,0,0,1-9.85-14.72,11.26,11.26,0,0,1-.11-4.9c.57-.35.77.11,1,.42a19.74,19.74,0,0,0,5.49,6,18.14,18.14,0,0,0,8.56,3.52,13.14,13.14,0,0,0,7-1l1-.43c2.53,6.18,7,9.73,13.91,10.3a6.54,6.54,0,0,1-.68.67,23.62,23.62,0,0,1-15.38,3.76A25.76,25.76,0,0,1,52.77,137.48Zm28.88,10.63A24.59,24.59,0,0,0,85,153.54a12.55,12.55,0,0,0,2.32,2.17,3.72,3.72,0,0,0,4.78-.33,10.49,10.49,0,0,0,2.3-3,36.41,36.41,0,0,0,2.87-7c.47-1.52.88-3.07,1.34-4.69l1.65-.21c.09.23.21.36.18.46a47.7,47.7,0,0,1-5.17,12.48,15.89,15.89,0,0,1-2.5,3.09,4.83,4.83,0,0,1-6.23.64A12.76,12.76,0,0,1,83.93,155a18.83,18.83,0,0,1-2.12-2.89c-2.2-3.6-3.55-7.56-5-11.68a5.85,5.85,0,0,1,.86-.06c.33,0,.65.09,1,.15a4.56,4.56,0,0,1,.36.69A47,47,0,0,0,81.65,148.11Zm-1.12-7.37a5.51,5.51,0,0,1,.69-.07c5.18.3,10.37.21,15.55.1.06,0,.12,0,.28.13-.18.74-.36,1.51-.56,2.28A38.75,38.75,0,0,1,93.56,151a14.28,14.28,0,0,1-2,3c-1.25,1.42-2.56,1.5-4,.27a12.57,12.57,0,0,1-2.14-2.35,36.21,36.21,0,0,1-4.93-10.62A2.34,2.34,0,0,1,80.53,140.74Zm-6.1-3.35a1.17,1.17,0,0,1,.15-.34c.91-.87,1.83-1.74,2.77-2.58a2.07,2.07,0,0,1,.73-.29c1.07-.34,2.15-.66,3.22-1a8.83,8.83,0,0,0,13.07-.07l3.81,1.12a2.14,2.14,0,0,1,.69.35c1.07,1,2.13,2,3.18,3C98.36,138.93,79.77,138.83,74.43,137.39Zm25.13-4.74a9.9,9.9,0,0,1-8.41-4.59c-.87-1.33-1.57-2.78-2.34-4.17l-.5.61a14,14,0,0,0,5,7.87c-2.67,3.07-7.09,3.27-11.29.49a8.34,8.34,0,0,1,.78-.79,13.6,13.6,0,0,0,4.82-7.8l.64.23.5-.61c-.18-.57-.27-1.22-1-1.51l-.46,1.11h0c-.3.59-.6,1.18-.91,1.77s-.49.95-.74,1.42c-3.29,6.27-9.43,6.8-13.76,5.33a13.34,13.34,0,0,1-9-9.88,15.89,15.89,0,0,1,.57-9.42A26.7,26.7,0,0,1,84.15,95.59a24.56,24.56,0,0,1,17,3.48,26.64,26.64,0,0,1,11,13,16.15,16.15,0,0,1,.61,10.75A13.35,13.35,0,0,1,99.56,132.65ZM58.46,181.3a58.11,58.11,0,0,1,4.84-4.84,8.58,8.58,0,0,1,1-.65,2,2,0,0,1,2.43.11,18.7,18.7,0,0,1,1.67,1.42c.68.64,1.32,1.32,2,1.95a11.7,11.7,0,0,0,1.39,1.14,3.35,3.35,0,0,0,4.83-.41c.66-.66,1.21-1.42,1.83-2.12a17.92,17.92,0,0,1,1.64-1.73,3.17,3.17,0,0,1,4.21-.27,19.09,19.09,0,0,1,2.29,1.92c.78.73,1.47,1.55,2.26,2.25a3.43,3.43,0,0,0,4.57.38,23.84,23.84,0,0,0,2.74-2.3c.8-.71,1.5-1.52,2.33-2.18a2.08,2.08,0,0,1,3.31.26c.64.77,1.22,1.58,1.89,2.32a17.43,17.43,0,0,0,2.12,2.09,2.52,2.52,0,0,0,3.31-.09,11,11,0,0,0,1.38-1.43c.48-.56.88-1.17,1.36-1.73,1.43-1.68,2.18-1.83,4.11-.65,1.36.82,2.65,1.77,4,2.68.14.75.28,1.46.41,2.16C107.47,183.76,77,184.24,58.46,181.3Zm.4-2.82c1.57-2.22,3.13-4.46,4.73-6.67a6.8,6.8,0,0,1,2-2c.82.16,1.22.8,1.7,1.33,1.2,1.34,2.36,2.71,3.57,4a10.42,10.42,0,0,0,1.45,1.37,2.39,2.39,0,0,0,3.43-.09,17.5,17.5,0,0,0,1.85-2.08c.84-1,1.61-2.12,2.47-3.14a10.77,10.77,0,0,1,1.59-1.5,1.85,1.85,0,0,1,2.4,0,11.87,11.87,0,0,1,1.6,1.49c1,1.09,1.9,2.23,2.85,3.34A15.27,15.27,0,0,0,90,176.2a2,2,0,0,0,2.89.14,15,15,0,0,0,1.77-1.61c1.16-1.2,2.26-2.45,3.45-3.62a10.14,10.14,0,0,1,1.88-1.45,1.63,1.63,0,0,1,2.18.33,11.61,11.61,0,0,1,1.39,1.94c.65,1.08,1.19,2.23,1.83,3.32,1.36,2.31,2.47,2.35,3.91.12.82-1.29,1.52-2.66,2.31-4,.41-.67.9-1.29,1.41-2a7,7,0,0,1,1.24.8,26.4,26.4,0,0,1,1.87,2.08c1,1.23,2,2.49,3,3.73a1.18,1.18,0,0,1,.31,1.37c-.55-.35-1.06-.71-1.61-1-.86-.5-1.72-1-2.62-1.43a2.87,2.87,0,0,0-3.18.45,12.55,12.55,0,0,0-1.52,1.57c-.52.6-1,1.28-1.49,1.87-1.23,1.39-2,1.41-3.31.06-.56-.56-1-1.22-1.54-1.83s-1.07-1.37-1.68-2c-1.48-1.44-2.78-1.58-4.47-.39a29.9,29.9,0,0,0-2.53,2.25A31.31,31.31,0,0,1,93,179.16c-1.37,1-2.15.89-3.39-.23-.74-.67-1.38-1.44-2.12-2.11a18.85,18.85,0,0,0-2.44-2,4.33,4.33,0,0,0-5.7.33,14.09,14.09,0,0,0-1.54,1.55c-.49.55-.92,1.14-1.4,1.7-1.7,2-2.63,2.08-4.67.34-.65-.56-1.25-1.2-1.88-1.79s-1.13-1.13-1.75-1.64c-1.74-1.42-3.3-1.54-5.08-.18a44.55,44.55,0,0,0-3.33,3.13h0Zm61-34.88c1.62,2.76,3.26,5.5,4.85,8.27a99.28,99.28,0,0,1,9,21.51c.41,1.4.84,2.8,1.24,4.21a2.64,2.64,0,0,1,.06.55c-1.78,1.15-9.9,3.12-13.11,3.18a35,35,0,0,0-3-10.27l-.41.44v1c-.35.24-.46-.11-.58-.26-.7-.8-1.36-1.64-2.06-2.44a8,8,0,0,0-1.17-1.08,2,2,0,0,0-3,.36,10.82,10.82,0,0,0-1.11,1.65c-.68,1.14-1.31,2.31-2,3.45-.29.5-.5,1.09-1.24,1.34a10.47,10.47,0,0,1-.78-1.07c-.53-.92-1-1.87-1.54-2.8a16.86,16.86,0,0,0-1.16-1.85c-1.52-2-3.14-2.26-5.16-.82a15,15,0,0,0-2,1.7c-1,1-2,2.15-3,3.2a14.43,14.43,0,0,1-1.47,1.35.94.94,0,0,1-1.42-.1c-.52-.51-1-1.06-1.48-1.62-1-1.15-1.94-2.37-3-3.48-2.61-2.76-4.4-2.73-7,.11-.89,1-1.66,2.07-2.49,3.11-.49.63-1,1.29-1.5,1.87-1,1-1.53,1.05-2.53.15A24.46,24.46,0,0,1,71,173.4c-1-1.14-2-2.33-3-3.46-1.71-1.87-2.74-1.9-4.44,0-1,1.08-1.84,2.27-2.75,3.42-.41.52-.78,1.06-1.28,1.72a2.58,2.58,0,0,1,.07-1.55c.09-.52.13-1.05.19-1.57h0c.17-.65.34-1.3.56-2.11a2.73,2.73,0,0,0-.91,1.65,32.82,32.82,0,0,0-2.1,9.47c-2.53.13-10.93-1.59-13.89-2.84,3.16-13.56,9.32-25.77,16.89-37.31,1.84-.15,3.7-.25,5.55-.47,1-.12,2.08-.43,3.12-.65a4,4,0,0,1,1.16-.19c1.71.21,3.42.47,5.16.72.28.77.51,1.46.78,2.13,1,2.6,2,5.21,3.14,7.77a22.09,22.09,0,0,0,3.23,5.26,12.35,12.35,0,0,0,3.44,3,6.13,6.13,0,0,0,7.73-.77A13.76,13.76,0,0,0,96,154.7a39.09,39.09,0,0,0,2.8-5.27c1.06-2.51,1.89-5.12,2.82-7.68.15-.44.28-.88.46-1.42,1.37-.17,2.75-.38,4.13-.51a5.57,5.57,0,0,1,1.78.09,27.32,27.32,0,0,0,9.32.62,4.55,4.55,0,0,1,.69,0Zm16.45-19.09a25.39,25.39,0,0,1-7.18,9.7,20.44,20.44,0,0,1-9.14,4.21,24.53,24.53,0,0,1-15.06-1.37,40.79,40.79,0,0,1-3.67-2c-.15-.09-.23-.28-.54-.67a14.51,14.51,0,0,0,6-1.5,14.91,14.91,0,0,0,4.7-3.65,20.8,20.8,0,0,0,3-5,40,40,0,0,0,4.06,1.28,14.37,14.37,0,0,0,9.31-1.38,20.17,20.17,0,0,0,8.47-7.38c.27-.43.61-.83,1-1.41a3.79,3.79,0,0,1,.38.82A16.26,16.26,0,0,1,136.28,124.51Zm9.14-50.73a45.72,45.72,0,0,1,3.94,24.72,53.88,53.88,0,0,1-2.14,10.75,32.44,32.44,0,0,1-7.22,12.3c-.34.36-.6.92-1.39.76.14-1,.27-2,.41-2.92a8.83,8.83,0,0,0-.11-3.76,4,4,0,0,0-.46-1.1,1.3,1.3,0,0,0-1.91-.38,5.89,5.89,0,0,0-1.12,1.11c-.49.63-.88,1.34-1.37,2A17.44,17.44,0,0,1,123.79,124c-2.52.55-6.5.16-8.88-1.64,0-.33.1-.71.16-1.09a18.88,18.88,0,0,0-1.29-10.37A27.2,27.2,0,0,0,99,96c-10.64-4.56-20.44-2.66-29.28,4.6a25.39,25.39,0,0,0-7.78,11,18.09,18.09,0,0,0-1.11,9.21c.09.52.13,1.06.2,1.67a8.65,8.65,0,0,1-5.11,1.8A13.38,13.38,0,0,1,48,122.43a18.44,18.44,0,0,1-6.42-5.87,16,16,0,0,0-1.42-1.93c-1.13-1.2-2.41-.92-2.86.64a13.6,13.6,0,0,0-.34,2.56A10.51,10.51,0,0,0,37,119c-.55.13-.69-.23-.87-.47a32.68,32.68,0,0,1-5.47-11.9,57.33,57.33,0,0,1-1.68-13,45.2,45.2,0,0,1,4.59-20.46C40.43,58.72,51.4,48.6,65.74,42a60.56,60.56,0,0,1,20.57-5.3,48.23,48.23,0,0,1,15.43,1.48A65.24,65.24,0,0,1,145.42,73.78Zm6.05-22a3,3,0,0,1-.36.64,16.43,16.43,0,0,1-8.31,5.16,22.89,22.89,0,0,1-4.74.3c-1.47-1.53-2.93-3.07-4.48-4.7a7.48,7.48,0,0,1,.71-.87c4-3.7,8.55-4.55,13.65-2.86.75.25,1.48.57,2.22.86h0C150.57,50.81,151.37,50.94,151.47,51.78Zm5.79-.94A32.26,32.26,0,0,1,153.17,57a12.07,12.07,0,0,1-10.65,4.36l-.79-.07-1.09-.12-1.78-2c.13-.12.26-.34.4-.35.53,0,1.06,0,1.59,0,4.52-.2,8-2.39,11-5.63l.11-.16a1.72,1.72,0,0,0-.26-2.63,4.64,4.64,0,0,0-.85-.47c-6-3.85-12.29-3-18.21,2.5-.84-.69-1.69-1.41-2.54-2.12l-2.59-2.08a6.6,6.6,0,0,1,.67-.92,19.07,19.07,0,0,1,7.91-4.87,18.33,18.33,0,0,1,10.25.13,28.62,28.62,0,0,1,10.39,5.78C157.86,49.18,157.92,49.58,157.26,50.84Z"/><path class="cls-56" d="M118.55,170.35c-.11-.2-.1-.54-.49-.5a2.07,2.07,0,0,0,.34,1.64c.14-.14.27-.29.41-.44A5.3,5.3,0,0,0,118.55,170.35Z"/><path class="cls-56" d="M122.49,87.54a11.81,11.81,0,1,0,11.86,11.75A11.65,11.65,0,0,0,122.49,87.54Zm2.44,22.22a10.56,10.56,0,0,1-12.74-7.82,6.66,6.66,0,0,1-.09-1.22,20.51,20.51,0,0,0,1.23,3.09,9.45,9.45,0,0,0,16.89-.69,4.29,4.29,0,0,1,1.44-2c1.79-1.23,1.65-2.92-.17-4.17-.22-.15-.47-.25-.82-.44A9.82,9.82,0,0,0,126,90.89a9.49,9.49,0,0,0-13.75,6.92c-.29-.67.09-1.23.25-1.83a10.65,10.65,0,1,1,12.45,13.78Zm3.26-13.13a5.88,5.88,0,0,0-1.09.47,2.52,2.52,0,0,0-1.39,2.27,2.4,2.4,0,0,0,1.76,2.19c.55.21,1.14.32,1.72.48-.47,3.06-3.93,5.52-7.68,5.53a8.32,8.32,0,0,1-2-16.36,8.16,8.16,0,0,1,9.81,5.08C128.81,96.43,128.49,96.51,128.19,96.63Zm3,1.42a1.22,1.22,0,0,1,.13,1.9,3.31,3.31,0,0,1-2.57.81,7.45,7.45,0,0,1-1.44-.58,1.1,1.1,0,0,1-.12-1.73A3.19,3.19,0,0,1,131.2,98.05Z"/><path class="cls-56" d="M52.69,87.54a11.81,11.81,0,1,0,11.8,11.83A11.76,11.76,0,0,0,52.69,87.54Zm10.39,9.72c0,1.78.3,3.55-.24,5.33A10.7,10.7,0,0,1,52,110a10.68,10.68,0,1,1,9.93-16A9.17,9.17,0,0,1,63.08,97.26Z"/><path class="cls-56" d="M131,73.3a16.47,16.47,0,0,0-9.88-3.72,7.31,7.31,0,0,0-4,.89,3.23,3.23,0,0,0-1.48,4.26,7,7,0,0,0,2.12,2.84,16.71,16.71,0,0,0,10.09,3.86,9.48,9.48,0,0,0,4-.91,3.3,3.3,0,0,0,1.56-4.08A7.52,7.52,0,0,0,131,73.3Zm-.16,6.43a7,7,0,0,1-2.52.51,14.68,14.68,0,0,1-9.9-3.58,7.28,7.28,0,0,1-1.6-2A2.25,2.25,0,0,1,118,71.23a7.12,7.12,0,0,1,2.93-.52,15.54,15.54,0,0,1,9,3.21,7.11,7.11,0,0,1,2.06,2.4A2.23,2.23,0,0,1,130.8,79.73Z"/><path class="cls-56" d="M44.64,81a20.9,20.9,0,0,0,2.6.45c1-.12,1.87-.19,2.72-.35A15.7,15.7,0,0,0,57,78a11.05,11.05,0,0,0,2.17-2.31c1.63-2.46.69-4.93-2.16-5.73a9.53,9.53,0,0,0-3-.38,16.12,16.12,0,0,0-9.54,3.53,9.63,9.63,0,0,0-2,2.17C40.86,77.78,41.78,80.19,44.64,81Zm-1.55-4.54a7,7,0,0,1,2-2.45A14.48,14.48,0,0,1,51,71.18c1.09-.27,2.22-.39,3.33-.57a8.27,8.27,0,0,1,2.94.63,2.23,2.23,0,0,1,1.2,3.42,7.39,7.39,0,0,1-1.6,2,14.61,14.61,0,0,1-9.9,3.58,7.42,7.42,0,0,1-2.69-.61A2.17,2.17,0,0,1,43.09,76.48Z"/><path class="cls-56" d="M56.12,51.94a5.53,5.53,0,0,0-3.56,2.35c-.88,1.33-1.67,2.72-2.48,4.1-.08.13,0,.36,0,.78A47.55,47.55,0,0,0,56.12,51.94Z"/><path class="cls-56" d="M65,47.45c.62.21,1-.28,1.4-.54A23.94,23.94,0,0,0,72,42.42,9.27,9.27,0,0,0,65,47.45Z"/><path class="cls-56" d="M76.83,43.45a7.37,7.37,0,0,0-2.67,3.46,23.25,23.25,0,0,0,6.17-4.52c.07-.07,0-.24,0-.37A5.62,5.62,0,0,0,76.83,43.45Z"/><path class="cls-56" d="M65.59,55.15c0,.06.06.21.16.5A56.18,56.18,0,0,0,72,49.87a5.48,5.48,0,0,0-1.32.1A12,12,0,0,0,65.59,55.15Z"/><path class="cls-56" d="M58.42,60.32a.26.26,0,0,0,0-.19,1.43,1.43,0,0,0-.2-.51.4.4,0,0,0-.36-.08,1.67,1.67,0,0,0-.51.27,10,10,0,0,0-3.2,5.12A17.5,17.5,0,0,0,58.42,60.32Z"/><path class="cls-56" d="M58.83,56.2a20.59,20.59,0,0,0,4.06-4.86c.06-.1-.06-.32-.11-.51a8.26,8.26,0,0,0-4.29,5.38C58.6,56.21,58.77,56.26,58.83,56.2Z"/><path class="cls-56" d="M35.6,96.36a28.26,28.26,0,0,0,1.15-5.83c0-.18-.2-.39-.38-.72C35,92,35.26,94.21,35.3,96.44,35.48,96.4,35.59,96.4,35.6,96.36Z"/><path class="cls-56" d="M35.86,103c-.06-.21-.16-.54-.62-.3-.27,2.08.66,3.92,1.59,5.77-.15-1.11-.27-2.24-.46-3.34A19.41,19.41,0,0,0,35.86,103Z"/><path class="cls-56" d="M32.26,101.18A9.83,9.83,0,0,0,31.79,95C30.82,97.22,31.57,99.2,32.26,101.18Z"/><path class="cls-56" d="M43.49,67.83a15,15,0,0,0,3.22-4.95C45,64.09,44.4,66.07,43.49,67.83Z"/><path class="cls-56" d="M54.46,177.81a8,8,0,0,0,.74-5.42A8.32,8.32,0,0,0,54.46,177.81Z"/><path class="cls-56" d="M49.91,169c-1.12,1.81-.66,3.77-.67,5.69.11-.15.28-.28.31-.44.28-1.62.55-3.23.8-4.86C50.36,169.25,50.11,169.13,49.91,169Z"/><path class="cls-56" d="M52.89,167.34c-.1.39-.17.78-.24,1.18s-.15.91-.22,1.37-.1.75-.2,1.46c1.21-2.3,1.61-4,1.25-5.73C53.19,166.47,53,166.9,52.89,167.34Z"/><path class="cls-56" d="M104.24,106.08a7,7,0,0,0-2.95-1.6,2.93,2.93,0,0,0-3.6,1.74,13.19,13.19,0,0,0-.55,2.16,14.65,14.65,0,0,0,6,11,5.58,5.58,0,0,0,1.42.72,3.26,3.26,0,0,0,4.69-2.75,7.31,7.31,0,0,0,0-2.38A15.28,15.28,0,0,0,104.24,106.08ZM108,117.54a1.93,1.93,0,0,1-2.54,1.57,4.1,4.1,0,0,1-1.11-.4,6,6,0,0,1-1.17-.75,13.36,13.36,0,0,1-4.87-8.86,6.46,6.46,0,0,1,.25-2.35,1.82,1.82,0,0,1,2-1.34,4.46,4.46,0,0,1,2.72,1.13,13,13,0,0,1,4.42,6.49c.29.94.41,1.93.58,2.74A17.6,17.6,0,0,1,108,117.54Z"/><path class="cls-56" d="M74.39,104.55a7.16,7.16,0,0,0-2.9,1.7A15.36,15.36,0,0,0,66.92,114a7.59,7.59,0,0,0-.11,3.76,3.1,3.1,0,0,0,3.68,2.54,5.41,5.41,0,0,0,2.7-1.21,14.64,14.64,0,0,0,5.54-10.4,15.34,15.34,0,0,0-.3-2A3,3,0,0,0,74.39,104.55Zm3,5.92a13.74,13.74,0,0,1-4.22,7.09A7.63,7.63,0,0,1,70.84,119a2,2,0,0,1-3-1.66,6.57,6.57,0,0,1-.07-2.38,12.94,12.94,0,0,1,4.89-8.41,5.81,5.81,0,0,1,2.11-1,2.05,2.05,0,0,1,2.77,1.8,10.61,10.61,0,0,1,.14,1.36C77.61,109.16,77.56,109.83,77.41,110.47Z"/><path class="cls-56" d="M45.3,94.9a4.77,4.77,0,0,1-1.8,2.25,2.15,2.15,0,0,0-.09,3.79A5,5,0,0,1,45,103.09a9.43,9.43,0,0,0,17.21,0,9.23,9.23,0,0,0,.54-6c-.36-.81-.71-1.63-1.07-2.44a8.7,8.7,0,0,0-8.36-4.71A8.91,8.91,0,0,0,45.3,94.9Zm-1.49,5a1.15,1.15,0,0,1,0-1.75,3.18,3.18,0,0,1,4.3.42,1,1,0,0,1-.16,1.58,6.84,6.84,0,0,1-1.43.63A3.25,3.25,0,0,1,43.81,99.9Zm10.34-9A8.33,8.33,0,0,1,62,98.85a8.43,8.43,0,0,1-6.6,8.6,8.21,8.21,0,0,1-9.55-5.4c.63-.16,1.26-.29,1.87-.5a2.36,2.36,0,0,0,.35-4.44,17.48,17.48,0,0,0-2-.82,6.27,6.27,0,0,1,2.65-3.78A8.24,8.24,0,0,1,54.15,90.94Z"/></g></g></svg>