<svg xmlns="http://www.w3.org/2000/svg" viewBox="0 0 175.83 183.08"><defs><style>.cls-1{fill:#d7e9e6;}.cls-2{fill:#fff;}.cls-3{fill:#f2a817;}.cls-4{fill:#592d4b;}.cls-5{fill:#fbf4e3;}.cls-6{fill:#4c2840;}.cls-7{fill:#f19511;}.cls-8{fill:#5a2c4b;}.cls-9{fill:#4d2840;}.cls-10{fill:#4d2942;}.cls-11{fill:#f08690;}.cls-12{fill:#592f4d;}.cls-13{fill:#faf5e2;}.cls-14{fill:#e9d4b0;}.cls-15{fill:#eddbcc;}.cls-16{fill:#f4d0a9;}.cls-17{fill:#efe6be;}.cls-18{fill:#49897b;}.cls-19{fill:#3f766a;}.cls-20{fill:#592e4b;}.cls-21{fill:#40776b;}.cls-22{fill:#5a2e4c;}.cls-23{fill:#44796d;}.cls-24{fill:#5f324f;}.cls-25{fill:#c2f3f5;}.cls-26{fill:#f8d36d;}.cls-27{fill:#aea0a2;}.cls-28{fill:#7b576b;}.cls-29{fill:#a3b9b6;}.cls-30{fill:#9b778b;}.cls-31{fill:#b9c5ce;}.cls-32{fill:#a0a6a9;}.cls-33{fill:#592e4d;}.cls-34{fill:#f29e96;}.cls-35{fill:#e99890;}.cls-36{fill:#897385;}.cls-37{fill:#a1919d;}.cls-38{fill:#96b0bb;}.cls-39{fill:#aadadf;}.cls-40{fill:#b6c3cb;}.cls-41{fill:#7b4727;}</style></defs><g id="Calque_2" data-name="Calque 2"><g id="OBJECTS"><rect class="cls-1" width="175.83" height="181.36" rx="68.69"/><path class="cls-2" d="M148.09,100.64c-.13.63-.25,1.27-.38,1.91a5,5,0,0,1-.8,2.17,3.77,3.77,0,0,0-.49,1.46c-.65.89-1.64.76-2.54.76a24.55,24.55,0,0,0-4.53.42c-3.38.65-4.16,2.38-2.41,5.37a22.1,22.1,0,0,0,3.2,3.76c.62.65,1.47,1.18,1.43,2.26a25.76,25.76,0,0,1-4.9,6,2.19,2.19,0,0,1-1.2.67c-1.12.49-1.9-.31-2.74-.77-3.09-1.7-6.15-3.45-9.66-4.22s-5.17.77-4.7,4.23a24.87,24.87,0,0,0,2.27,7.2c.38.82,1,1.64.35,2.61-1.71.62-3.42,1.26-5.14,1.86a8.32,8.32,0,0,1-2.45.66,83.91,83.91,0,0,1-40.74-1.78,55.31,55.31,0,0,1-16.28-7.8,11.08,11.08,0,0,1-2.21-2,1.65,1.65,0,0,1-.4-.83,4.83,4.83,0,0,0-.17-1.89c-.39-1.19-.86-2.3-2.2-2.74-3.44,0-4.94-2.4-6.28-5a36.79,36.79,0,0,0-3.4-5.37,10.31,10.31,0,0,1-2-8.83,14.36,14.36,0,0,0-.09-5.35c-.57-3.81,0-7.54.61-11.28a2.09,2.09,0,0,1,1.19-1.72,2.69,2.69,0,0,1,1.74.23c3.94,1.3,10-.38,12.75-3.51,1.75-2,1.19-3.68-1.46-4.32-2.11-.5-4.08.17-6.05.75a23.44,23.44,0,0,0-4.15,2,1.77,1.77,0,0,1-.59.15,1.24,1.24,0,0,1-.6-.12c-.93-.9-.38-1.84,0-2.75a41.73,41.73,0,0,1,5-9.62,53.82,53.82,0,0,1,5.73-7.64c.81-.93,1.57-2,3-2.05,1.63.37,2.68,1.69,4.06,2.48a21.63,21.63,0,0,0,2.47,1.31c2,.85,3,.26,3.24-1.93a23.14,23.14,0,0,0-.63-6.93c-.22-1-.61-2.08.09-3.1,2.18-1.22,4.55-.75,6.8-.49a14.18,14.18,0,0,1,9.53,5.27c1.31,1.58,2.55,3.23,3.92,4.76,2.54,2.82,5.57,4.64,9.54,4.6a9.47,9.47,0,0,0,6.44-2.71c.63-.58,1.15-1.33,2.17-1.18,3.12,2.45,4.19,2.5,7.61.1a34.43,34.43,0,0,0,7.37-6.58c.78-1,1.42-2.29,2.94-2.47a46.11,46.11,0,0,1,4.2,3.7,1,1,0,0,1,.25.53,2.64,2.64,0,0,1-.12.88c-1,2.81-2.14,5.59-2.11,8.65,0,2.51,1.42,3.73,4,3.37A26.76,26.76,0,0,0,134,64.11a4.41,4.41,0,0,1,2.7-.35,37.33,37.33,0,0,1,4.16,6.05,54.48,54.48,0,0,1,6.44,17.45,11.64,11.64,0,0,1,.4,2.94,1.07,1.07,0,0,1-.43.36,23.75,23.75,0,0,0-4.22,1c-2.84,1.29-3.15,3-.81,5.06a37.41,37.41,0,0,0,5.44,3.6A3,3,0,0,1,148.09,100.64Z"/><path class="cls-3" d="M118.56,180.1a12.82,12.82,0,0,1-2.75.44c-2,.16-4,.42-5.94.64-.33,0-.66.09-1,.11-4.51.31-9,.58-13.55.44-2.47-.07-4.9.47-7.37.35-1.59-.07-3.19,0-4.79,0-3.32,0-6.64-.3-10-.45-3.77-.17-7.53-.67-11.28-1.15s-7.49-1.09-11.23-1.66a1.9,1.9,0,0,1-.53-.27c-.73-1.72-.08-3.43.21-5.08a105.8,105.8,0,0,1,6.28-21.92,4.05,4.05,0,0,1,1.26-2,1.85,1.85,0,0,1,.95-.25,31.74,31.74,0,0,1,5.8,2.35c3.09,1.68,6.54,2.15,9.87,3a56.52,56.52,0,0,0,14,1.62c10.86-.07,21.22-2.27,30.19-8.92a2.41,2.41,0,0,1,.71-.37l.32,0c.13,0,.27,0,.39-.06.38-.1.72-.4,1.14-.25s.22.69.35,1a9.37,9.37,0,0,0,.66,1.44c2.28,4,4.52,8.12,6.46,12.33a75.43,75.43,0,0,1,5,13.17,5,5,0,0,0,.26.74c.44,1.12.4,1.32-.71,1.75a36.82,36.82,0,0,1-7.84,2.19,10,10,0,0,1-2.94.39,4,4,0,0,1-1.09-2.3,16.06,16.06,0,0,0-4.38-7.39,64.37,64.37,0,0,1,2,7.32C119.19,178.29,119.44,179.29,118.56,180.1Z"/><path class="cls-4" d="M87.79,17a4.87,4.87,0,0,1,2.43,3.2A5,5,0,0,1,88.41,22a6.3,6.3,0,0,0-2.66,3.14c-.34.86-.44,1.75.5,2.28s1.52-.12,2.09-.7a6,6,0,0,0,1.46-4c.06-.85-.21-1.75.41-2.5a6.81,6.81,0,0,0,1.87-.65,16.23,16.23,0,0,1,10-.49,8.55,8.55,0,0,1,3,1.46,4.81,4.81,0,0,1,1.5,6.65c-.3.57-.85,1-.72,1.79-.65.52-1.1-.12-1.62-.28a8.37,8.37,0,0,0-5.63,0A1.47,1.47,0,0,0,97.46,30c0,.8.64,1.13,1.28,1.31a5.27,5.27,0,0,0,4.33-.87A10.7,10.7,0,0,1,105.86,29a3.2,3.2,0,0,1,1.64.62,16.22,16.22,0,0,1,4.76,4.12,9.22,9.22,0,0,1,1.66,8.4l-.48,1.71a1,1,0,0,1,.11.46,1.68,1.68,0,0,1-.27.68c-.14.21-.29.4-.45.6a16.42,16.42,0,0,1-1.47,1.77,3.33,3.33,0,0,1-.39.36,1.92,1.92,0,0,1-.45.29,7,7,0,0,1-2.34.82l-.16.09.19.07a.59.59,0,0,1,0,.47,4,4,0,0,1-2.92,1.29c-2-1.64-2.86-1.34-3.28,1.14-.22,1.24-.4,2.53-1.82,3.07-.27.06-.54,0-.8,0-4.7.86-6,.32-8.24-3.81a33.57,33.57,0,0,0-7-9.15,15.3,15.3,0,0,0-8.87-4.14c-1.37-.13-2.56-.45-2.47-2.19.08-1.5,1.15-2.35,2.89-2.37,2.38,0,2.56-.22,2.33-2.67-.54-5.85,2-10.37,7.07-12.91A5.86,5.86,0,0,1,87.79,17Z"/><path class="cls-5" d="M48.6,65.41c-.34.57-.66,1.15-1,1.71a56.45,56.45,0,0,0-4.39,9.14,1.1,1.1,0,0,0,.1,1.13.59.59,0,0,1,.11.87,12.05,12.05,0,0,0-1.7,4.32A1.7,1.7,0,0,0,41,83.75c-.07.59-.2,1.18-.26,1.77-.27,2.77-.82,5.54-.52,8.33.16,1.45.23,2.92.49,4.35a5.25,5.25,0,0,1-.13,2.34,9.79,9.79,0,0,0,2.54,9.56,8.85,8.85,0,0,1,1.56,2.29c.82,1.76,1.88,3.37,2.85,5a2.58,2.58,0,0,0,2.75,1.51,2.24,2.24,0,0,1,1.9.39c-.91,1.4-2.55.25-3.63,1.05a25.92,25.92,0,0,0-9,3.82c-.76.49-1.48,1.18-2.52.87a2.58,2.58,0,0,1-1.48-.92A28.05,28.05,0,0,1,31,118.21c.55-1.73,2.23-2.56,3.19-4,1.11-1.63,2.84-3.17,1.7-5.31-1-1.92-3.21-1.78-5.12-2-1.38-.13-2.95.51-4.09-.85a14.93,14.93,0,0,1-.81-4.07,15.36,15.36,0,0,1-.11-1.79,2.47,2.47,0,0,1,1.52-1.7,14.43,14.43,0,0,0,3-2.28c1.63-1.59,1.46-2.88-.42-4.19-.95-.66-2.33-.68-2.85-2a1.45,1.45,0,0,1-.69-1.7,65.09,65.09,0,0,1,2.51-9.62A73.32,73.32,0,0,1,34.9,66.08a6,6,0,0,1,1.57-2,3.49,3.49,0,0,1,2.12.41c3.07,1.33,6.2,1.91,9.46.67A1,1,0,0,1,48.6,65.41Z"/><path class="cls-2" d="M64.19,152.12a30.92,30.92,0,0,1-5.25-2.29c-1.09-1.84,0-3.13,1.14-4.37,1.94-.83,3.76.22,5.62.43a29,29,0,0,0,7.09,0,2.13,2.13,0,0,0,.77-.48,1.52,1.52,0,0,1,.94-.83c2.55-.22,5,.57,7.49.8a66.9,66.9,0,0,0,16.67-.47,5.28,5.28,0,0,1,1.19-.11,2.23,2.23,0,0,1,.67.14,6.32,6.32,0,0,1,1.07.77c2.16,1.26,4.41.47,6.61.22a65.36,65.36,0,0,0,9-1.9,3.28,3.28,0,0,1,2.33,0c1,.89.78,1.88.26,2.91h0a47.38,47.38,0,0,1-21.88,8.89C86.27,157.51,75.16,155.67,64.19,152.12Z"/><path class="cls-5" d="M100.15,54.57a4.93,4.93,0,0,0,1.2-3.25c.08-.78.08-1.57.13-2.48.66.1,1.28.22,1.9.26s1.32,0,2,0c.39.53-.14,1,0,1.51.89,2.05-.3,4-.24,6a1.25,1.25,0,0,1-.63,1.16,1.74,1.74,0,0,0-1.12.75,9.37,9.37,0,0,1-7.59,3.68c-4.41,0-7.74-2-10.44-5.27-1.39-1.69-2.68-3.47-4.16-5.08a13.76,13.76,0,0,0-6.57-4,12.68,12.68,0,0,0-3.73-.51c-1.6.07-3.2,0-4.79.05a.57.57,0,0,1-.61-.1c-1-1.87-2.19-3.72-1.39-6a1.41,1.41,0,0,1,1-1.1c1.23-.48,2.45-1,3.68-1.48.46-1.36,1.6-1.26,2.64-1.11a19.2,19.2,0,0,1,12.33,6.69,25.35,25.35,0,0,1,3.35,4.95,23.89,23.89,0,0,0,4.3,5.47,5.14,5.14,0,0,0,6.55.81A7.79,7.79,0,0,1,100.15,54.57Z"/><path class="cls-6" d="M100.15,54.57a5.61,5.61,0,0,1-4.4,2.67,8.06,8.06,0,0,1-2.51-.42,8.83,8.83,0,0,1-1.8-.82c-.29-.15-.67-.34-.75-.6-.29-1-1.13-1.45-1.71-2.16a15.55,15.55,0,0,1-2.08-2.85,30.18,30.18,0,0,0-3.37-5.17,18.24,18.24,0,0,0-11.61-6.73,4.58,4.58,0,0,0-3.11.27,1.23,1.23,0,0,1-1.12-1A12.9,12.9,0,0,1,68,30.33a4.52,4.52,0,0,1,4-3.19c1.26-.09,1.69-.7,2.07-1.73a15.66,15.66,0,0,1,6.72-7.9,8,8,0,0,1,3.91-1.36,3.92,3.92,0,0,1,3.16.85A4.74,4.74,0,0,1,86,18.15c-.94.5-1.89,1-2.78,1.56a9.6,9.6,0,0,0-3.47,4.48c-.7,1.63-.65,3.37-1,5a4,4,0,0,0,.16,1.16,14.63,14.63,0,0,1,.13,2,1.74,1.74,0,0,1-2.08,1.84A8,8,0,0,1,75.51,34a1.34,1.34,0,0,0-1.46.36,2.15,2.15,0,0,0-.51,2.21.75.75,0,0,0,.41.39,2.54,2.54,0,0,0,.78.12c4,.06,7.25,1.85,10.12,4.47.19.18.36.39.56.57,2.83,2.42,4.71,5.54,6.47,8.75a18.62,18.62,0,0,0,1.49,2.35,3.41,3.41,0,0,0,2.91,1.45,7,7,0,0,0,2.37-.23A1.39,1.39,0,0,1,100.15,54.57Z"/><path class="cls-5" d="M54.19,125a1.89,1.89,0,0,1,1.07.49,35.67,35.67,0,0,0,7,4.56,59.93,59.93,0,0,0,8.58,3.75,70.9,70.9,0,0,0,11.4,2.84c2.16.35,4.34.55,6.51.82,5.18.64,10.36.24,15.54.29a41.35,41.35,0,0,0,5.73-.64,20.1,20.1,0,0,1,3.38-.08,9.7,9.7,0,0,1-3.39,1.09,83.1,83.1,0,0,1-10.41,1.73,155.66,155.66,0,0,1-18.32.78,72.79,72.79,0,0,1-7.93-.73,91.69,91.69,0,0,1-12.29-2.51,52.65,52.65,0,0,1-9.36-3.41,1.82,1.82,0,0,1-.33-1.86,49.32,49.32,0,0,1,2-6.62A1.14,1.14,0,0,1,54.19,125Z"/><path class="cls-7" d="M58.19,149.74c-1.15,3.11-2.39,6.19-3.42,9.34a108.09,108.09,0,0,0-3.68,14.85,26.08,26.08,0,0,0-.5,3.53,1.45,1.45,0,0,1-.42,1.08,25.16,25.16,0,0,1-4-.53c-1.51-.17-3-.48-4.52-.73-.76-.12-1.06-.57-.82-1.24.84-2.46,1.7-4.91,2.54-7.36a121.7,121.7,0,0,1,8.63-19.3,5.22,5.22,0,0,0,.65-1.65c.09-.46.49-.58.94-.44.62.21,1,.86,1.79.79l.25-.05a2.08,2.08,0,0,1,1,.11C57.38,148.51,58.33,148.62,58.19,149.74Z"/><path class="cls-2" d="M12.62,51c.08-.11.12-.25.22-.33a15.19,15.19,0,0,1,11.52-4,16.49,16.49,0,0,1,6.06,1.82,30,30,0,0,1,7.81,6.09,3.94,3.94,0,0,1,1.22,3.6,2.62,2.62,0,0,1-2.19,3A25.24,25.24,0,0,0,24.76,56a8.25,8.25,0,0,0-5.75,1C16.41,57.31,12.39,53.59,12.62,51Z"/><path class="cls-2" d="M135.37,60.22c-.7-.79-1.42-1.58-2.1-2.39a.57.57,0,0,1,.06-.88,25.5,25.5,0,0,0,2.49-2.82c2.86-3.14,6.09-5.71,10.31-6.82a13.68,13.68,0,0,1,4.93-.3,17.35,17.35,0,0,1,8,2.88A3.06,3.06,0,0,1,160.14,51a1,1,0,0,1,0,1,18.15,18.15,0,0,1-4.82,4.71,1.76,1.76,0,0,1-1.35.19c-4.1-2-8-.74-11.9.68a37.63,37.63,0,0,0-4.43,2.25C136.91,60.16,136.22,60.65,135.37,60.22Z"/><path class="cls-4" d="M121,134.47a56.21,56.21,0,0,1-2.56-6,23.14,23.14,0,0,1-.9-3.87,6.23,6.23,0,0,1,.3-2.94,3.27,3.27,0,0,1,3.15-2.31,3.73,3.73,0,0,1,1.38.1,42.18,42.18,0,0,1,4.72,1.47,68.5,68.5,0,0,1,8.39,4.53,5.19,5.19,0,0,1,.36.46c.24.43.11,1-.25.94-1.05-.09-1.7.61-2.46,1.11-2.82,1.83-5.64,3.68-8.64,5.23A9.91,9.91,0,0,1,121,134.47Z"/><path class="cls-6" d="M53.83,125.43a17.71,17.71,0,0,1-1,4.55c-.35,1.32-.72,2.64-1.08,4-.26,0-.55.17-.76.1a24,24,0,0,1-2.6-1,55,55,0,0,1-10-5.8c-.31-.24-.58-.56-1-.58s-.85.11-1-.43.32-.69.54-1a1,1,0,0,0,.07-.18,31.9,31.9,0,0,1,9.89-5.12,11.14,11.14,0,0,1,1.15-.23C51,119.53,54.08,122.56,53.83,125.43Z"/><path class="cls-5" d="M100.61,145.3a49.79,49.79,0,0,1-5.28.91c-3.39.5-6.77.23-10.15.33a9.07,9.07,0,0,1-2.37-.22,14.43,14.43,0,0,0-2-.18A30.45,30.45,0,0,1,74.2,145c-.48-.18-.66-.64-.94-1-.36-1.11-1.5-1.84-1.52-3.12a2.29,2.29,0,0,1,1.74-.15c2.44.35,4.89.52,7.34.73,3.19.26,6.37.33,9.57.35a65.38,65.38,0,0,0,10.91-1c.46-.08.91-.25,1.32.11A4.66,4.66,0,0,1,100.61,145.3Z"/><path class="cls-6" d="M64.1,41.34q.75,2.44,1.49,4.89a11.11,11.11,0,0,1,.22,1.15,1.62,1.62,0,0,1-.5,2.12c-2.5,2-5.06,4-7.68,5.91a1.63,1.63,0,0,1-1,.21c-.46,0-1,.2-1.35-.12-2-1.75-4.36-3.28-5.1-6.11,0-.32,0-.66.32-.9A60.72,60.72,0,0,1,59,42.94c1.34-.69,2.72-1.34,4.08-2C63.57,40.69,63.77,41.18,64.1,41.34Z"/><path class="cls-4" d="M104.5,57.81c0-.39,0-.79.07-1.19.13,0,.32-.09.34-.18.68-3.25,2.91-4.73,5.92-5.65a6.86,6.86,0,0,0,4.37-4.35c.28-.73.51-1.54,1.37-1.85a31.76,31.76,0,0,1,5.58,3.66c.09.07.12.23.18.35a41,41,0,0,1-9.9,9.68,14.71,14.71,0,0,1-2.77,1.54,8.17,8.17,0,0,1-1.51.45c-1.76.3-2.56-.13-3.34-1.73C104.69,58.31,104.6,58.06,104.5,57.81Z"/><path class="cls-4" d="M126.29,52.71l.24-.41a1.07,1.07,0,0,1,1.07.32c2.24,2.42,4.52,4.8,6.6,7.38.32.4.55.91,1.11,1.07v0c0,.51.38.81.65,1.17a2.89,2.89,0,0,1,.79,1.54,34.48,34.48,0,0,1-7.45,2.67,7.93,7.93,0,0,1-2.38.14,3.23,3.23,0,0,1-3.18-3.2,15.08,15.08,0,0,1,.6-5.3,42.52,42.52,0,0,1,1.89-5.24Z"/><path class="cls-6" d="M37.37,60.94l2.08-2.69c1.78-1.78,3.7-3.4,5.33-5.31.36-.43.59-.41,1.09.1l.26.3a2,2,0,0,1,1.27,1.43,33.52,33.52,0,0,1,1.87,7.52,4,4,0,0,1-1.08,3.11A3.9,3.9,0,0,1,45,66.74a16.57,16.57,0,0,1-8-2.16,3.25,3.25,0,0,1-.59-.53c-.26-.63.05-1.23.09-1.85,0-.09,0-.18,0-.27C36.57,61.4,37,61.16,37.37,60.94Z"/><path class="cls-8" d="M141.57,118.75a24.88,24.88,0,0,1-4.9-4.93,8.78,8.78,0,0,1-1.45-2.82,2.89,2.89,0,0,1,1.26-3.45,5.93,5.93,0,0,1,2.4-.93,27.75,27.75,0,0,1,3.16-.34c1.46-.08,2.92-.07,4.38-.1,1,.79,1,.82.49,1.68a6.68,6.68,0,0,0-.52,1.48,50.49,50.49,0,0,1-3.23,8,10.91,10.91,0,0,1-.7,1.19C142.24,118.93,141.89,118.81,141.57,118.75Z"/><path class="cls-6" d="M26.64,106.11a41.19,41.19,0,0,1,5,.07,10.88,10.88,0,0,1,3.47.83,3.12,3.12,0,0,1,1.94,4,2.86,2.86,0,0,1-.27.74A17.52,17.52,0,0,1,31,118.21a3.73,3.73,0,0,1-1.9-1.93,33.41,33.41,0,0,1-2.8-7.38c-.13-.51-.26-1-.4-1.52C25.66,106.68,25.66,106.68,26.64,106.11Z"/><path class="cls-5" d="M154.14,56.62a7.12,7.12,0,0,0,1.34-.81,49.11,49.11,0,0,0,4.66-4.8l.51.29a.93.93,0,0,1,.51,1.16A8.19,8.19,0,0,1,160,55c-3.55,5.18-8.22,8.74-14.5,10-1.68.32-3.39.52-5.09.77a1.44,1.44,0,0,1-1.56-.63,31.1,31.1,0,0,1-2.37-3.64,1.33,1.33,0,0,1,1.14-.53c5.51.65,10.42-1.06,15.07-3.82A2.12,2.12,0,0,1,154.14,56.62Z"/><path class="cls-5" d="M12.62,51a2,2,0,0,0,.76,1.74,61.48,61.48,0,0,0,4.89,3.94c.07,0,.24-.06.36-.1.72-.29,1.22.11,1.71.55a14.59,14.59,0,0,0,6.55,3c2.88.58,5.79,1.21,8.78.61.65.24,1.41.41.92,1.4h0a5.41,5.41,0,0,0-2,2.41,1.1,1.1,0,0,1-1.08.74,13.51,13.51,0,0,1-2.38,0c-1.58-.22-3.14-.53-4.7-.87a4.83,4.83,0,0,0-2.32-.33c-.48.12-.89-.22-1.31-.4a21,21,0,0,1-7.45-5.87c-.6-.7-1.2-1.42-1.77-2.15a5,5,0,0,1-1.36-3.83A1.34,1.34,0,0,1,12.62,51Z"/><path class="cls-5" d="M48.19,65.4A10.21,10.21,0,0,0,48,59.76c-.42-1.72-1-3.4-1.48-5.1l-.39-1.32A3.06,3.06,0,0,1,47.21,52c1-.84,2-1.71,3-2.57.84.93,1.66,1.89,2.52,2.8a16.84,16.84,0,0,0,3.69,3.31l.3.13-.28.18a48.16,48.16,0,0,0-5.8,6.71c-.72.93-1.37,1.93-2.06,2.89Z"/><path class="cls-9" d="M71.74,140.83a4.06,4.06,0,0,1,2.07,2.84c.07,1.64-.32,2.07-2,2A25.44,25.44,0,0,1,66,144.39c-1.83-.59-3.54-1.15-4.91.84-.16.24-.59.29-.91.37A3.57,3.57,0,0,1,55.65,144c-.09-.24-.34-.54-.14-.73,1.36-1.37,2.11-3.19,3.41-4.61a1.11,1.11,0,0,1,1.21-.41l1.55.34c.49.36,1.22-.15,1.65.43a15.14,15.14,0,0,0,3.65.66A23.42,23.42,0,0,1,71.74,140.83Z"/><path class="cls-9" d="M100.61,145.3a15,15,0,0,1,2-4.42,5,5,0,0,1,2.53-1A57.69,57.69,0,0,0,114,137.9a1.85,1.85,0,0,1,2.25.76,6.16,6.16,0,0,1,1.09,1.87c.46,1.16-.29,1.78-1.15,2.14a52.61,52.61,0,0,1-13.17,3.44,4,4,0,0,1-1.91-.41,1.64,1.64,0,0,1-.53-.41Z"/><path class="cls-9" d="M116.57,44.59c-.13.44-.26.88-.38,1.33-.93,3.43-3.46,5.17-6.61,6.26-2.07.11-3,1.42-3.5,3.23a16.29,16.29,0,0,1-.86,2l-.65-.81a13.36,13.36,0,0,1,.8-6,2.49,2.49,0,0,1,2.09-1.23c.23,0,.47-.2.71-.3.49-1,1.7-1,2.41-1.67l0,0a2,2,0,0,1,.44-.27,4.87,4.87,0,0,0,1.39-1.64,9.09,9.09,0,0,1,.82-.93l.36-.32.22-.11A2.16,2.16,0,0,1,116.57,44.59Z"/><path class="cls-10" d="M27,90.12a11.33,11.33,0,0,1,3,1.11,8.66,8.66,0,0,1,1.47,1,2.45,2.45,0,0,1,.33,3.56,16.14,16.14,0,0,1-4.28,3.52c-.55.35-1.15.63-1.73.94a2,2,0,0,1-.6-1.43,45.91,45.91,0,0,1,.31-8.12.56.56,0,0,1,.54-.49C26.3,90.16,26.63,90.15,27,90.12Z"/><path class="cls-11" d="M137.69,61.44H136.5a2.33,2.33,0,0,0-1.2-.38v0l.06-.85c2.27-1.24,4.51-2.54,6.82-3.68a12,12,0,0,1,3.05-.86,20,20,0,0,1,5.71-.6c.6.06,1.18.18,1.77.29a1.8,1.8,0,0,1,1.42,1.25,2,2,0,0,1-.81.8,22.92,22.92,0,0,1-5.39,1.29,19.76,19.76,0,0,0-5.86,1.87A7.35,7.35,0,0,1,137.69,61.44Z"/><path class="cls-12" d="M100.9,145.37c2.48.15,4.85-.56,7.25-1a58,58,0,0,0,7.42-2.2c.83-.28,1.67-.55,1.8-1.61a9.36,9.36,0,0,1,2.11,3.5,6,6,0,0,1-2,.79,67,67,0,0,1-12.07,2.31,15.72,15.72,0,0,1-2.17,0,3.29,3.29,0,0,1-2.3-1A.62.62,0,0,1,100.9,145.37Z"/><path class="cls-7" d="M118.56,180.1a24.18,24.18,0,0,0-1.34-7c-.35-1.2-.69-2.41-1-3.63a.6.6,0,0,1,.17-.53.63.63,0,0,1,.55,0,5.94,5.94,0,0,1,2,1.85,17.24,17.24,0,0,1,3.33,6.7,8.83,8.83,0,0,1,.24,2.16A17.77,17.77,0,0,1,118.56,180.1Z"/><path class="cls-13" d="M55.65,144a14.8,14.8,0,0,0,4.45,1.4c.3,0,.34.11.11.31a4.44,4.44,0,0,1-.64,1.65,5.06,5.06,0,0,0-.63,2.46l-.75-.09-2-1.21c-.21-.23-.61-.12-.77-.44h0c-.32-.59-1-.85-1.39-1.32-.19-.21-.29-.56-.11-.71C54.62,145.46,54.77,144.43,55.65,144Z"/><path class="cls-14" d="M148.09,100.64l-.38-.15c-1.35-1.82-.86-3.78-.43-5.74a1.18,1.18,0,0,1,.92-.6,11.36,11.36,0,0,1,.15,5.12C148.3,99.73,148.18,100.18,148.09,100.64Z"/><path class="cls-15" d="M148.2,94.15l-.39.45c-1.39-1.59-1.52-2.66-.53-4.39h.46a1.79,1.79,0,0,1,.39,1.26C148.15,92.36,148.17,93.25,148.2,94.15Z"/><path class="cls-16" d="M63.33,139c-.57-.05-1.21.12-1.65-.43C62.27,138.58,62.91,138.4,63.33,139Z"/><path class="cls-17" d="M113.27,44.22l.17-.4.33.35-.12.12A.24.24,0,0,1,113.27,44.22Z"/><path class="cls-4" d="M69.28,103.73a6.33,6.33,0,0,1,2-1.89,26.37,26.37,0,0,1,12.23-4.92,22.2,22.2,0,0,1,8.85.75,23.67,23.67,0,0,1,8.87,4.36,15.79,15.79,0,0,1,6,10.89,12.93,12.93,0,0,1-3.89,11.25A11.38,11.38,0,0,1,91.89,127c-.57-.15-1.14-.32-1.71-.48l-.22,0a1.25,1.25,0,0,1-.42-.08,5.48,5.48,0,0,1-.6-.29,3.11,3.11,0,0,1-.38-.25,3.51,3.51,0,0,1-.56-.46,4.78,4.78,0,0,0-1.69-1.11,27.18,27.18,0,0,1-5,1.2c-3.11.22-6.19.63-9.15-.94a10.64,10.64,0,0,1-5.35-7.08A14.76,14.76,0,0,1,68.74,105,2,2,0,0,0,69.28,103.73Z"/><path class="cls-18" d="M47.45,103.78a4.1,4.1,0,0,0-.46-2A9.9,9.9,0,0,1,48.65,95a6.3,6.3,0,0,1,3.59-.86,8.81,8.81,0,0,1,8.42,6.14,7,7,0,0,1-.43,5.58A9.31,9.31,0,0,1,52.31,108C49.86,107.6,48,106.4,47.45,103.78Z"/><path class="cls-4" d="M119.85,73.73a16.58,16.58,0,0,1,8.52,2.86,6.66,6.66,0,0,1,3.08,4.23,1.28,1.28,0,0,1-.13,1.11,4.38,4.38,0,0,1-2.86,2,10.68,10.68,0,0,1-4.74-.1,17,17,0,0,1-6.5-2.87,6.68,6.68,0,0,1-2.3-2.7c-.72-1.68-.24-3.11,1.46-3.73C117.53,74.09,118.66,73.36,119.85,73.73Z"/><path class="cls-6" d="M69.28,103.73a.67.67,0,0,1,.26.86c-.33.72-.7,1.43-1,2.15a14.42,14.42,0,0,0-.5,11.92c.19.49.35,1,.58,1.48,1.22,2.5,3.48,3.72,5.91,4.7a1,1,0,0,0,.39.08,36.57,36.57,0,0,0,6.94-.19,3.62,3.62,0,0,1,1.57-.09,1,1,0,0,0,1.26-.65,6.24,6.24,0,0,1,.49-.87c.36-.52.89-.5,1.28.06a10.59,10.59,0,0,1,.58,1,8.76,8.76,0,0,1,1.55,1.3,1.41,1.41,0,0,1,.42.26l0,0c.27.19.55.36.81.57a1.2,1.2,0,0,1,.42.25v-.06a1.69,1.69,0,0,1-1,1.93,8,8,0,0,1-7.61,0,1.54,1.54,0,0,1-1-1.53.59.59,0,0,1,.41-.24s-.08-.07-.09-.06c-.23.16-.55.09-.73.32a12.5,12.5,0,0,1-7.63-.08,10.43,10.43,0,0,1-7.82-8.44A15.75,15.75,0,0,1,69.28,103.73Z"/><path class="cls-4" d="M41.7,82.58a2.36,2.36,0,0,1-.26-2.39,10.17,10.17,0,0,1,1.85-2.8l.1-.08a.77.77,0,0,0,.36-.31,19.57,19.57,0,0,1,8.13-3.08,7.17,7.17,0,0,1,4.09.47,2.82,2.82,0,0,1,1.42,4.27,7.35,7.35,0,0,1-3,2.83,17.06,17.06,0,0,1-5.17,2,8.05,8.05,0,0,0-1,.27A6.59,6.59,0,0,1,41.7,82.58Z"/><path class="cls-18" d="M116.22,95.37c2.67-1.68,5.42-1.43,8.12-.18a6.59,6.59,0,0,1,4,5.11c-.43.48-1.09.43-1.59.72a2.82,2.82,0,0,0-1.52,2,1,1,0,0,0,.72,1.23,5.47,5.47,0,0,0,2.12.4c.4,0,.43.19.14.83-1.27.38-2.42,1.09-3.7,1.48a7.08,7.08,0,0,1-9.23-8.32A18.3,18.3,0,0,1,116.22,95.37Z"/><path class="cls-19" d="M116.22,95.37c.32.13.64.29.53.7-.24,1-.51,1.93-.79,2.89-1.16,4.07,2.84,8.57,7.64,7.46a12.83,12.83,0,0,0,2.77-1.14c.62-.3,1.26-.46,1.81.17-1.54,4.26-4.85,6.1-9.24,5.78-6-.43-9.2-8.22-6-12.9a11.84,11.84,0,0,1,2.07-2.4A1.9,1.9,0,0,1,116.22,95.37Z"/><path class="cls-20" d="M56.46,55.81c0-.11,0-.21,0-.31,1.65-1.29,3.3-2.6,5-3.88,1.2-.93,2.39-1.87,3.62-2.74a1.78,1.78,0,0,0,.79-1.5.74.74,0,0,0,.29.08c.36,1.82.72,3.63,1.07,5.45a17.6,17.6,0,0,1,.2,4.75c-.21,2.61-1.65,3.49-4.07,2.52a18,18,0,0,1-3.61-2.08Z"/><path class="cls-21" d="M47.45,103.78a1.37,1.37,0,0,1,1,.89c1,1.89,2.66,2.51,4.59,2.7a9.47,9.47,0,0,0,5.58-1.18c.48-.26,1-.82,1.62-.34A6.65,6.65,0,0,1,56.82,110a9.18,9.18,0,0,1-9.46,0,7.45,7.45,0,0,1-3.55-5.28C45.11,104.43,46.52,105,47.45,103.78Z"/><path class="cls-22" d="M147.28,90.21c.18,1.46.35,2.93.53,4.39.16,2-.08,3.93-.1,5.89a1.4,1.4,0,0,1-1.15-.11,33.45,33.45,0,0,1-5.24-3.58,6.48,6.48,0,0,1-1.15-1.36,2.21,2.21,0,0,1,.09-2.61A5.72,5.72,0,0,1,142.57,91a18.69,18.69,0,0,1,4-1.1C146.77,89.86,147,90.1,147.28,90.21Z"/><path class="cls-23" d="M48.65,95a.75.75,0,0,1,.16.74,38.18,38.18,0,0,0-1.44,5.36,3.08,3.08,0,0,1-.38.68,4.4,4.4,0,0,0-2.06-1.1c-.82-.34-.91-.52-.49-1.33A9.48,9.48,0,0,1,48.65,95Z"/><path class="cls-24" d="M53.83,125.43a2.7,2.7,0,0,0-.88-1.92c-1-1-2-1.94-3-3a2.73,2.73,0,0,0-1.94-.85,7.44,7.44,0,0,1,4.15-.39,4.63,4.63,0,0,1,2,3.25,1.76,1.76,0,0,1,0,1.58l0,.81Z"/><path class="cls-25" d="M80.16,127a4.57,4.57,0,0,1,1.61-.9c.12.11.16.21.11.31s-.09.15-.14.15c-.36.21-.69.53-1.17.42Z"/><path class="cls-5" d="M54.22,124.15a3.66,3.66,0,0,1,0-1.58A1.07,1.07,0,0,1,54.22,124.15Z"/><path class="cls-5" d="M43.75,77a.35.35,0,0,1-.36.31Z"/><polygon class="cls-26" points="126.29 52.7 126.33 52.81 126.22 52.84 126.19 52.73 126.29 52.7"/><path class="cls-26" d="M64.19,152.12a5.4,5.4,0,0,1,2.14.41,116.12,116.12,0,0,0,14,3.09,54.25,54.25,0,0,0,14.12.23c2.58-.28,5.14-.62,7.69-1.12a45.82,45.82,0,0,0,13.45-5.42,29.27,29.27,0,0,1,4.13-2.38,4,4,0,0,1-1.67,1.66,45.34,45.34,0,0,1-13.89,6.35,46.52,46.52,0,0,1-11,1.64c-.79,0-1.58.25-2.37.28a18.4,18.4,0,0,1-4.57-.18,5.45,5.45,0,0,0-1-.1,63.8,63.8,0,0,1-15.11-2.36c-1.41-.38-2.82-.79-4.22-1.2A2.92,2.92,0,0,1,64.19,152.12Z"/><path class="cls-6" d="M105.86,29a8.26,8.26,0,0,1-4.35,3,7,7,0,0,1-2.57.22,3,3,0,0,1-.77-.2c-1-.38-2-1.43-1.82-2.16a2.74,2.74,0,0,1,1.88-1.91,9.35,9.35,0,0,1,4.92-.35,3.1,3.1,0,0,0,.58.15A2.62,2.62,0,0,1,105.84,29Z"/><path class="cls-6" d="M90.21,20.2a8.26,8.26,0,0,1-.27,5.63A4.73,4.73,0,0,1,88,28.07a1.81,1.81,0,0,1-2.38.08,2.31,2.31,0,0,1-1-2.43,5.89,5.89,0,0,1,.57-1.48,6.8,6.8,0,0,1,3-3c.66-.3,1.17-.9,1.93-1Z"/><path class="cls-6" d="M95,43.53a1.58,1.58,0,0,1,.9-1.46,1.68,1.68,0,0,1,1.87.06,7.91,7.91,0,0,1,1.31,1.21,10.23,10.23,0,0,1,2.14,4.4.5.5,0,0,1-.61.56c-.75-.26-1.49-.51-2.23-.79a6.08,6.08,0,0,1-2.65-2A3.18,3.18,0,0,1,95,43.53Z"/><path class="cls-27" d="M110.58,47.42c-.14.56-.64.75-1.07,1s-.89.45-1.34.68l-.45-.08c-.21-.16-.2-.3,0-.42A8.91,8.91,0,0,1,110.58,47.42Z"/><path class="cls-28" d="M112.56,45.51a3,3,0,0,1-1.65,1.89.42.42,0,0,1,0-.5c.53-.62,1.06-1.25,1.58-1.88C112.75,45.18,112.76,45.34,112.56,45.51Z"/><path class="cls-29" d="M107.77,48.59c0,.14,0,.28,0,.42a2.74,2.74,0,0,1-.57,0c-.1,0-.19-.13-.28-.2a1.29,1.29,0,0,1,.32-.18A3.68,3.68,0,0,1,107.77,48.59Z"/><path class="cls-30" d="M112.56,45.51c0-.16,0-.33,0-.49l.4-.39a.27.27,0,0,1,.46,0A1.7,1.7,0,0,1,112.56,45.51Z"/><path class="cls-31" d="M113.4,44.64h-.46c0-.21.08-.39.33-.41a.57.57,0,0,1,.38.07Z"/><path class="cls-32" d="M111,46.9c0,.17,0,.33,0,.5l-.18.05h-.19C110.56,47.17,110.76,47,111,46.9Z"/><path class="cls-33" d="M60.21,145.72c0-.1-.07-.2-.11-.31.84-.43,1.06-1.32,1.49-2s.77-.91,1.64-.66c1.33.37,2.65.82,4,1.17s2.69.65,4,.94a5.76,5.76,0,0,0,1.18.11c.94,0,1-.08,1.36-1.26.39.35.25.85.39,1.28,0,.4,0,.81,0,1.21a1.27,1.27,0,0,0-.27.34A4.26,4.26,0,0,1,72,147a32.58,32.58,0,0,1-10.22-1A4.39,4.39,0,0,0,60.21,145.72Z"/><path class="cls-5" d="M100.9,145.37c0,.25,0,.5,0,.75a.76.76,0,0,1-.31-.83A1,1,0,0,1,100.9,145.37Z"/><path class="cls-5" d="M73.89,146.5a.33.33,0,0,1,.27-.34Z"/><path class="cls-26" d="M55.44,148.09a.86.86,0,0,1,.77.44A.74.74,0,0,1,55.44,148.09Z"/><path class="cls-11" d="M19.72,57.47l-1.09-.86a1.11,1.11,0,0,1,1-1,16,16,0,0,1,4.53-.46,29,29,0,0,1,11.74,4,4,4,0,0,1,1.45,1.81,1.91,1.91,0,0,1-.78,1.26c-.17-.73-.17-.73-1.19-.82a15.93,15.93,0,0,1-6.26-1.6,18.86,18.86,0,0,0-6.75-1.57A7.15,7.15,0,0,1,19.72,57.47Z"/><path class="cls-34" d="M137.69,61.44a5.64,5.64,0,0,0,2.61-.91,25.11,25.11,0,0,1,5.93-2.32,30.85,30.85,0,0,1,7.1-.79,21.45,21.45,0,0,1-9.39,4,17.8,17.8,0,0,1-4.72.38A2.8,2.8,0,0,1,137.69,61.44Z"/><path class="cls-35" d="M19.72,57.47a21.45,21.45,0,0,1,12,2.53c1.18.6,2.51.75,3.67,1.38a21.72,21.72,0,0,1-12.25-1.59A8.37,8.37,0,0,1,19.72,57.47Z"/><path class="cls-6" d="M96.69,102.57a4.49,4.49,0,0,1,2.23.4,6.55,6.55,0,0,1,2.8,5.77,2.49,2.49,0,0,1-1.66,2.06,2,2,0,0,1-1.36,0,6.17,6.17,0,0,1-4.22-6.46C94.61,102.72,95,102.46,96.69,102.57Z"/><path class="cls-6" d="M77.36,105.21a5.9,5.9,0,0,1-4.18,5.49,2.06,2.06,0,0,1-2.66-1.09,2.64,2.64,0,0,1-.32-1.55,5.47,5.47,0,0,1,1.6-3.74,9.32,9.32,0,0,1,2.58-1.83,2.19,2.19,0,0,1,3,1.73A8.16,8.16,0,0,1,77.36,105.21Z"/><path class="cls-36" d="M88.61,125.72a3.08,3.08,0,0,1-1.6-1.5,1.84,1.84,0,0,1,1.56,1.08.29.29,0,0,1,.12.28C88.66,125.67,88.64,125.72,88.61,125.72Z"/><path class="cls-37" d="M89.81,126.56c-.39-.16-.78-.32-.86-.8a.67.67,0,0,1,.82.4.26.26,0,0,1,.12.26C89.87,126.51,89.84,126.56,89.81,126.56Z"/><path class="cls-38" d="M88.61,125.72l0-.42c.22.09.4.21.41.48h-.19Z"/><path class="cls-39" d="M89.81,126.56l0-.4c.24,0,.48.09.41.42Z"/><path class="cls-40" d="M81.74,126.54l0-.46a.68.68,0,0,1,.09-.17.39.39,0,0,1,.51,0c.22.19,0,.35-.13.46A1.9,1.9,0,0,1,81.74,126.54Z"/><path class="cls-41" d="M160.76,49.88a18.53,18.53,0,0,0-7.69-3.64,15.68,15.68,0,0,0-6.54-.15,19.82,19.82,0,0,0-12.84,8.78c-.29.44-.55.9-.91,1.49A70.39,70.39,0,0,0,114.9,42.62c1-6.49-1.73-11-7.24-14.18.18-.57.35-1.06.49-1.57A6.84,6.84,0,0,0,105,19a10.14,10.14,0,0,0-2.55-1.1,16.24,16.24,0,0,0-9.44.28l-1.89.58c-.26-.42-.46-.76-.67-1.09A5.66,5.66,0,0,0,85.55,15a9.36,9.36,0,0,0-5.3,1.49,16.7,16.7,0,0,0-6.85,8.1c-.22.54-.42,1.09-.61,1.58a4.58,4.58,0,0,1-.47.15,5.88,5.88,0,0,0-5.66,5.21A9.41,9.41,0,0,0,67.24,37l.61,1.36c-1.2.44-2.32.82-3.41,1.27A70.7,70.7,0,0,0,41.5,54.91c-.4.4-.67,1-1.38,1.05-.2-.31-.38-.58-.55-.86a20,20,0,0,0-6.64-6.52c-6.9-4.34-14.42-3.22-20.2,1-2.32,1.7-2.55,3-1.07,5.44a24.66,24.66,0,0,0,3.87,4.82,21,21,0,0,0,15.63,6.39c.37,0,.78-.16,1.2.32-.34.63-.7,1.32-1.08,2a55.71,55.71,0,0,0-6.61,38c1.85,10.35,7.08,18.53,16.28,24a82.08,82.08,0,0,0,15.53,7.22,10,10,0,0,1,1.73.69c-.24.36-.4.64-.6.88A53.6,53.6,0,0,0,53,145.79a119.12,119.12,0,0,0-12.64,27.93c-.23.76-.42,1.54-.59,2.32-.21,1,.17,1.47,1.1,1.79a45.26,45.26,0,0,0,8.34,1.94c4.29.61,8.58,1.14,12.87,1.71a152.82,152.82,0,0,0,16.12,1.38c9.12.27,18.25.39,27.37-.2a176.51,176.51,0,0,0,18.64-2.08,54.15,54.15,0,0,0,8.34-2,16.28,16.28,0,0,0,2.19-1,1.17,1.17,0,0,0,.63-1.35c-.14-.72-.34-1.42-.55-2.12a115.19,115.19,0,0,0-8.48-20.86,75.53,75.53,0,0,0-9.52-14.73,3.77,3.77,0,0,1-.37-.65,1.51,1.51,0,0,1,.38-.28c.55-.22,1.11-.43,1.67-.63A75.87,75.87,0,0,0,134,129.22a31.48,31.48,0,0,0,10.66-11.93,40.13,40.13,0,0,0,4.29-15.08,57.3,57.3,0,0,0-7.63-34.33c-.28-.48-.85-.89-.58-1.64h1.58c8.77-.06,14.95-4.47,19.42-11.66C162.88,52.67,162.54,51.3,160.76,49.88ZM136,63.63c-.27.2-.4.37-.58.43-2.14.68-4.28,1.39-6.45,2a8.75,8.75,0,0,1-2.56.19,2.16,2.16,0,0,1-2.2-1.91,7.61,7.61,0,0,1-.15-1.78,25.93,25.93,0,0,1,2.77-9.35A60.75,60.75,0,0,1,136,63.63Zm-14.84-15a3.27,3.27,0,0,1,.57.78h0l-1.53,1.62v0c-.47.46-1,.91-1.42,1.38a36.6,36.6,0,0,1-7.12,6,26.78,26.78,0,0,1-2.82,1.45,4.07,4.07,0,0,1-1.34.34,1.71,1.71,0,0,1-2-1.23,8.09,8.09,0,0,1-.39-2.13,23.14,23.14,0,0,1,.86-6.43c5.52-1.78,5.63-1.86,8.51-6.05A60.6,60.6,0,0,1,121.13,48.65Zm-31-27.25a7,7,0,0,1-1.75,5.32,2.3,2.3,0,0,1-1.54.85.94.94,0,0,1-1-.76,3,3,0,0,1,.38-1.92,8.61,8.61,0,0,1,3.47-3.48C89.73,21.35,89.89,21.4,90.08,21.4Zm-16,7.09c1.32,1,2.12,1.93,2.18,3.34a1,1,0,0,1-.4.79,1,1,0,0,1-.87-.19,3.09,3.09,0,0,1-.69-.94A6.12,6.12,0,0,1,74.12,28.49Zm-5.37,2.06A4,4,0,0,1,71,28.1a5.63,5.63,0,0,1,1.22-.2c.4.48.19.88.23,1.26a17,17,0,0,0,.29,2.37,3.9,3.9,0,0,0,1.36,2.16,2.25,2.25,0,0,0,2.42.46,2.1,2.1,0,0,0,1.34-2,5.77,5.77,0,0,0-.28-1.75,5.88,5.88,0,0,0-1.81-2.59c-.4-.35-.83-.65-1.31-1a9.72,9.72,0,0,1,.3-1.32,15.48,15.48,0,0,1,5.63-7.33,9.58,9.58,0,0,1,3.81-1.67,4.51,4.51,0,0,1,5.43,3l-1.4,1a11.05,11.05,0,0,0-3.07,3.1,5.31,5.31,0,0,0-1,2.8,2.58,2.58,0,0,0,4,2.44,5.47,5.47,0,0,0,2-1.89,8.38,8.38,0,0,0,1.38-4.72c0-.53,0-1.06,0-1.7.32-.55,1-.62,1.64-.82a15.4,15.4,0,0,1,7.88-.59,8.55,8.55,0,0,1,3.79,1.68C107,22.52,107.42,25,106,27.6c-1.2-.22-2.43-.44-3.65-.68a8.82,8.82,0,0,0-4,.18,7.28,7.28,0,0,0-2.34,1A2.17,2.17,0,0,0,96.16,32a6,6,0,0,0,4,.93,9.38,9.38,0,0,0,5.77-2.46c.24-.23.49-.44.93-.84,3.74,2,6.2,4.86,6.72,9.13a9.69,9.69,0,0,1-1.19,6,7.94,7.94,0,0,1-6.14,4,11.93,11.93,0,0,1-1.79.09c-.67,0-1.33-.08-2.08-.14a11.85,11.85,0,0,1-.58-1.87,8.92,8.92,0,0,0-3.33-4.85,4.25,4.25,0,0,0-2.79-.9,2,2,0,0,0-2,2.06,4.15,4.15,0,0,0,.88,2.6,10.43,10.43,0,0,0,4.33,3.42c.6.28,1.22.52,1.89.81a7.5,7.5,0,0,1-.9,4.6,4.29,4.29,0,0,1-3.57,2.21A7,7,0,0,1,91,54.91a13.14,13.14,0,0,1-2.75-3.41q-1.19-2-2.31-4a18.67,18.67,0,0,0-12.16-9c-1.53-.39-3.14-.49-4.91-.75A10.61,10.61,0,0,1,68.75,30.55Zm36.13-1.42A7,7,0,0,1,98,31.19c-.65-.15-1.43-.38-1.5-1.11s.74-1.17,1.42-1.43a10.55,10.55,0,0,1,5.49-.24,11.26,11.26,0,0,1,1.42.41C104.86,29,104.91,29.1,104.88,29.13ZM100.62,48a9.12,9.12,0,0,1-4.55-2.84,6.51,6.51,0,0,1-1-1.9.78.78,0,0,1,.87-1,2.82,2.82,0,0,1,1.3.38,10,10,0,0,1,1.9,1.71A6.76,6.76,0,0,1,100.62,48ZM57,45.21a48.08,48.08,0,0,1,6.67-3.45A50.13,50.13,0,0,1,66.22,50a26.72,26.72,0,0,1,.89,5.9A12.68,12.68,0,0,1,67,58.24c-.28,1.72-1.33,2.38-3,1.87a12.41,12.41,0,0,1-2.36-1,27.21,27.21,0,0,1-4.86-3.47,55.68,55.68,0,0,1-5.83-6C51.83,48.48,53.27,47.42,57,45.21ZM44.92,54.27c.19-.18.41-.33.8-.63a32.86,32.86,0,0,1,2.39,7.77,8.87,8.87,0,0,1,0,2.77,2.32,2.32,0,0,1-2.49,2.08,10.94,10.94,0,0,1-3.73-.52c-1.65-.47-3.26-1.06-5-1.62a3,3,0,0,1,.28-.81A62.25,62.25,0,0,1,44.92,54.27ZM17.53,59.59a26.15,26.15,0,0,1-4.28-5c-.29-.44-.52-.92-.77-1.39a1.33,1.33,0,0,1,.28-1.65,7.49,7.49,0,0,1,.9-.79,17.11,17.11,0,0,1,10-3.36,15.12,15.12,0,0,1,7.07,1.86,20.24,20.24,0,0,1,8.39,8.18l-1.79,2.17-1-.78a21.69,21.69,0,0,0-11.57-4.47A9.48,9.48,0,0,0,19,55.45c.16.16.32.31.47.47A17,17,0,0,1,31.13,57a28,28,0,0,1,5.12,3c.18.14.26.43.39.64l-.33.4-.07.06a18.14,18.14,0,0,1-4.93.3,19.53,19.53,0,0,1-10.74-3.58,3,3,0,0,1-1.34-1.38l.28-.54c-.15-.16-.31-.31-.47-.47-.86.77-1,1.13-.45,1.74a10.74,10.74,0,0,0,1.93,1.69,19.9,19.9,0,0,0,12.81,3.35c.46,0,.92-.12,1.38-.12.3,0,.45.23.46.53l.27-.39-.27.39-1.86,2.44C27.38,65.18,22,63.62,17.53,59.59ZM36.3,124.52h0a2.76,2.76,0,0,0,1,.91A2.85,2.85,0,0,1,36.3,124.52ZM51,133.41c-.59-.29-1.18-.59-1.78-.87a68.51,68.51,0,0,1-11.45-6.74c0-.2-.09-.39-.16-.67,1.2-.67,2.39-1.39,3.62-2a34.63,34.63,0,0,1,7.15-2.95,11.27,11.27,0,0,1,2.15-.38c2.28-.13,3.2.69,3.32,2.93a12.23,12.23,0,0,1-.07,2.18,36.12,36.12,0,0,1-2.19,8c-.08.21-.39.33-.59.49l.17.18Zm.36.33a1.58,1.58,0,0,0,.39.24A1.58,1.58,0,0,1,51.4,133.74Zm8.08,5.13,12.89,2.64c.41.91.95,1.91,1.32,3a1.47,1.47,0,0,1-1.21,2.09,11.08,11.08,0,0,1-3.77.22,55.22,55.22,0,0,1-9.77-1.94c-.83-.23-1.65-.49-2.74-.82C57.37,142.2,58.43,140.52,59.48,138.87Zm73.82,37.85c-2.74,1.36-11.25,3.17-14.1,3-.41-4.47-1.56-8.45-3.15-10.66.4,3.74,1.67,7.25,1.73,11.06a226.59,226.59,0,0,1-36.9,1.47C70.59,181.26,59,180,56.6,179.21a44.31,44.31,0,0,1,1-6.84c.1-.45.15-.91.22-1.37h0a11.34,11.34,0,0,0,.78-3.31,3.72,3.72,0,0,0-1.12,2.11.38.38,0,0,0-.09.35c-.11.27-.22.55-.32.82a24.49,24.49,0,0,0-1.77,8.13c-3.69,0-11.69-1.56-13.59-2.63,1-6.12,6.83-20.61,12-28.41a5.7,5.7,0,0,1,.84.31,64.22,64.22,0,0,0,22.25,7.87,69.86,69.86,0,0,0,14.51,1.11,52.86,52.86,0,0,0,22.08-5.53,47.39,47.39,0,0,0,6.14-3.73c.37-.26.76-.51,1.13-.76C125,152.85,132.91,171.39,133.3,176.72ZM120,145.93a6.41,6.41,0,0,1-1.84,1.54A47.31,47.31,0,0,1,102,154.55a59,59,0,0,1-20.64.95,70.75,70.75,0,0,1-20.18-5.29,44.7,44.7,0,0,1-6.56-3.45,6.66,6.66,0,0,1,1.32-2.1,35.65,35.65,0,0,0,7.56,2.5c1.83.37,3.67.66,5.51.9a10,10,0,0,0,3.77-.25A2.76,2.76,0,0,0,75,144c-.2-.76-.54-1.48-.84-2.3,4.54.14,9,.41,13.42.37s8.89-.41,13.47-.63c-.08.26-.15.55-.25.82-.25.68-.6,1.34-.78,2a2.57,2.57,0,0,0,1.81,3.3,11.46,11.46,0,0,0,3.14.45,28.11,28.11,0,0,0,6.51-.88,38,38,0,0,0,6.83-2.19c.29-.13.6-.22.94-.35Zm-1.22-2a25.92,25.92,0,0,1-3.88,1.2,43.57,43.57,0,0,1-8.61,1.61,14.61,14.61,0,0,1-3.17-.11c-1.8-.26-2.24-1.08-1.56-2.79.36-.93.85-1.8,1.35-2.83a83.39,83.39,0,0,0,12.21-2.9Zm2.14-10.13a1.2,1.2,0,0,0,.38,0A1.2,1.2,0,0,1,120.89,133.83Zm1.7-.5,0,0Zm12-7.13A87.64,87.64,0,0,1,123,133h0l-1.09.47-.09,0h-1a36.23,36.23,0,0,1-2.46-8.85,9.21,9.21,0,0,1,.15-3,2.08,2.08,0,0,1,2.25-1.85,9.74,9.74,0,0,1,2.75.28,30.66,30.66,0,0,1,3.94,1.38,46.86,46.86,0,0,1,7.57,4l-.4.75a1.47,1.47,0,0,0,.5-.17A1.47,1.47,0,0,1,134.6,126.2Zm.71-.31a1.54,1.54,0,0,0,.19-.17A1.54,1.54,0,0,1,135.31,125.89Zm6.42-7.79h0a2.17,2.17,0,0,1-.71-.3,29.79,29.79,0,0,1-4.36-4.89,9.34,9.34,0,0,1-1.06-2.12,2.05,2.05,0,0,1,1-2.75,9.64,9.64,0,0,1,2.57-1,22.75,22.75,0,0,1,6.33-.42c.1,0,.2.13.32.21l.12.57A41.2,41.2,0,0,1,141.73,118.1Zm5.2-18.37h0c-.26,0-.58.09-.76,0-1.48-1-3-2-4.4-3.07a5.32,5.32,0,0,1-1.18-1.32,1.81,1.81,0,0,1,.2-2.52,5,5,0,0,1,1.08-.87,12.16,12.16,0,0,1,4.65-1.61A72.27,72.27,0,0,1,146.93,99.73Zm-.54-10.24-2,.31a8.6,8.6,0,0,0-3.64,1.47c-2.13,1.53-2.37,3.48-.59,5.37a11.4,11.4,0,0,0,2.47,2c1.35.82,2.79,1.48,4.2,2.21l.06-1.07-.06,1.07c-.23,1.67-.47,3.34-.7,5-.92-.06-1.85-.09-2.77-.2a13.77,13.77,0,0,0-5.71.57c-3.47,1.09-4.37,3.49-2.44,6.61a16.23,16.23,0,0,0,2.23,2.8c1.11,1.13,2.34,2.15,3.53,3.23l-.07.57a1.24,1.24,0,0,0,.53-.56,1.24,1.24,0,0,1-.53.56,46,46,0,0,1-4.8,5.54c-.61.21-1-.21-1.39-.54a33.66,33.66,0,0,0-9.59-5.19,15.57,15.57,0,0,0-3.68-.83,3.86,3.86,0,0,0-4.5,3.93,14.59,14.59,0,0,0,.23,3.36,24.43,24.43,0,0,0,3.08,8.15,2.67,2.67,0,0,1,.4,0,2.67,2.67,0,0,0-.4,0,16.3,16.3,0,0,1-1.56.79,74.72,74.72,0,0,1-20.3,4.84,111.53,111.53,0,0,1-17.53.44c-3.19-.21-6.37-.36-9.54-.81a79.31,79.31,0,0,1-15.64-3.87c-.62-.23-1.26-.41-1.88-.62l-.82-.34a.28.28,0,0,0-.3-.09l-.55-.63.5-1.05a25.28,25.28,0,0,0,2.58-8.31A7.6,7.6,0,0,0,55,121a3.31,3.31,0,0,0-2.61-2.46,8.21,8.21,0,0,0-2.16-.13,14,14,0,0,0-4.2,1.14,35.45,35.45,0,0,0-8.31,4.63c-.43.34-.85.63-1.42.33l-.41-.38h0l-.41-.4h0l-.41-.41h0c-.12-.14-.25-.28-.38-.41h0l-.52-.63-.07-.08-.31-.36c-.63-.9-1.27-1.79-1.88-2.71-.2-.3-.45-.66-.12-1a12.94,12.94,0,0,0,3.65-3.46l-.8-.38-3.3,3.5c-.2-.16-.47-.28-.58-.49a34.13,34.13,0,0,1-3.72-10,2.5,2.5,0,0,1,.05-.68,20.22,20.22,0,0,1,7.06.68,6.87,6.87,0,0,1,1.59.77,2,2,0,0,1,.93,2.4,16.55,16.55,0,0,1-1.14,2.5,11.61,11.61,0,0,1-.89,1.31l.8.38a7.8,7.8,0,0,0,2.08-3.08,3.45,3.45,0,0,0-1.76-4.83,12.48,12.48,0,0,0-6.76-1.1,15.81,15.81,0,0,1-2.22.15,16.87,16.87,0,0,1-.53-5.54,15.1,15.1,0,0,0,4.78-2.71,8,8,0,0,0,1.59-1.74,2.89,2.89,0,0,0-.26-3.65,6.74,6.74,0,0,0-2.23-1.61,14.09,14.09,0,0,0-3.6-1l-.27,1.11a7.06,7.06,0,0,1,5.13,2.1.93.93,0,0,1,.13.15,1.72,1.72,0,0,1,.18,2.19A8.65,8.65,0,0,1,30,97c-1.21.91-2.51,1.7-3.77,2.54a16.17,16.17,0,0,1-.16-4.91c0-1.31.15-2.63.23-4l.27-1.11A52.35,52.35,0,0,1,30.8,74.26a56.48,56.48,0,0,1,4.51-8.21c.28-.44.61-.84,1-1.33.64.32,1.22.61,1.81.89a19.47,19.47,0,0,0,6.45,2,6.62,6.62,0,0,0,1,.09,3.75,3.75,0,0,0,4-3.34,9.9,9.9,0,0,0-.34-4.53,21.28,21.28,0,0,0-2.85-6.65,19.36,19.36,0,0,1,3.8-3.32c.32.43.59.79.85,1.16a32,32,0,0,0,8.53,8.31,23.7,23.7,0,0,0,3,1.64,6.31,6.31,0,0,0,1.91.53,3.07,3.07,0,0,0,3.69-2.55,10.26,10.26,0,0,0,.28-3,36.71,36.71,0,0,0-3.67-14,4.85,4.85,0,0,1-.17-.51,7.6,7.6,0,0,1,.93-.55c1.3-.51,2.62-1,3.92-1.48a4,4,0,0,1,2.35-.17c5.52,1.14,10,3.76,13,8.77.77,1.32,1.45,2.7,2.28,4a28,28,0,0,0,2.59,3.52,8.16,8.16,0,0,0,4.84,2.59,6.23,6.23,0,0,0,7.45-4.72c.26-1,.34-2,.53-3.07.34,0,.71,0,1.08,0a8.12,8.12,0,0,1,1,.15c-.18,1.1-.41,2.14-.51,3.2a25.25,25.25,0,0,0-.17,4c.24,3.38,2.34,4.66,5.53,3.46a11.06,11.06,0,0,0,1.44-.67,29.25,29.25,0,0,0,9.75-8.69h0c.32-.4.64-.81,1-1.21s.6-.67.9-1h0l3.71,3.1c-.29.49-.5.88-.74,1.26a20.72,20.72,0,0,0-2.67,7,11.43,11.43,0,0,0-.15,3,3.78,3.78,0,0,0,4.23,3.78,17.4,17.4,0,0,0,2.95-.46,24.52,24.52,0,0,0,6.69-2.82A55.34,55.34,0,0,1,146.39,89.49ZM160.6,53.25a7.42,7.42,0,0,1-.45.89c-3.33,5.17-7.76,8.88-13.88,10.28a22.08,22.08,0,0,1-6.83.6c-.65-1-1.31-2.08-2-3.14l-.87-.83c-.07-.18-.14-.37-.25-.63,3.57-2.72,7.42-4.73,12-5a15.7,15.7,0,0,1,5.1.49l.42.61c-3.23,3.84-11.06,6-17.28,4.57l.87.83c.13,0,.26,0,.39,0A19.51,19.51,0,0,0,152.4,59a4.55,4.55,0,0,0,2.13-2l-.19-.33.19.33a.94.94,0,0,0-.27-1.53,8.72,8.72,0,0,0-2.21-.85,14.06,14.06,0,0,0-6.91.2,22.12,22.12,0,0,0-9.42,4.79,14.52,14.52,0,0,1-1.9-2.12,21.11,21.11,0,0,1,1.88-2.74,19.49,19.49,0,0,1,10.22-6.92,14.34,14.34,0,0,1,7.69.07,17.15,17.15,0,0,1,5.55,2.62,9.21,9.21,0,0,1,1.08.88A1.42,1.42,0,0,1,160.6,53.25Zm-6.9,2.65a.63.63,0,0,1,.36.26A.63.63,0,0,0,153.7,55.9Z"/><path class="cls-41" d="M101,100.59a25.88,25.88,0,0,0-30.13,0c-6.07,4.32-8.31,10.39-7,17.68a12.51,12.51,0,0,0,12.83,10.34,35.86,35.86,0,0,0,3.92-.55,6.67,6.67,0,0,0,10.3-.23,28.88,28.88,0,0,0,3.06.72,12.67,12.67,0,0,0,13.81-9.3A17.22,17.22,0,0,0,101,100.59Zm4.74,20a11.34,11.34,0,0,1-16.2,4.9c-.61-.4-1.21-.82-1.81-1.23h0c-.61-.57-1-1.36-1.86-1.88L85,123.41l.52,0a2.09,2.09,0,0,1,.67.27,10.66,10.66,0,0,1,.76.88c.44.49.85,1,1.32,1.46s1,.81,1.58,1.26A5.09,5.09,0,0,1,86,129.2a6.31,6.31,0,0,1-4.64-1.55c1.62-1.25,3.45-2.19,4.18-4.19l-.52,0c-.73.56-1.46,1.14-2.21,1.69a11.24,11.24,0,0,1-17.35-6.39c-1.61-6.56.39-12.08,5.5-16.44a20.58,20.58,0,0,1,8.52-4.19,24.65,24.65,0,0,1,19,2.58,16.23,16.23,0,0,1,8.3,12.69A13.62,13.62,0,0,1,105.72,120.56Z"/><path class="cls-41" d="M51.33,91.07a11.8,11.8,0,0,0,0,23.6,11.8,11.8,0,1,0,0-23.6Zm-4.81,14a2.34,2.34,0,0,0,.46-4.27,6.76,6.76,0,0,0-1.24-.6c-.36-.15-.73-.25-1.1-.37a8,8,0,0,1,9.49-5.11A8.3,8.3,0,0,1,53.22,111c-4.12.37-7.78-2-8.6-5.46A14.37,14.37,0,0,0,46.52,105Zm-4-1.59a1.22,1.22,0,0,1,.17-1.89,3.21,3.21,0,0,1,3.86.3,1.17,1.17,0,0,1-.19,2,5.83,5.83,0,0,1-1.28.42A3.16,3.16,0,0,1,42.52,103.45Zm16.39-7.32a10.42,10.42,0,0,0-2.58-1.83,9.13,9.13,0,0,0-2.85-.86c-3.62-.46-8.12,1-10.29,6.51a12.24,12.24,0,0,0-1.32.84,2.19,2.19,0,0,0-.26,3.34,1.94,1.94,0,0,0,.59.52,2.72,2.72,0,0,1,1.31,1.65,9.26,9.26,0,0,0,6.13,5.56A9.47,9.47,0,0,0,61,106.43a20.71,20.71,0,0,0,.69-2.14c-.1,5-4.91,9.22-10.4,9.25a10.67,10.67,0,0,1-.58-21.32c5.71-.18,10.65,3.85,11,8.94a20,20,0,0,0-1-2.64A9.85,9.85,0,0,0,58.91,96.13Z"/><path class="cls-41" d="M121.22,91.07A11.81,11.81,0,1,0,133,102.9,11.78,11.78,0,0,0,121.22,91.07Zm.65,22.46a10.59,10.59,0,0,1-11-8,5.75,5.75,0,0,1-.2-1.16c0-1.07,0-2.13,0-3.2A12.38,12.38,0,0,1,112,97.56a10.23,10.23,0,0,1,5.88-4.83,10.68,10.68,0,1,1,4,20.8Z"/><path class="cls-41" d="M42.54,84.23a19.36,19.36,0,0,0,3.17.8c1.17-.15,2-.22,2.88-.38a16.12,16.12,0,0,0,7.35-3.34,7.8,7.8,0,0,0,2.25-2.75,3.32,3.32,0,0,0-1.79-4.77,7.51,7.51,0,0,0-3.48-.69A16.54,16.54,0,0,0,42.7,77a7.27,7.27,0,0,0-2,2.48A3.28,3.28,0,0,0,42.54,84.23Zm-.62-4.51a8.72,8.72,0,0,1,2-2.23,15.62,15.62,0,0,1,9.34-3.3,17.35,17.35,0,0,1,2.42.51c1.86.66,2.34,2.11,1.28,3.81a7,7,0,0,1-1.41,1.66,14.83,14.83,0,0,1-9.89,3.61,7.46,7.46,0,0,1-2.34-.44C41.5,82.72,41,81.31,41.92,79.72Z"/><path class="cls-41" d="M115.12,79.8a11.37,11.37,0,0,0,2,1.92,16.32,16.32,0,0,0,9.26,3.21,7.21,7.21,0,0,0,4-.89,3.22,3.22,0,0,0,1.48-4.26,6.78,6.78,0,0,0-2-2.7,16.72,16.72,0,0,0-10.35-4,8.14,8.14,0,0,0-4,1,3.08,3.08,0,0,0-1.41,3.77A6,6,0,0,0,115.12,79.8Zm1.21-4.87a6.23,6.23,0,0,1,3.29-.69,15.11,15.11,0,0,1,9.18,3.37,8.43,8.43,0,0,1,1.79,2.11c.95,1.6.4,3-1.37,3.63a6.56,6.56,0,0,1-2.14.42A14.6,14.6,0,0,1,116.85,80,7.11,7.11,0,0,1,115.33,78,2.08,2.08,0,0,1,116.33,74.93Z"/><path class="cls-41" d="M67.8,169.91a.21.21,0,0,0-.18.06,1,1,0,0,0-.25.29,11.3,11.3,0,0,0-.85,6.34s.12.05.33.14a23.5,23.5,0,0,0,1.36-6.29.52.52,0,0,0-.1-.37A.63.63,0,0,0,67.8,169.91Z"/><path class="cls-41" d="M61.89,168.14c-1,1.8-.88,3.77-.9,5.72l.4.06c.38-1.78.78-3.56,1.15-5.34a6,6,0,0,0,.05-1C62.24,167.86,62,168,61.89,168.14Z"/><path class="cls-41" d="M64.09,178.58c.66-2.86.66-3.23,0-4.06A3.85,3.85,0,0,0,64.09,178.58Z"/><path class="cls-41" d="M120.53,93.43a8.69,8.69,0,0,0-8.37,4.71c-.35.81-.71,1.62-1.06,2.44a9.14,9.14,0,0,0,0,4.53,9.51,9.51,0,0,0,8.45,7.09,9.34,9.34,0,0,0,9.37-5.77,4,4,0,0,1,1.56-1.94,2.31,2.31,0,0,0-.42-4,1.91,1.91,0,0,1-1.13-1.29,4.74,4.74,0,0,0-.34-.72A9,9,0,0,0,120.53,93.43Zm4.73,16a8.15,8.15,0,0,1-5.62,1.62,8.33,8.33,0,0,1-1.46-16.4A8.17,8.17,0,0,1,128,99.84a11.14,11.14,0,0,0-1.3.39,5.59,5.59,0,0,0-1.37.78,2.25,2.25,0,0,0,.37,3.83,13,13,0,0,0,2.26.74A6.46,6.46,0,0,1,125.26,109.48Zm4.79-7.78a1.13,1.13,0,0,1,.11,1.61,3.28,3.28,0,0,1-4.32.37,1.13,1.13,0,0,1-.1-1.61A3.18,3.18,0,0,1,130.05,101.7Z"/><path class="cls-41" d="M76.77,102.17a3.3,3.3,0,0,0-3.76.2,7.35,7.35,0,0,0-3.47,5.35,4.32,4.32,0,0,0,.25,1.94,2.56,2.56,0,0,0,2.61,1.77,4.26,4.26,0,0,0,2.59-.94,7.25,7.25,0,0,0,3-4.77A3.23,3.23,0,0,0,76.77,102.17Zm-3.13,7.88a3,3,0,0,1-1.16.27A1.69,1.69,0,0,1,70.56,109a3.14,3.14,0,0,1-.15-1.17A5.86,5.86,0,0,1,74,102.93c1.85-.81,3.16.12,3.09,2.48A6,6,0,0,1,73.64,110.05Z"/><path class="cls-41" d="M98,102a2.93,2.93,0,0,0-4.27,2.83,7.21,7.21,0,0,0,4.35,6.38,2.92,2.92,0,0,0,4.17-2.94A7.35,7.35,0,0,0,98,102Zm3.28,6.92a1.71,1.71,0,0,1-1.87,1.42,4.48,4.48,0,0,1-1.68-.5,6.17,6.17,0,0,1-3-4.24,3.22,3.22,0,0,1,0-1,2,2,0,0,1,2.66-1.85,6,6,0,0,1,4,5.39A4,4,0,0,1,101.31,108.89Z"/></g></g></svg>