<svg id="b1549ac5-b0b0-4d3a-8e33-68677bc5f1f9" data-name="Calque 1" xmlns="http://www.w3.org/2000/svg" viewBox="0 0 100 92.38"><path d="M67.37,83.59A4.52,4.52,0,0,1,66,82.34a4,4,0,0,1-.42-.75H6.73v-58H86.66v37.9a4.47,4.47,0,0,1,3.74,2.81,4.52,4.52,0,0,1,1.75-.53,4.65,4.65,0,0,1,1.24.07V9.1a5.62,5.62,0,0,0-5.61-5.62H5.61A5.62,5.62,0,0,0,0,9.1V82.71a5.62,5.62,0,0,0,5.61,5.62H66.86a4.43,4.43,0,0,1,.51-4.74ZM80.5,12.91a2.06,2.06,0,0,1,2.07-2.07h2.07a2.07,2.07,0,0,1,2.07,2.07v2.35a2.07,2.07,0,0,1-2.07,2.07H82.57a2.07,2.07,0,0,1-2.07-2.07Zm-9.64,0a2.07,2.07,0,0,1,2.07-2.07H75a2.07,2.07,0,0,1,2.08,2.07v2.35A2.08,2.08,0,0,1,75,17.33H72.93a2.07,2.07,0,0,1-2.07-2.07Zm-9.64,0a2.07,2.07,0,0,1,2.08-2.07h2.07a2.07,2.07,0,0,1,2.07,2.07v2.35a2.07,2.07,0,0,1-2.07,2.07H63.3a2.08,2.08,0,0,1-2.08-2.07Z" transform="translate(0 -3.48)" style="fill:#1d1d1b"/><path d="M100,79.63l-.63-3.53a.87.87,0,0,0-1-.71L95.21,76a11.94,11.94,0,0,0-1.43-2.48l2-2.44a.88.88,0,0,0,.2-.64.86.86,0,0,0-.31-.59L93,67.49a.89.89,0,0,0-1.24.11L89.7,70a11.52,11.52,0,0,0-2.69-1V65.88a.87.87,0,0,0-.87-.88H82.55a.87.87,0,0,0-.87.88v3.19A11.2,11.2,0,0,0,79,70l-2-2.44a.87.87,0,0,0-1.23-.11L73,69.8a.86.86,0,0,0-.31.59.93.93,0,0,0,.2.64l2.06,2.44A11.51,11.51,0,0,0,73.48,76l-3.14-.56a.89.89,0,0,0-1,.71l-.62,3.53a.87.87,0,0,0,.71,1l3.14.55a11.34,11.34,0,0,0,.5,2.81l-2.77,1.6a.83.83,0,0,0-.4.53.89.89,0,0,0,.08.66l1.8,3.11a.85.85,0,0,0,.53.41.82.82,0,0,0,.22,0,.85.85,0,0,0,.44-.11l2.76-1.6a11.68,11.68,0,0,0,2.19,1.84l-1.09,3a.88.88,0,0,0,.52,1.12l3.37,1.22a.79.79,0,0,0,.67,0,.84.84,0,0,0,.45-.49l1.09-3a11.41,11.41,0,0,0,2.86,0l1.09,3a.84.84,0,0,0,.45.49.79.79,0,0,0,.67,0l3.37-1.22a.88.88,0,0,0,.52-1.12l-1.09-3A11.68,11.68,0,0,0,93,88.63l2.76,1.6a.88.88,0,0,0,.44.12.83.83,0,0,0,.22,0,.89.89,0,0,0,.54-.41l1.79-3.11a.9.9,0,0,0,.09-.66.87.87,0,0,0-.41-.53L95.64,84a11.81,11.81,0,0,0,.49-2.81l3.14-.55a.88.88,0,0,0,.72-1ZM84.34,85.25a4.82,4.82,0,1,1,4.81-4.82A4.82,4.82,0,0,1,84.34,85.25Z" transform="translate(0 -3.48)" style="fill:#1d1d1b"/><path d="M39.22,55.73a2.91,2.91,0,0,0-1.69-2.65l-9.4-4.37,9.4-4.36a2.93,2.93,0,0,0,1.69-2.65v-.08a2.9,2.9,0,0,0-2.92-2.91,2.87,2.87,0,0,0-1.23.27l-15,7a2.93,2.93,0,0,0-1.69,2.65v.21a2.92,2.92,0,0,0,1.69,2.64l15,7a2.92,2.92,0,0,0,4.15-2.65v-.07Z" transform="translate(0 -3.48)" style="fill:#1d1d1b"/><path d="M54,31.59a2.94,2.94,0,0,0-2.36-1.2h-.07a2.91,2.91,0,0,0-2.78,2l-9.9,30.66a2.92,2.92,0,0,0,2.78,3.81h.08a2.91,2.91,0,0,0,2.78-2L54.46,34.2A2.9,2.9,0,0,0,54,31.59Z" transform="translate(0 -3.48)" style="fill:#1d1d1b"/><path d="M73.35,46l-15-7a3,3,0,0,0-1.22-.26,2.9,2.9,0,0,0-2.93,2.91v.08a3,3,0,0,0,1.69,2.65l9.4,4.36-9.4,4.37a2.93,2.93,0,0,0-1.69,2.65v.07a2.92,2.92,0,0,0,2.92,2.92,3,3,0,0,0,1.24-.27l15-7A2.92,2.92,0,0,0,75,48.82v-.21A3,3,0,0,0,73.35,46Z" transform="translate(0 -3.48)" style="fill:#1d1d1b"/></svg>