<svg xmlns="http://www.w3.org/2000/svg" viewBox="0 0 94.99 100"><defs><style>.cls-1{fill:#dbb81f;}</style></defs><g id="Calque_2" data-name="Calque 2"><g id="Calque_1-2" data-name="Calque 1"><path class="cls-1" d="M48.33,43.42A11.59,11.59,0,1,0,59.92,55,11.6,11.6,0,0,0,48.33,43.42Zm0,20A8.46,8.46,0,1,1,56.78,55,8.48,8.48,0,0,1,48.33,63.47Z"/><path class="cls-1" d="M78.39,0A11.59,11.59,0,1,0,90,11.59,11.6,11.6,0,0,0,78.39,0Zm0,20a8.46,8.46,0,1,1,8.46-8.45A8.46,8.46,0,0,1,78.39,20Z"/><path class="cls-1" d="M16.6,0A11.59,11.59,0,1,0,28.18,11.59,11.6,11.6,0,0,0,16.6,0Zm0,20a8.46,8.46,0,1,1,8.45-8.45A8.46,8.46,0,0,1,16.6,20Z"/><path class="cls-1" d="M93.42,38.2A1.56,1.56,0,0,0,95,36.64v-5a8.26,8.26,0,0,0-8.25-8.25H70a7.66,7.66,0,0,0-1.51.15,33.28,33.28,0,0,0-40.82.33A8.05,8.05,0,0,0,25,23.38H8.25A8.26,8.26,0,0,0,0,31.63V55a1.57,1.57,0,0,0,1.57,1.57H15.68A33.18,33.18,0,0,0,19,65.77a1.58,1.58,0,0,0,2.25.57,1.6,1.6,0,0,0,.51-2,29.78,29.78,0,0,1-2.88-7.71H31.63A1.56,1.56,0,0,0,33.19,55V31.63a8.18,8.18,0,0,0-2.61-6,30.2,30.2,0,0,1,17.75-5.78A29.74,29.74,0,0,1,65.18,25a8.28,8.28,0,0,0-3.38,6.65V55a1.57,1.57,0,0,0,1.56,1.57H77.77A30.33,30.33,0,0,1,64.93,75.19v-.14a8.26,8.26,0,0,0-8.25-8.24H40a8.26,8.26,0,0,0-8.25,8.24v.14a30.22,30.22,0,0,1-6.79-6.14,1.57,1.57,0,0,0-2.43,2,33.16,33.16,0,0,0,9.22,7.84V98.43A1.57,1.57,0,0,0,33.3,100H63.36a1.57,1.57,0,0,0,1.57-1.57V78.87A33.48,33.48,0,0,0,81,56.58H93.42A1.57,1.57,0,0,0,95,55V45a1.57,1.57,0,1,0-3.13,0v8.45H64.93V31.63a5.15,5.15,0,0,1,3.66-4.91h0A5.14,5.14,0,0,1,70,26.51h3.88l1.21,3.63-1.64,18a1.57,1.57,0,0,0,.86,1.54l3.34,1.67a1.57,1.57,0,0,0,1.4,0l3.34-1.67a1.56,1.56,0,0,0,.86-1.54l-1.64-18,1.21-3.63h3.88a5.13,5.13,0,0,1,5.12,5.12v5A1.56,1.56,0,0,0,93.42,38.2ZM17.77,26.51l-.63,1.88H16.06l-.63-1.88Zm-1.41,5h.48l1.44,15.89-1.68.84-1.69-.84Zm13.7,21.92H3.13V31.63a5.13,5.13,0,0,1,5.12-5.12h3.88l1.21,3.63-1.64,18a1.56,1.56,0,0,0,.86,1.54L15.9,51.4a1.57,1.57,0,0,0,1.4,0l3.34-1.67a1.59,1.59,0,0,0,.86-1.54l-1.64-18,1.21-3.63H25a5.12,5.12,0,0,1,5.11,5.12V53.44ZM49.5,69.94l-.63,1.88H47.79l-.63-1.88Zm-1.41,5h.48L50,90.83l-1.68.84-1.68-.84ZM61.8,96.87H34.86V75.05A5.12,5.12,0,0,1,40,69.94h3.88l1.21,3.63-1.64,18a1.55,1.55,0,0,0,.86,1.54l3.34,1.67a1.57,1.57,0,0,0,1.4,0l3.34-1.67a1.55,1.55,0,0,0,.86-1.54l-1.64-18,1.21-3.63h3.88a5.12,5.12,0,0,1,5.12,5.11V96.87ZM79.56,26.51l-.63,1.88H77.85l-.63-1.88ZM78.39,48.25l-1.68-.84,1.44-15.89h.48l1.45,15.89Z"/></g></g></svg>