<?xml version="1.0" encoding="UTF-8" standalone="no" ?>
<!DOCTYPE svg PUBLIC "-//W3C//DTD SVG 1.1//EN" "http://www.w3.org/Graphics/SVG/1.1/DTD/svg11.dtd">
<svg xmlns="http://www.w3.org/2000/svg" xmlns:xlink="http://www.w3.org/1999/xlink" version="1.1" width="1080" height="1080" viewBox="0 0 1080 1080" xml:space="preserve">
<desc>Created with Fabric.js 5.2.4</desc>
<defs>
</defs>
<rect x="0" y="0" width="100%" height="100%" fill="transparent"></rect>
<g transform="matrix(1 0 0 1 540 540)" id="cd19d601-605d-4901-b8c1-ade63e468dda"  >
<rect style="stroke: none; stroke-width: 1; stroke-dasharray: none; stroke-linecap: butt; stroke-dashoffset: 0; stroke-linejoin: miter; stroke-miterlimit: 4; fill: rgb(255,255,255); fill-rule: nonzero; opacity: 1; visibility: hidden;" vector-effect="non-scaling-stroke"  x="-540" y="-540" rx="0" ry="0" width="1080" height="1080" />
</g>
<g transform="matrix(1 0 0 1 540 540)" id="a7144d23-6f59-43b8-86aa-f3ab99606ff5"  >
</g>
<g transform="matrix(0.96 0 0 -0.96 540 540)"  >
<path style="stroke: none; stroke-width: 1; stroke-dasharray: none; stroke-linecap: butt; stroke-dashoffset: 0; stroke-linejoin: miter; stroke-miterlimit: 4; fill: rgb(0,0,0); fill-rule: nonzero; opacity: 1;" vector-effect="non-scaling-stroke"  transform=" translate(-8989.35, -8712.5)" d="M 8450 9104 L 8450 8958 L 8479 8929 C 8495 8913 8513 8900 8519 8900 C 8525 8900 8547 8918 8570 8941 C 8617 8989 8637 8987 8688 8934 C 8714 8906 8720 8892 8720 8855 C 8720 8801 8701 8759 8666 8736 C 8629 8712 8608 8716 8570 8755 C 8529 8797 8507 8799 8475 8764 C 8451 8738 8450 8732 8450 8589 L 8450 8440 L 8594 8440 C 8712 8440 8741 8437 8754 8424 C 8777 8402 8774 8388 8741 8359 C 8701 8324 8693 8289 8716 8249 C 8748 8195 8783 8176 8849 8175 C 8918 8175 8953 8192 8982 8238 C 9012 8287 9008 8316 8966 8359 C 8932 8394 8931 8397 8946 8418 C 8960 8439 8968 8440 9111 8440 L 9260 8440 L 9260 8579 C 9260 8730 9263 8745 9291 8761 C 9307 8769 9316 8764 9341 8735 C 9378 8694 9415 8689 9465 8720 C 9511 8748 9533 8800 9528 8862 C 9522 8918 9498 8956 9451 8984 C 9411 9007 9376 8999 9341 8959 C 9311 8925 9299 8923 9277 8948 C 9263 8963 9260 8990 9260 9108 L 9260 9250 L 8855 9250 L 8450 9250 L 8450 9104 z" stroke-linecap="round" />
</g>
</svg>