<svg xmlns="http://www.w3.org/2000/svg" viewBox="0 0 74.14 74.42"><defs><style>.cls-1{fill:#dbb81f;}</style></defs><g id="Calque_2" data-name="Calque 2"><g id="Calque_1-2" data-name="Calque 1"><path class="cls-1" d="M65.64,6.07l-.79-.63A24.84,24.84,0,0,0,35,4.59a20.5,20.5,0,0,0-3.24,2.8,21.69,21.69,0,0,0-3.31,4.09,24.88,24.88,0,0,0-1.85,23.21A29,29,0,0,0,29,39.06c.07.09.08.17,0,.21l-2,1.51c-1.08.78-2,1.47-2,1.52a10.06,10.06,0,0,0,1.55,2.18,48.79,48.79,0,0,0,4.76,4.78c.72.58.75.59.87.48s2.66-3.55,3-4c.11-.15.22-.29.26-.28a7.62,7.62,0,0,1,.84.5,28.38,28.38,0,0,0,3.34,1.73,25.21,25.21,0,0,0,10.91,1.94,24.88,24.88,0,0,0,14.06-5.23,20.18,20.18,0,0,0,2.28-2.08A20,20,0,0,0,69.66,39a24.85,24.85,0,0,0-.89-29.67A45,45,0,0,0,65.64,6.07ZM65,12.54A19.91,19.91,0,0,1,65.81,36a16,16,0,0,1-2.38,2.86,16,16,0,0,1-2.84,2.4,19.89,19.89,0,0,1-27.55-5,19.61,19.61,0,0,1-3.59-11,19.86,19.86,0,0,1,4.23-12.78,28.53,28.53,0,0,1,3.2-3.21,20,20,0,0,1,22.4-1.72,21.41,21.41,0,0,1,3.25,2.32A27.82,27.82,0,0,1,65,12.54Z"/><path class="cls-1" d="M59.16,10.57A14.65,14.65,0,0,0,52.06,8a17.26,17.26,0,0,0-9,1.87,18.2,18.2,0,0,0-4.68,3.32c-4.84,4.59-6.92,11.21-5.35,17a14.89,14.89,0,0,0,2,4.4,15,15,0,0,0,3.06,3,1.09,1.09,0,0,0-.21-.42,13.15,13.15,0,0,1-1.27-2.63c-1.71-4.81-.85-10.28,2.36-15A19.06,19.06,0,0,1,52.5,11.25a14.61,14.61,0,0,1,9.32,2.15l.19.11-.14-.22A20.4,20.4,0,0,0,59.16,10.57Z"/><path class="cls-1" d="M22.53,44.1l-1.25.95A140.27,140.27,0,0,0,7.66,56.66L6.11,58.2l.14.21a31.53,31.53,0,0,0,4,4.94A33.69,33.69,0,0,0,15.77,68c.38.26.38.26.63.1s4.16-4.19,5.66-5.88c2.62-3,4.65-5.4,7.33-8.83.53-.67,1-1.26,1-1.3s-.14-.21-.55-.53a35,35,0,0,1-6.56-6.82L22.71,44Z"/><path class="cls-1" d="M3.65,60.85,2.4,62.3A10.15,10.15,0,0,0,.7,64.73a6.69,6.69,0,0,0,8.08,9.35,9.18,9.18,0,0,0,3.43-2.17c.49-.44,1.12-1,1.41-1.23a5.13,5.13,0,0,0,.53-.47s-.36-.27-.81-.58a33.56,33.56,0,0,1-8.5-8.43c-.3-.43-.57-.82-.61-.86S4.07,60.37,3.65,60.85Z"/></g></g></svg>