<?xml version="1.0" encoding="utf-8"?>
<!-- Generator: Adobe Illustrator 25.0.0, SVG Export Plug-In . SVG Version: 6.00 Build 0)  -->
<svg version="1.1" id="Calque_1" xmlns="http://www.w3.org/2000/svg" xmlns:xlink="http://www.w3.org/1999/xlink" x="0px" y="0px"
	 viewBox="0 0 100 100" style="enable-background:new 0 0 100 100;" xml:space="preserve">
<style type="text/css">
	.st0{fill-rule:evenodd;clip-rule:evenodd;fill:#FFFFFF;}
</style>
<g>
	<path class="st0" d="M45.88,56.66c0.03,0.03,0.05,0.05,0.08,0.08c0.7,0.7,1.45,1.26,2.26,1.7c0.68,0.37,1.4,0.65,2.16,0.84v5.81
		H37.03c-0.1,0-0.19,0-0.29,0c-0.01,0-0.03,0-0.04,0h-0.29c-1.36-0.03-2.63-0.29-3.8-0.79L45.88,56.66z M55.07,32.27
		c1.06,0.58,2.05,1.32,2.97,2.24c0.87,0.87,1.59,1.8,2.16,2.79c0.46-0.37,0.96-0.67,1.5-0.88c0.75-0.31,1.56-0.46,2.43-0.46
		c1.77,0,3.27,0.61,4.52,1.85c0.07,0.07,0.14,0.15,0.21,0.22l-9.29,5.34c-0.02-0.03-0.03-0.05-0.05-0.08
		c-0.03-0.01-0.05-0.03-0.08-0.04c-0.4-0.4-0.83-0.76-1.26-1.07c-0.96-0.68-2-1.16-3.12-1.43V32.27z M24.34,36.48
		c-1.29,1.29-2.76,2.13-4.41,2.52v22c1.64,0.4,3.1,1.23,4.38,2.49c0.02,0.01,0.03,0.03,0.05,0.04c0.02,0.02,0.05,0.04,0.08,0.07
		l4.08-2.35c-1.6-1.9-2.4-4.13-2.41-6.69c0.01-2.46,0.75-4.62,2.24-6.47c0.27-0.33,0.56-0.66,0.87-0.97c1.95-1.94,4.28-2.96,7-3.06
		c0-0.17,0-0.34,0-0.51c0-0.1,0-0.2,0-0.3l7.3,4.21c-0.11,0.41-0.19,0.84-0.24,1.28c-0.06,0.42-0.1,0.86-0.11,1.3
		c0.01,0.91,0.12,1.77,0.34,2.59l-14.97,8.64c0.21,0.26,0.44,0.51,0.68,0.75c0.11,0.11,0.23,0.22,0.34,0.33
		c0.93,0.86,1.94,1.52,3.04,1.97l-5.85,3.38c0.23,0.81,0.35,1.67,0.37,2.56c0,0.02,0,0.03,0,0.05c-0.02,0.89-0.14,1.73-0.36,2.52
		l19.1,11.01c0.03-0.03,0.06-0.05,0.09-0.08l0.01-0.01c1.29-1.27,2.76-2.11,4.42-2.51V65.08h4.68v-5.81
		c1.64-0.4,3.11-1.24,4.39-2.52c0.02-0.01,0.04-0.02,0.07-0.03c0.02-0.03,0.04-0.05,0.07-0.08l13.27,7.67
		c-1.26,0.53-2.62,0.79-4.1,0.79c-0.01,0-0.03,0-0.04,0H55.07v16.12c1.64,0.41,3.11,1.24,4.39,2.51c0.02,0.01,0.03,0.02,0.05,0.03
		c0.02,0.02,0.04,0.05,0.07,0.08l19.11-10.99c-0.23-0.82-0.35-1.69-0.35-2.6c0.01-0.92,0.12-1.8,0.34-2.63l-5.81-3.31
		c0.99-0.42,1.91-1,2.76-1.74c0.2-0.18,0.41-0.37,0.6-0.57c0.24-0.24,0.48-0.49,0.7-0.75l-14.99-8.67c0.21-0.8,0.33-1.64,0.34-2.54
		c0-0.02,0-0.04,0-0.05c0-0.16-0.01-0.32-0.01-0.47c-0.04-0.72-0.15-1.41-0.33-2.06l8.59-4.94c-0.01,0.56-0.09,1.09-0.24,1.6
		c2.27,0.31,4.25,1.31,5.94,3c0.95,0.94,1.68,1.98,2.2,3.1c0.6,1.32,0.9,2.77,0.89,4.34c0,2.56-0.79,4.79-2.37,6.69l4.05,2.33
		c0.04-0.03,0.07-0.06,0.11-0.09v-0.01c1.29-1.26,2.75-2.1,4.39-2.5V39.01c-1.64-0.41-3.11-1.24-4.39-2.5V36.5
		c-0.03-0.02-0.06-0.04-0.09-0.07l-10.5,6.06c0-0.06,0-0.12,0-0.18c0-0.88-0.15-1.69-0.45-2.43c-0.28-0.68-0.68-1.3-1.21-1.87
		l9.81-5.64c-0.22-0.82-0.34-1.69-0.34-2.6c0.01-0.9,0.12-1.76,0.34-2.58L59.56,16.17c-0.03,0.03-0.05,0.05-0.08,0.08
		c-1.29,1.28-2.76,2.12-4.41,2.51v13.49c-0.92-0.51-1.9-0.88-2.92-1.13c-0.57-0.14-1.16-0.23-1.76-0.29V18.79
		c-1.66-0.4-3.14-1.25-4.43-2.54c-0.03-0.03-0.05-0.05-0.08-0.08L26.77,27.19c0.22,0.8,0.34,1.64,0.36,2.52c0,0.02,0,0.03,0,0.05
		c-0.02,0.9-0.14,1.76-0.37,2.58l10.51,6.02c0.62-1.4,1.52-2.69,2.7-3.87c0.31-0.31,0.62-0.6,0.95-0.87
		c2.3-1.91,4.99-2.87,8.09-2.87c0.47,0,0.93,0.03,1.38,0.08v9.9c-0.86,0.21-1.66,0.53-2.42,0.97c-0.71,0.4-1.37,0.91-1.99,1.53
		c-0.02,0.01-0.04,0.03-0.07,0.04c-0.02,0.02-0.03,0.04-0.05,0.07l-8.6-4.97c-0.31,0.7-0.55,1.42-0.72,2.17
		c-0.19,0.85-0.3,1.74-0.32,2.66l-11.82-6.8c-0.01,0.02-0.02,0.03-0.03,0.04C24.35,36.46,24.34,36.47,24.34,36.48z M45.94,2.79
		l0.03-0.01c1.53-1.51,3.32-2.41,5.38-2.68C51.79,0.03,52.25,0,52.72,0c2.63,0.01,4.87,0.93,6.75,2.77l0.03,0.01
		c1.84,1.85,2.77,4.08,2.8,6.71c0,0.02,0,0.04,0,0.07c-0.02,0.9-0.15,1.75-0.38,2.56l19.1,10.99c0.03-0.03,0.07-0.05,0.11-0.08V23
		c1.87-1.83,4.13-2.75,6.77-2.75c2.62,0,4.87,0.91,6.73,2.75l0.03,0.05c0.71,0.71,1.28,1.47,1.72,2.29c0.7,1.33,1.05,2.8,1.07,4.42
		c0,0.02,0,0.04,0,0.05c-0.03,2.63-0.96,4.86-2.8,6.69c-1.29,1.29-2.77,2.14-4.42,2.54v21.92c1.65,0.39,3.12,1.23,4.41,2.5
		l0.03,0.03c1.83,1.85,2.76,4.09,2.79,6.72c0,0.01,0,0.03,0,0.04c-0.02,1.49-0.32,2.85-0.92,4.08c-0.45,0.95-1.08,1.83-1.88,2.63
		c-1.87,1.87-4.12,2.8-6.75,2.8c-2.65,0-4.9-0.94-6.77-2.8c-0.03-0.03-0.06-0.05-0.09-0.08L61.91,87.88
		c0.23,0.8,0.36,1.66,0.38,2.56c0,0.02,0,0.05,0,0.07c-0.03,2.63-0.97,4.86-2.81,6.69c-1.58,1.58-3.43,2.49-5.55,2.74
		c-0.39,0.05-0.8,0.07-1.21,0.07c-2.64,0-4.9-0.94-6.76-2.8c-1.85-1.84-2.77-4.08-2.78-6.72c0-0.91,0.11-1.78,0.33-2.6L24.44,76.87
		c-0.03,0.03-0.05,0.06-0.08,0.08c-0.01,0.01-0.02,0.02-0.03,0.03c-1.88,1.87-4.13,2.8-6.76,2.8c-2.65,0-4.91-0.94-6.77-2.8
		C9.86,76.04,9.17,75,8.71,73.85c-0.45-1.1-0.68-2.3-0.68-3.6c0.01-2.63,0.93-4.88,2.78-6.73l0.01-0.03
		c1.29-1.26,2.76-2.09,4.42-2.49V39c-1.66-0.4-3.14-1.24-4.43-2.52c-1.85-1.84-2.77-4.08-2.78-6.72c0-1.7,0.38-3.24,1.14-4.63
		c0.43-0.76,0.97-1.47,1.63-2.13l0.01-0.03c1.86-1.83,4.12-2.75,6.76-2.75c2.62,0,4.87,0.91,6.73,2.75
		c0.02,0.02,0.03,0.04,0.05,0.07c0.03,0.03,0.06,0.05,0.09,0.08l19.06-10.99c-0.22-0.82-0.33-1.68-0.33-2.59
		C43.18,6.9,44.1,4.65,45.94,2.79z"/>
</g>
</svg>
