<svg xmlns="http://www.w3.org/2000/svg" viewBox="0 0 76.92 100"><defs><style>.cls-1{fill:#1d1d1b;}</style></defs><g id="Calque_2" data-name="Calque 2"><g id="Calque_1-2" data-name="Calque 1"><path id="Icon_ionic-ios-hand-2" data-name="Icon ionic-ios-hand-2" class="cls-1" d="M71.82,16.67a5,5,0,0,0-5.07,4.95V47.9a2.14,2.14,0,0,1-4.28,0V9.12a5.07,5.07,0,0,0-10.14,0V39.59a2.14,2.14,0,0,1-4.27,0V5A5.07,5.07,0,0,0,37.92,5V43.75a2.14,2.14,0,0,1-4.28,0V13.28a5.07,5.07,0,0,0-10.14,0V65.74l-6.68-5.67C10.55,54.61,5.24,52.28.91,56.29-2,59.13,2.57,63.72,7.35,69.08,12,74.24,24.17,91.16,34.58,97.26A18.74,18.74,0,0,0,44.33,100H58.08c11.07,0,18.84-9.11,18.84-22.4v-56A5.06,5.06,0,0,0,71.82,16.67Z"/></g></g></svg>