<?xml version="1.0" encoding="utf-8"?>
<!-- Generator: Adobe Illustrator 25.0.0, SVG Export Plug-In . SVG Version: 6.00 Build 0)  -->
<svg version="1.1" id="Calque_1" xmlns="http://www.w3.org/2000/svg" xmlns:xlink="http://www.w3.org/1999/xlink" x="0px" y="0px"
	 viewBox="0 0 1920 1080" style="enable-background:new 0 0 1920 1080;" xml:space="preserve">
<style type="text/css">
	.st0{fill:#283593;}
	.st1{fill:#BB7171;}
	.st2{fill:#7FB8CE;}
	.st3{fill:#DBC6A9;}
	.st4{fill:#C193CE;}
</style>
<rect class="st0" width="1920" height="1080"/>
<path class="st1" d="M372.49,705.61c-11.14,1.03-26.59,9.72-30.04,16.88c-1.07,2.22,0.05,11.28,2.63,19.83l4.77,15.38l-8.18,2.45
	c-7.81,2.32-11.02,1.39-43.38-14.19l-35.08-16.89l-16.89,35.08c-15.7,32.61-17.25,35.21-25.06,38.14l-8.17,3.07l-4.6-12.56
	c-6.26-16.71-12.84-22-26.3-20.57c-30.12,3.15-48.83,39.48-33.36,64.88c7.29,12.03,17.39,15.07,32.76,9.69l13.67-4.37l2.7,8.3
	c2.57,7.93,1.51,10.77-14.19,43.38l-16.89,35.08l35.08,16.89c32.36,15.58,35.09,17.5,38.14,25.06l3.18,7.92l-14.99,5.87
	c-17.31,6.88-20.19,10.97-17.88,26.39c3.86,28.64,38.09,46.03,63.39,32.65c13.02-6.82,16.29-17.41,10.79-33.15l-4.37-13.67l8.3-2.7
	c7.93-2.57,10.77-1.51,43.38,14.19l35.08,16.89l16.89-35.08c15.7-32.61,17.25-35.21,25.06-38.14l8.17-3.07l5.11,13.41
	c5.51,15.74,14.68,21.98,29.1,19.18c28.12-5.33,44.03-40.27,29.19-65.06c-7.8-13.49-12.61-14.89-30.43-9.48l-15.38,4.77l-2.45-8.18
	c-2.32-7.81-1.39-11.02,14.19-43.38l16.89-35.08l-35.08-16.89c-32.61-15.7-35.21-17.25-38.14-25.06l-3.07-8.17l13.41-5.11
	c15.37-5.38,21.37-14.05,19.57-28.01C417.23,721.38,394.16,703.57,372.49,705.61z"/>
<path class="st2" d="M1509.14,216.5c0.39,1.38,15.55,13.58,33.46,26.43c30.67,22.53,32.9,23.86,42.34,22.76
	c13.68-1.48,17.55-7.52,14.71-23.67c-3.07-16.32,0.85-21.97,17.35-25.26c23.03-4.81,46.39,15.05,45.13,38.51
	c-0.32,6.58-1.32,12.64-2.19,13.78c-0.86,1.14-8.94,3.27-18.11,4.94c-15.35,2.73-17.07,3.58-18.54,10.72
	c-2.99,13.89,4.51,23.88,37.58,48.94l29.87,22.64l24.71-32.61c22.47-29.64,25.51-32.72,33.08-34.17c4.81-0.66,9.27-0.87,10.19-0.18
	c0.91,0.69,2.25,7.45,3.3,15.07c1.58,15.92,8.18,22.36,24.31,23.81c14.3,1.5,26.12-4.62,37.18-19.21
	c10.2-13.45,12.55-26.03,7.24-40.82c-4.91-13.41-11.76-17.17-28.53-15.88c-17.35,1.57-19.97,0.3-19.35-10
	c0.15-6.35,5.34-14.62,24-39.25l23.85-31.47l-31.47-23.85c-24.63-18.66-31.86-25.22-33.72-31.3c-3.21-9.97-0.16-13.05,16.27-15.31
	c16.03-2.21,21.21-7.62,22.89-23.58c1.34-15.5-4.16-25.77-21.04-38.56c-13.23-10.02-14.71-10.43-29.54-8.39
	c-21.24,2.93-28.56,12.1-25.51,32.72l2.27,15l-10.71,0.86c-10.13,0.58-11.9-0.4-42.46-23.56l-31.7-24.02l-23.5,31.01
	c-25.58,33.75-29.23,42.83-22.03,56.54c3.52,6.26,5.4,6.61,19.83,4.62c17.98-2.89,18.84-2.59,24.33,9.11
	c6.29,13.02,4.52,22.45-6.71,37.28c-9.33,12.31-11.4,13.62-23.82,15.33c-17.24,2.37-23.39-2.29-24.91-19.24
	c-1.69-16.72-7.45-21.44-22.11-18.19c-10.89,2.52-11.98,3.49-35.13,34.04C1518.84,199.44,1508.51,214.95,1509.14,216.5z"/>
<path class="st3" d="M1612.19,894.45c7.82,34.7,7.93,35.17,15.45,39.92c10.12,6.4,14.27,4.97,21.71-7.12
	c7.39-12.33,13.95-14.06,26.12-7.37c7.65,4.23,9.47,6.79,13.18,18.86c4.03,13.48,4.06,14.71-1.87,24.73
	c-8.14,14.48-16.41,16.35-29.27,6.6c-10.5-8.05-16.16-6.77-22.08,5.47c-3.03,6.39-2.59,10.51,4.27,40.95l7.66,33.99l34.46-7.77
	l34.46-7.77l5.3-8.39c6.95-10.99,5.86-14.71-6.04-20.22c-13.24-5.94-15.21-14.68-6.44-28.56c6.22-9.83,6.87-10.23,21.25-12.48
	c12.72-1.88,15.82-1.33,22.92,3.76c11.26,8.13,12.51,14.79,4.54,26.76c-7.92,12.2-7.14,16.74,4.06,22.4
	c8.41,4.3,9.41,4.33,42.69-3.17l33.99-7.66l-7.61-33.75c-6.76-29.98-7.29-34.57-4.26-38.72c4.68-6.76,6.62-6.95,16.03-0.39
	c11.1,7.42,18.79,7.42,26.77-0.08c18.42-17.3,15.89-47.23-5.46-60.53c-8.1-5.12-12.01-5.97-19.09-4.38
	c-7.55,1.7-10.07,3.76-14.66,11.98c-5.58,10.44-10.49,11.79-16.55,4.72c-1.95-2.04-6.67-18.59-10.77-36.76l-7.5-33.28l-32.34,7.29
	c-35.41,7.98-41.41,11.07-45.15,23.07c-1.92,6.88-1.53,7.54,8.94,14.35c13.07,8.46,14.63,14.31,7.64,27.3
	c-5.09,9.33-6.16,10.07-20.33,13.26c-13.69,3.09-15.74,2.8-23.84-2.32c-12.09-7.44-13.38-15.34-5.2-28.59
	c7.57-12.62,5.72-18.65-7.44-23.12c-7.46-2.29-13.05-1.77-40.9,4.51l-32.57,7.34L1612.19,894.45z"/>
<path class="st4" d="M766.29,405.45c-7.58-5.73-23.82-6.62-31.19-2.01c-5.12,3.21-7.22,7.14-9.28,16.59l-2.52,12.36l-8.26-1.81
	c-7.93-1.73-8.66-2.44-27-31.72l-18.73-29.9l-27.85,17.44c-30.51,19.11-35.88,25.1-34.04,38.51c0.97,6.09,1.83,7.01,10.5,8.57
	c15.13,2.75,19.65,6.33,20.55,15.96c1.23,13.79-4.46,22.01-22.18,31.95c-7.63,4.2-27.85-0.31-31.91-6.8
	c-1.7-2.72-1.65-9.45,0.09-15.78c3.49-13.54,0.62-19.03-10.87-21.44c-8.13-1.6-9.49-1.04-37.95,16.79l-29.69,18.6l18.19,29.95
	c17.01,28.07,18.05,30.63,16.7,37.58l-1.83,7.55l-12.63-2.86c-16.32-3.75-24.23,0.91-28.84,16.32c-7.08,25.11,13.4,51.88,38.4,49.91
	c12.23-0.96,16.69-5.21,18.95-17.99c1.64-8.31,3.53-12.11,7.05-12.86c8.07-2.14,15.67,5.91,32.75,34.52l15.89,26.73l30.3-18.98
	c29.48-18.47,30.38-19.32,31.94-27.29c2.64-11.26-0.86-15.48-14.49-18.58c-12.96-2.94-14.89-4.65-15.89-16.26
	c-1.13-11.81,5.67-21.9,18.95-28.47c8.92-4.42,12.57-4.96,22.37-2.07c6.17,1.66,12.39,4.76,13.57,6.64
	c1.05,1.67,0.64,9.21-0.78,16.5c-3.11,15.05-0.23,19.66,12.36,21.09c6.86,0.94,10.81-0.95,37.02-17.37l29.48-18.47l-18.08-28.86
	c-14.15-22.59-17.99-30.08-17.69-35.51c0.16-8.84,2.47-9.7,17.06-6.9c6.99,1.15,14.62,1.03,16.87-0.38
	c6.55-4.1,12.84-19.11,12.12-27.98C784.92,430.18,773.62,410.77,766.29,405.45z"/>
<path class="st1" d="M1227.28,131.25c-8.8-5.85-25.17-8.59-31.83-5.36c-2.07,1-6.45,8.33-9.47,16.15l-5.33,14.15l-7.43-3.04
	c-7.09-2.92-8.91-5.5-23.78-36.14l-16.12-33.21l-32.61,15.83c-30.31,14.71-32.95,15.7-40.39,13.25l-7.78-2.58l3.83-11.98
	c5-16.01,3.2-23.81-7.54-30.73c-23.99-15.52-58.66,0.15-61.88,28.01c-1.55,13.18,4.14,21.4,18.56,26.54l12.58,4.88l-2.78,7.71
	c-2.67,7.36-5.08,8.82-35.39,23.54l-32.61,15.83l16.12,33.21c14.87,30.64,15.77,33.67,13.68,41.04l-2.21,7.72l-14.42-4.56
	c-16.7-5.19-21.18-3.88-28.34,8.84c-13.63,23.37,1.58,56.45,27.91,61.59c13.51,2.69,22.01-3.17,27.01-18.02l4.64-12.66l7.66,2.93
	c7.32,2.81,8.8,5.27,23.78,36.14l16.12,33.21l32.61-15.83c30.31-14.71,32.95-15.7,40.39-13.25l7.78,2.58l-3.95,12.9
	c-4.99,14.85-1.83,24.87,10.4,31.37c23.77,12.74,55.58-3.57,58.91-30.62c2.01-14.56-0.72-18.44-16.96-25l-14.07-5.6l2.9-7.48
	c2.78-7.13,5.31-8.94,35.4-23.54l32.61-15.83l-16.12-33.21c-14.98-30.87-16-33.56-13.68-41.04l2.44-7.83l12.81,4.18
	c14.41,5.14,23.82,2.31,30.52-9.03C1251.17,169.36,1244.42,142.58,1227.28,131.25z"/>
<path class="st3" d="M287.06,367.15c34.9-25.83,35.38-26.18,36.93-36.99c2.1-14.55-1.58-18.51-18.83-20.97
	c-17.49-2.28-22.7-8.82-21.31-25.82c0.9-10.69,2.87-14,14.5-24.1c13.06-11.15,14.43-11.79,28.59-10.02
	c20.28,2.07,26.49,10.47,22.02,29.75c-3.76,15.78,0.5,21.53,17.17,22.2c8.66,0.28,13.05-2.23,43.68-24.9L444,251l-25.92-35.03
	l-25.92-35.03l-12.03-1.86c-15.77-2.44-19.39,0.61-19.59,16.73c-0.02,17.84-8.81,24.34-28.73,21.26
	c-14.11-2.18-14.88-2.73-24.58-17.82c-8.46-13.42-9.4-17.18-7.26-27.68c3.46-16.67,10.29-21.35,27.66-18.24
	c17.61,2.94,22.3-0.16,23.03-15.56c0.61-11.59,0.14-12.73-24.9-46.55l-25.57-34.55l-33.95,25.13
	c-30.15,22.32-35.02,25.18-41.18,23.8c-9.9-1.96-11.08-4.05-8.45-17.88c2.75-16.15-1.09-24.81-13.48-30.13
	c-28.56-12.28-60.79,5.26-64.98,35.84c-1.68,11.64-0.68,16.47,4.65,23.66c5.68,7.68,9.24,9.5,20.74,10.64
	c14.47,1.18,18.43,6.04,13.56,16.33c-1.31,3.2-17.46,16.63-35.74,30.16l-33.48,24.78l24.33,32.87
	c26.63,35.99,33.09,41.23,48.39,39.56c8.66-1.21,9.19-1.98,11.59-17.12c2.93-18.88,8.69-23.51,26.71-22
	c12.98,1.16,14.35,2.01,25,16.4c10.3,13.91,11.01,16.36,9.33,28c-2.28,17.28-10.47,22.6-29.38,19.89
	c-17.9-2.34-23.72,2.7-22.14,19.73c1.17,9.53,4.54,15.57,25.5,43.88l24.5,33.11L287.06,367.15z"/>
<path class="st2" d="M1129.1,980.27c0.95-1.07,3.11-20.41,4.34-42.42c2.54-37.97,2.46-40.56-3.54-47.94
	c-8.59-10.75-15.77-10.76-27.87,0.3c-12.13,11.35-18.99,11.08-30.63-1.07c-16.42-16.85-12.21-47.22,8.26-58.75
	c5.72-3.26,11.37-5.67,12.8-5.55c1.43,0.12,7.56,5.79,13.89,12.62c10.54,11.49,12.18,12.48,19,9.88
	c13.32-4.94,17.73-16.63,21.11-57.98l3.06-37.36l-40.78-3.34c-37.07-3.04-41.3-3.96-46.58-9.56c-3.14-3.7-5.71-7.36-5.62-8.5
	c0.09-1.14,5.08-5.9,10.94-10.87c12.58-9.88,14.47-18.91,7.03-33.3c-6.41-12.87-17.92-19.55-36.17-21.05
	c-16.82-1.38-28.7,3.39-38.33,15.81c-8.68,11.35-8.17,19.14,1.92,32.6c10.64,13.79,10.98,16.69,1.96,21.69
	c-5.44,3.29-15.2,3.35-46,0.83l-39.35-3.22l-3.22,39.35c-2.52,30.8-4.17,40.42-8.3,45.25c-6.69,8.06-10.92,7.14-21.65-5.51
	c-10.47-12.34-17.82-13.8-32.18-6.65c-13.79,7.2-19.51,17.35-21.23,38.45c-1.35,16.54-0.9,18.01,8.79,29.43
	c13.88,16.35,25.54,17.59,41.3,3.96l11.44-9.97l6.47,8.57c5.93,8.24,6.05,10.26,2.92,48.47l-3.25,39.64l38.78,3.18
	c42.2,3.46,51.82,1.66,59.53-11.77c3.39-6.33,2.67-8.11-6.75-19.21c-12.09-13.62-12.3-14.5-5.38-25.42
	c7.61-12.29,16.51-15.87,35.05-14.35c15.4,1.26,17.61,2.3,25.73,11.87c11.26,13.27,10.63,20.97-2.85,31.34
	c-13.2,10.4-14.09,17.79-3.48,28.42c7.97,7.83,9.37,8.23,47.58,11.36C1109.5,981.25,1128.13,981.62,1129.1,980.27z"/>
<path class="st4" d="M1338.35,474.34c-3.73,9.03-0.31,25.58,6.27,31.86c4.57,4.36,9.07,5.51,19.07,5.27l13.04-0.49l0.38,8.75
	c0.37,8.4-0.15,9.3-24.6,34.92l-24.97,26.17l24.86,23.73c27.23,25.99,34.65,29.93,47.59,24.79c5.84-2.46,6.54-3.55,5.79-12.66
	c-1.26-15.88,1.12-21.31,10.53-24.57c13.48-4.61,23.22-0.91,37.88,14.47c6.23,6.65,7.08,28.08,1.66,33.76
	c-2.27,2.38-9.03,3.97-15.83,3.77c-14.49-0.19-19.22,4.03-18.59,16.18c0.55,8.57,1.47,9.8,26.88,34.05l26.5,25.3l25.17-25.63
	c23.59-23.99,25.88-25.65,33.2-26l8.05-0.01l0.48,13.4c0.57,17.33,7.34,24.14,23.99,25c27.02,0.96,48.4-26.19,39.79-50.84
	c-4.21-12.06-9.65-15.51-23.04-14.65c-8.75,0.39-13.07-0.58-14.75-3.94c-4.29-7.59,1.75-17.21,25.88-41.39l22.55-22.53l-27.05-25.82
	c-26.32-25.12-27.41-25.81-35.8-25.43c-11.98,0.11-15.27,4.66-14.76,19.13c0.49,13.76-0.71,16.11-12.06,19.96
	c-11.53,4.03-23.43-0.34-33.53-12.07c-6.8-7.88-8.31-11.42-8.01-21.98c0.03-6.62,1.48-13.63,3.05-15.27
	c1.4-1.46,9.05-2.9,16.73-3.26c15.9-0.56,19.74-4.58,17.84-17.59c-0.88-7.13-3.82-10.64-27.21-32.97l-26.32-25.12l-24.1,25.25
	c-18.86,19.76-25.35,25.46-30.87,26.49c-8.89,2-10.37-0.11-11.44-15.46c-0.7-7.31-2.84-14.95-4.85-16.87
	c-5.85-5.58-22.54-8.22-31.23-5.33C1358.17,449.55,1341.73,465.68,1338.35,474.34z"/>
</svg>
