<svg xmlns="http://www.w3.org/2000/svg" xmlns:xlink="http://www.w3.org/1999/xlink" width="300" zoomAndPan="magnify" viewBox="0 0 224.87999 225" height="300" preserveAspectRatio="xMidYMid meet" version="1.0"><defs><clipPath id="22de6b2211"><path d="M 0 0.0585938 L 224.761719 0.0585938 L 224.761719 224.9375 L 0 224.9375 Z M 0 0.0585938 " clip-rule="nonzero"/></clipPath><clipPath id="d9a0b4763e"><path d="M 112 0.0585938 L 224.761719 0.0585938 L 224.761719 158 L 112 158 Z M 112 0.0585938 " clip-rule="nonzero"/></clipPath><clipPath id="90fca23cb3"><path d="M 0 0.0585938 L 131 0.0585938 L 131 224.9375 L 0 224.9375 Z M 0 0.0585938 " clip-rule="nonzero"/></clipPath></defs><g clip-path="url(#22de6b2211)"><path fill="#ffffff" d="M 0 0.0585938 L 224.878906 0.0585938 L 224.878906 224.941406 L 0 224.941406 Z M 0 0.0585938 " fill-opacity="1" fill-rule="nonzero"/><path fill="#ffffff" d="M 0 0.0585938 L 224.878906 0.0585938 L 224.878906 224.941406 L 0 224.941406 Z M 0 0.0585938 " fill-opacity="1" fill-rule="nonzero"/></g><g clip-path="url(#d9a0b4763e)"><path fill="#290096" d="M 112.441406 0.0585938 C 114.765625 0.0585938 117.085938 0.132812 119.40625 0.277344 C 121.726562 0.421875 124.042969 0.636719 126.347656 0.921875 C 128.65625 1.210938 130.949219 1.570312 133.234375 2 C 135.519531 2.429688 137.789062 2.929688 140.042969 3.5 C 142.296875 4.070312 144.53125 4.710938 146.742188 5.421875 C 148.957031 6.128906 151.148438 6.90625 153.3125 7.75 C 155.476562 8.597656 157.617188 9.507812 159.726562 10.484375 C 161.835938 11.464844 163.910156 12.503906 165.957031 13.613281 C 168 14.71875 170.007812 15.886719 171.980469 17.117188 C 173.953125 18.347656 175.882812 19.640625 177.777344 20.992188 C 179.667969 22.339844 181.515625 23.75 183.320312 25.214844 C 185.125 26.679688 186.882812 28.199219 188.59375 29.773438 C 190.304688 31.351562 191.964844 32.976562 193.574219 34.652344 C 195.183594 36.332031 196.738281 38.054688 198.242188 39.832031 C 199.742188 41.605469 201.191406 43.421875 202.578125 45.285156 C 203.96875 47.148438 205.300781 49.054688 206.570312 51 C 207.84375 52.949219 209.050781 54.929688 210.199219 56.953125 C 211.347656 58.972656 212.433594 61.027344 213.457031 63.117188 C 214.476562 65.207031 215.429688 67.324219 216.320312 69.472656 C 217.210938 71.617188 218.03125 73.792969 218.789062 75.992188 C 219.542969 78.191406 220.226562 80.410156 220.84375 82.652344 C 221.460938 84.890625 222.011719 87.148438 222.488281 89.425781 C 222.964844 91.699219 223.371094 93.988281 223.707031 96.289062 C 224.039062 98.589844 224.304688 100.898438 224.496094 103.214844 C 224.6875 105.53125 224.808594 107.851562 224.855469 110.175781 C 224.902344 112.5 224.878906 114.824219 224.785156 117.148438 C 224.6875 119.46875 224.519531 121.785156 224.28125 124.097656 C 224.039062 126.410156 223.730469 128.714844 223.347656 131.007812 C 222.964844 133.300781 222.511719 135.578125 221.988281 137.84375 C 221.460938 140.109375 220.867188 142.355469 220.207031 144.582031 C 219.542969 146.8125 218.808594 149.015625 218.011719 151.199219 C 217.210938 153.382812 216.34375 155.539062 215.410156 157.667969 L 112.441406 112.5 Z M 112.441406 0.0585938 " fill-opacity="1" fill-rule="nonzero"/></g><path fill="#5ce1e6" d="M 215.410156 157.667969 C 213.539062 161.929688 211.414062 166.058594 209.03125 170.054688 C 206.648438 174.054688 204.03125 177.890625 201.171875 181.5625 C 198.3125 185.234375 195.238281 188.714844 191.945312 192.007812 C 188.65625 195.296875 185.175781 198.371094 181.503906 201.230469 C 177.828125 204.089844 173.996094 206.710938 169.996094 209.09375 C 166 211.472656 161.867188 213.601562 157.605469 215.46875 C 153.34375 217.339844 148.984375 218.9375 144.523438 220.265625 C 140.0625 221.59375 135.539062 222.640625 130.945312 223.40625 L 112.441406 112.5 Z M 215.410156 157.667969 " fill-opacity="1" fill-rule="nonzero"/><g clip-path="url(#90fca23cb3)"><path fill="#ca5fe8" d="M 130.945312 223.40625 C 129.035156 223.726562 127.117188 223.996094 125.195312 224.214844 C 123.269531 224.433594 121.339844 224.605469 119.40625 224.722656 C 117.472656 224.84375 115.539062 224.914062 113.601562 224.933594 C 111.664062 224.953125 109.730469 224.925781 107.792969 224.84375 C 105.859375 224.765625 103.925781 224.632812 102 224.453125 C 100.070312 224.273438 98.148438 224.042969 96.230469 223.765625 C 94.3125 223.484375 92.40625 223.15625 90.503906 222.78125 C 88.605469 222.402344 86.714844 221.976562 84.839844 221.5 C 82.960938 221.023438 81.097656 220.5 79.246094 219.929688 C 77.394531 219.355469 75.5625 218.738281 73.742188 218.070312 C 71.921875 217.40625 70.125 216.691406 68.339844 215.929688 C 66.558594 215.171875 64.800781 214.367188 63.058594 213.515625 C 61.320312 212.664062 59.601562 211.769531 57.90625 210.832031 C 56.214844 209.890625 54.546875 208.910156 52.902344 207.882812 C 51.257812 206.859375 49.644531 205.789062 48.054688 204.679688 C 46.46875 203.570312 44.910156 202.421875 43.378906 201.234375 C 41.851562 200.042969 40.355469 198.816406 38.890625 197.546875 C 37.425781 196.28125 35.992188 194.976562 34.59375 193.636719 C 33.199219 192.292969 31.835938 190.917969 30.507812 189.507812 C 29.183594 188.09375 27.894531 186.652344 26.640625 185.171875 C 25.390625 183.695312 24.175781 182.183594 23.003906 180.644531 C 21.828125 179.105469 20.695312 177.535156 19.601562 175.933594 C 18.507812 174.335938 17.457031 172.707031 16.449219 171.054688 C 15.441406 169.402344 14.476562 167.722656 13.554688 166.019531 C 12.632812 164.316406 11.753906 162.589844 10.921875 160.839844 C 10.089844 159.09375 9.300781 157.324219 8.5625 155.53125 C 7.820312 153.742188 7.125 151.9375 6.476562 150.109375 C 5.828125 148.285156 5.230469 146.445312 4.675781 144.589844 C 4.125 142.730469 3.617188 140.863281 3.164062 138.980469 C 2.707031 137.097656 2.300781 135.203125 1.941406 133.300781 C 1.582031 131.398438 1.273438 129.484375 1.015625 127.566406 C 0.753906 125.644531 0.542969 123.722656 0.382812 121.789062 C 0.222656 119.859375 0.113281 117.925781 0.0546875 115.992188 C -0.0078125 114.054688 -0.015625 112.117188 0.0234375 110.183594 C 0.0625 108.246094 0.152344 106.3125 0.292969 104.378906 C 0.433594 102.449219 0.625 100.519531 0.863281 98.597656 C 1.101562 96.675781 1.390625 94.761719 1.730469 92.855469 C 2.066406 90.945312 2.457031 89.050781 2.890625 87.164062 C 3.328125 85.277344 3.8125 83.402344 4.347656 81.539062 C 4.878906 79.675781 5.460938 77.828125 6.089844 75.996094 C 6.71875 74.164062 7.394531 72.351562 8.117188 70.554688 C 8.839844 68.757812 9.609375 66.980469 10.421875 65.222656 C 11.238281 63.464844 12.097656 61.730469 13 60.015625 C 13.90625 58.304688 14.851562 56.613281 15.84375 54.949219 C 16.835938 53.285156 17.871094 51.648438 18.945312 50.039062 C 20.019531 48.425781 21.136719 46.847656 22.296875 45.292969 C 23.453125 43.738281 24.652344 42.21875 25.886719 40.726562 C 27.125 39.234375 28.398438 37.777344 29.710938 36.351562 C 31.019531 34.925781 32.367188 33.535156 33.753906 32.179688 C 35.136719 30.824219 36.554688 29.507812 38.003906 28.226562 C 39.457031 26.941406 40.941406 25.699219 42.457031 24.492188 C 43.972656 23.289062 45.519531 22.121094 47.097656 20.996094 C 48.671875 19.871094 50.277344 18.785156 51.910156 17.742188 C 53.542969 16.699219 55.199219 15.699219 56.882812 14.742188 C 58.566406 13.785156 60.277344 12.875 62.007812 12.003906 C 63.738281 11.136719 65.492188 10.3125 67.265625 9.535156 C 69.039062 8.757812 70.832031 8.023438 72.640625 7.339844 C 74.453125 6.652344 76.28125 6.015625 78.125 5.421875 C 79.972656 4.832031 81.828125 4.289062 83.703125 3.792969 C 85.574219 3.300781 87.460938 2.851562 89.355469 2.457031 C 91.25 2.058594 93.15625 1.710938 95.070312 1.410156 C 96.984375 1.109375 98.902344 0.859375 100.828125 0.660156 C 102.757812 0.460938 104.6875 0.3125 106.621094 0.210938 C 108.554688 0.109375 110.492188 0.0585938 112.429688 0.0585938 L 112.441406 112.5 Z M 130.945312 223.40625 " fill-opacity="1" fill-rule="nonzero"/></g></svg>