<svg xmlns="http://www.w3.org/2000/svg" xmlns:xlink="http://www.w3.org/1999/xlink" width="1920" zoomAndPan="magnify" viewBox="0 0 1440 809.999993" height="1080" preserveAspectRatio="xMidYMid meet" version="1.0"><defs><g/><clipPath id="9c6e2b05e0"><path d="M 702 363 L 951 363 L 951 613 L 702 613 Z M 702 363 " clip-rule="nonzero"/></clipPath><clipPath id="7d94d303bf"><path d="M 962.316406 391.070312 L 932.304688 630.617188 L 695.148438 600.90625 L 725.164062 361.355469 Z M 962.316406 391.070312 " clip-rule="nonzero"/></clipPath><clipPath id="abc7a0ae45"><path d="M 962.316406 391.070312 L 932.304688 630.617188 L 695.148438 600.90625 L 725.164062 361.355469 Z M 962.316406 391.070312 " clip-rule="nonzero"/></clipPath><clipPath id="d5111888e6"><path d="M 282 151 L 490 151 L 490 359 L 282 359 Z M 282 151 " clip-rule="nonzero"/></clipPath><clipPath id="d102d9acbe"><path d="M 282.730469 336.277344 L 306.832031 151.949219 L 491.160156 176.054688 L 467.054688 360.378906 Z M 282.730469 336.277344 " clip-rule="nonzero"/></clipPath><clipPath id="6e7aeba236"><path d="M 229.546875 329.324219 L 260.847656 89.9375 L 497.839844 120.929688 L 466.539062 360.3125 Z M 229.546875 329.324219 " clip-rule="nonzero"/></clipPath><clipPath id="75b09de275"><path d="M 446 110 L 693 110 L 693 358 L 446 358 Z M 446 110 " clip-rule="nonzero"/></clipPath><clipPath id="1a1cd5ecd1"><path d="M 454.964844 364.449219 L 432.898438 124.039062 L 670.90625 102.195312 L 692.972656 342.605469 Z M 454.964844 364.449219 " clip-rule="nonzero"/></clipPath><clipPath id="6c4251ac8a"><path d="M 454.964844 364.449219 L 432.898438 124.039062 L 670.90625 102.195312 L 692.972656 342.605469 Z M 454.964844 364.449219 " clip-rule="nonzero"/></clipPath><clipPath id="412e5e9eec"><path d="M 503.242188 317.480469 L 744.667969 317.480469 L 744.667969 556.488281 L 503.242188 556.488281 Z M 503.242188 317.480469 " clip-rule="nonzero"/></clipPath><clipPath id="5ab2a1e7bd"><path d="M 667 148 L 914 148 L 914 394 L 667 394 Z M 667 148 " clip-rule="nonzero"/></clipPath><clipPath id="c8e3c207c0"><path d="M 898.785156 399.152344 L 657.894531 383.144531 L 673.742188 144.664062 L 914.632812 160.671875 Z M 898.785156 399.152344 " clip-rule="nonzero"/></clipPath><clipPath id="2b2982466b"><path d="M 898.785156 399.152344 L 657.894531 383.144531 L 673.742188 144.664062 L 914.632812 160.671875 Z M 898.785156 399.152344 " clip-rule="nonzero"/></clipPath><clipPath id="f776ecb344"><path d="M 888 141 L 1142 141 L 1142 396 L 888 396 Z M 888 141 " clip-rule="nonzero"/></clipPath><clipPath id="c40306f05c"><path d="M 865.378906 338.5 L 926.945312 105.058594 L 1158.050781 166.011719 L 1096.484375 399.449219 Z M 865.378906 338.5 " clip-rule="nonzero"/></clipPath><clipPath id="c44cd1c395"><path d="M 865.378906 338.5 L 926.945312 105.058594 L 1158.050781 166.011719 L 1096.484375 399.449219 Z M 865.378906 338.5 " clip-rule="nonzero"/></clipPath><clipPath id="644e745aa6"><path d="M 921 176 L 1174 176 L 1174 430 L 921 430 Z M 921 176 " clip-rule="nonzero"/></clipPath><clipPath id="00aeaef5be"><path d="M 1194.175781 227.394531 L 1139.007812 462.429688 L 906.324219 407.8125 L 961.492188 172.777344 Z M 1194.175781 227.394531 " clip-rule="nonzero"/></clipPath><clipPath id="297ba49618"><path d="M 1194.175781 227.394531 L 1139.007812 462.429688 L 906.324219 407.8125 L 961.492188 172.777344 Z M 1194.175781 227.394531 " clip-rule="nonzero"/></clipPath></defs><g clip-path="url(#9c6e2b05e0)"><g clip-path="url(#7d94d303bf)"><g clip-path="url(#abc7a0ae45)"><path fill="#032370" d="M 814.660156 590.5625 C 815.21875 586.109375 814.554688 581.78125 812.941406 577.90625 C 812.324219 576.429688 811.5625 575.003906 810.667969 573.671875 C 809.125 570.027344 807.871094 564.746094 811.0625 560.78125 L 868.703125 568.003906 C 878.441406 569.222656 887.332031 562.3125 888.550781 552.574219 L 895.863281 494.214844 C 899.867188 492.910156 903.898438 494.804688 906.8125 496.867188 C 910.714844 501.5625 916.339844 504.839844 922.871094 505.660156 C 936.511719 507.367188 948.96875 497.695312 950.679688 484.042969 C 952.390625 470.390625 942.707031 457.941406 929.066406 456.234375 C 924.609375 455.675781 920.28125 456.339844 916.410156 457.953125 C 914.917969 458.570312 913.503906 459.332031 912.160156 460.226562 C 908.773438 461.667969 903.953125 462.84375 900.097656 460.410156 L 907.378906 402.304688 C 908.601562 392.566406 901.6875 383.675781 891.949219 382.453125 L 834.3125 375.230469 C 831.117188 379.199219 832.371094 384.476562 833.914062 388.121094 C 834.808594 389.453125 835.570312 390.878906 836.1875 392.371094 C 837.800781 396.234375 838.46875 400.5625 837.910156 405.015625 C 836.199219 418.679688 823.742188 428.351562 810.097656 426.644531 C 796.445312 424.933594 786.761719 412.488281 788.472656 398.820312 C 789.289062 392.289062 792.578125 386.675781 797.277344 382.777344 C 799.5 379.640625 801.53125 375.1875 799.570312 370.878906 L 741.679688 363.625 C 731.941406 362.40625 723.050781 369.316406 721.832031 379.054688 L 714.609375 436.695312 C 718.578125 439.875 723.855469 438.632812 727.5 437.089844 C 728.832031 436.195312 730.246094 435.433594 731.738281 434.816406 C 735.609375 433.203125 739.9375 432.539062 744.394531 433.097656 C 758.046875 434.808594 767.71875 447.25 766.007812 460.90625 C 764.296875 474.558594 751.851562 484.230469 738.199219 482.519531 C 731.667969 481.703125 726.054688 478.425781 722.140625 473.726562 C 719.015625 471.507812 714.5625 469.472656 710.257812 471.433594 L 703.003906 529.324219 C 701.785156 539.0625 708.695312 547.953125 718.433594 549.175781 L 776.324219 556.429688 C 778.285156 560.734375 776.25 565.1875 774.027344 568.324219 C 769.332031 572.226562 766.042969 577.835938 765.222656 584.371094 C 763.515625 598.023438 773.199219 610.480469 786.851562 612.191406 C 800.492188 613.902344 812.949219 604.21875 814.660156 590.5625 " fill-opacity="1" fill-rule="nonzero"/></g></g></g><g clip-path="url(#d5111888e6)"><g clip-path="url(#d102d9acbe)"><g clip-path="url(#6e7aeba236)"><path fill="#290096" d="M 378.273438 130.625 C 377.691406 135.078125 378.335938 139.40625 379.925781 143.289062 C 380.539062 144.773438 381.289062 146.203125 382.175781 147.539062 C 383.703125 151.191406 384.925781 156.476562 381.710938 160.425781 L 324.113281 152.894531 C 314.382812 151.621094 305.453125 158.484375 304.179688 168.21875 L 296.554688 226.535156 C 292.542969 227.820312 288.519531 225.902344 285.621094 223.824219 C 281.746094 219.109375 276.136719 215.800781 269.609375 214.945312 C 255.976562 213.164062 243.46875 222.769531 241.683594 236.414062 C 239.898438 250.054688 249.519531 262.554688 263.148438 264.335938 C 267.601562 264.917969 271.933594 264.277344 275.816406 262.6875 C 277.308594 262.074219 278.726562 261.320312 280.074219 260.4375 C 283.472656 259.011719 288.296875 257.863281 292.136719 260.316406 L 284.542969 318.382812 C 283.273438 328.117188 290.136719 337.042969 299.867188 338.316406 L 357.464844 345.847656 C 360.679688 341.898438 359.453125 336.613281 357.929688 332.960938 C 357.042969 331.621094 356.289062 330.195312 355.679688 328.699219 C 354.085938 324.828125 353.445312 320.496094 354.027344 316.046875 C 355.8125 302.390625 368.324219 292.785156 381.953125 294.566406 C 395.597656 296.351562 405.214844 308.851562 403.429688 322.503906 C 402.578125 329.035156 399.257812 334.628906 394.539062 338.503906 C 392.300781 341.628906 390.242188 346.070312 392.179688 350.386719 L 450.03125 357.953125 C 459.765625 359.226562 468.691406 352.363281 469.964844 342.628906 L 477.496094 285.03125 C 473.546875 281.828125 468.261719 283.042969 464.609375 284.566406 C 463.273438 285.453125 461.855469 286.207031 460.359375 286.816406 C 456.476562 288.410156 452.144531 289.050781 447.695312 288.46875 C 434.050781 286.683594 424.445312 274.1875 426.226562 260.542969 C 428.011719 246.902344 440.507812 237.292969 454.152344 239.078125 C 460.679688 239.929688 466.277344 243.238281 470.164062 247.957031 C 473.277344 250.195312 477.71875 252.253906 482.035156 250.316406 L 489.601562 192.464844 C 490.875 182.734375 484.011719 173.804688 474.277344 172.53125 L 416.429688 164.96875 C 414.492188 160.648438 416.546875 156.207031 418.789062 153.082031 C 423.503906 149.207031 426.824219 143.613281 427.675781 137.085938 C 429.460938 123.441406 419.84375 110.929688 406.199219 109.148438 C 392.570312 107.363281 380.058594 116.980469 378.273438 130.625 " fill-opacity="1" fill-rule="nonzero"/></g></g></g><g clip-path="url(#75b09de275)"><g clip-path="url(#1a1cd5ecd1)"><g clip-path="url(#6c4251ac8a)"><path fill="#5ce1e6" d="M 556.394531 137.925781 C 556.804688 142.398438 558.382812 146.480469 560.789062 149.917969 C 561.710938 151.234375 562.757812 152.460938 563.917969 153.570312 C 566.207031 156.800781 568.566406 161.6875 566.296875 166.246094 L 508.449219 171.554688 C 498.675781 172.453125 491.476562 181.109375 492.371094 190.882812 L 497.746094 249.453125 C 494.113281 251.582031 489.769531 250.597656 486.484375 249.210938 C 481.667969 245.457031 475.46875 243.464844 468.914062 244.066406 C 455.222656 245.320312 445.128906 257.441406 446.386719 271.144531 C 447.644531 284.84375 459.773438 294.925781 473.464844 293.667969 C 477.9375 293.257812 482.019531 291.679688 485.457031 289.273438 C 486.78125 288.351562 488 287.304688 489.121094 286.144531 C 492.121094 284.007812 496.574219 281.824219 500.859375 283.375 L 506.214844 341.691406 C 507.109375 351.464844 515.769531 358.667969 525.542969 357.769531 L 583.386719 352.460938 C 585.65625 347.902344 583.296875 343.015625 581.007812 339.785156 C 579.851562 338.675781 578.800781 337.449219 577.878906 336.125 C 575.472656 332.699219 573.894531 328.613281 573.484375 324.144531 C 572.226562 310.429688 582.320312 298.308594 596.007812 297.054688 C 609.710938 295.796875 621.839844 305.875 623.101562 319.589844 C 623.703125 326.144531 621.691406 332.332031 617.941406 337.148438 C 616.445312 340.691406 615.414062 345.476562 618.25 349.261719 L 676.351562 343.929688 C 686.125 343.035156 693.328125 334.375 692.429688 324.601562 L 687.121094 266.757812 C 682.5625 264.5 677.675781 266.84375 674.445312 269.132812 C 673.335938 270.292969 672.121094 271.339844 670.792969 272.265625 C 667.359375 274.671875 663.273438 276.25 658.800781 276.660156 C 645.101562 277.917969 632.980469 267.835938 631.722656 254.132812 C 630.46875 240.429688 640.546875 228.3125 654.25 227.054688 C 660.804688 226.453125 666.992188 228.449219 671.820312 232.199219 C 675.347656 233.699219 680.132812 234.730469 683.921875 231.890625 L 678.589844 173.792969 C 677.691406 164.019531 669.035156 156.816406 659.261719 157.714844 L 601.160156 163.046875 C 598.324219 159.257812 599.355469 154.472656 600.851562 150.933594 C 604.601562 146.117188 606.609375 139.929688 606.007812 133.375 C 604.75 119.671875 592.621094 109.578125 578.917969 110.835938 C 565.226562 112.09375 555.136719 124.226562 556.394531 137.925781 " fill-opacity="1" fill-rule="nonzero"/></g></g></g><g clip-path="url(#412e5e9eec)"><path fill="#ca5fe8" d="M 719.546875 439.191406 C 715.058594 439.191406 710.847656 440.390625 707.203125 442.46875 C 705.8125 443.269531 704.492188 444.199219 703.28125 445.253906 C 699.859375 447.238281 694.773438 449.136719 690.441406 446.464844 L 690.441406 388.375 C 690.441406 378.558594 682.480469 370.597656 672.664062 370.597656 L 613.847656 370.597656 C 612.058594 366.785156 613.4375 362.550781 615.121094 359.402344 C 619.296875 354.949219 621.847656 348.957031 621.847656 342.375 C 621.847656 328.628906 610.703125 317.46875 596.941406 317.46875 C 583.183594 317.46875 572.039062 328.628906 572.039062 342.375 C 572.039062 346.863281 573.234375 351.078125 575.316406 354.71875 C 576.117188 356.121094 577.046875 357.429688 578.101562 358.652344 C 579.953125 361.835938 581.71875 366.46875 579.78125 370.597656 L 521.222656 370.597656 C 511.40625 370.597656 503.445312 378.558594 503.445312 388.375 L 503.445312 446.464844 C 507.777344 449.136719 512.859375 447.238281 516.285156 445.253906 C 517.492188 444.199219 518.8125 443.269531 520.214844 442.46875 C 523.847656 440.390625 528.058594 439.191406 532.546875 439.191406 C 546.320312 439.191406 557.464844 450.347656 557.464844 464.097656 C 557.464844 477.855469 546.320312 489.015625 532.546875 489.015625 C 525.964844 489.015625 519.988281 486.449219 515.535156 482.273438 C 512.144531 480.457031 507.472656 478.992188 503.445312 481.476562 L 503.445312 539.816406 C 503.445312 549.632812 511.40625 557.597656 521.222656 557.597656 L 579.3125 557.597656 C 581.972656 553.261719 580.085938 548.179688 578.101562 544.757812 C 577.046875 543.546875 576.117188 542.238281 575.316406 540.835938 C 573.234375 537.191406 572.039062 532.980469 572.039062 528.492188 C 572.039062 514.730469 583.183594 503.585938 596.941406 503.585938 C 610.703125 503.585938 621.847656 514.730469 621.847656 528.492188 C 621.847656 535.074219 619.296875 541.054688 615.121094 545.519531 C 613.304688 548.894531 611.839844 553.566406 614.320312 557.597656 L 672.664062 557.597656 C 682.480469 557.597656 690.441406 549.632812 690.441406 539.820312 L 690.441406 481.476562 C 694.472656 478.992188 699.144531 480.457031 702.53125 482.273438 C 706.984375 486.449219 712.964844 489.015625 719.546875 489.015625 C 733.308594 489.015625 744.464844 477.855469 744.464844 464.097656 C 744.464844 450.347656 733.308594 439.191406 719.546875 439.191406 " fill-opacity="1" fill-rule="nonzero"/></g><g clip-path="url(#5ab2a1e7bd)"><g clip-path="url(#c8e3c207c0)"><g clip-path="url(#2b2982466b)"><path fill="#fbcd40" d="M 691.027344 263.371094 C 695.507812 263.667969 699.789062 262.75 703.5625 260.917969 C 705.003906 260.210938 706.382812 259.367188 707.660156 258.398438 C 711.207031 256.644531 716.40625 255.085938 720.550781 258.042969 L 716.699219 316.003906 C 716.050781 325.796875 723.464844 334.269531 733.257812 334.921875 L 791.945312 338.820312 C 793.480469 342.742188 791.824219 346.878906 789.9375 349.90625 C 785.472656 354.074219 782.527344 359.882812 782.09375 366.449219 C 781.179688 380.167969 791.5625 392.039062 805.292969 392.953125 C 819.023438 393.867188 830.882812 383.472656 831.792969 369.753906 C 832.09375 365.273438 831.175781 360.992188 829.339844 357.21875 C 828.636719 355.765625 827.792969 354.398438 826.824219 353.109375 C 825.1875 349.8125 823.730469 345.070312 825.9375 341.082031 L 884.371094 344.964844 C 894.164062 345.613281 902.636719 338.195312 903.289062 328.402344 L 907.140625 270.441406 C 902.992188 267.484375 897.796875 269.042969 894.246094 270.796875 C 892.96875 271.769531 891.589844 272.609375 890.136719 273.3125 C 886.378906 275.152344 882.097656 276.066406 877.617188 275.769531 C 863.875 274.855469 853.492188 262.984375 854.402344 249.265625 C 855.316406 235.535156 867.179688 225.140625 880.917969 226.054688 C 887.488281 226.492188 893.285156 229.449219 897.449219 233.910156 C 900.710938 235.945312 905.273438 237.714844 909.460938 235.507812 L 913.328125 177.292969 C 913.980469 167.5 906.5625 159.027344 896.769531 158.375 L 838.808594 154.523438 C 835.863281 158.671875 837.410156 163.867188 839.164062 167.414062 C 840.132812 168.691406 840.976562 170.058594 841.679688 171.511719 C 843.515625 175.285156 844.433594 179.566406 844.136719 184.046875 C 843.222656 197.777344 831.363281 208.160156 817.632812 207.246094 C 803.902344 206.335938 793.519531 194.472656 794.433594 180.746094 C 794.871094 174.175781 797.8125 168.378906 802.277344 164.199219 C 804.3125 160.953125 806.082031 156.386719 803.875 152.203125 L 745.660156 148.332031 C 735.867188 147.683594 727.390625 155.101562 726.742188 164.894531 L 722.871094 223.109375 C 718.6875 225.316406 714.125 223.546875 710.863281 221.511719 C 706.695312 217.046875 700.902344 214.09375 694.332031 213.65625 C 680.601562 212.742188 668.730469 223.136719 667.816406 236.867188 C 666.90625 250.585938 677.296875 262.457031 691.027344 263.371094 " fill-opacity="1" fill-rule="nonzero"/></g></g></g><g clip-path="url(#f776ecb344)"><g clip-path="url(#c40306f05c)"><g clip-path="url(#c44cd1c395)"><path fill="#dd0d0d" d="M 1038.226562 160.382812 C 1037.082031 164.726562 1037.164062 169.105469 1038.25 173.15625 C 1038.667969 174.707031 1039.230469 176.21875 1039.941406 177.65625 C 1040.988281 181.476562 1041.527344 186.875 1037.835938 190.382812 L 981.667969 175.566406 C 972.175781 173.066406 962.445312 178.734375 959.945312 188.226562 L 944.945312 245.09375 C 940.800781 245.855469 937.058594 243.441406 934.445312 241.011719 C 931.203125 235.839844 926.0625 231.84375 919.695312 230.164062 C 906.402344 226.65625 892.773438 234.589844 889.261719 247.894531 C 885.753906 261.199219 893.699219 274.820312 906.992188 278.328125 C 911.335938 279.472656 915.710938 279.390625 919.765625 278.304688 C 921.328125 277.890625 922.828125 277.324219 924.277344 276.617188 C 927.828125 275.636719 932.761719 275.113281 936.257812 278.035156 L 921.324219 334.660156 C 918.820312 344.152344 924.488281 353.882812 933.980469 356.382812 L 990.148438 371.199219 C 993.839844 367.691406 993.296875 362.292969 992.253906 358.472656 C 991.542969 357.035156 990.976562 355.523438 990.5625 353.960938 C 989.476562 349.921875 989.394531 345.542969 990.539062 341.199219 C 994.050781 327.882812 1007.679688 319.953125 1020.972656 323.457031 C 1034.28125 326.96875 1042.226562 340.589844 1038.714844 353.90625 C 1037.035156 360.273438 1033.03125 365.398438 1027.855469 368.640625 C 1025.238281 371.453125 1022.628906 375.597656 1024 380.128906 L 1080.414062 395.003906 C 1089.90625 397.507812 1099.636719 391.839844 1102.140625 382.347656 L 1116.953125 326.179688 C 1113.441406 322.5 1108.046875 323.03125 1104.230469 324.078125 C 1102.789062 324.785156 1101.289062 325.351562 1099.726562 325.769531 C 1095.675781 326.851562 1091.296875 326.9375 1086.957031 325.792969 C 1073.652344 322.28125 1065.714844 308.664062 1069.226562 295.355469 C 1072.734375 282.050781 1086.355469 274.117188 1099.660156 277.625 C 1106.023438 279.304688 1111.152344 283.300781 1114.40625 288.476562 C 1117.210938 291.089844 1121.351562 293.699219 1125.882812 292.328125 L 1140.761719 235.914062 C 1143.261719 226.421875 1137.59375 216.691406 1128.105469 214.1875 L 1071.691406 199.3125 C 1070.320312 194.78125 1072.925781 190.636719 1075.546875 187.824219 C 1080.71875 184.582031 1084.722656 179.457031 1086.402344 173.089844 C 1089.910156 159.785156 1081.96875 146.152344 1068.664062 142.640625 C 1055.371094 139.136719 1041.734375 147.078125 1038.226562 160.382812 " fill-opacity="1" fill-rule="nonzero"/></g></g></g><g clip-path="url(#644e745aa6)"><g clip-path="url(#00aeaef5be)"><g clip-path="url(#297ba49618)"><path fill="#dd0d0d" d="M 1026.261719 410.164062 C 1027.285156 405.792969 1027.082031 401.421875 1025.886719 397.398438 C 1025.429688 395.859375 1024.824219 394.363281 1024.074219 392.945312 C 1022.925781 389.15625 1022.238281 383.773438 1025.832031 380.167969 L 1082.382812 393.441406 C 1091.9375 395.683594 1101.507812 389.75 1103.753906 380.195312 L 1117.191406 322.9375 C 1121.3125 322.066406 1125.121094 324.375 1127.800781 326.734375 C 1131.183594 331.816406 1136.429688 335.667969 1142.839844 337.175781 C 1156.222656 340.316406 1169.632812 332.015625 1172.777344 318.617188 C 1175.921875 305.222656 1167.605469 291.820312 1154.222656 288.679688 C 1149.851562 287.65625 1145.476562 287.859375 1141.457031 289.050781 C 1139.90625 289.507812 1138.421875 290.117188 1136.988281 290.863281 C 1133.46875 291.9375 1128.550781 292.601562 1124.976562 289.773438 L 1138.359375 232.761719 C 1140.601562 223.203125 1134.667969 213.632812 1125.113281 211.390625 L 1068.5625 198.117188 C 1064.96875 201.722656 1065.65625 207.105469 1066.804688 210.894531 C 1067.554688 212.3125 1068.160156 213.808594 1068.617188 215.359375 C 1069.8125 219.367188 1070.015625 223.742188 1068.992188 228.113281 C 1065.84375 241.519531 1052.433594 249.820312 1039.050781 246.679688 C 1025.65625 243.535156 1017.339844 230.136719 1020.484375 216.726562 C 1021.992188 210.320312 1025.855469 205.085938 1030.9375 201.703125 C 1033.476562 198.820312 1035.972656 194.605469 1034.476562 190.117188 L 977.675781 176.785156 C 968.121094 174.539062 958.550781 180.472656 956.308594 190.027344 L 943.035156 246.582031 C 946.644531 250.164062 952.023438 249.488281 955.808594 248.335938 C 957.230469 247.589844 958.714844 246.980469 960.261719 246.523438 C 964.285156 245.328125 968.660156 245.125 973.03125 246.152344 C 986.425781 249.296875 994.730469 262.691406 991.585938 276.089844 C 988.441406 289.484375 975.042969 297.789062 961.648438 294.644531 C 955.238281 293.140625 950.003906 289.289062 946.609375 284.203125 C 943.734375 281.664062 939.523438 279.171875 935.03125 280.664062 L 921.699219 337.464844 C 919.457031 347.019531 925.390625 356.59375 934.945312 358.835938 L 991.746094 372.167969 C 993.238281 376.65625 990.746094 380.871094 988.207031 383.753906 C 983.121094 387.136719 979.257812 392.371094 977.753906 398.78125 C 974.609375 412.175781 982.921875 425.589844 996.320312 428.730469 C 1009.703125 431.875 1023.117188 423.5625 1026.261719 410.164062 " fill-opacity="1" fill-rule="nonzero"/></g></g></g><g fill="#f6f6f6" fill-opacity="1"><g transform="translate(346.940909, 271.220611)"><g><path d="M 4.988281 0.757812 L 28.003906 4.25 L 31.015625 -15.605469 L 42.214844 -13.90625 C 62.378906 -10.847656 76.015625 -19.71875 78.425781 -35.601562 C 80.835938 -51.488281 70.542969 -63.984375 50.585938 -67.015625 L 16.066406 -72.25 Z M 33.472656 -31.796875 L 36.640625 -52.671875 L 45.089844 -51.390625 C 52.320312 -50.292969 56.253906 -45.320312 55.3125 -39.109375 C 54.367188 -32.898438 49.253906 -29.402344 41.921875 -30.515625 Z M 33.472656 -31.796875 "/></g></g></g><g fill="#f6f6f6" fill-opacity="1"><g transform="translate(553.061668, 285.670634)"><g><path d="M 5.003906 -0.644531 L 59.347656 -7.65625 L 56.816406 -27.269531 L 25.558594 -23.234375 L 18.640625 -76.863281 L -4.441406 -73.882812 Z M 5.003906 -0.644531 "/></g></g></g><g fill="#f6f6f6" fill-opacity="1"><g transform="translate(766.211385, 293.81517)"><g><path d="M 0.410156 0.03125 L 24.644531 1.886719 L 28.648438 -8.546875 L 53.191406 -6.667969 L 55.453125 4.25 L 79.6875 6.105469 L 63.046875 -69.230469 L 28.4375 -71.882812 Z M 34.210938 -24.542969 L 43.777344 -50.976562 L 44.703125 -50.90625 L 50.128906 -23.324219 Z M 34.210938 -24.542969 "/></g></g></g><g fill="#f6f6f6" fill-opacity="1"><g transform="translate(984.400944, 312.949482)"><g><path d="M 24.949219 5.933594 L 47.695312 11.339844 L 53.578125 -13.410156 L 88.722656 -54.808594 L 64.875 -60.476562 L 47.328125 -35.644531 L 46.425781 -35.859375 L 41.03125 -66.148438 L 17.484375 -71.746094 L 30.832031 -18.816406 Z M 24.949219 5.933594 "/></g></g></g><g fill="#f6f6f6" fill-opacity="1"><g transform="translate(579.404889, 482.273108)"><g><path d="M 5.046875 -0.0898438 L 28.316406 -0.511719 L 26.988281 -74.34375 L 3.714844 -73.921875 Z M 5.046875 -0.0898438 "/></g></g></g><g fill="#f6f6f6" fill-opacity="1"><g transform="translate(775.709422, 515.624884)"><g><path d="M 24.167969 2.585938 L 47.3125 5.058594 L 53.148438 -49.523438 L 76.089844 -47.070312 L 78.105469 -65.914062 L 8.980469 -73.304688 L 6.964844 -54.460938 L 30.003906 -52 Z M 24.167969 2.585938 "/></g></g></g></svg>