<svg xmlns="http://www.w3.org/2000/svg" xmlns:xlink="http://www.w3.org/1999/xlink" width="1920" zoomAndPan="magnify" viewBox="0 0 1440 809.999993" height="1080" preserveAspectRatio="xMidYMid meet" version="1.0"><defs><g/><clipPath id="3dd18767e1"><path d="M 679 408 L 1080 408 L 1080 810 L 679 810 Z M 679 408 " clip-rule="nonzero"/></clipPath><clipPath id="57eda64fd4"><path d="M 1098.121094 452.535156 L 1049.714844 838.863281 L 667.25 790.941406 L 715.65625 404.613281 Z M 1098.121094 452.535156 " clip-rule="nonzero"/></clipPath><clipPath id="c8c4351fa2"><path d="M 1098.121094 452.535156 L 1049.714844 838.863281 L 667.25 790.941406 L 715.65625 404.613281 Z M 1098.121094 452.535156 " clip-rule="nonzero"/></clipPath><clipPath id="4cef88083b"><path d="M 2 66 L 337 66 L 337 400 L 2 400 Z M 2 66 " clip-rule="nonzero"/></clipPath><clipPath id="837c52e008"><path d="M 2.128906 364.171875 L 41.003906 66.902344 L 338.269531 105.777344 L 299.398438 403.042969 Z M 2.128906 364.171875 " clip-rule="nonzero"/></clipPath><clipPath id="1f1428c236"><path d="M -83.636719 352.957031 L -33.15625 -33.105469 L 349.046875 16.871094 L 298.5625 402.933594 Z M -83.636719 352.957031 " clip-rule="nonzero"/></clipPath><clipPath id="451a45cefb"><path d="M 265 0 L 663 0 L 663 399 L 265 399 Z M 265 0 " clip-rule="nonzero"/></clipPath><clipPath id="9cac1a820f"><path d="M 279.898438 409.605469 L 244.3125 21.886719 L 628.15625 -13.339844 L 663.738281 374.378906 Z M 279.898438 409.605469 " clip-rule="nonzero"/></clipPath><clipPath id="48ed98fcc4"><path d="M 279.898438 409.605469 L 244.3125 21.886719 L 628.15625 -13.339844 L 663.738281 374.378906 Z M 279.898438 409.605469 " clip-rule="nonzero"/></clipPath><clipPath id="13f662a557"><path d="M 358 333.859375 L 747 333.859375 L 747 719.3125 L 358 719.3125 Z M 358 333.859375 " clip-rule="nonzero"/></clipPath><clipPath id="3619dcca34"><path d="M 623 61 L 1020 61 L 1020 456 L 623 456 Z M 623 61 " clip-rule="nonzero"/></clipPath><clipPath id="28e2553502"><path d="M 995.660156 465.574219 L 607.171875 439.757812 L 632.726562 55.152344 L 1021.21875 80.964844 Z M 995.660156 465.574219 " clip-rule="nonzero"/></clipPath><clipPath id="1637075607"><path d="M 995.660156 465.574219 L 607.171875 439.757812 L 632.726562 55.152344 L 1021.21875 80.964844 Z M 995.660156 465.574219 " clip-rule="nonzero"/></clipPath><clipPath id="927eb0b98f"><path d="M 978 50 L 1387 50 L 1387 460 L 978 460 Z M 978 50 " clip-rule="nonzero"/></clipPath><clipPath id="7d1b0995c0"><path d="M 941.785156 367.753906 L 1041.074219 -8.71875 L 1413.785156 89.578125 L 1314.496094 466.050781 Z M 941.785156 367.753906 " clip-rule="nonzero"/></clipPath><clipPath id="af8c56029e"><path d="M 941.785156 367.753906 L 1041.074219 -8.71875 L 1413.785156 89.578125 L 1314.496094 466.050781 Z M 941.785156 367.753906 " clip-rule="nonzero"/></clipPath><clipPath id="a37067835d"><path d="M 1031 106 L 1439 106 L 1439 515 L 1031 515 Z M 1031 106 " clip-rule="nonzero"/></clipPath><clipPath id="0c0f0db8e1"><path d="M 1472.046875 188.574219 L 1383.074219 567.621094 L 1007.816406 479.539062 L 1096.789062 100.492188 Z M 1472.046875 188.574219 " clip-rule="nonzero"/></clipPath><clipPath id="f863cada92"><path d="M 1472.046875 188.574219 L 1383.074219 567.621094 L 1007.816406 479.539062 L 1096.789062 100.492188 Z M 1472.046875 188.574219 " clip-rule="nonzero"/></clipPath></defs><g clip-path="url(#3dd18767e1)"><g clip-path="url(#57eda64fd4)"><g clip-path="url(#c8c4351fa2)"><path fill="#032370" d="M 859.992188 774.265625 C 860.890625 767.082031 859.820312 760.101562 857.21875 753.855469 C 856.21875 751.46875 854.992188 749.171875 853.550781 747.023438 C 851.0625 741.144531 849.039062 732.628906 854.1875 726.234375 L 947.144531 737.878906 C 962.847656 739.847656 977.1875 728.703125 979.15625 712.996094 L 990.949219 618.878906 C 997.40625 616.777344 1003.910156 619.832031 1008.605469 623.15625 C 1014.894531 630.730469 1023.96875 636.015625 1034.503906 637.335938 C 1056.503906 640.09375 1076.59375 624.496094 1079.351562 602.476562 C 1082.113281 580.457031 1066.492188 560.382812 1044.492188 557.628906 C 1037.308594 556.726562 1030.328125 557.800781 1024.082031 560.402344 C 1021.675781 561.398438 1019.398438 562.628906 1017.230469 564.066406 C 1011.765625 566.390625 1003.992188 568.289062 997.777344 564.363281 L 1009.519531 470.652344 C 1011.488281 454.949219 1000.339844 440.609375 984.636719 438.640625 L 891.679688 426.996094 C 886.53125 433.390625 888.554688 441.90625 891.042969 447.785156 C 892.484375 449.933594 893.710938 452.230469 894.707031 454.636719 C 897.3125 460.863281 898.382812 467.84375 897.484375 475.027344 C 894.722656 497.066406 874.632812 512.664062 852.632812 509.90625 C 830.613281 507.148438 814.992188 487.074219 817.753906 465.039062 C 819.074219 454.503906 824.378906 445.449219 831.953125 439.160156 C 835.539062 434.101562 838.816406 426.921875 835.65625 419.976562 L 742.292969 408.277344 C 726.589844 406.308594 712.25 417.457031 710.28125 433.160156 L 698.632812 526.117188 C 705.035156 531.246094 713.546875 529.242188 719.425781 526.753906 C 721.570312 525.3125 723.851562 524.082031 726.257812 523.085938 C 732.503906 520.484375 739.480469 519.414062 746.667969 520.3125 C 768.6875 523.070312 784.285156 543.140625 781.527344 565.160156 C 778.769531 587.179688 758.699219 602.78125 736.679688 600.023438 C 726.144531 598.703125 717.089844 593.417969 710.78125 585.839844 C 705.742188 582.257812 698.5625 578.980469 691.613281 582.140625 L 679.917969 675.503906 C 677.949219 691.207031 689.09375 705.546875 704.800781 707.515625 L 798.164062 719.214844 C 801.324219 726.160156 798.046875 733.339844 794.460938 738.398438 C 786.886719 744.6875 781.582031 753.742188 780.261719 764.277344 C 777.503906 786.296875 793.121094 806.386719 815.140625 809.144531 C 837.140625 811.902344 857.234375 796.285156 859.992188 774.265625 " fill-opacity="1" fill-rule="nonzero"/></g></g></g><g clip-path="url(#4cef88083b)"><g clip-path="url(#837c52e008)"><g clip-path="url(#1f1428c236)"><path fill="#290096" d="M 156.21875 32.511719 C 155.28125 39.691406 156.316406 46.675781 158.882812 52.9375 C 159.867188 55.328125 161.082031 57.632812 162.511719 59.789062 C 164.972656 65.679688 166.945312 74.203125 161.765625 80.574219 L 68.871094 68.425781 C 53.179688 66.375 38.777344 77.441406 36.726562 93.136719 L 24.425781 187.191406 C 17.957031 189.257812 11.472656 186.164062 6.792969 182.816406 C 0.542969 175.210938 -8.5 169.875 -19.027344 168.496094 C -41.011719 165.621094 -61.1875 181.113281 -64.0625 203.117188 C -66.941406 225.121094 -51.429688 245.277344 -29.445312 248.152344 C -22.265625 249.089844 -15.28125 248.054688 -9.019531 245.488281 C -6.609375 244.503906 -4.324219 243.289062 -2.148438 241.859375 C 3.328125 239.5625 11.109375 237.707031 17.304688 241.667969 L 5.058594 335.3125 C 3.007812 351.007812 14.074219 365.40625 29.769531 367.460938 L 122.660156 379.605469 C 127.84375 373.238281 125.867188 364.710938 123.410156 358.820312 C 121.980469 356.664062 120.765625 354.359375 119.78125 351.949219 C 117.210938 345.707031 116.175781 338.722656 117.117188 331.542969 C 119.996094 309.519531 140.167969 294.03125 162.152344 296.90625 C 184.15625 299.78125 199.667969 319.9375 196.789062 341.960938 C 195.414062 352.488281 190.058594 361.511719 182.453125 367.761719 C 178.839844 372.800781 175.523438 379.964844 178.648438 386.925781 L 271.945312 399.128906 C 287.640625 401.179688 302.039062 390.109375 304.089844 374.417969 L 316.238281 281.523438 C 309.867188 276.363281 301.34375 278.316406 295.453125 280.773438 C 293.296875 282.207031 291.011719 283.421875 288.597656 284.40625 C 282.339844 286.972656 275.355469 288.007812 268.175781 287.070312 C 246.171875 284.191406 230.679688 264.039062 233.554688 242.035156 C 236.433594 220.03125 256.585938 204.539062 278.589844 207.414062 C 289.117188 208.792969 298.144531 214.125 304.410156 221.734375 C 309.433594 225.34375 316.59375 228.664062 323.558594 225.539062 L 335.757812 132.242188 C 337.8125 116.546875 326.742188 102.148438 311.046875 100.09375 L 217.75 87.894531 C 214.625 80.933594 217.945312 73.769531 221.554688 68.730469 C 229.164062 62.480469 234.515625 53.457031 235.894531 42.929688 C 238.769531 20.925781 223.261719 0.75 201.257812 -2.128906 C 179.273438 -5.003906 159.097656 10.507812 156.21875 32.511719 " fill-opacity="1" fill-rule="nonzero"/></g></g></g><g clip-path="url(#451a45cefb)"><g clip-path="url(#9cac1a820f)"><g clip-path="url(#48ed98fcc4)"><path fill="#5ce1e6" d="M 443.476562 44.285156 C 444.140625 51.496094 446.683594 58.085938 450.5625 63.628906 C 452.050781 65.746094 453.742188 67.726562 455.613281 69.515625 C 459.304688 74.722656 463.105469 82.605469 459.449219 89.957031 L 366.15625 98.519531 C 350.394531 99.964844 338.78125 113.925781 340.226562 129.691406 L 348.894531 224.144531 C 343.039062 227.585938 336.03125 225.992188 330.730469 223.753906 C 322.964844 217.707031 312.964844 214.488281 302.394531 215.457031 C 280.316406 217.484375 264.039062 237.03125 266.066406 259.128906 C 268.09375 281.226562 287.65625 297.480469 309.734375 295.453125 C 316.945312 294.792969 323.53125 292.25 329.078125 288.367188 C 331.214844 286.878906 333.175781 285.191406 334.984375 283.320312 C 339.820312 279.875 347.003906 276.355469 353.917969 278.855469 L 362.550781 372.90625 C 363.996094 388.667969 377.957031 400.28125 393.71875 398.835938 L 487.011719 390.273438 C 490.667969 382.921875 486.867188 375.039062 483.171875 369.832031 C 481.304688 368.042969 479.613281 366.0625 478.125 363.925781 C 474.246094 358.398438 471.699219 351.8125 471.039062 344.601562 C 469.007812 322.484375 485.285156 302.941406 507.363281 300.914062 C 529.460938 298.886719 549.023438 315.140625 551.054688 337.257812 C 552.023438 347.832031 548.785156 357.8125 542.738281 365.578125 C 540.320312 371.289062 538.65625 379.007812 543.238281 385.113281 L 636.933594 376.511719 C 652.695312 375.066406 664.3125 361.105469 662.863281 345.34375 L 654.304688 252.050781 C 646.953125 248.414062 639.066406 252.195312 633.859375 255.886719 C 632.070312 257.757812 630.109375 259.445312 627.972656 260.9375 C 622.429688 264.816406 615.84375 267.359375 608.632812 268.023438 C 586.535156 270.050781 566.992188 253.792969 564.964844 231.695312 C 562.9375 209.597656 579.191406 190.054688 601.292969 188.027344 C 611.863281 187.054688 621.839844 190.277344 629.628906 196.324219 C 635.320312 198.742188 643.035156 200.402344 649.144531 195.824219 L 640.542969 102.128906 C 639.097656 86.367188 625.132812 74.75 609.371094 76.199219 L 515.675781 84.796875 C 511.097656 78.691406 512.757812 70.972656 515.175781 65.261719 C 521.222656 57.496094 524.464844 47.515625 523.492188 36.941406 C 521.464844 14.84375 501.902344 -1.429688 479.800781 0.597656 C 457.722656 2.625 441.449219 22.1875 443.476562 44.285156 " fill-opacity="1" fill-rule="nonzero"/></g></g></g><g clip-path="url(#13f662a557)"><path fill="#ca5fe8" d="M 706.597656 530.140625 C 699.359375 530.140625 692.566406 532.074219 686.691406 535.429688 C 684.445312 536.71875 682.320312 538.222656 680.367188 539.921875 C 674.84375 543.121094 666.648438 546.183594 659.660156 541.871094 L 659.660156 448.191406 C 659.660156 432.363281 646.816406 419.519531 630.988281 419.519531 L 536.136719 419.519531 C 533.25 413.371094 535.472656 406.539062 538.1875 401.464844 C 544.917969 394.285156 549.039062 384.621094 549.039062 374.003906 C 549.039062 351.832031 531.0625 333.839844 508.871094 333.839844 C 486.679688 333.839844 468.703125 351.832031 468.703125 374.003906 C 468.703125 381.246094 470.636719 388.039062 473.996094 393.914062 C 475.28125 396.175781 476.785156 398.285156 478.484375 400.253906 C 481.46875 405.390625 484.320312 412.863281 481.195312 419.519531 L 386.753906 419.519531 C 370.925781 419.519531 358.082031 432.359375 358.082031 448.191406 L 358.082031 541.871094 C 365.070312 546.183594 373.265625 543.121094 378.789062 539.921875 C 380.742188 538.222656 382.867188 536.71875 385.132812 535.429688 C 390.988281 532.074219 397.78125 530.140625 405.019531 530.140625 C 427.230469 530.140625 445.207031 548.136719 445.207031 570.308594 C 445.207031 592.5 427.230469 610.492188 405.019531 610.492188 C 394.402344 610.492188 384.761719 606.355469 377.578125 599.621094 C 372.113281 596.695312 364.582031 594.332031 358.082031 598.335938 L 358.082031 692.425781 C 358.082031 708.253906 370.925781 721.097656 386.753906 721.097656 L 480.433594 721.097656 C 484.730469 714.109375 481.683594 705.914062 478.484375 700.390625 C 476.785156 698.4375 475.28125 696.328125 473.996094 694.066406 C 470.636719 688.191406 468.703125 681.398438 468.703125 674.160156 C 468.703125 651.96875 486.679688 633.992188 508.871094 633.992188 C 531.0625 633.992188 549.039062 651.96875 549.039062 674.160156 C 549.039062 684.777344 544.917969 694.417969 538.1875 701.621094 C 535.257812 707.066406 532.898438 714.597656 536.898438 721.097656 L 630.988281 721.097656 C 646.816406 721.097656 659.660156 708.253906 659.660156 692.425781 L 659.660156 598.335938 C 666.160156 594.332031 673.691406 596.695312 679.15625 599.621094 C 686.339844 606.355469 695.980469 610.492188 706.597656 610.492188 C 728.789062 610.492188 746.785156 592.5 746.785156 570.308594 C 746.785156 548.136719 728.789062 530.140625 706.597656 530.140625 " fill-opacity="1" fill-rule="nonzero"/></g><g clip-path="url(#3619dcca34)"><g clip-path="url(#28e2553502)"><g clip-path="url(#1637075607)"><path fill="#fbcd40" d="M 660.605469 246.59375 C 667.828125 247.070312 674.734375 245.59375 680.820312 242.632812 C 683.144531 241.496094 685.367188 240.140625 687.425781 238.574219 C 693.148438 235.746094 701.53125 233.234375 708.21875 238 L 702.007812 331.476562 C 700.957031 347.269531 712.917969 360.933594 728.710938 361.984375 L 823.355469 368.273438 C 825.832031 374.601562 823.160156 381.269531 820.113281 386.152344 C 812.921875 392.871094 808.171875 402.238281 807.464844 412.832031 C 805.996094 434.953125 822.738281 454.101562 844.882812 455.574219 C 867.023438 457.042969 886.152344 440.28125 887.621094 418.160156 C 888.101562 410.933594 886.625 404.027344 883.664062 397.945312 C 882.53125 395.601562 881.167969 393.398438 879.605469 391.316406 C 876.96875 385.996094 874.621094 378.351562 878.175781 371.917969 L 972.410156 378.179688 C 988.207031 379.226562 1001.871094 367.265625 1002.921875 351.472656 L 1009.132812 257.996094 C 1002.445312 253.230469 994.0625 255.742188 988.339844 258.570312 C 986.28125 260.136719 984.058594 261.496094 981.714844 262.628906 C 975.648438 265.589844 968.742188 267.066406 961.519531 266.589844 C 939.355469 265.117188 922.613281 245.96875 924.085938 223.847656 C 925.554688 201.703125 944.683594 184.941406 966.847656 186.414062 C 977.441406 187.117188 986.785156 191.886719 993.507812 199.078125 C 998.765625 202.363281 1006.125 205.21875 1012.875 201.65625 L 1019.113281 107.773438 C 1020.164062 91.980469 1008.203125 78.3125 992.40625 77.265625 L 898.933594 71.054688 C 894.183594 77.738281 896.679688 86.121094 899.507812 91.84375 C 901.070312 93.902344 902.429688 96.105469 903.566406 98.453125 C 906.527344 104.535156 908.003906 111.441406 907.523438 118.664062 C 906.050781 140.808594 886.925781 157.550781 864.78125 156.082031 C 842.640625 154.609375 825.898438 135.480469 827.367188 113.339844 C 828.074219 102.746094 832.820312 93.398438 840.015625 86.660156 C 843.300781 81.417969 846.15625 74.058594 842.59375 67.308594 L 748.707031 61.070312 C 732.914062 60.019531 719.25 71.984375 718.199219 87.777344 L 711.960938 181.660156 C 705.210938 185.222656 697.851562 182.367188 692.59375 179.082031 C 685.871094 171.886719 676.527344 167.121094 665.933594 166.417969 C 643.789062 164.945312 624.640625 181.707031 623.171875 203.847656 C 621.699219 225.972656 638.460938 245.121094 660.605469 246.59375 " fill-opacity="1" fill-rule="nonzero"/></g></g></g><g clip-path="url(#927eb0b98f)"><g clip-path="url(#7d1b0995c0)"><g clip-path="url(#af8c56029e)"><path fill="#dd0d0d" d="M 1220.539062 80.503906 C 1218.691406 87.507812 1218.828125 94.566406 1220.574219 101.101562 C 1221.25 103.601562 1222.160156 106.042969 1223.304688 108.363281 C 1224.992188 114.519531 1225.863281 123.226562 1219.910156 128.882812 L 1129.324219 104.992188 C 1114.019531 100.957031 1098.328125 110.097656 1094.292969 125.402344 L 1070.101562 217.121094 C 1063.421875 218.34375 1057.382812 214.453125 1053.167969 210.535156 C 1047.941406 202.191406 1039.648438 195.746094 1029.382812 193.039062 C 1007.945312 187.386719 985.960938 200.175781 980.300781 221.632812 C 974.644531 243.089844 987.457031 265.0625 1008.898438 270.714844 C 1015.898438 272.5625 1022.957031 272.425781 1029.496094 270.675781 C 1032.011719 270.007812 1034.433594 269.09375 1036.773438 267.953125 C 1042.496094 266.375 1050.453125 265.527344 1056.089844 270.242188 L 1032.007812 361.566406 C 1027.96875 376.871094 1037.113281 392.5625 1052.417969 396.597656 L 1143.003906 420.488281 C 1148.953125 414.832031 1148.082031 406.125 1146.394531 399.96875 C 1145.25 397.648438 1144.339844 395.207031 1143.671875 392.691406 C 1141.921875 386.171875 1141.785156 379.113281 1143.628906 372.113281 C 1149.292969 350.636719 1171.277344 337.84375 1192.71875 343.496094 C 1214.175781 349.15625 1226.988281 371.125 1221.324219 392.601562 C 1218.617188 402.867188 1212.160156 411.136719 1203.816406 416.363281 C 1199.59375 420.902344 1195.386719 427.582031 1197.597656 434.886719 L 1288.578125 458.882812 C 1303.882812 462.921875 1319.578125 453.777344 1323.613281 438.472656 L 1347.503906 347.886719 C 1341.84375 341.953125 1333.140625 342.808594 1326.984375 344.496094 C 1324.664062 345.636719 1322.242188 346.554688 1319.722656 347.222656 C 1313.1875 348.96875 1306.128906 349.105469 1299.125 347.257812 C 1277.667969 341.601562 1264.871094 319.636719 1270.53125 298.179688 C 1276.191406 276.722656 1298.15625 263.925781 1319.613281 269.582031 C 1329.878906 272.289062 1338.152344 278.730469 1343.398438 287.078125 C 1347.917969 291.296875 1354.597656 295.503906 1361.902344 293.292969 L 1385.898438 202.3125 C 1389.933594 187.007812 1380.792969 171.3125 1365.488281 167.277344 L 1274.507812 143.28125 C 1272.296875 135.976562 1276.5 129.292969 1280.722656 124.757812 C 1289.066406 119.53125 1295.527344 111.261719 1298.234375 100.996094 C 1303.894531 79.539062 1291.082031 57.550781 1269.625 51.890625 C 1248.1875 46.238281 1226.199219 59.046875 1220.539062 80.503906 " fill-opacity="1" fill-rule="nonzero"/></g></g></g><g clip-path="url(#a37067835d)"><g clip-path="url(#0c0f0db8e1)"><g clip-path="url(#f863cada92)"><path fill="#dd0d0d" d="M 1201.242188 483.332031 C 1202.894531 476.28125 1202.566406 469.226562 1200.640625 462.742188 C 1199.898438 460.261719 1198.921875 457.847656 1197.714844 455.558594 C 1195.863281 449.453125 1194.753906 440.769531 1200.546875 434.953125 L 1291.75 456.363281 C 1307.160156 459.980469 1322.597656 450.410156 1326.214844 435 L 1347.890625 342.65625 C 1354.535156 341.25 1360.675781 344.976562 1364.996094 348.777344 C 1370.449219 356.976562 1378.914062 363.191406 1389.25 365.617188 C 1410.835938 370.683594 1432.460938 357.296875 1437.535156 335.691406 C 1442.605469 314.089844 1429.191406 292.476562 1407.609375 287.410156 C 1400.558594 285.757812 1393.503906 286.085938 1387.019531 288.011719 C 1384.519531 288.746094 1382.125 289.730469 1379.816406 290.929688 C 1374.136719 292.664062 1366.210938 293.730469 1360.445312 289.171875 L 1382.027344 197.226562 C 1385.640625 181.816406 1376.074219 166.378906 1360.664062 162.761719 L 1269.460938 141.355469 C 1263.664062 147.171875 1264.777344 155.851562 1266.628906 161.960938 C 1267.835938 164.25 1268.8125 166.664062 1269.550781 169.164062 C 1271.480469 175.628906 1271.808594 182.683594 1270.15625 189.734375 C 1265.078125 211.355469 1243.453125 224.742188 1221.867188 219.675781 C 1200.265625 214.605469 1186.855469 192.992188 1191.929688 171.371094 C 1194.355469 161.035156 1200.585938 152.59375 1208.785156 147.140625 C 1212.882812 142.488281 1216.902344 135.695312 1214.492188 128.453125 L 1122.890625 106.953125 C 1107.480469 103.335938 1092.042969 112.902344 1088.425781 128.3125 L 1067.019531 219.515625 C 1072.839844 225.292969 1081.515625 224.203125 1087.625 222.347656 C 1089.914062 221.140625 1092.308594 220.160156 1094.808594 219.421875 C 1101.292969 217.496094 1108.347656 217.167969 1115.394531 218.824219 C 1137 223.894531 1150.390625 245.5 1145.320312 267.105469 C 1140.25 288.707031 1118.644531 302.101562 1097.039062 297.03125 C 1086.703125 294.601562 1078.257812 288.390625 1072.785156 280.191406 C 1068.152344 276.09375 1061.359375 272.074219 1054.117188 274.484375 L 1032.617188 366.085938 C 1029 381.496094 1038.566406 396.933594 1053.976562 400.550781 L 1145.578125 422.050781 C 1147.988281 429.292969 1143.96875 436.089844 1139.871094 440.738281 C 1131.671875 446.191406 1125.441406 454.632812 1123.015625 464.96875 C 1117.945312 486.574219 1131.351562 508.203125 1152.953125 513.273438 C 1174.539062 518.339844 1196.171875 504.933594 1201.242188 483.332031 " fill-opacity="1" fill-rule="nonzero"/></g></g></g><g fill="#f6f6f6" fill-opacity="1"><g transform="translate(105.686843, 259.252646)"><g><path d="M 8.046875 1.222656 L 45.160156 6.851562 L 50.019531 -25.171875 L 68.082031 -22.429688 C 100.597656 -17.496094 122.589844 -31.796875 126.476562 -57.414062 C 130.363281 -83.035156 113.769531 -103.191406 81.582031 -108.074219 L 25.914062 -116.523438 Z M 53.980469 -51.28125 L 59.089844 -84.945312 L 72.71875 -82.875 C 84.378906 -81.109375 90.722656 -73.089844 89.199219 -63.070312 C 87.679688 -53.054688 79.433594 -47.417969 67.609375 -49.210938 Z M 53.980469 -51.28125 "/></g></g></g><g fill="#f6f6f6" fill-opacity="1"><g transform="translate(438.102664, 282.556537)"><g><path d="M 8.070312 -1.042969 L 95.707031 -12.347656 L 91.628906 -43.976562 L 41.222656 -37.472656 L 30.0625 -123.957031 L -7.164062 -119.152344 Z M 8.070312 -1.042969 "/></g></g></g><g fill="#f6f6f6" fill-opacity="1"><g transform="translate(781.854177, 295.691433)"><g><path d="M 0.664062 0.0507812 L 39.746094 3.046875 L 46.199219 -13.785156 L 85.78125 -10.75 L 89.429688 6.851562 L 128.515625 9.847656 L 101.675781 -111.648438 L 45.863281 -115.925781 Z M 55.171875 -39.582031 L 70.601562 -82.210938 L 72.089844 -82.097656 L 80.84375 -37.617188 Z M 55.171875 -39.582031 "/></g></g></g><g fill="#f6f6f6" fill-opacity="1"><g transform="translate(1133.733918, 326.54977)"><g><path d="M 40.234375 9.566406 L 76.917969 18.289062 L 86.40625 -21.625 L 143.085938 -88.386719 L 104.628906 -97.53125 L 76.324219 -57.484375 L 74.871094 -57.828125 L 66.167969 -106.675781 L 28.195312 -115.707031 L 49.726562 -30.34375 Z M 40.234375 9.566406 "/></g></g></g><g fill="#f6f6f6" fill-opacity="1"><g transform="translate(480.587035, 599.622043)"><g><path d="M 8.136719 -0.148438 L 45.667969 -0.824219 L 43.523438 -119.894531 L 5.992188 -119.21875 Z M 8.136719 -0.148438 "/></g></g></g><g fill="#f6f6f6" fill-opacity="1"><g transform="translate(797.171921, 653.409187)"><g><path d="M 38.976562 4.167969 L 76.300781 8.160156 L 85.714844 -79.867188 L 122.710938 -75.910156 L 125.960938 -106.300781 L 14.480469 -118.222656 L 11.230469 -87.832031 L 48.390625 -83.859375 Z M 38.976562 4.167969 "/></g></g></g></svg>